<svg xmlns="http://www.w3.org/2000/svg" viewBox="0 0 1920 1080"><defs><style>.cls-1{isolation:isolate;}.cls-2{fill:none;}.cls-3{fill:#f4982a;}.cls-4{fill:#ce2d17;}.cls-5{fill:#969696;mix-blend-mode:multiply;}.cls-6{fill:#9b1f1f;}</style></defs><title>Bird</title><g class="cls-1"><g id="Layer_1" data-name="Layer 1"><g id="invisibleframe"><rect class="cls-2" width="1920" height="1080"/></g><polygon class="cls-3" points="863.81 389.4 865.86 392.03 867.9 394.66 863.31 396.12 858.72 397.58 861.27 393.49 863.81 389.4"/><ellipse class="cls-4" cx="894.89" cy="380.92" rx="18.64" ry="9.08" transform="translate(3.57 770.12) rotate(-46.65)"/><ellipse id="Shadow" class="cls-5" cx="894.89" cy="380.92" rx="18.64" ry="9.08" transform="translate(3.57 770.12) rotate(-46.65)"/><path class="cls-6" d="M891.65,380.22l-18.75-2.69a9.76,9.76,0,0,0-11,8.25l-.15,1a9.75,9.75,0,0,0,8.25,11h0a30.53,30.53,0,0,0,15.82,10.93,30.94,30.94,0,0,0,16.09,0c4-1,6.53-2.36,11-4.77,0,0,9-4.9,11.18-9.26a13,13,0,0,1,.78-1.35,12.47,12.47,0,0,1,1.23-1.54l16.9,3.59.5-4.14.5-4.15Z"/><ellipse class="cls-4" cx="896.12" cy="381.95" rx="18.64" ry="9.08" transform="translate(3.2 771.33) rotate(-46.65)"/><circle cx="867.06" cy="386.75" r="1.46"/></g></g></svg>