<svg xmlns="http://www.w3.org/2000/svg" viewBox="0 0 85.23 42.44"><title>Bird</title><g style="isolation:isolate"><g id="Layer_1" data-name="Layer 1"><polygon points="5.09 22.05 7.13 24.68 9.18 27.31 4.59 28.77 0 30.23 2.54 26.14 5.09 22.05" fill="#f4982a"/><ellipse cx="36.17" cy="13.57" rx="18.64" ry="9.08" transform="translate(1.47 30.55) rotate(-46.65)" fill="#ce2d17"/><ellipse id="Shadow" cx="36.17" cy="13.57" rx="18.64" ry="9.08" transform="translate(1.47 30.55) rotate(-46.65)" fill="#969696" style="mix-blend-mode:multiply"/><path d="M32.93,12.87,14.17,10.18a9.73,9.73,0,0,0-11,8.24l-.15,1a9.75,9.75,0,0,0,8.24,11h0A30.58,30.58,0,0,0,27.09,41.38a31,31,0,0,0,16.1,0c4-1,6.53-2.36,11-4.77,0,0,9-4.9,11.18-9.26A9.24,9.24,0,0,1,66.1,26a11.59,11.59,0,0,1,1.23-1.54L84.22,28l.51-4.15.5-4.15Z" fill="#9b1f1f"/><ellipse cx="37.39" cy="14.6" rx="18.64" ry="9.08" transform="translate(1.11 31.77) rotate(-46.65)" fill="#ce2d17"/><circle cx="8.34" cy="19.4" r="1.46"/></g></g></svg>