<svg xmlns="http://www.w3.org/2000/svg" viewBox="0 0 1920 1080"><defs><style>.cls-1{isolation:isolate;}.cls-2{fill:none;}.cls-3{fill:#a47a43;}.cls-4{fill:#a3a3a3;opacity:0.49;}.cls-4,.cls-5{mix-blend-mode:multiply;}.cls-5{fill:#a0a0a0;opacity:0.61;}</style></defs><title>Deer</title><g class="cls-1"><g id="Layer_1" data-name="Layer 1"><g id="invisibleframe"><rect class="cls-2" width="1920" height="1080"/></g><path class="cls-3" d="M483.13,854.26c.08-.83.28-1.43.49-1.43s.43.5.59,1.17c.74,1,2.24,6,4.49,7.12a14.33,14.33,0,0,0,9.33,1.16q13.73-1.1,28.34-1.63c17.75-.62,32.13.62,48.19.09,5.09-.17,7.36-3.25,8.58-7.8,4.28-16,9-28.16,12.94-44.3l3.06-9.52-.67.07-5.71-.89-5.36-2.24-4.64-3.44-3.61-4.42-2.32-5.09-.89-5.4.61-5.37L606,784.64a15.65,15.65,0,0,1,18.54-1.4l3.72,1.82,24.37-16.88,1.72,5.12.25,5.47-1.21,5.46-2.61,5.07-3.82,4.34-.48.33,7.24,3.54,13.88,8.8c9.11,5.77,4.79,19.22-6.17,19.23l-18.87,0-14.83-.3-2.11,48.39a49.13,49.13,0,0,1-3.4,24.5c-.6,1.39-1.24,2.71-1.92,3.94l-.06.72v92.3a1.11,1.11,0,0,1-1.11,1.11H606.27a6.73,6.73,0,0,1-6.73-6.73V919.25c-1.68.78-3.23,1.41-4.56,1.92v73.94a1.11,1.11,0,0,1-1.1,1.11H581.05a6.73,6.73,0,0,1-6.73-6.73V925.05c-9.38-.08-22.18-1.91-44.08-5.22v75.28a1.11,1.11,0,0,1-1.1,1.11H516.31a6.73,6.73,0,0,1-6.73-6.73V916.71l-4.95-.75v79.15a1.11,1.11,0,0,1-1.1,1.11H490.7a6.74,6.74,0,0,1-6.73-6.73V902.81a.88.88,0,0,1,.06-.27c-.32-5-.59-10-.8-15.18s-.35-10.42-.43-15.5V869.4C483,865.5,483,858.17,483.13,854.26Z"/><path id="Shadow" class="cls-4" d="M646.44,794c1.46-1.56,2.92-3.11,4.37-4.67l2.61-5.07,1.22-5.46-.26-5.47-1.72-5.12L628.35,785Z"/><path id="Shadow-2" data-name="Shadow" class="cls-4" d="M620.26,902.09q0,46.38,0,92.76a1.24,1.24,0,0,1-.33,1,1.22,1.22,0,0,1-.8.35H606.27a7,7,0,0,1-5.15-2.38,6.87,6.87,0,0,1-1.56-4.62v-70a74.91,74.91,0,0,0,20.7-17.14Z"/><path d="M504.59,988.1c.06,3.7,0,6.42,0,7a1.21,1.21,0,0,1-.32.78,1.11,1.11,0,0,1-.78.33H490.64a6.94,6.94,0,0,1-6.74-6.73c0-.58,0-1.06,0-1.39Z"/><path d="M595,988.1c.06,3.7,0,6.42,0,7a1.21,1.21,0,0,1-.32.78,1.11,1.11,0,0,1-.78.33H581.07a6.92,6.92,0,0,1-6.73-6.73c0-.58,0-1.06,0-1.39Z"/><path d="M620.24,988.1c.06,3.7,0,6.42,0,7a1.21,1.21,0,0,1-.32.78,1.1,1.1,0,0,1-.78.33H606.29a6.94,6.94,0,0,1-6.74-6.73c0-.58,0-1.06,0-1.39Z"/><path d="M530.25,988.1c.06,3.7,0,6.42,0,7a1.21,1.21,0,0,1-.32.78,1.11,1.11,0,0,1-.78.33H516.29a6.92,6.92,0,0,1-6.73-6.73c0-.58,0-1.06,0-1.39Z"/><path id="Shadow-3" data-name="Shadow" class="cls-4" d="M530.24,919.83v75a1.24,1.24,0,0,1-.33,1,1.22,1.22,0,0,1-.8.35H516.29a6.68,6.68,0,0,1-6.71-7V916.71l10.18,1.52Z"/><path class="cls-5" d="M627.69,825.26c-4.24-.29-7.64-.42-10-.49l-7.07-.19c-4.11-.06-4.28,0-5.11-.2-4.43-1.23-6.18-5.69-6.88-5.31s-.05,3.89,2.36,6.49c1.26,1.36,2.52,1.89,7.67,3.73,6.19,2.21,9,3.14,9,3.15l9.57,3.13Z"/><circle cx="621.95" cy="796.37" r="2.4"/></g></g></svg>