<svg xmlns="http://www.w3.org/2000/svg" viewBox="0 0 189.7 228.04"><defs><style>.cls-1{isolation:isolate;}.cls-2{fill:#a47a43;}.cls-3{fill:#a3a3a3;opacity:0.49;}.cls-3,.cls-4{mix-blend-mode:multiply;}.cls-4{fill:#a0a0a0;opacity:0.61;}</style></defs><title>Deer</title><g class="cls-1"><g id="Layer_1" data-name="Layer 1"><path class="cls-2" d="M.33,86.08c.08-.83.28-1.43.49-1.43s.43.5.59,1.17c.74,1,2.24,6,4.49,7.12a14.33,14.33,0,0,0,9.33,1.16Q29,93,43.57,92.47c17.75-.62,32.13.62,48.19.09,5.09-.17,7.36-3.25,8.58-7.8,4.28-16,9-28.17,12.94-44.3l3.06-9.52-.67.07L110,30.12l-5.36-2.24L100,24.44,96.35,20,94,14.93l-.89-5.4.61-5.37,29.41,12.3a15.65,15.65,0,0,1,18.54-1.4l3.72,1.82L169.79,0l1.72,5.12.25,5.47-1.21,5.46-2.61,5.07-3.82,4.34-.48.33,7.24,3.54,13.88,8.8c9.11,5.77,4.79,19.22-6.17,19.23l-18.87,0-14.83-.3-2.11,48.39a49.13,49.13,0,0,1-3.4,24.5c-.6,1.39-1.24,2.71-1.92,3.94l-.06.72v92.3a1.11,1.11,0,0,1-1.11,1.11H123.47a6.73,6.73,0,0,1-6.73-6.74V151.07c-1.68.78-3.23,1.41-4.56,1.92v73.94a1.11,1.11,0,0,1-1.1,1.11H98.25a6.73,6.73,0,0,1-6.73-6.74V156.87c-9.38-.08-22.18-1.91-44.08-5.22v75.28a1.11,1.11,0,0,1-1.1,1.11H33.51a6.73,6.73,0,0,1-6.73-6.74V148.53l-5-.75v79.15a1.11,1.11,0,0,1-1.1,1.11H7.9a6.74,6.74,0,0,1-6.73-6.74V134.63a.88.88,0,0,1,.06-.27c-.32-5-.59-10-.8-15.18S.08,108.76,0,103.68v-2.46C.15,97.32.18,90,.33,86.08Z"/><path id="Shadow" class="cls-3" d="M163.64,25.79c1.46-1.56,2.92-3.11,4.37-4.67l2.61-5.07,1.22-5.46-.26-5.47L169.86,0,145.55,16.84Z"/><path id="Shadow-2" data-name="Shadow" class="cls-3" d="M137.46,133.91q0,46.38,0,92.76a1.24,1.24,0,0,1-.33,1,1.22,1.22,0,0,1-.8.35H123.47a7,7,0,0,1-5.15-2.38,6.87,6.87,0,0,1-1.56-4.62v-70a74.91,74.91,0,0,0,20.7-17.14Z"/><path d="M21.79,219.92c.06,3.7,0,6.42,0,7a1.21,1.21,0,0,1-.32.78,1.11,1.11,0,0,1-.78.33H7.84A6.94,6.94,0,0,1,1.1,221.3c0-.57,0-1.05,0-1.38Z"/><path d="M112.23,219.92c.06,3.7,0,6.42,0,7a1.21,1.21,0,0,1-.32.78,1.11,1.11,0,0,1-.78.33H98.27a6.92,6.92,0,0,1-6.73-6.74c0-.57,0-1.05,0-1.38Z"/><path d="M137.44,219.92c.06,3.7,0,6.42,0,7a1.21,1.21,0,0,1-.32.78,1.1,1.1,0,0,1-.78.33H123.49a6.92,6.92,0,0,1-6.73-6.74c0-.57,0-1.05,0-1.38Z"/><path d="M47.45,219.92c.06,3.7,0,6.42,0,7a1.21,1.21,0,0,1-.32.78,1.11,1.11,0,0,1-.78.33H33.49a6.92,6.92,0,0,1-6.73-6.74c0-.57,0-1.05,0-1.38Z"/><path id="Shadow-3" data-name="Shadow" class="cls-3" d="M47.44,151.65v75a1.24,1.24,0,0,1-.33,1,1.22,1.22,0,0,1-.8.35H33.49a6.68,6.68,0,0,1-6.71-7V148.53L37,150.05Z"/><path class="cls-4" d="M144.89,57.08c-4.24-.29-7.64-.42-10-.49l-7.07-.19c-4.11-.06-4.28,0-5.11-.2-4.43-1.23-6.18-5.69-6.88-5.31s0,3.89,2.36,6.49c1.26,1.36,2.52,1.89,7.67,3.73,6.19,2.21,9,3.14,9,3.14l9.57,3.14Z"/><circle cx="139.15" cy="28.19" r="2.4"/></g></g></svg>