<svg id="Layer_1" data-name="Layer 1" xmlns="http://www.w3.org/2000/svg" viewBox="0 0 1920 1080"><defs><style>.cls-1{fill:none;}.cls-2{fill:#34a35f;}</style></defs><title>Floor</title><g id="invisibleframe"><rect class="cls-1" width="1920" height="1080"/></g><path class="cls-2" d="M0,781.19l16.73-31.12q1.72,20.74,3.46,41.49l17.29-22.47,8.64,32.84,15.56-41.49,3,26q1.09,9.45,2.18,18.9l10.38,17.28Q87.61,808,98,793.29q-1.73,18.15-3.46,36.3l27.66-27.66,5.19,45,19-25.93q3.47,17.28,6.92,34.57l15.55-32.85,10.38,38,36.3-50.14q-1.72,27.66-3.46,55.32l19-24.2v31.12l20.74-12.1,6.92,27.65q3.45-23.33,6.91-46.67l15.56,53.59,12.1-24.2q3.45,14.68,6.91,29.39l3.78-7.09,10.05-18.85,5.19,29.39q7.77-13.83,15.56-27.66l15.55,51.86,10.38-27.65,15.55,36.3,13.83-29.39q6.06,17.28,12.1,34.57c.87-2.59,1.73-5.18,2.6-7.78l13-38.89q4.32,21.6,8.65,43.22l13.83-25.93,3.45,48.4,20.75-22.47q3.45,9.5,6.91,19l22.47-24.2L499,976.53q8.64-13.83,17.29-27.66,5.17,11.24,10.37,22.47,8.64-16.43,17.29-32.84l13.83,32.84q6.9-11.24,13.82-22.47l12.11,36.3q2.71-5.25,5.44-10.5l18.76-36.17q-.87,21.6-1.73,43.21l22.47-24.2,5.19,32.85,24.2-32.85-5.19,39.76,27.66-25.93,10.37,34.57c.05-.48.09-1,.14-1.44q2.52-26.94,5.05-53.87,12.1,25.92,24.2,51.86L732.4,980,748,1007.64l15.56-25.93,48.4,38,13.83-29.38,10.37,31.11q6-13,12.1-25.93l20.75,36.3,19-25.93q-.87,19-1.73,38L907,993.81q5.18,19.89,10.37,39.76l12.1-22.47q8.64,10.36,17.29,20.74l3.45-48.4q8.71,22.06,17.42,44.12l8.51,21.57,19-31.12,19,22.48,10.38-39.76,13.83,41.49,13.82-19,13.83,24.2s3.91-5.69,3.94-5.72c.35-.52,14.72-21.42,15.08-21.94q.87,14.7,1.73,29.39l31.11-27.66q4.32,13.83,8.65,27.66l13.83-29.39q9.5,10.38,19,20.75,3.46-13.83,6.92-27.66l20.74,32.84q5.19-8.64,10.37-17.28l20.6,20.74V1080H0Z"/><path class="cls-2" d="M1218,1049.13l30.86-29q8.36,11.82,16.7,23.66l13.92-19.49q4.18,18.11,8.36,36.19l15.31-23.66q2.77,21.57,5.57,43.13l30.62-39q4.17,11.82,8.35,23.66l13.92-8.35,9.75,23.64,51.5-29.21q8.36,14.61,16.7,29.21l16.71-19.47,7,19.47,25-9.72V1080H1218Z"/></svg>