<svg xmlns="http://www.w3.org/2000/svg" xmlns:xlink="http://www.w3.org/1999/xlink" viewBox="0 0 1920 1080"><defs><style>.cls-1,.cls-3{isolation:isolate;}.cls-1{filter:url(#luminosity-noclip);}.cls-2,.cls-22{fill:none;}.cls-4{clip-path:url(#clip-path);}.cls-5{fill:#725338;}.cls-6{fill:#455955;}.cls-7{fill:#752f16;}.cls-8{fill:#253532;}.cls-9{fill:#bd553c;}.cls-10{fill:#7f5f3d;}.cls-11{fill:#e5a080;}.cls-12{fill:#f8fbf7;}.cls-13{fill:#2f3e43;}.cls-14{fill:#fffffc;}.cls-15{fill:#d19176;}.cls-16{fill:#8b6338;}.cls-17{fill:#656a68;}.cls-18{fill:#94989b;}.cls-19{mask:url(#mask);}.cls-20{clip-path:url(#clip-path-4);}.cls-21{fill:#efc150;}.cls-22{stroke:#2f3e42;stroke-linecap:round;stroke-miterlimit:10;stroke-width:2.14px;}.cls-23{fill:#533412;}.cls-24{mix-blend-mode:multiply;}.cls-25{clip-path:url(#clip-path-5);}.cls-26{fill:#d1d1d1;}.cls-27{clip-path:url(#clip-path-6);}.cls-28{fill:#c4c5c4;}</style><clipPath id="clip-path"><rect class="cls-2" x="858.63" y="817.07" width="145.85" height="228.93"/></clipPath><filter id="luminosity-noclip" x="922.67" y="959.85" width="19.49" height="16.47" filterUnits="userSpaceOnUse" color-interpolation-filters="sRGB"><feFlood flood-color="#fff" result="bg"/><feBlend in="SourceGraphic" in2="bg"/></filter><mask id="mask" x="922.67" y="959.85" width="19.49" height="16.47" maskUnits="userSpaceOnUse"><g class="cls-1"><polygon points="926.91 972.65 926.91 963.67 937.84 963.67 937.84 966.78 933.35 966.78 933.35 969.39 937.84 969.39 937.84 972.65 926.91 972.65"/></g></mask><clipPath id="clip-path-4"><rect class="cls-2" x="922.67" y="959.85" width="19.49" height="16.47"/></clipPath><clipPath id="clip-path-5"><rect class="cls-2" x="897.23" y="901.07" width="35.05" height="62.61"/></clipPath><clipPath id="clip-path-6"><rect class="cls-2" x="889.7" y="905.43" width="11.63" height="46.51"/></clipPath></defs><title>Foerster</title><g class="cls-3"><g id="Layer_1" data-name="Layer 1"><g id="invisibleframe"><rect class="cls-2" width="1920" height="1080"/></g><g id="förster01"><g class="cls-4"><g class="cls-4"><polygon class="cls-5" points="905.85 1034.97 905.58 1039.28 895.89 1041.7 895.89 1046 922.8 1046 922.8 1034.97 905.85 1034.97"/><polygon class="cls-5" points="941.59 1034.97 941.59 1046 968.49 1046 968.49 1041.7 958.8 1039.28 958.54 1034.97 941.59 1034.97"/><rect class="cls-6" x="903.97" y="1026.9" width="20.79" height="8.07"/><rect class="cls-6" x="939.87" y="1026.9" width="20.79" height="8.07"/><rect class="cls-7" x="901.64" y="963.67" width="60.97" height="9.56"/><polygon class="cls-8" points="905.9 983.34 905.9 1026.9 922.8 1026.9 922.8 983.34 941.59 983.34 941.59 1026.9 958.35 1026.9 958.35 983.34 962.61 983.34 962.61 973.24 952.22 973.24 952.25 963.67 949.3 963.67 949.34 973.24 914.56 973.24 914.56 963.67 911.79 963.67 911.84 973.24 901.64 973.24 901.64 983.34 905.9 983.34"/><polygon class="cls-9" points="903.26 894.71 932.28 914.12 960.66 894.71 960.66 902.09 993.29 941.57 980.07 970.52 962.61 960.48 973.38 939.06 961.16 922.66 932.28 922.66 905.77 922.66 896.39 951.94 880 958.3 866.44 918.47 887.36 913.95 889.7 925 901.64 904.92 903.76 904.75 903.26 894.71"/><polygon class="cls-10" points="897.23 963.67 961.77 963.67 962.61 960.48 965.78 954.17 962.61 901.07 932.28 916.97 901.64 901.07 897.23 963.67"/><g class="cls-4"><path class="cls-5" d="M905.85,922.66h16.77s3,17.74-7.78,17.74-9-17.74-9-17.74"/><path class="cls-5" d="M941.49,922.66h16.78s3,17.74-7.79,17.74-9-17.74-9-17.74"/><path class="cls-11" d="M906.27,896.72l26,17.4,26.28-18V833s-14,5.33-24.78,5.94-23.31.43-27.51-1Z"/><polygon class="cls-12" points="920.89 906.5 943.42 906.5 932.28 914.12 920.89 906.5"/><path class="cls-13" d="M906.27,863.58c-.94,1.72-6.44,12.17-2.07,23.16,6.25,15.74,26.33,16.46,27.59,16.49,9.4.19,25.46-3.2,28.91-16.37.9-3.45,2.57-14.91-2.14-23.28l-6.71,8.73c-4.35-4.1-8-5.16-10.64-5.33a44.74,44.74,0,0,0-9.06.85,19.93,19.93,0,0,0-19.22,3.63Z"/><path class="cls-14" d="M926.85,875.23a7.19,7.19,0,0,0,3.33-1.85,6.87,6.87,0,0,0,1.35-1.92h1.21a10.22,10.22,0,0,0,1.82,2,10.7,10.7,0,0,0,3.2,1.8,15,15,0,0,1-10.91,0"/><path class="cls-15" d="M906.27,854.35H901.1c-1.8.41-4.12,1.43-4.32,4.81s1.38,4.89,2.77,5.55h6.72Z"/><path class="cls-15" d="M958.56,854.35h5.17c1.8.41,4.12,1.43,4.32,4.81s-1.38,4.89-2.77,5.55h-6.72Z"/><path class="cls-13" d="M906.27,838a17.14,17.14,0,0,0,3.71.94c33.79,3.63,55.49-8.06,57.61-10.05.44-.41,1.56-1.34,1.39-2.16-.08-.44-.64-.79-1.55-1.05-2.29-.66-4.18-.54-10.32-.84,0,0,4.85-1.39,5.62-3.34s-11.45-5-27.8-4.33-26.33,4.77-29,8.48a15.29,15.29,0,0,0-2.78,8.73c-.12,1.51-3,3.54-2.93,8.56s.9,11.41.9,11.41h5.17Z"/><polygon class="cls-16" points="858.63 909.57 903.38 897.11 903.63 902.1 901.64 901.07 901.29 906 860.71 917.22 858.63 909.57"/><polygon class="cls-11" points="867.5 918.24 867.5 915.34 871.93 914.11 867.37 907.14 865.36 907.7 865.36 903.92 885.14 898.94 888.29 911.07 885.22 911.4 885.01 914.46 867.5 918.24"/><path class="cls-16" d="M961.46,882.47a21.92,21.92,0,0,1-.65,3.93,22.62,22.62,0,0,1-1.6,4.3l35.32-9.36-2.12-7.76Z"/><path class="cls-17" d="M988.42,871.88,969.5,877l4.73,15.24s1.75,5.38.16,9.46a36.35,36.35,0,0,1-4.89,8.15c.82.63,10.08,7.39,21.26,3.69a23.74,23.74,0,0,0,13.72-12.49s-4.85.37-8.4-4.89-3.1-5.18-4-7.5Z"/><path class="cls-18" d="M1001.43,900.53a8,8,0,0,0,3.05.54,23.74,23.74,0,0,1-13.72,12.49c-11.18,3.7-20.44-3.06-21.26-3.69,0,0,.48-.59,1.17-1.55A25.54,25.54,0,0,0,983,910.54a26.29,26.29,0,0,0,14.88-6.22,25,25,0,0,0,3.55-3.79"/><polygon class="cls-11" points="962.61 960.48 958.98 974.28 974.07 978.2 978.68 969.72 962.61 960.48"/><g class="cls-19"><g class="cls-20"><rect class="cls-21" x="922.67" y="959.85" width="19.49" height="16.47"/></g></g><line class="cls-22" x1="918.79" y1="846.56" x2="926.46" y2="846.56"/><line class="cls-22" x1="938.37" y1="846.57" x2="946.04" y2="846.57"/><path class="cls-23" d="M922.62,852.53c-.66,0-2.13.9-1.91,3.62s1.22,3,1.91,3,1.92-1.12,1.92-3.33-1.26-3.32-1.92-3.32"/><path class="cls-23" d="M942,852.53c-.66,0-2.13.9-1.92,3.62s1.22,3,1.92,3,1.91-1.12,1.91-3.33-1.25-3.32-1.91-3.32"/><g class="cls-24"><g class="cls-25"><polygon class="cls-26" points="897.23 963.67 922.67 963.67 922.67 959.85 932.28 959.85 932.28 916.97 901.64 901.07 897.23 963.67"/></g></g><g class="cls-24"><g class="cls-27"><polygon class="cls-28" points="889.7 925 896.39 951.94 898.53 945.28 901.33 905.43 889.7 925"/></g></g></g></g></g></g></g></g></svg>