<svg id="Layer_1" data-name="Layer 1" xmlns="http://www.w3.org/2000/svg" xmlns:xlink="http://www.w3.org/1999/xlink" viewBox="0 0 1920 1080"><defs><style>.cls-1{fill:none;}.cls-2{clip-path:url(#clip-path);}.cls-3{fill:#725439;}.cls-4{fill:#465956;}.cls-5{fill:#753117;}.cls-6{fill:#263633;}.cls-7{fill:#be563c;}.cls-8{fill:#80603e;}.cls-9{fill:#e6a180;}.cls-10{fill:#f8fbf8;}.cls-11{fill:#303f44;}.cls-12{fill:#fffffd;}.cls-13{fill:#d19177;}.cls-14{fill:#8b6438;}.cls-15{fill:#656b69;}.cls-16{fill:#95999b;}.cls-17{fill:#efc150;}.cls-18{clip-path:url(#clip-path-3);}.cls-19{fill:#303f43;}.cls-20{fill:#533617;}.cls-21{fill:#71573a;}.cls-22{fill:#654c36;}.cls-23{fill:#7b5b37;}.cls-24{fill:#c4c4c4;}.cls-25{fill:#9e4c3b;}.cls-26{fill:#755736;}.cls-27{fill:#614d37;}.cls-28{fill:#695035;}</style><clipPath id="clip-path"><rect class="cls-1" x="876.01" y="797.19" width="158.28" height="248.45"/></clipPath><clipPath id="clip-path-3"><rect class="cls-1" x="950.12" y="956.29" width="11.86" height="9.74"/></clipPath></defs><title>Foerster</title><g id="invisibleframe"><rect class="cls-1" width="1920" height="1080"/></g><g id="foerster_rast"><g class="cls-2"><polygon class="cls-3" points="927.26 1033.67 926.97 1038.34 916.45 1040.97 916.45 1045.64 945.65 1045.64 945.65 1033.67 927.26 1033.67"/><polygon class="cls-3" points="966.04 1033.67 966.04 1045.64 995.24 1045.64 995.24 1040.97 984.73 1038.34 984.44 1033.67 966.04 1033.67"/><rect class="cls-4" x="925.21" y="1024.91" width="22.56" height="8.76"/><rect class="cls-4" x="964.18" y="1024.91" width="22.56" height="8.76"/><rect class="cls-5" x="922.69" y="956.29" width="66.17" height="10.38"/><polygon class="cls-6" points="927.31 977.63 927.31 1024.91 945.65 1024.91 945.65 977.63 966.04 977.63 966.04 1024.91 984.23 1024.91 984.23 977.63 988.86 977.63 988.86 966.67 977.58 966.67 977.61 956.29 974.41 956.29 974.46 966.67 936.72 966.67 936.71 956.29 933.71 956.29 933.75 966.67 922.69 966.67 922.69 977.63 927.31 977.63"/><polygon class="cls-7" points="924.45 881.45 955.94 902.51 986.74 881.45 986.74 889.46 1022.16 932.3 1007.81 963.72 988.86 952.82 1000.54 929.58 987.28 911.77 955.94 911.77 927.17 911.77 917 943.56 899.2 950.46 884.49 907.24 907.19 902.33 909.73 914.32 922.69 892.52 924.99 892.34 924.45 881.45"/><polygon class="cls-8" points="917.91 956.29 987.95 956.29 988.86 952.82 992.3 945.98 988.86 888.35 955.95 905.6 922.69 888.35 917.91 956.29"/><g class="cls-2"><path class="cls-3" d="M927.26,911.77h18.2S948.68,931,937,931s-9.76-19.26-9.76-19.26"/><path class="cls-3" d="M965.94,911.78h18.21S987.36,931,975.7,931s-9.76-19.25-9.76-19.25"/><path class="cls-9" d="M927.72,883.63l28.22,18.88L984.46,883V814.51s-15.18,5.79-26.89,6.44-25.3.46-29.85-1.05Z"/><polygon class="cls-10" points="943.58 894.24 968.03 894.24 955.95 902.51 943.58 894.24"/><path class="cls-11" d="M927.72,847.66c-1,1.87-7,13.21-2.26,25.14,6.79,17.08,28.59,17.86,29.95,17.89,10.2.21,27.63-3.47,31.37-17.76,1-3.75,2.8-16.19-2.32-25.27l-7.28,9.48c-4.72-4.46-8.71-5.6-11.55-5.79a48.49,48.49,0,0,0-9.82.92,21.68,21.68,0,0,0-20.87,4Z"/><path class="cls-12" d="M950.05,860.3a7.78,7.78,0,0,0,3.61-2,7.66,7.66,0,0,0,1.47-2.08h1.31a11.16,11.16,0,0,0,5.45,4.08,16.23,16.23,0,0,1-6,1.12,16.05,16.05,0,0,1-5.8-1.12"/><path class="cls-13" d="M927.72,837.65H922.1c-2,.44-4.47,1.55-4.69,5.22s1.51,5.31,3,6h7.3Z"/><path class="cls-13" d="M984.46,837.65h5.62c1.94.44,4.47,1.55,4.69,5.22s-1.51,5.31-3,6h-7.3Z"/><path class="cls-11" d="M927.72,819.9a19,19,0,0,0,4,1c36.67,3.94,60.22-8.74,62.53-10.9.47-.45,1.68-1.46,1.51-2.35-.1-.48-.7-.86-1.68-1.14-2.5-.72-4.55-.58-11.21-.91,0,0,5.26-1.51,6.1-3.63s-12.43-5.44-30.17-4.69-28.58,5.17-31.5,9.2a16.55,16.55,0,0,0-3,9.47c-.13,1.63-3.32,3.85-3.18,9.29s1,12.39,1,12.39h5.62Z"/><polygon class="cls-14" points="876.01 897.58 924.57 884.05 924.85 889.47 922.69 888.35 922.31 893.7 878.27 905.87 876.01 897.58"/><polygon class="cls-9" points="885.64 906.99 885.64 903.84 890.45 902.5 885.5 894.93 883.32 895.54 883.32 891.44 904.78 886.03 908.21 899.2 904.87 899.56 904.65 902.88 885.64 906.99"/><path class="cls-14" d="M987.61,868.17a24.11,24.11,0,0,1-.7,4.25,25.09,25.09,0,0,1-1.74,4.68l38.33-10.17-2.3-8.42Z"/><path class="cls-15" d="M1016.87,856.67l-20.53,5.57,5.13,16.55s1.9,5.84.18,10.26a39.63,39.63,0,0,1-5.31,8.85c.89.68,10.93,8,23.07,4,10.1-3.34,14.22-12.08,14.89-13.55,0,0-5.27.4-9.12-5.31s-3.36-5.62-4.33-8.14Z"/><path class="cls-16" d="M1031,887.76a8.88,8.88,0,0,0,3.32.59c-.67,1.47-4.79,10.21-14.89,13.55-12.14,4-22.18-3.32-23.07-4,0,0,.52-.64,1.26-1.69a27.76,27.76,0,0,0,13.39,2.42,28.56,28.56,0,0,0,16.15-6.76,26.91,26.91,0,0,0,3.84-4.11"/><polygon class="cls-9" points="988.86 952.82 984.92 967.8 1001.29 972.05 1006.3 962.85 988.86 952.82"/><polygon class="cls-17" points="966.66 956.29 961.97 956.29 961.97 959.67 957.11 959.66 957.11 962.5 961.97 962.5 961.97 966.03 950.12 966.03 950.12 956.29 945.52 956.29 945.52 966.67 966.66 966.67 966.66 956.29"/><rect class="cls-17" x="945.52" y="966.67" width="21.15" height="3.35"/><polygon class="cls-17" points="966.66 952.14 945.52 952.14 945.52 956.29 950.12 956.29 961.97 956.29 966.66 956.29 966.66 952.14"/></g><g class="cls-18"><polygon class="cls-5" points="961.97 956.29 950.12 956.29 950.12 966.03 961.97 966.03 961.97 962.5 957.11 962.5 957.11 959.66 961.97 959.67 961.97 956.29"/></g><g class="cls-2"><path class="cls-19" d="M941.3,829.78h8.32a.59.59,0,0,0,0-1.17H941.3a.59.59,0,0,0,0,1.17"/><path class="cls-19" d="M962.56,829.78h8.31a.59.59,0,0,0,0-1.17h-8.31a.59.59,0,0,0,0,1.17"/><path class="cls-20" d="M945.46,835.67c-.71,0-2.31,1-2.08,3.92s1.33,3.3,2.08,3.3,2.08-1.21,2.08-3.61-1.36-3.61-2.08-3.61"/><path class="cls-20" d="M966.5,835.67c-.72,0-2.31,1-2.08,3.92s1.32,3.3,2.08,3.3,2.08-1.21,2.08-3.61-1.37-3.61-2.08-3.61"/><path class="cls-21" d="M937,931c-11.66,0-9.75-19.26-9.75-19.26h18.2S948.68,931,937,931m-14.32-42.68h0l-.38,5.35-3,42.63h0l-1.4,20h27.61v-4.15h10.42V905.6l-31.09-16.13-2.16-1.12"/><path class="cls-22" d="M945.46,911.77h-18.2S925.35,931,937,931s8.45-19.26,8.45-19.26"/><polygon class="cls-23" points="922.69 888.35 922.35 893.09 922.35 893.09 922.31 893.7 922.31 893.7 922.69 888.35"/><polygon class="cls-24" points="919.31 936.33 917 943.56 919.31 936.33 919.31 936.33"/><polyline class="cls-25" points="922.31 893.7 921.92 893.81 909.73 914.32 917 943.56 919.31 936.33 922.31 893.7"/><polyline class="cls-26" points="922.35 893.09 921.92 893.81 922.31 893.7 922.35 893.09"/><polyline class="cls-27" points="922.31 893.7 922.31 893.7 919.31 936.33 922.31 893.7"/><polygon class="cls-28" points="922.35 893.09 922.35 893.09 922.31 893.7 922.31 893.7 922.35 893.09"/></g></g></g></svg>