<svg xmlns="http://www.w3.org/2000/svg" xmlns:xlink="http://www.w3.org/1999/xlink" viewBox="0 0 145.85 228.93"><defs><style>.cls-1,.cls-3{isolation:isolate;}.cls-1{filter:url(#luminosity-noclip);}.cls-2,.cls-22{fill:none;}.cls-4{clip-path:url(#clip-path);}.cls-5{fill:#725338;}.cls-6{fill:#455955;}.cls-7{fill:#752f16;}.cls-8{fill:#253532;}.cls-9{fill:#bd553c;}.cls-10{fill:#7f5f3d;}.cls-11{fill:#e5a080;}.cls-12{fill:#f8fbf7;}.cls-13{fill:#2f3e43;}.cls-14{fill:#fffffc;}.cls-15{fill:#d19176;}.cls-16{fill:#8b6338;}.cls-17{fill:#656a68;}.cls-18{fill:#94989b;}.cls-19{mask:url(#mask);}.cls-20{clip-path:url(#clip-path-4);}.cls-21{fill:#efc150;}.cls-22{stroke:#2f3e42;stroke-linecap:round;stroke-miterlimit:10;stroke-width:2.14px;}.cls-23{fill:#533412;}.cls-24{mix-blend-mode:multiply;}.cls-25{clip-path:url(#clip-path-5);}.cls-26{fill:#d1d1d1;}.cls-27{clip-path:url(#clip-path-6);}.cls-28{fill:#c4c5c4;}</style><clipPath id="clip-path"><rect class="cls-2" width="145.85" height="228.93"/></clipPath><filter id="luminosity-noclip" x="64.04" y="142.78" width="19.49" height="16.47" filterUnits="userSpaceOnUse" color-interpolation-filters="sRGB"><feFlood flood-color="#fff" result="bg"/><feBlend in="SourceGraphic" in2="bg"/></filter><mask id="mask" x="64.04" y="142.78" width="19.49" height="16.47" maskUnits="userSpaceOnUse"><g class="cls-1"><polygon points="68.28 155.58 68.28 146.6 79.21 146.6 79.21 149.71 74.72 149.71 74.72 152.32 79.21 152.32 79.21 155.58 68.28 155.58"/></g></mask><clipPath id="clip-path-4"><rect class="cls-2" x="64.04" y="142.78" width="19.49" height="16.47"/></clipPath><clipPath id="clip-path-5"><rect class="cls-2" x="38.6" y="83.99" width="35.05" height="62.61"/></clipPath><clipPath id="clip-path-6"><rect class="cls-2" x="31.07" y="88.36" width="11.63" height="46.51"/></clipPath></defs><title>Foerster</title><g class="cls-3"><g id="Layer_1" data-name="Layer 1"><g id="förster01"><g class="cls-4"><g class="cls-4"><polygon class="cls-5" points="47.22 217.9 46.95 222.2 37.27 224.62 37.27 228.93 64.17 228.93 64.17 217.9 47.22 217.9"/><polygon class="cls-5" points="82.96 217.9 82.96 228.93 109.86 228.93 109.86 224.62 100.17 222.2 99.91 217.9 82.96 217.9"/><rect class="cls-6" x="45.34" y="209.83" width="20.79" height="8.07"/><rect class="cls-6" x="81.24" y="209.83" width="20.79" height="8.07"/><rect class="cls-7" x="43.01" y="146.6" width="60.97" height="9.56"/><polygon class="cls-8" points="47.27 166.26 47.27 209.83 64.17 209.83 64.17 166.26 82.96 166.26 82.96 209.83 99.72 209.83 99.72 166.26 103.98 166.26 103.98 156.16 93.59 156.16 93.62 146.6 90.67 146.6 90.71 156.16 55.93 156.16 55.93 146.6 53.16 146.6 53.21 156.16 43.01 156.16 43.01 166.26 47.27 166.26"/><polygon class="cls-9" points="44.63 77.63 73.65 97.05 102.03 77.63 102.03 85.02 134.66 124.49 121.44 153.44 103.98 143.4 114.75 121.98 102.53 105.58 73.65 105.58 47.14 105.58 37.77 134.87 21.36 141.23 7.81 101.4 28.73 96.88 31.07 107.92 43.01 87.84 45.13 87.67 44.63 77.63"/><polygon class="cls-10" points="38.6 146.6 103.14 146.6 103.98 143.4 107.15 137.09 103.98 83.99 73.65 99.89 43.01 83.99 38.6 146.6"/><g class="cls-4"><path class="cls-5" d="M47.22,105.58H64s3,17.74-7.78,17.74-9-17.74-9-17.74"/><path class="cls-5" d="M82.86,105.58H99.64s3,17.74-7.79,17.74-9-17.74-9-17.74"/><path class="cls-11" d="M47.64,79.65l26,17.4,26.28-18V16s-14,5.33-24.78,5.94-23.31.42-27.51-1Z"/><polygon class="cls-12" points="62.26 89.43 84.79 89.43 73.65 97.05 62.26 89.43"/><path class="cls-13" d="M47.64,46.51c-.94,1.72-6.44,12.16-2.07,23.16C51.82,85.41,71.9,86.13,73.16,86.15c9.4.19,25.46-3.19,28.91-16.36.9-3.46,2.57-14.92-2.14-23.28l-6.71,8.73c-4.35-4.11-8-5.16-10.64-5.34a45.53,45.53,0,0,0-9.06.85A20,20,0,0,0,54.3,54.39Z"/><path class="cls-14" d="M68.22,58.15a7.09,7.09,0,0,0,3.33-1.85,7,7,0,0,0,1.35-1.91h1.21a10.51,10.51,0,0,0,1.82,2,10.27,10.27,0,0,0,3.2,1.8,15.15,15.15,0,0,1-5.57,1,14.83,14.83,0,0,1-5.34-1"/><path class="cls-15" d="M47.64,37.28H42.47c-1.8.41-4.12,1.42-4.32,4.81s1.38,4.89,2.77,5.54h6.72Z"/><path class="cls-15" d="M99.93,37.28h5.17c1.8.41,4.12,1.42,4.32,4.81S108,47,106.65,47.63H99.93Z"/><path class="cls-13" d="M47.64,20.93a18.42,18.42,0,0,0,3.71.94c33.79,3.63,55.49-8.06,57.61-10,.44-.41,1.56-1.34,1.4-2.16-.09-.44-.65-.8-1.56-1.06-2.29-.65-4.18-.53-10.32-.84,0,0,4.85-1.38,5.62-3.34S92.65-.59,76.3.1,50,4.87,47.28,8.58a15.15,15.15,0,0,0-2.77,8.72c-.13,1.51-3.06,3.55-2.94,8.56s.9,11.42.9,11.42h5.17Z"/><polygon class="cls-16" points="0 92.5 44.75 80.03 45 85.03 43.01 83.99 42.66 88.93 2.08 100.14 0 92.5"/><polygon class="cls-11" points="8.87 101.17 8.87 98.27 13.3 97.04 8.74 90.06 6.73 90.62 6.73 86.85 26.51 81.86 29.66 93.99 26.59 94.33 26.39 97.39 8.87 101.17"/><path class="cls-16" d="M102.83,65.4a22,22,0,0,1-.65,3.92,22.48,22.48,0,0,1-1.6,4.31l35.32-9.37-2.12-7.76Z"/><path class="cls-17" d="M129.79,54.81l-18.92,5.13,4.73,15.25s1.75,5.38.16,9.46a36.63,36.63,0,0,1-4.89,8.15c.82.62,10.08,7.38,21.26,3.68A23.71,23.71,0,0,0,145.85,84s-4.85.37-8.4-4.89-3.1-5.17-4-7.5Z"/><path class="cls-18" d="M142.8,83.46a8.06,8.06,0,0,0,3,.53,23.71,23.71,0,0,1-13.72,12.49c-11.18,3.7-20.44-3.06-21.26-3.68,0,0,.48-.6,1.17-1.56a25.52,25.52,0,0,0,12.33,2.23,26.3,26.3,0,0,0,14.89-6.23,25.37,25.37,0,0,0,3.54-3.78"/><polygon class="cls-11" points="103.98 143.4 100.35 157.21 115.44 161.12 120.05 152.64 103.98 143.4"/><g class="cls-19"><g class="cls-20"><rect class="cls-21" x="64.04" y="142.78" width="19.49" height="16.47"/></g></g><line class="cls-22" x1="60.16" y1="29.49" x2="67.83" y2="29.49"/><line class="cls-22" x1="79.74" y1="29.49" x2="87.41" y2="29.49"/><path class="cls-23" d="M64,35.45c-.66,0-2.12.91-1.91,3.62s1.22,3,1.91,3,1.92-1.12,1.92-3.33S64.65,35.45,64,35.45"/><path class="cls-23" d="M83.38,35.45c-.66,0-2.13.91-1.92,3.62s1.22,3,1.92,3,1.91-1.12,1.91-3.33S84,35.45,83.38,35.45"/><g class="cls-24"><g class="cls-25"><polygon class="cls-26" points="38.6 146.6 64.04 146.6 64.04 142.78 73.65 142.78 73.65 99.89 43.01 83.99 38.6 146.6"/></g></g><g class="cls-24"><g class="cls-27"><polygon class="cls-28" points="31.07 107.92 37.77 134.87 39.9 128.21 42.7 88.36 31.07 107.92"/></g></g></g></g></g></g></g></g></svg>