<svg id="Layer_1" data-name="Layer 1" xmlns="http://www.w3.org/2000/svg" xmlns:xlink="http://www.w3.org/1999/xlink" viewBox="0 0 1920 1080"><defs><style>.cls-1{fill:none;}.cls-2{fill:#a0a0a0;}.cls-3{fill:#848484;}.cls-4{fill:#646464;}.cls-5{fill:#5e4d31;}.cls-6{fill:#59916f;}.cls-7{fill:#212c15;}.cls-8{fill:#1f5230;}.cls-9{fill:#34a35f;}.cls-10{fill:#143620;}.cls-11{fill:#226b3f;}.cls-12{fill:#a8a8a8;}.cls-13{fill:#3e3320;}.cls-14{fill:#969696;}.cls-15{fill:#1f6038;}.cls-16{fill:#372d1d;}.cls-17{fill:#241e13;}.cls-18{fill:#3a5e48;}.cls-19{fill:#263e2f;}.cls-20{fill:#22372a;}.cls-21{fill:#16241c;}.cls-22{fill:#46dd81;}.cls-23{fill:#0c1f12;}.cls-24{fill:#187e38;}.cls-25{fill:#084818;}.cls-26{fill:#0c1909;}.cls-27{fill:#345541;}.cls-28{fill:#12301c;}.cls-29{fill:#143f25;}.cls-30{fill:#0c2013;}.cls-31{fill:#3b6049;}.cls-32{fill:#22382b;}.cls-33{clip-path:url(#clip-path);}.cls-34{clip-path:url(#clip-path-2);}.cls-35{fill:#725338;}.cls-36{fill:#455955;}.cls-37{fill:#752f16;}.cls-38{fill:#253532;}.cls-39{fill:#bd553c;}.cls-40{fill:#7f5f3d;}.cls-41{fill:#e5a080;}.cls-42{fill:#f8fbf7;}.cls-43{fill:#2f3e43;}.cls-44{fill:#fffffc;}.cls-45{fill:#d19176;}.cls-46{fill:#8b6338;}.cls-47{fill:#656a68;}.cls-48{fill:#94989b;}.cls-49{clip-path:url(#clip-path-4);}.cls-50{fill:#efc150;}.cls-51{fill:#2f3e42;}.cls-52{fill:#533412;}.cls-53{clip-path:url(#clip-path-5);}.cls-54{fill:#684e32;}.cls-55{fill:#5d442e;}.cls-56{fill:#72512e;}.cls-57{fill:#c49e42;}.cls-58{clip-path:url(#clip-path-6);}.cls-59{fill:#c4c5c4;}.cls-60{fill:#91422e;}.cls-61{fill:#6b4c2b;}.cls-62{fill:#503c26;}.cls-63{fill:#583f23;}.cls-64{fill:#89ddaa;}.cls-65{fill:#636363;}.cls-66{fill:#123821;}.cls-67{fill:#518264;}.cls-68{fill:#201a11;}.cls-69{fill:#304c3b;}.cls-70{fill:#1c2d23;}.cls-71{clip-path:url(#clip-path-7);}.cls-72{clip-path:url(#clip-path-8);}.cls-73{clip-path:url(#clip-path-9);}.cls-74{fill:#8c7263;}.cls-75{clip-path:url(#clip-path-10);}.cls-76{fill:#989492;}.cls-77{fill:#534239;}.cls-78{clip-path:url(#clip-path-11);}.cls-79{clip-path:url(#clip-path-12);}.cls-80{clip-path:url(#clip-path-13);}.cls-81{clip-path:url(#clip-path-14);}.cls-82{clip-path:url(#clip-path-15);}.cls-83{clip-path:url(#clip-path-16);}.cls-84{clip-path:url(#clip-path-17);}.cls-85{clip-path:url(#clip-path-18);}.cls-86{clip-path:url(#clip-path-19);}.cls-87{clip-path:url(#clip-path-20);}</style><clipPath id="clip-path"><polyline class="cls-1" points="858.63 817.08 1004.48 817.08 1004.48 1046 858.63 1046 858.63 817.08"/></clipPath><clipPath id="clip-path-2"><polyline class="cls-1" points="858.63 1046 1004.48 1046 1004.48 817.08 858.63 817.08 858.63 1046"/></clipPath><clipPath id="clip-path-4"><polyline class="cls-1" points="922.67 976.32 942.16 976.32 942.16 959.85 922.67 959.85 922.67 976.32"/></clipPath><clipPath id="clip-path-5"><polyline class="cls-1" points="897.23 963.67 932.28 963.67 932.28 901.07 897.23 901.07 897.23 963.67"/></clipPath><clipPath id="clip-path-6"><polyline class="cls-1" points="889.7 951.94 901.33 951.94 901.33 905.43 889.7 905.43 889.7 951.94"/></clipPath><clipPath id="clip-path-7"><polyline class="cls-1" points="1145.2 980.35 1619.47 980.35 1619.47 1078.84 1145.2 1078.84 1145.2 980.35"/></clipPath><clipPath id="clip-path-8"><polyline class="cls-1" points="1145.2 1078.84 1619.47 1078.84 1619.47 980.35 1145.2 980.35 1145.2 1078.84"/></clipPath><clipPath id="clip-path-9"><polyline class="cls-1" points="1145.2 980.35 1619.46 980.35 1619.46 1078.84 1145.2 1078.84 1145.2 980.35"/></clipPath><clipPath id="clip-path-10"><polyline class="cls-1" points="1146.34 1077.58 1619.09 1077.58 1619.09 1065.8 1146.34 1065.8 1146.34 1077.58"/></clipPath><clipPath id="clip-path-11"><polyline class="cls-1" points="1153.95 1060.7 1611.04 1060.7 1611.04 1043.2 1153.95 1043.2 1153.95 1060.7"/></clipPath><clipPath id="clip-path-12"><polyline class="cls-1" points="1158.77 1030.85 1600.65 1030.85 1600.65 1019.41 1158.77 1019.41 1158.77 1030.85"/></clipPath><clipPath id="clip-path-13"><polyline class="cls-1" points="1145.2 931.11 1619.47 931.11 1619.47 1029.59 1145.2 1029.59 1145.2 931.11"/></clipPath><clipPath id="clip-path-14"><polyline class="cls-1" points="1145.2 1029.59 1619.47 1029.59 1619.47 931.11 1145.2 931.11 1145.2 1029.59"/></clipPath><clipPath id="clip-path-15"><polyline class="cls-1" points="1145.2 931.11 1619.46 931.11 1619.46 1029.59 1145.2 1029.59 1145.2 931.11"/></clipPath><clipPath id="clip-path-16"><polyline class="cls-1" points="1146.34 1028.34 1619.09 1028.34 1619.09 1016.56 1146.34 1016.56 1146.34 1028.34"/></clipPath><clipPath id="clip-path-17"><polyline class="cls-1" points="1153.95 1011.46 1611.04 1011.46 1611.04 993.96 1153.95 993.96 1153.95 1011.46"/></clipPath><clipPath id="clip-path-18"><polyline class="cls-1" points="1158.77 981.61 1600.65 981.61 1600.65 970.17 1158.77 970.17 1158.77 981.61"/></clipPath><clipPath id="clip-path-19"><polyline class="cls-1" points="1169.57 962.04 1591.2 962.04 1591.2 951 1169.57 951 1169.57 962.04"/></clipPath><clipPath id="clip-path-20"><polyline class="cls-1" points="1176.15 948.71 1585.03 948.71 1585.03 936.66 1176.15 936.66 1176.15 948.71"/></clipPath></defs><title>Forest04</title><path class="cls-2" d="M109,867.51l40.82-34.38q-10.2-26.86-20.41-53.71-8.82-47.28-17.65-94.55L85.69,634.61q4.61-39.43,9.2-78.87l-21-55.21,27.6-30.23-42.06-67q-5.25-25-10.51-49.95-8.14-21.37-16.28-42.75l-.81-54.52L13.59,214.48,0,202.16V827.29l109,40.22"/><path class="cls-3" d="M38.46,409.93l14,65.44L37.13,510.93q-6,34.94-12.08,69.86l19.76,19.05,15.37,7.62q3.15-29.18,6.28-58.33-8.29-25.2-16.6-50.4l21.79-27.6Q55,440.53,38.46,409.93"/><path class="cls-3" d="M0,239.27V331l11.66,3.5L.53,298.36,17.22,265,0,239.27"/><path class="cls-3" d="M82.16,648.77q-2.77,33.39-5.56,66.78l-32,37.57L14,831l87.65,13.91Q97.47,806,93.29,767l-4.17-77.91-7-40.35"/><path class="cls-3" d="M25.42,676.11,7.68,698.67,0,717.38v32.16l9.73-1.4,15.69-72m57.19-44.9q-22.2,19.21-44.39,38.44l-12.8,6.46h0L49.3,707.47l33.31-76.26"/><path class="cls-2" d="M370.47,952.24l26.19-58L378,860.56l-33.68-18.71L318.09,877.4q1.86,22.46,3.74,44.91l48.64,29.93"/><path class="cls-2" d="M321.83,922.31,358,944.58h0l-36.19-22.27m17.82-74.18-5.82,7.9h0l-.09.12-12.33,16.74h0q9.12-12.37,18.25-24.76h0"/><path class="cls-4" d="M339.66,848.13q-9.14,12.38-18.25,24.76l2.24,3.65q-.76,13.74-1.54,27.47l-1.85-.5q.78,9.4,1.57,18.8h0L358,944.57l22.73-50.33q-9.36-16.83-18.71-33.68l-22.39-12.43"/><path class="cls-2" d="M322.11,904q.76-13.74,1.54-27.47-6.57-10.68-13.15-21.37l-22.19-9.86L271.09,861.4Q276,877.2,280.91,893l41.2,11"/><path class="cls-4" d="M281.05,852.93l-10,8.47h0Q276,877.2,280.91,893l34.52,9q.49-8.94,1-17.86L303.25,862.8l-22.2-9.87"/><path class="cls-2" d="M324.76,868.31q4.53-6.15,9.07-12.28.38-6.76.74-13.53l-6.95-9-15.81,2.09q-1.59,8.67-3.19,17.33l16.14,15.42"/><path class="cls-4" d="M322.94,835.84H311.75q-1.56,8.53-3.13,17L322.21,865q2.06-4.06,4.12-8.11,1.51-6.85,3-13.73l-6.4-7.36h0"/><polyline class="cls-5" points="1058.84 1044.58 1027.8 1044.58 1027.8 905.68 1058.84 905.68 1058.84 1044.58"/><polyline class="cls-6" points="1048.1 570.15 1072.13 576.89 1097.08 576.89 1118.4 589.85 1142.42 596.58 1159.45 614.82 1180.77 627.78 1192.25 649.94 1209.28 668.17 1214.36 692.6 1225.84 714.76 1224.14 739.65 1229.21 764.08 1220.86 787.59 1219.15 812.49 1204.77 832.87 1196.41 856.38 1177.06 872.13 1162.66 892.51 1139.78 902.45 1120.42 918.2 1095.7 921.6 1072.82 931.54 1048.1 928.14 1023.38 931.54 1000.49 921.6 975.77 918.2 956.42 902.45 933.53 892.51 919.14 872.13 899.79 856.38 891.43 832.87 877.04 812.49 875.34 787.59 866.99 764.08 872.06 739.65 870.36 714.76 881.84 692.6 886.91 668.17 903.95 649.94 915.43 627.78 936.75 614.82 953.78 596.58 977.8 589.85 999.12 576.89 1024.07 576.89 1048.1 570.15"/><path class="cls-7" d="M1042.84,947.28h-15v97.3h14.71q.16-48.64.34-97.3"/><path class="cls-6" d="M1040.08,572.18l-16.73,4.71H998.51l-21.22,13-23.91,6.73-17,18.24-1.67,1,.07.15,1.93-1.17,17-18.24,24-6.73,21.32-13h24.95l16-4.49v-.22"/><path class="cls-8" d="M994.13,850.08h-5.29l2.64,5.38q1.34-2.69,2.65-5.38m15.31-31.6h-6.12l3.14,6.38c1-2.13,2-4.25,3-6.38m-11.73-31.76h-10l.88,1.79,2.8,5.25h-.21l1.55,3.15,5-10.19m42.37-214.32-16,4.49H999.12l-21.32,13-24,6.73-17,18.24L934.82,616l73.47,149.24,32.37-65.75q0-9.36-.08-18.72h-11l10.92-22.21-.39-86.15"/><polyline class="cls-5" points="858.73 1024.52 826.03 1024.52 826.03 878.25 858.73 878.25 858.73 1024.52"/><polyline class="cls-9" points="845.19 558.31 932.03 734.71 1018.88 911.1 845.19 911.1 671.51 911.1 758.35 734.71 845.19 558.31"/><polyline class="cls-9" points="845.19 497.3 932.03 673.69 1018.88 850.09 845.19 850.09 671.51 850.09 758.35 673.69 845.19 497.3"/><polyline class="cls-9" points="845.19 433.93 932.03 610.33 1018.88 786.72 845.19 786.72 671.51 786.72 758.35 610.33 845.19 433.93"/><path class="cls-10" d="M988.56,788.51l2.59,5.25h.21l-2.8-5.25"/><path class="cls-11" d="M987.61,786.72H929.86l-5,7h66.26l-2.59-5.25-.95-1.79"/><path class="cls-11" d="M988.36,850.1H885.12L880,857.39H990.53l.79-1.59q-1.49-2.85-3-5.7"/><polyline class="cls-12" points="858.88 911.1 858.73 911.1 858.73 943.95 858.88 943.95 858.88 911.1"/><polyline class="cls-13" points="858.73 911.1 845.19 911.1 844.64 911.1 844.64 943.95 858.73 943.95 858.73 911.1"/><path class="cls-14" d="M844.64,433.93,788.11,548.87l.44.12,56.09-113.94v-1.12"/><path class="cls-15" d="M844.64,435.05,788.55,549l2.62.73h24.37l20.82,12.66,8.28,2.33V435.05"/><path class="cls-14" d="M684.72,884.26h-.36q-6.63,13.43-13.24,26.84h.39l13.21-26.84"/><path class="cls-15" d="M844.64,877.9l-6.3,5.13-24.14,3.32-22.35,9.7-13.65-1.87v6.1h0V911.1h66.44V877.9m-155.3-.8,3.53,7.16h-8.15L671.51,911.1h76.37V895.46l-4.31.59-.17-.07-.54.07-22.24-9.7-24-3.32-7.25-5.93"/><polyline class="cls-16" points="844.64 943.95 826.03 943.95 826.03 1024.52 844.64 1024.52 844.64 943.95"/><polyline class="cls-17" points="844.64 911.1 826.03 911.1 826.03 943.95 844.64 943.95 844.64 911.1"/><polyline class="cls-5" points="568.5 972.35 543.11 972.35 543.11 858.75 568.5 858.75 568.5 972.35"/><polyline class="cls-18" points="557.99 610.3 625.43 747.28 692.87 884.26 557.99 884.26 423.12 884.26 490.55 747.28 557.99 610.3"/><polyline class="cls-18" points="555.71 567.96 607.02 672.19 658.33 776.41 555.71 776.41 453.09 776.41 504.4 672.19 555.71 567.96"/><polyline class="cls-18" points="556.55 531.97 588.33 596.52 620.12 661.07 556.55 661.07 492.99 661.07 524.77 596.52 556.55 531.97"/><path class="cls-19" d="M600.39,776.41h-29.8l1.41,2.85H560.13v2.62h42l-1.46-2.09-.23-3.38"/><polyline class="cls-12" points="568.62 884.26 568.5 884.26 568.5 906.13 568.62 906.13 568.62 884.26"/><polyline class="cls-13" points="568.5 884.26 557.99 884.26 557.57 884.26 557.57 906.13 568.5 906.13 568.5 884.26"/><path class="cls-14" d="M556.35,532,524.6,596.52l-6.82,13.86.09.17,6.9-14,31.57-64.12V532"/><path class="cls-20" d="M556.34,532.4l-31.57,64.12-6.9,14,24.86,50.5h9.72q1.93-64.32,3.89-128.65"/><path class="cls-20" d="M560.13,781.88h-14.7l14.7,29.85V781.88"/><path class="cls-21" d="M560.13,779.26h-16l1.29,2.62h14.7v-2.62"/><path class="cls-14" d="M447,835.84h0l-23.46,47.67h0L447,835.84"/><path class="cls-20" d="M560.13,835.84H447l-23.47,47.67v.75H560.13V835.84"/><polyline class="cls-16" points="557.57 906.13 543.11 906.13 543.11 972.35 557.57 972.35 557.57 906.13"/><polyline class="cls-17" points="557.57 884.26 543.11 884.26 543.11 906.13 557.57 906.13 557.57 884.26"/><path class="cls-20" d="M556.45,720.5H543.07l.82,1.66q1.29,2.45,2.6,4.87h-.2l10.11,20.55q0-13.53.05-27.08m.09-54H545.43L556.51,689l0-22.49"/><path class="cls-12" d="M601.69,661.07h-.14l2.24,4.55.05-.1q-1.08-2.22-2.15-4.45"/><path class="cls-19" d="M601.55,661.07h-45v5.47h46.77l.48-.92-2.24-4.55"/><path class="cls-21" d="M556.55,661.07H542.74l2.69,5.47h11.11v-5.47"/><polyline class="cls-5" points="423.49 941.02 393.17 941.02 393.17 805.38 423.49 805.38 423.49 941.02"/><polyline class="cls-22" points="410.94 508.69 491.47 672.27 572 835.84 410.94 835.84 249.88 835.84 330.41 672.27 410.94 508.69"/><polyline class="cls-22" points="410.94 452.11 491.47 615.69 572 779.26 410.94 779.26 249.88 779.26 330.41 615.69 410.94 452.11"/><polyline class="cls-22" points="410.94 393.36 491.47 556.93 572 720.5 410.94 720.5 249.88 720.5 330.41 556.93 410.94 393.36"/><path class="cls-23" d="M543.89,722.16l2.4,4.87h.2q-1.31-2.43-2.6-4.87"/><path class="cls-24" d="M543,720.5H410.43V727H546.29l-2.4-4.87L543,720.5"/><path class="cls-24" d="M543.7,779.28H410.43V786H547.21l-3.51-6.76"/><path class="cls-6" d="M410.43,393.36,330,556.93,249.51,720.5h.37l80.53-163.57,80-162.54v-1"/><path class="cls-24" d="M410.43,394.39l-80,162.54L249.88,720.5h28.18l.33-.66,132-.25V394.39"/><path class="cls-6" d="M278.8,720.5h-.74q-14.26,29.38-28.55,58.76h.37L278.8,720.5"/><path class="cls-24" d="M279.57,720.5h-.77l-28.92,58.76h27.55l.05-.1,133,.07V727H276l3.58-6.53"/><path class="cls-25" d="M410.43,720.5H279.57L276,727H410.43V720.5"/><path class="cls-25" d="M410.43,719.59l-132,.25-.33.66H410.43v-.91"/><path class="cls-6" d="M277.73,779.26h-.3q-13.95,28.29-27.92,56.58h.37L274.4,786h-.2q1.24-2.31,2.47-4.62l1.06-2.16"/><path class="cls-24" d="M410.43,786h-136l-24.52,49.8H393.17v0h17.26V786m0-6.78H277.73l-1.06,2.16,1.14-2.14H410.43v0"/><path class="cls-8" d="M276.67,781.42q-1.23,2.31-2.47,4.62h.2l2.27-4.62"/><path class="cls-25" d="M410.43,779.28H277.81l-1.14,2.14L274.4,786h136v-6.76"/><path class="cls-25" d="M277.48,779.16l-.05.1h133v0l-132.95-.07"/><polyline class="cls-7" points="393.17 835.84 393.17 835.84 393.17 941.02 410.43 941.02 410.43 853.06 393.17 853.06 393.17 835.84"/><polyline class="cls-7" points="423.49 835.84 410.94 835.84 410.43 835.84 410.43 853.06 423.49 853.06 423.49 835.84"/><path class="cls-24" d="M423.49,835.8H410.43v0h13.06v0"/><path class="cls-25" d="M410.43,835.8H393.17v0h17.26v0"/><polyline class="cls-26" points="410.43 835.84 393.17 835.84 393.17 853.06 410.43 853.06 410.43 835.84"/><polyline class="cls-5" points="1119.89 1052.46 1089.57 1052.46 1089.57 916.81 1119.89 916.81 1119.89 1052.46"/><polyline class="cls-9" points="1107.34 620.13 1187.87 783.71 1268.4 947.28 1107.34 947.28 946.28 947.28 1026.81 783.71 1107.34 620.13"/><polyline class="cls-9" points="1104.62 569.57 1165.89 694.03 1227.17 818.48 1104.62 818.48 982.07 818.48 1043.35 694.03 1104.62 569.57"/><polyline class="cls-9" points="1105.63 526.59 1143.58 603.67 1181.53 680.76 1105.63 680.76 1029.72 680.76 1067.68 603.67 1105.63 526.59"/><path class="cls-11" d="M1204.72,818.48h-94.83V825H1208l-3.27-6.53"/><path class="cls-10" d="M1009.69,818.48h-.25c-1,2.13-2,4.25-3,6.38l0,.09,2.93-5.94h0l.26-.53"/><path class="cls-11" d="M1006.46,824.86l-.08.15h.09l0-.06,0-.09"/><path class="cls-11" d="M1109.89,818.48h-100.2l-.26.53,100.46-.53"/><polyline class="cls-12" points="1120.04 947.28 1119.89 947.28 1119.89 973.39 1120.04 973.39 1120.04 947.28"/><polyline class="cls-13" points="1119.89 947.28 1107.34 947.28 1106.84 947.28 1106.84 973.39 1119.89 973.39 1119.89 947.28"/><path class="cls-14" d="M1105.39,526.59l-24.75,50.3h.22l24.51-49.79,0-.51"/><path class="cls-27" d="M1080.86,576.89h-.22l-13.17,26.78-27,54.88v.37l27.2-55.25,13.18-26.78"/><path class="cls-28" d="M1040.47,658.55l-10.92,22.21h.17l10.76-21.84v-.37"/><path class="cls-15" d="M1105.37,527.1l-24.51,49.79-13.18,26.78-27.2,55.25-10.76,21.84,71,0,4.65-153.63"/><path class="cls-28" d="M994.13,850.08h0q-1.32,2.7-2.65,5.38h0l2.65-5.38"/><path class="cls-15" d="M990.54,857.39h0l-24.94,50.67h0l24.95-50.67m.94-1.93-.16.34h0l.16-.34h0"/><path class="cls-15" d="M1006.48,825h0q-6.16,12.54-12.34,25.07h0L1006.48,825"/><path class="cls-29" d="M991.32,855.8l-.79,1.59h0l.78-1.59h0"/><path class="cls-15" d="M964.14,926.65l1.23,20.63h3.87l4.14-8.22-9.24-12.41M1109.89,825H1006.48l-12.35,25.07-2.65,5.38-.16.34-.78,1.59-24.95,50.67,27.7,33.51-2.61,5.71h119.21V825"/><path class="cls-30" d="M1009.43,819h0L1006.5,825h0l2.93-5.94"/><path class="cls-29" d="M1006.5,825l0,.06h0l0-.06h0"/><path class="cls-29" d="M1109.89,818.48h0l-100.46.53L1006.5,825l0,.06h103.41v-6.53"/><polyline class="cls-16" points="1106.84 973.39 1089.57 973.39 1089.57 1052.46 1106.84 1052.46 1106.84 973.39"/><polyline class="cls-17" points="1106.84 947.28 1089.57 947.28 1089.57 973.39 1106.84 973.39 1106.84 947.28"/><path class="cls-27" d="M1048,684.63l-7.31,14.85h0l2.69-5.45,4.48-9.12.14-.28"/><path class="cls-28" d="M997.71,786.72h0l-5,10.19h0l5-10.19m43-87.24-32.37,65.75h0l32.37-65.75h0"/><path class="cls-15" d="M992.7,796.91q-5.31,10.79-10.63,21.57h0l10.63-21.57h0"/><path class="cls-15" d="M1008.29,765.23Q1003,776,997.71,786.72h0l10.58-21.49h0"/><path class="cls-15" d="M1047.83,684.91l-4.48,9.12-2.69,5.45-32.37,65.75-10.58,21.49-5,10.19-10.63,21.57h123.32q.1-65.6.22-131.19h-58.94c.39-.79.77-1.59,1.16-2.38"/><path class="cls-31" d="M1049.16,682.22c-.4.8-.79,1.61-1.19,2.41l.46-.92.73-1.49m110.36-1.46h-.16l3.22,6.53h.1c-1-2.18-2.11-4.36-3.16-6.53"/><path class="cls-11" d="M1049.88,680.76h0l-.72,1.46-.73,1.49,1.45-3m109.48,0h-53.73l0,6.53h57l-3.22-6.53"/><path class="cls-11" d="M1159.52,680.76h0"/><path class="cls-32" d="M1048.43,683.71l-.46.92-.14.28.6-1.2"/><path class="cls-29" d="M1105.63,680.76h-55.75l-1.45,3-.6,1.2c-.39.79-.77,1.59-1.16,2.38h58.94l0-6.53"/><g class="cls-33"><g class="cls-34"><polygon class="cls-35" points="905.85 1034.97 905.58 1039.28 895.89 1041.7 895.89 1046 922.8 1046 922.8 1034.97 905.85 1034.97"/><polygon class="cls-35" points="941.59 1034.97 941.59 1046 968.49 1046 968.49 1041.7 958.8 1039.28 958.54 1034.97 941.59 1034.97"/><rect class="cls-36" x="903.97" y="1026.9" width="20.79" height="8.07"/><rect class="cls-36" x="939.87" y="1026.9" width="20.79" height="8.07"/><polyline class="cls-37" points="901.64 973.24 962.61 973.24 962.61 963.67 901.64 963.67 901.64 973.24"/><polyline class="cls-38" points="905.9 983.34 905.9 1026.9 922.8 1026.9 922.8 983.34 941.59 983.34 941.59 1026.9 958.35 1026.9 958.35 983.34 962.61 983.34 962.61 973.24 952.22 973.24 952.25 963.67 949.3 963.67 949.34 973.24 914.56 973.24 914.56 963.67 911.79 963.67 911.84 973.24 901.64 973.24 901.64 983.34 905.9 983.34"/><polyline class="cls-39" points="903.26 894.71 932.28 914.12 960.66 894.71 960.66 902.09 993.29 941.57 980.07 970.52 962.61 960.48 973.38 939.06 961.16 922.66 932.28 922.66 905.77 922.66 896.39 951.94 880 958.3 866.44 918.47 887.36 913.95 889.7 925 901.64 904.92 903.76 904.75 903.26 894.71"/><polyline class="cls-40" points="897.23 963.67 961.77 963.67 962.61 960.48 965.78 954.17 962.61 901.07 932.28 916.97 901.64 901.07 897.23 963.67"/><g class="cls-33"><path class="cls-35" d="M905.85,922.66h16.77s3,17.73-7.78,17.73-9-17.73-9-17.73"/><path class="cls-35" d="M941.49,922.66h16.78s3,17.74-7.79,17.74-9-17.74-9-17.74"/><path class="cls-41" d="M906.27,896.72l26,17.4,26.28-18V833s-14,5.33-24.78,5.94-23.31.43-27.51-1Z"/><polygon class="cls-42" points="920.89 906.5 943.42 906.5 932.28 914.12 920.89 906.5"/><path class="cls-43" d="M906.27,863.58c-.94,1.72-6.44,12.17-2.07,23.16,6.25,15.74,26.33,16.46,27.59,16.49,9.4.19,25.46-3.2,28.91-16.37.9-3.45,2.57-14.91-2.14-23.28l-6.71,8.73c-4.35-4.1-8-5.16-10.64-5.33a44.74,44.74,0,0,0-9.06.85,19.93,19.93,0,0,0-19.22,3.63Z"/><path class="cls-44" d="M926.85,875.23a7.19,7.19,0,0,0,3.33-1.85,6.87,6.87,0,0,0,1.35-1.92h1.21a10.22,10.22,0,0,0,1.82,2,10.7,10.7,0,0,0,3.2,1.8,15,15,0,0,1-10.91,0"/><path class="cls-45" d="M906.27,854.35H901.1c-1.8.41-4.12,1.43-4.32,4.81s1.38,4.89,2.77,5.55h6.72Z"/><path class="cls-45" d="M958.56,854.35h5.17c1.8.41,4.12,1.43,4.32,4.81s-1.38,4.89-2.77,5.55h-6.72Z"/><path class="cls-43" d="M906.27,838a17.14,17.14,0,0,0,3.71.94c33.79,3.63,55.49-8.06,57.61-10.05.44-.41,1.56-1.34,1.4-2.16-.09-.44-.65-.79-1.56-1.05-2.29-.66-4.18-.54-10.32-.84,0,0,4.85-1.39,5.62-3.34s-11.45-5-27.8-4.33-26.33,4.77-29,8.48a15.29,15.29,0,0,0-2.78,8.73c-.12,1.51-3,3.54-2.93,8.56s.9,11.41.9,11.41h5.17Z"/><polyline class="cls-46" points="858.63 909.57 903.38 897.11 903.63 902.1 901.64 901.07 901.29 906 860.71 917.22 858.63 909.57"/><polygon class="cls-41" points="867.5 918.24 867.5 915.34 871.93 914.11 867.37 907.14 865.36 907.7 865.36 903.92 885.14 898.94 888.29 911.07 885.22 911.4 885.01 914.46 867.5 918.24"/><path class="cls-46" d="M961.46,882.47a21.92,21.92,0,0,1-.65,3.93,22.62,22.62,0,0,1-1.6,4.3l35.32-9.36-2.12-7.76Z"/><path class="cls-47" d="M988.42,871.88,969.5,877l4.73,15.24s1.75,5.38.16,9.46a36.35,36.35,0,0,1-4.89,8.15c.82.63,10.08,7.39,21.26,3.69a23.74,23.74,0,0,0,13.72-12.49s-4.85.37-8.4-4.89-3.1-5.18-4-7.5Z"/><path class="cls-48" d="M1001.43,900.53a8,8,0,0,0,3.05.54,23.74,23.74,0,0,1-13.72,12.49c-11.18,3.7-20.44-3.06-21.26-3.69,0,0,.48-.59,1.17-1.55A25.54,25.54,0,0,0,983,910.54a26.29,26.29,0,0,0,14.88-6.22,25,25,0,0,0,3.55-3.79"/><polygon class="cls-41" points="962.61 960.48 958.98 974.28 974.07 978.2 978.68 969.72 962.61 960.48"/><g class="cls-49"><polyline class="cls-50" points="942.16 973.24 922.67 973.24 922.67 973.24 942.16 973.24 942.16 973.24"/><polyline class="cls-50" points="942.16 963.67 937.84 963.67 937.84 966.78 933.35 966.78 933.35 969.39 937.84 969.39 937.84 972.65 926.91 972.65 926.91 963.67 922.67 963.67 922.67 973.24 942.16 973.24 942.16 963.67"/><polyline class="cls-50" points="942.16 973.24 922.67 973.24 922.67 976.32 942.16 976.32 942.16 973.24"/><polyline class="cls-50" points="942.16 959.85 932.28 959.85 932.28 959.85 922.67 959.85 922.67 963.67 922.67 963.67 926.91 963.67 937.84 963.67 942.16 963.67 942.16 959.85"/></g><polyline class="cls-37" points="937.84 963.67 926.91 963.67 926.91 972.65 937.84 972.65 937.84 969.39 933.35 969.39 933.35 966.78 937.84 966.78 937.84 963.67"/><path class="cls-51" d="M918.79,845.5h7.67a1.07,1.07,0,1,1,0,2.13h-7.67a1.07,1.07,0,1,1,0-2.13"/><path class="cls-51" d="M938.37,845.5H946a1.07,1.07,0,1,1,0,2.13h-7.67a1.07,1.07,0,1,1,0-2.13"/><path class="cls-52" d="M922.62,852.53c-.66,0-2.13.9-1.91,3.62s1.22,3,1.91,3,1.92-1.12,1.92-3.33-1.26-3.32-1.92-3.32"/><path class="cls-52" d="M942,852.53c-.66,0-2.13.9-1.92,3.62s1.22,3,1.92,3,1.91-1.12,1.91-3.33-1.25-3.32-1.91-3.32"/><g class="cls-53"><path class="cls-54" d="M914.84,940.39c-10.75,0-9-17.73-9-17.73h16.77s3,17.73-7.78,17.73m-13.2-39.32h0l-.19,2.71-.16,2.22-2.76,39.28h0l-1.3,18.39h25.44v-3.82h9.61V917L903.63,902.1h0l-2-1"/><path class="cls-55" d="M922.62,922.66H905.85s-1.76,17.73,9,17.73,7.78-17.73,7.78-17.73"/><path class="cls-56" d="M901.45,903.78l-.12,1.65h0l0,.57h0l.16-2.22m.19-2.71h0l2,1-2-1"/><polyline class="cls-57" points="932.28 959.85 922.67 959.85 922.67 963.67 922.67 959.85 932.28 959.85"/></g><g class="cls-58"><path class="cls-59" d="M898.53,945.28l-2.13,6.66,2.13-6.66h0M896.3,913.9,889.7,925h0l6.6-11.1"/><polyline class="cls-60" points="901.29 906 900.93 906.1 896.3 913.9 889.7 925 889.7 925 896.39 951.94 898.53 945.28 901.29 906"/><polyline class="cls-61" points="901.33 905.43 900.93 906.1 901.29 906 901.33 905.43"/><polyline class="cls-62" points="901.29 906 901.29 906 898.53 945.28 898.53 945.28 901.29 906"/><polyline class="cls-63" points="901.33 905.43 901.33 905.43 901.29 906 901.29 906 901.33 905.43"/></g></g></g></g><polyline class="cls-5" points="778.2 1006.45 747.88 1006.45 747.88 870.8 778.2 870.8 778.2 1006.45"/><polyline class="cls-64" points="767.71 543.15 791.17 549.72 815.54 549.72 836.36 562.38 859.82 568.96 876.45 586.77 897.27 599.43 908.48 621.06 925.11 638.87 930.07 662.73 941.28 684.36 939.62 708.67 944.57 732.52 936.41 755.48 934.75 779.79 920.7 799.7 912.54 822.66 893.64 838.04 879.59 857.94 857.24 867.65 838.34 883.03 814.2 886.35 791.85 896.05 767.71 892.74 743.57 896.05 721.22 886.35 697.08 883.03 678.18 867.65 655.83 857.94 641.78 838.04 622.88 822.66 614.72 799.7 600.67 779.79 599 755.48 590.84 732.52 595.8 708.67 594.14 684.36 605.35 662.73 610.31 638.87 626.94 621.06 638.15 599.43 658.97 586.77 675.6 568.96 699.06 562.38 719.88 549.72 744.25 549.72 767.71 543.15"/><path class="cls-16" d="M747.88,895.46h0v111h14.36q.19-54,.37-108l-14.73,3.47v-6.45"/><path class="cls-14" d="M605.69,661.07h-.07l-.34,1.65-1.44,2.8,0,.06,1.48-2.86.34-1.65m154.19-116-16.34,4.6H719.28l-20.72,12.66L675.21,569l-16.56,17.81-20.72,12.66-11.16,21.63-16.55,17.81-.31,1.48.06.12.34-1.6,16.63-17.81,11.21-21.63L659,586.77,675.6,569l23.46-6.58,20.82-12.66h24.37l15.63-4.38v-.22"/><path class="cls-20" d="M603.37,666.54h-.06l-9.19,17.82,1.66,24.31-4.94,23.86,5-23.86-1.66-24.31,9.23-17.82"/><polyline class="cls-20" points="609.91 640.35 605.62 661.07 605.69 661.07 609.97 640.47 609.91 640.35"/><path class="cls-65" d="M603.84,665.52l-.05.1,0,.06,0-.1,0-.06"/><path class="cls-21" d="M603.79,665.62l-.48.92h.06l.45-.86,0-.06"/><path class="cls-66" d="M689,876.48l.3.62,7.25,5.93,24,3.32,22.24,9.7.54-.07-22.18-9.63L697.08,883l-8-6.55"/><path class="cls-20" d="M602.14,781.88h-.06l12.53,17.82,8.12,23L641.54,838l14,19.9,22.25,9.71,11.56,9.45-.3-.62-10.86-8.83-22.35-9.71L641.78,838l-18.9-15.38-8.16-23-12.58-17.82"/><path class="cls-20" d="M590.84,732.53l8.13,23,1.42,20.93h.05L599,755.48l-8.16-23"/><path class="cls-21" d="M600.44,776.41h-.05l.23,3.38,1.46,2.09h.06l-1.47-2.09-.23-3.38"/><path class="cls-67" d="M759.88,545.34l-15.63,4.38H719.88l-20.82,12.66L675.6,569,659,586.77l-20.82,12.66-11.21,21.63-16.63,17.81-.34,1.6-4.28,20.6-.34,1.65-1.48,2.86,0,.1-.45.86-9.23,17.82,1.66,24.31-5,23.86,8.16,23,1.44,20.93.23,3.38,1.47,2.09,12.58,17.82,8.16,23L641.78,838l14.05,19.9,22.35,9.71L689,876.48l8,6.55,24.14,3.32L743.4,896l4.48-.62V895h0l13.58-1.85q-.8-173.91-1.58-347.81"/><path class="cls-16" d="M767.71,892.74l-5.08.69c0,1.67,0,3.34,0,5l3.4-.8,12.19,2.64v-6.1l-10.49-1.44"/><path class="cls-67" d="M768.19,892.23l-6.73.92v.1l1.17-.15v.33l5.08-.69,10.49,1.44v-.57l-10-1.38"/><path class="cls-68" d="M762.63,893.43l-14.75,2v6.45l14.73-3.47c0-1.67,0-3.34,0-5"/><path class="cls-69" d="M762.63,893.1l-1.17.15v.24l-13.58,1.87v.1l14.75-2v-.33"/><path class="cls-69" d="M761.46,893.15,747.88,895h0l13.58-1.75v-.1"/><path class="cls-70" d="M761.46,893.25,747.88,895v.36l13.58-1.87v-.24"/><g class="cls-71"><g class="cls-72"><g class="cls-73"><path class="cls-74" d="M1145.2,1057q154.92-.36,309.79,1.85,82.23,1.17,164.47,3.07l-1.38,16.93s-144.71-.17-233-2.16c-52.39-1.17-238.79.13-238.79.13q-.54-9.91-1.07-19.82"/><path class="cls-74" d="M1151.91,1032.48q134.67-7.65,269-3.85c2.9.08,23.69,1.09,51.82,1.89,22.8.64,48.68,1.35,78.57,1,13.88-.17,34.45-.64,59.73-2.08l-.81,34.3s-143-.46-235.27-2.45c-54.72-1.17-220.28,2.45-220.28,2.45q-1.39-15.62-2.78-31.25"/><path class="cls-74" d="M1157.64,1013.45c79.26-9,143.29-8.55,188.21-6.22,39,2,62.13,7.4,108.79,6.47,37.17-.75,129.62-4.33,144.95-5.48l.47,22.4c-29,1.79-72.7,3.94-126.17,4.29-59.49.39-89.39-1.74-143.7-2.44-40.76-.53-99.36-.31-171.25,3.43q-.64-11.22-1.3-22.45"/><path class="cls-74" d="M1168.94,994.35c15.52,1.41,105.54,3.07,185,5,30.68.76,114.82.63,127.42.37,35.57-.73,94.51-1.67,109.19-2.8v15.52c-27.71,1.76-69.59,3.86-120.79,4.2-56.33.38-88.8-6.84-141.3-7.59-39-.55-91.08,4.74-159.57,8V994.35"/><path class="cls-74" d="M1175.55,983c23.7,0,60,.14,104.51.35,96,.45,123.79,1,170.7.5,31.75-.32,77.73-1.15,133.87-3.49q-.32,10.39-.64,20.78c-25.35,1.86-66.28,4.24-117,4.19-62.31-.05-90.48-3.71-149.41-4.38-32.52-.37-81.43.08-142,4.76V983"/><g class="cls-75"><path class="cls-76" d="M1618.59,1072.62l-.4,5h.5l.4-4.94-.5,0"/><path class="cls-77" d="M1168.55,1065.8h-22.21c.18,3.25.35,6.5.53,9.75,0,0,88.38-.62,160.54-.62,32.63,0,61.94.13,78.25.49,85.29,1.92,223.18,2.14,232.53,2.15l.4-5q-89.28-2.7-178.57-4.34-135.7-2.47-271.47-2.48"/></g><g class="cls-78"><path class="cls-76" d="M1610.68,1045.1q-.2,7.8-.37,15.59h.54c0-2,0-4.11.05-6.18,0-3.16.08-6.29.14-9.41h-.36"/><path class="cls-77" d="M1391.78,1043.2c-79.45,0-158.17.44-237.83,1.72l.83,10.87,27.13,0q97.86,0,195.74,1,116.34,1.21,232.66,3.89.18-7.8.37-15.59c-30.26-.6-77.4-1.38-135.81-1.72-7.12,0-27.47-.13-53.34-.16l-29.75,0"/></g><g class="cls-79"><path class="cls-77" d="M1306.8,1027c-55.48,0-120.55.36-147.67.53.07,1.13.13,2.25.2,3.37,107.4-1.53,153.76-1.95,175.57-2,12.6,0,23.41,0,45.19-.15s28.79-.17,36.17-.17h5.34c9,0,17.18.15,24.36.3,16,.31,27.76.78,29.92.86,5.63.21,14.16.35,27.13.35,14.32,0,34.06-.17,61.28-.61-50.2-.23-125.25-.76-179.23-2-16.31-.36-45.63-.49-78.26-.49"/></g></g></g></g><g class="cls-80"><g class="cls-81"><g class="cls-82"><path class="cls-74" d="M1145.2,1007.75q154.92-.36,309.79,1.85,82.23,1.17,164.47,3.07l-1.38,16.92s-144.71-.16-233-2.15c-52.39-1.18-238.79.13-238.79.13q-.54-9.91-1.07-19.82"/><path class="cls-74" d="M1151.91,983.24q134.67-7.65,269-3.86c2.9.09,23.69,1.1,51.82,1.89,22.8.65,48.68,1.36,78.57,1,13.88-.17,34.45-.64,59.73-2.08l-.81,34.3s-143-.46-235.27-2.45c-54.72-1.18-220.28,2.45-220.28,2.45q-1.39-15.63-2.78-31.25"/><path class="cls-74" d="M1157.64,964.21A1136.77,1136.77,0,0,1,1345.85,958c39,2,62.13,7.41,108.79,6.47,37.17-.74,129.62-4.32,144.95-5.47l.47,22.39c-29,1.8-72.7,4-126.17,4.3-59.49.39-89.39-1.74-143.7-2.44-40.76-.53-99.36-.31-171.25,3.43q-.64-11.22-1.3-22.45"/><path class="cls-74" d="M1168.94,945.11c15.52,1.41,105.54,3.06,185,5,30.68.76,114.82.63,127.42.37,35.57-.73,94.51-1.67,109.19-2.8v15.52c-27.71,1.76-69.59,3.86-120.79,4.2-56.33.38-88.8-6.84-141.3-7.59-39-.55-91.08,4.74-159.57,8V945.11"/><path class="cls-74" d="M1175.55,933.75c23.7,0,60,.14,104.51.35,96,.45,123.79,1,170.7.49,31.75-.31,77.73-1.14,133.87-3.48q-.32,10.39-.64,20.78c-25.35,1.86-66.28,4.23-117,4.19-62.31-.05-90.48-3.71-149.41-4.38-32.52-.37-81.43.08-142,4.76V933.75"/><g class="cls-83"><path class="cls-76" d="M1618.59,1023.38l-.4,5h.5l.4-4.95h-.5"/><path class="cls-77" d="M1168.58,1016.56h-22.24c.18,3.25.35,6.5.53,9.75,0,0,88.38-.62,160.54-.62,32.62,0,61.94.12,78.25.49,85.29,1.92,223.18,2.14,232.53,2.15l.4-5q-89.28-2.71-178.57-4.34-135.69-2.49-271.44-2.48"/></g><g class="cls-84"><path class="cls-76" d="M1610.68,995.86q-.2,7.8-.37,15.59h.54c0-2.05,0-4.11.05-6.18q0-4.74.14-9.41h-.36"/><path class="cls-77" d="M1391.77,994c-79.45,0-158.17.44-237.82,1.72l.83,10.87,27.13,0q97.86,0,195.74,1,116.34,1.22,232.66,3.89.18-7.8.37-15.59c-30.26-.6-77.4-1.38-135.81-1.72-7.12,0-27.47-.13-53.34-.16l-29.76,0"/></g><g class="cls-85"><path class="cls-76" d="M1600.47,971l-.63,0,.18,8.46h.63l-.18-8.48"/><path class="cls-77" d="M1369.65,970.17h-3.88c-54.49.14-74.68,2.85-133.38,3h-4.69c-29.28,0-53.2-.65-68.93-1.2.18,3.22.37,6.43.56,9.65,107.4-1.53,153.76-2,175.57-2,12.6,0,23.41-.05,45.19-.15s28.77-.17,36.15-.17h5.36c9,0,17.18.15,24.36.29,16,.32,27.76.79,29.92.87,5.63.21,14.16.35,27.13.35,20,0,50.41-.33,97-1.26l-.18-8.46c-36.45,1.43-69,1.92-96.84,1.92-14.56,0-27.83-.13-39.69-.33-50.45-.84-53.86-2.49-93.66-2.49"/></g><g class="cls-86"><path class="cls-76" d="M1591.2,951l-.6,0v7.16l.58,0q0-3.58,0-7.17m0,0h0"/><path class="cls-77" d="M1590.6,951l-6.59.49,0,.36c-25.13,1.84-65.59,4.19-115.7,4.19H1467c-4.22,0-8.28,0-12.21-.05-38.08-.09-66.89-1.5-100.19-2.61-20.47-.68-45-1.32-73.19-1.71-28.91.34-64.67,1.57-105.85,4.75v-4.8l-6,.07q0,5.14,0,10.29c48.72-2.86,91-3.71,125.08-3.71,12.61,0,24.11.12,34.41.29,52.88.89,82.76,3.44,139,3.44l7.68,0c48.45-.19,88.24-2.14,114.86-3.82V951"/><path class="cls-77" d="M1584,951.53c-26,1.86-62.45,3.88-106,4.38-6.82.08-13.32.12-19.58.12h-3.63c3.93,0,8,.05,12.21.05h1.3c50.11,0,90.57-2.35,115.7-4.19l0-.36m-357.17-.2q-24.37,0-51.29.33v4.8c41.18-3.18,76.94-4.41,105.85-4.75-16.89-.24-35.11-.38-54.56-.38"/></g><g class="cls-87"><path class="cls-76" d="M1585,936.66l-.56,0c-.1,3.4-.21,6.79-.31,10.19l.56,0c.11-3.39.21-6.79.31-10.18m0,0h0"/><path class="cls-77" d="M1584.46,936.68c-55.77,2.32-101.47,3.14-133.1,3.46-13.2.13-24.88.18-37,.18-31,0-64.72-.36-133.69-.68-44.48-.21-80.82-.3-104.52-.35v5c11.69-.31,29.21-.74,50.5-1.14,38.07-.7,67.54-.91,74.74-.94,2.32,0,4.58,0,6.81,0,61.11,0,89.69,4.28,152.17,5.94,12.53.34,27.3.59,44.08.59h.29c23,0,49.65-.47,79.41-1.84.1-3.4.21-6.79.31-10.19"/></g></g></g></g><path class="cls-9" d="M0,781.19l16.73-31.12q1.72,20.74,3.46,41.49l17.29-22.47,8.64,32.84,15.56-41.49,3,26q1.09,9.45,2.18,18.9l10.38,17.28Q87.61,808,98,793.29q-1.73,18.15-3.46,36.3l27.66-27.66,5.19,45,19-25.93q3.47,17.28,6.92,34.57l15.55-32.85,10.38,38,36.3-50.14q-1.72,27.66-3.46,55.32l19-24.2v31.12l20.74-12.1q3.46,13.81,6.92,27.65,3.45-23.33,6.91-46.67,7.79,26.79,15.56,53.59l12.1-24.2q3.45,14.68,6.91,29.38l3.78-7.08,10.05-18.84,5.19,29.38,15.56-27.66q7.77,25.93,15.55,51.86l10.38-27.66,15.55,36.31,13.83-29.39q6.06,17.28,12.11,34.57,1.29-3.88,2.59-7.78l13-38.89q4.32,21.6,8.65,43.22l13.83-25.93,3.45,48.4,20.75-22.47q3.45,9.5,6.91,19l22.47-24.2L499,976.53q8.64-13.83,17.29-27.66,5.17,11.24,10.37,22.47L544,938.5l13.83,32.84,13.82-22.47,12.11,36.3q2.71-5.25,5.44-10.5l18.76-36.17q-.87,21.6-1.73,43.21l22.47-24.2,5.19,32.85,24.2-32.85-5.19,39.76,27.66-25.93q5.19,17.29,10.37,34.57c.05-.48.09-1,.14-1.44q2.52-26.94,5.05-53.87,12.1,25.92,24.2,51.86L732.4,980,748,1007.64l15.56-25.93,48.4,38,13.83-29.38q5.19,15.55,10.37,31.11,6-13,12.1-25.93l20.75,36.3,19-25.93q-.87,19-1.73,38L907,993.81q5.18,19.89,10.37,39.76l12.1-22.47q8.64,10.36,17.29,20.74l3.45-48.4q8.71,22.06,17.42,44.12l8.51,21.57,19-31.12,19,22.48,10.38-39.76,13.83,41.49,13.82-19,13.83,24.2,3.94-5.72c.35-.52,14.72-21.42,15.08-21.94l1.73,29.39,31.11-27.66q4.33,13.83,8.65,27.66l13.83-29.39,19,20.75q3.46-13.83,6.92-27.66l20.74,32.84q5.19-8.64,10.37-17.28l20.6,20.74V1080H0Z"/><path class="cls-9" d="M1218,1049.13l30.86-29q8.36,11.82,16.7,23.66l13.92-19.49q4.18,18.11,8.35,36.19,7.67-11.82,15.32-23.66,2.77,21.57,5.56,43.13l30.63-39q4.17,11.82,8.35,23.66l13.92-8.35,9.75,23.64,51.5-29.21q8.36,14.61,16.7,29.21l16.71-19.47,7,19.47,25-9.72V1080H1218Z"/></svg>