<svg xmlns="http://www.w3.org/2000/svg" xmlns:xlink="http://www.w3.org/1999/xlink" viewBox="0 0 1920 1080"><defs><style>.cls-1,.cls-3{isolation:isolate;}.cls-1{filter:url(#luminosity-noclip);}.cls-2,.cls-33{fill:none;}.cls-4,.cls-5,.cls-6{fill:#a0a0a0;}.cls-5{opacity:0.46;}.cls-11,.cls-12,.cls-35,.cls-5,.cls-6,.cls-9{mix-blend-mode:multiply;}.cls-7{fill:#5e4d31;}.cls-8,.cls-9{fill:#59916f;}.cls-10{fill:#34a35f;}.cls-11{fill:#a8a8a8;}.cls-12{fill:#969696;}.cls-13{fill:#3a5e48;}.cls-14{fill:#46dd81;}.cls-15{clip-path:url(#clip-path);}.cls-16{fill:#725338;}.cls-17{fill:#455955;}.cls-18{fill:#752f16;}.cls-19{fill:#253532;}.cls-20{fill:#bd553c;}.cls-21{fill:#7f5f3d;}.cls-22{fill:#e5a080;}.cls-23{fill:#f8fbf7;}.cls-24{fill:#2f3e43;}.cls-25{fill:#fffffc;}.cls-26{fill:#d19176;}.cls-27{fill:#8b6338;}.cls-28{fill:#656a68;}.cls-29{fill:#94989b;}.cls-30{mask:url(#mask);}.cls-31{clip-path:url(#clip-path-4);}.cls-32{fill:#efc150;}.cls-33{stroke:#2f3e42;stroke-linecap:round;stroke-miterlimit:10;stroke-width:2.14px;}.cls-34{fill:#533412;}.cls-36{clip-path:url(#clip-path-5);}.cls-37{fill:#d1d1d1;}.cls-38{clip-path:url(#clip-path-6);}.cls-39{fill:#c4c5c4;}.cls-40{fill:#89ddaa;}.cls-41{clip-path:url(#clip-path-7);}.cls-42{clip-path:url(#clip-path-9);}.cls-43{fill:#846e63;}.cls-44{clip-path:url(#clip-path-10);}.cls-45{fill:#8e8e8e;}.cls-46{clip-path:url(#clip-path-11);}.cls-47{clip-path:url(#clip-path-12);}.cls-48{clip-path:url(#clip-path-13);}.cls-49{clip-path:url(#clip-path-14);}.cls-50{clip-path:url(#clip-path-15);}.cls-51{clip-path:url(#clip-path-17);}.cls-52{clip-path:url(#clip-path-18);}.cls-53{clip-path:url(#clip-path-19);}.cls-54{clip-path:url(#clip-path-20);}.cls-55{clip-path:url(#clip-path-21);}.cls-56{clip-path:url(#clip-path-22);}</style><clipPath id="clip-path"><rect class="cls-2" x="858.63" y="817.07" width="145.85" height="228.93"/></clipPath><filter id="luminosity-noclip" x="922.67" y="959.85" width="19.49" height="16.47" filterUnits="userSpaceOnUse" color-interpolation-filters="sRGB"><feFlood flood-color="#fff" result="bg"/><feBlend in="SourceGraphic" in2="bg"/></filter><mask id="mask" x="922.67" y="959.85" width="19.49" height="16.47" maskUnits="userSpaceOnUse"><g class="cls-1"><polygon points="926.91 972.65 926.91 963.67 937.84 963.67 937.84 966.78 933.35 966.78 933.35 969.39 937.84 969.39 937.84 972.65 926.91 972.65"/></g></mask><clipPath id="clip-path-4"><rect class="cls-2" x="922.67" y="959.85" width="19.49" height="16.47"/></clipPath><clipPath id="clip-path-5"><rect class="cls-2" x="897.23" y="901.07" width="35.05" height="62.61"/></clipPath><clipPath id="clip-path-6"><rect class="cls-2" x="889.7" y="905.43" width="11.63" height="46.51"/></clipPath><clipPath id="clip-path-7"><rect class="cls-2" x="1145.2" y="980.35" width="474.27" height="98.48"/></clipPath><clipPath id="clip-path-9"><rect class="cls-2" x="1145.2" y="980.35" width="474.27" height="98.48"/></clipPath><clipPath id="clip-path-10"><rect class="cls-2" x="1146.34" y="1065.8" width="472.75" height="11.79"/></clipPath><clipPath id="clip-path-11"><rect class="cls-2" x="1153.95" y="1043.2" width="457.09" height="17.5"/></clipPath><clipPath id="clip-path-12"><rect class="cls-2" x="1158.77" y="1019.41" width="441.88" height="11.45"/></clipPath><clipPath id="clip-path-13"><rect class="cls-2" x="1169.57" y="1000.24" width="421.64" height="11.04"/></clipPath><clipPath id="clip-path-14"><rect class="cls-2" x="1176.15" y="985.9" width="408.87" height="12.05"/></clipPath><clipPath id="clip-path-15"><rect class="cls-2" x="1145.2" y="931.11" width="474.27" height="98.48"/></clipPath><clipPath id="clip-path-17"><rect class="cls-2" x="1145.2" y="931.11" width="474.27" height="98.48"/></clipPath><clipPath id="clip-path-18"><rect class="cls-2" x="1146.34" y="1016.56" width="472.75" height="11.79"/></clipPath><clipPath id="clip-path-19"><rect class="cls-2" x="1153.95" y="993.96" width="457.09" height="17.5"/></clipPath><clipPath id="clip-path-20"><rect class="cls-2" x="1158.77" y="970.17" width="441.88" height="11.45"/></clipPath><clipPath id="clip-path-21"><rect class="cls-2" x="1169.57" y="951" width="421.64" height="11.04"/></clipPath><clipPath id="clip-path-22"><rect class="cls-2" x="1176.15" y="936.66" width="408.87" height="12.05"/></clipPath></defs><title>Forest04</title><g class="cls-3"><g id="Layer_1" data-name="Layer 1"><g id="invisibleframe"><rect class="cls-2" width="1920" height="1080"/></g><path class="cls-4" d="M109,867.51l40.82-34.38q-10.2-26.86-20.41-53.71-8.82-47.28-17.65-94.55L85.69,634.61q4.61-39.43,9.2-78.87l-21-55.21,27.6-30.23-42.06-67q-5.25-25-10.51-49.95-8.14-21.37-16.28-42.75l-.81-54.52L13.59,214.48,0,202.16V827.29Z"/><path class="cls-5" d="M66.46,549.13q-8.29-25.2-16.6-50.4l21.79-27.6Q55,440.53,38.46,409.93l14,65.44L37.13,510.93q-6,34.94-12.08,69.86l19.76,19.05,15.37,7.62Q63.33,578.29,66.46,549.13Z"/><path class="cls-5" d="M.53,298.36,17.22,265,0,239.27V331l11.66,3.5Z"/><path class="cls-5" d="M101.64,844.94Q97.47,806,93.29,767l-4.17-77.91-7-40.35q-2.77,33.39-5.56,66.78l-32,37.57L14,831Z"/><path class="cls-5" d="M9.73,748.14l15.69-72L49.3,707.48Q66,669.33,82.61,631.21q-22.2,19.21-44.39,38.44l-12.8,6.46L7.68,698.67,0,717.38v32.16Z"/><path class="cls-4" d="M370.47,952.24q13.09-29,26.2-58-9.36-16.83-18.71-33.68l-33.68-18.71L318.09,877.4q1.86,22.46,3.74,44.91Z"/><path class="cls-6" d="M358,944.57l22.74-50.33q-9.36-16.83-18.71-33.68l-22.39-12.43L318.09,877.4q1.86,22.46,3.74,44.91Z"/><path class="cls-4" d="M322.11,904q.76-13.74,1.54-27.47-6.57-10.68-13.15-21.37l-22.19-9.86L271.09,861.4Q276,877.2,280.91,893Z"/><path class="cls-6" d="M315.43,902q.49-8.94,1-17.86L303.25,862.8l-22.2-9.87-10,8.47Q276,877.2,280.91,893Z"/><path class="cls-4" d="M324.76,868.31,333.83,856q.38-6.76.74-13.53l-6.95-9-15.81,2.09q-1.59,8.67-3.19,17.33Z"/><path class="cls-6" d="M322.21,865l4.12-8.1q1.51-6.85,3-13.73l-6.4-7.36-11.13-.28q-1.59,8.67-3.19,17.33Z"/><rect class="cls-7" x="1027.79" y="905.68" width="31.05" height="138.91"/><polygon class="cls-8" points="1048.1 570.16 1072.13 576.89 1097.08 576.89 1118.4 589.85 1142.42 596.58 1159.45 614.82 1180.77 627.78 1192.25 649.94 1209.28 668.17 1214.36 692.6 1225.84 714.76 1224.14 739.65 1229.21 764.08 1220.86 787.59 1219.15 812.49 1204.77 832.87 1196.41 856.38 1177.05 872.13 1162.66 892.51 1139.78 902.45 1120.42 918.2 1095.7 921.6 1072.82 931.54 1048.1 928.14 1023.38 931.54 1000.49 921.6 975.77 918.2 956.42 902.45 933.53 892.51 919.14 872.13 899.79 856.38 891.43 832.87 877.04 812.49 875.34 787.59 866.99 764.08 872.06 739.65 870.36 714.76 881.84 692.6 886.92 668.17 903.95 649.94 915.43 627.78 936.75 614.82 953.78 596.58 977.8 589.85 999.12 576.89 1024.07 576.89 1048.1 570.16"/><path class="cls-9" d="M1042.5,1044.58h-14.71V930.46l15.11-2Q1042.71,986.55,1042.5,1044.58Z"/><path class="cls-9" d="M1041.7,928.91l-19,2.63-22.78-9.94-24.61-3.4L956,902.45l-22.78-9.94L918.9,872.13l-19.26-15.75-8.32-23.51L877,812.49l-1.7-24.9L867,764.08l5-24.43-1.7-24.89,11.43-22.16,5.05-24.43,17-18.23,11.42-22.16,21.22-13,17-18.24,23.91-6.73,21.22-13h24.84l16.73-4.71Z"/><path class="cls-9" d="M1058.84,935.87l-12.48-2.71-18.57,4.37v-7.07l20.8-2.83,10.25,1.4Z"/><rect class="cls-7" x="826.03" y="878.25" width="32.7" height="146.28"/><polygon class="cls-10" points="845.19 558.31 932.03 734.71 1018.88 911.1 845.19 911.1 671.51 911.1 758.35 734.71 845.19 558.31"/><polygon class="cls-10" points="845.19 497.3 932.03 673.69 1018.88 850.09 845.19 850.09 671.51 850.09 758.35 673.69 845.19 497.3"/><polygon class="cls-10" points="845.19 433.93 932.03 610.33 1018.88 786.72 845.19 786.72 671.51 786.72 758.35 610.33 845.19 433.93"/><path class="cls-11" d="M699.67,793.76H991.36l-3.75-7H703.53C702.24,789.07,701,791.42,699.67,793.76Z"/><path class="cls-11" d="M697.74,857.39H992.15q-1.9-3.64-3.79-7.29H701.63Q699.7,853.74,697.74,857.39Z"/><rect class="cls-11" x="826.03" y="911.1" width="32.85" height="32.85"/><path class="cls-12" d="M844.64,433.93V786.72H671.12l86.76-176.39Z"/><path class="cls-12" d="M844.64,785.74v64.35H671.12Q686.69,818,702.25,786Z"/><path class="cls-12" d="M844.64,850.05V911.1H671.12L701.28,850Z"/><rect class="cls-12" x="826.03" y="911.1" width="18.62" height="113.42"/><rect class="cls-7" x="543.11" y="858.75" width="25.39" height="113.59"/><polygon class="cls-13" points="557.99 610.3 625.43 747.28 692.87 884.26 557.99 884.26 423.12 884.26 490.55 747.28 557.99 610.3"/><polygon class="cls-13" points="555.71 567.96 607.02 672.19 658.33 776.41 555.71 776.41 453.09 776.41 504.4 672.19 555.71 567.96"/><polygon class="cls-13" points="556.55 531.97 588.34 596.52 620.12 661.07 556.55 661.07 492.99 661.07 524.77 596.52 556.55 531.97"/><path class="cls-11" d="M473.45,781.88H642.27l-2.73-5.47H476Q474.72,779.14,473.45,781.88Z"/><rect class="cls-11" x="543.11" y="884.26" width="25.51" height="21.87"/><path class="cls-12" d="M556.35,532l-3.9,129.08-59.6,0,31.75-64.55Z"/><path class="cls-12" d="M560.13,776.41V884.26h-137q26.43-53.7,52.88-107.41Z"/><rect class="cls-12" x="543.11" y="884.26" width="14.46" height="88.08"/><path class="cls-12" d="M556.55,661.07q-.09,57.67-.2,115.34H453.09l56.78-115.34Z"/><path class="cls-11" d="M507.18,666.54h97.15l-2.65-5.47H509.87C509,662.9,508.08,664.72,507.18,666.54Z"/><rect class="cls-7" x="393.17" y="805.38" width="30.32" height="135.65"/><polygon class="cls-14" points="410.94 508.69 491.47 672.27 572 835.84 410.94 835.84 249.88 835.84 330.41 672.27 410.94 508.69"/><polygon class="cls-14" points="410.94 452.11 491.47 615.69 572 779.26 410.94 779.26 249.88 779.26 330.41 615.69 410.94 452.11"/><polygon class="cls-14" points="410.94 393.36 491.47 556.93 572 720.5 410.94 720.5 249.88 720.5 330.41 556.93 410.94 393.36"/><path class="cls-9" d="M276,727h270.5L543,720.5H279.57C278.38,722.68,277.19,724.86,276,727Z"/><path class="cls-9" d="M274.2,786h273l-3.51-6.76H277.81Z"/><path class="cls-9" d="M410.43,393.36V720.51H249.51L330,556.93Z"/><path class="cls-9" d="M410.43,719.59v59.67H249.51q14.44-29.71,28.88-59.42Z"/><path class="cls-9" d="M410.43,779.23v56.61H249.51l28-56.68Z"/><rect class="cls-9" x="393.17" y="835.84" width="17.26" height="105.18"/><rect class="cls-9" x="399.69" y="829.27" width="17.26" height="30.32" transform="translate(1252.76 436.11) rotate(90)"/><rect class="cls-7" x="1089.57" y="916.81" width="30.32" height="135.65"/><polygon class="cls-10" points="1107.34 620.13 1187.87 783.71 1268.4 947.28 1107.34 947.28 946.28 947.28 1026.81 783.71 1107.34 620.13"/><polygon class="cls-10" points="1104.62 569.57 1165.89 694.03 1227.17 818.49 1104.62 818.49 982.07 818.49 1043.35 694.03 1104.62 569.57"/><polygon class="cls-10" points="1105.63 526.59 1143.58 603.67 1181.53 680.76 1105.63 680.76 1029.72 680.76 1067.68 603.67 1105.63 526.59"/><path class="cls-11" d="M1006.38,825H1208l-3.27-6.53H1009.44Z"/><rect class="cls-11" x="1089.57" y="947.28" width="30.47" height="26.11"/><path class="cls-12" d="M1105.39,526.59q-2.34,77.07-4.67,154.14l-71.17,0,37.92-77.09Z"/><path class="cls-12" d="M1109.89,818.48v128.8H946.28L1009.43,819Z"/><rect class="cls-12" x="1089.57" y="947.28" width="17.26" height="105.18"/><path class="cls-12" d="M1105.63,680.76l-.24,137.72H982.07q33.91-68.85,67.81-137.72Z"/><path class="cls-11" d="M1046.67,687.29h116l-3.16-6.53H1049.88Z"/><g id="förster01"><g class="cls-15"><g class="cls-15"><polygon class="cls-16" points="905.85 1034.97 905.58 1039.28 895.89 1041.7 895.89 1046 922.8 1046 922.8 1034.97 905.85 1034.97"/><polygon class="cls-16" points="941.59 1034.97 941.59 1046 968.49 1046 968.49 1041.7 958.8 1039.28 958.54 1034.97 941.59 1034.97"/><rect class="cls-17" x="903.97" y="1026.9" width="20.79" height="8.07"/><rect class="cls-17" x="939.87" y="1026.9" width="20.79" height="8.07"/><rect class="cls-18" x="901.64" y="963.67" width="60.97" height="9.56"/><polygon class="cls-19" points="905.9 983.34 905.9 1026.9 922.8 1026.9 922.8 983.34 941.59 983.34 941.59 1026.9 958.35 1026.9 958.35 983.34 962.61 983.34 962.61 973.24 952.22 973.24 952.25 963.67 949.3 963.67 949.34 973.24 914.56 973.24 914.56 963.67 911.79 963.67 911.84 973.24 901.64 973.24 901.64 983.34 905.9 983.34"/><polygon class="cls-20" points="903.26 894.71 932.28 914.12 960.66 894.71 960.66 902.09 993.29 941.57 980.07 970.52 962.61 960.48 973.38 939.06 961.16 922.66 932.28 922.66 905.77 922.66 896.39 951.94 880 958.3 866.44 918.47 887.36 913.95 889.7 925 901.64 904.92 903.76 904.75 903.26 894.71"/><polygon class="cls-21" points="897.23 963.67 961.77 963.67 962.61 960.48 965.78 954.17 962.61 901.07 932.28 916.97 901.64 901.07 897.23 963.67"/><g class="cls-15"><path class="cls-16" d="M905.85,922.66h16.77s3,17.74-7.78,17.74-9-17.74-9-17.74"/><path class="cls-16" d="M941.49,922.66h16.78s3,17.74-7.79,17.74-9-17.74-9-17.74"/><path class="cls-22" d="M906.27,896.72l26,17.4,26.28-18V833s-14,5.33-24.78,5.94-23.31.43-27.51-1Z"/><polygon class="cls-23" points="920.89 906.5 943.42 906.5 932.28 914.12 920.89 906.5"/><path class="cls-24" d="M906.27,863.58c-.94,1.72-6.44,12.17-2.07,23.16,6.25,15.74,26.33,16.46,27.59,16.49,9.4.19,25.46-3.2,28.91-16.37.9-3.45,2.57-14.91-2.14-23.28l-6.71,8.73c-4.35-4.1-8-5.16-10.64-5.33a44.74,44.74,0,0,0-9.06.85,19.93,19.93,0,0,0-19.22,3.63Z"/><path class="cls-25" d="M926.85,875.23a7.19,7.19,0,0,0,3.33-1.85,6.87,6.87,0,0,0,1.35-1.92h1.21a10.22,10.22,0,0,0,1.82,2,10.7,10.7,0,0,0,3.2,1.8,15,15,0,0,1-10.91,0"/><path class="cls-26" d="M906.27,854.35H901.1c-1.8.41-4.12,1.43-4.32,4.81s1.38,4.89,2.77,5.55h6.72Z"/><path class="cls-26" d="M958.56,854.35h5.17c1.8.41,4.12,1.43,4.32,4.81s-1.38,4.89-2.77,5.55h-6.72Z"/><path class="cls-24" d="M906.27,838a17.14,17.14,0,0,0,3.71.94c33.79,3.63,55.49-8.06,57.61-10.05.44-.41,1.56-1.34,1.39-2.16-.08-.44-.64-.79-1.55-1.05-2.29-.66-4.18-.54-10.32-.84,0,0,4.85-1.39,5.62-3.34s-11.45-5-27.8-4.33-26.33,4.77-29,8.48a15.29,15.29,0,0,0-2.78,8.73c-.12,1.51-3,3.54-2.93,8.56s.9,11.41.9,11.41h5.17Z"/><polygon class="cls-27" points="858.63 909.57 903.38 897.11 903.63 902.1 901.64 901.07 901.29 906 860.71 917.22 858.63 909.57"/><polygon class="cls-22" points="867.5 918.24 867.5 915.34 871.93 914.11 867.37 907.14 865.36 907.7 865.36 903.92 885.14 898.94 888.29 911.07 885.22 911.4 885.01 914.46 867.5 918.24"/><path class="cls-27" d="M961.46,882.47a21.92,21.92,0,0,1-.65,3.93,22.62,22.62,0,0,1-1.6,4.3l35.32-9.36-2.12-7.76Z"/><path class="cls-28" d="M988.42,871.88,969.5,877l4.73,15.24s1.75,5.38.16,9.46a36.35,36.35,0,0,1-4.89,8.15c.82.63,10.08,7.39,21.26,3.69a23.74,23.74,0,0,0,13.72-12.49s-4.85.37-8.4-4.89-3.1-5.18-4-7.5Z"/><path class="cls-29" d="M1001.43,900.53a8,8,0,0,0,3.05.54,23.74,23.74,0,0,1-13.72,12.49c-11.18,3.7-20.44-3.06-21.26-3.69,0,0,.48-.59,1.17-1.55A25.54,25.54,0,0,0,983,910.54a26.29,26.29,0,0,0,14.88-6.22,25,25,0,0,0,3.55-3.79"/><polygon class="cls-22" points="962.61 960.48 958.98 974.28 974.07 978.2 978.68 969.72 962.61 960.48"/><g class="cls-30"><g class="cls-31"><rect class="cls-32" x="922.67" y="959.85" width="19.49" height="16.47"/></g></g><line class="cls-33" x1="918.79" y1="846.56" x2="926.46" y2="846.56"/><line class="cls-33" x1="938.37" y1="846.57" x2="946.04" y2="846.57"/><path class="cls-34" d="M922.62,852.53c-.66,0-2.13.9-1.91,3.62s1.22,3,1.91,3,1.92-1.12,1.92-3.33-1.26-3.32-1.92-3.32"/><path class="cls-34" d="M942,852.53c-.66,0-2.13.9-1.92,3.62s1.22,3,1.92,3,1.91-1.12,1.91-3.33-1.25-3.32-1.91-3.32"/><g class="cls-35"><g class="cls-36"><polygon class="cls-37" points="897.23 963.67 922.67 963.67 922.67 959.85 932.28 959.85 932.28 916.97 901.64 901.07 897.23 963.67"/></g></g><g class="cls-35"><g class="cls-38"><polygon class="cls-39" points="889.7 925 896.39 951.94 898.53 945.28 901.33 905.43 889.7 925"/></g></g></g></g></g></g><rect class="cls-7" x="747.88" y="870.8" width="30.32" height="135.65"/><polygon class="cls-40" points="767.71 543.15 791.17 549.72 815.54 549.72 836.36 562.38 859.82 568.96 876.45 586.77 897.27 599.43 908.48 621.06 925.11 638.87 930.07 662.73 941.28 684.36 939.62 708.67 944.57 732.52 936.41 755.49 934.75 779.79 920.7 799.7 912.54 822.66 893.64 838.04 879.59 857.94 857.24 867.65 838.34 883.03 814.2 886.35 791.85 896.05 767.71 892.74 743.57 896.05 721.22 886.35 697.08 883.03 678.18 867.65 655.83 857.94 641.78 838.04 622.88 822.66 614.72 799.7 600.67 779.79 599 755.49 590.84 732.52 595.8 708.67 594.14 684.36 605.35 662.73 610.31 638.87 626.94 621.06 638.15 599.43 658.97 586.77 675.6 568.96 699.06 562.38 719.88 549.72 744.25 549.72 767.71 543.15"/><g id="Shadows"><path class="cls-12" d="M762.24,1006.45H747.88V895l14.75-1.9Z"/><path class="cls-12" d="M761.46,893.49l-18.6,2.56-22.24-9.7-24-3.32-18.81-15.38-22.25-9.71-14-19.9-18.81-15.38-8.12-23-14-19.91L599,755.48l-8.13-23,4.94-23.86-1.66-24.31,11.16-21.63,4.94-23.86,16.55-17.81,11.16-21.63,20.72-12.66L675.21,569l23.35-6.58,20.72-12.66h24.26l16.34-4.6Q760.68,719.3,761.46,893.49Z"/><path class="cls-12" d="M778.2,900.28,766,897.64l-18.13,4.27V895l20.31-2.77,10,1.38Z"/></g><g id="woodstack"><g class="cls-41"><g class="cls-41"><g class="cls-42"><path class="cls-43" d="M1145.2,1057q154.92-.36,309.79,1.85,82.23,1.17,164.47,3.07l-1.38,16.92s-144.71-.16-233-2.15c-52.39-1.17-238.79.13-238.79.13q-.54-9.91-1.07-19.82"/><path class="cls-43" d="M1151.91,1032.48q134.67-7.65,269-3.85c2.9.08,23.69,1.09,51.82,1.89,22.8.64,48.68,1.35,78.57,1,13.88-.17,34.45-.64,59.73-2.08l-.81,34.3s-143-.46-235.27-2.45c-54.72-1.17-220.28,2.45-220.28,2.45q-1.39-15.63-2.78-31.25"/><path class="cls-43" d="M1157.64,1013.45c79.26-9,143.29-8.55,188.21-6.22,39,2,62.13,7.4,108.79,6.47,37.17-.75,129.62-4.33,144.95-5.48l.47,22.4c-29,1.79-72.7,3.94-126.17,4.29-59.49.39-89.39-1.74-143.7-2.44-40.76-.53-99.36-.31-171.25,3.43q-.64-11.22-1.3-22.45"/><path class="cls-43" d="M1168.94,994.35c15.52,1.41,105.54,3.07,185,5,30.68.76,114.82.63,127.42.37,35.57-.73,94.51-1.67,109.19-2.8v15.52c-27.71,1.76-69.59,3.86-120.79,4.2-56.33.38-88.8-6.84-141.3-7.59-39-.55-91.08,4.74-159.57,8Z"/><path class="cls-43" d="M1175.55,983c23.7,0,60,.14,104.51.35,96,.45,123.79,1,170.7.5,31.75-.32,77.73-1.15,133.87-3.49q-.32,10.39-.64,20.78c-25.35,1.86-66.28,4.24-117,4.19-62.31-.05-90.48-3.71-149.41-4.38-32.52-.37-81.43.08-142,4.76Z"/><g class="cls-35"><g class="cls-44"><path class="cls-45" d="M1146.34,1065.81q146.88-.21,293.68,2.47,89.54,1.63,179.07,4.36l-.4,4.94s-144.72-.16-233-2.15c-52.38-1.18-238.79.13-238.79.13-.18-3.25-.35-6.5-.53-9.75"/></g></g><g class="cls-35"><g class="cls-46"><path class="cls-45" d="M1154,1044.92c89.59-1.44,178-1.81,267.58-1.7,25.87,0,46.22.12,53.34.16,58.65.34,105.93,1.13,136.17,1.73-.06,3.12-.11,6.25-.14,9.41,0,2.07,0,4.13-.05,6.18q-116.6-2.67-233.2-3.9-111.44-1.17-222.87-1Z"/></g></g><g class="cls-35"><g class="cls-47"><path class="cls-45" d="M1158.77,1021.2c16.56.58,42.2,1.27,73.62,1.2,58.7-.14,78.89-2.85,133.37-3,43.52-.11,45.51,1.63,97.55,2.49,34.67.58,81.37.6,137.16-1.62l.18,8.48c-77.34,1.54-110.43,1.46-124.77.92-2.16-.08-13.92-.55-29.92-.86-7.18-.15-15.35-.26-24.36-.3-10.24,0-14.79,0-41.51.16-21.78.1-32.59.11-45.19.15-21.81.07-68.17.49-175.57,2q-.28-4.81-.56-9.65"/></g></g><g class="cls-35"><g class="cls-48"><path class="cls-45" d="M1169.56,1001c78-1.09,140.93.22,185,1.68,39.74,1.33,73.08,3.08,123.4,2.5,47.76-.56,87-2.93,113.21-4.92q0,3.59,0,7.17c-26.62,1.68-66.64,3.66-115.44,3.86-61.24.24-91.39-2.5-146.63-3.43-38.2-.64-92.77-.5-159.49,3.43l-.06-10.29"/></g></g><g class="cls-35"><g class="cls-49"><path class="cls-45" d="M1176.15,988.53c23.7.05,60,.14,104.52.35,95.95.45,123.74,1,170.69.5,31.73-.32,77.64-1.15,133.66-3.48-.1,3.39-.2,6.79-.31,10.18-51.92,2.41-94.51,2.08-124.34,1.28-64.76-1.72-93.09-6.26-159-5.92-7.2,0-36.67.24-74.74.94-21.29.4-38.81.83-50.5,1.14Z"/></g></g></g></g></g></g><g id="woodstack-2" data-name="woodstack"><g class="cls-50"><g class="cls-50"><g class="cls-51"><path class="cls-43" d="M1145.2,1007.75q154.92-.36,309.79,1.85,82.23,1.17,164.47,3.07l-1.38,16.92s-144.71-.16-233-2.15c-52.39-1.18-238.79.13-238.79.13q-.54-9.91-1.07-19.82"/><path class="cls-43" d="M1151.91,983.24q134.67-7.65,269-3.86c2.9.09,23.69,1.1,51.82,1.89,22.8.65,48.68,1.36,78.57,1,13.88-.17,34.45-.64,59.73-2.08l-.81,34.3s-143-.46-235.27-2.45c-54.72-1.18-220.28,2.45-220.28,2.45q-1.39-15.63-2.78-31.25"/><path class="cls-43" d="M1157.64,964.21A1136.77,1136.77,0,0,1,1345.85,958c39,2,62.13,7.41,108.79,6.47,37.17-.74,129.62-4.32,144.95-5.47l.47,22.39c-29,1.8-72.7,4-126.17,4.3-59.49.39-89.39-1.74-143.7-2.44-40.76-.53-99.36-.31-171.25,3.43q-.64-11.22-1.3-22.45"/><path class="cls-43" d="M1168.94,945.11c15.52,1.41,105.54,3.06,185,5,30.68.76,114.82.63,127.42.37,35.57-.73,94.51-1.67,109.19-2.8v15.52c-27.71,1.76-69.59,3.86-120.79,4.2-56.33.38-88.8-6.84-141.3-7.59-39-.55-91.08,4.74-159.57,8Z"/><path class="cls-43" d="M1175.55,933.75c23.7,0,60,.14,104.51.35,96,.45,123.79,1,170.7.49,31.75-.31,77.73-1.14,133.87-3.48q-.32,10.39-.64,20.78c-25.35,1.86-66.28,4.23-117,4.19-62.31-.05-90.48-3.71-149.41-4.38-32.52-.37-81.43.08-142,4.76Z"/><g class="cls-35"><g class="cls-52"><path class="cls-45" d="M1146.34,1016.57q146.88-.21,293.68,2.47,89.54,1.63,179.07,4.35l-.4,4.95s-144.72-.16-233-2.15c-52.38-1.18-238.79.13-238.79.13-.18-3.25-.35-6.5-.53-9.75"/></g></g><g class="cls-35"><g class="cls-53"><path class="cls-45" d="M1154,995.68c89.59-1.44,178-1.82,267.58-1.7,25.87,0,46.22.12,53.34.16,58.65.34,105.93,1.13,136.17,1.73q-.09,4.67-.14,9.41c0,2.07,0,4.13-.05,6.18q-116.6-2.69-233.2-3.9-111.44-1.17-222.87-1Z"/></g></g><g class="cls-35"><g class="cls-54"><path class="cls-45" d="M1158.77,972c16.56.58,42.2,1.27,73.62,1.2,58.7-.14,78.89-2.85,133.37-3,43.52-.11,45.51,1.62,97.55,2.49,34.67.57,81.37.6,137.16-1.62l.18,8.48c-77.34,1.54-110.43,1.46-124.77.92-2.16-.08-13.92-.55-29.92-.87-7.18-.14-15.35-.25-24.36-.29-10.24,0-14.79,0-41.51.16-21.78.1-32.59.11-45.19.15-21.81.07-68.17.49-175.57,2-.19-3.22-.38-6.43-.56-9.65"/></g></g><g class="cls-35"><g class="cls-55"><path class="cls-45" d="M1169.56,951.73c78-1.08,140.93.23,185,1.69,39.74,1.33,73.08,3.08,123.4,2.49,47.76-.55,87-2.92,113.21-4.91q0,3.59,0,7.17c-26.62,1.68-66.64,3.66-115.44,3.85-61.24.25-91.39-2.49-146.63-3.42-38.2-.64-92.77-.5-159.49,3.42l-.06-10.29"/></g></g><g class="cls-35"><g class="cls-56"><path class="cls-45" d="M1176.15,939.29c23.7.05,60,.14,104.52.35,95.95.45,123.74,1,170.69.5,31.73-.32,77.64-1.15,133.66-3.48-.1,3.39-.2,6.79-.31,10.18-51.92,2.41-94.51,2.08-124.34,1.28-64.76-1.72-93.09-6.26-159-5.93-7.2,0-36.67.25-74.74.95-21.29.4-38.81.83-50.5,1.14Z"/></g></g></g></g></g></g><path class="cls-10" d="M0,781.19l16.73-31.12q1.72,20.74,3.46,41.49l17.29-22.47,8.64,32.84,15.56-41.49,3,26q1.09,9.45,2.18,18.9l10.38,17.28Q87.61,808,98,793.29q-1.73,18.15-3.46,36.3l27.66-27.66,5.19,45,19-25.93q3.47,17.28,6.92,34.57l15.55-32.85,10.38,38,36.3-50.14q-1.72,27.66-3.46,55.32l19-24.2v31.12l20.74-12.1,6.92,27.65q3.45-23.33,6.91-46.67l15.56,53.59,12.1-24.2q3.45,14.68,6.91,29.39l3.78-7.09,10.05-18.85,5.19,29.39q7.77-13.83,15.56-27.66l15.55,51.86,10.38-27.65,15.55,36.3,13.83-29.39q6.06,17.28,12.1,34.57c.87-2.59,1.73-5.18,2.6-7.78l13-38.89q4.32,21.6,8.65,43.22l13.83-25.93,3.45,48.4,20.75-22.47q3.45,9.5,6.91,19l22.47-24.2L499,976.53q8.64-13.83,17.29-27.66,5.17,11.24,10.37,22.47,8.64-16.43,17.29-32.84l13.83,32.84q6.9-11.24,13.82-22.47l12.11,36.3q2.71-5.25,5.44-10.5l18.76-36.17q-.87,21.6-1.73,43.21l22.47-24.2,5.19,32.85,24.2-32.85-5.19,39.76,27.66-25.93,10.37,34.57c.05-.48.09-1,.14-1.44q2.52-26.94,5.05-53.87,12.1,25.92,24.2,51.86L732.4,980,748,1007.64l15.56-25.93,48.4,38,13.83-29.38,10.37,31.11q6-13,12.1-25.93l20.75,36.3,19-25.93q-.87,19-1.73,38L907,993.81q5.18,19.89,10.37,39.76l12.1-22.47q8.64,10.36,17.29,20.74l3.45-48.4q8.71,22.06,17.42,44.12l8.51,21.57,19-31.12,19,22.48,10.38-39.76,13.83,41.49,13.82-19,13.83,24.2s3.91-5.69,3.94-5.72c.35-.52,14.72-21.42,15.08-21.94q.87,14.7,1.73,29.39l31.11-27.66q4.32,13.83,8.65,27.66l13.83-29.39q9.5,10.38,19,20.75,3.46-13.83,6.92-27.66l20.74,32.84q5.19-8.64,10.37-17.28l20.6,20.74V1080H0Z"/><path class="cls-10" d="M1218,1049.13l30.86-29q8.36,11.82,16.7,23.66l13.92-19.49q4.18,18.11,8.36,36.19l15.31-23.66q2.77,21.57,5.57,43.13l30.62-39q4.17,11.82,8.35,23.66l13.92-8.35,9.75,23.64,51.5-29.21q8.36,14.61,16.7,29.21l16.71-19.47,7,19.47,25-9.72V1080H1218Z"/></g></g></svg>