<svg xmlns="http://www.w3.org/2000/svg" xmlns:xlink="http://www.w3.org/1999/xlink" viewBox="0 0 1920 1080"><defs><style>.cls-1{filter:url(#luminosity-noclip);}.cls-2{isolation:isolate;}.cls-3{fill:none;}.cls-18,.cls-4,.cls-5,.cls-6{fill:#a0a0a0;}.cls-5{opacity:0.46;}.cls-11,.cls-12,.cls-17,.cls-18,.cls-20,.cls-5,.cls-6,.cls-9{mix-blend-mode:multiply;}.cls-7{fill:#5e4d31;}.cls-8,.cls-9{fill:#59916f;}.cls-10{fill:#34a35f;}.cls-11{fill:#a8a8a8;}.cls-12{fill:#969696;}.cls-13{fill:#3a5e48;}.cls-14{fill:#46dd81;}.cls-15{fill:#89ddaa;}.cls-16{fill:#a47a43;}.cls-17{fill:#a3a3a3;opacity:0.49;}.cls-18{opacity:0.61;}.cls-19,.cls-20{fill:#a5aaae;}.cls-21{fill:#f4982a;}.cls-22{fill:#ce2d17;}.cls-23{fill:#9b1f1f;}.cls-24{mask:url(#mask);}</style><filter id="luminosity-noclip" x="0" y="750.07" width="1218.01" height="329.93" filterUnits="userSpaceOnUse" color-interpolation-filters="sRGB"><feFlood flood-color="#fff" result="bg"/><feBlend in="SourceGraphic" in2="bg"/></filter><mask id="mask" x="0" y="750.07" width="1218.01" height="329.93" maskUnits="userSpaceOnUse"><path class="cls-1" d="M963.88,1015.63l-13.07,23.09,27.24,1.31Q971,1027.84,963.88,1015.63Z"/></mask></defs><title>Forest03</title><g class="cls-2"><g id="Layer_1" data-name="Layer 1"><g id="invisibleframe"><rect class="cls-3" width="1920" height="1080"/></g><path class="cls-4" d="M109,867.51l40.82-34.38q-10.2-26.86-20.41-53.71-8.82-47.28-17.65-94.55L85.69,634.61q4.61-39.43,9.2-78.87l-21-55.21,27.6-30.23-42.06-67q-5.25-25-10.51-49.95-8.14-21.37-16.28-42.75l-.81-54.52L13.59,214.48,0,202.16V827.29Z"/><path class="cls-5" d="M66.46,549.13q-8.29-25.2-16.6-50.4l21.79-27.6Q55,440.53,38.46,409.93l14,65.44L37.13,510.93q-6,34.94-12.08,69.86l19.76,19.05,15.37,7.62Q63.33,578.29,66.46,549.13Z"/><path class="cls-5" d="M.53,298.36,17.22,265,0,239.27V331l11.66,3.5Z"/><path class="cls-5" d="M101.64,844.94Q97.47,806,93.29,767l-4.17-77.91-7-40.35q-2.77,33.39-5.56,66.78l-32,37.57L14,831Z"/><path class="cls-5" d="M9.73,748.14l15.69-72L49.3,707.48Q66,669.33,82.61,631.21q-22.2,19.21-44.39,38.44l-12.8,6.46L7.68,698.67,0,717.38v32.16Z"/><path class="cls-4" d="M370.47,952.24q13.09-29,26.2-58-9.36-16.83-18.71-33.68l-33.68-18.71L318.09,877.4q1.86,22.46,3.74,44.91Z"/><path class="cls-6" d="M358,944.57l22.74-50.33q-9.36-16.83-18.71-33.68l-22.39-12.43L318.09,877.4q1.86,22.46,3.74,44.91Z"/><path class="cls-4" d="M322.11,904q.76-13.74,1.54-27.47-6.57-10.68-13.15-21.37l-22.19-9.86L271.09,861.4Q276,877.2,280.91,893Z"/><path class="cls-6" d="M315.43,902q.49-8.94,1-17.86L303.25,862.8l-22.2-9.87-10,8.47Q276,877.2,280.91,893Z"/><path class="cls-4" d="M324.76,868.31,333.83,856q.38-6.76.74-13.53l-6.95-9-15.81,2.09q-1.59,8.67-3.19,17.33Z"/><path class="cls-6" d="M322.21,865l4.12-8.1q1.51-6.85,3-13.73l-6.4-7.36-11.13-.28q-1.59,8.67-3.19,17.33Z"/><rect class="cls-7" x="1027.79" y="905.68" width="31.05" height="138.91"/><polygon class="cls-8" points="1048.1 570.16 1072.13 576.89 1097.08 576.89 1118.4 589.85 1142.42 596.58 1159.45 614.82 1180.77 627.78 1192.25 649.94 1209.28 668.17 1214.36 692.6 1225.84 714.76 1224.14 739.65 1229.21 764.08 1220.86 787.59 1219.15 812.49 1204.77 832.87 1196.41 856.38 1177.05 872.13 1162.66 892.51 1139.78 902.45 1120.42 918.2 1095.7 921.6 1072.82 931.54 1048.1 928.14 1023.38 931.54 1000.49 921.6 975.77 918.2 956.42 902.45 933.53 892.51 919.14 872.13 899.79 856.38 891.43 832.87 877.04 812.49 875.34 787.59 866.99 764.08 872.06 739.65 870.36 714.76 881.84 692.6 886.92 668.17 903.95 649.94 915.43 627.78 936.75 614.82 953.78 596.58 977.8 589.85 999.12 576.89 1024.07 576.89 1048.1 570.16"/><path class="cls-9" d="M1042.5,1044.58h-14.71V930.46l15.11-2Q1042.71,986.55,1042.5,1044.58Z"/><path class="cls-9" d="M1041.7,928.91l-19,2.63-22.78-9.94-24.61-3.4L956,902.45l-22.78-9.94L918.9,872.13l-19.26-15.75-8.32-23.51L877,812.49l-1.7-24.9L867,764.08l5-24.43-1.7-24.89,11.43-22.16,5.05-24.43,17-18.23,11.42-22.16,21.22-13,17-18.24,23.91-6.73,21.22-13h24.84l16.73-4.71Z"/><path class="cls-9" d="M1058.84,935.87l-12.48-2.71-18.57,4.37v-7.07l20.8-2.83,10.25,1.4Z"/><rect class="cls-7" x="826.03" y="878.25" width="32.7" height="146.28"/><polygon class="cls-10" points="845.19 558.31 932.03 734.71 1018.88 911.1 845.19 911.1 671.51 911.1 758.35 734.71 845.19 558.31"/><polygon class="cls-10" points="845.19 497.3 932.03 673.69 1018.88 850.09 845.19 850.09 671.51 850.09 758.35 673.69 845.19 497.3"/><polygon class="cls-10" points="845.19 433.93 932.03 610.33 1018.88 786.72 845.19 786.72 671.51 786.72 758.35 610.33 845.19 433.93"/><path class="cls-11" d="M699.67,793.76H991.36l-3.75-7H703.53C702.24,789.07,701,791.42,699.67,793.76Z"/><path class="cls-11" d="M697.74,857.39H992.15q-1.9-3.64-3.79-7.29H701.63Q699.7,853.74,697.74,857.39Z"/><rect class="cls-11" x="826.03" y="911.1" width="32.85" height="32.85"/><path class="cls-12" d="M844.64,433.93V786.72H671.12l86.76-176.39Z"/><path class="cls-12" d="M844.64,785.74v64.35H671.12Q686.69,818,702.25,786Z"/><path class="cls-12" d="M844.64,850.05V911.1H671.12L701.28,850Z"/><rect class="cls-12" x="826.03" y="911.1" width="18.62" height="113.42"/><rect class="cls-7" x="543.11" y="858.75" width="25.39" height="113.59"/><polygon class="cls-13" points="557.99 610.3 625.43 747.28 692.87 884.26 557.99 884.26 423.12 884.26 490.55 747.28 557.99 610.3"/><polygon class="cls-13" points="555.71 567.96 607.02 672.19 658.33 776.41 555.71 776.41 453.09 776.41 504.4 672.19 555.71 567.96"/><polygon class="cls-13" points="556.55 531.97 588.34 596.52 620.12 661.07 556.55 661.07 492.99 661.07 524.77 596.52 556.55 531.97"/><path class="cls-11" d="M473.45,781.88H642.27l-2.73-5.47H476Q474.72,779.14,473.45,781.88Z"/><rect class="cls-11" x="543.11" y="884.26" width="25.51" height="21.87"/><path class="cls-12" d="M556.35,532l-3.9,129.08-59.6,0,31.75-64.55Z"/><path class="cls-12" d="M560.13,776.41V884.26h-137q26.43-53.7,52.88-107.41Z"/><rect class="cls-12" x="543.11" y="884.26" width="14.46" height="88.08"/><path class="cls-12" d="M556.55,661.07q-.09,57.67-.2,115.34H453.09l56.78-115.34Z"/><path class="cls-11" d="M507.18,666.54h97.15l-2.65-5.47H509.87C509,662.9,508.08,664.72,507.18,666.54Z"/><rect class="cls-7" x="393.17" y="805.38" width="30.32" height="135.65"/><polygon class="cls-14" points="410.94 508.69 491.47 672.27 572 835.84 410.94 835.84 249.88 835.84 330.41 672.27 410.94 508.69"/><polygon class="cls-14" points="410.94 452.11 491.47 615.69 572 779.26 410.94 779.26 249.88 779.26 330.41 615.69 410.94 452.11"/><polygon class="cls-14" points="410.94 393.36 491.47 556.93 572 720.5 410.94 720.5 249.88 720.5 330.41 556.93 410.94 393.36"/><path class="cls-9" d="M276,727h270.5L543,720.5H279.57C278.38,722.68,277.19,724.86,276,727Z"/><path class="cls-9" d="M274.2,786h273l-3.51-6.76H277.81Z"/><path class="cls-9" d="M410.43,393.36V720.51H249.51L330,556.93Z"/><path class="cls-9" d="M410.43,719.59v59.67H249.51q14.44-29.71,28.88-59.42Z"/><path class="cls-9" d="M410.43,779.23v56.61H249.51l28-56.68Z"/><rect class="cls-9" x="393.17" y="835.84" width="17.26" height="105.18"/><rect class="cls-9" x="399.69" y="829.27" width="17.26" height="30.32" transform="translate(1252.76 436.11) rotate(90)"/><rect class="cls-7" x="1089.57" y="916.81" width="30.32" height="135.65"/><polygon class="cls-10" points="1107.34 620.13 1187.87 783.71 1268.4 947.28 1107.34 947.28 946.28 947.28 1026.81 783.71 1107.34 620.13"/><polygon class="cls-10" points="1104.62 569.57 1165.89 694.03 1227.17 818.49 1104.62 818.49 982.07 818.49 1043.35 694.03 1104.62 569.57"/><polygon class="cls-10" points="1105.63 526.59 1143.58 603.67 1181.53 680.76 1105.63 680.76 1029.72 680.76 1067.68 603.67 1105.63 526.59"/><path class="cls-11" d="M1006.38,825H1208l-3.27-6.53H1009.44Z"/><rect class="cls-11" x="1089.57" y="947.28" width="30.47" height="26.11"/><path class="cls-12" d="M1105.39,526.59q-2.34,77.07-4.67,154.14l-71.17,0,37.92-77.09Z"/><path class="cls-12" d="M1109.89,818.48v128.8H946.28L1009.43,819Z"/><rect class="cls-12" x="1089.57" y="947.28" width="17.26" height="105.18"/><path class="cls-12" d="M1105.63,680.76l-.24,137.72H982.07q33.91-68.85,67.81-137.72Z"/><path class="cls-11" d="M1046.67,687.29h116l-3.16-6.53H1049.88Z"/><rect class="cls-7" x="747.88" y="870.8" width="30.32" height="135.65"/><polygon class="cls-15" points="767.71 543.15 791.17 549.72 815.54 549.72 836.36 562.38 859.82 568.96 876.45 586.77 897.27 599.43 908.48 621.06 925.11 638.87 930.07 662.73 941.28 684.36 939.62 708.67 944.57 732.52 936.41 755.49 934.75 779.79 920.7 799.7 912.54 822.66 893.64 838.04 879.59 857.94 857.24 867.65 838.34 883.03 814.2 886.35 791.85 896.05 767.71 892.74 743.57 896.05 721.22 886.35 697.08 883.03 678.18 867.65 655.83 857.94 641.78 838.04 622.88 822.66 614.72 799.7 600.67 779.79 599 755.49 590.84 732.52 595.8 708.67 594.14 684.36 605.35 662.73 610.31 638.87 626.94 621.06 638.15 599.43 658.97 586.77 675.6 568.96 699.06 562.38 719.88 549.72 744.25 549.72 767.71 543.15"/><g id="Shadows"><path class="cls-12" d="M762.24,1006.45H747.88V895l14.75-1.9Z"/><path class="cls-12" d="M761.46,893.49l-18.6,2.56-22.24-9.7-24-3.32-18.81-15.38-22.25-9.71-14-19.9-18.81-15.38-8.12-23-14-19.91L599,755.48l-8.13-23,4.94-23.86-1.66-24.31,11.16-21.63,4.94-23.86,16.55-17.81,11.16-21.63,20.72-12.66L675.21,569l23.35-6.58,20.72-12.66h24.26l16.34-4.6Q760.68,719.3,761.46,893.49Z"/><path class="cls-12" d="M778.2,900.28,766,897.64l-18.13,4.27V895l20.31-2.77,10,1.38Z"/></g><path class="cls-16" d="M483.13,854.26c.08-.83.28-1.43.49-1.43s.43.5.59,1.17c.74,1,2.24,6,4.49,7.12a14.33,14.33,0,0,0,9.33,1.16q13.73-1.1,28.34-1.63c17.75-.62,32.13.62,48.19.09,5.09-.17,7.36-3.25,8.58-7.8,4.28-16,9-28.16,12.94-44.3l3.06-9.52-.67.07-5.71-.89-5.36-2.24-4.64-3.44-3.61-4.42-2.32-5.09-.89-5.4.61-5.37L606,784.64a15.65,15.65,0,0,1,18.54-1.4l3.72,1.82,24.37-16.88,1.72,5.12.25,5.47-1.21,5.46-2.61,5.07-3.82,4.34-.48.33,7.24,3.54,13.88,8.8c9.11,5.77,4.79,19.22-6.17,19.23l-18.87,0-14.83-.3-2.11,48.39a49.13,49.13,0,0,1-3.4,24.5c-.6,1.39-1.24,2.71-1.92,3.94l-.06.72v92.3a1.11,1.11,0,0,1-1.11,1.11H606.27a6.73,6.73,0,0,1-6.73-6.73V919.25c-1.68.78-3.23,1.41-4.56,1.92v73.94a1.11,1.11,0,0,1-1.1,1.11H581.05a6.73,6.73,0,0,1-6.73-6.73V925.05c-9.38-.08-22.18-1.91-44.08-5.22v75.28a1.11,1.11,0,0,1-1.1,1.11H516.31a6.73,6.73,0,0,1-6.73-6.73V916.71l-4.95-.75v79.15a1.11,1.11,0,0,1-1.1,1.11H490.7a6.74,6.74,0,0,1-6.73-6.73V902.81a.88.88,0,0,1,.06-.27c-.32-5-.59-10-.8-15.18s-.35-10.42-.43-15.5V869.4C483,865.5,483,858.17,483.13,854.26Z"/><path id="Shadow" class="cls-17" d="M646.44,794c1.46-1.56,2.92-3.11,4.37-4.67l2.61-5.07,1.22-5.46-.26-5.47-1.72-5.12L628.35,785Z"/><path id="Shadow-2" data-name="Shadow" class="cls-17" d="M620.26,902.09q0,46.38,0,92.76a1.24,1.24,0,0,1-.33,1,1.22,1.22,0,0,1-.8.35H606.27a7,7,0,0,1-5.15-2.38,6.87,6.87,0,0,1-1.56-4.62v-70a74.91,74.91,0,0,0,20.7-17.14Z"/><path d="M504.59,988.1c.06,3.7,0,6.42,0,7a1.21,1.21,0,0,1-.32.78,1.11,1.11,0,0,1-.78.33H490.64a6.94,6.94,0,0,1-6.74-6.73c0-.58,0-1.06,0-1.39Z"/><path d="M595,988.1c.06,3.7,0,6.42,0,7a1.21,1.21,0,0,1-.32.78,1.11,1.11,0,0,1-.78.33H581.07a6.92,6.92,0,0,1-6.73-6.73c0-.58,0-1.06,0-1.39Z"/><path d="M620.24,988.1c.06,3.7,0,6.42,0,7a1.21,1.21,0,0,1-.32.78,1.1,1.1,0,0,1-.78.33H606.29a6.94,6.94,0,0,1-6.74-6.73c0-.58,0-1.06,0-1.39Z"/><path d="M530.25,988.1c.06,3.7,0,6.42,0,7a1.21,1.21,0,0,1-.32.78,1.11,1.11,0,0,1-.78.33H516.29a6.92,6.92,0,0,1-6.73-6.73c0-.58,0-1.06,0-1.39Z"/><path id="Shadow-3" data-name="Shadow" class="cls-17" d="M530.24,919.83v75a1.24,1.24,0,0,1-.33,1,1.22,1.22,0,0,1-.8.35H516.29a6.68,6.68,0,0,1-6.71-7V916.71l10.18,1.52Z"/><path class="cls-18" d="M627.69,825.26c-4.24-.29-7.64-.42-10-.49l-7.07-.19c-4.11-.06-4.28,0-5.11-.2-4.43-1.23-6.18-5.69-6.88-5.31s-.05,3.89,2.36,6.49c1.26,1.36,2.52,1.89,7.67,3.73,6.19,2.21,9,3.14,9,3.15l9.57,3.13Z"/><circle cx="621.95" cy="796.37" r="2.4"/><rect class="cls-19" x="975.34" y="1036.34" width="4.96" height="11.52" rx="2.48"/><rect id="Shadow-4" data-name="Shadow" class="cls-20" x="975.34" y="1036.34" width="4.96" height="11.52" rx="2.48"/><rect class="cls-19" x="982.44" y="1036.34" width="4.96" height="11.52" rx="2.48"/><rect class="cls-19" x="1013.29" y="1036.34" width="4.96" height="11.52" rx="2.48"/><rect id="Shadow-5" data-name="Shadow" class="cls-20" x="1013.29" y="1036.34" width="4.96" height="11.52" rx="2.48"/><rect class="cls-19" x="1020.02" y="1036.34" width="4.96" height="11.52" rx="2.48"/><path class="cls-19" d="M1018.25,1039.64l-34.56.21-32,.2a1.53,1.53,0,0,1-1.07-2.38L966.28,1012l17.15-28.08,17.41,27.87Z"/><path d="M954.75,1002.48a3.89,3.89,0,0,1,1-3.57l2.82-2.91,2-3.32,3.55-2.39,2.82-2.92,4.12-1.76,3.55-2.39,4.51-1.05,4.12-1.76,4.71-.3,4.51-1.06,4.7.47,4.71-.3,4.48,1.22,4.7.46,4.07,1.91,4.48,1.21,3.49,2.52,4.07,1.91,2.74,3,3.48,2.52,1.88,3.38,2.74,3,.93,3.61,1.88,3.38,0,3.67.94,3.6-1,3.57-.05,3.67-2,3.31-1,3.57-2.82,2.92-2,3.32-6.24,4.57-29.67.41L956,1004.36A3.32,3.32,0,0,1,954.75,1002.48Z"/><ellipse cx="968.03" cy="1023.65" rx="2.75" ry="3.19"/><path class="cls-19" d="M979.86,1018.52l-2-3-3-1.81.36-1.43L976,1011l1-.87,1.23-.43,1.29.06,1.2.53,1,1,.67,1.27.27,1.46-.16,1.47-.56,1.34-.9,1.06Z"/><path id="Shadow-6" data-name="Shadow" class="cls-20" d="M979,1016.74l-1.05-1.52-1.53-.88.17-.73.37-.62.52-.46.62-.23h.65l.61.26.5.47.35.64.15.73-.07.75-.27.69-.45.54Z"/><polygon class="cls-21" points="863.81 389.4 865.86 392.03 867.9 394.66 863.31 396.12 858.72 397.58 861.27 393.49 863.81 389.4"/><ellipse class="cls-22" cx="894.89" cy="380.92" rx="18.64" ry="9.08" transform="translate(3.57 770.12) rotate(-46.65)"/><ellipse id="Shadow-7" data-name="Shadow" class="cls-12" cx="894.89" cy="380.92" rx="18.64" ry="9.08" transform="translate(3.57 770.12) rotate(-46.65)"/><path class="cls-23" d="M891.65,380.22l-18.75-2.69a9.76,9.76,0,0,0-11,8.25l-.15,1a9.75,9.75,0,0,0,8.25,11h0a30.53,30.53,0,0,0,15.82,10.93,30.94,30.94,0,0,0,16.09,0c4-1,6.53-2.36,11-4.77,0,0,9-4.9,11.18-9.26a13,13,0,0,1,.78-1.35,12.47,12.47,0,0,1,1.23-1.54l16.9,3.59.5-4.14.5-4.15Z"/><ellipse class="cls-22" cx="896.12" cy="381.95" rx="18.64" ry="9.08" transform="translate(3.2 771.33) rotate(-46.65)"/><circle cx="867.06" cy="386.75" r="1.46"/><g class="cls-24"><path class="cls-10" d="M0,781.19l16.73-31.12q1.72,20.74,3.46,41.49l17.29-22.47,8.64,32.84,15.56-41.49,3,26q1.09,9.45,2.18,18.9l10.38,17.28Q87.61,808,98,793.29q-1.73,18.15-3.46,36.3l27.66-27.66,5.19,45,19-25.93q3.47,17.28,6.92,34.57l15.55-32.85,10.38,38,36.3-50.14q-1.72,27.66-3.46,55.32l19-24.2v31.12l20.74-12.1,6.92,27.65q3.45-23.33,6.91-46.67l15.56,53.59,12.1-24.2q3.45,14.68,6.91,29.39l3.78-7.09,10.05-18.85,5.19,29.39q7.77-13.83,15.56-27.66l15.55,51.86,10.38-27.65,15.55,36.3,13.83-29.39q6.06,17.28,12.1,34.57c.87-2.59,1.73-5.18,2.6-7.78l13-38.89q4.32,21.6,8.65,43.22l13.83-25.93,3.45,48.4,20.75-22.47q3.45,9.5,6.91,19l22.47-24.2L499,976.53q8.64-13.83,17.29-27.66,5.17,11.24,10.37,22.47,8.64-16.43,17.29-32.84l13.83,32.84q6.9-11.24,13.82-22.47l12.11,36.3q2.71-5.25,5.44-10.5l18.76-36.17q-.87,21.6-1.73,43.21l22.47-24.2,5.19,32.85,24.2-32.85-5.19,39.76,27.66-25.93,10.37,34.57c.05-.48.09-1,.14-1.44q2.52-26.94,5.05-53.87,12.1,25.92,24.2,51.86L732.4,980,748,1007.64l15.56-25.93,48.4,38,13.83-29.38,10.37,31.11q6-13,12.1-25.93l20.75,36.3,19-25.93q-.87,19-1.73,38L907,993.81q5.18,19.89,10.37,39.76l12.1-22.47q8.64,10.36,17.29,20.74l3.45-48.4q8.71,22.06,17.42,44.12l8.51,21.57,19-31.12,19,22.48,10.38-39.76,13.83,41.49,13.82-19,13.83,24.2s3.91-5.69,3.94-5.72c.35-.52,14.72-21.42,15.08-21.94q.87,14.7,1.73,29.39l31.11-27.66q4.32,13.83,8.65,27.66l13.83-29.39q9.5,10.38,19,20.75,3.46-13.83,6.92-27.66l20.74,32.84q5.19-8.64,10.37-17.28l20.6,20.74V1080H0Z"/></g><path class="cls-10" d="M1218,1049.13l30.86-29q8.36,11.82,16.7,23.66l13.92-19.49q4.18,18.11,8.36,36.19l15.31-23.66q2.77,21.57,5.57,43.13l30.62-39q4.17,11.82,8.35,23.66l13.92-8.35,9.75,23.64,51.5-29.21q8.36,14.61,16.7,29.21l16.71-19.47,7,19.47,25-9.72V1080H1218Z"/></g></g></svg>