<svg xmlns="http://www.w3.org/2000/svg" viewBox="0 0 1488.29 877.84"><defs><style>.cls-1{isolation:isolate;}.cls-2,.cls-3,.cls-4{fill:#a0a0a0;}.cls-3{opacity:0.46;}.cls-10,.cls-3,.cls-4,.cls-7,.cls-9{mix-blend-mode:multiply;}.cls-5{fill:#5e4d31;}.cls-6,.cls-7{fill:#59916f;}.cls-8{fill:#34a35f;}.cls-9{fill:#a8a8a8;}.cls-10{fill:#969696;}.cls-11{fill:#3a5e48;}.cls-12{fill:#46dd81;}.cls-13{fill:#89ddaa;}</style></defs><title>ForestRock</title><g class="cls-1"><g id="Layer_1" data-name="Layer 1"><path class="cls-2" d="M109,665.35,149.81,631,129.4,577.26q-8.82-47.28-17.65-94.55L85.69,432.45q4.61-39.43,9.2-78.86l-21-55.21,27.6-30.23-42.06-67q-5.25-25-10.51-50-8.14-21.37-16.28-42.74L31.8,53.89,13.59,12.33,0,0V625.14Z"/><path class="cls-3" d="M66.46,347q-8.29-25.2-16.6-50.4L71.65,269Q55,238.37,38.46,207.77l14,65.44Q44.82,291,37.13,308.77q-6,34.94-12.08,69.86l19.76,19.05,15.37,7.62Q63.33,376.14,66.46,347Z"/><path class="cls-3" d="M.53,96.2,17.22,62.81,0,37.11v91.77l11.66,3.5Z"/><path class="cls-3" d="M101.64,642.79q-4.17-39-8.35-77.91L89.12,487l-7-40.35Q79.39,480,76.6,513.4L44.6,551,14,628.87Z"/><path class="cls-3" d="M9.73,546l15.69-72L49.3,505.32l33.31-76.27L38.22,467.49,25.42,474q-8.87,11.3-17.74,22.57L0,515.22v32.17Z"/><path class="cls-2" d="M370.47,750.09q13.09-29,26.2-58L378,658.41,344.28,639.7l-26.19,35.55q1.86,22.44,3.74,44.9Z"/><path class="cls-4" d="M358,742.42l22.74-50.33L362,658.41,339.65,646l-21.56,29.28q1.86,22.44,3.74,44.9Z"/><path class="cls-2" d="M322.11,701.85q.76-13.73,1.54-27.46L310.5,653l-22.19-9.86-17.22,16.1Q276,675,280.91,690.83Z"/><path class="cls-4" d="M315.43,699.87q.49-8.93,1-17.85l-13.15-21.38-22.2-9.86-10,8.47Q276,675,280.91,690.83Z"/><path class="cls-2" d="M324.76,666.15l9.07-12.27q.38-6.76.74-13.54l-6.95-9-15.81,2.09q-1.59,8.67-3.19,17.34Z"/><path class="cls-4" d="M322.21,662.88l4.12-8.1q1.51-6.87,3-13.74l-6.4-7.35-11.13-.29q-1.59,8.67-3.19,17.34Z"/><rect class="cls-5" x="1027.79" y="703.52" width="31.05" height="138.91"/><polygon class="cls-6" points="1048.1 368 1072.13 374.73 1097.08 374.73 1118.4 387.7 1142.42 394.43 1159.45 412.66 1180.77 425.63 1192.25 447.78 1209.28 466.02 1214.36 490.45 1225.84 512.6 1224.14 537.5 1229.21 561.93 1220.86 585.44 1219.15 610.33 1204.77 630.72 1196.41 654.23 1177.05 669.97 1162.66 690.36 1139.78 700.3 1120.42 716.04 1095.7 719.44 1072.82 729.38 1048.1 725.99 1023.38 729.38 1000.49 719.44 975.77 716.04 956.42 700.3 933.53 690.36 919.14 669.97 899.79 654.23 891.43 630.72 877.04 610.33 875.34 585.44 866.99 561.93 872.06 537.5 870.36 512.6 881.84 490.45 886.92 466.02 903.95 447.78 915.43 425.63 936.75 412.66 953.78 394.43 977.8 387.7 999.12 374.73 1024.07 374.73 1048.1 368"/><path class="cls-7" d="M1042.5,842.43h-14.71V728.31l15.11-1.95Q1042.71,784.4,1042.5,842.43Z"/><path class="cls-7" d="M1041.7,726.75l-19,2.63-22.78-9.94L975.27,716,956,700.3l-22.78-9.94L918.9,670l-19.26-15.74-8.32-23.52L877,610.33l-1.7-24.89L867,561.93l5-24.43-1.7-24.9,11.43-22.15L886.82,466l17-18.24,11.42-22.15,21.22-13,17-18.23,23.91-6.73,21.22-13h24.84l16.73-4.71Z"/><path class="cls-7" d="M1058.84,733.71l-12.48-2.7-18.57,4.37v-7.07l20.8-2.84,10.25,1.41Z"/><rect class="cls-5" x="826.03" y="676.09" width="32.7" height="146.28"/><polygon class="cls-8" points="845.19 356.15 932.03 532.55 1018.88 708.95 845.19 708.95 671.51 708.95 758.35 532.55 845.19 356.15"/><polygon class="cls-8" points="845.19 295.14 932.03 471.54 1018.88 647.93 845.19 647.93 671.51 647.93 758.35 471.54 845.19 295.14"/><polygon class="cls-8" points="845.19 231.78 932.03 408.17 1018.88 584.57 845.19 584.57 671.51 584.57 758.35 408.17 845.19 231.78"/><path class="cls-9" d="M699.67,591.61H991.36l-3.75-7H703.53Z"/><path class="cls-9" d="M697.74,655.24H992.15q-1.9-3.65-3.79-7.29H701.63Q699.7,651.6,697.74,655.24Z"/><rect class="cls-9" x="826.03" y="708.94" width="32.85" height="32.85"/><path class="cls-10" d="M844.64,231.78V584.57H671.12l86.76-176.4Z"/><path class="cls-10" d="M844.64,583.58v64.35H671.12l31.13-64.08Z"/><path class="cls-10" d="M844.64,647.9v61H671.12l30.16-61.12Z"/><rect class="cls-10" x="826.03" y="708.94" width="18.62" height="113.42"/><rect class="cls-5" x="543.11" y="656.6" width="25.39" height="113.59"/><polygon class="cls-11" points="557.99 408.15 625.43 545.13 692.87 682.11 557.99 682.11 423.12 682.11 490.55 545.13 557.99 408.15"/><polygon class="cls-11" points="555.71 365.81 607.02 470.03 658.33 574.25 555.71 574.25 453.09 574.25 504.4 470.03 555.71 365.81"/><polygon class="cls-11" points="556.55 329.81 588.34 394.37 620.12 458.92 556.55 458.92 492.99 458.92 524.77 394.37 556.55 329.81"/><path class="cls-9" d="M473.45,579.72H642.27l-2.73-5.47H476Z"/><rect class="cls-9" x="543.11" y="682.11" width="25.51" height="21.87"/><path class="cls-10" d="M556.35,329.81l-3.9,129.08-59.6,0,31.75-64.55Z"/><path class="cls-10" d="M560.13,574.25V682.11h-137Q449.55,628.4,476,574.7Z"/><rect class="cls-10" x="543.11" y="682.11" width="14.46" height="88.08"/><path class="cls-10" d="M556.55,458.92q-.09,57.66-.2,115.33H453.09q28.4-57.66,56.78-115.33Z"/><path class="cls-9" d="M507.18,464.39h97.15l-2.65-5.47H509.87C509,460.74,508.08,462.56,507.18,464.39Z"/><rect class="cls-5" x="393.17" y="603.22" width="30.32" height="135.65"/><polygon class="cls-12" points="410.94 306.54 491.47 470.11 572 633.69 410.94 633.69 249.88 633.69 330.41 470.11 410.94 306.54"/><polygon class="cls-12" points="410.94 249.96 491.47 413.53 572 577.11 410.94 577.11 249.88 577.11 330.41 413.53 410.94 249.96"/><polygon class="cls-12" points="410.94 191.2 491.47 354.77 572 518.35 410.94 518.35 249.88 518.35 330.41 354.77 410.94 191.2"/><path class="cls-7" d="M276,524.88h270.5L543,518.35H279.57Z"/><path class="cls-7" d="M274.2,583.88h273l-3.51-6.76H277.81C276.61,579.37,275.41,581.63,274.2,583.88Z"/><path class="cls-7" d="M410.43,191.2V518.35H249.51L330,354.78Z"/><path class="cls-7" d="M410.43,517.44v59.67H249.51l28.88-59.43Z"/><path class="cls-7" d="M410.43,577.07v56.62H249.51l28-56.68Z"/><rect class="cls-7" x="393.17" y="633.69" width="17.26" height="105.18"/><rect class="cls-7" x="399.69" y="627.12" width="17.26" height="30.32" transform="translate(1050.6 233.95) rotate(90)"/><rect class="cls-5" x="1089.57" y="714.66" width="30.32" height="135.65"/><polygon class="cls-8" points="1107.34 417.98 1187.87 581.55 1268.4 745.13 1107.34 745.13 946.28 745.13 1026.81 581.55 1107.34 417.98"/><polygon class="cls-8" points="1104.62 367.41 1165.89 491.87 1227.17 616.33 1104.62 616.33 982.07 616.33 1043.35 491.87 1104.62 367.41"/><polygon class="cls-8" points="1105.63 324.43 1143.58 401.52 1181.53 478.6 1105.63 478.6 1029.72 478.6 1067.68 401.52 1105.63 324.43"/><path class="cls-9" d="M1006.38,622.86H1208l-3.27-6.53H1009.44Z"/><rect class="cls-9" x="1089.57" y="745.12" width="30.47" height="26.11"/><path class="cls-10" d="M1105.39,324.43q-2.34,77.07-4.67,154.14l-71.17,0,37.92-77.08Z"/><path class="cls-10" d="M1109.89,616.33V745.12H946.28l63.15-128.26Z"/><rect class="cls-10" x="1089.57" y="745.12" width="17.26" height="105.18"/><path class="cls-10" d="M1105.63,478.6l-.24,137.73H982.07q33.91-68.87,67.81-137.73Z"/><path class="cls-9" d="M1046.67,485.13h116l-3.16-6.53H1049.88Z"/><rect class="cls-5" x="747.88" y="668.64" width="30.32" height="135.65"/><polygon class="cls-13" points="767.71 341 791.17 347.57 815.54 347.57 836.36 360.23 859.82 366.8 876.45 384.61 897.27 397.27 908.48 418.9 925.11 436.71 930.07 460.57 941.28 482.2 939.62 506.51 944.57 530.37 936.41 553.33 934.75 577.64 920.7 597.54 912.54 620.5 893.64 635.88 879.59 655.79 857.24 665.5 838.34 680.87 814.2 684.19 791.85 693.9 767.71 690.58 743.57 693.9 721.22 684.19 697.08 680.87 678.18 665.5 655.83 655.79 641.78 635.88 622.88 620.5 614.72 597.54 600.67 577.64 599 553.33 590.84 530.37 595.8 506.51 594.14 482.2 605.35 460.57 610.31 436.71 626.94 418.9 638.15 397.27 658.97 384.61 675.6 366.8 699.06 360.23 719.88 347.57 744.25 347.57 767.71 341"/><g id="Shadows"><path class="cls-10" d="M762.24,804.29H747.88V692.85l14.75-1.91Z"/><path class="cls-10" d="M761.46,691.33l-18.6,2.57-22.24-9.71-24-3.32L677.78,665.5l-22.25-9.71-14-19.91L622.73,620.5l-8.12-23-14-19.91L599,553.33l-8.13-23,4.94-23.86-1.66-24.31,11.16-21.63,4.94-23.86,16.55-17.8,11.16-21.64,20.72-12.66,16.56-17.81,23.35-6.57,20.72-12.66h24.26l16.34-4.6Q760.68,517.15,761.46,691.33Z"/><path class="cls-10" d="M778.2,698.13,766,695.48l-18.13,4.27v-6.9l20.31-2.77,10,1.37Z"/></g><path class="cls-8" d="M0,579l16.73-31.11q1.72,20.73,3.46,41.48l17.29-22.47,8.64,32.85,15.56-41.49,3,26.05q1.09,9.45,2.18,18.89l10.38,17.29L98,591.13q-1.73,18.15-3.46,36.3l27.66-27.65,5.19,44.94,19-25.93q3.47,17.3,6.92,34.57,7.77-16.41,15.55-32.84l10.38,38,36.3-50.13q-1.72,27.66-3.46,55.32l19-24.2v31.11l20.74-12.1q3.46,13.83,6.92,27.66,3.45-23.34,6.91-46.67l15.56,53.58q6-12.09,12.1-24.2,3.45,14.7,6.91,29.39l3.78-7.09,10.05-18.84,5.19,29.39q7.77-13.83,15.56-27.66L350.36,726l10.38-27.66,15.55,36.3,13.83-29.39q6.06,17.29,12.1,34.58c.87-2.6,1.73-5.19,2.6-7.78l13-38.9q4.32,21.61,8.65,43.22l13.83-25.93,3.45,48.4,20.75-22.47,6.91,19,22.47-24.21L499,774.37q8.64-13.83,17.29-27.66,5.17,11.24,10.37,22.48,8.64-16.43,17.29-32.85l13.83,32.85q6.9-11.25,13.82-22.48L583.74,783l5.44-10.49q9.38-18.09,18.76-36.18-.87,21.61-1.73,43.22l22.47-24.2,5.19,32.84q12.09-16.43,24.2-32.84l-5.19,39.76,27.66-25.93,10.37,34.57c.05-.48.09-1,.14-1.45q2.52-26.92,5.05-53.87l24.2,51.86,12.1-22.47L748,805.49q7.77-13,15.56-25.93l48.4,38,13.83-29.39,10.37,31.12q6-13,12.1-25.93L869,829.69l19-25.93q-.87,19-1.73,38L907,791.66q5.18,19.88,10.37,39.76,6-11.24,12.1-22.48l17.29,20.75,3.45-48.4q8.71,22.05,17.42,44.12L976.14,847l19-31.12,19,22.47,10.38-39.76,13.83,41.49q6.9-9.51,13.82-19l13.83,24.2,3.94-5.73,15.08-21.93q.87,14.68,1.73,29.39l31.11-27.66q4.32,13.83,8.65,27.66l13.83-29.39,19,20.74q3.46-13.83,6.92-27.66L1187,843.52l10.37-17.29L1218,847v30.86H0Z"/><path class="cls-8" d="M1218,847l30.86-29,16.7,23.66,13.92-19.48q4.18,18.09,8.36,36.19,7.65-11.83,15.31-23.67,2.77,21.57,5.57,43.13l30.62-39q4.17,11.83,8.35,23.66l13.92-8.35,9.75,23.64,51.5-29.21,16.7,29.21,16.71-19.46,7,19.46,25-9.72v9.72H1218Z"/></g></g></svg>