<svg xmlns="http://www.w3.org/2000/svg" viewBox="0 0 1920 1080"><defs><style>.cls-1{isolation:isolate;}.cls-2{fill:none;}.cls-3,.cls-4{fill:#a5aaae;}.cls-4{mix-blend-mode:multiply;}</style></defs><title>Hedgehog</title><g class="cls-1"><g id="Layer_1" data-name="Layer 1"><g id="invisibleframe"><rect class="cls-2" width="1920" height="1080"/></g><rect class="cls-3" x="975.34" y="1036.34" width="4.96" height="11.52" rx="2.48"/><rect id="Shadow" class="cls-4" x="975.34" y="1036.34" width="4.96" height="11.52" rx="2.48"/><rect class="cls-3" x="982.44" y="1036.34" width="4.96" height="11.52" rx="2.48"/><rect class="cls-3" x="1013.29" y="1036.34" width="4.96" height="11.52" rx="2.48"/><rect id="Shadow-2" data-name="Shadow" class="cls-4" x="1013.29" y="1036.34" width="4.96" height="11.52" rx="2.48"/><rect class="cls-3" x="1020.02" y="1036.34" width="4.96" height="11.52" rx="2.48"/><path class="cls-3" d="M1018.25,1039.64l-34.56.21-32,.2a1.53,1.53,0,0,1-1.07-2.38L966.28,1012l17.15-28.08,17.41,27.87Z"/><path d="M954.75,1002.48a3.89,3.89,0,0,1,1-3.57l2.82-2.91,2-3.32,3.55-2.39,2.82-2.92,4.12-1.76,3.55-2.39,4.51-1.05,4.12-1.76,4.71-.3,4.51-1.06,4.7.47,4.71-.3,4.48,1.22,4.7.46,4.07,1.91,4.48,1.21,3.49,2.52,4.07,1.91,2.74,3,3.48,2.52,1.88,3.38,2.74,3,.93,3.61,1.88,3.38,0,3.67.94,3.6-1,3.57-.05,3.67-2,3.31-1,3.57-2.82,2.92-2,3.32-6.24,4.57-29.67.41L956,1004.36A3.32,3.32,0,0,1,954.75,1002.48Z"/><ellipse cx="968.03" cy="1023.65" rx="2.75" ry="3.19"/><path class="cls-3" d="M979.86,1018.52l-2-3-3-1.81.36-1.43L976,1011l1-.87,1.23-.43,1.29.06,1.2.53,1,1,.67,1.27.27,1.46-.16,1.47-.56,1.34-.9,1.06Z"/><path id="Shadow-3" data-name="Shadow" class="cls-4" d="M979,1016.74l-1.05-1.52-1.53-.88.17-.73.37-.62.52-.46.62-.23h.65l.61.26.5.47.35.64.15.73-.07.75-.27.69-.45.54Z"/></g></g></svg>