<svg xmlns="http://www.w3.org/2000/svg" viewBox="0 0 91.35 68.81"><defs><style>.cls-1{isolation:isolate;}.cls-2,.cls-3{fill:#a5aaae;}.cls-3{mix-blend-mode:multiply;}</style></defs><title>Hedgehog</title><g class="cls-1"><g id="Layer_1" data-name="Layer 1"><rect class="cls-2" x="25" y="57.29" width="4.96" height="11.52" rx="2.48"/><rect id="Shadow" class="cls-3" x="25" y="57.29" width="4.96" height="11.52" rx="2.48"/><rect class="cls-2" x="32.09" y="57.29" width="4.96" height="11.52" rx="2.48"/><rect class="cls-2" x="62.94" y="57.29" width="4.96" height="11.52" rx="2.48"/><rect id="Shadow-2" data-name="Shadow" class="cls-3" x="62.94" y="57.29" width="4.96" height="11.52" rx="2.48"/><rect class="cls-2" x="69.67" y="57.29" width="4.96" height="11.52" rx="2.48"/><path class="cls-2" d="M67.9,60.59l-34.56.21L1.31,61A1.52,1.52,0,0,1,.24,58.62L15.93,32.93,33.09,4.86,50.5,32.72Z"/><path d="M4.41,23.43a3.85,3.85,0,0,1,1-3.57l2.82-2.92,2-3.31,3.54-2.4,2.82-2.91,4.12-1.76,3.55-2.39,4.51-1.06,4.12-1.76,4.71-.3,4.52-1,4.69.47,4.71-.3L56,1.38l4.69.47,4.07,1.91L69.26,5l3.48,2.52,4.07,1.9,2.74,3L83,14.93l1.88,3.38,2.74,3,.94,3.6,1.88,3.39,0,3.66.93,3.61-1,3.57,0,3.66-2,3.32-1,3.57-2.82,2.92-2,3.31-6.24,4.57-29.67.42L5.65,25.3A3.38,3.38,0,0,1,4.41,23.43Z"/><ellipse cx="17.68" cy="44.6" rx="2.75" ry="3.19"/><path class="cls-2" d="M29.51,39.47l-2-3-3-1.82.36-1.42L25.6,32l1-.87,1.23-.43,1.28.05,1.2.54,1,1L32,33.48l.27,1.45-.15,1.48-.56,1.34-.91,1.06Z"/><path id="Shadow-3" data-name="Shadow" class="cls-3" d="M28.6,37.68l-1.05-1.51L26,35.28l.17-.73.36-.62.52-.45.62-.23h.65l.61.26.51.47.34.64.15.73-.06.75-.27.68-.45.55Z"/></g></g></svg>