<svg xmlns="http://www.w3.org/2000/svg" xmlns:xlink="http://www.w3.org/1999/xlink" viewBox="0 0 474.27 147.72"><defs><style>.cls-1{fill:none;}.cls-2{isolation:isolate;}.cls-3{clip-path:url(#clip-path);}.cls-4{clip-path:url(#clip-path-3);}.cls-5{fill:#846e63;}.cls-6{mix-blend-mode:multiply;}.cls-7{clip-path:url(#clip-path-4);}.cls-8{fill:#8e8e8e;}.cls-9{clip-path:url(#clip-path-5);}.cls-10{clip-path:url(#clip-path-6);}.cls-11{clip-path:url(#clip-path-7);}.cls-12{clip-path:url(#clip-path-8);}.cls-13{clip-path:url(#clip-path-9);}.cls-14{clip-path:url(#clip-path-11);}.cls-15{clip-path:url(#clip-path-12);}.cls-16{clip-path:url(#clip-path-13);}.cls-17{clip-path:url(#clip-path-14);}.cls-18{clip-path:url(#clip-path-15);}.cls-19{clip-path:url(#clip-path-16);}</style><clipPath id="clip-path"><rect class="cls-1" y="49.24" width="474.27" height="98.48"/></clipPath><clipPath id="clip-path-3"><rect class="cls-1" y="49.24" width="474.27" height="98.48"/></clipPath><clipPath id="clip-path-4"><rect class="cls-1" x="1.15" y="134.69" width="472.75" height="11.79"/></clipPath><clipPath id="clip-path-5"><rect class="cls-1" x="8.76" y="112.09" width="457.09" height="17.5"/></clipPath><clipPath id="clip-path-6"><rect class="cls-1" x="13.57" y="88.3" width="441.88" height="11.45"/></clipPath><clipPath id="clip-path-7"><rect class="cls-1" x="24.37" y="69.13" width="421.64" height="11.04"/></clipPath><clipPath id="clip-path-8"><rect class="cls-1" x="30.95" y="54.79" width="408.87" height="12.05"/></clipPath><clipPath id="clip-path-9"><rect class="cls-1" width="474.27" height="98.48"/></clipPath><clipPath id="clip-path-11"><rect class="cls-1" width="474.27" height="98.48"/></clipPath><clipPath id="clip-path-12"><rect class="cls-1" x="1.15" y="85.45" width="472.75" height="11.79"/></clipPath><clipPath id="clip-path-13"><rect class="cls-1" x="8.76" y="62.85" width="457.09" height="17.5"/></clipPath><clipPath id="clip-path-14"><rect class="cls-1" x="13.57" y="39.05" width="441.88" height="11.45"/></clipPath><clipPath id="clip-path-15"><rect class="cls-1" x="24.37" y="19.89" width="421.64" height="11.04"/></clipPath><clipPath id="clip-path-16"><rect class="cls-1" x="30.95" y="5.55" width="408.87" height="12.05"/></clipPath></defs><title>Woodstack</title><g class="cls-2"><g id="Layer_1" data-name="Layer 1"><g id="woodstack"><g class="cls-3"><g class="cls-3"><g class="cls-4"><path class="cls-5" d="M0,125.88q154.92-.36,309.79,1.85Q392,128.9,474.27,130.8l-1.38,16.92s-144.72-.16-233-2.15c-52.38-1.18-238.79.13-238.79.13Q.53,135.79,0,125.88"/><path class="cls-5" d="M6.72,101.37q134.66-7.65,269-3.86c2.9.09,23.7,1.1,51.82,1.89,22.8.65,48.68,1.36,78.58,1,13.87-.17,34.44-.64,59.72-2.08l-.81,34.3s-143-.46-235.27-2.45C175.05,129,9.49,132.62,9.49,132.62Q8.11,117,6.72,101.37"/><path class="cls-5" d="M12.44,82.34a1136.77,1136.77,0,0,1,188.21-6.23c39,2,62.13,7.41,108.8,6.47,37.16-.74,129.61-4.32,144.94-5.47l.47,22.39c-28.95,1.8-72.7,4-126.17,4.3-59.49.39-89.39-1.74-143.7-2.44-40.76-.53-99.35-.31-171.24,3.43q-.66-11.22-1.31-22.45"/><path class="cls-5" d="M23.75,63.24c15.51,1.41,105.53,3.06,185,5,30.68.76,114.83.63,127.42.37,35.58-.73,94.52-1.67,109.19-2.8V81.37c-27.71,1.76-69.59,3.86-120.78,4.2C268.28,86,235.81,78.73,183.31,78c-38.95-.55-91.08,4.74-159.56,8Z"/><path class="cls-5" d="M30.35,51.88c23.7,0,60,.14,104.52.35,96,.45,123.78,1,170.69.49,31.75-.31,77.73-1.14,133.87-3.48L438.8,70c-25.35,1.86-66.29,4.23-117,4.19-62.32,0-90.49-3.71-149.42-4.38-32.52-.37-81.43.08-142,4.76Z"/><g class="cls-6"><g class="cls-7"><path class="cls-8" d="M1.15,134.7q146.87-.21,293.67,2.47,89.55,1.64,179.07,4.35l-.4,4.95s-144.72-.16-233-2.15c-52.39-1.18-238.8.13-238.8.13-.17-3.25-.35-6.5-.52-9.75"/></g></g><g class="cls-6"><g class="cls-9"><path class="cls-8" d="M8.76,113.81c89.58-1.44,178-1.82,267.57-1.7,25.87,0,46.22.12,53.34.16,58.65.34,105.93,1.13,136.17,1.73q-.09,4.66-.14,9.41,0,3.11-.05,6.18-116.58-2.69-233.2-3.9-111.43-1.17-222.86-1Z"/></g></g><g class="cls-6"><g class="cls-10"><path class="cls-8" d="M13.57,90.09c16.56.58,42.21,1.27,73.63,1.2,58.69-.14,78.88-2.85,133.37-3,43.52-.11,45.5,1.62,97.54,2.49,34.67.57,81.37.6,137.16-1.62l.18,8.48c-77.34,1.54-110.42,1.46-124.77.92-2.16-.08-13.92-.55-29.91-.87-7.19-.14-15.36-.25-24.37-.29-10.24,0-14.79,0-41.5.16-21.78.1-32.6.11-45.2.15-21.8.07-68.16.49-175.57,2-.19-3.22-.37-6.43-.56-9.65"/></g></g><g class="cls-6"><g class="cls-11"><path class="cls-8" d="M24.37,69.86c78-1.08,140.92.23,185,1.69,39.73,1.33,73.08,3.08,123.4,2.49,47.75-.55,87-2.92,113.21-4.91l0,7.17C419.36,78,379.35,80,330.54,80.15c-61.24.25-91.39-2.49-146.63-3.42-38.2-.64-92.77-.5-159.48,3.42l-.06-10.29"/></g></g><g class="cls-6"><g class="cls-12"><path class="cls-8" d="M31,57.42c23.7,0,60.05.14,104.52.35,95.95.45,123.75,1,170.7.5,31.73-.32,77.63-1.15,133.66-3.48-.11,3.39-.21,6.79-.31,10.18C387.6,67.38,345,67.05,315.18,66.25c-64.77-1.72-93.1-6.26-159-5.93-7.19,0-36.67.25-74.74,1-21.29.4-38.81.83-50.5,1.14Z"/></g></g></g></g></g></g><g id="woodstack-2" data-name="woodstack"><g class="cls-13"><g class="cls-13"><g class="cls-14"><path class="cls-5" d="M0,76.64q154.92-.36,309.79,1.85Q392,79.66,474.27,81.56l-1.38,16.92s-144.72-.16-233-2.15c-52.38-1.18-238.79.13-238.79.13Q.53,86.54,0,76.64"/><path class="cls-5" d="M6.72,52.13q134.66-7.65,269-3.86c2.9.08,23.7,1.1,51.82,1.89,22.8.65,48.68,1.36,78.58,1,13.87-.16,34.44-.63,59.72-2.07L465,83.38s-143-.46-235.27-2.45C175.05,79.75,9.49,83.38,9.49,83.38Q8.11,67.75,6.72,52.13"/><path class="cls-5" d="M12.44,33.09c79.26-9,143.29-8.54,188.21-6.22,39,2,62.13,7.41,108.8,6.47,37.16-.74,129.61-4.32,144.94-5.47l.47,22.39c-28.95,1.8-72.7,3.94-126.17,4.29-59.49.39-89.39-1.73-143.7-2.43-40.76-.53-99.35-.31-171.24,3.43q-.66-11.22-1.31-22.46"/><path class="cls-5" d="M23.75,14c15.51,1.41,105.53,3.06,185,5,30.68.76,114.83.63,127.42.37,35.58-.73,94.52-1.68,109.19-2.8V32.13c-27.71,1.75-69.59,3.85-120.78,4.2-56.34.37-88.81-6.84-141.31-7.59-38.95-.55-91.08,4.74-159.56,8Z"/><path class="cls-5" d="M30.35,2.64c23.7,0,60,.13,104.52.35,96,.45,123.78,1,170.69.49C337.31,3.16,383.29,2.34,439.43,0l-.63,20.78C413.45,22.64,372.51,25,321.8,25c-62.32,0-90.49-3.71-149.42-4.38-32.52-.38-81.43.08-142,4.76Z"/><g class="cls-6"><g class="cls-15"><path class="cls-8" d="M1.15,85.46Q148,85.25,294.82,87.93q89.55,1.63,179.07,4.35l-.4,5s-144.72-.16-233-2.15c-52.39-1.18-238.8.12-238.8.12-.17-3.24-.35-6.49-.52-9.74"/></g></g><g class="cls-6"><g class="cls-16"><path class="cls-8" d="M8.76,64.57c89.58-1.44,178-1.82,267.57-1.7,25.87,0,46.22.12,53.34.16,58.65.34,105.93,1.13,136.17,1.73q-.09,4.67-.14,9.41,0,3.1-.05,6.18-116.58-2.68-233.2-3.9Q121,75.28,9.59,75.44Z"/></g></g><g class="cls-6"><g class="cls-17"><path class="cls-8" d="M13.57,40.85c16.56.58,42.21,1.27,73.63,1.2,58.69-.14,78.88-2.85,133.37-3,43.52-.11,45.5,1.62,97.54,2.49,34.67.57,81.37.6,137.16-1.62l.18,8.48C378.11,50,345,49.87,330.68,49.33c-2.16-.08-13.92-.55-29.91-.87-7.19-.14-15.36-.25-24.37-.29-10.24-.05-14.79,0-41.5.16-21.78.1-32.6.11-45.2.15-21.8.07-68.16.49-175.57,2-.19-3.22-.37-6.43-.56-9.65"/></g></g><g class="cls-6"><g class="cls-18"><path class="cls-8" d="M24.37,20.62c78-1.08,140.92.22,185,1.69,39.73,1.32,73.08,3.07,123.4,2.49,47.75-.55,87-2.92,113.21-4.91l0,7.16c-26.62,1.69-66.63,3.67-115.44,3.86-61.24.25-91.39-2.49-146.63-3.42-38.2-.65-92.77-.5-159.48,3.42l-.06-10.29"/></g></g><g class="cls-6"><g class="cls-19"><path class="cls-8" d="M31,8.18c23.7.05,60.05.14,104.52.35,95.95.45,123.75,1,170.7.49,31.73-.31,77.63-1.14,133.66-3.47-.11,3.39-.21,6.79-.31,10.18C387.6,18.14,345,17.81,315.18,17c-64.77-1.72-93.1-6.26-159-5.93-7.19,0-36.67.24-74.74.95-21.29.4-38.81.83-50.5,1.14Z"/></g></g></g></g></g></g></g></g></svg>