<svg xmlns="http://www.w3.org/2000/svg" xmlns:xlink="http://www.w3.org/1999/xlink" viewBox="0 0 1920 1084.15"><defs><style>.cls-1{fill:none;}.cls-2{fill:#d7a928;}.cls-3{fill:#434343;}.cls-4{fill:#c5992d;}.cls-5{fill:#fdd209;}.cls-6{fill:#326c6b;}.cls-7{fill:#94b6b5;}.cls-8{fill:#343434;}.cls-9{clip-path:url(#clip-path);}.cls-10{fill:#353434;}.cls-11{fill:#fff;}.cls-12{fill:#3e3d3d;}.cls-13{fill:#f89528;}.cls-14{fill:#211810;}.cls-15{fill:#dc7927;}.cls-16{fill:#c2c1c1;}.cls-17{fill:#2b2c2b;}.cls-18{fill:#204a67;}.cls-19{fill:#d0df58;}.cls-20{fill:#c1c1c1;}.cls-21{clip-path:url(#clip-path-2);}.cls-22{fill:#204a66;}.cls-23{fill:#704d30;}.cls-24{fill:#6d6e6e;}.cls-25{fill:#dc862f;}.cls-26{fill:#79675d;}.cls-27{fill:#1d150d;}.cls-28{fill:#66482e;}.cls-29{fill:#656666;}.cls-30{fill:#e6a180;}.cls-31{fill:#d19277;}.cls-32{fill:#212121;}.cls-33{fill:#303f43;}.cls-34{fill:#533617;}.cls-35{fill:#232e30;}.cls-36{clip-path:url(#clip-path-3);}.cls-37{clip-path:url(#clip-path-4);}.cls-38{fill:#9f9f9f;}.cls-39{clip-path:url(#clip-path-6);}.cls-40{fill:#61554f;}.cls-41{fill:#727474;}.cls-42{clip-path:url(#clip-path-7);}.cls-43{clip-path:url(#clip-path-8);}.cls-44{clip-path:url(#clip-path-9);}.cls-45{clip-path:url(#clip-path-10);}.cls-46{clip-path:url(#clip-path-11);}.cls-47{clip-path:url(#clip-path-12);}.cls-48{clip-path:url(#clip-path-13);}.cls-49{clip-path:url(#clip-path-14);}.cls-50{clip-path:url(#clip-path-15);}.cls-51{clip-path:url(#clip-path-16);}.cls-52{clip-path:url(#clip-path-18);}.cls-53{clip-path:url(#clip-path-19);}.cls-54{clip-path:url(#clip-path-20);}.cls-55{clip-path:url(#clip-path-22);}.cls-56{fill:#585d5c;}</style><clipPath id="clip-path"><polyline class="cls-1" points="779.41 623.29 902.35 623.29 902.35 923.06 779.41 923.06 779.41 623.29"/></clipPath><clipPath id="clip-path-2"><polyline class="cls-1" points="432.14 738.92 442.28 738.92 442.28 763.87 432.14 763.87 432.14 738.92"/></clipPath><clipPath id="clip-path-3"><polyline class="cls-1" points="594.43 904.57 621.96 851.41 681.32 882.16 653.79 935.32 594.43 904.57"/></clipPath><clipPath id="clip-path-4"><polyline class="cls-1" points="653.79 935.32 681.32 882.16 621.96 851.41 594.43 904.57 653.79 935.32"/></clipPath><clipPath id="clip-path-6"><polyline class="cls-1" points="651.78 934.28 675.52 888.46 625.88 862.75 602.14 908.57 651.78 934.28"/></clipPath><clipPath id="clip-path-7"><polyline class="cls-1" points="514.88 870.52 571.28 818.4 644.76 897.91 588.35 950.04 514.88 870.52"/></clipPath><clipPath id="clip-path-8"><polyline class="cls-1" points="588.35 950.04 644.76 897.91 571.28 818.4 514.88 870.52 588.35 950.04"/></clipPath><clipPath id="clip-path-9"><polyline class="cls-1" points="514.87 870.52 571.28 818.4 644.76 897.91 588.35 950.04 514.87 870.52"/></clipPath><clipPath id="clip-path-10"><polyline class="cls-1" points="581.45 942.57 626.5 900.95 564.33 833.67 519.28 875.29 581.45 942.57"/></clipPath><clipPath id="clip-path-11"><polyline class="cls-1" points="570.6 865.2 600.12 802.86 683.82 842.49 654.3 904.83 570.6 865.2"/></clipPath><clipPath id="clip-path-12"><polyline class="cls-1" points="654.3 904.83 683.82 842.49 600.12 802.86 570.6 865.2 654.3 904.83"/></clipPath><clipPath id="clip-path-13"><polyline class="cls-1" points="570.6 865.2 600.12 802.86 683.82 842.49 654.3 904.83 570.6 865.2"/></clipPath><clipPath id="clip-path-14"><polyline class="cls-1" points="646.44 901.11 670.02 851.33 599.2 817.79 575.63 867.57 646.44 901.11"/></clipPath><clipPath id="clip-path-15"><polyline class="cls-1" points="507.68 926.44 493.65 859.68 574.74 842.64 588.77 909.4 507.68 926.44"/></clipPath><clipPath id="clip-path-16"><polyline class="cls-1" points="588.77 909.4 574.74 842.64 493.65 859.68 507.68 926.44 588.77 909.4"/></clipPath><clipPath id="clip-path-18"><polyline class="cls-1" points="581.15 911 569.95 857.68 501.34 872.1 512.54 925.42 581.15 911"/></clipPath><clipPath id="clip-path-19"><polyline class="cls-1" points="633.98 866.08 699.34 847.02 718.89 914.08 653.54 933.14 633.98 866.08"/></clipPath><clipPath id="clip-path-20"><polyline class="cls-1" points="653.54 933.14 718.89 914.08 699.34 847.02 633.98 866.08 653.54 933.14"/></clipPath><clipPath id="clip-path-22"><polyline class="cls-1" points="652.18 928.48 704.3 913.29 687.21 854.69 635.1 869.89 652.18 928.48"/></clipPath></defs><title>szene04_SzeneEinzeln_noWood</title><g id="szene04_resized"><polyline class="cls-2" points="658.97 869.43 626.61 839.91 657.43 839.91 659 835.99 626.41 804.88 657.43 804.88 658.98 800.93 626.53 770.8 657.43 770.8 659.03 766.9 626.3 734.82 657.43 734.82 659.03 730.91 626.3 698.83 657.43 698.83 659 694.91 626.41 663.8 657.43 663.8 659 659.87 626.44 629 657.43 629 659.01 625.09 622.31 589.59 619.15 592.86 651.8 624.45 620.73 624.45 619.16 628.38 651.72 659.25 620.73 659.25 619.16 663.17 651.75 694.28 620.73 694.28 619.14 698.18 651.86 730.26 620.73 730.26 619.14 734.16 651.86 766.25 620.73 766.25 619.18 770.19 651.63 800.33 620.73 800.33 619.16 804.25 651.75 835.36 620.73 835.36 619.2 839.31 655.9 872.8 658.97 869.43"/><polyline class="cls-2" points="655.15 591.22 655.15 874.81 659.71 874.81 659.71 591.22 655.15 591.22"/><polyline class="cls-2" points="623.01 874.81 623.01 591.22 618.46 591.22 618.46 874.81 623.01 874.81"/><polygon class="cls-2" points="644.66 532.94 622.74 472.23 619.58 472.78 619.58 535.12 622.83 535.12 622.83 482.07 642.16 535.57 645.21 534.47 644.66 532.94"/><polygon class="cls-3" points="804.74 527.66 620.76 467.11 545.51 542.97 547.82 545.26 621.65 470.83 805.27 531.25 806.28 528.16 804.74 527.66"/><path class="cls-4" d="M613.16,470.69a7.51,7.51,0,1,0,7.5-7.51A7.51,7.51,0,0,0,613.16,470.69Z"/><polygon class="cls-2" points="613.05 542.96 538.32 542.96 538.32 556.73 613.16 556.73 613.05 542.96"/><polygon class="cls-3" points="798.24 563.46 812.61 621.21 818.25 621.21 833.25 561.89 830.1 561.1 815.71 617.95 815.15 617.95 801.01 561.1 797.85 561.89 798.24 563.46"/><polygon class="cls-4" points="834.85 563.07 796.78 563.07 792.49 556.73 837 556.73 834.85 563.07"/><polygon class="cls-2" points="661.66 553.7 678.27 533.7 678.27 556.73 681.07 557.85 704.36 533.28 704.36 556.73 707.2 557.81 728.85 533.47 728.85 556.73 731.66 557.84 754.59 533.32 754.59 556.73 757.4 557.83 780.14 533.34 780.14 556.73 782.96 557.83 805.53 533.36 805.53 556.73 808.38 557.8 829.65 533.52 829.65 556.73 832.47 557.83 855.03 533.36 855.03 556.73 857.85 557.83 880.59 533.34 880.59 556.73 883.84 556.73 883.84 529.2 881.03 528.09 858.28 552.59 858.28 529.2 855.46 528.1 832.9 552.56 832.9 529.2 830.05 528.13 808.78 552.4 808.78 529.2 805.96 528.1 783.39 552.57 783.39 529.2 780.58 528.09 757.84 552.59 757.84 529.2 755.02 528.09 732.1 552.61 732.1 529.2 729.26 528.12 707.61 552.45 707.61 529.2 704.81 528.08 681.52 552.65 681.52 529.2 678.64 528.16 659.16 551.63 661.66 553.7 661.66 553.7"/><path class="cls-2" d="M679.89,530.83h201.5L899.2,555.1H660.41a1.63,1.63,0,1,0,0,3.25h242a1.63,1.63,0,0,0,1.31-2.59l-20.19-27.52a1.64,1.64,0,0,0-1.31-.67H679.89a1.63,1.63,0,0,0,0,3.26Z"/><circle class="cls-4" cx="815.48" cy="626.8" r="7.39"/><polygon class="cls-5" points="645.75 533.49 669.53 564.59 669.53 592.65 613.05 592.65 613.05 533.49 645.75 533.49"/><rect class="cls-6" x="617.87" y="539.27" width="16.09" height="23"/><polygon class="cls-6" points="644.21 539.27 638.96 539.27 638.96 562.27 660.41 562.27 644.21 539.27"/><polygon class="cls-7" points="617.87 544.56 633.96 558.22 633.96 562.27 617.87 562.27 617.87 544.56"/><polyline class="cls-7" points="639.08 562.27 639.08 544.56 659.93 562.27"/><polyline class="cls-8" points="679 883.27 601.43 883.27 601.43 895.78 679 895.78 679 883.27"/><polyline class="cls-8" points="666.13 871.12 613.23 871.12 613.23 883.27 666.13 883.27 666.13 871.12"/><g class="cls-9"><path class="cls-10" d="M797,803.35V774.26h25v29.09H797m62.7,0V774.26h25v29.09h-25M797,749.71V720.63h25v29.08H797m62.7,0V720.63h25v29.08h-25M797,694.36V665.28h25v29.08H797m62.7,0V665.28h25v29.08h-25m-14.21-71.07h-8.32V652.2h-49V625.54h-8.82V911.79c35.72-.64,77-1.64,122.94-3.19v-274h-8.82V652.2h-48V623.29"/><polyline class="cls-11" points="822.02 665.28 797.04 665.28 797.04 694.36 822.02 694.36 822.02 665.28"/><polyline class="cls-11" points="884.72 665.28 859.74 665.28 859.74 694.36 884.72 694.36 884.72 665.28"/><polyline class="cls-11" points="822.02 720.63 797.04 720.63 797.04 749.71 822.02 749.71 822.02 720.63"/><polyline class="cls-11" points="884.72 720.63 859.74 720.63 859.74 749.71 884.72 749.71 884.72 720.63"/><polyline class="cls-11" points="822.02 774.26 797.04 774.26 797.04 803.35 822.02 803.35 822.02 774.26"/><polyline class="cls-11" points="884.72 774.26 859.74 774.26 859.74 803.35 884.72 803.35 884.72 774.26"/></g><polyline class="cls-8" points="759.82 655.25 779.41 655.25 779.41 649.89 759.82 649.89"/><polyline class="cls-8" points="759.76 706.94 779.35 707.39 779.47 702.02 759.88 701.58"/><polyline class="cls-8" points="759.76 761.75 779.35 762.2 779.47 756.84 759.88 756.39"/><polyline class="cls-8" points="759.76 816.12 779.35 816.56 779.47 811.2 759.88 810.75"/><polyline class="cls-8" points="759.76 876.72 779.35 877.16 779.47 871.8 759.88 871.36"/><polyline class="cls-8" points="757.13 625.54 757.13 923.06 762.5 923.06 762.5 625.54 757.13 625.54"/><polyline class="cls-8" points="922.01 649.89 902.41 649.89 902.41 655.25 922.01 655.25"/><polyline class="cls-8" points="921.94 701.58 902.35 702.02 902.48 707.39 922.07 706.94"/><polyline class="cls-8" points="921.94 756.39 902.35 756.84 902.48 762.2 922.07 761.75"/><polyline class="cls-8" points="921.95 810.75 902.35 811.2 902.48 816.56 922.07 816.12"/><polyline class="cls-8" points="921.95 871.36 902.35 871.8 902.48 877.16 922.07 876.72"/><polyline class="cls-8" points="919.32 616.52 919.32 923.06 924.69 923.06 924.69 616.52 919.32 616.52"/><polyline class="cls-12" points="335.26 774.25 335.26 787.4 441.73 787.4 441.73 774.25 335.26 774.25"/><polyline class="cls-13" points="342.7 802.72 342.7 877.19 372.21 877.19 372.21 802.72 405.02 802.72 405.02 877.19 434.28 877.19 434.28 802.72 441.73 802.72 441.73 787.22 423.59 787.22 423.63 774.25 418.49 774.25 418.56 787.22 357.83 787.22 357.82 774.25 353 774.25 353.07 787.22 335.26 787.22 335.26 802.72 342.7 802.72"/><polygon class="cls-14" points="323.3 901.49 322.34 912.14 372.21 912.14 372.21 900.54 372.21 879.53 342.7 879.53 342.36 898.63 323.3 901.49"/><polyline class="cls-14" points="453.94 901.49 454.9 912.14 405.03 912.14 405.03 900.54 405.03 879.53 434.28 879.53 434.89 898.63 453.94 901.49"/><rect class="cls-15" x="341.74" y="868.86" width="31.47" height="12.25"/><polyline class="cls-15" points="403.93 868.86 435.39 868.86 435.39 881.11 403.93 881.11 403.93 868.86"/><rect class="cls-16" x="342.7" y="857.22" width="29.51" height="5.21"/><polyline class="cls-16" points="405.02 857.22 434.28 857.22 434.28 862.43 405.02 862.43 405.02 857.22"/><rect class="cls-16" x="342.7" y="850.28" width="29.51" height="5.21"/><polyline class="cls-16" points="405.02 850.28 434.28 850.28 434.28 855.49 405.02 855.49 405.02 850.28"/><polyline class="cls-17" points="397.13 788.43 380.27 788.43 380.27 772.78 397.13 772.78 397.13 788.43"/><path class="cls-18" d="M342.47,696.76c.22,7.5.19,15.41-.18,23.68a321.34,321.34,0,0,1-7,53.81H441.73A338.18,338.18,0,0,1,436.62,729c-.52-11.56-.41-22.38.09-32.33.55,2.29,1.09,4.57,1.64,6.86L453,731.84l-18.55,10.74-2.31,21.29L480,748.19l1.5-21.08-43-61.48L339,665.49,299.56,730l-2.34,50.36h28.14q1.18-25.47,2.35-51l14.76-32.62"/><path class="cls-19" d="M342.47,696.76h0l-4.41,47.42h2.27c.91-7.56,1.58-15.48,2-23.74s.4-16.18.18-23.68"/><path class="cls-19" d="M339,665.49l3.51,31.27h0c.22,7.5.19,15.41-.18,23.68s-1.05,16.18-2,23.74h42l.09,1.74-4.26-80.37L339,665.49"/><path class="cls-19" d="M437.56,709.72l-1.27,6.19q0,6.39.33,13.11c.18,4.05.44,8,.75,11.87l2.12-1.23-1.93-29.94"/><path class="cls-19" d="M436.29,715.91l-5.79,28.27h3.78l.17-1.6,2.92-1.69c-.31-3.86-.57-7.82-.75-11.87q-.3-6.72-.33-13.11m-37.46-50.34-4.09,78.61h27.68l16-78.29v-.26h0l-39.64-.06"/><path class="cls-19" d="M337.53,749.82c-.16,1.76-.32,3.52-.49,5.29l.16-1.68h1.88c.13-.87.26-1.75.38-2.63h-2l.09-1"/><path class="cls-19" d="M382.7,750.8H339.46c-.12.88-.25,1.76-.38,2.63h43.76l-.14-2.63"/><path class="cls-19" d="M338.1,759.59h-1.48q-.67,7.33-1.36,14.66h0q1.53-7,2.84-14.66"/><path class="cls-19" d="M353,774.25H335.26v6.4H353l0-6.4m27.27,0H357.82v6.4h22.45v-6.4"/><polyline class="cls-19" points="357.82 774.25 353 774.25 353.03 780.65 357.82 780.65 357.82 774.25"/><path class="cls-19" d="M383.94,774.25h-3.67v6.4h4l-.34-6.4"/><path class="cls-19" d="M383.17,759.59H338.1q-1.31,7.63-2.84,14.66h48.68l-.77-14.66"/><path class="cls-19" d="M421.06,750.8H394.4l-.43,8.31.3-5.68h26.25l.54-2.63m12.5,0h-4.42l-.54,2.63h4.67l.29-2.63"/><path class="cls-19" d="M440.87,761l-1.22.4q.94,6.68,2.08,12.84h0v0L440.87,761"/><polyline class="cls-19" points="441.73 774.25 424.33 774.25 423.62 777.72 423.61 780.65 441.73 780.65 441.73 774.25"/><polyline class="cls-19" points="423.62 777.72 423.02 780.65 423.61 780.65 423.62 777.72"/><polyline class="cls-19" points="416.25 774.25 397.13 774.25 397.13 780.65 414.94 780.65 416.25 774.25"/><path class="cls-19" d="M397.13,774.25h-3.95l-.33,6.4h4.28v-6.4"/><path class="cls-19" d="M419.26,759.59H393.94l-.76,14.66h23.07l3-14.66m13.34,0h-5.26l-3,14.66h17.4q-1.12-6.16-2.08-12.84l-7.51,2.46.46-4.28"/><path class="cls-20" d="M340.33,744.18h-2.27l-.53,5.64-.09,1h2q.46-3.25.87-6.62"/><path class="cls-20" d="M382.35,744.18h-42q-.4,3.36-.87,6.62H382.7l-.26-4.88-.09-1.74"/><path class="cls-20" d="M339.08,753.43H337.2l-.16,1.68-.42,4.48h1.48c.34-2,.67-4.08,1-6.16"/><path class="cls-20" d="M382.84,753.43H339.08c-.31,2.08-.64,4.14-1,6.16h45.07l-.33-6.16"/><path class="cls-20" d="M422.42,744.18H394.74l-.35,6.62h26.67l1.36-6.62m11.86,0H430.5l-1.36,6.62h4.42l.72-6.62"/><path class="cls-20" d="M420.52,753.43H394.27l-.3,5.68,0,.48h25.32l1.26-6.16m12.75,0H428.6l-1.26,6.16h5.26l.67-6.16"/><g class="cls-21"><polyline class="cls-11" points="439.49 739.66 437.37 740.89 437.37 740.89 439.49 739.66 439.49 739.66"/><path class="cls-22" d="M440.21,750.8h-6.65l-.29,2.63h7.11v.2l-.18-2.83m-.72-11.14-2.12,1.23h0l-2.92,1.69-.17,1.6h5.5l-.29-4.52"/><polyline class="cls-11" points="440.87 761.01 439.65 761.41 439.65 761.41 440.87 761.01 440.87 761.01"/><polyline class="cls-22" points="440.78 759.59 432.6 759.59 432.14 763.87 439.65 761.41 439.65 761.41 440.87 761.01 440.78 759.59"/><polyline class="cls-22" points="439.78 744.18 439.78 744.18 434.28 744.18 433.56 750.8 440.21 750.8 439.78 744.18"/><polyline class="cls-22" points="440.38 753.43 433.27 753.43 432.6 759.59 440.78 759.59 440.39 753.63 440.38 753.43"/></g><polyline class="cls-23" points="408 853.98 400.24 852.39 458.5 568.1 466.25 569.69 408 853.98"/><path class="cls-24" d="M374.56,852.84l23.43,4.8,4.11-20.07,10.28,2.1-4.11,20.08,23.16,4.75-9.09,44.34a39.87,39.87,0,0,1-56.87-11.65l9.09-44.35"/><polyline class="cls-25" points="410.99 839.39 410.99 839.39 412.38 839.67 410.99 839.39"/><path class="cls-26" d="M416.69,912.14h0a40.72,40.72,0,0,1-17.27,4,40.68,40.68,0,0,0,17.27-4"/><path class="cls-27" d="M422.27,908.9a36.75,36.75,0,0,1-5.58,3.24h0a36.75,36.75,0,0,0,5.58-3.24"/><polyline class="cls-28" points="407.27 838.63 407.27 838.63 410.99 839.39 410.99 839.39 407.27 838.63"/><path class="cls-29" d="M407.27,838.63,392,915.42a39.42,39.42,0,0,0,7.3.69h.09a40.72,40.72,0,0,0,17.27-4,36.75,36.75,0,0,0,5.58-3.24l.07-.06,9.09-44.34-23.16-4.75,4.11-20.08-1.39-.28-3.72-.76"/><path class="cls-30" d="M343.31,638.78c6,18.85,22.21,32.35,41,34.16,21.81,2.11,43.11-12,50.37-34.16V583.47a192.61,192.61,0,0,0-91.31,8.68Q343.33,615.46,343.31,638.78Z"/><path class="cls-31" d="M343.31,620.7h-7c-2.44.71-5.59,2.49-5.87,8.4s1.88,8.54,3.77,9.68h9.13Z"/><path class="cls-31" d="M434.66,620.7h7c2.43.71,5.59,2.49,5.87,8.4s-1.89,8.54-3.77,9.68h-9.13Z"/><path class="cls-32" d="M343.35,592.15c2.49.09,6.14.64,8.69,3.24,3.91,4,1.52,9.16,4.39,11.44,5.27,4.17,18.7-8.87,23.46-5.28,4.54,3.42-2.9,18.89-.59,19.94,1.8.81,9.64-7.78,15-17.89,2-3.74,3.46-7.46,6.62-8,2.44-.41,5.3,1.18,6.81,3.31,2.41,3.35.58,6.79,2.11,7.61,2.17,1.18,6.31-5.59,14.63-9.89a33.43,33.43,0,0,1,10.23-3.3V620.7h7a66.15,66.15,0,0,0,2.44-15.51c.23-6.1.56-16.66-5-27.68a53.8,53.8,0,0,0-10.56-13.74c-19.08-17.32-64.79-21.6-84.79,3.07-10.81,13.35-11,31.38-11,33.93a57.52,57.52,0,0,0,3.62,19.93h7Z"/><path class="cls-33" d="M365.21,613.23H378.6a.79.79,0,0,0,0-1.58H365.21a.79.79,0,1,0,0,1.58"/><path class="cls-33" d="M399.41,613.23h13.38a.79.79,0,1,0,0-1.58H399.41a.79.79,0,1,0,0,1.58"/><path class="cls-34" d="M371.91,622.85c-1.16,0-3.72,1.58-3.35,6.32s2.13,5.3,3.35,5.3,3.34-2,3.34-5.81S373.06,622.85,371.91,622.85Z"/><path class="cls-34" d="M405.75,622.85c-1.15,0-3.72,1.58-3.35,6.32s2.14,5.3,3.35,5.3,3.35-2,3.35-5.81S406.9,622.85,405.75,622.85Z"/><path class="cls-35" d="M350,677a32.45,32.45,0,0,0,4.34,6c2.82,2.93,6.31,5.07,10.93,7.14a58.39,58.39,0,0,0,48.2-.21,33.22,33.22,0,0,0,10.19-6.71,32.16,32.16,0,0,0,4.44-6.13c3.53-6.38,6.3-20.29,6.61-38.37V618.06c-1.71,1-7.54,32.14-14.62,34.5s-14.27-2-26.43-3c-16.22-1.32-25.36,5.1-35.43,1.63-7.4-2.56-13.72-31.83-14.83-33.15q0,10.37,0,20.72C343.32,640,343.84,666,350,677Z"/><polygon class="cls-30" points="425.67 740.47 434.23 744.64 432.33 762.07 421.28 762.07 425.67 740.47"/><polygon class="cls-30" points="322.34 780.33 317.75 796.57 299.78 791.6 300.06 780.33 322.34 780.33"/><polyline class="cls-30" points="421.28 762.07 416.3 760.72 420.56 741.82 425.67 740.47"/><g class="cls-36"><g class="cls-37"><g class="cls-36"><path class="cls-38" d="M680.51,883.72l-27-16-28.5,2.11-21.6,17.28L610.71,913l37.08,6.61,32.72-35.89"/><g class="cls-39"><path class="cls-40" d="M623.1,915.21h0l7.25,1.29-7.25-1.29"/><path class="cls-41" d="M644.5,880.06l-10.34.77-9.06,3.47-5.53,4.42q1.77,13.24,3.53,26.49l7.25,1.29,17.43,3.11,4.86-5.38-1.29-.18h0l-11.07-26.38h0c1.41-2.53,2.81-5.07,4.22-7.61"/></g></g></g></g><g class="cls-42"><g class="cls-43"><g class="cls-44"><path class="cls-38" d="M623.42,917.63l-6.15-46.24Q603.8,855.19,590.32,839l-34.14-6.66-30,36.54,29.65,46,67.57,2.77"/><g class="cls-45"><polyline class="cls-40" points="554.88 913.36 554.88 913.36 555.84 914.85 555.85 914.86 555.85 914.86 555.85 914.86 554.88 913.36"/><path class="cls-41" d="M551,847.19l-4,3.55L580,867.89h0l-25.16,45.47,1,1.5,55.14.42h0l-8.12-26.77q-6.12-10.18-12.22-20.38l-11.4-8.21c.75-2.34,1.51-4.69,2.26-7l-1.06-1.77h0L551,847.19"/></g></g></g></g><g class="cls-46"><g class="cls-47"><g class="cls-48"><path class="cls-38" d="M672.66,866.07q-9.58-17.88-19.16-35.76l-31.68-17.18-29.6,6.42q-6.5,20.18-13,40.37l38,27.38,55.38-21.23"/><g class="cls-49"><path class="cls-41" d="M617.56,826.49l-25,7-13.35,26.41,38,27.38h0l30.3-12.79q4-7.15,7.93-14.32l-8.38-10.84-29.56-22.86h0"/></g></g></g></g><g class="cls-50"><g class="cls-51"><g class="cls-50"><path class="cls-38" d="M580.05,867.89l-33.48-17.35-31.9,4.72-17.26,22.29,13.41,39.68,42.08-.29,27.15-49.05"/><g class="cls-52"><path class="cls-41" d="M519.13,868.36q-6.82,10-13.66,20.08,2.67,14.4,5.35,28.79l21-.15,21-.14L573.81,876l-21.09-6.64-33.59-1"/></g></g></g></g><g class="cls-53"><g class="cls-54"><g class="cls-53"><path class="cls-38" d="M697.11,920.43q5.76-20.79,11.51-41.58l-21.53-15.93-31.32-3.19-15.49,27.94,11.07,26.38,45.76,6.38"/><g class="cls-55"><path class="cls-56" d="M640.28,887.67h0l11.07,26.38-11.07-26.38"/><path class="cls-41" d="M653,864.66h0l-12.76,23,11.07,26.38h0l34,4.75,10-36.09h0l-21.53-15.93L653,864.66"/></g></g></g></g></g></svg>