<svg xmlns="http://www.w3.org/2000/svg" xmlns:xlink="http://www.w3.org/1999/xlink" viewBox="0 0 3983.07 3175.16"><defs><style>.cls-1{isolation:isolate;}.cls-2{clip-path:url(#clip-path);}.cls-3,.cls-54{fill:none;}.cls-4{clip-path:url(#clip-path-2);}.cls-5{fill:#5e4d31;}.cls-6{fill:#34a35f;}.cls-7{clip-path:url(#clip-path-4);}.cls-8{mix-blend-mode:multiply;}.cls-9{clip-path:url(#clip-path-5);}.cls-10{clip-path:url(#clip-path-6);}.cls-11{fill:#a8a8a8;}.cls-12{clip-path:url(#clip-path-7);}.cls-13{clip-path:url(#clip-path-8);}.cls-14{clip-path:url(#clip-path-9);}.cls-15{fill:#969696;}.cls-16{clip-path:url(#clip-path-10);}.cls-17{clip-path:url(#clip-path-11);}.cls-18{clip-path:url(#clip-path-12);}.cls-19{clip-path:url(#clip-path-13);}.cls-20{clip-path:url(#clip-path-14);}.cls-21{clip-path:url(#clip-path-15);}.cls-22{clip-path:url(#clip-path-16);}.cls-23{fill:#46dd81;}.cls-24{clip-path:url(#clip-path-17);}.cls-25{clip-path:url(#clip-path-18);}.cls-26{clip-path:url(#clip-path-19);}.cls-27{fill:#59916f;}.cls-28{clip-path:url(#clip-path-20);}.cls-29{clip-path:url(#clip-path-21);}.cls-30{clip-path:url(#clip-path-22);}.cls-31{clip-path:url(#clip-path-23);}.cls-32{clip-path:url(#clip-path-24);}.cls-33{clip-path:url(#clip-path-25);}.cls-34{clip-path:url(#clip-path-26);}.cls-35{clip-path:url(#clip-path-27);}.cls-36{clip-path:url(#clip-path-28);}.cls-37{fill:#604d30;}.cls-38{fill:#836e63;}.cls-39{fill:#a28d82;}.cls-40{clip-path:url(#clip-path-29);}.cls-41{fill:#8d8d8d;}.cls-42{clip-path:url(#clip-path-30);}.cls-43{clip-path:url(#clip-path-31);}.cls-44{clip-path:url(#clip-path-32);}.cls-45{clip-path:url(#clip-path-33);}.cls-46{clip-path:url(#clip-path-34);}.cls-47{fill:#752f16;}.cls-48{fill:#3f311b;}.cls-49{fill:#725338;}.cls-50{fill:#9b925d;}.cls-51{fill:#e5a080;}.cls-52{fill:#d19176;}.cls-53{fill:#efd659;}.cls-54{stroke:#2f3e42;stroke-linecap:round;stroke-miterlimit:10;stroke-width:7px;}.cls-55{fill:#533412;}.cls-56{fill:#604530;}.cls-57{fill:#d1e951;}.cls-58{fill:#a8acae;}.cls-59{mask:url(#mask);}.cls-60{clip-path:url(#clip-path-35);}.cls-61{fill:#efc150;}.cls-62{fill:#2f3e42;}.cls-63{fill:#474747;}.cls-64{mask:url(#mask-2);}.cls-65{clip-path:url(#clip-path-36);}.cls-66{fill:#f25549;}.cls-67{clip-path:url(#clip-path-37);}.cls-68{fill:#c9c9c9;}.cls-69{fill:#455955;}.cls-70{fill:#253532;}.cls-71{fill:#bd553c;}.cls-72{fill:#7f5f3d;}.cls-73{fill:#f8fbf7;}.cls-74{fill:#2f3e43;}.cls-75{fill:#fffffc;}.cls-76{fill:#8b6338;}.cls-77{fill:#656a68;}.cls-78{fill:#94989b;}.cls-79{mask:url(#mask-3);}.cls-80{clip-path:url(#clip-path-38);}.cls-81{clip-path:url(#clip-path-39);}.cls-82{fill:#d1d1d1;}.cls-83{clip-path:url(#clip-path-40);}.cls-84{fill:#c4c5c4;}.cls-85{filter:url(#luminosity-noclip-3);}.cls-86{filter:url(#luminosity-noclip-2);}.cls-87{filter:url(#luminosity-noclip);}</style><clipPath id="clip-path"><rect class="cls-3" x="772.32" y="2263.08" width="162.58" height="79.21"/></clipPath><clipPath id="clip-path-2" transform="translate(0 0)"><rect class="cls-3" width="3983.07" height="3175.16"/></clipPath><clipPath id="clip-path-4" transform="translate(0 0)"><rect class="cls-3" x="2348.25" width="1594.9" height="2383.73"/></clipPath><clipPath id="clip-path-5" transform="translate(0 0)"><rect class="cls-3" x="2755.43" y="1323.14" width="913.85" height="29.59"/></clipPath><clipPath id="clip-path-6" transform="translate(0 0)"><rect class="cls-3" x="2755.43" y="1323.14" width="913.84" height="29.59"/></clipPath><clipPath id="clip-path-7" transform="translate(0 0)"><rect class="cls-3" x="3132.51" y="1906.96" width="138.1" height="118.37"/></clipPath><clipPath id="clip-path-8" transform="translate(0 0)"><rect class="cls-3" x="2860.47" width="343.74" height="698.84"/></clipPath><clipPath id="clip-path-9" transform="translate(0 0)"><rect class="cls-3" x="2860.47" width="343.74" height="698.84"/></clipPath><clipPath id="clip-path-10" transform="translate(0 0)"><rect class="cls-3" x="2483" y="1323.14" width="741.64" height="583.82"/></clipPath><clipPath id="clip-path-11" transform="translate(0 0)"><rect class="cls-3" x="2483" y="1323.14" width="741.64" height="583.81"/></clipPath><clipPath id="clip-path-12" transform="translate(0 0)"><rect class="cls-3" x="3132.51" y="1906.96" width="78.26" height="476.77"/></clipPath><clipPath id="clip-path-13" transform="translate(0 0)"><rect class="cls-3" x="2645.25" y="698.84" width="560.04" height="624.3"/></clipPath><clipPath id="clip-path-14" transform="translate(0 0)"><rect class="cls-3" x="2645.25" y="698.84" width="560.05" height="624.3"/></clipPath><clipPath id="clip-path-15" transform="translate(0 0)"><rect class="cls-3" x="2938.03" y="698.84" width="525.87" height="29.59"/></clipPath><clipPath id="clip-path-16" transform="translate(0 0)"><rect class="cls-3" x="2938.03" y="698.84" width="525.87" height="29.59"/></clipPath><clipPath id="clip-path-17" transform="translate(0 0)"><rect class="cls-3" x="2213.75" y="495.94" width="1111.22" height="1887.15"/></clipPath><clipPath id="clip-path-18" transform="translate(0 0)"><rect class="cls-3" x="2304.99" y="1623.23" width="932.07" height="22.5"/></clipPath><clipPath id="clip-path-19" transform="translate(0 0)"><rect class="cls-3" x="2304.99" y="1623.23" width="932.06" height="22.49"/></clipPath><clipPath id="clip-path-20" transform="translate(0 0)"><rect class="cls-3" x="2298.82" y="1825.75" width="940.74" height="23.29"/></clipPath><clipPath id="clip-path-21" transform="translate(0 0)"><rect class="cls-3" x="2298.82" y="1825.75" width="940.73" height="23.29"/></clipPath><clipPath id="clip-path-22" transform="translate(0 0)"><rect class="cls-3" x="2213.75" y="495.94" width="554.49" height="1127.29"/></clipPath><clipPath id="clip-path-23" transform="translate(0 0)"><rect class="cls-3" x="2213.75" y="1620.09" width="554.49" height="205.6"/></clipPath><clipPath id="clip-path-24" transform="translate(0 0)"><rect class="cls-3" x="2213.75" y="1620.09" width="554.48" height="205.61"/></clipPath><clipPath id="clip-path-25" transform="translate(0 0)"><rect class="cls-3" x="2213.75" y="1825.36" width="554.49" height="195.3"/></clipPath><clipPath id="clip-path-26" transform="translate(0 0)"><rect class="cls-3" x="2213.75" y="1825.36" width="554.48" height="195.3"/></clipPath><clipPath id="clip-path-27" transform="translate(0 0)"><rect class="cls-3" x="2708.75" y="2020.66" width="59.49" height="362.43"/></clipPath><clipPath id="clip-path-28" transform="translate(0 0)"><rect class="cls-3" width="3983.07" height="3175.16"/></clipPath><clipPath id="clip-path-29" transform="translate(0 0)"><rect class="cls-3" x="2245.75" y="2197.2" width="657.93" height="185.82"/></clipPath><clipPath id="clip-path-30" transform="translate(0 0)"><rect class="cls-3" x="9.63" y="3065.67" width="3970.3" height="98.98"/></clipPath><clipPath id="clip-path-31" transform="translate(0 0)"><rect class="cls-3" x="73.54" y="2875.9" width="3838.79" height="146.99"/></clipPath><clipPath id="clip-path-32" transform="translate(0 0)"><rect class="cls-3" x="113.95" y="2676.06" width="3711.08" height="96.12"/></clipPath><clipPath id="clip-path-33" transform="translate(0 0)"><rect class="cls-3" x="204.65" y="2515.08" width="3541.07" height="92.74"/></clipPath><clipPath id="clip-path-34" transform="translate(0 0)"><rect class="cls-3" x="259.97" y="2394.67" width="3433.86" height="101.21"/></clipPath><filter id="luminosity-noclip" x="940.51" y="1800.78" width="66.86" height="93.56" filterUnits="userSpaceOnUse" color-interpolation-filters="sRGB"><feFlood flood-color="#fff" result="bg"/><feBlend in="SourceGraphic" in2="bg"/></filter><mask id="mask" x="940.51" y="1800.78" width="66.86" height="93.56" maskUnits="userSpaceOnUse"><g class="cls-87"><g transform="translate(0 0)"><g class="cls-1"><path d="M980,1850h16.37c-.9,16.22-10.6,29-22.42,29-12.41,0-22.48-14.08-22.48-31.46s10.07-31.46,22.48-31.46c11.59,0,21.13,12.26,22.35,28l-16.33.23Z"/></g></g></g></mask><clipPath id="clip-path-35" transform="translate(0 0)"><rect class="cls-3" x="940.51" y="1800.78" width="66.86" height="93.56"/></clipPath><filter id="luminosity-noclip-2" x="681.92" y="2206.69" width="283.77" height="179.11" filterUnits="userSpaceOnUse" color-interpolation-filters="sRGB"><feFlood flood-color="#fff" result="bg"/><feBlend in="SourceGraphic" in2="bg"/></filter><mask id="mask-2" x="681.92" y="2206.7" width="283.77" height="179.11" maskUnits="userSpaceOnUse"><g class="cls-86"><g transform="translate(0 0)"><g class="cls-2"><g class="cls-1"><path d="M806.26,2342.23a30.35,30.35,0,0,1-9.88-1,31.16,31.16,0,0,1-13.77-8,32.43,32.43,0,0,1-7.66-13.19c-1.45-4.25-6.23-20.43,2.38-34.56,3.61-5.92,8.35-9.48,12.51-12.6a50.06,50.06,0,0,1,14.31-7.94c2.9-1,9.27-2.77,23-1.38,9.45,1,18.09,3,30.57,7.14,12.29,4.1,20.07,7.51,30.81,12,9.35,3.91,23.14,9.56,40.39,16.19a7.58,7.58,0,0,1,2.46,1.22,8.77,8.77,0,0,1,2.24,2.77c1.57,3.1,1.27,8.76,1.17,13.48-.09,4.16-.09,10.48-1.9,13.43a8.07,8.07,0,0,1-4.94,3.67c-8.94,2.5-121.71,8.73-121.71,8.73"/></g></g></g></g></mask><clipPath id="clip-path-36" transform="translate(0 0)"><rect class="cls-3" x="681.92" y="2206.69" width="283.77" height="179.11"/></clipPath><clipPath id="clip-path-37" transform="translate(0 0)"><rect class="cls-3" x="504.32" y="2172.57" width="302.15" height="214.07"/></clipPath><filter id="luminosity-noclip-3" x="1693.89" y="1821.48" width="127.54" height="107.79" filterUnits="userSpaceOnUse" color-interpolation-filters="sRGB"><feFlood flood-color="#fff" result="bg"/><feBlend in="SourceGraphic" in2="bg"/></filter><mask id="mask-3" x="1693.89" y="1821.48" width="127.54" height="107.79" maskUnits="userSpaceOnUse"><g class="cls-85"><g transform="translate(0 0)"><g class="cls-1"><polygon points="1721.63 1905.25 1721.63 1846.49 1793.14 1846.49 1793.14 1866.85 1763.79 1866.83 1763.79 1883.91 1793.14 1883.91 1793.14 1905.25 1721.63 1905.25"/></g></g></g></mask><clipPath id="clip-path-38" transform="translate(0 0)"><rect class="cls-3" x="1693.89" y="1821.48" width="127.53" height="107.79"/></clipPath><clipPath id="clip-path-39" transform="translate(0 0)"><rect class="cls-3" x="1527.37" y="1436.73" width="229.41" height="409.76"/></clipPath><clipPath id="clip-path-40" transform="translate(0 0)"><rect class="cls-3" x="1478.08" y="1465.3" width="76.11" height="304.41"/></clipPath></defs><title>Chapter2</title><g class="cls-1"><g id="Layer_2" data-name="Layer 2"><g id="Layer_1-2" data-name="Layer 1"><g id="Neissen_szene01"><g class="cls-4"><g class="cls-4"><rect class="cls-5" x="3132.51" y="1768.86" width="137.45" height="614.87"/><polygon class="cls-6" points="2848.03 1165.49 2483 1906.96 3213.07 1906.96 3943.14 1906.96 3943.14 1906.96 3578.11 1165.49 3213.07 424.02 2848.03 1165.49"/><polygon class="cls-6" points="3200.73 194.83 3478.48 758.99 3756.22 1323.14 3200.73 1323.14 2645.24 1323.14 2922.99 758.99 3200.73 194.83"/><polygon class="cls-6" points="3205.29 0 3033.27 349.42 2861.24 698.84 3205.29 698.84 3549.35 698.84 3377.32 349.42 3205.29 0 3205.29 0"/><g class="cls-7"><g class="cls-8"><g class="cls-9"><g class="cls-10"><path class="cls-11" d="M2755.43,1352.73h913.85l-14.79-29.59H2769.3q-6.95,14.8-13.87,29.59" transform="translate(0 0)"/></g></g></g><g class="cls-8"><g class="cls-12"><rect class="cls-11" x="3132.51" y="1906.96" width="138.1" height="118.37"/></g></g><g class="cls-8"><g class="cls-13"><g class="cls-14"><path class="cls-15" d="M3204.21,0l-21.15,698.69-322.6.15,171.88-349.42Z" transform="translate(0 0)"/></g></g></g><g class="cls-8"><g class="cls-16"><g class="cls-17"><path class="cls-15" d="M3224.63,1323.14V1907H2483l286.23-581.43,455.4-2.39" transform="translate(0 0)"/></g></g></g><g class="cls-8"><g class="cls-18"><rect class="cls-15" x="3132.51" y="1906.96" width="78.26" height="476.77"/></g></g><g class="cls-8"><g class="cls-19"><g class="cls-20"><path class="cls-15" d="M3205.29,698.84l-1.08,624.3h-559Q2798.93,1011,2952.6,698.84Z" transform="translate(0 0)"/></g></g></g><g class="cls-8"><g class="cls-21"><g class="cls-22"><path class="cls-11" d="M2938,728.43H3463.9q-7.16-14.79-14.32-29.59h-497q-7.28,14.79-14.57,29.59" transform="translate(0 0)"/></g></g></g></g><rect class="cls-5" x="2708.75" y="1915.68" width="104.48" height="467.41"/><polygon class="cls-23" points="2492.5 1457.01 2215 2020.66 2769.99 2020.66 3324.97 2020.66 3047.48 1457.01 2769.99 893.37 2492.5 1457.01"/><polygon class="cls-23" points="2492.5 1262.05 2215 1825.7 2769.99 1825.7 3324.97 1825.7 3047.48 1262.05 2769.99 698.4 2492.5 1262.05"/><polygon class="cls-23" points="2769.99 495.94 2492.5 1059.59 2215 1623.23 2769.99 1623.23 3324.97 1623.23 3047.48 1059.59 2769.99 495.94 2769.99 495.94"/><g class="cls-24"><g class="cls-8"><g class="cls-25"><g class="cls-26"><path class="cls-27" d="M2305,1645.73h932.06q-6-11.25-12-22.5H2317.32l-12.33,22.5" transform="translate(0 0)"/></g></g></g><g class="cls-8"><g class="cls-28"><g class="cls-29"><path class="cls-27" d="M2298.82,1849h940.73l-12.1-23.28H2311.27L2298.82,1849" transform="translate(0 0)"/></g></g></g><g class="cls-8"><g class="cls-30"><polygon class="cls-27" points="2768.24 495.94 2490.99 1059.59 2213.75 1623.23 2768.24 1623.23 2768.24 495.94"/></g></g><g class="cls-8"><g class="cls-31"><g class="cls-32"><path class="cls-27" d="M2768.24,1620.08V1825.7H2213.75q49.76-102.39,99.5-204.77l455-.85" transform="translate(0 0)"/></g></g></g><g class="cls-8"><g class="cls-33"><g class="cls-34"><path class="cls-27" d="M2768.24,1825.58v195.08H2213.75q48.2-97.65,96.37-195.3l458.12.22" transform="translate(0 0)"/></g></g></g><g class="cls-8"><g class="cls-35"><rect class="cls-27" x="2708.75" y="2020.66" width="59.49" height="362.43"/></g></g></g><g class="cls-36"><path class="cls-37" d="M2296.82,2252.9c-45.23,30-54.81,70.84-49.92,87s30,44.59,66.46,43.09,590.32-9.13,590.32-9.13-27.22,14.11-60.24-32.34-53.82-107.46-13.15-144.3Z" transform="translate(0 0)"/><path class="cls-38" d="M2903.68,2373.84s-27.22,14.11-60.24-32.34-53.83-107.46-13.15-144.3c0,0,17.6-17.6,66-2.71s104.43,43.52,106.76,65.92-1.33,70.29-35.44,95.64-63.94,17.79-63.94,17.79" transform="translate(0 0)"/><path class="cls-39" d="M2864.21,2202.09c9.1,0,19.45,1.77,30.76,5.24,23.06,7.09,46.45,17.07,64.17,27.36,26.85,15.6,29.82,25.3,30.09,27.91,2.15,20.72-1.77,61.41-30.13,82.49-17.93,13.32-34.28,16.12-44.84,16.12a41.31,41.31,0,0,1-8.65-.77l-2.5-.82-2.39,1.36a17.63,17.63,0,0,1-6.59,1.12c-7.43,0-22.57-3.76-40.49-29-16.32-22.95-27.18-46.91-30.58-67.45-4-24,1.87-43.31,17.36-57.33l.13-.12.12-.12c.06-.06,6.78-6,23.54-6h0m0-7c-20.4,0-28.48,8.08-28.48,8.08-37.78,34.21-18.46,90.89,12.21,134,19.09,26.84,36.08,31.91,46.2,31.91a22.84,22.84,0,0,0,9.75-1.87,46.52,46.52,0,0,0,10.38,1c10.89,0,29.17-2.76,49-17.5,31.69-23.56,35.08-68,32.92-88.83s-54.2-47.41-99.16-61.24c-13.36-4.11-24.2-5.55-32.83-5.55" transform="translate(0 0)"/><path class="cls-39" d="M2874.93,2223.83a77.84,77.84,0,0,1,22.46,3.83c17.09,5.26,34.43,12.65,47.56,20.27,15.37,8.93,21.24,16.09,21.59,19.5,1.57,15.1-1.25,44.73-21.8,60-13,9.66-24.81,11.69-32.43,11.69a30.67,30.67,0,0,1-6-.52l-2.39-.93-2.47,1.46a11.84,11.84,0,0,1-4.14.65c-5.21,0-15.88-2.71-28.8-20.88-12-16.93-20-34.55-22.53-49.64-2.86-17.3,1.31-31.17,12.41-41.22v.06l.19-.22c.71-.57,5.45-4.05,16.39-4.05h0m0-7c-15.24,0-21.27,6-21.27,6-28.22,25.55-13.79,67.88,9.12,100.09,14.25,20.05,26.94,23.83,34.5,23.83a17.09,17.09,0,0,0,7.28-1.39,34.82,34.82,0,0,0,7.75.73c8.14,0,21.79-2.06,36.61-13.07,23.66-17.59,26.2-50.8,24.59-66.35s-40.48-35.4-74.06-45.73a83.74,83.74,0,0,0-24.52-4.14" transform="translate(0 0)"/><path class="cls-39" d="M2884,2235.2v7h0a53.66,53.66,0,0,1,15.43,2.65,168.81,168.81,0,0,1,33.51,14.28c11.46,6.66,14.29,11.2,14.42,12.38,1.07,10.35-.82,30.63-14.75,41-8.84,6.56-16.81,7.94-21.94,7.94a20.85,20.85,0,0,1-3.82-.31l-2.3-1.08-2.51,1.58a7.13,7.13,0,0,1-2.1.28c-3.33,0-10.21-1.82-18.91-14-7-9.84-28.22-43.41-7.51-62.16l-.06.13.22-.26c.65-.47,3.69-2.36,10.32-2.37v-7m0,0c-10.87,0-15.18,4.31-15.18,4.31-20.12,18.22-9.83,48.42,6.51,71.4,10.17,14.3,19.22,17,24.61,17a12.23,12.23,0,0,0,5.2-1,24.86,24.86,0,0,0,5.53.52c5.8,0,15.54-1.47,26.11-9.33,16.88-12.54,18.69-36.24,17.54-47.32s-28.88-25.26-52.83-32.63a59.78,59.78,0,0,0-17.49-3" transform="translate(0 0)"/><g class="cls-8"><g class="cls-40"><path class="cls-41" d="M2296.82,2252.9c-45.23,30-54.81,70.84-49.92,87s30,44.59,66.46,43.09,590.32-9.13,590.32-9.13-27.22,14.11-60.24-32.34-53.82-107.46-13.15-144.3Z" transform="translate(0 0)"/></g></g><path class="cls-38" d="M0,2991.71q1301.09-3,2601.73,15.52,690.66,9.86,1381.34,25.8l-11.59,142.13s-1215.4-1.38-1957-18.07c-440-9.89-2005.47,1-2005.47,1Z" transform="translate(0 0)"/><path class="cls-38" d="M56.41,2785.88q1131-64.27,2259.28-32.4c24.36.69,199,9.19,435.2,15.88,191.5,5.42,408.82,11.37,659.91,8.32,116.52-1.41,289.3-5.36,501.56-17.46l-6.78,288.09s-1201.23-3.87-1975.88-20.55c-459.54-9.9-1850,20.55-1850,20.55q-11.66-131.22-23.32-262.43" transform="translate(0 0)"/><path class="cls-38" d="M104.49,2626c665.66-75.91,1203.42-71.79,1580.68-52.25,327.72,17,521.76,62.21,913.67,54.34,312.13-6.27,1088.57-36.31,1217.33-46l3.9,188.08c-243.09,15.06-610.54,33.1-1059.63,36-499.59,3.28-750.72-14.56-1206.81-20.45-342.3-4.43-834.42-2.6-1438.17,28.82q-5.49-94.31-11-188.6" transform="translate(0 0)"/><path class="cls-38" d="M199.42,2465.62c130.33,11.88,886.32,25.75,1554.09,42.31,257.64,6.39,964.34,5.31,1070.08,3.14,298.81-6.13,793.81-14.06,917.07-23.51v130.36c-232.71,14.72-584.48,32.36-1014.41,35.24-473.11,3.17-745.81-57.45-1186.75-63.72-327.11-4.66-764.91,39.79-1340.08,66.91Z" transform="translate(0 0)"/><path class="cls-38" d="M254.9,2370.25c199,.37,504.25,1.13,877.75,2.9,806.34,3.82,1039.61,8.13,1433.57,4.18,266.64-2.68,652.8-9.61,1124.28-29.26q-2.65,87.24-5.32,174.49c-212.91,15.62-556.68,35.58-982.62,35.23-523.33-.42-759.89-31.17-1254.83-36.83-273.14-3.13-683.86.72-1192.83,40Z" transform="translate(0 0)"/><g class="cls-8"><g class="cls-42"><path class="cls-41" d="M9.63,3065.81Q1243.11,3064,2476,3086.51q752,13.75,1503.89,36.58l-3.39,41.56s-1215.39-1.38-1957-18.06c-440-9.9-2005.47,1-2005.47,1l-4.41-81.82" transform="translate(0 0)"/></g></g><g class="cls-8"><g class="cls-43"><path class="cls-41" d="M73.54,2890.34c752.37-12.12,1494.8-15.25,2247.21-14.28,217.23.28,388.17,1,447.94,1.35,492.58,2.82,889.67,9.47,1143.64,14.51q-.78,39.26-1.22,79.07-.29,26.07-.4,51.9-979.14-22.51-1958.52-32.8-935.84-9.83-1871.68-8.46Z" transform="translate(0 0)"/></g></g><g class="cls-8"><g class="cls-44"><path class="cls-41" d="M114,2691.14c139.11,4.89,354.47,10.67,618.35,10,492.92-1.17,662.49-23.92,1120.11-25.08,365.47-.92,382.13,13.64,819.18,20.9,291.21,4.84,683.39,5,1152-13.58q.73,35.6,1.48,71.19c-649.49,12.95-927.38,12.27-1047.85,7.73-18.15-.69-116.88-4.58-251.23-7.26-60.36-1.21-129-2.15-204.61-2.48-86-.37-124.21.31-348.6,1.34-182.92.84-273.73.93-379.54,1.27-183.15.58-572.49,4.11-1474.53,17q-2.36-40.53-4.72-81.05" transform="translate(0 0)"/></g></g><g class="cls-8"><g class="cls-45"><path class="cls-41" d="M204.65,2521.27c654.87-9.11,1183.54,1.86,1553.93,14.18,333.7,11.11,613.75,25.81,1036.35,20.93,401.08-4.63,730.34-24.59,950.79-41.3l-.21,60.2c-223.59,14.15-559.63,30.76-969.48,32.41-514.36,2.07-767.57-20.94-1231.47-28.76-320.85-5.41-779.13-4.17-1339.41,28.76q-.26-43.21-.5-86.42" transform="translate(0 0)"/></g></g><g class="cls-8"><g class="cls-46"><path class="cls-41" d="M260,2416.78c199,.37,504.25,1.13,877.74,2.9,805.84,3.82,1039.28,8.14,1433.57,4.18,266.49-2.68,652-9.6,1122.55-29.19l-2.61,85.5c-436.06,20.25-793.76,17.45-1044.27,10.77-543.9-14.5-781.82-52.58-1335.22-49.79-60.41.31-308,2-627.64,8-178.86,3.31-326,6.94-424.12,9.54Z" transform="translate(0 0)"/></g></g><rect class="cls-47" x="763.99" y="1815.05" width="417.72" height="65.51"/><polygon class="cls-48" points="793.18 1949.75 793.18 2248.22 908.97 2248.22 908.97 1949.75 1037.68 1949.75 1037.68 2248.22 1152.51 2248.22 1152.51 1949.75 1181.71 1949.75 1181.71 1880.56 1110.54 1880.56 1110.73 1815.05 1090.53 1815.05 1090.81 1880.56 852.55 1880.56 852.5 1815.05 833.58 1815.05 833.87 1880.56 763.99 1880.56 763.99 1949.75 793.18 1949.75"/><polygon class="cls-49" points="717.05 2337.3 713.32 2379.09 908.97 2379.09 908.97 2333.56 908.97 2188.33 793.18 2188.33 791.83 2326.08 717.05 2337.3"/><polygon class="cls-49" points="1229.65 2337.3 1233.38 2379.09 1037.73 2379.09 1037.73 2333.56 1037.73 2188.33 1152.51 2188.33 1154.87 2326.08 1229.65 2337.3"/><polygon class="cls-50" points="792.28 1534.03 734.36 1662.03 725.16 1861.93 614.73 1861.93 623.93 1664.33 778.52 1411.35 870.78 1406.56 973.94 1475.55 1075.22 1406.26 1168.94 1411.89 1322.56 1664.33 1331.77 1861.93 1221.33 1861.93 1212.13 1662.03 1171.78 1534.03 1181.71 1815.05 763.99 1815.05 792.28 1534.03"/><path class="cls-51" d="M795.73,1410.45l178.21,65.1L1154,1411V1087.44s-95.84,36.55-169.77,40.7-159.72,2.91-188.47-6.64Z" transform="translate(0 0)"/><path class="cls-52" d="M795.73,1233.52H760.29c-12.29,2.79-28.21,9.78-29.61,33s9.5,33.51,19,38h46.05Z" transform="translate(0 0)"/><path class="cls-52" d="M1154,1233.52h35.45c12.29,2.79,28.2,9.78,29.6,33s-9.49,33.51-19,38H1154Z" transform="translate(0 0)"/><path class="cls-53" d="M795.73,1121.5c5.61,1.57,14.48,4,25.44,6.45,115.36,26.2,302.85,27,353.25-64.5,20.31-36.85,19.07-89.94-3.07-105.07-19.24-13.15-54,2.64-66.72,8.44-37.81,17.2-37.91,34.12-62.12,43.71-45.83,18.17-73.23-33.89-145.71-35.85-6.26-.17-80.93-1.15-119.07,48.32-26.88,34.88-25.31,81.48-23.59,132.32,1,27.94,6.15,78.2,6.15,78.2h35.44Z" transform="translate(0 0)"/><polygon class="cls-51" points="1236.64 1861.93 1254.65 1925.63 1325.17 1906.14 1324.06 1861.93 1236.64 1861.93"/><polygon class="cls-51" points="713.32 1861.93 695.31 1925.63 624.78 1906.14 625.9 1861.93 713.32 1861.93"/><line class="cls-54" x1="881.52" y1="1180.17" x2="934.03" y2="1180.17"/><line class="cls-54" x1="1015.68" y1="1180.17" x2="1068.19" y2="1180.17"/><path class="cls-55" d="M907.77,1221c-4.52,0-14.58,6.2-13.12,24.8s8.35,20.8,13.12,20.8,13.13-7.66,13.13-22.8-8.6-22.8-13.13-22.8" transform="translate(0 0)"/><path class="cls-55" d="M1040.56,1221c-4.52,0-14.59,6.2-13.13,24.8s8.36,20.8,13.13,20.8,13.13-7.66,13.13-22.8-8.6-22.8-13.13-22.8" transform="translate(0 0)"/><rect class="cls-56" x="789.43" y="2188.33" width="123.47" height="22.05"/><rect class="cls-56" x="1033.4" y="2188.33" width="123.47" height="22.05"/><polygon class="cls-57" points="1168.94 1411.89 1075.22 1406.26 973.94 1475.55 870.78 1406.56 778.52 1411.35 792.28 1534.03 763.99 1815.05 1181.71 1815.05 1168.94 1411.89"/><polygon class="cls-58" points="778.23 1677.82 948.95 1677.82 948.95 1698.09 776.19 1698.09 778.23 1677.82"/><polygon class="cls-58" points="773.55 1720.03 948.95 1720.03 948.95 1740.64 771.48 1740.64 773.55 1720.03"/><polygon class="cls-58" points="1176.86 1677.82 1001.73 1677.82 1001.73 1698.09 1178 1698.09 1176.86 1677.82"/><polygon class="cls-58" points="1178.7 1720.03 1001.73 1720.03 1001.73 1740.64 1179.35 1740.64 1178.7 1720.03"/><g class="cls-59"><g class="cls-60"><path class="cls-61" d="M1007.37,1847.56c0,25.84-15,46.78-33.43,46.78s-33.43-20.94-33.43-46.78,15-46.78,33.43-46.78,33.43,20.94,33.43,46.78" transform="translate(0 0)"/></g></g><path class="cls-62" d="M1003.64,1360.25c-6.06-4.57-9.36-10.72-18.41-13-1.94-.5-9.7-2.48-14.15,1.18-4.44-3.66-12.2-1.68-14.14-1.18-9.05,2.32-12.35,8.47-18.41,13-5.85,4.41-15.82,8.54-33.74,6.13a171.29,171.29,0,0,0,28.37,8.44c17.79,3.66,27,5.42,33.75,0a18.67,18.67,0,0,0,4.17-4.93,18.89,18.89,0,0,0,4.18,4.93c6.71,5.42,16,3.66,33.74,0a171.45,171.45,0,0,0,28.38-8.44c-17.92,2.41-27.9-1.72-33.74-6.13" transform="translate(0 0)"/><path class="cls-63" d="M234.61,2192.77a36.35,36.35,0,0,0-17,2.8,40.13,40.13,0,0,0-8,4.95,60,60,0,0,0-13.33,13.22,55.69,55.69,0,0,0-10.05,30.63,55.05,55.05,0,0,0,5.41,24.73,38.8,38.8,0,0,0,11.91,14.31,42.43,42.43,0,0,0,12.48,5.77c12.25,3.24,140.21,7.29,314.47,10.4l13.59-91.74c-172.63-8.52-298.31-14.48-309.47-15.07" transform="translate(0 0)"/><g class="cls-64"><g class="cls-65"><path class="cls-63" d="M681.92,2385.81c24.6-3.49,44.86-6,58.87-7.71h0l187.09-9.64a49.22,49.22,0,0,0,8.44-1.59c4.14-1.17,16.94-4.76,24.72-16.58a35.59,35.59,0,0,0,4.64-10.45q-.12-26.39-.25-52.77a18,18,0,0,0-2.36-5.53c-2.08-3.19-4.81-5-14.74-10.13-2.35-1.21-5.35-2.72-8.86-4.44-78.17-29.28-109.7-41.44-119.33-45.49L802,2213.87c-10.62-4.46-15.93-6.69-16.18-6.76-17.38-5.1-53.25,37.33-77.16,89.46a340.93,340.93,0,0,0-26.74,89.24" transform="translate(0 0)"/></g></g><path class="cls-66" d="M527.48,2367.47A170.55,170.55,0,0,1,510,2325.85a177.65,177.65,0,0,1-5.69-36.74c-2.74-43.56,2.29-93.7,4.41-112.73l17-21.46,78.74.31,22.06-24,61.53.46,103,40.85,14.7,50.22a23.85,23.85,0,0,1,.7,7.48,21.22,21.22,0,0,1-2.07,8.17,20.33,20.33,0,0,1-8.67,8.54c-10.21,5.64-16.68-1.18-29.51,2.18-.74.19-12.47,3.43-19.44,13.54-4.79,7-5.13,14-5.41,24.94-.7,27.92-.3,54.08-.19,64.07.06,5.76.07,14.95-.34,26.39a434.37,434.37,0,0,1-213.31-10.63" transform="translate(0 0)"/><g class="cls-8"><g class="cls-67"><path class="cls-68" d="M527.48,2367.47a169.27,169.27,0,0,1-23.16-78.36,261.79,261.79,0,0,0,94.22,14.78c17.6-.5,52.5-1.83,89-18.68,65.88-30.4,94.72-91.72,103.44-112.64l14.7,50.22a23.85,23.85,0,0,1,.7,7.48,21.22,21.22,0,0,1-2.07,8.17,20.33,20.33,0,0,1-8.67,8.54c-10.21,5.64-16.68-1.18-29.51,2.18-.74.19-12.47,3.43-19.44,13.54-4.79,7-5.13,14-5.41,24.94-.7,27.92-.3,54.08-.19,64.07.06,5.76.07,14.95-.34,26.39a434.37,434.37,0,0,1-213.31-10.63" transform="translate(0 0)"/></g></g><path class="cls-63" d="M535.17,2386.37c.27,1,2.45,8.6,9.23,11.08a15.81,15.81,0,0,0,8,.48,16.67,16.67,0,0,0,8.5-3.75,16.3,16.3,0,0,0,5.14-8.43c1.6-26.38,5.8-93,12-158,2.81-29.55,5.53-53.47,9.35-80.09,2.43-16.86,4.72-30.82,6.38-40.46a16.82,16.82,0,0,1,3.74-9.56,16.48,16.48,0,0,1,6.1-4.62l56,38.53,28.44.21,57.83,23-130.57-90.53a35.27,35.27,0,0,0-17.35-1.82c-12.93,2-20.56,10.91-23.39,14.22-2.51,2.93-6.44,8.29-10.54,21.72a142.4,142.4,0,0,0-6,42.08,309,309,0,0,1-21-26.83c-10.51-15.08-11.94-20-12.54-22.53-.86-3.57-3.87-16,1.07-28.78,1.43-3.7,3.89-8.35,5.2-16,1-5.88.53-8.85-1.19-11-1.47-1.85-4.19-3.55-6.75-3s-4.11,3.29-4.91,4.83c-6,11.59-9,17.38-9.67,19.61-5.32,17.15-5.63,13.07-10.16,28.51a290.65,290.65,0,0,0-6.78,28.95c-3.88,19.86-3.75,26.89-3.62,30,0,.57.53,11.33,3.46,18.44,4.07,9.87,13.95,15.51,17.25,17.24l.36-3.34,17-21.47,30.47.12q-10.51,104.84-21,209.67,0,10.83,0,21.66" transform="translate(0 0)"/><polygon class="cls-49" points="1518.62 2357.17 1518.62 2385.34 1694.71 2385.34 1694.71 2313.15 1583.78 2313.15 1582.02 2341.32 1518.62 2357.17"/><polygon class="cls-49" points="1993.77 2357.17 1993.77 2385.34 1817.68 2385.34 1817.68 2313.15 1928.62 2313.15 1930.38 2341.32 1993.77 2357.17"/><rect class="cls-69" x="1571.45" y="2260.32" width="136.08" height="52.83"/><rect class="cls-69" x="1806.44" y="2260.32" width="136.08" height="52.83"/><rect class="cls-47" x="1556.2" y="1846.5" width="399.07" height="62.58"/><polygon class="cls-70" points="1584.1 1975.18 1584.1 2260.32 1694.71 2260.32 1694.71 1975.18 1817.68 1975.18 1817.68 2260.32 1927.38 2260.32 1927.38 1975.18 1955.27 1975.18 1955.27 1909.08 1887.29 1909.08 1887.46 1846.49 1868.16 1846.49 1868.43 1909.08 1640.81 1909.08 1640.76 1846.49 1622.69 1846.49 1622.96 1909.08 1556.2 1909.08 1556.2 1975.18 1584.1 1975.18"/><polygon class="cls-71" points="1566.81 1395.11 1756.78 1522.16 1942.5 1395.11 1942.5 1443.42 2156.09 1701.8 2069.56 1891.29 1955.27 1825.57 2025.75 1685.37 1945.79 1578.03 1756.78 1578.03 1583.24 1578.03 1521.9 1769.71 1414.56 1811.33 1325.83 1550.64 1462.75 1521.07 1478.09 1593.36 1556.2 1461.92 1570.09 1460.83 1566.81 1395.11"/><polygon class="cls-72" points="1527.37 1846.49 1949.78 1846.49 1955.27 1825.57 1976.03 1784.28 1955.27 1436.73 1756.78 1540.79 1556.2 1436.73 1527.37 1846.49"/><path class="cls-49" d="M1583.77,1578h109.78s19.41,116.11-50.93,116.11S1583.77,1578,1583.77,1578" transform="translate(0 0)"/><path class="cls-49" d="M1817.08,1578h109.78s19.41,116.11-50.94,116.11S1817.08,1578,1817.08,1578" transform="translate(0 0)"/><path class="cls-51" d="M1586.53,1408.3l170.25,113.86,172-117.66V991.41s-91.56,34.91-162.18,38.88-152.6,2.78-180.06-6.35Z" transform="translate(0 0)"/><polygon class="cls-73" points="1682.21 1472.29 1829.68 1472.29 1756.78 1522.16 1682.21 1472.29"/><path class="cls-74" d="M1586.53,1191.38c-6.15,11.25-42.15,79.63-13.57,151.57,40.93,103,172.39,107.76,180.6,107.92,61.52,1.24,166.63-20.93,189.2-107.13,5.91-22.61,16.87-97.6-14-152.36l-43.94,57.14c-28.42-26.86-52.52-33.77-69.62-34.92-23.06-1.55-59.26,5.56-59.26,5.56A130.75,130.75,0,0,0,1630.1,1243Z" transform="translate(0 0)"/><path class="cls-75" d="M1721.21,1267.58A46.56,46.56,0,0,0,1743,1255.5a45.64,45.64,0,0,0,8.89-12.54h7.87a67.42,67.42,0,0,0,32.88,24.62,97.42,97.42,0,0,1-71.43,0" transform="translate(0 0)"/><path class="cls-52" d="M1586.53,1131h-33.86c-11.74,2.67-27,9.34-28.28,31.49s9.07,32,18.14,36.29h44Z" transform="translate(0 0)"/><path class="cls-52" d="M1928.77,1131h33.86c11.74,2.67,26.95,9.34,28.29,31.49s-9.08,32-18.15,36.29h-44Z" transform="translate(0 0)"/><path class="cls-74" d="M1586.53,1023.94c4.46,1.28,13,5,24.31,6.17,221.11,23.75,363.17-52.75,377.05-65.78,2.87-2.69,10.17-8.78,9.12-14.15-.56-2.88-4.24-5.19-10.15-6.88-15-4.31-27.39-3.51-67.59-5.51,0,0,31.75-9.07,36.82-21.88s-75-32.81-182-28.28-172.37,31.22-190,55.5-17.35,47.22-18.15,57.1-20,23.21-19.21,56,5.87,74.7,5.87,74.7h33.86Z" transform="translate(0 0)"/><polygon class="cls-76" points="1274.72 1492.39 1567.59 1410.8 1569.22 1443.48 1556.2 1436.73 1553.93 1469.02 1288.32 1542.43 1274.72 1492.39"/><polygon class="cls-51" points="1332.76 1549.15 1332.76 1530.14 1361.8 1522.12 1331.92 1476.45 1318.77 1480.12 1318.77 1455.41 1448.21 1422.78 1468.88 1502.18 1448.76 1504.36 1447.41 1524.38 1332.76 1549.15"/><path class="cls-76" d="M1947.77,1315a147.14,147.14,0,0,1-14.75,53.86l231.18-61.3-13.87-50.8Z" transform="translate(0 0)"/><path class="cls-77" d="M2124.18,1245.69l-123.8,33.62,30.95,99.79s11.48,35.22,1.07,61.9-32,53.36-32,53.36c5.4,4.09,66,48.33,139.17,24.12,60.91-20.14,85.75-72.86,89.76-81.75,0,0-31.75,2.4-55-32s-20.27-33.89-26.14-49.1Z" transform="translate(0 0)"/><path class="cls-78" d="M2209.34,1433.21c11.44,4.16,20,3.52,20,3.52-4,8.89-28.85,61.61-89.76,81.75-73.21,24.21-133.77-20-139.17-24.12,0,0,3.15-3.89,7.63-10.18a167.37,167.37,0,0,0,80.74,14.57c9-.65,56-4.8,97.41-40.75a164.39,164.39,0,0,0,23.18-24.79" transform="translate(0 0)"/><polygon class="cls-51" points="1955.27 1825.57 1931.54 1915.93 2030.27 1941.54 2060.45 1886.05 1955.27 1825.57"/><g class="cls-79"><g class="cls-80"><rect class="cls-61" x="1693.89" y="1821.48" width="127.54" height="107.79"/></g></g><line class="cls-54" x1="1668.49" y1="1080" x2="1718.65" y2="1080"/><line class="cls-54" x1="1796.65" y1="1080" x2="1846.82" y2="1080"/><path class="cls-55" d="M1693.57,1119c-4.32,0-13.94,5.92-12.54,23.69s8,19.87,12.54,19.87,12.54-7.32,12.54-21.78-8.22-21.78-12.54-21.78" transform="translate(0 0)"/><path class="cls-55" d="M1820.43,1119c-4.33,0-13.94,5.92-12.54,23.69s8,19.87,12.54,19.87,12.54-7.32,12.54-21.78-8.22-21.78-12.54-21.78" transform="translate(0 0)"/><g class="cls-8"><g class="cls-81"><polygon class="cls-82" points="1527.37 1846.49 1693.88 1846.49 1693.88 1821.48 1756.78 1821.48 1756.78 1540.79 1556.2 1436.73 1527.37 1846.49"/></g></g><g class="cls-8"><g class="cls-83"><polygon class="cls-84" points="1478.08 1593.36 1521.9 1769.71 1535.84 1726.13 1554.19 1465.3 1478.08 1593.36"/></g></g></g></g></g></g></g></g></g></svg>