<svg xmlns="http://www.w3.org/2000/svg" xmlns:xlink="http://www.w3.org/1999/xlink" viewBox="0 0 1920 1084.15"><defs><style>.cls-1{fill:none;}.cls-2{fill:#231f20;}.cls-3{fill:#a54b4a;}.cls-4{fill:#b94f55;}.cls-5{fill:#944647;}.cls-6{fill:#a64a51;}.cls-7{fill:#cee9f9;}.cls-8{fill:#3e3e3e;}.cls-9{fill:#e6aa53;}.cls-10{fill:#c2c1c1;}.cls-11{fill:#dcdbdb;}.cls-12{fill:#833839;}.cls-13{fill:#e0e1e1;}.cls-14{fill:#433525;}.cls-15{fill:#69553f;}.cls-16{fill:#55442e;}.cls-17{fill:#342b1f;}.cls-18{fill:#433728;}.cls-19{fill:#524636;}.cls-20{fill:#3e3d3d;}.cls-21{fill:#898989;}.cls-22{fill:#403226;}.cls-23{fill:#5e5f5f;}.cls-24{fill:#504f4e;}.cls-25{fill:#2b2c2b;}.cls-26{fill:#98a979;}.cls-27{fill:#627351;}.cls-28{fill:#e3e3e3;}.cls-29{fill:#2c2c2c;}.cls-30{clip-path:url(#clip-path);}.cls-31{fill:#e6a180;}.cls-32{fill:#7d6746;}.cls-33{fill:#d19277;}.cls-34{fill:#5b4128;}.cls-35{fill:#303f43;}.cls-36{fill:#533617;}.cls-37{fill:url(#Unnamed_Pattern);}</style><clipPath id="clip-path"><polyline class="cls-1" points="231.65 780.03 235.9 780.03 235.9 781.58 231.65 781.58 231.65 780.03"/></clipPath><pattern id="Unnamed_Pattern" data-name="Unnamed Pattern" width="72" height="72" patternTransform="matrix(0.53, 0, 0, -0.75, 164.78, 12364.31)" patternUnits="userSpaceOnUse" viewBox="0 0 72 72"><rect class="cls-1" width="72" height="72"/><path class="cls-2" d="M21,68.9a.35.35,0,0,0-.25.6.36.36,0,0,0,.6-.25A.34.34,0,0,0,21,68.9Z"/><path class="cls-2" d="M20,63.65a.34.34,0,0,0-.35.35.33.33,0,0,0,.11.25.37.37,0,0,0,.49,0,.36.36,0,0,0,.1-.25.39.39,0,0,0-.1-.25A.37.37,0,0,0,20,63.65Z"/><path class="cls-2" d="M20.25,61.4A.35.35,0,0,0,20,62a.37.37,0,0,0,.5,0,.35.35,0,0,0-.25-.6Z"/><path class="cls-2" d="M15.25,61.4a.34.34,0,0,0-.35.35A.37.37,0,0,0,15,62a.38.38,0,0,0,.5,0,.35.35,0,0,0-.25-.6Z"/><path class="cls-2" d="M22.75,51.9a.35.35,0,0,0-.25.6.36.36,0,0,0,.6-.25.34.34,0,0,0-.35-.35Z"/><path class="cls-2" d="M15.25,48.9a.34.34,0,0,0-.35.35.33.33,0,0,0,.11.25.37.37,0,0,0,.49,0,.36.36,0,0,0,.1-.25.34.34,0,0,0-.35-.35Z"/><path class="cls-2" d="M14,47.9a.35.35,0,0,0-.25.6.36.36,0,0,0,.6-.25.39.39,0,0,0-.1-.25A.37.37,0,0,0,14,47.9Z"/><path class="cls-2" d="M24,44.9a.34.34,0,0,0-.35.35.33.33,0,0,0,.11.25.37.37,0,0,0,.49,0,.39.39,0,0,0,.1-.25.35.35,0,0,0-.1-.24A.36.36,0,0,0,24,44.9Z"/><path class="cls-2" d="M30.75,46.15a.35.35,0,0,0-.25.6.36.36,0,0,0,.6-.25.34.34,0,0,0-.35-.35Z"/><path class="cls-2" d="M31.25,48.65a.34.34,0,0,0-.35.35.33.33,0,0,0,.11.25A.35.35,0,0,0,31.6,49a.39.39,0,0,0-.1-.25A.37.37,0,0,0,31.25,48.65Z"/><path class="cls-2" d="M29.25,53.65a.35.35,0,0,0-.25.6.36.36,0,0,0,.6-.25.34.34,0,0,0-.35-.35Z"/><path class="cls-2" d="M34,52.15a.35.35,0,0,0-.25.6.36.36,0,0,0,.6-.25.34.34,0,0,0-.35-.35Z"/><path class="cls-2" d="M31.5,57.15a.35.35,0,0,0-.25.6.36.36,0,0,0,.6-.25.34.34,0,0,0-.35-.35Z"/><path class="cls-2" d="M31.75,60.15a.35.35,0,0,0-.25.6.37.37,0,0,0,.5,0,.35.35,0,0,0-.25-.6Z"/><path class="cls-2" d="M32.25,64.9a.35.35,0,0,0-.25.6.36.36,0,0,0,.6-.25.34.34,0,0,0-.35-.35Z"/><path class="cls-2" d="M32,68.9a.34.34,0,0,0-.35.35.33.33,0,0,0,.11.25.35.35,0,0,0,.59-.25A.34.34,0,0,0,32,68.9Z"/><path class="cls-2" d="M34,70.65a.36.36,0,0,0-.25.11.33.33,0,0,0-.1.24.33.33,0,0,0,.11.25.35.35,0,0,0,.59-.25.34.34,0,0,0-.11-.25A.35.35,0,0,0,34,70.65Z"/><path class="cls-2" d="M41.5,64.9a.39.39,0,0,0-.25.1.35.35,0,0,0-.1.25.39.39,0,0,0,.1.25.35.35,0,0,0,.49,0,.36.36,0,0,0,.11-.25.34.34,0,0,0-.35-.35Z"/><path class="cls-2" d="M45.5,65.15a.39.39,0,0,0-.25.1.36.36,0,0,0,0,.5.36.36,0,0,0,.6-.25.34.34,0,0,0-.35-.35Z"/><path class="cls-2" d="M42.5,58.4a.34.34,0,0,0-.35.35.33.33,0,0,0,.11.25.35.35,0,0,0,.59-.25.34.34,0,0,0-.35-.35Z"/><path class="cls-2" d="M47,57.65a.34.34,0,0,0-.35.35.33.33,0,0,0,.11.25.36.36,0,0,0,.49,0,.39.39,0,0,0,.1-.25.33.33,0,0,0-.1-.24A.36.36,0,0,0,47,57.65Z"/><path class="cls-2" d="M47,55.65a.34.34,0,0,0-.35.35.33.33,0,0,0,.11.25.36.36,0,0,0,.49,0,.39.39,0,0,0,.1-.25.37.37,0,0,0-.1-.24A.36.36,0,0,0,47,55.65Z"/><path class="cls-2" d="M39,51.15a.35.35,0,0,0-.25.6.36.36,0,0,0,.49,0,.34.34,0,0,0,.11-.25.34.34,0,0,0-.35-.35Z"/><path class="cls-2" d="M50.25,58.4a.39.39,0,0,0-.25.1.36.36,0,0,0,0,.5.37.37,0,0,0,.5,0,.35.35,0,0,0-.25-.6Z"/><path class="cls-2" d="M52.25,59.9A.36.36,0,0,0,52,60a.35.35,0,0,0-.1.24.33.33,0,0,0,.11.25.37.37,0,0,0,.49,0,.36.36,0,0,0,.1-.25.34.34,0,0,0-.35-.35Z"/><path class="cls-2" d="M54.75,60.9a.36.36,0,0,0-.25.11.35.35,0,0,0-.1.24.33.33,0,0,0,.11.25.35.35,0,0,0,.59-.25.34.34,0,0,0-.35-.35Z"/><path class="cls-2" d="M56.5,71.15a.35.35,0,0,0-.25.6.36.36,0,0,0,.5,0,.35.35,0,0,0,.1-.24.34.34,0,0,0-.35-.35Z"/><path class="cls-2" d="M68,68.9a.34.34,0,0,0-.35.35.33.33,0,0,0,.11.25.37.37,0,0,0,.49,0,.36.36,0,0,0,.1-.25.39.39,0,0,0-.1-.25A.37.37,0,0,0,68,68.9Z"/><path class="cls-2" d="M68,61.65a.36.36,0,0,0-.25.11.35.35,0,0,0-.1.24.39.39,0,0,0,.1.25.37.37,0,0,0,.5,0,.39.39,0,0,0,.1-.25.34.34,0,0,0-.11-.25A.35.35,0,0,0,68,61.65Z"/><path class="cls-2" d="M64.25,59.65a.35.35,0,0,0-.25.6.36.36,0,0,0,.6-.25.34.34,0,0,0-.35-.35Z"/><path class="cls-2" d="M65.25,56.15a.34.34,0,0,0-.35.35.37.37,0,0,0,.1.25.38.38,0,0,0,.5,0,.35.35,0,0,0-.25-.6Z"/><path class="cls-2" d="M64,52.15a.36.36,0,0,0-.25.11.35.35,0,0,0-.1.24.39.39,0,0,0,.1.25.37.37,0,0,0,.5,0,.39.39,0,0,0,.1-.25.34.34,0,0,0-.11-.25A.35.35,0,0,0,64,52.15Z"/><path class="cls-2" d="M66.25,52.15a.34.34,0,0,0-.35.35.33.33,0,0,0,.11.25.37.37,0,0,0,.49,0,.36.36,0,0,0,.1-.25.34.34,0,0,0-.35-.35Z"/><path class="cls-2" d="M68,50.65a.35.35,0,0,0-.25.6.37.37,0,0,0,.5,0,.35.35,0,0,0-.25-.6Z"/><path class="cls-2" d="M7,19.65a.35.35,0,0,0-.25.6.38.38,0,0,0,.5,0,.35.35,0,0,0-.25-.6Z"/><path class="cls-2" d="M7.25,17.4A.35.35,0,0,0,7,18a.37.37,0,0,0,.5,0,.35.35,0,0,0-.25-.6Z"/><path class="cls-2" d="M2.25,17.4a.39.39,0,0,0-.25.1A.36.36,0,0,0,2,18a.38.38,0,0,0,.5,0,.36.36,0,0,0,0-.5A.39.39,0,0,0,2.25,17.4Z"/><path class="cls-2" d="M9.75,7.9a.35.35,0,0,0-.25.6.36.36,0,0,0,.6-.25.34.34,0,0,0-.35-.35Z"/><path class="cls-2" d="M1,3.9A.39.39,0,0,0,.75,4a.36.36,0,0,0,0,.5.38.38,0,0,0,.5,0,.36.36,0,0,0,0-.5A.39.39,0,0,0,1,3.9Z"/><path class="cls-2" d="M11,.9a.39.39,0,0,0-.25.1.39.39,0,0,0-.1.25.39.39,0,0,0,.1.25.38.38,0,0,0,.5,0,.39.39,0,0,0,.1-.25.39.39,0,0,0-.1-.25A.39.39,0,0,0,11,.9Z"/><path class="cls-2" d="M18.25,4.65A.34.34,0,0,0,17.9,5a.37.37,0,0,0,.1.25.37.37,0,0,0,.49,0A.36.36,0,0,0,18.6,5a.34.34,0,0,0-.35-.35Z"/><path class="cls-2" d="M16.25,9.65a.35.35,0,0,0-.25.6.37.37,0,0,0,.5,0,.35.35,0,0,0-.25-.6Z"/><path class="cls-2" d="M19.5,14.15a.34.34,0,0,0-.35.35.33.33,0,0,0,.11.25.37.37,0,0,0,.49,0,.36.36,0,0,0,.1-.25.34.34,0,0,0-.35-.35Z"/><path class="cls-2" d="M18.75,16.15a.34.34,0,0,0-.35.35.33.33,0,0,0,.11.25.37.37,0,0,0,.49,0,.36.36,0,0,0,.1-.25.34.34,0,0,0-.35-.35Z"/><path class="cls-2" d="M16.25,17.15a.34.34,0,0,0-.35.35.33.33,0,0,0,.11.25.37.37,0,0,0,.49,0,.36.36,0,0,0,.1-.25.34.34,0,0,0-.35-.35Z"/><path class="cls-2" d="M19.25,20.9a.34.34,0,0,0-.35.35.33.33,0,0,0,.11.25.37.37,0,0,0,.49,0,.36.36,0,0,0,.1-.25.34.34,0,0,0-.35-.35Z"/><path class="cls-2" d="M19,24.9a.35.35,0,0,0-.25.6.38.38,0,0,0,.5,0,.35.35,0,0,0-.25-.6Z"/><path class="cls-2" d="M16.25,24.65a.35.35,0,0,0-.25.6.37.37,0,0,0,.5,0,.35.35,0,0,0-.25-.6Z"/><path class="cls-2" d="M32.5,21.15a.34.34,0,0,0-.35.35.33.33,0,0,0,.11.25.35.35,0,0,0,.59-.25.34.34,0,0,0-.35-.35Z"/><path class="cls-2" d="M27.25,17.65a.35.35,0,0,0-.25.6.37.37,0,0,0,.5,0,.35.35,0,0,0-.25-.6Z"/><path class="cls-2" d="M32,16.15a.35.35,0,0,0-.25.6.37.37,0,0,0,.5,0,.35.35,0,0,0-.25-.6Z"/><path class="cls-2" d="M32,14.4a.35.35,0,0,0-.24.1.35.35,0,0,0,0,.5.37.37,0,0,0,.5,0,.36.36,0,0,0,.1-.25A.34.34,0,0,0,32,14.4Z"/><path class="cls-2" d="M34,13.65a.35.35,0,0,0-.25.6.37.37,0,0,0,.5,0,.35.35,0,0,0-.25-.6Z"/><path class="cls-2" d="M26,7.15a.35.35,0,0,0-.25.6.36.36,0,0,0,.6-.25A.34.34,0,0,0,26,7.15Z"/><path class="cls-2" d="M36,15.65a.35.35,0,0,0-.25.6.36.36,0,0,0,.6-.25.34.34,0,0,0-.35-.35Z"/><path class="cls-2" d="M39.25,15.9A.35.35,0,0,0,39,16a.36.36,0,0,0-.11.25.39.39,0,0,0,.1.25.37.37,0,0,0,.5,0,.35.35,0,0,0-.25-.6Z"/><path class="cls-2" d="M41.75,21.15a.35.35,0,0,0-.25.6.37.37,0,0,0,.5,0,.35.35,0,0,0-.25-.6Z"/><path class="cls-2" d="M43.5,27.15a.36.36,0,0,0-.25.11.35.35,0,0,0-.1.24.39.39,0,0,0,.1.25.37.37,0,0,0,.5,0,.35.35,0,0,0-.25-.6Z"/><path class="cls-2" d="M51,21.4a.39.39,0,0,0-.25.1.36.36,0,0,0-.1.25.39.39,0,0,0,.1.25.36.36,0,0,0,.5,0,.35.35,0,0,0-.25-.6Z"/><path class="cls-2" d="M52,25.4a.36.36,0,0,0-.25.11.35.35,0,0,0-.1.24.33.33,0,0,0,.11.25.37.37,0,0,0,.49,0,.36.36,0,0,0,.1-.25A.34.34,0,0,0,52,25.4Z"/><path class="cls-2" d="M55,24.9a.33.33,0,0,0-.25.11.35.35,0,0,0-.1.24.37.37,0,0,0,.1.25.36.36,0,0,0,.49,0,.34.34,0,0,0,.11-.25A.34.34,0,0,0,55,24.9Z"/><path class="cls-2" d="M55,17.65a.33.33,0,0,0-.25.11.35.35,0,0,0-.1.24.33.33,0,0,0,.11.25.37.37,0,0,0,.49,0,.36.36,0,0,0,.1-.25.34.34,0,0,0-.35-.35Z"/><path class="cls-2" d="M51.25,15.65a.35.35,0,0,0-.25.6.37.37,0,0,0,.5,0,.35.35,0,0,0,.1-.25.39.39,0,0,0-.1-.25A.37.37,0,0,0,51.25,15.65Z"/><path class="cls-2" d="M51,8.15a.34.34,0,0,0-.35.35.31.31,0,0,0,.1.24.34.34,0,0,0,.49,0,.36.36,0,0,0,.11-.25.39.39,0,0,0-.1-.25A.37.37,0,0,0,51,8.15Z"/><path class="cls-2" d="M53.25,8.15a.34.34,0,0,0-.35.35.33.33,0,0,0,.11.25.36.36,0,0,0,.49,0,.31.31,0,0,0,.1-.24.34.34,0,0,0-.35-.35Z"/><path class="cls-2" d="M56,8.9a.35.35,0,0,0-.25.6.36.36,0,0,0,.6-.25A.34.34,0,0,0,56,8.9Z"/><path class="cls-2" d="M58.25,10.4a.36.36,0,0,0-.25.11.35.35,0,0,0-.1.24A.39.39,0,0,0,58,11a.37.37,0,0,0,.5,0,.37.37,0,0,0,.1-.25.34.34,0,0,0-.35-.35Z"/><path class="cls-2" d="M21,44.9a.35.35,0,0,0-.25.6.36.36,0,0,0,.6-.25A.34.34,0,0,0,21,44.9Z"/><path class="cls-2" d="M22.75,47.9a.35.35,0,0,0-.25.6.37.37,0,0,0,.5,0,.35.35,0,0,0-.25-.6Z"/><path class="cls-2" d="M39,47.15a.35.35,0,0,0-.25.6.37.37,0,0,0,.5,0,.35.35,0,0,0-.25-.6Z"/><path class="cls-2" d="M46.25,42.9A.39.39,0,0,0,46,43a.35.35,0,0,0,0,.49.34.34,0,0,0,.49,0,.36.36,0,0,0,.11-.25.34.34,0,0,0-.35-.35Z"/><path class="cls-2" d="M55.25,43.9a.35.35,0,0,0-.25.6.37.37,0,0,0,.5,0,.35.35,0,0,0-.25-.6Z"/><path class="cls-2" d="M51.25,46.65a.35.35,0,0,0-.25.6.37.37,0,0,0,.5,0,.35.35,0,0,0,.1-.25.34.34,0,0,0-.35-.35Z"/><path class="cls-2" d="M52,42.4a.37.37,0,0,0-.25.1.36.36,0,0,0,0,.5.36.36,0,0,0,.6-.25A.34.34,0,0,0,52,42.4Z"/><path class="cls-2" d="M62.5,36.4a.34.34,0,0,0-.35.35.33.33,0,0,0,.11.25.36.36,0,0,0,.49,0,.31.31,0,0,0,.1-.24.34.34,0,0,0-.35-.35Z"/><path class="cls-2" d="M56.75,32.9a.35.35,0,0,0-.25.6.36.36,0,0,0,.6-.25.34.34,0,0,0-.35-.35Z"/><path class="cls-2" d="M48.25,34.65a.35.35,0,0,0-.24.1.36.36,0,0,0-.11.25.39.39,0,0,0,.1.25.36.36,0,0,0,.5,0,.33.33,0,0,0,.1-.24.34.34,0,0,0-.35-.35Z"/><path class="cls-2" d="M48,30.65a.33.33,0,0,0-.25.11.35.35,0,0,0-.1.24.39.39,0,0,0,.1.25.38.38,0,0,0,.5,0,.35.35,0,0,0-.25-.6Z"/><path class="cls-2" d="M53.5,26.9a.34.34,0,0,0-.25.11.31.31,0,0,0-.1.24.34.34,0,0,0,.11.25.37.37,0,0,0,.49,0,.35.35,0,0,0-.25-.6Z"/><path class="cls-2" d="M62.25,23.9a.34.34,0,0,0-.35.35.33.33,0,0,0,.11.25.36.36,0,0,0,.49,0,.31.31,0,0,0,.1-.24.34.34,0,0,0-.35-.35Z"/><path class="cls-2" d="M65,20.15a.34.34,0,0,0-.35.35.33.33,0,0,0,.11.25.37.37,0,0,0,.49,0,.36.36,0,0,0,.1-.25.34.34,0,0,0-.35-.35Z"/><path class="cls-2" d="M69.5,26.9a.35.35,0,0,0-.25.6.37.37,0,0,0,.5,0,.35.35,0,0,0-.25-.6Z"/><path class="cls-2" d="M60,32.9a.33.33,0,0,0-.25.11.35.35,0,0,0-.1.24.34.34,0,0,0,.11.25.36.36,0,0,0,.49,0,.36.36,0,0,0,0-.5A.37.37,0,0,0,60,32.9Z"/><path class="cls-2" d="M32.5,24.9a.35.35,0,0,0-.25.6.36.36,0,0,0,.6-.25.34.34,0,0,0-.35-.35Z"/><path class="cls-2" d="M26.25,34.15a.35.35,0,0,0-.25.6.36.36,0,0,0,.6-.25.34.34,0,0,0-.35-.35Z"/><path class="cls-2" d="M29.75,36.4a.35.35,0,0,0-.24.1.36.36,0,0,0-.11.25.33.33,0,0,0,.11.25A.37.37,0,0,0,30,37a.36.36,0,0,0,.1-.25.34.34,0,0,0-.35-.35Z"/><path class="cls-2" d="M10.5,42.4a.35.35,0,0,0-.25.6.37.37,0,0,0,.49,0,.33.33,0,0,0,.11-.25.34.34,0,0,0-.35-.35Z"/><path class="cls-2" d="M6,40.4a.35.35,0,0,0-.25.6.36.36,0,0,0,.49,0,.33.33,0,0,0,.11-.25.37.37,0,0,0-.1-.25A.39.39,0,0,0,6,40.4Z"/><path class="cls-2" d="M2.5,36.65a.39.39,0,0,0-.25.1.36.36,0,0,0,0,.5.37.37,0,0,0,.5,0,.35.35,0,0,0,.1-.25.33.33,0,0,0-.1-.24A.36.36,0,0,0,2.5,36.65Z"/><path class="cls-2" d="M17,29.9a.34.34,0,0,0-.35.35.33.33,0,0,0,.11.25.35.35,0,0,0,.59-.25.39.39,0,0,0-.1-.25A.37.37,0,0,0,17,29.9Z"/><path class="cls-2" d="M12.75,35.9a.34.34,0,0,0-.35.35.33.33,0,0,0,.11.25.37.37,0,0,0,.49,0,.36.36,0,0,0,.1-.25A.39.39,0,0,0,13,36,.37.37,0,0,0,12.75,35.9Z"/><path class="cls-2" d="M26.5,41.65a.35.35,0,0,0-.25.6.37.37,0,0,0,.5,0,.35.35,0,0,0-.25-.6Z"/><path class="cls-2" d="M39.25,41.15a.35.35,0,0,0-.25.6.37.37,0,0,0,.5,0,.36.36,0,0,0,0-.5A.37.37,0,0,0,39.25,41.15Z"/><path class="cls-2" d="M38.25,39.15a.35.35,0,0,0-.25.6.37.37,0,0,0,.5,0,.35.35,0,0,0-.25-.6Z"/><path class="cls-2" d="M28,29.9a.35.35,0,0,0-.25.6.37.37,0,0,0,.5,0,.35.35,0,0,0-.25-.6Z"/><path class="cls-2" d="M6.5,51.4a.35.35,0,0,0-.25.6.37.37,0,0,0,.5,0,.35.35,0,0,0-.25-.6Z"/><path class="cls-2" d="M9.75,53.15a.35.35,0,0,0-.25.6.36.36,0,0,0,.6-.25.34.34,0,0,0-.35-.35Z"/><path class="cls-2" d="M11.75,48.4a.34.34,0,0,0-.35.35.33.33,0,0,0,.11.25A.37.37,0,0,0,12,49a.36.36,0,0,0,.1-.25.39.39,0,0,0-.1-.25A.37.37,0,0,0,11.75,48.4Z"/><path class="cls-2" d="M3,46.15a.39.39,0,0,0-.25.1.36.36,0,0,0,0,.5.38.38,0,0,0,.5,0,.36.36,0,0,0,0-.5A.39.39,0,0,0,3,46.15Z"/><path class="cls-2" d="M64.25,42.4a.35.35,0,0,0-.24.1.36.36,0,0,0-.11.25A.39.39,0,0,0,64,43a.36.36,0,0,0,.6-.25.34.34,0,0,0-.35-.35Z"/><path class="cls-2" d="M69.5,42.15a.34.34,0,0,0-.35.35.34.34,0,0,0,.11.25.37.37,0,0,0,.49,0,.36.36,0,0,0,.1-.25.39.39,0,0,0-.1-.25A.37.37,0,0,0,69.5,42.15Z"/><path class="cls-2" d="M1.5,62.9a.39.39,0,0,0-.25.1.36.36,0,0,0,0,.5.38.38,0,0,0,.5,0,.36.36,0,0,0,0-.5A.39.39,0,0,0,1.5,62.9Z"/><path class="cls-2" d="M16.5,65.9a.34.34,0,0,0-.35.35.37.37,0,0,0,.1.25.38.38,0,0,0,.5,0,.35.35,0,0,0-.25-.6Z"/><path class="cls-2" d="M3.75,65.9a.35.35,0,0,0-.25.6.36.36,0,0,0,.6-.25.34.34,0,0,0-.35-.35Z"/><path class="cls-2" d="M12.75,57.65a.35.35,0,0,0-.25.6.36.36,0,0,0,.6-.25.34.34,0,0,0-.35-.35Z"/><path class="cls-2" d="M18.5,52.65a.34.34,0,0,0-.35.35.37.37,0,0,0,.1.25.36.36,0,0,0,.6-.25.34.34,0,0,0-.35-.35Z"/><path class="cls-2" d="M21.25,34.9a.34.34,0,0,0-.35.35.37.37,0,0,0,.1.25.37.37,0,0,0,.49,0,.36.36,0,0,0,.11-.25.34.34,0,0,0-.35-.35Z"/><path class="cls-2" d="M.75,27.65a.39.39,0,0,0-.25.1A.39.39,0,0,0,.4,28a.33.33,0,0,0,.11.25.37.37,0,0,0,.49,0A.36.36,0,0,0,1.1,28a.39.39,0,0,0-.1-.25A.39.39,0,0,0,.75,27.65Z"/><path class="cls-2" d="M68,5.9a.34.34,0,0,0-.35.35.33.33,0,0,0,.11.25.37.37,0,0,0,.49,0,.36.36,0,0,0,.1-.25A.34.34,0,0,0,68,5.9Z"/><path class="cls-2" d="M59.75,2.15a.39.39,0,0,0-.25.1.35.35,0,0,0-.1.25.39.39,0,0,0,.1.25.37.37,0,0,0,.5,0,.36.36,0,0,0,.1-.25.37.37,0,0,0-.1-.25A.39.39,0,0,0,59.75,2.15Z"/><path class="cls-2" d="M40.5,3.9a.34.34,0,0,0-.35.35.39.39,0,0,0,.1.25.37.37,0,0,0,.5,0,.36.36,0,0,0,0-.5A.37.37,0,0,0,40.5,3.9Z"/><path class="cls-2" d="M4.5,11.9a.35.35,0,0,0-.25.6.36.36,0,0,0,.6-.25.34.34,0,0,0-.35-.35Z"/><path class="cls-2" d="M26.5,12.4a.35.35,0,0,0-.25.6.36.36,0,0,0,.6-.25.34.34,0,0,0-.35-.35Z"/><path class="cls-2" d="M37.25,23.4a.34.34,0,0,0-.35.35A.37.37,0,0,0,37,24a.37.37,0,0,0,.5,0,.36.36,0,0,0,0-.5A.37.37,0,0,0,37.25,23.4Z"/><path class="cls-2" d="M8.75,31.65a.35.35,0,0,0-.25.6A.36.36,0,0,0,9.1,32a.34.34,0,0,0-.35-.35Z"/><path class="cls-2" d="M52.25,33.9A.36.36,0,0,0,52,34a.35.35,0,0,0-.1.24.33.33,0,0,0,.11.25.37.37,0,0,0,.49,0,.36.36,0,0,0,.1-.25.34.34,0,0,0-.35-.35Z"/><path class="cls-2" d="M60.75,25.9a.34.34,0,0,0-.35.35.33.33,0,0,0,.11.25.37.37,0,0,0,.49,0,.36.36,0,0,0,.1-.25.34.34,0,0,0-.35-.35Z"/><path class="cls-2" d="M51.25,5.65a.35.35,0,0,0-.25.6.37.37,0,0,0,.5,0A.39.39,0,0,0,51.6,6a.35.35,0,0,0-.1-.25A.39.39,0,0,0,51.25,5.65Z"/><path class="cls-2" d="M40,34.15a.35.35,0,0,0-.25.6.36.36,0,0,0,.6-.25.34.34,0,0,0-.35-.35Z"/><path class="cls-2" d="M27.5,58.4a.35.35,0,0,0-.25.6.36.36,0,0,0,.6-.25.34.34,0,0,0-.35-.35Z"/><path class="cls-2" d="M19.75,45.4a.34.34,0,0,0-.35.35.37.37,0,0,0,.1.25A.37.37,0,0,0,20,46a.36.36,0,0,0,.11-.25.34.34,0,0,0-.35-.35Z"/><path class="cls-2" d="M11.75,70.15a.35.35,0,0,0-.25.6.38.38,0,0,0,.5,0,.35.35,0,0,0-.25-.6Z"/><path class="cls-2" d="M55.25,68.15a.34.34,0,0,0-.35.35.33.33,0,0,0,.11.25.37.37,0,0,0,.49,0,.36.36,0,0,0,.1-.25.34.34,0,0,0-.35-.35Z"/><path class="cls-2" d="M47.25,2.15a.39.39,0,0,0-.25.1.37.37,0,0,0-.1.25.39.39,0,0,0,.1.25.36.36,0,0,0,.6-.25.39.39,0,0,0-.1-.25A.39.39,0,0,0,47.25,2.15Z"/><path class="cls-2" d="M4.75,31.65A.34.34,0,0,0,4.4,32a.33.33,0,0,0,.11.25.37.37,0,0,0,.49,0A.36.36,0,0,0,5.1,32a.34.34,0,0,0-.35-.35Z"/><path class="cls-2" d="M68.75,58.65a.35.35,0,0,0-.25.6.37.37,0,0,0,.5,0,.36.36,0,0,0,0-.5A.39.39,0,0,0,68.75,58.65Z"/><path class="cls-2" d="M23.25,57.9a.35.35,0,0,0-.25.6.36.36,0,0,0,.6-.25.34.34,0,0,0-.35-.35Z"/><path class="cls-2" d="M20.5,54.65a.35.35,0,0,0-.25.6.37.37,0,0,0,.5,0,.35.35,0,0,0-.25-.6Z"/><path class="cls-2" d="M14.75,54.65a.34.34,0,0,0-.35.35.33.33,0,0,0,.11.25.37.37,0,0,0,.49,0,.36.36,0,0,0,.1-.25.34.34,0,0,0-.35-.35Z"/><path class="cls-2" d="M6,60.15a.35.35,0,0,0-.25.6.36.36,0,0,0,.49,0,.33.33,0,0,0,.11-.25A.34.34,0,0,0,6,60.15Z"/><path class="cls-2" d="M7,69.15a.37.37,0,0,0-.24.1.36.36,0,0,0-.11.25.39.39,0,0,0,.1.25.36.36,0,0,0,.6-.25A.34.34,0,0,0,7,69.15Z"/><path class="cls-2" d="M10,63.65a.35.35,0,0,0-.25.6.36.36,0,0,0,.6-.25.34.34,0,0,0-.35-.35Z"/><path class="cls-2" d="M14.25,63.65a.34.34,0,0,0-.35.35.33.33,0,0,0,.11.25.37.37,0,0,0,.49,0,.36.36,0,0,0,.1-.25.34.34,0,0,0-.35-.35Z"/><path class="cls-2" d="M25.75,64.9a.35.35,0,0,0-.25.6.36.36,0,0,0,.6-.25.34.34,0,0,0-.35-.35Z"/><path class="cls-2" d="M37,64.4a.35.35,0,0,0-.25.6.37.37,0,0,0,.5,0,.35.35,0,0,0-.25-.6Z"/><path class="cls-2" d="M37.5,67.65a.34.34,0,0,0-.35.35.33.33,0,0,0,.11.25.35.35,0,0,0,.59-.25.34.34,0,0,0-.35-.35Z"/><path class="cls-2" d="M43.25,69.65a.35.35,0,0,0-.25.6.37.37,0,0,0,.5,0,.36.36,0,0,0,0-.5A.42.42,0,0,0,43.25,69.65Z"/><path class="cls-2" d="M49.5,63.65a.39.39,0,0,0-.25.1.36.36,0,0,0,0,.5.37.37,0,0,0,.5,0,.35.35,0,0,0-.25-.6Z"/><path class="cls-2" d="M46,62.65a.35.35,0,0,0-.25.6.37.37,0,0,0,.5,0,.36.36,0,0,0,0-.5A.37.37,0,0,0,46,62.65Z"/><path class="cls-2" d="M35.75,60.9a.34.34,0,0,0-.35.35.37.37,0,0,0,.1.25.36.36,0,0,0,.6-.25.34.34,0,0,0-.35-.35Z"/><path class="cls-2" d="M39.25,56.9a.35.35,0,0,0-.25.6.36.36,0,0,0,.6-.25.34.34,0,0,0-.35-.35Z"/><path class="cls-2" d="M24.75,53.9a.35.35,0,0,0-.25.6.36.36,0,0,0,.6-.25.34.34,0,0,0-.35-.35Z"/><path class="cls-2" d="M8.25,44.65a.35.35,0,0,0-.25.6A.36.36,0,0,0,8.6,45a.34.34,0,0,0-.35-.35Z"/><path class="cls-2" d="M16,40.15a.35.35,0,0,0-.25.6.38.38,0,0,0,.5,0,.35.35,0,0,0-.25-.6Z"/><path class="cls-2" d="M10.5,38.4a.34.34,0,0,0-.35.35.33.33,0,0,0,.11.25.37.37,0,0,0,.49,0,.36.36,0,0,0,.1-.25.37.37,0,0,0-.1-.25A.39.39,0,0,0,10.5,38.4Z"/><path class="cls-2" d="M5.25,34.9a.35.35,0,0,0-.25.6.38.38,0,0,0,.5,0,.37.37,0,0,0,.1-.25.34.34,0,0,0-.35-.35Z"/><path class="cls-2" d="M3.25,51.4A.35.35,0,0,0,3,52a.38.38,0,0,0,.5,0,.35.35,0,0,0-.25-.6Z"/><path class="cls-2" d="M20.5,41.15a.34.34,0,0,0-.35.35.33.33,0,0,0,.11.25.35.35,0,0,0,.59-.25.34.34,0,0,0-.35-.35Z"/><path class="cls-2" d="M17.5,36.4a.35.35,0,0,0-.25.6.37.37,0,0,0,.5,0,.35.35,0,0,0-.25-.6Z"/><path class="cls-2" d="M16,32.9a.34.34,0,0,0-.35.35.33.33,0,0,0,.11.25.37.37,0,0,0,.49,0,.36.36,0,0,0,.1-.25.39.39,0,0,0-.1-.25A.37.37,0,0,0,16,32.9Z"/><path class="cls-2" d="M12.75,30.65a.34.34,0,0,0-.35.35.33.33,0,0,0,.11.25.37.37,0,0,0,.49,0,.36.36,0,0,0,.1-.25.34.34,0,0,0-.35-.35Z"/><path class="cls-2" d="M12.75,25.4a.34.34,0,0,0-.35.35.33.33,0,0,0,.11.25A.37.37,0,0,0,13,26a.36.36,0,0,0,.1-.25.34.34,0,0,0-.35-.35Z"/><path class="cls-2" d="M5.75,23.4a.35.35,0,0,0-.25.6A.38.38,0,0,0,6,24a.35.35,0,0,0-.25-.6Z"/><path class="cls-2" d="M11,17.4a.35.35,0,0,0-.25.6.38.38,0,0,0,.5,0,.35.35,0,0,0-.25-.6Z"/><path class="cls-2" d="M15.5,13.4a.35.35,0,0,0-.25.6.37.37,0,0,0,.5,0,.35.35,0,0,0-.25-.6Z"/><path class="cls-2" d="M6,8.4a.35.35,0,0,0-.25.6.38.38,0,0,0,.5,0,.36.36,0,0,0,.1-.25A.34.34,0,0,0,6,8.4Z"/><path class="cls-2" d="M2.25,9.9A.39.39,0,0,0,2,10a.36.36,0,0,0,0,.5.37.37,0,0,0,.49,0,.34.34,0,0,0,.11-.25A.39.39,0,0,0,2.5,10,.39.39,0,0,0,2.25,9.9Z"/><path class="cls-2" d="M9,3.9a.34.34,0,0,0-.35.35.39.39,0,0,0,.1.25.36.36,0,0,0,.6-.25A.39.39,0,0,0,9.25,4,.37.37,0,0,0,9,3.9Z"/><path class="cls-2" d="M13.5,2.4a.39.39,0,0,0-.25.1.36.36,0,0,0,0,.5.38.38,0,0,0,.5,0,.36.36,0,0,0,0-.5A.39.39,0,0,0,13.5,2.4Z"/><path class="cls-2" d="M21.5,3.4a.34.34,0,0,0-.35.35.33.33,0,0,0,.11.25.35.35,0,0,0,.59-.25.34.34,0,0,0-.35-.35Z"/><path class="cls-2" d="M23,6.15a.35.35,0,0,0-.25.6.37.37,0,0,0,.5,0,.36.36,0,0,0,0-.5A.37.37,0,0,0,23,6.15Z"/><path class="cls-2" d="M22.25,11.9a.35.35,0,0,0-.25.6.38.38,0,0,0,.5,0,.36.36,0,0,0,0-.5A.37.37,0,0,0,22.25,11.9Z"/><path class="cls-2" d="M24.25,14.4a.34.34,0,0,0-.35.35A.37.37,0,0,0,24,15a.38.38,0,0,0,.5,0,.37.37,0,0,0,.1-.25.39.39,0,0,0-.1-.25A.37.37,0,0,0,24.25,14.4Z"/><path class="cls-2" d="M26.25,24.15a.35.35,0,0,0-.25.6.37.37,0,0,0,.5,0,.35.35,0,0,0-.25-.6Z"/><path class="cls-2" d="M25.75,28.4a.35.35,0,0,0-.25.6.37.37,0,0,0,.5,0,.35.35,0,0,0-.25-.6Z"/><path class="cls-2" d="M32.25,40.9a.34.34,0,0,0-.35.35.33.33,0,0,0,.11.25.35.35,0,0,0,.59-.25.34.34,0,0,0-.35-.35Z"/><path class="cls-2" d="M34.25,44.15a.34.34,0,0,0-.35.35.35.35,0,0,0,.1.25.37.37,0,0,0,.5,0,.36.36,0,0,0,0-.5A.37.37,0,0,0,34.25,44.15Z"/><path class="cls-2" d="M41.75,46.15a.35.35,0,0,0-.25.6.37.37,0,0,0,.5,0,.35.35,0,0,0-.25-.6Z"/><path class="cls-2" d="M43,51.15a.36.36,0,0,0-.25.11.33.33,0,0,0-.1.24.39.39,0,0,0,.1.25.37.37,0,0,0,.5,0,.39.39,0,0,0,.1-.25.34.34,0,0,0-.11-.25A.35.35,0,0,0,43,51.15Z"/><path class="cls-2" d="M36.5,52.65a.39.39,0,0,0-.25.1.36.36,0,0,0-.1.25.31.31,0,0,0,.1.24.35.35,0,0,0,.5,0,.35.35,0,0,0-.25-.6Z"/><path class="cls-2" d="M27.75,49.65a.35.35,0,0,0-.25.6.37.37,0,0,0,.5,0,.35.35,0,0,0-.25-.6Z"/><path class="cls-2" d="M52,49.9a.33.33,0,0,0-.25.11.35.35,0,0,0-.1.24.39.39,0,0,0,.1.25.36.36,0,0,0,.6-.25.39.39,0,0,0-.1-.25A.37.37,0,0,0,52,49.9Z"/><path class="cls-2" d="M43.25,54.15a.37.37,0,0,0-.25.1.36.36,0,0,0,0,.5.38.38,0,0,0,.5,0,.35.35,0,0,0-.25-.6Z"/><path class="cls-2" d="M50.5,53.9a.37.37,0,0,0-.25.1.36.36,0,0,0,0,.5.36.36,0,0,0,.6-.25.34.34,0,0,0-.35-.35Z"/><path class="cls-2" d="M59.5,54.65a.34.34,0,0,0-.35.35.33.33,0,0,0,.11.25.37.37,0,0,0,.49,0,.36.36,0,0,0,.1-.25.34.34,0,0,0-.35-.35Z"/><path class="cls-2" d="M58.25,57.9A.37.37,0,0,0,58,58a.36.36,0,0,0,0,.5.36.36,0,0,0,.6-.25.34.34,0,0,0-.35-.35Z"/><path class="cls-2" d="M61.5,60.9a.34.34,0,0,0-.35.35.33.33,0,0,0,.11.25.36.36,0,0,0,.49,0,.31.31,0,0,0,.1-.24.34.34,0,0,0-.35-.35Z"/><path class="cls-2" d="M58.75,64.4a.39.39,0,0,0-.25.1.35.35,0,0,0-.1.25.31.31,0,0,0,.1.24.35.35,0,0,0,.6-.24.34.34,0,0,0-.35-.35Z"/><path class="cls-2" d="M60,67.15a.34.34,0,0,0-.25.11.35.35,0,0,0-.1.24.33.33,0,0,0,.11.25.37.37,0,0,0,.49,0,.36.36,0,0,0,.1-.25.34.34,0,0,0-.35-.35Z"/><path class="cls-2" d="M67.5,65.9a.39.39,0,0,0-.25.1.36.36,0,0,0-.1.25.37.37,0,0,0,.1.25.38.38,0,0,0,.5,0,.35.35,0,0,0-.25-.6Z"/><path class="cls-2" d="M70.75,63.4a.39.39,0,0,0-.25.1.36.36,0,0,0-.1.25.37.37,0,0,0,.1.25A.37.37,0,0,0,71,64a.36.36,0,0,0,.11-.25.34.34,0,0,0-.35-.35Z"/><path class="cls-2" d="M65.75,62.15a.34.34,0,0,0-.35.35.37.37,0,0,0,.1.25.38.38,0,0,0,.5,0,.35.35,0,0,0-.25-.6Z"/><path class="cls-2" d="M60.25,48.15a.35.35,0,0,0-.25.6.37.37,0,0,0,.5,0,.35.35,0,0,0-.25-.6Z"/><path class="cls-2" d="M55.5,48.15a.35.35,0,0,0-.25.6.38.38,0,0,0,.5,0,.35.35,0,0,0-.25-.6Z"/><path class="cls-2" d="M55.5,53.15a.34.34,0,0,0-.25.11.35.35,0,0,0-.1.24.33.33,0,0,0,.11.25.37.37,0,0,0,.49,0,.36.36,0,0,0,.1-.25.34.34,0,0,0-.35-.35Z"/><path class="cls-2" d="M65,46.15a.34.34,0,0,0-.35.35.33.33,0,0,0,.11.25.37.37,0,0,0,.49,0,.36.36,0,0,0,.1-.25.34.34,0,0,0-.35-.35Z"/><path class="cls-2" d="M57.75,41.15a.33.33,0,0,0-.25.11.35.35,0,0,0-.1.24.33.33,0,0,0,.11.25.37.37,0,0,0,.49,0,.36.36,0,0,0,.1-.25.34.34,0,0,0-.35-.35Z"/><path class="cls-2" d="M52.75,39.15a.36.36,0,0,0-.25.11.35.35,0,0,0-.1.24.33.33,0,0,0,.11.25.37.37,0,0,0,.49,0,.36.36,0,0,0,.1-.25.34.34,0,0,0-.35-.35Z"/><path class="cls-2" d="M47.5,38.15a.36.36,0,0,0-.25.11.35.35,0,0,0-.1.24.33.33,0,0,0,.11.25.37.37,0,0,0,.49,0,.36.36,0,0,0,.1-.25.34.34,0,0,0-.35-.35Z"/><path class="cls-2" d="M44.25,32.65a.36.36,0,0,0-.25.11.35.35,0,0,0-.1.24.39.39,0,0,0,.1.25.37.37,0,0,0,.5,0,.37.37,0,0,0,.1-.25.33.33,0,0,0-.11-.25A.35.35,0,0,0,44.25,32.65Z"/><path class="cls-2" d="M34,30.4a.35.35,0,0,0-.25.6.37.37,0,0,0,.5,0,.35.35,0,0,0-.25-.6Z"/><path class="cls-2" d="M40.75,23.9a.35.35,0,0,0-.25.6.36.36,0,0,0,.49,0,.34.34,0,0,0,.11-.25.34.34,0,0,0-.35-.35Z"/><path class="cls-2" d="M45.75,19.65a.34.34,0,0,0-.35.35.33.33,0,0,0,.11.25A.35.35,0,0,0,46.1,20a.34.34,0,0,0-.35-.35Z"/><path class="cls-2" d="M46.5,15.15a.35.35,0,0,0-.25.6.35.35,0,0,0,.49,0,.36.36,0,0,0,.11-.25.34.34,0,0,0-.35-.35Z"/><path class="cls-2" d="M42,12.4a.35.35,0,0,0-.24.1.36.36,0,0,0-.11.25.39.39,0,0,0,.1.25.37.37,0,0,0,.5,0,.35.35,0,0,0-.25-.6Z"/><path class="cls-2" d="M40,9.15a.35.35,0,0,0-.25.6.37.37,0,0,0,.5,0,.36.36,0,0,0,0-.5A.37.37,0,0,0,40,9.15Z"/><path class="cls-2" d="M36,9.15a.34.34,0,0,0-.35.35.33.33,0,0,0,.11.25.35.35,0,0,0,.59-.25A.34.34,0,0,0,36,9.15Z"/><path class="cls-2" d="M36.5,19.15a.39.39,0,0,0-.25.1.35.35,0,0,0-.1.25.39.39,0,0,0,.1.25.36.36,0,0,0,.5,0,.31.31,0,0,0,.1-.24.34.34,0,0,0-.35-.35Z"/><path class="cls-2" d="M30,8.4a.35.35,0,0,0-.24.1.36.36,0,0,0-.11.25.33.33,0,0,0,.11.25.37.37,0,0,0,.49,0,.36.36,0,0,0,.1-.25A.34.34,0,0,0,30,8.4Z"/><path class="cls-2" d="M31.5,3.4a.34.34,0,0,0-.35.35.39.39,0,0,0,.1.25.37.37,0,0,0,.5,0,.36.36,0,0,0,0-.5A.39.39,0,0,0,31.5,3.4Z"/><path class="cls-2" d="M37,.9a.39.39,0,0,0-.25.1.37.37,0,0,0-.1.25.33.33,0,0,0,.11.25.37.37,0,0,0,.49,0,.36.36,0,0,0,.1-.25.37.37,0,0,0-.1-.25A.39.39,0,0,0,37,.9Z"/><path class="cls-2" d="M63,14.9a.34.34,0,0,0-.35.35.33.33,0,0,0,.11.25.37.37,0,0,0,.49,0,.36.36,0,0,0,.1-.25A.34.34,0,0,0,63,14.9Z"/><path class="cls-2" d="M60,21.15a.33.33,0,0,0-.25.11.35.35,0,0,0-.1.24.35.35,0,0,0,.59.25.36.36,0,0,0,.11-.25.39.39,0,0,0-.1-.25A.37.37,0,0,0,60,21.15Z"/><path class="cls-2" d="M54.5,21.4a.39.39,0,0,0-.25.1.37.37,0,0,0-.1.25.35.35,0,0,0,.7,0,.35.35,0,0,0-.1-.24A.34.34,0,0,0,54.5,21.4Z"/><path class="cls-2" d="M54.75,30.15a.36.36,0,0,0-.25.11.33.33,0,0,0-.1.24.39.39,0,0,0,.1.25.37.37,0,0,0,.5,0,.39.39,0,0,0,.1-.25.34.34,0,0,0-.11-.25A.35.35,0,0,0,54.75,30.15Z"/><path class="cls-2" d="M62.5,29.65a.35.35,0,0,0-.25.6.37.37,0,0,0,.5,0,.35.35,0,0,0-.25-.6Z"/><path class="cls-2" d="M67,24.4a.35.35,0,0,0-.24.1.36.36,0,0,0-.11.25.39.39,0,0,0,.1.25.36.36,0,0,0,.49,0,.32.32,0,0,0,.11-.25A.34.34,0,0,0,67,24.4Z"/><path class="cls-2" d="M69.5,17.65a.35.35,0,0,0-.24.1.36.36,0,0,0-.11.25.39.39,0,0,0,.1.25.36.36,0,0,0,.6-.25.34.34,0,0,0-.35-.35Z"/><path class="cls-2" d="M63.5,10.15a.35.35,0,0,0-.24.1.36.36,0,0,0-.11.25.39.39,0,0,0,.1.25.36.36,0,0,0,.49,0,.32.32,0,0,0,.11-.25.34.34,0,0,0-.35-.35Z"/><path class="cls-2" d="M70.25,10.9a.34.34,0,0,0-.35.35.33.33,0,0,0,.11.25.37.37,0,0,0,.49,0,.36.36,0,0,0,.1-.25.34.34,0,0,0-.35-.35Z"/><path class="cls-2" d="M64.75,6.4a.35.35,0,0,0-.25.6A.36.36,0,0,0,65,7a.35.35,0,0,0,.1-.24.34.34,0,0,0-.35-.35Z"/><path class="cls-2" d="M65.75,3.65A.34.34,0,0,0,65.4,4a.39.39,0,0,0,.1.25.37.37,0,0,0,.5,0,.36.36,0,0,0,0-.5A.39.39,0,0,0,65.75,3.65Z"/><path class="cls-2" d="M62.5,1.65a.39.39,0,0,0-.25.1.39.39,0,0,0-.1.25.34.34,0,0,0,.11.25.36.36,0,0,0,.49,0,.31.31,0,0,0,.1-.24.39.39,0,0,0-.1-.25A.39.39,0,0,0,62.5,1.65Z"/><path class="cls-2" d="M52.75,2.15a.36.36,0,0,0-.25.1.39.39,0,0,0-.1.25.39.39,0,0,0,.1.25.36.36,0,0,0,.6-.25.39.39,0,0,0-.1-.25A.37.37,0,0,0,52.75,2.15Z"/><path class="cls-2" d="M44.75,5.4a.34.34,0,0,0-.25.11.35.35,0,0,0-.1.24.33.33,0,0,0,.11.25A.37.37,0,0,0,45,6a.36.36,0,0,0,.1-.25.34.34,0,0,0-.35-.35Z"/><path class="cls-2" d="M28.5.65a.39.39,0,0,0-.25.1.36.36,0,0,0-.1.25.33.33,0,0,0,.11.25.36.36,0,0,0,.49,0,.36.36,0,0,0,.1-.25.33.33,0,0,0-.11-.25A.35.35,0,0,0,28.5.65Z"/><path class="cls-2" d="M3,42.4a.39.39,0,0,0-.25.1.36.36,0,0,0,0,.5.38.38,0,0,0,.5,0,.36.36,0,0,0,0-.5A.39.39,0,0,0,3,42.4Z"/><path class="cls-2" d="M13.25,66.9A.36.36,0,0,0,13,67a.31.31,0,0,0-.1.24.37.37,0,0,0,.1.25.36.36,0,0,0,.6-.25.33.33,0,0,0-.11-.25A.35.35,0,0,0,13.25,66.9Z"/><path class="cls-2" d="M70.25,37.4a.34.34,0,0,0-.35.35A.33.33,0,0,0,70,38a.37.37,0,0,0,.49,0,.36.36,0,0,0,.1-.25.34.34,0,0,0-.35-.35Z"/><path class="cls-2" d="M71.25,30.65a.35.35,0,0,0-.25.6.37.37,0,0,0,.5,0,.35.35,0,0,0-.25-.6Z"/><path class="cls-2" d="M1,20.15a.39.39,0,0,0-.25.1.39.39,0,0,0-.1.25.33.33,0,0,0,.11.25.37.37,0,0,0,.49,0,.36.36,0,0,0,.1-.25.39.39,0,0,0-.1-.25A.39.39,0,0,0,1,20.15Z"/><path class="cls-2" d="M72,48.4a.35.35,0,0,0-.25.6.38.38,0,0,0,.5,0,.35.35,0,0,0-.25-.6Z"/><path class="cls-2" d="M69,45.4a.35.35,0,0,0-.25.6.37.37,0,0,0,.5,0,.39.39,0,0,0,.1-.25.35.35,0,0,0-.1-.25A.39.39,0,0,0,69,45.4Z"/><path class="cls-2" d="M68.5,11.65a.34.34,0,0,0-.35.35.37.37,0,0,0,.1.25.38.38,0,0,0,.5,0,.35.35,0,0,0-.25-.6Z"/><path class="cls-2" d="M71.5,3.65a.34.34,0,0,0-.35.35.39.39,0,0,0,.1.25.37.37,0,0,0,.5,0,.39.39,0,0,0,.1-.25.35.35,0,0,0-.1-.25A.39.39,0,0,0,71.5,3.65Z"/><path class="cls-2" d="M.5,14.15a.39.39,0,0,0-.25.1.36.36,0,0,0,0,.5.38.38,0,0,0,.5,0,.36.36,0,0,0,0-.5A.39.39,0,0,0,.5,14.15Z"/><path class="cls-2" d="M2.75.65a.39.39,0,0,0-.25.1A.39.39,0,0,0,2.4,1a.39.39,0,0,0,.1.25A.36.36,0,0,0,3.1,1,.39.39,0,0,0,3,.75.39.39,0,0,0,2.75.65Z"/><path class="cls-2" d="M70.25,47.9a.34.34,0,0,0-.35.35.33.33,0,0,0,.11.25.37.37,0,0,0,.49,0,.36.36,0,0,0,.1-.25.34.34,0,0,0-.35-.35Z"/><path class="cls-2" d="M1.25,55.15a.39.39,0,0,0-.25.1.36.36,0,0,0,0,.5.38.38,0,0,0,.5,0,.36.36,0,0,0,0-.5A.39.39,0,0,0,1.25,55.15Z"/><path class="cls-2" d="M18,58.85a.65.65,0,0,0-.65.65.66.66,0,0,0,.19.46.68.68,0,0,0,.92,0A.65.65,0,0,0,18,58.85Z"/><path class="cls-2" d="M29.25,60.85a.66.66,0,0,0-.46.19.68.68,0,0,0-.19.46.66.66,0,0,0,.19.46.67.67,0,0,0,.92,0,.66.66,0,0,0,.19-.46.65.65,0,0,0-.65-.65Z"/><path class="cls-2" d="M29.25,68.35a.65.65,0,0,0-.65.65.64.64,0,0,0,.19.46.68.68,0,0,0,.92,0,.65.65,0,0,0,0-.92A.68.68,0,0,0,29.25,68.35Z"/><path class="cls-2" d="M40.25,61.35a.65.65,0,0,0-.65.65.66.66,0,0,0,.19.46.68.68,0,0,0,.92,0A.63.63,0,0,0,40.9,62a.68.68,0,0,0-.19-.46A.66.66,0,0,0,40.25,61.35Z"/><path class="cls-2" d="M45,59.85a.61.61,0,0,0-.46.2.64.64,0,0,0-.19.45.66.66,0,0,0,.19.46.68.68,0,0,0,.92,0,.63.63,0,0,0,.19-.46.61.61,0,0,0-.2-.46A.6.6,0,0,0,45,59.85Z"/><path class="cls-2" d="M47.25,48.85A.65.65,0,0,0,46.79,50a.68.68,0,0,0,.92,0,.65.65,0,0,0-.46-1.11Z"/><path class="cls-2" d="M54.75,64.85a.64.64,0,0,0-.46.19.65.65,0,0,0,0,.92.68.68,0,0,0,.92,0,.64.64,0,0,0,.19-.46.66.66,0,0,0-.19-.46A.64.64,0,0,0,54.75,64.85Z"/><path class="cls-2" d="M64,65.1a.65.65,0,0,0-.46,1.11.68.68,0,0,0,.92,0A.65.65,0,0,0,64,65.1Z"/><path class="cls-2" d="M65,69.1a.66.66,0,0,0-.46.19.68.68,0,0,0-.19.46.66.66,0,0,0,.19.46.65.65,0,0,0,1.11-.46.63.63,0,0,0-.18-.45A.67.67,0,0,0,65,69.1Z"/><path class="cls-2" d="M69.5,53.6A.65.65,0,0,0,69,54.71a.67.67,0,0,0,.92,0,.65.65,0,0,0-.46-1.11Z"/><path class="cls-2" d="M8,24.6a.64.64,0,0,0-.46.19.68.68,0,0,0-.19.46.66.66,0,0,0,.19.46.68.68,0,0,0,.92,0,.66.66,0,0,0,.19-.46.68.68,0,0,0-.19-.46A.64.64,0,0,0,8,24.6Z"/><path class="cls-2" d="M5,14.85a.64.64,0,0,0-.46.19.65.65,0,0,0,0,.92.67.67,0,0,0,.92,0,.65.65,0,0,0,0-.92A.64.64,0,0,0,5,14.85Z"/><path class="cls-2" d="M2.25,4.6a.66.66,0,0,0-.46.19.68.68,0,0,0-.19.46.66.66,0,0,0,.19.46.68.68,0,0,0,.92,0,.66.66,0,0,0,.19-.46.68.68,0,0,0-.19-.46A.66.66,0,0,0,2.25,4.6Z"/><path class="cls-2" d="M17.75,1.85a.66.66,0,0,0-.46.19.68.68,0,0,0-.19.46.66.66,0,0,0,.19.46.68.68,0,0,0,.92,0,.66.66,0,0,0,.19-.46A.68.68,0,0,0,18.21,2,.66.66,0,0,0,17.75,1.85Z"/><path class="cls-2" d="M19.25,9.35a.65.65,0,0,0-.65.65.64.64,0,0,0,.19.46.67.67,0,0,0,.92,0A.66.66,0,0,0,19.9,10a.68.68,0,0,0-.19-.46A.66.66,0,0,0,19.25,9.35Z"/><path class="cls-2" d="M21,26.35a.65.65,0,0,0-.65.65.64.64,0,0,0,.19.46.67.67,0,0,0,.92,0,.66.66,0,0,0,.19-.46.68.68,0,0,0-.19-.46A.64.64,0,0,0,21,26.35Z"/><path class="cls-2" d="M28.5,20.6A.65.65,0,0,0,28,21.71a.67.67,0,0,0,.92,0,.66.66,0,0,0,.19-.46.68.68,0,0,0-.19-.46A.64.64,0,0,0,28.5,20.6Z"/><path class="cls-2" d="M34,11.35a.65.65,0,0,0-.65.65.64.64,0,0,0,.19.46.68.68,0,0,0,.92,0,.63.63,0,0,0,.19-.46.64.64,0,0,0-.19-.46A.66.66,0,0,0,34,11.35Z"/><path class="cls-2" d="M34.25,4.85a.64.64,0,0,0-.46.19.65.65,0,0,0,0,.92.67.67,0,0,0,.92,0,.65.65,0,0,0,0-.92A.66.66,0,0,0,34.25,4.85Z"/><path class="cls-2" d="M41.75,16.6a.65.65,0,0,0-.46,1.11.68.68,0,0,0,.92,0,.65.65,0,0,0-.46-1.11Z"/><path class="cls-2" d="M52.25,11.85A.65.65,0,0,0,51.79,13a.68.68,0,0,0,.92,0,.65.65,0,0,0-.46-1.11Z"/><path class="cls-2" d="M55,6.35a.66.66,0,0,0-.46.19.68.68,0,0,0-.19.46.64.64,0,0,0,.19.46.68.68,0,0,0,.92,0A.64.64,0,0,0,55.65,7a.68.68,0,0,0-.19-.46A.66.66,0,0,0,55,6.35Z"/><path class="cls-2" d="M25.25,47.1a.66.66,0,0,0-.46.19.68.68,0,0,0-.19.46.66.66,0,0,0,.19.46.68.68,0,0,0,.92,0,.66.66,0,0,0,.19-.46.68.68,0,0,0-.19-.46A.66.66,0,0,0,25.25,47.1Z"/><path class="cls-2" d="M35.25,48.35a.64.64,0,0,0-.46.19.65.65,0,0,0,0,.92.68.68,0,0,0,.92,0,.65.65,0,0,0-.46-1.11Z"/><path class="cls-2" d="M45,42.1a.65.65,0,0,0-.46,1.11.68.68,0,0,0,.92,0,.63.63,0,0,0,.19-.46.61.61,0,0,0-.2-.46A.62.62,0,0,0,45,42.1Z"/><path class="cls-2" d="M52,28.6a.65.65,0,0,0-.46,1.11.67.67,0,0,0,.92,0,.64.64,0,0,0,.19-.46A.65.65,0,0,0,52,28.6Z"/><path class="cls-2" d="M67,19.85a.65.65,0,0,0-.65.65.61.61,0,0,0,.2.46.68.68,0,0,0,.91,0A.65.65,0,0,0,67,19.85Z"/><path class="cls-2" d="M47.25,23.85A.65.65,0,0,0,46.79,25a.68.68,0,0,0,.92,0,.65.65,0,0,0-.46-1.11Z"/><path class="cls-2" d="M37,27.1a.66.66,0,0,0-.46.19.68.68,0,0,0-.19.46.66.66,0,0,0,.19.46.68.68,0,0,0,.92,0,.66.66,0,0,0,.19-.46.68.68,0,0,0-.19-.46A.66.66,0,0,0,37,27.1Z"/><path class="cls-2" d="M17,43.1a.65.65,0,0,0-.46,1.11.68.68,0,0,0,.92,0,.65.65,0,0,0,0-.92A.64.64,0,0,0,17,43.1Z"/><path class="cls-2" d="M11.25,34.85a.65.65,0,0,0-.65.65.64.64,0,0,0,.19.46.67.67,0,0,0,.92,0,.65.65,0,0,0-.46-1.11Z"/><path class="cls-2" d="M67.5,40.85A.66.66,0,0,0,67,41a.68.68,0,0,0-.19.46A.66.66,0,0,0,67,42,.68.68,0,0,0,68,42a.64.64,0,0,0,.19-.46.65.65,0,0,0-.65-.65Z"/><path class="cls-2" d="M7.25,55.85a.61.61,0,0,0-.46.2.62.62,0,0,0-.19.45.66.66,0,0,0,.19.46.67.67,0,0,0,.92,0,.65.65,0,0,0,0-.92A.64.64,0,0,0,7.25,55.85Z"/><path class="cls-2" d="M8.5,66.35a.68.68,0,0,0-.46.19.66.66,0,0,0-.19.46.64.64,0,0,0,.19.46.67.67,0,0,0,.92,0A.64.64,0,0,0,9.15,67a.65.65,0,0,0-.65-.65Z"/><path class="cls-2" d="M3.5,69.1a.66.66,0,0,0-.46.19.68.68,0,0,0-.19.46.66.66,0,0,0,.19.46.68.68,0,0,0,.92,0,.66.66,0,0,0,.19-.46A.68.68,0,0,0,4,69.29.66.66,0,0,0,3.5,69.1Z"/><path class="cls-2" d="M66.5,34.35A.65.65,0,0,0,66,35.46a.68.68,0,0,0,.92,0,.64.64,0,0,0,.19-.46.66.66,0,0,0-.19-.46A.64.64,0,0,0,66.5,34.35Z"/><path class="cls-2" d="M44,8.6a.66.66,0,0,0-.46.19.68.68,0,0,0-.19.46.66.66,0,0,0,.19.46.67.67,0,0,0,.92,0,.66.66,0,0,0,.19-.46.68.68,0,0,0-.19-.46A.66.66,0,0,0,44,8.6Z"/><path class="cls-2" d="M25.75,1.6a.66.66,0,0,0-.46.19.68.68,0,0,0-.19.46.66.66,0,0,0,.19.46.67.67,0,0,0,.92,0,.66.66,0,0,0,.19-.46.68.68,0,0,0-.19-.46A.66.66,0,0,0,25.75,1.6Z"/><path class="cls-2" d="M22,29.85a.66.66,0,0,0-.46.19.65.65,0,0,0,0,.92.68.68,0,0,0,.92,0A.65.65,0,0,0,22,29.85Z"/><path class="cls-2" d="M24,42.6a.66.66,0,0,0-.46.19.68.68,0,0,0-.19.46.66.66,0,0,0,.19.46.67.67,0,0,0,.92,0,.64.64,0,0,0,.19-.46A.65.65,0,0,0,24,42.6Z"/><path class="cls-2" d="M41.5,37.1A.65.65,0,0,0,41,38.21a.68.68,0,0,0,.92,0,.66.66,0,0,0,.19-.46.68.68,0,0,0-.19-.46A.66.66,0,0,0,41.5,37.1Z"/><path class="cls-2" d="M67.5,27.85A.66.66,0,0,0,67,28a.68.68,0,0,0-.19.46A.66.66,0,0,0,67,29,.68.68,0,0,0,68,29a.64.64,0,0,0,.19-.46.65.65,0,0,0-.65-.65Z"/><path class="cls-2" d="M53.25,56.6a.65.65,0,0,0-.46,1.11.68.68,0,0,0,.92,0,.66.66,0,0,0,.19-.46.68.68,0,0,0-.19-.46A.66.66,0,0,0,53.25,56.6Z"/><path class="cls-2" d="M34,55.6a.66.66,0,0,0-.46.19.68.68,0,0,0-.19.46.64.64,0,0,0,.19.46.68.68,0,0,0,.92,0,.64.64,0,0,0,.19-.46A.65.65,0,0,0,34,55.6Z"/><path class="cls-2" d="M12.75,52.35a.65.65,0,0,0-.46,1.11.67.67,0,0,0,.92,0,.65.65,0,0,0-.46-1.11Z"/><path class="cls-2" d="M49.5,67.1A.65.65,0,0,0,49,68.21a.68.68,0,0,0,.92,0,.65.65,0,0,0-.46-1.11Z"/><path class="cls-2" d="M59,50.85A.65.65,0,0,0,58.54,52a.68.68,0,0,0,.92,0,.64.64,0,0,0,.19-.46.65.65,0,0,0-.65-.65Z"/><path class="cls-2" d="M67.5,14.35a.66.66,0,0,0-.46.19.68.68,0,0,0-.19.46.66.66,0,0,0,.19.46.68.68,0,0,0,.92,0,.64.64,0,0,0,.19-.46.65.65,0,0,0-.65-.65Z"/><path class="cls-2" d="M5.25,1.85A.64.64,0,0,0,4.79,2a.65.65,0,0,0,0,.92.67.67,0,0,0,.92,0,.65.65,0,0,0,0-.92A.64.64,0,0,0,5.25,1.85Z"/><path class="cls-2" d="M2.75,58.35a.61.61,0,0,0-.46.2A.62.62,0,0,0,2.1,59a.66.66,0,0,0,.19.46.67.67,0,0,0,.92,0,.65.65,0,0,0,0-.92A.64.64,0,0,0,2.75,58.35Z"/><path class="cls-2" d="M16.5,68.35A.65.65,0,0,0,16,69.46a.68.68,0,0,0,.92,0,.65.65,0,0,0-.46-1.11Z"/><path class="cls-2" d="M40.5,67.1A.65.65,0,0,0,40,68.21a.68.68,0,0,0,.92,0,.64.64,0,0,0,.19-.46.65.65,0,0,0-.65-.65Z"/><path class="cls-2" d="M2.75,39.6a.64.64,0,0,0-.46.19.65.65,0,0,0,0,.92.68.68,0,0,0,.92,0,.65.65,0,0,0-.46-1.11Z"/><path class="cls-2" d="M7.5,46.6a.64.64,0,0,0-.46.19.65.65,0,0,0,0,.92.68.68,0,0,0,.92,0,.64.64,0,0,0,.19-.46A.66.66,0,0,0,8,46.79.64.64,0,0,0,7.5,46.6Z"/><path class="cls-2" d="M4,24.85a.66.66,0,0,0-.46.19.68.68,0,0,0-.19.46.66.66,0,0,0,.19.46.67.67,0,0,0,.92,0,.66.66,0,0,0,.19-.46A.68.68,0,0,0,4.46,25,.64.64,0,0,0,4,24.85Z"/><path class="cls-2" d="M11,21.1a.66.66,0,0,0-.46.19.68.68,0,0,0-.19.46.64.64,0,0,0,.19.46.68.68,0,0,0,.92,0,.66.66,0,0,0,.19-.46.68.68,0,0,0-.19-.46A.66.66,0,0,0,11,21.1Z"/><path class="cls-2" d="M10,11.85a.64.64,0,0,0-.46.19.65.65,0,0,0,0,.92.68.68,0,0,0,.92,0,.65.65,0,0,0,0-.92A.64.64,0,0,0,10,11.85Z"/><path class="cls-2" d="M13.5,5.85A.66.66,0,0,0,13,6a.68.68,0,0,0-.19.46A.64.64,0,0,0,13,7,.67.67,0,0,0,14,7a.66.66,0,0,0,.19-.46A.68.68,0,0,0,14,6,.66.66,0,0,0,13.5,5.85Z"/><path class="cls-2" d="M22,18.35a.66.66,0,0,0-.46.19.64.64,0,0,0-.19.46.6.6,0,0,0,.2.46.65.65,0,0,0,1.1-.46.68.68,0,0,0-.19-.46A.66.66,0,0,0,22,18.35Z"/><path class="cls-2" d="M31.25,34.1a.66.66,0,0,0-.46.19.68.68,0,0,0-.19.46.66.66,0,0,0,.19.46.68.68,0,0,0,.92,0,.66.66,0,0,0,.19-.46.68.68,0,0,0-.19-.46A.66.66,0,0,0,31.25,34.1Z"/><path class="cls-2" d="M26,37.6a.65.65,0,0,0-.46,1.11.67.67,0,0,0,.92,0A.65.65,0,0,0,26,37.6Z"/><path class="cls-2" d="M37.25,43.1a.66.66,0,0,0-.46.19.68.68,0,0,0-.19.46.66.66,0,0,0,.19.46.68.68,0,0,0,.92,0,.66.66,0,0,0,.19-.46.68.68,0,0,0-.19-.46A.66.66,0,0,0,37.25,43.1Z"/><path class="cls-2" d="M61.75,55.1a.66.66,0,0,0-.46.19.68.68,0,0,0-.19.46.66.66,0,0,0,.19.46.68.68,0,0,0,.92,0,.64.64,0,0,0,.19-.46.65.65,0,0,0-.65-.65Z"/><path class="cls-2" d="M61.25,44.6a.64.64,0,0,0-.46.19.68.68,0,0,0-.19.46.66.66,0,0,0,.19.46.68.68,0,0,0,.92,0,.65.65,0,0,0,0-.92A.64.64,0,0,0,61.25,44.6Z"/><path class="cls-2" d="M58.75,14.6a.66.66,0,0,0-.46.19.68.68,0,0,0-.19.46.66.66,0,0,0,.19.46.68.68,0,0,0,.92,0,.66.66,0,0,0,.19-.46.68.68,0,0,0-.19-.46A.66.66,0,0,0,58.75,14.6Z"/><path class="cls-2" d="M59.25,27.35a.64.64,0,0,0-.46.19.65.65,0,0,0,0,.92.68.68,0,0,0,.92,0,.65.65,0,0,0,0-.92A.64.64,0,0,0,59.25,27.35Z"/><path class="cls-2" d="M55.75,36.1a.66.66,0,0,0-.46.19.68.68,0,0,0-.19.46.66.66,0,0,0,.19.46.68.68,0,0,0,.92,0,.66.66,0,0,0,.19-.46.68.68,0,0,0-.19-.46A.66.66,0,0,0,55.75,36.1Z"/><path class="cls-2" d="M69.25,1.1a.68.68,0,0,0-.46.19.65.65,0,0,0,0,.92.69.69,0,0,0,.92,0,.65.65,0,0,0-.46-1.11Z"/><path class="cls-2" d="M60.75,5.85A.65.65,0,0,0,60.29,7a.67.67,0,0,0,.92,0,.64.64,0,0,0,.19-.46.65.65,0,0,0-.65-.65Z"/><path class="cls-2" d="M44.5.35a.65.65,0,0,0-.65.65.66.66,0,0,0,.19.46.68.68,0,0,0,.92,0,.65.65,0,0,0,0-.92A.66.66,0,0,0,44.5.35Z"/><path class="cls-2" d="M24.5,70.6a.65.65,0,0,0-.65.65.64.64,0,0,0,.19.46.67.67,0,0,0,.92,0,.66.66,0,0,0,.19-.46.68.68,0,0,0-.19-.46A.64.64,0,0,0,24.5,70.6Z"/><path class="cls-2" d="M0,48.4a.39.39,0,0,0-.25.1.36.36,0,0,0,0,.5.38.38,0,0,0,.5,0,.39.39,0,0,0,.1-.25.39.39,0,0,0-.1-.25A.39.39,0,0,0,0,48.4Z"/></pattern></defs><title>szene03_SzeneEinzeln_noWood</title><g id="szene04_resized"><polyline class="cls-3" points="516.48 745 789.72 745 789.72 914.26 516.48 914.26 516.48 745"/><polyline class="cls-3" points="926.34 805.94 789.72 805.94 789.72 914.26 926.34 914.26 926.34 805.94"/><polyline class="cls-3" points="849.28 548.4 905.04 548.4 910.49 805.94 843.41 805.94 849.28 548.4"/><rect class="cls-4" x="748.7" y="768.68" width="19.93" height="8.09"/><rect class="cls-4" x="880.7" y="814.03" width="19.93" height="8.09"/><polyline class="cls-4" points="876.66 784.86 856.73 784.86 856.73 776.77 876.66 776.77 876.66 784.86"/><polyline class="cls-4" points="904.39 745 884.46 745 884.46 736.91 904.39 736.91 904.39 745"/><polyline class="cls-4" points="892.26 703.69 872.33 703.69 872.33 695.61 892.26 695.61 892.26 703.69"/><polyline class="cls-4" points="900.35 658.34 880.42 658.34 880.42 650.26 900.35 650.26 900.35 658.34"/><polyline class="cls-4" points="878.39 565.63 858.46 565.63 858.46 557.54 878.39 557.54 878.39 565.63"/><rect class="cls-4" x="851.24" y="708.17" width="19.93" height="8.09"/><rect class="cls-4" x="902.95" y="822.12" width="19.93" height="8.09"/><rect class="cls-4" x="864.53" y="898.08" width="19.93" height="8.09"/><rect class="cls-4" x="820.92" y="898.08" width="19.93" height="8.09"/><rect class="cls-4" x="684.58" y="800.17" width="19.93" height="8.09"/><rect class="cls-4" x="660.32" y="800.17" width="19.93" height="8.09"/><polyline class="cls-4" points="579.01 827.89 559.08 827.89 559.08 819.81 579.01 819.81 579.01 827.89"/><rect class="cls-4" x="634.47" y="897.22" width="19.93" height="8.09"/><rect class="cls-4" x="533.73" y="819.81" width="19.93" height="8.09"/><rect class="cls-4" x="549.12" y="792.08" width="19.93" height="8.09"/><rect class="cls-4" x="762.5" y="754.82" width="19.93" height="8.09"/><path class="cls-5" d="M884.46,745v-8.09h19.93V745H884.46m-4-86.66v-8.08h19.93v8.08H880.42M905,548.4H877.82v9.14h.57v8.09h-.57v130h14.44v8.08H877.82V805.94h32.67L905,548.4"/><polyline class="cls-6" points="904.39 736.91 884.46 736.91 884.46 745 904.39 745 904.39 736.91"/><polyline class="cls-6" points="892.26 695.61 877.82 695.61 877.82 703.69 892.26 703.69 892.26 695.61"/><polyline class="cls-6" points="900.35 650.26 880.42 650.26 880.42 658.34 900.35 658.34 900.35 650.26"/><polyline class="cls-6" points="878.39 557.54 877.82 557.54 877.82 565.63 878.39 565.63 878.39 557.54"/><polyline class="cls-7" points="595.49 885.02 595.49 839.94 640.58 839.94 640.58 885.02 595.49 885.02"/><path class="cls-8" d="M639.11,841.41v42.14H597V841.41h42.14m2.94-2.94H594v48h48v-48"/><polyline class="cls-7" points="533.8 885.02 533.8 839.94 578.88 839.94 578.88 885.02 533.8 885.02"/><path class="cls-8" d="M577.42,841.41v42.14H535.27V841.41h42.15m2.94-2.94h-48v48h48v-48"/><rect class="cls-7" x="811.47" y="839.94" width="45.09" height="45.09"/><path class="cls-8" d="M855.09,841.41v42.14H812.94V841.41h42.15m2.94-2.94H810v48h48Z"/><rect class="cls-7" x="866" y="839.94" width="45.09" height="45.09"/><path class="cls-8" d="M909.62,841.41v42.14H867.47V841.41h42.15m2.94-2.94h-48v48h48Z"/><polygon class="cls-9" points="676.58 914.26 676.58 835.79 759 835.79 759 914.26 768.8 914.26 768.8 825.99 666.78 825.99 666.78 914.26 676.58 914.26 676.58 914.26"/><rect class="cls-10" x="671.68" y="830.89" width="92.22" height="10.2"/><rect class="cls-11" x="671.68" y="841.08" width="92.22" height="9.48"/><rect class="cls-10" x="671.68" y="850.57" width="92.22" height="9.48"/><rect class="cls-11" x="671.68" y="860.1" width="92.22" height="9.48"/><rect class="cls-10" x="671.68" y="869.54" width="92.22" height="9.48"/><rect class="cls-11" x="671.68" y="879.11" width="92.22" height="9.48"/><rect class="cls-10" x="671.68" y="888.69" width="92.22" height="9.48"/><rect class="cls-11" x="671.68" y="898.13" width="92.22" height="9.48"/><rect class="cls-10" x="671.68" y="907.57" width="92.22" height="6.69"/><path class="cls-5" d="M792.9,805.94h-3.18V911.61l8.76-.18L792.9,805.94"/><polygon class="cls-12" points="570.92 712.21 570.92 745 516.48 745 570.92 712.21"/><polygon class="cls-3" points="570.92 712.21 570.92 715.73 521.1 745 516.48 745 570.92 712.21"/><polygon class="cls-12" points="625.62 712.21 625.62 745 571.18 745 625.62 712.21"/><polygon class="cls-3" points="625.62 712.21 625.62 715.73 575.8 745 571.18 745 625.62 712.21"/><polygon class="cls-12" points="680.32 712.21 680.32 745 625.88 745 680.32 712.21"/><polygon class="cls-3" points="680.32 712.21 680.32 715.73 630.5 745 625.88 745 680.32 712.21"/><polygon class="cls-12" points="735.02 712.21 735.02 745 680.58 745 735.02 712.21"/><polygon class="cls-3" points="735.02 712.21 735.02 715.73 685.2 745 680.58 745 735.02 712.21"/><polygon class="cls-12" points="789.72 712.21 789.72 745 735.27 745 789.72 712.21"/><polygon class="cls-3" points="789.72 712.21 789.72 715.73 739.89 745 735.27 745 789.72 712.21"/><path class="cls-13" d="M903.23,515a17.4,17.4,0,1,1-17.4-17.4A17.41,17.41,0,0,1,903.23,515Z"/><circle class="cls-13" cx="919.02" cy="489.76" r="19.66"/><path class="cls-13" d="M952.65,501a14.1,14.1,0,1,1-14.1-14.1A14.09,14.09,0,0,1,952.65,501Z"/><path class="cls-13" d="M947.87,480.08a11.31,11.31,0,1,1-11.31-11.31A11.31,11.31,0,0,1,947.87,480.08Z"/><circle class="cls-13" cx="960.59" cy="479" r="9.96"/><path class="cls-13" d="M910.89,500.47A11.52,11.52,0,1,1,899.37,489,11.52,11.52,0,0,1,910.89,500.47Z"/><path class="cls-13" d="M1002.32,477.94a10,10,0,1,1-10-9.95A10,10,0,0,1,1002.32,477.94Z"/><path class="cls-13" d="M989,490.45a13.68,13.68,0,1,1-13.68-13.68A13.69,13.69,0,0,1,989,490.45Z"/><path class="cls-13" d="M963.68,487.9a11.52,11.52,0,1,1-11.51-11.51A11.51,11.51,0,0,1,963.68,487.9Z"/><path class="cls-13" d="M892.47,473.85a6.64,6.64,0,1,1-6.64-6.65A6.64,6.64,0,0,1,892.47,473.85Z"/><polyline class="cls-14" points="646.62 914.16 382.42 914.16 382.42 799.13 646.62 799.13 646.62 914.16"/><rect class="cls-15" x="382.42" y="907.98" width="264.21" height="6.18"/><rect class="cls-16" x="382.42" y="899.6" width="264.21" height="6.18"/><rect class="cls-15" x="382.42" y="887.89" width="264.21" height="6.18"/><rect class="cls-16" x="382.42" y="879.5" width="264.21" height="6.18"/><rect class="cls-15" x="382.42" y="867.79" width="264.21" height="6.18"/><polyline class="cls-16" points="382.42 865.59 382.42 859.41 646.62 859.41 646.62 865.59 382.42 865.59"/><polyline class="cls-15" points="382.42 853.88 382.42 847.7 646.62 847.7 646.62 853.88 382.42 853.88"/><polyline class="cls-16" points="382.42 845.5 382.42 839.32 646.62 839.32 646.62 845.5 382.42 845.5"/><polyline class="cls-15" points="382.42 833.79 382.42 827.61 646.62 827.61 646.62 833.79 382.42 833.79"/><polyline class="cls-16" points="382.42 825.4 382.42 819.22 646.62 819.22 646.62 825.4 382.42 825.4"/><rect class="cls-15" x="382.42" y="807.51" width="264.21" height="6.18"/><rect class="cls-16" x="382.42" y="799.13" width="264.21" height="6.18"/><path class="cls-17" d="M589.54,853.88h-6.22l.89,5.53h21.85l-.63-3.93,0,0-15.15,2.44h0v0l-.64-4m-1.34-8.38H582l.36,2.2h6.22l-.35-2.2m2.17-11.71h-13l-2.43,5.53h.25l4.85-4.49.08,0-1.45,4.44h11.81l-4-5.46,0-.07,6.34,2.87,0-.07-2.52-2.8m-7.56-8.39h-1.76l-1,2.21h4.71l-2-2.21"/><path class="cls-18" d="M606.06,859.41H584.21l.73,4.54a.93.93,0,0,0,.9.79H586l2.15-.35,2.15-.34h0l16-2.58,0-.06-.32-2"/><polyline class="cls-19" points="588.55 847.7 582.33 847.7 583.32 853.88 589.54 853.88 588.55 847.7"/><polyline class="cls-17" points="577.87 845.5 576.64 845.5 576.17 846.94 576.25 846.99 577.87 845.5"/><path class="cls-18" d="M575.19,839.32h-.25l-.08.18.07,0,.26-.23m15.29,0H578.67l-2,6.18h1.23l3.51-3.22.08,0,.51,3.2h6.23l-.68-4.19.07,0,6.34,2.88.06-.07-3.51-4.75"/><polyline class="cls-19" points="584.79 827.61 580.08 827.61 577.37 833.79 590.37 833.79 584.79 827.61"/><polyline class="cls-18" points="581.63 824.11 581.61 824.14 581.05 825.4 582.81 825.4 581.67 824.14 581.66 824.13 581.63 824.11"/><path class="cls-17" d="M615.45,853.88h-6.21l.9,5.53h6.2l-.89-5.53m-1.34-8.38h-10l-11.54,1.86-.07.1,0,.24h21.88l-.35-2.2M602,833.79h-1.19l-.72,1.64.07.05,1.84-1.69m12.63,0H604.41l-1.81,5.53h2.83l1.21-1.11.08,0,.17,1.09h6.23l-.34-2.08.07,0,4.68,2.13h1.21l-4.08-5.53m-2.92-8.39h-7.22l-1,2.21h10.16l-2-2.21"/><path class="cls-18" d="M616.34,859.41h-6.2l.2,1.19a.18.18,0,0,0,.18.16h0l2.83-.45,2.77-.45a.26.26,0,0,0,.21-.3l0-.15"/><path class="cls-19" d="M614.46,847.7H592.58l.9,5.59.11.07,15.13-2.43,0,0,.47,2.91h6.21l-1-6.18"/><path class="cls-18" d="M605.43,839.32H602.6l-1.17,3.55.08,0,3.92-3.6m7.69,0h-6.23l.9,5.59-3.63.59h10l-1-6.18m5.62,0h-1.21l1.66.75.06-.07-.51-.68"/><polyline class="cls-19" points="613.72 827.61 603.56 827.61 600.84 833.79 602.03 833.79 605.3 830.76 605.38 830.81 604.41 833.79 614.66 833.79 611.71 829.79 611.77 829.72 618.1 832.59 618.15 832.52 613.72 827.61"/><polyline class="cls-18" points="606.89 820.04 606.87 820.07 604.52 825.4 611.74 825.4 606.93 820.07 606.92 820.06 606.89 820.04"/><polyline class="cls-20" points="267.12 769.72 267.12 778.02 372.94 778.02 372.94 769.72 267.12 769.72"/><polyline class="cls-21" points="274.51 798.54 274.51 891.66 303.85 891.66 303.85 798.54 336.45 798.54 336.45 891.66 365.55 891.66 365.55 798.54 372.94 798.54 372.94 777.83 354.91 777.83 354.96 769.72 349.84 769.72 349.91 777.83 289.55 777.83 289.54 769.72 284.75 769.72 284.82 777.83 267.12 777.83 267.12 798.54 274.51 798.54"/><polygon class="cls-22" points="255.22 902.03 254.28 912.62 303.85 912.62 303.85 901.08 303.85 890.8 274.51 890.8 274.17 899.19 255.22 902.03"/><polygon class="cls-22" points="385.09 902.03 386.03 912.62 336.47 912.62 336.47 901.08 336.47 890.8 365.55 890.8 366.14 899.19 385.09 902.03"/><rect class="cls-23" x="273.56" y="885.5" width="31.28" height="8.59"/><rect class="cls-23" x="335.37" y="885.5" width="31.28" height="8.59"/><rect class="cls-24" x="274.51" y="833.19" width="29.33" height="30.01"/><rect class="cls-24" x="336.49" y="833.19" width="29.05" height="30.01"/><rect class="cls-25" x="311.86" y="768.26" width="16.76" height="10.78"/><path class="cls-26" d="M274.28,698.52q-3.58,35.61-7.16,71.2H372.94l-5-71.26,28.87-7.91,32.89-34.34-4.18-27.67L381,667.47l-11.29.11s-28.24,14.54-49.4,14.54-49.51-14.67-49.51-14.67l-39.17,64.09L229.3,781.6h28q1.17-25.32,2.33-50.65l14.67-32.43"/><polyline class="cls-27" points="369.71 667.58 348.56 670.4 341.56 781.92 299 781.92 291.58 670.48 270.8 667.45 274.28 698.52 267.12 769.72 267.12 781.92 372.94 781.92 372.94 769.72 367.96 698.46 369.71 667.58"/><polyline class="cls-28" points="260.05 788.58 258.87 793.94 267.12 795.77 267.12 790.14 260.05 788.58"/><polyline class="cls-28" points="267.12 790.14 267.12 795.77 283.34 799.36 283.45 798.88 284.53 794 267.12 790.14"/><path class="cls-28" d="M296,781.92h-6.79l3.53,7,.27,1.16a3.51,3.51,0,0,1-.28,1.4c-.77,1.8-3.08,2.38-3.29,2.43a5.13,5.13,0,0,1-1.19.14,5.65,5.65,0,0,1-1.53-.22s.26-.95-.3-1.07h-.1c-.47,0-.56.78-.56.78l-1-.23-.16.72-1.08,4.88-.34,1.54,1,.23s-.22.68.32.8h.12c.45,0,.6-.57.6-.57,3.81.68,4.8,4.91,4.27,7.67a6.25,6.25,0,0,1-2.71,4l-1.52,6.88,9.37,2.08,1.65-7.42c-.46-1.3-1.32-1.65-.69-4.49s3.63-4,3.63-4,.51-2.34,2.27-10.3c.85-3.81-2.14-9-5.49-13.43"/><path class="cls-28" d="M288.25,773.29l-2.48,1.91,3.4,6.72H296a78.47,78.47,0,0,0-7.71-8.63"/><path class="cls-29" d="M235.89,781.6h-4a6.44,6.44,0,0,0-2.57,3.31c-.5,2.28,2.11,4.09,2.11,4.09l27.18,6,.24-1.07,1.18-5.36.35-1.55-24.51-5.43"/><path class="cls-29" d="M235.67,781.55l-3.74,0,0,0h4l-.22-.05"/><g class="cls-30"><path class="cls-26" d="M232.91,780.94a9.9,9.9,0,0,0-1,.64l3.74,0-2.76-.61"/></g><polygon class="cls-31" points="429.14 652.37 444.32 644.83 442.35 625.67 425.83 630.47 429.14 652.37"/><polygon class="cls-31" points="254.28 781.6 249.72 797.74 231.85 792.8 232.13 781.6 254.28 781.6"/><rect class="cls-32" x="436.06" y="482.82" width="7.86" height="430.47" transform="translate(-43.2 29.18) rotate(-3.62)"/><polyline class="cls-31" points="442.35 625.67 432.48 628.54 436.3 644.69 444.32 644.83"/><path class="cls-31" d="M275.16,669.34s24.94,14.37,45.15,14.37,45.61-14.23,45.61-14.23V585.92a191.18,191.18,0,0,0-90.76,8.63Z"/><path class="cls-33" d="M275.21,622.93h-7c-2.42.7-5.56,2.47-5.84,8.34s1.88,8.49,3.75,9.63h9.08Z"/><path class="cls-33" d="M365.77,622.93h7c2.43.7,5.56,2.47,5.84,8.34s-1.87,8.49-3.74,9.63h-9.08Z"/><path class="cls-34" d="M275.16,594.55a78.11,78.11,0,0,0,12.31,5.74,79.26,79.26,0,0,0,30,4.63l-14.17-10a71.53,71.53,0,0,0,35.42,5.61l-12-6a52.47,52.47,0,0,0,39.23-3.34v31.7a10.9,10.9,0,0,0,6-3.94c2.6-3.73.84-8.15.14-16.9a88.25,88.25,0,0,1-.08-12.6l6.12-4.8a17.23,17.23,0,0,1-10.41-2.86c-5.29-3.78-5.55-9.64-7.43-14-6.07-14-31.45-17.79-46.78-16.61-6.81.52-23.19,1.78-35.41,14.65-13.42,14.12-13.45,32.21-13.43,37.23a58.5,58.5,0,0,0,3.6,19.82h6.94Z"/><path class="cls-35" d="M296.89,615.66h13.3a.95.95,0,1,0,0-1.89h-13.3a.95.95,0,1,0,0,1.89"/><path class="cls-35" d="M330.88,615.66h13.3a.95.95,0,1,0,0-1.89h-13.3a.95.95,0,1,0,0,1.89"/><path class="cls-36" d="M303.54,625.06c-1.14,0-3.69,1.57-3.32,6.28s2.11,5.27,3.32,5.27,3.33-1.94,3.33-5.77S304.69,625.06,303.54,625.06Z"/><path class="cls-36" d="M337.18,625.06c-1.14,0-3.69,1.57-3.32,6.28s2.11,5.27,3.32,5.27,3.33-1.94,3.33-5.77S338.33,625.06,337.18,625.06Z"/><path class="cls-37" d="M275.16,669.34c3.37,3.2,20,18.32,45.85,18.16,25.21-.15,41.41-14.73,44.91-18V622.93l-5.1,2.85C358.1,644.6,352.24,650.2,347.6,652c-7.08,2.69-11.37-3.51-25.57-3.57-13.21-.06-16.66,5.27-24.39,3.27-5.89-1.53-13.2-7-19.16-24.8l-3.32-3.94Z"/></g></svg>