<svg xmlns="http://www.w3.org/2000/svg" viewBox="0 0 1920 1084.15"><defs><style>.cls-1{fill:#846f64;}.cls-2{fill:#8d8d8d;}.cls-3{fill:#594f49;}.cls-4{fill:#c9c9c9;}.cls-5{fill:#3f4040;}</style></defs><title>wood_standalone</title><g id="szene04_resized"><path class="cls-1" d="M149.76,1048.57q287.82-.67,575.53,3.43,152.78,2.19,305.56,5.71l-2.57,31.44s-268.85-.31-432.9-4c-97.33-2.18-443.63.24-443.63.24q-1-18.41-2-36.82"/><path class="cls-1" d="M162.24,1003Q412.42,988.82,662,995.87c5.39.16,44,2,96.27,3.52,42.36,1.19,90.44,2.51,146,1.84,25.77-.32,64-1.19,111-3.87l-1.5,63.73s-265.72-.85-437.08-4.54c-101.66-2.19-409.23,4.54-409.23,4.54l-5.16-58"/><path class="cls-1" d="M172.88,967.67c147.25-16.79,266.2-15.87,349.66-11.55,72.49,3.75,115.41,13.76,202.11,12,69-1.39,240.8-8,269.28-10.17l.86,41.6c-53.77,3.33-135,7.32-234.4,8-110.51.73-166.06-3.22-266.95-4.52-75.72-1-184.58-.57-318.13,6.38l-2.43-41.73"/><path class="cls-1" d="M193.88,932.2c28.83,2.62,196.06,5.69,343.77,9.36,57,1.41,213.32,1.17,236.71.69,66.1-1.36,175.6-3.11,202.86-5.2v28.84c-51.47,3.25-129.29,7.15-224.39,7.79-104.66.7-165-12.71-262.52-14.1-72.36-1-169.2,8.81-296.43,14.81V932.2"/><path class="cls-1" d="M206.15,911.1c44,.08,111.54.25,194.16.64,178.37.85,230,1.8,317.12.93,59-.6,144.41-2.13,248.7-6.48q-.58,19.3-1.18,38.6c-47.1,3.46-123.14,7.87-217.36,7.8-115.76-.1-168.09-6.9-277.58-8.15-60.42-.69-151.27.16-263.86,8.85V911.1"/><path class="cls-2" d="M1029.22,1077.61l-.75,9.22h.93l.75-9.2-.93,0"/><path class="cls-3" d="M193.1,1064.93q-20.59,0-41.2,0,.48,9.06,1,18.1s164.23-1.14,298.28-1.14c60.6,0,115.05.23,145.35.91,158.43,3.56,414.61,4,432,4l.75-9.22q-165.85-5-331.74-8.07-252.14-4.61-504.38-4.61"/><path class="cls-2" d="M1014.52,1026.48q-.35,14.49-.68,29l1,0q0-5.71.09-11.48.09-8.81.27-17.49l-.68,0"/><path class="cls-3" d="M607.82,1023c-147.58,0-293.83.81-441.79,3.2l1.54,20.19,50.33,0q181.85,0,363.7,1.9,216.15,2.26,432.24,7.24.35-14.49.68-29c-56.21-1.11-143.78-2.57-252.3-3.19-13.22-.08-51-.24-99.09-.3q-27.71,0-55.31,0"/><path class="cls-2" d="M995.56,980.37l-1.17,0,.33,15.73,1.17,0-.33-15.75"/><path class="cls-3" d="M566.76,978.75h-7.23c-101.23.25-138.74,5.29-247.78,5.54H303c-54.37,0-98.79-1.2-128-2.23q.53,9,1,17.93c199.54-2.84,285.67-3.63,326.18-3.75,23.41-.08,43.5-.1,84-.28,40.28-.19,53.43-.32,67.13-.32,3.18,0,6.39,0,10,0,16.73.07,31.91.28,45.26.55,29.72.59,51.56,1.45,55.58,1.6,10.47.4,26.3.66,50.4.66,37.06,0,93.66-.62,180.22-2.34l-.33-15.73C926.66,983.09,866.18,984,814.45,984c-27,0-51.68-.24-73.71-.61-93.72-1.56-100-4.63-174-4.63"/><path class="cls-2" d="M978.35,943.14l-1.13.08v13.3l1.08-.07q0-6.65.05-13.31"/><path class="cls-3" d="M977.22,943.22q-5.9.45-12.25.9l0,.67c-46.69,3.43-121.84,7.8-214.94,7.8h-2.42c-7.87,0-15.44-.05-22.76-.11-70.69-.16-124.22-2.78-186.06-4.84-38-1.26-83.56-2.46-135.94-3.18-53.71.64-120.17,2.92-196.68,8.83v-8.93l-11.12.15q.06,9.56.11,19.11c90.51-5.32,169-6.9,232.38-6.9,23.41,0,44.77.22,63.91.54,98.24,1.66,153.74,6.39,258.12,6.39l14.29,0c90-.36,163.93-4,213.38-7.1v-13.3"/><path class="cls-3" d="M965,944.12c-48.28,3.46-116,7.22-197,8.15-12.66.15-24.74.22-36.36.22h-6.83c7.32.06,14.89.1,22.76.11H750c93.1,0,168.25-4.37,214.94-7.8l0-.67m-663.52-.36q-45.29,0-95.3.6v8.93c76.51-5.91,143-8.19,196.68-8.83q-47.08-.66-101.38-.7"/><path class="cls-2" d="M966.86,916.5l-1.05,0-.57,18.91,1-.05.57-18.91"/><path class="cls-3" d="M965.81,916.55c-103.61,4.3-188.51,5.82-247.26,6.41-24.53.24-46.23.35-68.73.35-57.53,0-120.25-.67-248.39-1.28-82.62-.39-150.13-.56-194.16-.64v9.26c21.71-.57,54.26-1.37,93.82-2.11,70.72-1.31,125.48-1.69,138.84-1.76l12.67,0c113.52,0,166.61,8,282.69,11,23.36.62,50.94,1.09,82.25,1.09,42.69,0,92.33-.87,147.7-3.43l.57-18.91"/><path class="cls-3" d="M797.08,911.89l-4.74.07a8.29,8.29,0,0,0,2.42.38,5.39,5.39,0,0,0,2.32-.45m-21.2-27.45h0c0,6.68,3.45,14.08,7.87,20.3,3.26,4.59,6.27,6.5,8.59,7.22h0c-2.32-.72-5.33-2.63-8.59-7.22-4.42-6.22-7.85-13.62-7.87-20.3"/><path class="cls-4" d="M267.79,902a37.45,37.45,0,0,0,3.66,8.45,37.76,37.76,0,0,1-3.66-8.45m-.05-.17a1.09,1.09,0,0,1,.05.17,1.09,1.09,0,0,0-.05-.17m-.05-.18c0,.05,0,.1.05.16s0-.11-.05-.16m-.05-.18s0,.1.05.15l-.05-.15m-.06-.22a1.21,1.21,0,0,1,.05.18,1.21,1.21,0,0,0-.05-.18m-.06-.23,0,.09,0-.09m-1-5.69a36.44,36.44,0,0,0,1,5.64,36.78,36.78,0,0,1-1-5.64h0"/><path class="cls-5" d="M266.32,893.15c0,.69.09,1.43.17,2.21h0c-.07-.73-.13-1.47-.18-2.21"/><path class="cls-5" d="M318.66,900.56c0,.88,0,1.7,0,2.46h0c0-.76,0-1.58,0-2.46"/><path class="cls-5" d="M318.67,903h0c0,1.74,0,3.13,0,4v0c0-.85,0-2.24,0-4"/></g></svg>