<svg xmlns="http://www.w3.org/2000/svg" xmlns:xlink="http://www.w3.org/1999/xlink" viewBox="0 0 1920 1080"><defs><style>.cls-1,.cls-2,.cls-3{fill:#010101;}.cls-1{filter:url(#luminosity-noclip);}.cls-2{filter:url(#luminosity-noclip-2);}.cls-3{filter:url(#luminosity-noclip-3);}.cls-4,.cls-48{fill:none;}.cls-5{isolation:isolate;}.cls-6{clip-path:url(#clip-path);}.cls-7{fill:#5f4d31;}.cls-8{fill:#32a35f;}.cls-29,.cls-50,.cls-51,.cls-9{mix-blend-mode:multiply;}.cls-10{clip-path:url(#clip-path-4);}.cls-11{fill:#a9a8a9;}.cls-12{clip-path:url(#clip-path-5);}.cls-13{clip-path:url(#clip-path-6);}.cls-14{fill:#969696;}.cls-15{clip-path:url(#clip-path-7);}.cls-16{clip-path:url(#clip-path-8);}.cls-17{clip-path:url(#clip-path-9);}.cls-18{clip-path:url(#clip-path-10);}.cls-19{clip-path:url(#clip-path-11);}.cls-20{fill:#65bf7a;}.cls-21{clip-path:url(#clip-path-14);}.cls-22{fill:#59916f;}.cls-23{clip-path:url(#clip-path-15);}.cls-24{clip-path:url(#clip-path-16);}.cls-25{clip-path:url(#clip-path-17);}.cls-26{clip-path:url(#clip-path-18);}.cls-27{clip-path:url(#clip-path-19);}.cls-28{fill:#846f64;}.cls-29{fill:#8e8d8d;}.cls-30{fill:#614e31;}.cls-31{fill:#a28d82;}.cls-32{fill:#735439;}.cls-33{fill:#465a56;}.cls-34{fill:#753117;}.cls-35{fill:#263633;}.cls-36{fill:#be563c;}.cls-37{fill:#80603e;}.cls-38{fill:#e6a180;}.cls-39{fill:#f8fbf8;}.cls-40{fill:#303f44;}.cls-41{fill:#fffffd;}.cls-42{fill:#d19277;}.cls-43{fill:#8b6438;}.cls-44{fill:#656b69;}.cls-45{fill:#95999b;}.cls-46{mask:url(#mask);}.cls-47{fill:#efc14f;}.cls-48{stroke:#303f43;stroke-linecap:round;stroke-miterlimit:10;stroke-width:1.55px;}.cls-49{fill:#533617;}.cls-50{fill:#d2d2d2;}.cls-51{fill:#c4c5c4;}.cls-52{fill:#40321c;}.cls-53{fill:#9b925d;}.cls-54{fill:#efd659;}.cls-55{fill:#604631;}.cls-56{fill:#d0df57;}.cls-57{fill:#a9acaf;}.cls-58{mask:url(#mask-2);}.cls-59{fill:#303f43;}.cls-60{fill:#484848;}.cls-61{mask:url(#mask-3);}.cls-62{fill:#f1574a;}.cls-63{fill:#c9c9c9;}</style><clipPath id="clip-path"><rect class="cls-4" x="524.2" y="381.78" width="352.8" height="527.3"/></clipPath><clipPath id="clip-path-4"><rect class="cls-4" x="614.28" y="674.47" width="202.15" height="6.55"/></clipPath><clipPath id="clip-path-5"><rect class="cls-4" x="697.69" y="803.62" width="30.55" height="26.18"/></clipPath><clipPath id="clip-path-6"><rect class="cls-4" x="637.51" y="381.78" width="76.04" height="154.59"/></clipPath><clipPath id="clip-path-7"><rect class="cls-4" x="554.01" y="674.47" width="164.05" height="129.14"/></clipPath><clipPath id="clip-path-8"><rect class="cls-4" x="697.69" y="803.62" width="17.31" height="105.47"/></clipPath><clipPath id="clip-path-9"><rect class="cls-4" x="589.9" y="536.37" width="123.89" height="138.1"/></clipPath><clipPath id="clip-path-10"><rect class="cls-4" x="654.67" y="536.37" width="116.33" height="6.55"/></clipPath><clipPath id="clip-path-11"><rect class="cls-4" x="494.45" y="491.49" width="245.81" height="417.45"/></clipPath><clipPath id="clip-path-14"><rect class="cls-4" x="514.64" y="740.85" width="206.18" height="4.98"/></clipPath><clipPath id="clip-path-15"><rect class="cls-4" x="513.27" y="785.65" width="208.1" height="5.15"/></clipPath><clipPath id="clip-path-16"><rect class="cls-4" x="494.45" y="491.49" width="122.66" height="249.36"/></clipPath><clipPath id="clip-path-17"><rect class="cls-4" x="494.45" y="740.16" width="122.66" height="45.48"/></clipPath><clipPath id="clip-path-18"><rect class="cls-4" x="494.45" y="785.57" width="122.66" height="43.2"/></clipPath><clipPath id="clip-path-19"><rect class="cls-4" x="603.95" y="828.77" width="13.16" height="80.17"/></clipPath><filter id="luminosity-noclip" x="379.45" y="784.71" width="28.21" height="23.84" filterUnits="userSpaceOnUse" color-interpolation-filters="sRGB"><feFlood flood-color="#fff" result="bg"/><feBlend in="SourceGraphic" in2="bg"/></filter><mask id="mask" x="379.45" y="784.71" width="28.21" height="23.84" maskUnits="userSpaceOnUse"><polygon class="cls-1" points="385.59 803.24 385.59 790.24 401.41 790.24 401.41 794.75 394.92 794.74 394.92 798.52 401.41 798.52 401.41 803.24 385.59 803.24"/></mask><filter id="luminosity-noclip-2" x="212.8" y="780.13" width="14.79" height="20.7" filterUnits="userSpaceOnUse" color-interpolation-filters="sRGB"><feFlood flood-color="#fff" result="bg"/><feBlend in="SourceGraphic" in2="bg"/></filter><mask id="mask-2" x="212.8" y="780.13" width="14.79" height="20.7" maskUnits="userSpaceOnUse"><path class="cls-2" d="M221.54,791h3.62c-.2,3.59-2.35,6.42-5,6.42s-5-3.12-5-7,2.23-7,5-7c2.56,0,4.67,2.71,4.94,6.19l-3.61,0Z"/></mask><filter id="luminosity-noclip-3" x="155.6" y="869.92" width="62.77" height="39.62" filterUnits="userSpaceOnUse" color-interpolation-filters="sRGB"><feFlood flood-color="#fff" result="bg"/><feBlend in="SourceGraphic" in2="bg"/></filter><mask id="mask-3" x="155.6" y="869.92" width="62.77" height="39.62" maskUnits="userSpaceOnUse"><path class="cls-3" d="M183.11,899.9a6.7,6.7,0,0,1-2.19-.21,6.92,6.92,0,0,1-3-1.77,7.18,7.18,0,0,1-1.7-2.92c-.32-.94-1.38-4.52.53-7.64a9.77,9.77,0,0,1,2.76-2.79,11,11,0,0,1,3.17-1.76,11.52,11.52,0,0,1,5.09-.3,29.68,29.68,0,0,1,6.76,1.58c2.72.9,4.44,1.66,6.82,2.65,2.07.87,5.12,2.12,8.93,3.58a1.82,1.82,0,0,1,.55.27,1.91,1.91,0,0,1,.49.62,7.47,7.47,0,0,1,.26,3,7.33,7.33,0,0,1-.42,3,2.29,2.29,0,0,1-.39.46,2,2,0,0,1-.7.35C208.05,898.52,183.11,899.9,183.11,899.9Z"/></mask></defs><title>Artboard 1</title><g class="cls-5"><g id="szene01_resized"><g id="Tree03"><g class="cls-6"><g class="cls-6"><rect class="cls-7" x="697.69" y="773.07" width="30.4" height="136.01"/><polygon class="cls-8" points="634.76 639.6 554.01 803.62 715.51 803.62 877.01 803.62 796.26 639.6 715.51 475.58 634.76 639.6"/><polygon class="cls-8" points="712.78 424.88 774.22 549.68 835.66 674.47 712.78 674.47 589.9 674.47 651.34 549.68 712.78 424.88"/><polygon class="cls-8" points="713.79 381.78 675.74 459.08 637.68 536.37 713.79 536.37 789.9 536.37 751.84 459.08 713.79 381.78"/><g class="cls-6"><g class="cls-9"><g class="cls-10"><path class="cls-11" d="M614.28,681H816.43c-1.09-2.18-2.18-4.37-3.28-6.55H617.34L614.28,681"/></g></g><g class="cls-9"><g class="cls-12"><rect class="cls-11" x="697.69" y="803.62" width="30.55" height="26.18"/></g></g><g class="cls-9"><g class="cls-13"><path class="cls-14" d="M713.55,381.78l-4.68,154.56-71.36,0,38-77.29Z"/></g></g><g class="cls-9"><g class="cls-15"><path class="cls-14" d="M718.07,674.47V803.62H554Q585.67,739.3,617.33,675l100.74-.53"/></g></g><g class="cls-9"><g class="cls-16"><rect class="cls-14" x="697.69" y="803.62" width="17.31" height="105.47"/></g></g><g class="cls-9"><g class="cls-17"><path class="cls-14" d="M713.79,536.37l-.24,138.1H589.9q34-69,68-138.1Z"/></g></g><g class="cls-9"><g class="cls-18"><path class="cls-11" d="M654.67,542.92H771c-1.06-2.18-2.12-4.37-3.17-6.55H657.89l-3.22,6.55"/></g></g></g></g></g></g><g id="Tree01"><g class="cls-19"><g class="cls-19"><rect class="cls-7" x="603.95" y="805.54" width="23.11" height="103.39"/><polygon class="cls-20" points="556.11 704.09 494.73 828.77 617.5 828.77 740.26 828.77 678.88 704.09 617.5 579.4 556.11 704.09"/><polygon class="cls-20" points="556.11 660.96 494.73 785.64 617.5 785.64 740.26 785.64 678.88 660.96 617.5 536.28 556.11 660.96"/><polygon class="cls-20" points="617.5 491.49 556.11 616.17 494.73 740.85 617.5 740.85 740.26 740.85 678.88 616.17 617.5 491.49"/><g class="cls-19"><g class="cls-9"><g class="cls-21"><path class="cls-22" d="M514.64,745.83H720.81q-1.32-2.49-2.65-5H517.36q-1.36,2.49-2.72,5"/></g></g><g class="cls-9"><g class="cls-23"><path class="cls-22" d="M513.27,790.8h208.1q-1.35-2.56-2.68-5.15H516q-1.37,2.58-2.75,5.15"/></g></g><g class="cls-9"><g class="cls-24"><polygon class="cls-22" points="617.11 491.49 617.11 740.85 494.45 740.85 555.78 616.17 617.11 491.49"/></g></g><g class="cls-9"><g class="cls-25"><path class="cls-22" d="M617.11,740.16v45.48H494.45l22-45.3,100.65-.18"/></g></g><g class="cls-9"><g class="cls-26"><path class="cls-22" d="M617.11,785.62v43.15H494.45l21.32-43.2,101.34,0"/></g></g><g class="cls-9"><g class="cls-27"><rect class="cls-22" x="603.95" y="828.77" width="13.16" height="80.17"/></g></g></g></g></g></g><g id="baumstammhaufen"><g id="color"><path class="cls-28" d="M-.24,1043.57q287.81-.67,575.52,3.43,152.78,2.19,305.56,5.71l-2.57,31.44s-268.85-.3-432.9-4c-97.33-2.18-443.63.24-443.63.24Z"/><path class="cls-28" d="M12.23,998Q262.42,983.82,512,990.87c5.39.16,44,2,96.27,3.52,42.36,1.2,90.44,2.51,146,1.84,25.77-.32,64-1.19,111-3.87l-1.5,63.73s-265.72-.85-437.08-4.54c-101.66-2.19-409.23,4.54-409.23,4.54Z"/><path class="cls-28" d="M22.87,962.67c147.25-16.79,266.2-15.87,349.66-11.55,72.49,3.75,115.41,13.76,202.11,12,69-1.39,240.8-8,269.28-10.17l.86,41.6c-53.77,3.33-135,7.32-234.4,8-110.51.73-166.06-3.22-266.95-4.52-75.72-1-184.58-.57-318.13,6.37Z"/><path class="cls-28" d="M43.87,927.2c28.83,2.62,196.06,5.69,343.77,9.36,57,1.41,213.32,1.17,236.71.69,66.1-1.36,175.6-3.11,202.86-5.2v28.84c-51.47,3.25-129.29,7.15-224.39,7.79-104.65.7-165-12.71-262.52-14.09-72.36-1-169.2,8.8-296.43,14.8Z"/><path class="cls-28" d="M56.14,906.1c44,.08,111.54.25,194.16.64,178.37.85,230,1.8,317.12.92,59-.59,144.41-2.12,248.7-6.47q-.58,19.3-1.18,38.6c-47.1,3.46-123.14,7.87-217.36,7.8-115.76-.1-168.09-6.9-277.58-8.15-60.42-.69-151.27.16-263.86,8.85Z"/></g><g id="shaddow"><path class="cls-29" d="M1.89,1060q272.85-.4,545.58,4.58,166.35,3,332.67,8.09l-.75,9.2s-268.85-.31-432.9-4c-97.33-2.19-443.63.23-443.63.23Q2.38,1069,1.89,1060Z"/><path class="cls-29" d="M16,1021.15c166.43-2.68,330.66-3.38,497.1-3.16,48,.06,85.87.22,99.09.3,109,.62,196.8,2.09,253,3.21-.12,5.78-.21,11.62-.27,17.49q-.06,5.76-.09,11.48-216.58-5-433.24-7.26-207-2.18-414-1.87Z"/><path class="cls-29" d="M25,977.08c30.77,1.08,78.41,2.36,136.78,2.22,109-.26,146.55-5.29,247.78-5.54,80.85-.21,84.53,3,181.21,4.62,64.42,1.07,151.17,1.11,254.82-3l.33,15.74c-143.67,2.87-205.15,2.72-231.79,1.71-4-.15-25.86-1-55.58-1.6-13.35-.27-28.52-.48-45.26-.55-19-.08-27.48.07-77.11.29-40.46.19-60.55.21-84,.29-40.51.12-126.64.91-326.17,3.75Z"/><path class="cls-29" d="M45,939.51c144.87-2,261.81.41,343.74,3.13,73.82,2.46,135.77,5.71,229.25,4.63,88.72-1,161.56-5.44,210.33-9.13q0,6.66-.05,13.31c-49.46,3.13-123.8,6.81-214.46,7.17-113.78.46-169.79-4.63-272.41-6.36-71-1.2-172.35-.92-296.28,6.36Z"/><path class="cls-29" d="M57.26,916.39c44,.08,111.55.25,194.16.64,178.26.85,229.9,1.8,317.12.93,59-.59,144.23-2.13,248.32-6.46q-.3,9.46-.58,18.91c-96.46,4.49-175.59,3.86-231,2.39-120.32-3.21-172.94-11.63-295.36-11-13.36.07-68.12.45-138.84,1.76-39.56.74-72.11,1.54-93.82,2.12Z"/></g></g><g id="baumstamm_copy" data-name="baumstamm copy"><path class="cls-30" d="M512.83,880.14c-10,6.64-12.13,15.67-11.05,19.24s6.63,9.87,14.71,9.53,130.58-2,130.58-2-6,3.12-13.33-7.15-11.9-23.77-2.9-31.92Z"/><g id="front"><path class="cls-28" d="M647.07,906.89s-6,3.12-13.33-7.15-11.9-23.77-2.9-31.92c0,0,3.89-3.89,14.6-.6s23.1,9.63,23.61,14.58-.29,15.55-7.84,21.16S647.07,906.89,647.07,906.89Z"/><path class="cls-31" d="M638.34,867.35v1.55a23.47,23.47,0,0,1,6.8,1.16c10.78,3.31,20.52,9,20.85,12.23.48,4.58-.39,13.58-6.66,18.24a16.56,16.56,0,0,1-9.92,3.57,9.15,9.15,0,0,1-1.91-.17h0l-.55-.16-.52.27a3.57,3.57,0,0,1-1.47.26c-1.65,0-5-.84-9-6.41-3.07-4.32-12.35-19.06-2.92-27.6l0,0,0,0s1.5-1.33,5.21-1.33v-1.55m0,0c-4.52,0-6.3,1.79-6.3,1.79-8.36,7.57-4.09,20.1,2.7,29.65,4.22,5.93,8,7.05,10.22,7.05a5,5,0,0,0,2.15-.41,10.21,10.21,0,0,0,2.3.22,18.17,18.17,0,0,0,10.84-3.87c7-5.21,7.76-15,7.28-19.65s-12-10.49-21.93-13.55a24.81,24.81,0,0,0-7.26-1.23Z"/><path class="cls-31" d="M640.71,873.71h0a17.32,17.32,0,0,1,5,.85c8.5,2.61,15.09,6.8,15.3,8.79.34,3.35-.28,9.9-4.83,13.28a12,12,0,0,1-7.17,2.58,6.82,6.82,0,0,1-1.33-.11l-.52-.17-.54.28a2.66,2.66,0,0,1-.94.15c-1.15,0-3.51-.6-6.37-4.62-2.24-3.16-9-13.94-2.21-20.12a5.72,5.72,0,0,1,3.64-.91m0-1.55c-3.37,0-4.71,1.34-4.71,1.34-6.24,5.65-3,15,2,22.14,3.15,4.43,6,5.27,7.63,5.27a3.8,3.8,0,0,0,1.62-.31,7.65,7.65,0,0,0,1.71.16,13.54,13.54,0,0,0,8.1-2.89c5.23-3.89,5.79-11.24,5.44-14.68s-9-7.83-16.39-10.11a18.44,18.44,0,0,0-5.42-.92Z"/><path class="cls-31" d="M642.72,877.78h0a11.71,11.71,0,0,1,3.41.58c6.2,1.91,10.49,4.81,10.6,5.9.24,2.29-.18,6.77-3.26,9.06a8.08,8.08,0,0,1-4.85,1.76,4.65,4.65,0,0,1-.85-.07l-.53-.22-.53.33a1.57,1.57,0,0,1-.47.07c-.73,0-2.26-.41-4.18-3.11-1.55-2.18-6.24-9.61-1.66-13.75v0l0-.06a4,4,0,0,1,2.29-.52m0-1.55a4.86,4.86,0,0,0-3.36.95c-4.45,4-2.18,10.71,1.44,15.79,2.25,3.17,4.25,3.76,5.44,3.76a2.67,2.67,0,0,0,1.15-.22,5.36,5.36,0,0,0,1.23.12,9.72,9.72,0,0,0,5.77-2.06c3.74-2.78,4.14-8,3.88-10.47s-6.39-5.59-11.68-7.22a13.41,13.41,0,0,0-3.87-.65Z"/></g><g id="shaddow-2" data-name="shaddow"><path class="cls-29" d="M512.83,880.14c-10,6.64-12.13,15.67-11.05,19.24s6.63,9.87,14.71,9.53,130.58-2,130.58-2-6,3.12-13.33-7.15-11.9-23.77-2.9-31.92Z"/></g></g><g id="förster01"><polygon class="cls-32" points="340.69 903.21 340.69 909.44 379.64 909.44 379.64 893.47 355.1 893.47 354.71 899.7 340.69 903.21"/><polygon class="cls-32" points="445.79 903.21 445.79 909.44 406.84 909.44 406.84 893.47 431.38 893.47 431.77 899.7 445.79 903.21"/><rect class="cls-33" x="352.37" y="881.78" width="30.1" height="11.69"/><rect class="cls-33" x="404.35" y="881.78" width="30.1" height="11.69"/><rect class="cls-34" x="349" y="790.24" width="88.28" height="13.84"/><polygon class="cls-35" points="355.17 818.71 355.17 881.78 379.64 881.78 379.64 818.71 406.84 818.71 406.84 881.78 431.11 881.78 431.11 818.71 437.27 818.71 437.27 804.09 422.24 804.09 422.27 790.24 418.01 790.24 418.06 804.09 367.71 804.09 367.7 790.24 363.7 790.24 363.77 804.09 349 804.09 349 818.71 355.17 818.71"/><polygon class="cls-36" points="351.34 690.39 393.37 718.5 434.45 690.39 434.45 701.08 481.7 758.23 462.56 800.15 437.27 785.61 452.87 754.6 435.18 730.85 393.37 730.85 354.98 730.85 341.41 773.25 317.67 782.46 298.04 724.8 328.33 718.25 331.72 734.25 349 705.17 352.07 704.93 351.34 690.39"/><polygon class="cls-37" points="342.62 790.24 436.06 790.24 437.27 785.61 441.87 776.48 437.27 699.6 393.37 722.62 349 699.6 342.62 790.24"/><path class="cls-32" d="M355.1,730.85h24.28s4.29,25.69-11.27,25.69S355.1,730.85,355.1,730.85Z"/><path class="cls-32" d="M406.71,730.85H431s4.29,25.69-11.27,25.69S406.71,730.85,406.71,730.85Z"/><path class="cls-38" d="M355.71,693.31l37.66,25.19,38-26V601.09s-20.25,7.72-35.87,8.6-33.76.62-39.83-1.4Z"/><polygon class="cls-39" points="376.87 707.46 409.49 707.46 393.37 718.5 376.87 707.46"/><path class="cls-40" d="M355.71,645.33c-1.36,2.48-9.33,17.61-3,33.52,9.05,22.79,38.13,23.84,39.94,23.88,13.61.27,36.87-4.63,41.86-23.7,1.31-5,3.73-21.59-3.1-33.7L421.69,658c-6.28-5.94-11.62-7.46-15.4-7.72-5.1-.34-13.11,1.23-13.11,1.23h0a28.91,28.91,0,0,0-27.84,5.27Z"/><path class="cls-41" d="M385.5,662.18a10.07,10.07,0,0,0,6.79-5.44H394a14.87,14.87,0,0,0,7.27,5.44,21.55,21.55,0,0,1-15.8,0Z"/><path class="cls-42" d="M355.71,632h-7.49c-2.6.59-6,2.07-6.26,7s2,7.08,4,8h9.74Z"/><path class="cls-42" d="M431.41,632h7.49c2.6.59,6,2.07,6.26,7s-2,7.08-4,8h-9.74Z"/><path class="cls-40" d="M355.71,608.29a25.73,25.73,0,0,0,5.37,1.36C410,614.91,441.42,598,444.49,595.1c.63-.59,2.25-1.94,2-3.13-.13-.64-.94-1.15-2.25-1.52-3.32-1-6.06-.78-14.95-1.22,0,0,7-2,8.15-4.84s-16.59-7.26-40.26-6.26-38.12,6.91-42,12.28a22,22,0,0,0-4,12.63c-.18,2.18-4.43,5.14-4.25,12.4s1.3,16.52,1.3,16.52h7.49Z"/><polygon class="cls-43" points="286.73 711.91 351.52 693.86 351.88 701.09 349 699.6 348.5 706.74 289.74 722.98 286.73 711.91"/><polygon class="cls-38" points="299.57 724.47 299.57 720.26 306 718.49 299.39 708.38 296.48 709.2 296.48 703.73 325.11 696.51 329.68 714.08 325.23 714.56 324.93 718.99 299.57 724.47"/><path class="cls-43" d="M435.61,672.68a32,32,0,0,1-.94,5.67,32.45,32.45,0,0,1-2.32,6.24L483.49,671l-3.07-11.24Z"/><path class="cls-44" d="M474.64,657.34l-27.39,7.44,6.85,22.07s2.54,7.79.24,13.69a52.93,52.93,0,0,1-7.09,11.81c1.2.9,14.59,10.69,30.79,5.33,13.47-4.45,19-16.12,19.85-18.08,0,0-7,.53-12.15-7.08s-4.49-7.5-5.79-10.86Z"/><path class="cls-45" d="M493.48,698.82a11.66,11.66,0,0,0,4.41.78c-.88,2-6.38,13.63-19.85,18.08-16.2,5.36-29.59-4.43-30.79-5.33,0,0,.7-.86,1.69-2.26a37,37,0,0,0,17.86,3.23,38.09,38.09,0,0,0,21.55-9A36.37,36.37,0,0,0,493.48,698.82Z"/><polygon class="cls-38" points="437.27 785.61 432.03 805.6 453.86 811.27 460.54 798.99 437.27 785.61"/><g class="cls-46"><rect class="cls-47" x="379.45" y="784.71" width="28.21" height="23.84"/></g><line class="cls-48" x1="373.84" y1="620.69" x2="384.93" y2="620.69"/><line class="cls-48" x1="402.19" y1="620.69" x2="413.29" y2="620.69"/><path class="cls-49" d="M379.38,629.32c-.95,0-3.08,1.31-2.77,5.24s1.77,4.39,2.77,4.39,2.78-1.61,2.78-4.81S380.34,629.32,379.38,629.32Z"/><path class="cls-49" d="M407.45,629.32c-1,0-3.09,1.31-2.78,5.24s1.77,4.39,2.78,4.39,2.77-1.61,2.77-4.81S408.4,629.32,407.45,629.32Z"/><polygon id="shaddow_weste" class="cls-50" points="342.62 790.24 379.45 790.24 379.45 784.71 393.37 784.71 393.37 722.62 349 699.6 342.62 790.24"/><polygon id="shaddow_shirt" class="cls-51" points="331.72 734.25 341.41 773.25 344.5 763.62 348.55 705.92 331.72 734.25"/></g><g id="förster02_copy" data-name="förster02 copy"><g id="förster02"><rect class="cls-34" x="173.75" y="783.28" width="92.4" height="14.49"/><polygon class="cls-52" points="180.21 813.08 180.21 879.11 205.83 879.11 205.83 813.08 234.3 813.08 234.3 879.11 259.7 879.11 259.7 813.08 266.16 813.08 266.16 797.77 250.42 797.77 250.46 783.28 245.99 783.28 246.05 797.77 193.34 797.77 193.33 783.28 189.15 783.28 189.21 797.77 173.75 797.77 173.75 813.08 180.21 813.08"/><polygon class="cls-32" points="163.37 898.81 162.54 908.05 205.83 908.05 205.83 897.98 205.83 865.86 180.21 865.86 179.91 896.33 163.37 898.81"/><polygon class="cls-32" points="276.76 898.81 277.59 908.05 234.31 908.05 234.31 897.98 234.31 865.86 259.7 865.86 260.22 896.33 276.76 898.81"/><polyline class="cls-53" points="180.01 721.12 167.2 749.44 165.17 793.66 140.74 793.66 142.77 749.95 176.97 693.98 197.38 692.92 220.2 708.19 242.6 692.86 263.33 694.1 297.32 749.95 299.35 793.66 274.92 793.66 272.89 749.44 263.96 721.12 266.16 783.28 173.75 783.28 180.01 721.12"/><path class="cls-38" d="M180.78,693.79l39.42,14.4L260,693.9V622.33s-21.2,8.09-37.55,9-35.33.64-41.69-1.47Z"/><path class="cls-42" d="M180.78,654.65h-7.84c-2.72.62-6.24,2.16-6.55,7.29s2.1,7.41,4.2,8.4h10.19Z"/><path class="cls-42" d="M260,654.65h7.84c2.72.62,6.24,2.16,6.55,7.29s-2.1,7.41-4.2,8.4H260Z"/><path class="cls-54" d="M180.78,629.87c1.24.35,3.2.87,5.62,1.42,25.52,5.8,67,6,78.15-14.26,4.49-8.15,4.21-19.9-.68-23.25-4.26-2.9-11.94.59-14.76,1.87-8.37,3.8-8.39,7.55-13.74,9.67-10.14,4-16.2-7.5-32.24-7.93-1.38,0-17.9-.25-26.33,10.69-6,7.71-5.6,18-5.22,29.27.21,6.18,1.36,17.3,1.36,17.3h7.84Z"/><polygon class="cls-38" points="278.31 793.66 282.29 807.75 297.89 803.44 297.65 793.66 278.31 793.66"/><polygon class="cls-38" points="162.54 793.66 158.56 807.75 142.96 803.44 143.21 793.66 162.54 793.66"/><line class="cls-48" x1="199.75" y1="642.85" x2="211.37" y2="642.85"/><line class="cls-48" x1="229.43" y1="642.85" x2="241.05" y2="642.85"/><path class="cls-49" d="M205.56,651.88c-1,0-3.23,1.37-2.9,5.49s1.85,4.6,2.9,4.6,2.91-1.7,2.91-5.05S206.56,651.88,205.56,651.88Z"/><path class="cls-49" d="M234.93,651.88c-1,0-3.22,1.37-2.9,5.49s1.85,4.6,2.9,4.6,2.91-1.7,2.91-5.05S235.94,651.88,234.93,651.88Z"/><rect class="cls-55" x="179.38" y="865.86" width="27.31" height="4.88"/><rect class="cls-55" x="233.35" y="865.86" width="27.31" height="4.88"/><polygon class="cls-56" points="263.33 694.1 242.6 692.86 220.2 708.19 197.38 692.92 176.97 693.98 180.01 721.12 173.75 783.28 266.16 783.28 263.33 694.1"/><polygon class="cls-57" points="176.91 752.93 214.67 752.93 214.67 757.41 176.45 757.41 176.91 752.93"/><polygon class="cls-57" points="175.87 762.27 214.67 762.27 214.67 766.83 175.41 766.83 175.87 762.27"/><polygon class="cls-57" points="265.08 752.93 226.34 752.93 226.34 757.41 265.34 757.41 265.08 752.93"/><polygon class="cls-57" points="265.49 762.27 226.34 762.27 226.34 766.83 265.64 766.83 265.49 762.27"/><g class="cls-58"><ellipse class="cls-47" cx="220.2" cy="790.48" rx="7.39" ry="10.35"/></g><path class="cls-59" d="M226.77,682.68c-1.34-1-2.07-2.37-4.07-2.88-.43-.11-2.15-.55-3.13.26-1-.81-2.7-.37-3.13-.26-2,.51-2.74,1.87-4.08,2.88s-3.49,1.89-7.46,1.36a38.8,38.8,0,0,0,6.28,1.86c3.93.81,6,1.2,7.46,0a4.1,4.1,0,0,0,.93-1.09,4.07,4.07,0,0,0,.92,1.09c1.48,1.2,3.53.81,7.46,0a38.8,38.8,0,0,0,6.28-1.86C230.27,684.57,228.06,683.66,226.77,682.68Z"/></g><g id="Motorsäge"><path class="cls-60" d="M56.65,866.84a8,8,0,0,0-3.76.62,9.43,9.43,0,0,0-1.77,1.09,13.65,13.65,0,0,0-2.95,2.93,12.14,12.14,0,0,0-1,12.25,8.71,8.71,0,0,0,2.64,3.16,9.55,9.55,0,0,0,2.76,1.28c2.71.71,31,1.61,69.56,2.3q1.5-10.15,3-20.3C86.92,868.29,59.12,867,56.65,866.84Z"/><g class="cls-61"><path class="cls-60" d="M155.6,909.54c5.44-.77,9.93-1.33,13-1.7h0L210,905.7a10.2,10.2,0,0,0,1.87-.35,9.43,9.43,0,0,0,5.47-3.66,7.94,7.94,0,0,0,1-2.32c0-3.89,0-7.78-.05-11.67a3.85,3.85,0,0,0-.52-1.22c-.46-.71-1.07-1.11-3.27-2.24-.52-.27-1.18-.61-1.95-1-17.3-6.47-24.27-9.16-26.4-10.06l-4-1.68-3.58-1.5c-3.84-1.13-11.77,8.26-17.07,19.79A75.47,75.47,0,0,0,155.6,909.54Z"/></g><g id="motorsäge-2" data-name="motorsäge"><path class="cls-62" d="M121.44,905.48a37.65,37.65,0,0,1-3.87-9.2,39.49,39.49,0,0,1-1.26-8.13,157.8,157.8,0,0,1,1-24.93l3.75-4.75,17.42.07,4.88-5.31,13.61.11,22.78,9q1.64,5.57,3.26,11.11a5.43,5.43,0,0,1,.15,1.66,4.72,4.72,0,0,1-.46,1.8,4.46,4.46,0,0,1-1.91,1.89c-2.26,1.25-3.7-.26-6.53.48a8.24,8.24,0,0,0-4.3,3c-1.06,1.54-1.14,3.09-1.2,5.52-.15,6.17-.07,12,0,14.17,0,1.27,0,3.3-.08,5.84a96.16,96.16,0,0,1-47.18-2.36Z"/></g><g id="motorsäge-3" data-name="motorsäge" class="cls-9"><path class="cls-63" d="M121.44,905.48a37.16,37.16,0,0,1-3.87-9.2,37.63,37.63,0,0,1-1.26-8.13,57.81,57.81,0,0,0,20.85,3.27,49.19,49.19,0,0,0,19.69-4.13c14.58-6.73,21-20.29,22.88-24.92q1.64,5.57,3.26,11.11a5.43,5.43,0,0,1,.15,1.66,4.72,4.72,0,0,1-.46,1.8,4.46,4.46,0,0,1-1.91,1.89c-2.26,1.25-3.7-.26-6.53.48a8.24,8.24,0,0,0-4.3,3c-1.06,1.54-1.14,3.09-1.2,5.52-.15,6.17-.07,12,0,14.17,0,1.27,0,3.3-.08,5.84a96.16,96.16,0,0,1-47.18-2.36Z"/></g><path class="cls-60" d="M123.14,909.67a3.69,3.69,0,0,0,2,2.45,3.52,3.52,0,0,0,1.78.1,3.59,3.59,0,0,0,1.88-.83,3.72,3.72,0,0,0,1.14-1.86c.35-5.84,1.28-20.57,2.65-35,.62-6.54,1.22-11.83,2.07-17.72.53-3.73,1-6.81,1.41-9a3.63,3.63,0,0,1,2.17-3.13l12.38,8.52,6.29.05,12.79,5.07-28.88-20A7.82,7.82,0,0,0,137,838a8.52,8.52,0,0,0-5.17,3.15,12.25,12.25,0,0,0-2.33,4.8,31.45,31.45,0,0,0-1.34,9.31,68.76,68.76,0,0,1-4.64-5.93c-2.32-3.34-2.63-4.44-2.77-5A10.81,10.81,0,0,1,121,838a15.6,15.6,0,0,0,1.15-3.55c.22-1.3.12-2-.26-2.44a1.66,1.66,0,0,0-1.5-.67c-.58.13-.91.73-1.08,1.07a47.24,47.24,0,0,0-2.14,4.34c-1.18,3.79-1.25,2.89-2.25,6.3a63.87,63.87,0,0,0-1.5,6.41,27.85,27.85,0,0,0-.8,6.64,14.74,14.74,0,0,0,.77,4.08,8.27,8.27,0,0,0,3.81,3.81l.08-.73,3.75-4.75,6.74,0-4.65,46.38Z"/></g></g></g></g></svg>