<?xml version="1.0" encoding="utf-8"?>
<!-- Generator: Adobe Illustrator 23.0.1, SVG Export Plug-In . SVG Version: 6.00 Build 0)  -->
<svg version="1.1" xmlns="http://www.w3.org/2000/svg" xmlns:xlink="http://www.w3.org/1999/xlink" x="0px" y="0px"
	 viewBox="0 0 3983.07 3175.16" style="enable-background:new 0 0 3983.07 3175.16;" xml:space="preserve">
<style type="text/css">
	.st0{clip-path:url(#SVGID_2_);}
	.st1{clip-path:url(#SVGID_4_);fill:#5E4D31;}
	.st2{clip-path:url(#SVGID_4_);fill:#34A35F;}
	.st3{clip-path:url(#SVGID_4_);}
	.st4{clip-path:url(#SVGID_6_);}
	.st5{clip-path:url(#SVGID_8_);fill:#A8A8A8;}
	.st6{clip-path:url(#SVGID_10_);fill:#A8A8A8;}
	.st7{clip-path:url(#SVGID_12_);fill:#969696;}
	.st8{clip-path:url(#SVGID_14_);fill:#969696;}
	.st9{clip-path:url(#SVGID_16_);fill:#969696;}
	.st10{clip-path:url(#SVGID_18_);fill:#969696;}
	.st11{clip-path:url(#SVGID_20_);fill:#A8A8A8;}
	.st12{clip-path:url(#SVGID_22_);}
	.st13{clip-path:url(#SVGID_24_);fill:#5E4D31;}
	.st14{clip-path:url(#SVGID_24_);fill:#46DD81;}
	.st15{clip-path:url(#SVGID_24_);}
	.st16{clip-path:url(#SVGID_26_);}
	.st17{clip-path:url(#SVGID_28_);fill:#59916F;}
	.st18{clip-path:url(#SVGID_30_);fill:#59916F;}
	.st19{clip-path:url(#SVGID_32_);fill:#59916F;}
	.st20{clip-path:url(#SVGID_34_);fill:#59916F;}
	.st21{clip-path:url(#SVGID_36_);fill:#59916F;}
	.st22{clip-path:url(#SVGID_38_);fill:#59916F;}
	.st23{fill:#604D30;}
	.st24{fill:#836E63;}
	.st25{fill:#A28D82;}
	.st26{fill:#8D8D8D;}
	.st27{display:none;}
	.st28{display:inline;}
	.st29{fill:#752F16;}
	.st30{fill:#3F311B;}
	.st31{fill:#725338;}
	.st32{fill:#9B925D;}
	.st33{fill:#E5A080;}
	.st34{fill:#D19176;}
	.st35{fill:#EFD659;}
	.st36{fill:none;stroke:#2F3E42;stroke-width:7;stroke-linecap:round;stroke-miterlimit:10;}
	.st37{fill:#533412;}
	.st38{fill:#604530;}
	.st39{fill:#D1E951;}
	.st40{fill:#A8ACAE;}
	.st41{filter:url(#Adobe_OpacityMaskFilter);}
	.st42{mask:url(#SVGID_39_);fill:#EFC150;}
	.st43{fill:#2F3E42;}
	.st44{fill:#474747;}
	.st45{filter:url(#Adobe_OpacityMaskFilter_1_);}
	.st46{mask:url(#SVGID_40_);fill:#474747;}
	.st47{fill:#F25549;}
	.st48{fill:#C9C9C9;}
	.st49{fill:#455955;}
	.st50{fill:#253532;}
	.st51{fill:#BD553C;}
	.st52{fill:#7F5F3D;}
	.st53{fill:#F8FBF7;}
	.st54{fill:#2F3E43;}
	.st55{fill:#FFFFFC;}
	.st56{fill:#8B6338;}
	.st57{fill:#656A68;}
	.st58{fill:#94989B;}
	.st59{filter:url(#Adobe_OpacityMaskFilter_2_);}
	.st60{mask:url(#SVGID_41_);fill:#EFC150;}
	.st61{fill:#D1D1D1;}
	.st62{fill:#C4C5C4;}
</style>
<g id="Layer_1">
</g>
<g id="szene01">
	<g id="Tree03_1_">
		<g>
			<defs>
				<rect id="SVGID_1_" x="2348.25" y="0" width="1594.9" height="2383.73"/>
			</defs>
			<clipPath id="SVGID_2_">
				<use xlink:href="#SVGID_1_"  style="overflow:visible;"/>
			</clipPath>
			<g class="st0">
				<defs>
					<rect id="SVGID_3_" x="2348.25" y="0" width="1594.9" height="2383.73"/>
				</defs>
				<clipPath id="SVGID_4_">
					<use xlink:href="#SVGID_3_"  style="overflow:visible;"/>
				</clipPath>
				<rect x="3132.51" y="1768.86" class="st1" width="137.45" height="614.87"/>
				<polygon class="st2" points="2848.03,1165.49 2483,1906.96 3213.07,1906.96 3943.14,1906.96 3578.11,1165.49 3213.07,424.02 
									"/>
				<polygon class="st2" points="3200.73,194.83 3478.48,758.99 3756.23,1323.14 3200.73,1323.14 2645.25,1323.14 2922.99,758.99 
									"/>
				<polygon class="st2" points="3205.29,0 3033.27,349.42 2861.24,698.84 3205.29,698.84 3549.35,698.84 3377.32,349.42 				"/>
				<g class="st3">
					<defs>
						<rect id="SVGID_5_" x="2348.25" y="0" width="1594.9" height="2383.73"/>
					</defs>
					<clipPath id="SVGID_6_">
						<use xlink:href="#SVGID_5_"  style="overflow:visible;"/>
					</clipPath>
					<g class="st4">
						<g>
							<defs>
								<rect id="SVGID_7_" x="2755.43" y="1323.14" width="913.84" height="29.59"/>
							</defs>
							<clipPath id="SVGID_8_">
								<use xlink:href="#SVGID_7_"  style="overflow:visible;"/>
							</clipPath>
							<path class="st5" d="M2755.43,1352.73h913.84c-4.93-9.86-9.85-19.73-14.79-29.59h-885.2
								C2764.67,1333.01,2760.06,1342.87,2755.43,1352.73"/>
						</g>
					</g>
					<g class="st4">
						<g>
							<defs>
								<rect id="SVGID_9_" x="3132.51" y="1906.96" width="138.1" height="118.37"/>
							</defs>
							<clipPath id="SVGID_10_">
								<use xlink:href="#SVGID_9_"  style="overflow:visible;"/>
							</clipPath>
							<rect x="3132.51" y="1906.96" class="st6" width="138.1" height="118.37"/>
						</g>
					</g>
					<g class="st4">
						<g>
							<defs>
								<rect id="SVGID_11_" x="2860.47" y="0" width="343.74" height="698.84"/>
							</defs>
							<clipPath id="SVGID_12_">
								<use xlink:href="#SVGID_11_"  style="overflow:visible;"/>
							</clipPath>
							<path class="st7" d="M3204.21,0c-7.05,232.9-14.1,465.8-21.15,698.7l-322.6,0.15l171.87-349.42L3204.21,0z"/>
						</g>
					</g>
					<g class="st4">
						<g>
							<defs>
								<rect id="SVGID_13_" x="2483" y="1323.14" width="741.64" height="583.81"/>
							</defs>
							<clipPath id="SVGID_14_">
								<use xlink:href="#SVGID_13_"  style="overflow:visible;"/>
							</clipPath>
							<path class="st8" d="M3224.63,1323.14v246.99v336.83H2483c95.41-193.81,190.82-387.62,286.23-581.43
								C2921.03,1324.74,3072.84,1323.94,3224.63,1323.14"/>
						</g>
					</g>
					<g class="st4">
						<g>
							<defs>
								<rect id="SVGID_15_" x="3132.51" y="1906.96" width="78.26" height="476.77"/>
							</defs>
							<clipPath id="SVGID_16_">
								<use xlink:href="#SVGID_15_"  style="overflow:visible;"/>
							</clipPath>
							<rect x="3132.51" y="1906.96" class="st9" width="78.26" height="476.77"/>
						</g>
					</g>
					<g class="st4">
						<g>
							<defs>
								<rect id="SVGID_17_" x="2645.25" y="698.84" width="560.05" height="624.3"/>
							</defs>
							<clipPath id="SVGID_18_">
								<use xlink:href="#SVGID_17_"  style="overflow:visible;"/>
							</clipPath>
							<path class="st10" d="M3205.29,698.84c-0.36,208.1-0.72,416.2-1.08,624.3h-558.96c102.45-208.1,204.9-416.21,307.36-624.3
								H3205.29z"/>
						</g>
					</g>
					<g class="st4">
						<g>
							<defs>
								<rect id="SVGID_19_" x="2938.03" y="698.84" width="525.87" height="29.59"/>
							</defs>
							<clipPath id="SVGID_20_">
								<use xlink:href="#SVGID_19_"  style="overflow:visible;"/>
							</clipPath>
							<path class="st11" d="M2938.03,728.43h525.87c-4.77-9.87-9.55-19.73-14.32-29.6c-165.66,0-331.32,0-496.98,0
								C2947.75,708.7,2942.89,718.57,2938.03,728.43"/>
						</g>
					</g>
				</g>
			</g>
		</g>
	</g>
	<g id="Tree01_1_">
		<g>
			<defs>
				<rect id="SVGID_21_" x="2213.75" y="495.94" width="1111.22" height="1887.15"/>
			</defs>
			<clipPath id="SVGID_22_">
				<use xlink:href="#SVGID_21_"  style="overflow:visible;"/>
			</clipPath>
			<g class="st12">
				<defs>
					<rect id="SVGID_23_" x="2213.75" y="495.94" width="1111.22" height="1887.15"/>
				</defs>
				<clipPath id="SVGID_24_">
					<use xlink:href="#SVGID_23_"  style="overflow:visible;"/>
				</clipPath>
				<rect x="2708.75" y="1915.68" class="st13" width="104.48" height="467.41"/>
				<polygon class="st14" points="2492.5,1457.01 2215,2020.66 2769.99,2020.66 3324.97,2020.66 3047.48,1457.01 2769.99,893.36 
									"/>
				<polygon class="st14" points="2492.5,1262.05 2215,1825.69 2769.99,1825.69 3324.97,1825.69 3047.48,1262.05 2769.99,698.4 				
					"/>
				<polygon class="st14" points="2769.99,495.94 2492.5,1059.59 2215,1623.23 2769.99,1623.23 3324.97,1623.23 3047.48,1059.59 
									"/>
				<g class="st15">
					<defs>
						<rect id="SVGID_25_" x="2213.75" y="495.94" width="1111.22" height="1887.15"/>
					</defs>
					<clipPath id="SVGID_26_">
						<use xlink:href="#SVGID_25_"  style="overflow:visible;"/>
					</clipPath>
					<g class="st16">
						<g>
							<defs>
								<rect id="SVGID_27_" x="2304.99" y="1623.23" width="932.07" height="22.49"/>
							</defs>
							<clipPath id="SVGID_28_">
								<use xlink:href="#SVGID_27_"  style="overflow:visible;"/>
							</clipPath>
							<path class="st17" d="M2304.99,1645.73h932.07c-4-7.5-7.99-15-11.99-22.49h-907.74
								C2313.21,1630.73,2309.1,1638.23,2304.99,1645.73"/>
						</g>
					</g>
					<g class="st16">
						<g>
							<defs>
								<rect id="SVGID_29_" x="2298.82" y="1825.75" width="940.73" height="23.29"/>
							</defs>
							<clipPath id="SVGID_30_">
								<use xlink:href="#SVGID_29_"  style="overflow:visible;"/>
							</clipPath>
							<path class="st18" d="M2298.82,1849.03h940.73c-4.04-7.76-8.07-15.52-12.11-23.29h-916.18
								C2307.12,1833.51,2302.97,1841.27,2298.82,1849.03"/>
						</g>
					</g>
					<g class="st16">
						<g>
							<defs>
								<rect id="SVGID_31_" x="2213.75" y="495.94" width="554.48" height="1127.29"/>
							</defs>
							<clipPath id="SVGID_32_">
								<use xlink:href="#SVGID_31_"  style="overflow:visible;"/>
							</clipPath>
							<polygon class="st19" points="2768.24,495.94 2768.24,1623.23 2213.75,1623.23 2490.99,1059.59 							"/>
						</g>
					</g>
					<g class="st16">
						<g>
							<defs>
								<rect id="SVGID_33_" x="2213.75" y="1620.09" width="554.48" height="205.61"/>
							</defs>
							<clipPath id="SVGID_34_">
								<use xlink:href="#SVGID_33_"  style="overflow:visible;"/>
							</clipPath>
							<path class="st20" d="M2768.24,1620.08v205.61h-554.48c33.17-68.26,66.33-136.51,99.49-204.77
								C2464.91,1620.65,2616.57,1620.37,2768.24,1620.08"/>
						</g>
					</g>
					<g class="st16">
						<g>
							<defs>
								<rect id="SVGID_35_" x="2213.75" y="1825.36" width="554.48" height="195.3"/>
							</defs>
							<clipPath id="SVGID_36_">
								<use xlink:href="#SVGID_35_"  style="overflow:visible;"/>
							</clipPath>
							<path class="st21" d="M2768.24,1825.58v195.07h-554.48c32.13-65.1,64.25-130.2,96.37-195.3
								C2462.83,1825.43,2615.53,1825.51,2768.24,1825.58"/>
						</g>
					</g>
					<g class="st16">
						<g>
							<defs>
								<rect id="SVGID_37_" x="2708.75" y="2020.66" width="59.49" height="362.43"/>
							</defs>
							<clipPath id="SVGID_38_">
								<use xlink:href="#SVGID_37_"  style="overflow:visible;"/>
							</clipPath>
							<rect x="2708.75" y="2020.66" class="st22" width="59.49" height="362.43"/>
						</g>
					</g>
				</g>
			</g>
		</g>
	</g>
	<g id="baumstamm">
		<path class="st23" d="M2296.82,2252.9c-45.24,29.99-54.81,70.84-49.93,86.97c4.88,16.14,29.96,44.59,66.47,43.09
			c36.5-1.5,590.31-9.13,590.31-9.13s-27.21,14.1-60.24-32.34c-33.03-46.44-53.82-107.47-13.14-144.3L2296.82,2252.9z"/>
		<g id="front">
			<path class="st24" d="M2903.68,2373.84c0,0-27.21,14.1-60.24-32.34c-33.03-46.44-53.82-107.47-13.14-144.3
				c0,0,17.6-17.6,66.01-2.72c48.41,14.88,104.43,43.52,106.76,65.93c2.33,22.41-1.33,70.28-35.44,95.64
				S2903.68,2373.84,2903.68,2373.84z"/>
			<g>
				<path class="st25" d="M2864.21,2202.09c9.1,0,19.45,1.76,30.76,5.24c23.05,7.09,46.44,17.06,64.17,27.36
					c26.84,15.59,29.81,25.3,30.08,27.91c2.15,20.72-1.77,61.41-30.13,82.49c-17.93,13.33-34.28,16.12-44.84,16.12
					c-5.39,0-8.65-0.77-8.65-0.77l0,0l-2.49-0.82l-2.39,1.36c-0.41,0.17-2.8,1.12-6.59,1.12c-7.43,0-22.57-3.76-40.49-28.96
					c-16.32-22.95-27.18-46.9-30.57-67.45c-3.97-24.02,1.87-43.31,17.36-57.34l0.13-0.12l0.12-0.12
					C2840.73,2208.06,2847.45,2202.09,2864.21,2202.09L2864.21,2202.09 M2864.2,2195.09c-20.4,0-28.48,8.07-28.48,8.07
					c-37.78,34.21-18.47,90.89,12.21,134.03c19.08,26.84,36.08,31.91,46.2,31.91c6.15,0,9.76-1.87,9.76-1.87s3.87,0.98,10.37,0.98
					c10.89,0,29.17-2.76,49.02-17.5c31.69-23.55,35.08-68.02,32.92-88.83c-2.16-20.81-54.2-47.41-99.16-61.23
					C2883.67,2196.53,2872.83,2195.09,2864.2,2195.09L2864.2,2195.09z"/>
			</g>
			<g>
				<path class="st25" d="M2874.93,2223.82c6.62,0,14.17,1.29,22.46,3.84c17.09,5.26,34.43,12.64,47.56,20.27
					c15.37,8.93,21.24,16.08,21.6,19.49c1.57,15.1-1.26,44.73-21.8,60c-13,9.66-24.81,11.69-32.43,11.69
					c-3.48,0-5.69-0.45-6.03-0.52l-2.39-0.93l-2.47,1.46c-0.37,0.15-1.82,0.66-4.14,0.66c-5.21,0-15.88-2.71-28.8-20.89
					c-12.04-16.92-20.04-34.55-22.53-49.63c-2.86-17.31,1.31-31.17,12.41-41.22l-0.01,0.05l0.19-0.22
					C2859.25,2227.31,2863.99,2223.83,2874.93,2223.82L2874.93,2223.82 M2874.93,2216.82c-15.24,0-21.27,6.03-21.27,6.03
					c-28.22,25.55-13.79,67.88,9.12,100.1c14.25,20.04,26.95,23.83,34.5,23.83c4.59,0,7.29-1.4,7.29-1.4s2.89,0.73,7.75,0.73
					c8.14,0,21.79-2.06,36.61-13.07c23.67-17.59,26.2-50.8,24.59-66.34c-1.61-15.54-40.48-35.41-74.06-45.73
					C2889.46,2217.9,2881.38,2216.82,2874.93,2216.82L2874.93,2216.82z"/>
			</g>
			<g>
				<path class="st25" d="M2884,2235.2l0,7h0c4.52,0,9.71,0.89,15.43,2.65c12.06,3.71,24.27,8.91,33.51,14.28
					c11.46,6.66,14.3,11.19,14.42,12.38c1.08,10.35-0.82,30.63-14.75,40.99c-8.83,6.57-16.81,7.94-21.94,7.94
					c-2.12,0-3.5-0.25-3.82-0.31l-2.31-1.08l-2.51,1.58c-0.28,0.09-1,0.28-2.09,0.28c-3.33,0-10.21-1.83-18.91-14.06
					c-7-9.84-28.22-43.41-7.51-62.16l-0.06,0.14l0.22-0.26c0.65-0.46,3.69-2.36,10.32-2.36L2884,2235.2 M2884,2235.2
					c-10.87,0-15.17,4.3-15.17,4.3c-20.13,18.23-9.84,48.42,6.5,71.41c10.17,14.3,19.22,17,24.61,17c3.27,0,5.2-1,5.2-1
					s2.06,0.52,5.53,0.52c5.8,0,15.54-1.47,26.11-9.33c16.88-12.55,18.69-36.24,17.54-47.33s-28.88-25.26-52.83-32.62
					C2894.37,2235.97,2888.6,2235.2,2884,2235.2L2884,2235.2z"/>
			</g>
		</g>
		<g id="shaddow_3_">
			<path class="st26" d="M2296.82,2252.9c-45.24,29.99-54.81,70.84-49.93,86.97c4.88,16.14,29.96,44.59,66.47,43.09
				c36.5-1.5,590.31-9.13,590.31-9.13s-27.21,14.1-60.24-32.34c-33.03-46.44-53.82-107.47-13.14-144.3L2296.82,2252.9z"/>
		</g>
	</g>
	<g id="holzhaufen" class="st27">
		<g id="color_2_" class="st28">
			<path class="st24" d="M0,2991.71c867.39-2.03,1734.63,3.14,2601.73,15.52c460.44,6.57,920.89,15.17,1381.34,25.8l-11.59,142.13
				c0,0-1215.39-1.38-1957.03-18.07c-439.96-9.9-2005.47,1.04-2005.47,1.04C5.99,3102.66,2.99,3047.19,0,2991.71z"/>
			<path class="st24" d="M56.41,2785.88c753.97-42.85,1507.06-53.65,2259.28-32.4c24.36,0.69,199.01,9.19,435.2,15.88
				c191.49,5.42,408.82,11.37,659.91,8.32c116.52-1.42,289.3-5.36,501.56-17.46c-2.26,96.03-4.52,192.06-6.78,288.09
				c0,0-1201.23-3.86-1975.88-20.55c-459.54-9.9-1849.98,20.55-1849.98,20.55C71.96,2960.83,64.19,2873.36,56.41,2785.88z"/>
			<path class="st24" d="M104.49,2626.01c665.66-75.91,1203.42-71.78,1580.68-52.24c327.72,16.97,521.76,62.2,913.67,54.33
				c312.13-6.27,1088.57-36.31,1217.33-45.97l3.9,188.08c-243.09,15.06-610.54,33.1-1059.63,36.04
				c-499.59,3.28-750.72-14.56-1206.81-20.46c-342.3-4.42-834.42-2.59-1438.17,28.82C111.8,2751.74,108.14,2688.87,104.49,2626.01z"
				/>
			<path class="st24" d="M199.42,2465.62c130.32,11.88,886.31,25.76,1554.09,42.32c257.63,6.39,964.34,5.3,1070.08,3.13
				c298.81-6.13,793.8-14.06,917.06-23.51v130.36c-232.71,14.72-584.48,32.36-1014.4,35.23c-473.11,3.17-745.81-57.45-1186.76-63.72
				c-327.11-4.66-764.91,39.8-1340.07,66.91V2465.62z"/>
			<path class="st24" d="M254.9,2370.25c199.04,0.36,504.25,1.12,877.74,2.89c806.35,3.82,1039.61,8.14,1433.57,4.18
				c266.65-2.68,652.81-9.61,1124.29-29.26c-1.78,58.16-3.55,116.33-5.33,174.49c-212.91,15.62-556.68,35.58-982.62,35.23
				c-523.32-0.43-759.89-31.18-1254.82-36.84c-273.14-3.12-683.86,0.72-1192.83,40.03C254.9,2497.41,254.9,2433.83,254.9,2370.25z"
				/>
		</g>
		<g id="shaddow_2_" class="st28">
			<path class="st26" d="M9.63,3065.81c822.33-1.23,1644.46,5.67,2466.41,20.71c501.32,9.17,1002.61,21.36,1503.89,36.58
				l-3.39,41.56c0,0-1215.39-1.38-1957.03-18.07c-439.96-9.9-2005.47,1.04-2005.47,1.04C12.57,3120.36,11.1,3093.08,9.63,3065.81z"
				/>
			<path class="st26" d="M73.54,2890.34c752.37-12.11,1494.8-15.24,2247.21-14.27c217.23,0.28,388.16,1.01,447.93,1.35
				c492.59,2.82,889.67,9.47,1143.64,14.51c-0.52,26.17-0.93,52.53-1.22,79.07c-0.19,17.38-0.32,34.68-0.41,51.9
				c-652.75-15.02-1305.59-25.95-1958.52-32.8c-623.9-6.55-1247.79-9.37-1871.68-8.46L73.54,2890.34z"/>
			<path class="st26" d="M113.95,2691.14c139.11,4.89,354.47,10.67,618.35,10.04c492.92-1.17,662.49-23.92,1120.11-25.08
				c365.48-0.93,382.13,13.64,819.18,20.9c291.21,4.84,683.39,5.02,1151.96-13.58c0.49,23.73,0.98,47.46,1.48,71.19
				c-649.49,12.95-927.38,12.27-1047.85,7.73c-18.15-0.68-116.88-4.58-251.22-7.26c-60.36-1.2-128.97-2.15-204.62-2.48
				c-86.04-0.37-124.21,0.31-348.59,1.34c-182.92,0.84-273.73,0.93-379.55,1.27c-183.15,0.58-572.48,4.11-1474.53,16.98
				C117.1,2745.17,115.52,2718.15,113.95,2691.14z"/>
			<path class="st26" d="M204.65,2521.27c654.87-9.12,1183.54,1.85,1553.93,14.18c333.7,11.11,613.75,25.8,1036.36,20.92
				c401.07-4.63,730.34-24.59,950.79-41.3c-0.07,20.07-0.14,40.14-0.21,60.2c-223.6,14.15-559.64,30.76-969.48,32.41
				c-514.36,2.07-767.57-20.94-1231.47-28.76c-320.85-5.41-779.14-4.17-1339.41,28.76C204.98,2578.88,204.82,2550.08,204.65,2521.27
				z"/>
			<path class="st26" d="M259.97,2416.78c199.04,0.36,504.25,1.12,877.74,2.89c805.83,3.82,1039.27,8.14,1433.57,4.18
				c266.49-2.68,652.02-9.6,1122.54-29.18c-0.87,28.5-1.74,57-2.61,85.5c-436.05,20.26-793.76,17.45-1044.26,10.77
				c-543.9-14.5-781.82-52.58-1335.22-49.79c-60.41,0.31-307.95,2.02-627.65,7.95c-178.85,3.32-325.98,6.94-424.12,9.55
				C259.97,2444.7,259.97,2430.74,259.97,2416.78z"/>
		</g>
	</g>
	<g id="förster02">
		<g id="förster02_1_">
			<rect x="763.99" y="1815.05" class="st29" width="417.72" height="65.51"/>
			<polygon class="st30" points="793.18,1949.75 793.18,2248.21 908.97,2248.21 908.97,1949.75 1037.68,1949.75 1037.68,2248.21 
				1152.51,2248.21 1152.51,1949.75 1181.71,1949.75 1181.71,1880.55 1110.54,1880.55 1110.73,1815.05 1090.53,1815.05 
				1090.81,1880.55 852.55,1880.55 852.5,1815.05 833.58,1815.05 833.87,1880.55 763.99,1880.55 763.99,1949.75 			"/>
			<polygon class="st31" points="717.05,2337.3 713.31,2379.08 908.97,2379.08 908.97,2333.56 908.97,2188.33 793.18,2188.33 
				791.83,2326.08 			"/>
			<polygon class="st31" points="1229.65,2337.3 1233.39,2379.08 1037.73,2379.08 1037.73,2333.56 1037.73,2188.33 1152.51,2188.33 
				1154.87,2326.08 			"/>
			<polyline class="st32" points="792.28,1534.03 734.36,1662.03 725.16,1861.93 614.72,1861.93 623.93,1664.33 778.52,1411.35 
				870.78,1406.56 973.94,1475.55 1075.22,1406.26 1168.94,1411.88 1322.56,1664.33 1331.77,1861.93 1221.33,1861.93 
				1212.13,1662.03 1171.78,1534.03 1181.71,1815.05 763.99,1815.05 792.28,1534.03 			"/>
			<path class="st33" d="M795.73,1410.45l178.21,65.1l180.03-64.57v-323.55c0,0-95.84,36.55-169.77,40.7
				c-73.93,4.15-159.73,2.91-188.47-6.65V1410.45z"/>
			<path class="st34" d="M795.73,1233.52h-35.44c-12.29,2.79-28.21,9.77-29.6,32.96s9.5,33.51,18.99,37.98h46.06V1233.52z"/>
			<path class="st34" d="M1153.97,1233.52h35.44c12.29,2.79,28.21,9.77,29.6,32.96c1.4,23.18-9.5,33.51-18.99,37.98h-46.06V1233.52z
				"/>
			<path class="st35" d="M795.73,1121.49c5.61,1.58,14.48,3.97,25.44,6.46c115.36,26.19,302.85,26.96,353.25-64.5
				c20.31-36.85,19.06-89.94-3.07-105.07c-19.25-13.15-53.96,2.63-66.72,8.44c-37.82,17.2-37.91,34.12-62.12,43.71
				c-45.83,18.17-73.23-33.9-145.71-35.85c-6.26-0.17-80.93-1.15-119.06,48.32c-26.89,34.88-25.31,81.49-23.59,132.33
				c0.95,27.94,6.14,78.2,6.14,78.2l0,0h35.44V1121.49z"/>
			<polygon class="st33" points="1236.64,1861.93 1254.65,1925.63 1325.17,1906.14 1324.06,1861.93 			"/>
			<polygon class="st33" points="713.31,1861.93 695.31,1925.63 624.78,1906.14 625.9,1861.93 			"/>
			<line class="st36" x1="881.52" y1="1180.17" x2="934.03" y2="1180.17"/>
			<line class="st36" x1="1015.68" y1="1180.17" x2="1068.19" y2="1180.17"/>
			<path class="st37" d="M907.77,1221.01c-4.53,0-14.59,6.2-13.13,24.8s8.36,20.8,13.13,20.8s13.13-7.66,13.13-22.8
				S912.3,1221.01,907.77,1221.01z"/>
			<path class="st37" d="M1040.56,1221.01c-4.53,0-14.59,6.2-13.13,24.8s8.36,20.8,13.13,20.8s13.13-7.66,13.13-22.8
				S1045.09,1221.01,1040.56,1221.01z"/>
			<rect x="789.43" y="2188.33" class="st38" width="123.47" height="22.05"/>
			<rect x="1033.4" y="2188.33" class="st38" width="123.47" height="22.05"/>
			<polygon class="st39" points="1168.94,1411.88 1075.22,1406.26 973.94,1475.55 870.78,1406.56 778.52,1411.35 792.28,1534.03 
				763.99,1815.05 1181.71,1815.05 			"/>
			<polygon class="st40" points="778.23,1677.82 948.95,1677.82 948.95,1698.08 776.19,1698.08 			"/>
			<polygon class="st40" points="773.55,1720.03 948.95,1720.03 948.95,1740.64 771.48,1740.64 			"/>
			<polygon class="st40" points="1176.86,1677.82 1001.73,1677.82 1001.73,1698.08 1178,1698.08 			"/>
			<polygon class="st40" points="1178.7,1720.03 1001.73,1720.03 1001.73,1740.64 1179.35,1740.64 			"/>
			<defs>
				<filter id="Adobe_OpacityMaskFilter" filterUnits="userSpaceOnUse" x="940.51" y="1800.78" width="66.86" height="93.56">
					<feFlood  style="flood-color:white;flood-opacity:1" result="back"/>
					<feBlend  in="SourceGraphic" in2="back" mode="normal"/>
				</filter>
			</defs>
			<mask maskUnits="userSpaceOnUse" x="940.51" y="1800.78" width="66.86" height="93.56" id="SVGID_39_">
				<g class="st41">
					<path d="M979.99,1850.02l16.37,0.01c-0.9,16.22-10.59,28.99-22.41,28.99c-12.42,0-22.48-14.09-22.48-31.46
						s10.07-31.46,22.48-31.46c11.59,0,21.12,12.26,22.35,28.02l-16.33,0.23L979.99,1850.02z"/>
				</g>
			</mask>
			<ellipse class="st42" cx="973.94" cy="1847.56" rx="33.43" ry="46.78"/>
			<path class="st43" d="M1003.64,1360.25c-6.06-4.57-9.36-10.71-18.41-13.04c-1.94-0.5-9.7-2.48-14.15,1.18
				c-4.44-3.66-12.2-1.68-14.15-1.18c-9.05,2.32-12.35,8.47-18.41,13.04c-5.85,4.41-15.82,8.54-33.74,6.14
				c6.62,2.61,16.31,5.95,28.38,8.44c17.79,3.66,27.04,5.42,33.74,0c1.64-1.33,3.03-3.03,4.18-4.93c1.14,1.89,2.53,3.6,4.18,4.93
				c6.71,5.42,15.96,3.66,33.74,0c12.07-2.48,21.76-5.83,28.38-8.44C1019.46,1368.79,1009.48,1364.66,1003.64,1360.25z"/>
		</g>
		<g id="Motorsäge_1_">
			<path class="st44" d="M234.61,2192.77c-2.46-0.13-9.45-0.54-16.99,2.81c-3.33,1.48-5.69,3.21-8.03,4.95
				c-2.62,1.95-8.37,6.29-13.33,13.22c-9.41,13.15-9.99,27.22-10.05,30.63c-0.2,11.28,3.16,20.01,5.41,24.73
				c1.97,3.94,5.56,9.74,11.91,14.3c0,0,5.41,3.89,12.49,5.77c12.25,3.25,140.21,7.29,314.46,10.4
				c4.53-30.58,9.06-61.16,13.59-91.74C371.45,2199.32,245.77,2193.36,234.61,2192.77z"/>
			<defs>
				<filter id="Adobe_OpacityMaskFilter_1_" filterUnits="userSpaceOnUse" x="681.92" y="2206.69" width="283.77" height="179.11">
					<feFlood  style="flood-color:white;flood-opacity:1" result="back"/>
					<feBlend  in="SourceGraphic" in2="back" mode="normal"/>
				</filter>
			</defs>
			<mask maskUnits="userSpaceOnUse" x="681.92" y="2206.69" width="283.77" height="179.11" id="SVGID_40_">
				<g class="st45">
					<path d="M806.26,2342.23c-1.23,0.07-5.1,0.32-9.88-0.97c-7.62-2.05-12.41-6.63-13.77-8.01c-4.73-4.8-6.53-9.86-7.66-13.18
						c-1.45-4.25-6.23-20.44,2.38-34.56c3.61-5.92,8.36-9.49,12.51-12.61c2.86-2.15,7.64-5.68,14.31-7.94
						c2.89-0.98,9.27-2.77,23.01-1.38c9.45,0.96,18.09,2.99,30.57,7.14c12.29,4.09,20.07,7.51,30.81,12
						c9.35,3.91,23.13,9.57,40.39,16.19c0.62,0.18,1.54,0.52,2.46,1.22c0,0,1.35,1.02,2.24,2.77c1.58,3.11,1.27,8.76,1.17,13.49
						c-0.09,4.15-0.08,10.47-1.9,13.43c-0.75,1.22-1.77,2.06-1.77,2.06s-1.32,1.09-3.16,1.61
						C919.03,2336,806.26,2342.23,806.26,2342.23z"/>
				</g>
			</mask>
			<path class="st46" d="M681.92,2385.81c24.59-3.48,44.86-6.02,58.86-7.7l0.01,0c62.36-3.21,124.73-6.43,187.09-9.64
				c1.99-0.2,4.96-0.62,8.44-1.59c4.14-1.16,16.94-4.76,24.72-16.57c1.42-2.16,3.35-5.63,4.64-10.45
				c-0.08-17.59-0.17-35.18-0.25-52.78c-0.32-1.3-0.96-3.37-2.36-5.52c-2.08-3.2-4.81-5.03-14.74-10.13
				c-2.35-1.21-5.35-2.73-8.86-4.44c-78.17-29.28-109.7-41.44-119.34-45.49c-2.57-1.08-7.76-3.26-18.15-7.62
				c-10.62-4.45-15.93-6.68-16.18-6.75c-17.38-5.1-53.25,37.33-77.16,89.46C699.61,2316.3,688.17,2346.35,681.92,2385.81z"/>
			<g id="motorsäge_2_">
				<path class="st47" d="M527.48,2367.47c-5.34-9.13-12.51-23.26-17.47-41.62c-3.61-13.37-4.94-24.87-5.69-36.74
					c-2.74-43.56,2.29-93.7,4.41-112.72c5.65-7.16,11.3-14.31,16.96-21.47c26.25,0.1,52.5,0.21,78.75,0.31
					c7.35-7.99,14.7-15.98,22.05-23.97c20.51,0.15,41.02,0.31,61.53,0.46c34.33,13.62,68.67,27.23,103,40.85
					c4.9,16.74,9.8,33.48,14.7,50.22c0.45,1.73,0.91,4.33,0.7,7.48c-0.09,1.38-0.35,4.74-2.06,8.17c-2.55,5.09-6.93,7.58-8.67,8.54
					c-10.21,5.64-16.68-1.18-29.51,2.18c-0.74,0.19-12.47,3.43-19.44,13.54c-4.79,6.95-5.13,13.95-5.41,24.94
					c-0.7,27.92-0.31,54.08-0.2,64.07c0.06,5.76,0.07,14.94-0.34,26.39c-27.12,5.46-63.23,10.03-105.64,8.08
					C591.18,2384.16,554.51,2375.78,527.48,2367.47z"/>
			</g>
			<g id="motorsäge_3_">
				<path class="st48" d="M527.48,2367.47c-5.9-10.06-12.72-24.05-17.47-41.62c-3.79-14.05-5.25-26.64-5.69-36.74
					c20.39,7.17,53.3,15.96,94.22,14.78c17.6-0.51,52.5-1.83,89.04-18.69c65.88-30.39,94.72-91.72,103.44-112.63
					c4.9,16.74,9.8,33.48,14.7,50.22c0.45,1.73,0.91,4.33,0.7,7.48c-0.09,1.38-0.35,4.74-2.06,8.17c-2.55,5.09-6.93,7.58-8.67,8.54
					c-10.21,5.64-16.68-1.18-29.51,2.18c-0.74,0.19-12.47,3.43-19.44,13.54c-4.79,6.95-5.13,13.95-5.41,24.94
					c-0.7,27.92-0.31,54.08-0.2,64.07c0.06,5.76,0.07,14.94-0.34,26.39c-27.12,5.46-63.23,10.03-105.64,8.08
					C591.18,2384.16,554.51,2375.78,527.48,2367.47z"/>
			</g>
			<path class="st44" d="M535.17,2386.37c0.27,1,2.45,8.6,9.23,11.08c3.38,1.24,6.59,0.72,8.04,0.48c1.59-0.26,5.16-0.88,8.5-3.75
				c3.6-3.09,4.77-6.92,5.14-8.43c1.59-26.38,5.8-93.01,11.98-158.04c2.81-29.55,5.53-53.47,9.35-80.09
				c2.42-16.86,4.72-30.82,6.37-40.46c0.1-1.56,0.58-5.73,3.74-9.57c2.17-2.64,4.67-3.98,6.1-4.61
				c18.65,12.84,37.3,25.68,55.95,38.52c9.48,0.07,18.96,0.14,28.44,0.21c19.28,7.65,38.55,15.3,57.83,22.94
				c-43.52-30.18-87.05-60.35-130.57-90.52c-3.41-1.24-9.71-2.99-17.35-1.82c-12.93,1.97-20.56,10.91-23.39,14.22
				c-2.51,2.93-6.44,8.3-10.54,21.73c-2.83,9.28-6.1,23.6-6.03,42.08c-9.22-10.57-16.15-19.91-20.97-26.83
				c-10.5-15.09-11.93-20.04-12.53-22.53c-0.86-3.57-3.87-16.04,1.06-28.78c1.43-3.69,3.89-8.35,5.2-16.05
				c1-5.88,0.53-8.85-1.19-11.02c-1.47-1.85-4.19-3.55-6.75-3.01c-2.65,0.56-4.11,3.29-4.91,4.83c-5.99,11.59-8.98,17.39-9.67,19.61
				c-5.32,17.15-5.63,13.06-10.16,28.5c-3.37,11.48-5.03,19.97-6.78,28.95c-3.88,19.86-3.75,26.89-3.61,30.03
				c0.02,0.57,0.53,11.33,3.46,18.44c4.06,9.86,13.94,15.51,17.24,17.24c0.12-1.11,0.24-2.23,0.37-3.34
				c5.65-7.16,11.3-14.31,16.96-21.47c10.16,0.04,20.32,0.08,30.48,0.12c-7.01,69.89-14.03,139.78-21.04,209.67
				C535.14,2371.93,535.16,2379.15,535.17,2386.37z"/>
		</g>
	</g>
	<g id="förster01_3_">
		<polygon class="st31" points="1518.62,2357.17 1518.62,2385.34 1694.71,2385.34 1694.71,2313.15 1583.78,2313.15 1582.02,2341.32 
					"/>
		<polygon class="st31" points="1993.77,2357.17 1993.77,2385.34 1817.68,2385.34 1817.68,2313.15 1928.62,2313.15 1930.38,2341.32 
					"/>
		<rect x="1571.45" y="2260.32" class="st49" width="136.08" height="52.83"/>
		<rect x="1806.44" y="2260.32" class="st49" width="136.08" height="52.83"/>
		<rect x="1556.2" y="1846.49" class="st29" width="399.07" height="62.58"/>
		<polygon class="st50" points="1584.1,1975.18 1584.1,2260.32 1694.71,2260.32 1694.71,1975.18 1817.68,1975.18 1817.68,2260.32 
			1927.38,2260.32 1927.38,1975.18 1955.27,1975.18 1955.27,1909.08 1887.28,1909.08 1887.46,1846.49 1868.16,1846.49 
			1868.43,1909.08 1640.81,1909.08 1640.76,1846.49 1622.69,1846.49 1622.96,1909.08 1556.2,1909.08 1556.2,1975.18 		"/>
		<polygon class="st51" points="1566.81,1395.1 1756.78,1522.16 1942.5,1395.1 1942.5,1443.42 2156.09,1701.8 2069.56,1891.29 
			1955.27,1825.57 2025.75,1685.37 1945.79,1578.02 1756.78,1578.02 1583.24,1578.02 1521.9,1769.71 1414.56,1811.33 
			1325.83,1550.64 1462.75,1521.07 1478.08,1593.36 1556.2,1461.92 1570.09,1460.82 		"/>
		<polygon class="st52" points="1527.37,1846.49 1949.78,1846.49 1955.27,1825.57 1976.03,1784.28 1955.27,1436.73 1756.78,1540.78 
			1556.2,1436.73 		"/>
		<path class="st31" d="M1583.77,1578.02h109.78c0,0,19.41,116.1-50.94,116.1S1583.77,1578.02,1583.77,1578.02z"/>
		<path class="st31" d="M1817.08,1578.02h109.78c0,0,19.41,116.1-50.94,116.1S1817.08,1578.02,1817.08,1578.02z"/>
		<path class="st33" d="M1586.53,1408.3l170.25,113.86l171.99-117.66V991.41c0,0-91.56,34.92-162.19,38.88
			c-70.63,3.97-152.59,2.78-180.05-6.35V1408.3z"/>
		<polygon class="st53" points="1682.21,1472.29 1829.68,1472.29 1756.78,1522.16 		"/>
		<path class="st54" d="M1586.53,1191.38c-6.15,11.25-42.16,79.63-13.57,151.57c40.93,103.02,172.39,107.76,180.6,107.92
			c61.52,1.24,166.64-20.93,189.2-107.13c5.92-22.62,16.87-97.61-13.98-152.36l-43.95,57.14c-28.41-26.86-52.52-33.77-69.61-34.92
			c-23.06-1.55-59.27,5.56-59.27,5.56l0,0c-11.3-3.79-34.1-9.73-62.45-5.18c-32.42,5.21-54.18,21.27-63.4,28.99L1586.53,1191.38z"/>
		<path class="st55" d="M1721.21,1267.58c4.53-1.1,13.68-4.01,21.8-12.09c4.49-4.47,7.23-9.09,8.88-12.53c2.63,0,5.25,0,7.88,0
			c2.68,3.76,6.56,8.39,11.95,12.85c7.81,6.46,15.57,9.9,20.93,11.77c-7.55,2.97-20.29,6.9-36.45,6.78
			C1740.79,1274.25,1728.62,1270.5,1721.21,1267.58z"/>
		<path class="st34" d="M1586.53,1130.96h-33.86c-11.74,2.67-26.95,9.34-28.28,31.48c-1.33,22.15,9.07,32.02,18.14,36.29h44V1130.96
			z"/>
		<path class="st34" d="M1928.77,1130.96h33.86c11.74,2.67,26.95,9.34,28.28,31.48c1.33,22.15-9.07,32.02-18.14,36.29h-44V1130.96z"
			/>
		<path class="st54" d="M1586.53,1023.94c4.46,1.28,13,4.95,24.3,6.17c221.12,23.75,363.17-52.75,377.05-65.78
			c2.87-2.69,10.17-8.78,9.12-14.15c-0.56-2.87-4.24-5.19-10.15-6.88c-15.03-4.31-27.39-3.51-67.59-5.5c0,0,31.75-9.07,36.82-21.88
			c5.07-12.81-74.97-32.82-181.97-28.28c-106.99,4.54-172.36,31.22-189.97,55.5c-17.61,24.28-17.34,47.23-18.14,57.1
			c-0.8,9.87-20.01,23.21-19.21,56.03c0.8,32.82,5.87,74.71,5.87,74.71h33.86V1023.94z"/>
		<polygon class="st56" points="1274.72,1492.39 1567.59,1410.79 1569.22,1443.48 1556.2,1436.73 1553.93,1469.02 1288.31,1542.42 
					"/>
		<polygon class="st33" points="1332.76,1549.14 1332.76,1530.14 1361.8,1522.12 1331.92,1476.45 1318.77,1480.12 1318.77,1455.41 
			1448.21,1422.77 1468.88,1502.18 1448.76,1504.35 1447.41,1524.38 		"/>
		<path class="st56" d="M1947.77,1315.03c-0.56,7.35-1.78,16.06-4.26,25.66c-2.93,11.32-6.82,20.78-10.49,28.2l231.19-61.3
			l-13.87-50.81L1947.77,1315.03z"/>
		<path class="st57" d="M2124.18,1245.69l-123.8,33.62l30.95,99.79c0,0,11.47,35.22,1.07,61.9c-10.41,26.68-32.02,53.36-32.02,53.36
			c5.39,4.08,65.96,48.33,139.16,24.12c60.92-20.15,85.75-72.86,89.76-81.75c0,0-31.75,2.4-54.96-32.01
			c-23.21-34.42-20.28-33.88-26.15-49.09L2124.18,1245.69z"/>
		<path class="st57" d="M2148.2,1355.62"/>
		<path class="st58" d="M2209.34,1433.21c11.45,4.17,19.97,3.52,19.97,3.52c-4.01,8.89-28.84,61.61-89.76,81.75
			c-73.21,24.21-133.77-20.03-139.16-24.12c0,0,3.15-3.89,7.63-10.19c14.76,6.67,43.72,17.25,80.74,14.57
			c8.95-0.65,56.03-4.8,97.41-40.75C2196.78,1448.78,2204.37,1439.76,2209.34,1433.21z"/>
		<polygon class="st33" points="1955.27,1825.57 1931.54,1915.93 2030.27,1941.54 2060.45,1886.05 		"/>
		<defs>
			<filter id="Adobe_OpacityMaskFilter_2_" filterUnits="userSpaceOnUse" x="1693.89" y="1821.48" width="127.54" height="107.79">
				<feFlood  style="flood-color:white;flood-opacity:1" result="back"/>
				<feBlend  in="SourceGraphic" in2="back" mode="normal"/>
			</filter>
		</defs>
		<mask maskUnits="userSpaceOnUse" x="1693.89" y="1821.48" width="127.54" height="107.79" id="SVGID_41_">
			<g class="st59">
				<polygon points="1721.63,1905.25 1721.63,1846.49 1793.14,1846.49 1793.14,1866.85 1763.79,1866.83 1763.79,1883.91 
					1793.14,1883.91 1793.14,1905.25 				"/>
			</g>
		</mask>
		<rect x="1693.89" y="1821.48" class="st60" width="127.54" height="107.79"/>
		<line class="st36" x1="1668.49" y1="1080" x2="1718.65" y2="1080"/>
		<line class="st36" x1="1796.65" y1="1080" x2="1846.82" y2="1080"/>
		<path class="st37" d="M1693.57,1119.02c-4.32,0-13.94,5.92-12.54,23.69s7.98,19.87,12.54,19.87c4.56,0,12.54-7.32,12.54-21.78
			S1697.89,1119.02,1693.57,1119.02z"/>
		<path class="st37" d="M1820.43,1119.02c-4.32,0-13.94,5.92-12.54,23.69s7.98,19.87,12.54,19.87c4.56,0,12.54-7.32,12.54-21.78
			S1824.75,1119.02,1820.43,1119.02z"/>
		<polygon id="shaddow_x5F_weste_1_" class="st61" points="1527.37,1846.49 1693.89,1846.49 1693.89,1821.48 1756.78,1821.48 
			1756.78,1540.78 1556.2,1436.73 		"/>
		<polygon id="shaddow_x5F_shirt_1_" class="st62" points="1478.08,1593.36 1521.9,1769.71 1535.84,1726.13 1554.19,1465.3 		"/>
	</g>
</g>
</svg>
