<svg xmlns="http://www.w3.org/2000/svg" xmlns:xlink="http://www.w3.org/1999/xlink" viewBox="0 0 1920 1084.15"><defs><style>.cls-1{fill:none;}.cls-2{clip-path:url(#clip-path);}.cls-3{clip-path:url(#clip-path-2);}.cls-4{clip-path:url(#clip-path-3);}.cls-5{fill:#846e63;}.cls-6{clip-path:url(#clip-path-4);}.cls-7{fill:#8e8e8e;}.cls-8{fill:#594f4a;}.cls-9{clip-path:url(#clip-path-6);}.cls-10{clip-path:url(#clip-path-8);}.cls-11{clip-path:url(#clip-path-10);}.cls-12{clip-path:url(#clip-path-11);}.cls-13{clip-path:url(#clip-path-12);}.cls-14{clip-path:url(#clip-path-13);}.cls-15{clip-path:url(#clip-path-15);}.cls-16{clip-path:url(#clip-path-17);}.cls-17{clip-path:url(#clip-path-19);}.cls-18{fill:#cd3027;}.cls-19{fill:#473e42;}.cls-20{clip-path:url(#clip-path-22);}.cls-21{fill:#cec8ca;}.cls-22{fill:#746159;}.cls-23{fill:#40373c;}.cls-24{fill:#ecb751;}.cls-25{clip-path:url(#clip-path-23);}.cls-26{fill:#cdcbcb;}.cls-27{fill:#b2302c;}.cls-28{fill:#40383c;}.cls-29{clip-path:url(#clip-path-24);}.cls-30{fill:#736259;}.cls-31{fill:#393236;}.cls-32{clip-path:url(#clip-path-25);}.cls-33{fill:#514944;}.cls-34{fill:#aba9aa;}.cls-35{fill:#393336;}.cls-36{fill:#211d1f;}.cls-37{fill:#fff;}.cls-38{clip-path:url(#clip-path-26);}.cls-39{fill:#938f91;}.cls-40{clip-path:url(#clip-path-27);}.cls-41{fill:#a4312d;}.cls-42{fill:#3b3438;}.cls-43{fill:#59180b;}.cls-44{fill:#e6a180;}.cls-45{fill:#d19277;}.cls-46{fill:#303f43;}.cls-47{fill:#533617;}.cls-48{fill:#21275a;}.cls-49{fill:#0e211e;}.cls-50{fill:#091614;}</style><clipPath id="clip-path"><polyline class="cls-1" points="194.97 663.01 792.08 667.01 790.41 915.96 193.3 911.97 194.97 663.01"/></clipPath><clipPath id="clip-path-2"><polyline class="cls-1" points="193.3 911.97 790.41 915.96 792.08 667.01 194.97 663.01 193.3 911.97"/></clipPath><clipPath id="clip-path-3"><polyline class="cls-1" points="388.65 828.16 790.98 830.85 791.54 747.31 389.21 744.62 388.65 828.16"/></clipPath><clipPath id="clip-path-4"><polyline class="cls-1" points="389.63 827.1 790.67 829.79 790.74 819.79 389.7 817.11 389.63 827.1"/></clipPath><clipPath id="clip-path-6"><polyline class="cls-1" points="396.18 812.83 783.94 815.42 784.04 800.58 396.28 797.98 396.18 812.83"/></clipPath><clipPath id="clip-path-8"><polyline class="cls-1" points="400.43 787.53 775.29 790.04 775.36 780.33 400.5 777.82 400.43 787.53"/></clipPath><clipPath id="clip-path-10"><polyline class="cls-1" points="388.93 786.38 791.26 789.08 791.82 705.54 389.49 702.84 388.93 786.38"/></clipPath><clipPath id="clip-path-11"><polyline class="cls-1" points="389.91 785.33 790.95 788.02 791.02 778.02 389.98 775.33 389.91 785.33"/></clipPath><clipPath id="clip-path-12"><polyline class="cls-1" points="389.91 785.33 790.95 788.02 791.02 778.02 389.98 775.33 389.91 785.33"/></clipPath><clipPath id="clip-path-13"><polyline class="cls-1" points="396.46 771.05 784.22 773.65 784.32 758.8 396.56 756.21 396.46 771.05"/></clipPath><clipPath id="clip-path-15"><polyline class="cls-1" points="400.71 745.76 775.57 748.27 775.64 738.56 400.78 736.05 400.71 745.76"/></clipPath><clipPath id="clip-path-17"><polyline class="cls-1" points="409.99 729.22 767.67 731.61 767.73 722.25 410.05 719.85 409.99 729.22"/></clipPath><clipPath id="clip-path-19"><polyline class="cls-1" points="415.65 717.95 762.51 720.27 762.57 710.05 415.72 707.73 415.65 717.95"/></clipPath><clipPath id="clip-path-22"><polyline class="cls-1" points="408.24 836.89 723.55 839 723.62 828.29 408.31 826.17 408.24 836.89"/></clipPath><clipPath id="clip-path-23"><polyline class="cls-1" points="229.73 866.68 336.65 867.4 337.01 813.94 230.09 813.22 229.73 866.68"/></clipPath><clipPath id="clip-path-24"><polyline class="cls-1" points="512.23 866.63 619.16 867.35 619.42 827.56 512.5 826.85 512.23 866.63"/></clipPath><clipPath id="clip-path-25"><polyline class="cls-1" points="613.08 867.31 720 868.03 720.27 828.24 613.35 827.52 613.08 867.31"/></clipPath><clipPath id="clip-path-26"><polyline class="cls-1" points="364.12 867.59 370.44 867.63 370.66 834.34 364.34 834.29 364.12 867.59"/></clipPath><clipPath id="clip-path-27"><polyline class="cls-1" points="358.88 857.33 362.19 857.36 363.39 677.46 360.09 677.43 358.88 857.33"/></clipPath></defs><title>szene02_SzeneEinzeln_noWood</title><g id="szene04_resized"><g class="cls-2"><g class="cls-3"><g class="cls-4"><path class="cls-5" d="M388.78,809.63q131.41.57,262.79,3.33,69.75,1.45,139.51,3.54l-1.27,14.35s-122.76-1-197.67-3.15c-44.43-1.3-202.57-1.26-202.57-1.26q-.39-8.4-.79-16.81"/><path class="cls-5" d="M394.61,788.88q114.28-5.73,228.24-1.75c2.46.09,20.09,1.06,43.94,1.9,19.34.68,41.29,1.42,66.66,1.29,11.77-.07,29.22-.35,50.67-1.43q-.43,14.55-.88,29.1s-121.33-1.21-199.57-3.41c-46.41-1.31-186.88.82-186.88.82q-1.1-13.26-2.18-26.52"/><path class="cls-5" d="M399.58,772.76a963.36,963.36,0,0,1,159.7-4.21c33.09,1.94,52.66,6.64,92.25,6.11,31.53-.42,110-2.93,123-3.82l.27,19c-24.56,1.35-61.69,2.93-107.06,2.92-50.46,0-75.82-2-121.88-2.88-34.57-.68-84.29-.83-145.29,1.94q-.49-9.54-1-19.06"/><path class="cls-5" d="M409.28,756.62c13.15,1.29,89.5,3.2,157,5.33,26,.82,97.4,1.19,108.08,1,30.19-.42,80.19-.88,92.65-1.76l-.09,13.17c-23.51,1.33-59.06,2.88-102.49,2.88-47.79,0-75.29-6.31-119.83-7.24-33-.7-77.29,3.5-135.4,5.85l.13-19.27"/><path class="cls-5" d="M414.94,747c20.11.17,50.94.45,88.66.88,81.45.93,105,1.53,144.8,1.39,26.94-.08,66-.52,113.59-2.19l-.66,17.62c-21.51,1.44-56.25,3.22-99.28,2.9-52.86-.4-76.73-3.67-126.72-4.57-27.59-.5-69.08-.39-120.52,3.23l.13-19.26"/><g class="cls-6"><g class="cls-6"><path class="cls-7" d="M790.28,825.58l-.37,4.2h.42l.37-4.2h-.42"/><path class="cls-8" d="M715.64,823l0,5.2,4,0h0l.77.78c36.94.48,65.75.71,69.54.74l.37-4.2Q753,824.2,715.64,823m-98.21-2.67,0,6.92,19.56.43,39.59.26,19.47.11,0,0,15.41.11,0-5.3q-36.32-1.12-72.65-2l-21.39-.52m-98.21-1.9-.05,7.27c30.48.19,58.48.47,73.49.91,6.53.19,13.42.37,20.56.54l0-6.91q-47-1.08-94-1.81M421,817.32l-.05,8.09c24.67,0,60.57.1,94.06.3l0-7.32q-47-.71-94.06-1.07m-31.3-.2.39,8.27h26.7l0-8.11-6.74,0-2.64,0-17.76-.1"/></g></g><g class="cls-9"><g class="cls-9"><path class="cls-7" d="M783.72,802.19q-.19,6.6-.4,13.22h.46c0-1.74,0-3.48.07-5.24q.07-4,.18-8h-.31"/><path class="cls-8" d="M715.78,800.68l-.08,12.87q33.81.86,67.62,1.86.2-6.61.4-13.22c-16.89-.45-40-1-67.94-1.51m-98.21-1.21-.08,11.89q47,.9,94,2.08l.08-12.84c-13.36-.23-27.77-.45-43.1-.64-6-.08-23.3-.27-45.25-.44l-5.7,0M417,799.26l-20.69.18.65,9.22,20,.12.06-9.52M519.35,799l-.07,10.79q33.35.44,66.69,1,13.68.23,27.36.49l.08-11.84-11.31-.08-7.86-.05q-37.53-.25-74.89-.32m-20.73,0q-38.69,0-77.5.26l-.06,9.57q47,.32,94.06.92l.07-10.74H498.62"/></g></g><g class="cls-10"><g class="cls-10"><path class="cls-8" d="M715.87,788.27v.55c8.26,0,17.74-.1,28.63-.2-8.76-.1-18.41-.21-28.62-.35m-98.21-1.69V787c1.86,0,3.67,0,5.77,0,7.64.08,14.57.22,20.66.38,13.57.37,23.54.83,25.38.91,6.47.29,17.44.49,36.19.49h6.05v-.61c-29.84-.4-63.91-.94-94.05-1.64M519.44,785v1.81l19.18,0,11.25,0c10.69,0,19.87.09,38.34.12l25.29,0v-.5c-7.33-.18-14.39-.36-21.08-.56-14.93-.43-42.69-.72-73-.9m-98.22-.33,0,2.69c43.22-.31,73.13-.47,94.07-.54V785c-33.4-.19-69.27-.27-94.06-.3m-20.46,0,.15,2.86h0l16.11-.12,0-2.72-16.3,0"/></g></g></g><g class="cls-11"><path class="cls-5" d="M389.06,767.86q131.42.57,262.79,3.32,69.75,1.47,139.51,3.55l-1.27,14.34s-122.76-1-197.67-3.15c-44.43-1.29-202.57-1.25-202.57-1.25q-.41-8.4-.79-16.81"/><path class="cls-5" d="M394.89,747.1q114.28-5.73,228.23-1.74c2.47.08,20.1,1.06,44,1.9,19.34.67,41.29,1.42,66.66,1.28,11.77-.06,29.22-.34,50.67-1.42q-.43,14.55-.88,29.1S662.19,775,584,772.8c-46.41-1.31-186.88.83-186.88.83q-1.1-13.26-2.18-26.53"/><path class="cls-5" d="M399.86,731a963.36,963.36,0,0,1,159.7-4.21c33.09,1.93,52.66,6.63,92.25,6.11,31.53-.43,110-2.93,123-3.83l.27,19C750.51,749.42,713.38,751,668,751c-50.46,0-75.82-2-121.88-2.88-34.58-.68-84.28-.83-145.29,1.94q-.49-9.54-1-19.06"/><path class="cls-5" d="M409.55,714.85c13.16,1.29,89.51,3.2,157,5.33,26,.82,97.41,1.18,108.09,1,30.19-.42,80.19-.89,92.65-1.76l-.09,13.17c-23.51,1.33-59.06,2.87-102.49,2.87-47.79,0-75.29-6.3-119.83-7.24-33-.69-77.29,3.51-135.4,5.86l.12-19.27"/><path class="cls-5" d="M415.22,705.25c20.11.17,50.94.46,88.66.89,81.45.93,105,1.53,144.81,1.39,26.93-.09,65.94-.53,113.58-2.19L761.61,723c-21.51,1.43-56.25,3.22-99.27,2.89-52.87-.39-76.74-3.66-126.73-4.57-27.59-.5-69.08-.39-120.52,3.24l.13-19.27"/><g class="cls-12"><g class="cls-13"><path class="cls-7" d="M790.56,783.8l-.37,4.21h.42l.37-4.2-.42,0"/><path class="cls-8" d="M715.91,781.26l0,6c39.21.51,70.36.77,74.32.8l.37-4.21q-37.32-1.38-74.65-2.54m-98.2-2.67-.05,6.92c30.1.7,64.17,1.24,94.05,1.64l0-6q-36.32-1.11-72.65-2l-21.39-.52m-98.21-1.9,0,7.27c30.49.18,58.48.47,73.49.91,6.53.19,13.42.37,20.56.54l0-6.92q-47-1.08-94-1.8m-98.22-1.14,0,8.09c24.67,0,60.57.1,94.06.29l.05-7.31q-47-.71-94.06-1.07m-31.3-.2.39,8.27h26.7l.05-8.11-2.57,0-11.91-.08L390,775.35"/></g></g><g class="cls-14"><g class="cls-14"><path class="cls-7" d="M784,760.41q-.21,6.62-.4,13.23h.46c0-1.74,0-3.49.07-5.24q.07-4,.18-8H784"/><path class="cls-8" d="M716.06,758.9,716,771.78q33.81.86,67.62,1.86.2-6.61.4-13.23c-16.89-.44-40-1-67.94-1.51m-98.21-1.2-.08,11.89q47,.9,94.05,2.08l.08-12.84c-13.36-.23-27.77-.46-43.1-.65-6-.07-23.3-.26-45.25-.44l-5.7,0m-200.61-.21-20.69.17h0l.64,9.22,20,.12.06-9.52m102.39-.27L519.56,768q33.35.42,66.69,1,13.68.24,27.36.5l.08-11.84-8.61-.07-13.21-.08q-36.2-.24-72.24-.3m-20.67,0q-38.73,0-77.56.26l-.06,9.58q47,.32,94.06.91l.07-10.73-16.51,0"/></g></g><g class="cls-15"><g class="cls-15"><path class="cls-7" d="M775.48,739.3l-.53,0,.1,7.18h.53c0-2.4-.06-4.79-.1-7.19"/><path class="cls-8" d="M775,739.32c-21.23.69-40.88,1-58.76,1.1l-.05,6.62c15.13,0,34.38-.21,58.91-.54l-.1-7.18m-157-.94-.05,6.85,5.77,0c7.64.09,14.57.23,20.66.39,13.57.36,23.54.82,25.37.91,6.48.28,17.45.49,36.2.49H712l0-6.61H706.5c-17.83,0-33.71-.24-47.39-.56-20-.46-31.33-1-41.13-1.51m-102.39-.09c-13.05.39-26.93.73-45.47.73l-6.9,0c-15.82-.06-29.91-.35-41.69-.69l0,7.3c43.22-.31,73.13-.47,94.07-.54l0-6.78m-114.82-.72h0l.42,8.18h0l16.11-.12.05-7.46c-6.33-.2-11.9-.41-16.6-.61m169.9-.35c-20,0-34.47.45-49.3.9l-1.61,0,0,6.89,19.18,0c4.44,0,8.14,0,11.25,0,10.69,0,19.87.08,38.34.12l25.29,0,.05-7c-10.09-.49-19.69-.87-37.44-.94h-5.71"/></g></g><g class="cls-16"><g class="cls-16"><path class="cls-7" d="M767.73,722.25l-.51,0,0,6.08.49,0,.06-6.08"/><path class="cls-8" d="M618.07,725l0,4.9c15.09.56,31.37,1,51.68,1h4.5c13.5,0,26.17-.16,37.87-.43l0-5.2c-12,.35-25.31.57-39.59.57q-5,0-10.2,0c-3.56,0-7-.06-10.29-.11-12.25-.11-23.36-.37-34-.72m149.15-2.74-5.6.37c0,.11,0,.21,0,.31-11.55.77-26.91,1.64-45.32,2.23l0,5.23c20.34-.51,37.58-1.31,50.92-2.06l0-6.08m-247.35-.85,0,5.36q13.9.12,25.52.42c26.84.63,46.69,1.72,68.52,2.56l0-4.89c-15.85-.55-30.76-1.28-46.91-1.92-13.64-.55-29.4-1.09-47.13-1.53m-15-.34c-23,.12-51.07.86-83.27,3l0,4.57c31.22-1.43,59-1.92,82.86-1.92,3.84,0,7.58,0,11.21,0l0-5.43q-5.3-.14-10.81-.24m-89.78-.65-5.07,0c0,2.9,0,5.82,0,8.72l7.39-.37,0-4.48-2.37.17,0-4.08"/><path class="cls-8" d="M712.13,725c-12.45.39-26,.66-40.46.73-2.44,0-4.82,0-7.17,0q-6.42,0-12.45,0c3.31,0,6.73.09,10.29.11s6.85,0,10.2,0c14.28,0,27.55-.22,39.59-.57V725m49.49-2.39c-12.45.81-27.73,1.65-45.33,2.25v.29c18.41-.59,33.77-1.46,45.32-2.23,0-.1,0-.2,0-.31m-344.13-2.22h-2.37l0,4.08,2.37-.17,0-3.92m18,0-13.8,0,0,3.66c32.2-2.12,60.29-2.86,83.27-3-20.85-.43-44.07-.71-69.45-.71"/></g></g><g class="cls-17"><g class="cls-17"><path class="cls-7" d="M762.57,710.05l-.48,0q-.15,4.3-.32,8.63l.48,0q.16-4.3.32-8.63"/><path class="cls-8" d="M712.22,711.46c-25.09.53-46.38.72-63.06.78H638.25c-6.86,0-13.4,0-20.1-.06l0,5c11.47.69,24,1.33,38.64,1.82,10.26.35,22.3.64,35.92.74l3.26,0q3.91,0,8,0l8.24,0,.05-8.36M519.94,711l0,2.1h2c39.12.07,62.62,2,92,3.86l0-4.83c-22.81-.18-48.36-.59-94-1.13m242.15-1c-16.29.56-31.58,1-45.71,1.3l0,8.42c14-.12,29.16-.45,45.44-1.09q.16-4.32.32-8.63M421.72,710l0,4.06c9.53-.18,22.12-.39,36.83-.56,25.58-.3,46.58-.37,57.24-.38l0-2.15-11.42-.14c-34.14-.39-62.63-.66-82.64-.83m-6,0,0,4.23,1.85,0,0-4.18H415.7"/></g></g></g><g class="cls-2"><path class="cls-18" d="M248.35,676.69v.59a10,10,0,0,0-6.17,5L223,720.46,200.12,766a8,8,0,0,0-.49,1.18h-.38l-.44,66,48.49.33,120.72.81,1.05-156.83-120.72-.8"/><path class="cls-19" d="M719.6,828.26l-4,0L716.53,690l-4.16,0-.93,138.23-94.06-.64.93-138.22-4.16,0-.93,138.23-94.06-.63.93-138.23-4.16,0L515,826.89l-94.06-.63L421.87,688l-4.16,0-.93,138.22-4.89,0-3.61,3.56,0,7.13,90.36.61-.19,29L723.35,868l.2-29,0-6.7-4-4"/><path class="cls-19" d="M374.81,836.67v-2.31L375.49,734l-4.16,0-.67,100.33-171.85-1.16.44-66H197l-.44,66-2.78,0-.22,33.29,176.84,1.19V868l11.65,11.81,101.31.68,10.91-10.77.22-32.23-119.72-.8"/><path class="cls-19" d="M228.5,750.38,323,751l.38-56-68.09-.46-26.83,55.8"/><rect class="cls-19" x="313.91" y="712.01" width="55.98" height="22.29" transform="translate(-383.53 1060.2) rotate(-89.62)"/><rect class="cls-19" x="311.23" y="751.48" width="3.26" height="20.23" transform="translate(-450.82 1069.34) rotate(-89.62)"/><g class="cls-20"><path class="cls-21" d="M411.63,826.45,410.07,828l1.56-1.54h0"/><path class="cls-22" d="M411.89,826.2l-.26.25h0l.26-.25h0"/><path class="cls-23" d="M696,828.1a59,59,0,0,1,11.44,10.8l15.64.1h0a.43.43,0,0,0,.43-.4l0-6.29-4-4L696,828.1m-100.84-.67a58.92,58.92,0,0,1,11.44,10.79l16.28.11a53.43,53.43,0,0,1,10-10.59l43.15.23-80.86-.54m-183.3-1.23-.26.25L410.07,828l-1.79,1.77,0,6.73a.43.43,0,0,0,.43.4l34.24.23,51.62.35,27.54.18a53.71,53.71,0,0,1,10-10.59l42.93.23L411.89,826.2"/><polyline class="cls-23" points="442.91 837.12 494.53 837.47 494.53 837.47 442.91 837.12"/></g><rect class="cls-24" x="188.98" y="815.48" width="30.43" height="5.05" transform="translate(-615.16 1016.72) rotate(-89.62)"/><g class="cls-25"><polyline class="cls-26" points="229.73 866.68 229.73 866.68 282.97 867.04 229.73 866.68"/><path class="cls-27" d="M283.19,813.58a53.48,53.48,0,0,0-41.48,19.89l83.41.56a53.5,53.5,0,0,0-41.57-20.45h-.36"/><path class="cls-28" d="M241.71,833.47a53.06,53.06,0,0,0-12,33.22L283,867l50.86.34.06-10.21h1.84A53.56,53.56,0,0,0,325.12,834l-83.41-.56"/></g><g class="cls-29"><path class="cls-30" d="M575.56,827.29l19.62.14,0,0-19.59-.11"/><path class="cls-26" d="M512.24,866.61v0h0l100.85.68v0l-100.84-.68"/><path class="cls-28" d="M522.07,837.65a52.85,52.85,0,0,0-3,4.67,53.69,53.69,0,0,0-6.86,24.29l100.84.68a54,54,0,0,1,2.4-14,58.28,58.28,0,0,0-5.18-10,56.88,56.88,0,0,0-3.67-5.08l-84.56-.57M575,827.29l20.21.14h0l-19.62-.14H575"/><path class="cls-31" d="M532.05,827.06a53.71,53.71,0,0,0-10,10.59l84.56.57a58.92,58.92,0,0,0-11.44-10.79L575,827.29l-42.93-.23"/></g><g class="cls-32"><path class="cls-33" d="M676.53,828l19.5.13,0,0L676.53,828"/><path class="cls-26" d="M613.08,867.31h0L720,868v0l-100.85-.68v0l-6.08,0"/><path class="cls-28" d="M622.91,838.33a52.47,52.47,0,0,0-7.43,15,59.23,59.23,0,0,1,3.67,14L720,868a59.18,59.18,0,0,0-8.85-24,58.21,58.21,0,0,0-3.68-5.07l-84.56-.57M676.05,828l20,.13h0l-19.5-.13h-.48"/><path class="cls-31" d="M632.9,827.74a53.43,53.43,0,0,0-10,10.59l84.56.57A59,59,0,0,0,696,828.1l-20-.13-43.15-.23"/><path class="cls-34" d="M613.08,867.29v0l6.08,0v0l-6.07,0"/><path class="cls-35" d="M615.48,853.33a54,54,0,0,0-2.4,14l6.07,0a59.23,59.23,0,0,0-3.67-14"/></g><path class="cls-36" d="M328.71,867.35a45.52,45.52,0,1,1-45.22-45.83,45.51,45.51,0,0,1,45.22,45.83"/><path class="cls-37" d="M312.15,867.24A28.05,28.05,0,1,1,284.29,839a28.05,28.05,0,0,1,27.86,28.24"/><path class="cls-36" d="M611.2,869.24A45.52,45.52,0,1,1,566,823.41a45.51,45.51,0,0,1,45.21,45.83"/><path class="cls-37" d="M594.64,869.13a28.05,28.05,0,1,1-27.86-28.24,28,28,0,0,1,27.86,28.24"/><path class="cls-36" d="M711.14,869.91a45.52,45.52,0,1,1-45.22-45.83,45.54,45.54,0,0,1,45.22,45.83"/><path class="cls-37" d="M694.58,869.8a28.05,28.05,0,1,1-27.86-28.24,28.06,28.06,0,0,1,27.86,28.24"/><g class="cls-38"><polyline class="cls-28" points="370.54 834.34 370.31 867.63 370.44 867.63 370.66 834.34 370.54 834.34"/></g><path class="cls-39" d="M381.33,664.26,369,664.17c-3,0-5.48,3.11-5.51,5.93h0v2.56l-1.24,184.69-28.3-.19-.15,22.3,28.3.19,8.19.05,1.37-204.88a2,2,0,0,1,.58-1.49,2.26,2.26,0,0,1,1.58-.6l7.51,0,.06-8.53"/><g class="cls-40"><polyline class="cls-41" points="360.09 677.43 359.04 834.26 362.34 834.28 363.39 677.46 360.09 677.43"/><polyline class="cls-42" points="359.04 834.26 358.88 857.33 362.19 857.36 362.34 834.28 359.04 834.26"/></g></g></g></g><path class="cls-43" d="M881.56,640.5a9.44,9.44,0,0,1-1.17-6.57,9.64,9.64,0,0,1,4.69-6.33,6.69,6.69,0,0,0-3,1.17c-2.76,2-3.81,6.13-2.82,10.56Z"/><path class="cls-43" d="M877.65,638.94c-1.34-1.76-1.93-3.9-1.17-5.32,1.09-2,5.15-3,8.91-.47a4.61,4.61,0,0,0-1.72-2.35c-2-1.36-5.1-.67-6.8,1.17a6.07,6.07,0,0,0-.47,7.28Z"/><path class="cls-44" d="M848.84,714.93l13.53,11L878.75,732l16.08-7.07L908.4,715a3.42,3.42,0,0,0,.86-.67,3.84,3.84,0,0,0,1-2.32c0-33-.09-56.89,0-60a7.79,7.79,0,0,0-.75-3.64,6.79,6.79,0,0,0-2.69-2.81c-13-7.85-31.68-7-31.68-7a65.82,65.82,0,0,0-23.32,6.57,7.14,7.14,0,0,0-2.69,2.19c-2,2.65-1.82,7.14-1.82,7.14.15,4,0,26.37,0,57.41a6.5,6.5,0,0,0,.64,1.74A6,6,0,0,0,848.84,714.93Z"/><path class="cls-45" d="M847.33,677.33h-3.62c-1.25.57-2.88,2-3,6.72s1,6.84,1.94,7.75h4.7Z"/><path class="cls-45" d="M910.29,677.33h3.61c1.25.57,2.88,2,3,6.72s-1,6.84-1.94,7.75h-4.69Z"/><polygon class="cls-44" points="932.15 807.36 935.82 820.35 950.21 816.38 949.98 807.36 932.15 807.36"/><polyline class="cls-44" points="764.67 691.09 757.85 692.21 746.23 695.69 750.08 706.16 761.48 705.51 764.45 706.93 764.67 691.09"/><path class="cls-46" d="M859.72,667.22h10.71a.77.77,0,1,0,0-1.54H859.72a.77.77,0,1,0,0,1.54"/><path class="cls-46" d="M887.08,667.22h10.71a.77.77,0,1,0,0-1.54H887.08a.77.77,0,1,0,0,1.54"/><path class="cls-47" d="M865.07,674.78c-.92,0-3,1.27-2.67,5.06s1.7,4.24,2.67,4.24,2.68-1.56,2.68-4.65S866,674.78,865.07,674.78Z"/><path class="cls-47" d="M892.16,674.78c-.93,0-3,1.27-2.68,5.06s1.7,4.24,2.68,4.24,2.67-1.56,2.67-4.65S893.08,674.78,892.16,674.78Z"/><path class="cls-43" d="M841.52,740.48l-36-.43-41-31.69.22-17.27L808.85,721l29.86-5.58,13.44-.7s11.54,13.79,26.42,13.79,27.14-13.74,27.14-13.74l12.63.76,31.33,51.49,1.88,40.3H929l-1.88-40.77-8.23-26.11,2,57.32H835.75l5.77-57.32"/><polyline class="cls-48" points="920.94 797.8 918.34 715.57 909.05 715.01 905.65 739.54 854.93 739.58 848.41 714.96 838.71 715.46 841.52 740.48 835.75 797.8 835.75 811.16 835.75 825.27 841.7 873.93 841.7 886.15 865.32 886.15 865.32 873.93 873.41 825.27 883.62 825.27 891.58 873.93 891.57 886.15 914.99 886.15 914.99 873.93 920.94 825.27 920.94 811.16"/><polygon class="cls-49" points="826.17 904.32 825.41 912.84 865.32 912.84 865.32 903.55 865.32 873.93 841.7 873.93 841.42 902.03 826.17 904.32"/><polygon class="cls-49" points="930.72 904.32 931.48 912.84 891.58 912.84 891.58 903.55 891.58 873.93 914.99 873.93 915.47 902.03 930.72 904.32"/><rect class="cls-50" x="890.7" y="873.93" width="25.18" height="4.5"/><rect class="cls-50" x="840.94" y="873.93" width="25.18" height="4.5"/><path class="cls-37" d="M878.82,701.57c-3.53-.09-4.87-.28-5,.16s1.69,1.86,3.67,2.34c4.06,1,8.31-1.63,8.14-2.34C885.54,701.35,884.3,701.7,878.82,701.57Z"/></g></svg>