<svg xmlns="http://www.w3.org/2000/svg" xmlns:xlink="http://www.w3.org/1999/xlink" viewBox="0 0 1920 1084.15"><defs><style>.cls-1{fill:none;}.cls-2{clip-path:url(#clip-path);}.cls-3{clip-path:url(#clip-path-2);}.cls-4{fill:#5f4d31;}.cls-5{fill:#32a35f;}.cls-6{clip-path:url(#clip-path-4);}.cls-7{fill:#2f8152;}.cls-8{clip-path:url(#clip-path-5);}.cls-9{fill:#a9a9a9;}.cls-10{fill:#483e2b;}.cls-11{clip-path:url(#clip-path-6);}.cls-12{fill:#969696;}.cls-13{fill:#2e774e;}.cls-14{clip-path:url(#clip-path-7);}.cls-15{fill:#2e6546;}.cls-16{clip-path:url(#clip-path-8);}.cls-17{fill:#423a29;}.cls-18{fill:#353026;}.cls-19{clip-path:url(#clip-path-9);}.cls-20{clip-path:url(#clip-path-10);}.cls-21{fill:#727373;}.cls-22{fill:#2e6446;}.cls-23{clip-path:url(#clip-path-11);}.cls-24{clip-path:url(#clip-path-12);}.cls-25{fill:#65bf7a;}.cls-26{clip-path:url(#clip-path-14);}.cls-27{fill:#007c48;}.cls-28{fill:#02874f;}.cls-29{clip-path:url(#clip-path-15);}.cls-30{clip-path:url(#clip-path-16);}.cls-31{fill:#59916f;}.cls-32{clip-path:url(#clip-path-17);}.cls-33{fill:#006b40;}.cls-34{clip-path:url(#clip-path-18);}.cls-35{fill:#216d48;}.cls-36{clip-path:url(#clip-path-19);}.cls-37{fill:#2b3a25;}.cls-38{fill:#846f64;}.cls-39{fill:#8d8d8d;}.cls-40{fill:#594f49;}.cls-41{fill:#614e31;}.cls-42{fill:#a28d82;}.cls-43{fill:#403828;}.cls-44{fill:#735439;}.cls-45{fill:#465a56;}.cls-46{fill:#753117;}.cls-47{fill:#263633;}.cls-48{fill:#be563c;}.cls-49{fill:#80603e;}.cls-50{fill:#e6a180;}.cls-51{fill:#f8fbf8;}.cls-52{fill:#303f44;}.cls-53{fill:#fffffd;}.cls-54{fill:#d19277;}.cls-55{fill:#8b6438;}.cls-56{fill:#656b69;}.cls-57{fill:#95999b;}.cls-58{fill:#efc150;}.cls-59{clip-path:url(#clip-path-20);}.cls-60{fill:#303f43;}.cls-61{fill:#533617;}.cls-62{fill:#71573a;}.cls-63{fill:#654c36;}.cls-64{fill:#7b5b37;}.cls-65{fill:#c4c4c3;}.cls-66{fill:#9e4d3b;}.cls-67{fill:#755736;}.cls-68{fill:#614d37;}.cls-69{fill:#695035;}.cls-70{fill:#40321c;}.cls-71{fill:#9b925d;}.cls-72{fill:#efd659;}.cls-73{fill:#604631;}.cls-74{fill:#d0df57;}.cls-75{fill:#a9acaf;}.cls-76{clip-path:url(#clip-path-21);}.cls-77{fill:#484848;}.cls-78{clip-path:url(#clip-path-22);}.cls-79{fill:#fff;}.cls-80{fill:#725439;}.cls-81{fill:#f1574a;}.cls-82{fill:#c9c9c9;}.cls-83{fill:#3f4040;}.cls-84{fill:#c94e47;}</style><clipPath id="clip-path"><polyline class="cls-1" points="674.21 386.79 1027.02 386.79 1027.02 914.08 674.21 914.08 674.21 386.79"/></clipPath><clipPath id="clip-path-2"><polyline class="cls-1" points="674.21 914.08 1027.02 914.08 1027.02 386.79 674.21 386.79 674.21 914.08"/></clipPath><clipPath id="clip-path-4"><polyline class="cls-1" points="764.29 686.02 966.43 686.02 966.43 679.47 764.29 679.47 764.29 686.02"/></clipPath><clipPath id="clip-path-5"><polyline class="cls-1" points="847.7 834.8 878.25 834.8 878.25 808.62 847.7 808.62 847.7 834.8"/></clipPath><clipPath id="clip-path-6"><polyline class="cls-1" points="787.52 541.37 863.56 541.37 863.56 386.79 787.52 386.79 787.52 541.37"/></clipPath><clipPath id="clip-path-7"><polyline class="cls-1" points="704.02 808.62 868.08 808.62 868.08 679.47 704.02 679.47 704.02 808.62"/></clipPath><clipPath id="clip-path-8"><polyline class="cls-1" points="847.7 914.08 865.01 914.08 865.01 808.62 847.7 808.62 847.7 914.08"/></clipPath><clipPath id="clip-path-9"><polyline class="cls-1" points="739.91 679.47 863.8 679.47 863.8 541.37 739.91 541.37 739.91 679.47"/></clipPath><clipPath id="clip-path-10"><polyline class="cls-1" points="804.68 547.92 921 547.92 921 541.37 804.68 541.37 804.68 547.92"/></clipPath><clipPath id="clip-path-11"><polyline class="cls-1" points="644.46 496.49 890.27 496.49 890.27 913.94 644.46 913.94 644.46 496.49"/></clipPath><clipPath id="clip-path-12"><polyline class="cls-1" points="644.46 913.94 890.27 913.94 890.27 496.49 644.46 496.49 644.46 913.94"/></clipPath><clipPath id="clip-path-14"><polyline class="cls-1" points="664.64 750.83 870.83 750.83 870.83 745.85 664.64 745.85 664.64 750.83"/></clipPath><clipPath id="clip-path-15"><polyline class="cls-1" points="663.28 795.8 871.38 795.8 871.38 790.65 663.28 790.65 663.28 795.8"/></clipPath><clipPath id="clip-path-16"><polyline class="cls-1" points="644.46 745.85 767.12 745.85 767.12 496.49 644.46 496.49 644.46 745.85"/></clipPath><clipPath id="clip-path-17"><polyline class="cls-1" points="644.46 790.64 767.12 790.64 767.12 745.16 644.46 745.16 644.46 790.64"/></clipPath><clipPath id="clip-path-18"><polyline class="cls-1" points="644.46 833.77 767.12 833.77 767.12 790.57 644.46 790.57 644.46 833.77"/></clipPath><clipPath id="clip-path-19"><polyline class="cls-1" points="753.96 913.94 767.12 913.94 767.12 833.77 753.96 833.77 753.96 913.94"/></clipPath><clipPath id="clip-path-20"><polyline class="cls-1" points="535.6 795.24 551.42 795.24 551.42 808.24 535.6 808.24 535.6 795.24"/></clipPath><clipPath id="clip-path-21"><polyline class="cls-1" points="365.23 788.52 375.17 788.52 375.17 802.44 365.23 802.44 365.23 788.52"/></clipPath><clipPath id="clip-path-22"><polyline class="cls-1" points="325.61 887.39 361.57 887.39 361.57 904.92 325.61 904.92 325.61 887.39"/></clipPath></defs><title>Industrie01</title><g id="szene04_resized"><g class="cls-2"><g class="cls-3"><polyline class="cls-4" points="847.7 914.08 878.1 914.08 878.1 778.07 847.7 778.07 847.7 914.08"/><polyline class="cls-5" points="784.77 644.6 704.02 808.62 865.52 808.62 1027.02 808.62 946.27 644.6 865.52 480.58 784.77 644.6"/><polyline class="cls-5" points="862.79 429.88 924.23 554.68 985.67 679.47 862.79 679.47 739.91 679.47 801.35 554.68 862.79 429.88"/><polyline class="cls-5" points="863.8 386.78 825.75 464.08 787.69 541.37 863.8 541.37 939.91 541.37 901.85 464.08 863.8 386.78"/><g class="cls-2"><g class="cls-6"><path class="cls-7" d="M963.16,679.47H868.08V686h98.35c-1.08-2.18-2.17-4.37-3.27-6.55"/><path class="cls-7" d="M868.08,679.47H857.59l0,.06,10.46-.06"/></g><g class="cls-8"><path class="cls-9" d="M878.25,833.77h-.15v1h.15v-1m0-25.15h-.15v.43l.15.29v-.72"/><path class="cls-10" d="M878.1,833.77H865v1H878.1v-1m0-25.15h-.21l.21.43v-.43"/></g><g class="cls-11"><path class="cls-12" d="M863.56,386.79h0l-38,77.29-37,75.18.09.17,37.09-75.35,37.8-76.78c0-.17,0-.34,0-.52"/><path class="cls-13" d="M863.54,387.3l-37.8,76.78-37.09,75.35,1,1.94,69.28,0q2.32-77,4.66-154"/></g><g class="cls-14"><polyline class="cls-13" points="868.08 686.02 860.81 686.02 868.08 700.77 868.08 686.02"/><path class="cls-15" d="M868.08,679.47h0l-10.46.06,3.19,6.49h7.27v-6.55"/></g><g class="cls-16"><path class="cls-17" d="M865,834.8H847.7v75.46l17.31-.49v-75"/><polyline class="cls-18" points="865.01 833.77 847.7 833.77 847.7 834.8 865.01 834.8 865.01 833.77"/></g><g class="cls-19"><path class="cls-12" d="M807.9,541.37h0L798.75,560h0l2.6-5.28,3.33-6.76h0q1.08-2.19,2.15-4.38l1.07-2.17"/><path class="cls-13" d="M863.79,547.92H804.68l-3.33,6.76-2.6,5.28,30.14,61.21,28.7,58.3h6q.12-65.78.23-131.55m-55.89-6.55h0l-1.07,2.17c.36-.72.72-1.44,1.07-2.17"/><path class="cls-13" d="M863.8,541.37h0"/></g><g class="cls-20"><path class="cls-9" d="M917.84,541.37h-.16l3.22,6.55H921l-3.17-6.55"/><path class="cls-7" d="M917.68,541.37H863.8v6.55H920.9l-3.22-6.55"/><path class="cls-7" d="M917.84,541.37h0"/><path class="cls-21" d="M806.83,543.54q-1.07,2.19-2.15,4.38h0l2.15-4.38"/><path class="cls-22" d="M863.8,541.37H807.9c-.35.73-.71,1.45-1.07,2.17l-2.15,4.38h59.11v-6.55"/><path class="cls-22" d="M863.8,541.37h0"/></g></g></g></g><g class="cls-23"><g class="cls-24"><polyline class="cls-4" points="753.96 913.94 777.07 913.94 777.07 810.54 753.96 810.54 753.96 913.94"/><polyline class="cls-25" points="706.12 709.09 644.74 833.77 767.51 833.77 890.27 833.77 828.89 709.09 767.51 584.4 706.12 709.09"/><polyline class="cls-25" points="706.12 665.96 644.74 790.64 767.51 790.64 890.27 790.64 828.89 665.96 767.51 541.28 706.12 665.96"/><polyline class="cls-25" points="767.51 496.49 706.12 621.17 644.74 745.85 767.51 745.85 890.27 745.85 828.89 621.17 767.51 496.49"/><g class="cls-23"><g class="cls-26"><path class="cls-27" d="M868.84,747.11l1.83,3.72h.15l-2-3.72"/><path class="cls-28" d="M868.17,745.85h-101v5H870.67l-1.83-3.72-.67-1.26"/></g><g class="cls-29"><path class="cls-28" d="M868.7,790.65H767.12v5.15H871.38l-2.68-5.15"/></g><g class="cls-30"><polyline class="cls-31" points="767.12 496.49 767.12 496.49 705.79 621.17 644.46 745.85 644.74 745.85 706.12 621.17 767.12 497.27 767.12 496.49"/><path class="cls-28" d="M767.12,497.27l-61,123.9L644.74,745.85h21.48c.09-.17.17-.34.25-.51l100.65-.18h0V497.27"/></g><g class="cls-32"><path class="cls-31" d="M666.79,745.85h-.57q-10.87,22.39-21.76,44.79h.28l22-44.79"/><path class="cls-28" d="M667.37,745.85h-.58l-22,44.79h21l0-.07,101.34,0V750.83H664.64l2.73-5"/><path class="cls-33" d="M767.12,745.85H667.37l-2.73,5H767.12v-5"/><path class="cls-33" d="M767.12,745.16h0l-100.65.18c-.08.17-.16.34-.25.51h100.9v-.69"/></g><g class="cls-34"><path class="cls-31" d="M666,790.64h-.23q-10.63,21.57-21.28,43.13h.28l18.69-38h-.15l1.89-3.53.8-1.63"/><path class="cls-28" d="M767.12,795.8H663.43l-18.69,38H767.12v-38m0-5.16H666l-.8,1.63c.29-.54.58-1.08.86-1.62H767.12"/><polyline class="cls-28" points="767.12 790.62 767.12 790.64 665.75 790.64 665.74 790.64 665.97 790.64 767.12 790.64 767.12 790.62 767.12 790.62"/><path class="cls-35" d="M665.17,792.27l-1.89,3.53h.15l1.74-3.53"/><path class="cls-33" d="M767.12,790.65H666c-.28.54-.57,1.08-.86,1.62l-1.74,3.53H767.12v-5.15"/><path class="cls-33" d="M665.78,790.57l0,.07H767.12v0l-101.34,0"/></g><g class="cls-36"><polyline class="cls-37" points="767.12 833.77 753.96 833.77 753.96 875.63 767.12 874.25 767.12 833.77"/></g></g></g></g><path class="cls-38" d="M149.76,1048.57q287.82-.67,575.53,3.43,152.78,2.19,305.56,5.71l-2.57,31.44s-268.85-.31-432.9-4c-97.33-2.18-443.63.24-443.63.24q-1-18.41-2-36.82"/><path class="cls-38" d="M162.24,1003Q412.42,988.82,662,995.87c5.39.16,44,2,96.27,3.52,42.36,1.19,90.44,2.51,146,1.84,25.77-.32,64-1.19,111-3.87l-1.5,63.73s-265.72-.85-437.08-4.54c-101.66-2.19-409.23,4.54-409.23,4.54l-5.16-58"/><path class="cls-38" d="M172.88,967.67c147.25-16.79,266.2-15.87,349.66-11.55,72.49,3.75,115.41,13.76,202.11,12,69-1.39,240.8-8,269.28-10.17l.86,41.6c-53.77,3.33-135,7.32-234.4,8-110.51.73-166.06-3.22-266.95-4.52-75.72-1-184.58-.57-318.13,6.38l-2.43-41.73"/><path class="cls-38" d="M193.88,932.2c28.83,2.62,196.06,5.69,343.77,9.36,57,1.41,213.32,1.17,236.71.69,66.1-1.36,175.6-3.11,202.86-5.2v28.84c-51.47,3.25-129.29,7.15-224.39,7.79-104.66.7-165-12.71-262.52-14.1-72.36-1-169.2,8.81-296.43,14.81V932.2"/><path class="cls-38" d="M206.15,911.1c44,.08,111.54.25,194.16.64,178.37.85,230,1.8,317.12.93,59-.6,144.41-2.13,248.7-6.48q-.58,19.3-1.18,38.6c-47.1,3.46-123.14,7.87-217.36,7.8-115.76-.1-168.09-6.9-277.58-8.15-60.42-.69-151.27.16-263.86,8.85V911.1"/><path class="cls-39" d="M1029.22,1077.61l-.75,9.22h.93l.75-9.2-.93,0"/><path class="cls-40" d="M193.1,1064.93q-20.59,0-41.2,0,.48,9.06,1,18.1s164.23-1.14,298.28-1.14c60.6,0,115.05.23,145.35.91,158.43,3.56,414.61,4,432,4l.75-9.22q-165.85-5-331.74-8.07-252.14-4.61-504.38-4.61"/><path class="cls-39" d="M1014.52,1026.48q-.35,14.49-.68,29l1,0q0-5.71.09-11.48.09-8.81.27-17.49l-.68,0"/><path class="cls-40" d="M607.82,1023c-147.58,0-293.83.81-441.79,3.2l1.54,20.19,50.33,0q181.85,0,363.7,1.9,216.15,2.26,432.24,7.24.35-14.49.68-29c-56.21-1.11-143.78-2.57-252.3-3.19-13.22-.08-51-.24-99.09-.3q-27.71,0-55.31,0"/><path class="cls-39" d="M995.56,980.37l-1.17,0,.33,15.73,1.17,0-.33-15.75"/><path class="cls-40" d="M566.76,978.75h-7.23c-101.23.25-138.74,5.29-247.78,5.54H303c-54.37,0-98.79-1.2-128-2.23q.53,9,1,17.93c199.54-2.84,285.67-3.63,326.18-3.75,23.41-.08,43.5-.1,84-.28,40.28-.19,53.43-.32,67.13-.32,3.18,0,6.39,0,10,0,16.73.07,31.91.28,45.26.55,29.72.59,51.56,1.45,55.58,1.6,10.47.4,26.3.66,50.4.66,37.06,0,93.66-.62,180.22-2.34l-.33-15.73C926.66,983.09,866.18,984,814.45,984c-27,0-51.68-.24-73.71-.61-93.72-1.56-100-4.63-174-4.63"/><path class="cls-39" d="M978.35,943.14l-1.13.08v13.3l1.08-.07q0-6.65.05-13.31"/><path class="cls-40" d="M977.22,943.22q-5.9.45-12.25.9l0,.67c-46.69,3.43-121.84,7.8-214.94,7.8h-2.42c-7.87,0-15.44-.05-22.76-.11-70.69-.16-124.22-2.78-186.06-4.84-38-1.26-83.56-2.46-135.94-3.18-53.71.64-120.17,2.92-196.68,8.83v-8.93l-11.12.15q.06,9.56.11,19.11c90.51-5.32,169-6.9,232.38-6.9,23.41,0,44.77.22,63.91.54,98.24,1.66,153.74,6.39,258.12,6.39l14.29,0c90-.36,163.93-4,213.38-7.1v-13.3"/><path class="cls-40" d="M965,944.12c-48.28,3.46-116,7.22-197,8.15-12.66.15-24.74.22-36.36.22h-6.83c7.32.06,14.89.1,22.76.11H750c93.1,0,168.25-4.37,214.94-7.8l0-.67m-663.52-.36q-45.29,0-95.3.6v8.93c76.51-5.91,143-8.19,196.68-8.83q-47.08-.66-101.38-.7"/><path class="cls-39" d="M966.86,916.5l-1.05,0-.57,18.91,1-.05.57-18.91"/><path class="cls-40" d="M965.81,916.55c-103.61,4.3-188.51,5.82-247.26,6.41-24.53.24-46.23.35-68.73.35-57.53,0-120.25-.67-248.39-1.28-82.62-.39-150.13-.56-194.16-.64v9.26c21.71-.57,54.26-1.37,93.82-2.11,70.72-1.31,125.48-1.69,138.84-1.76l12.67,0c113.52,0,166.61,8,282.69,11,23.36.62,50.94,1.09,82.25,1.09,42.69,0,92.33-.87,147.7-3.43l.57-18.91"/><path class="cls-41" d="M662.84,885.14c-10,6.64-12.13,15.67-11.05,19.24s6.63,9.87,14.71,9.53,130.58-2,130.58-2-6,3.12-13.33-7.15-11.9-23.77-2.9-31.92l-118,12.32"/><path class="cls-38" d="M797.08,911.89s-6,3.12-13.33-7.15-11.9-23.77-2.9-31.92c0,0,3.89-3.89,14.6-.6s23.1,9.63,23.61,14.58-.29,15.55-7.84,21.16-14.14,3.93-14.14,3.93"/><path class="cls-42" d="M788.35,872.35v1.55a23.47,23.47,0,0,1,6.8,1.16c10.78,3.31,20.52,9,20.85,12.23.48,4.58-.39,13.58-6.66,18.24a16.58,16.58,0,0,1-9.92,3.57,9.15,9.15,0,0,1-1.91-.17l-.55-.16-.52.27a3.57,3.57,0,0,1-1.47.26c-1.65,0-5-.84-9-6.41-3.07-4.32-12.35-19.06-2.92-27.6l0,0,0,0s1.5-1.33,5.21-1.33v-1.55m0,0c-4.52,0-6.3,1.79-6.3,1.79-8.36,7.57-4.09,20.11,2.7,29.65,4.22,5.93,8,7.06,10.22,7.06a4.93,4.93,0,0,0,2.15-.42,10.21,10.21,0,0,0,2.3.22,18.17,18.17,0,0,0,10.84-3.87c7-5.21,7.76-15,7.28-19.65s-12-10.49-21.93-13.55a24.81,24.81,0,0,0-7.26-1.23"/><path class="cls-42" d="M790.72,878.71h0a17.32,17.32,0,0,1,5,.85c8.5,2.61,15.09,6.8,15.3,8.79.34,3.35-.28,9.9-4.83,13.28a12,12,0,0,1-7.17,2.58,6.82,6.82,0,0,1-1.33-.11l-.52-.17-.54.28a2.66,2.66,0,0,1-.94.15c-1.15,0-3.51-.6-6.37-4.62-2.24-3.16-9-13.94-2.21-20.12a5.72,5.72,0,0,1,3.64-.91m0-1.55c-3.37,0-4.71,1.34-4.71,1.34-6.24,5.65-3,15,2,22.14,3.15,4.43,6,5.27,7.63,5.27a3.8,3.8,0,0,0,1.62-.31,7.65,7.65,0,0,0,1.71.16,13.54,13.54,0,0,0,8.1-2.89c5.23-3.89,5.79-11.24,5.44-14.68s-9-7.83-16.39-10.11A18.49,18.49,0,0,0,790.72,877.16Z"/><path class="cls-42" d="M792.73,882.78h0a11.76,11.76,0,0,1,3.41.58c6.2,1.91,10.49,4.81,10.6,5.9.24,2.29-.18,6.77-3.26,9.06a8.09,8.09,0,0,1-4.86,1.76,4.59,4.59,0,0,1-.84-.07l-.53-.22-.53.33a1.57,1.57,0,0,1-.47.07c-.73,0-2.26-.41-4.18-3.11-1.55-2.18-6.24-9.61-1.66-13.75l0,0,.05-.06a4,4,0,0,1,2.29-.52m0-1.55a4.86,4.86,0,0,0-3.36.95c-4.45,4-2.18,10.71,1.44,15.79,2.25,3.17,4.25,3.76,5.44,3.76a2.67,2.67,0,0,0,1.15-.22,5.31,5.31,0,0,0,1.22.12,9.65,9.65,0,0,0,5.78-2.06c3.74-2.78,4.14-8,3.88-10.47s-6.39-5.59-11.69-7.22A13.3,13.3,0,0,0,792.73,881.23Z"/><path class="cls-43" d="M780.85,872.82l-13.73,1.43L754,875.63l-91.12,9.51c-8.48,5.62-11.3,13-11.3,17.26a7.07,7.07,0,0,0,.25,2c1.06,3.48,6.35,9.55,14.1,9.55l.61,0c7.12-.29,103.24-1.64,125.84-1.95-2.32-.72-5.33-2.63-8.59-7.22-4.42-6.22-7.85-13.62-7.87-20.3h0a15,15,0,0,1,5-11.62"/><path class="cls-40" d="M797.08,911.89l-4.74.07a8.29,8.29,0,0,0,2.42.38,5.39,5.39,0,0,0,2.32-.45m-21.2-27.45h0c0,6.68,3.45,14.08,7.87,20.3,3.26,4.59,6.27,6.5,8.59,7.22h0c-2.32-.72-5.33-2.63-8.59-7.22-4.42-6.22-7.85-13.62-7.87-20.3"/><polygon class="cls-44" points="490.69 908.21 490.69 914.44 529.65 914.44 529.65 898.47 505.11 898.47 504.72 904.7 490.69 908.21"/><polygon class="cls-44" points="595.8 908.21 595.8 914.44 556.85 914.44 556.85 898.47 581.39 898.47 581.78 904.7 595.8 908.21"/><rect class="cls-45" x="502.38" y="886.78" width="30.1" height="11.69"/><rect class="cls-45" x="554.36" y="886.78" width="30.1" height="11.69"/><polyline class="cls-46" points="499.01 795.24 499.01 809.09 587.28 809.09 587.28 795.24 499.01 795.24"/><polyline class="cls-47" points="505.18 823.71 505.18 886.78 529.65 886.78 529.65 823.71 556.85 823.71 556.85 886.78 581.12 886.78 581.12 823.71 587.28 823.71 587.28 809.09 572.25 809.09 572.28 795.24 568.02 795.24 568.08 809.09 517.72 809.09 517.71 795.24 513.71 795.24 513.77 809.09 499.01 809.09 499.01 823.71 505.18 823.71"/><polyline class="cls-48" points="501.35 695.39 543.38 723.5 584.46 695.39 584.46 706.08 631.71 763.23 612.57 805.15 587.28 790.61 602.88 759.6 585.19 735.85 543.38 735.85 504.99 735.85 491.42 778.25 467.68 787.46 448.05 729.8 478.34 723.26 481.73 739.25 499.01 710.17 502.08 709.93 501.35 695.39"/><polyline class="cls-49" points="492.63 795.24 586.07 795.24 587.28 790.61 591.88 781.48 587.28 704.6 543.38 727.62 499.01 704.6 492.63 795.24"/><path class="cls-44" d="M505.11,735.85h24.28s4.29,25.69-11.27,25.69-13-25.69-13-25.69"/><path class="cls-44" d="M556.72,735.85H581s4.29,25.69-11.27,25.69S556.72,735.85,556.72,735.85Z"/><path class="cls-50" d="M505.72,698.31l37.66,25.19,38-26V606.09s-20.25,7.72-35.87,8.6-33.76.62-39.83-1.4Z"/><polygon class="cls-51" points="526.88 712.46 559.5 712.46 543.38 723.5 526.88 712.46"/><path class="cls-52" d="M505.72,650.33c-1.36,2.48-9.33,17.61-3,33.52,9.06,22.79,38.14,23.84,39.95,23.88,13.61.27,36.87-4.63,41.86-23.7,1.31-5,3.73-21.59-3.1-33.7L571.7,663c-6.28-6-11.62-7.47-15.4-7.73-5.1-.34-13.11,1.23-13.11,1.23a28.91,28.91,0,0,0-27.84,5.27Z"/><path class="cls-53" d="M535.51,667.18a10.24,10.24,0,0,0,4.82-2.67,10,10,0,0,0,2-2.77H544a14.87,14.87,0,0,0,7.27,5.44,21.55,21.55,0,0,1-15.8,0Z"/><path class="cls-54" d="M505.72,637h-7.49c-2.6.59-6,2.07-6.26,7s2,7.08,4,8h9.74Z"/><path class="cls-54" d="M581.42,637h7.49c2.6.59,6,2.07,6.26,7s-2,7.08-4,8h-9.74Z"/><path class="cls-52" d="M505.72,613.29a25.73,25.73,0,0,0,5.37,1.36C560,619.91,591.43,603,594.5,600.1c.63-.59,2.25-1.94,2-3.13-.13-.64-.94-1.15-2.25-1.52-3.32-1-6.06-.78-14.95-1.22,0,0,7-2,8.15-4.84s-16.59-7.26-40.26-6.25-38.12,6.9-42,12.27a22,22,0,0,0-4,12.63c-.18,2.18-4.43,5.14-4.25,12.4s1.3,16.52,1.3,16.52h7.49Z"/><polyline class="cls-55" points="436.74 716.91 501.53 698.86 501.89 706.09 499.01 704.6 498.51 711.74 439.75 727.98 436.74 716.91"/><polygon class="cls-50" points="449.58 729.47 449.58 725.26 456 723.49 449.39 713.39 446.49 714.2 446.49 708.73 475.12 701.51 479.69 719.08 475.24 719.56 474.94 723.99 449.58 729.47"/><path class="cls-55" d="M585.62,677.68a32,32,0,0,1-.94,5.67,32.45,32.45,0,0,1-2.32,6.24L633.5,676l-3.07-11.24Z"/><path class="cls-56" d="M624.65,662.34l-27.39,7.44,6.85,22.07s2.54,7.79.24,13.69a52.93,52.93,0,0,1-7.09,11.81c1.2.9,14.59,10.69,30.79,5.33,13.47-4.45,19-16.12,19.85-18.08,0,0-7,.53-12.16-7.08s-4.48-7.5-5.78-10.86Z"/><path class="cls-57" d="M643.49,703.82a11.66,11.66,0,0,0,4.41.78c-.88,2-6.38,13.63-19.85,18.08-16.2,5.36-29.59-4.43-30.79-5.33,0,0,.7-.86,1.69-2.26a37,37,0,0,0,17.86,3.23,38.09,38.09,0,0,0,21.55-9A36.37,36.37,0,0,0,643.49,703.82Z"/><polygon class="cls-50" points="587.28 790.61 582.04 810.6 603.87 816.27 610.55 803.99 587.28 790.61"/><polyline class="cls-58" points="557.68 795.24 551.42 795.24 551.42 799.75 544.93 799.74 544.93 803.52 551.42 803.52 551.42 808.24 535.6 808.24 535.6 795.24 529.46 795.24 529.46 809.09 557.68 809.09 557.68 795.24"/><polyline class="cls-58" points="557.68 809.09 529.46 809.09 529.46 813.55 557.68 813.55 557.68 809.09"/><polyline class="cls-58" points="557.68 789.71 529.46 789.71 529.46 795.24 535.6 795.24 551.42 795.24 557.68 795.24 557.68 789.71"/><g class="cls-59"><polyline class="cls-46" points="551.42 795.24 535.6 795.24 535.6 808.24 551.42 808.24 551.42 803.52 544.93 803.52 544.93 799.74 551.42 799.75 551.42 795.24"/></g><path class="cls-60" d="M523.85,626.46h11.09a.78.78,0,1,0,0-1.55H523.85a.78.78,0,1,0,0,1.55"/><path class="cls-60" d="M552.2,626.46h11.09a.78.78,0,1,0,0-1.55H552.2a.78.78,0,1,0,0,1.55"/><path class="cls-61" d="M529.39,634.32c-.95,0-3.08,1.31-2.77,5.24s1.77,4.39,2.77,4.39,2.78-1.61,2.78-4.81S530.35,634.32,529.39,634.32Z"/><path class="cls-61" d="M557.46,634.32c-1,0-3.09,1.31-2.78,5.24s1.77,4.39,2.78,4.39,2.77-1.61,2.77-4.81S558.41,634.32,557.46,634.32Z"/><path class="cls-62" d="M518.12,761.54c-15.56,0-13-25.69-13-25.69h24.28s4.29,25.69-11.27,25.69M499,704.6h0l-.5,7.14-4,56.88h0l-1.87,26.62h36.83v-5.53h13.92V727.62l-41.49-21.53L499,704.6"/><path class="cls-63" d="M529.39,735.85H505.11s-2.55,25.69,13,25.69,11.27-25.69,11.27-25.69"/><polyline class="cls-64" points="499.01 704.6 498.56 710.92 498.56 710.92 498.51 711.74 498.51 711.74 499.01 704.6"/><polyline class="cls-65" points="494.5 768.62 491.42 778.25 494.5 768.62 494.5 768.62"/><polyline class="cls-66" points="498.51 711.74 497.99 711.88 481.73 739.25 491.42 778.25 494.5 768.62 498.5 711.74"/><polyline class="cls-67" points="498.56 710.92 497.99 711.88 498.51 711.74 498.56 710.92"/><polyline class="cls-68" points="498.51 711.74 498.51 711.74 494.5 768.62 494.5 768.62 498.51 711.74"/><polyline class="cls-69" points="498.56 710.92 498.56 710.92 498.5 711.74 498.51 711.74 498.56 710.92"/><polyline class="cls-46" points="323.76 788.28 323.76 802.77 416.17 802.77 416.17 788.28 323.76 788.28"/><polyline class="cls-70" points="330.22 818.08 330.22 884.11 355.84 884.11 355.84 818.08 384.31 818.08 384.31 884.11 409.71 884.11 409.71 818.08 416.17 818.08 416.17 802.77 400.43 802.77 400.46 788.28 396 788.28 396.06 802.77 343.35 802.77 343.34 788.28 339.16 788.28 339.22 802.77 323.76 802.77 323.76 818.08 330.22 818.08"/><polyline class="cls-44" points="313.38 903.81 312.55 913.05 355.84 913.05 355.84 902.98 355.84 870.86 330.22 870.86 329.92 901.33 313.38 903.81"/><polygon class="cls-44" points="426.77 903.81 427.6 913.05 384.32 913.05 384.32 902.98 384.32 870.86 409.71 870.86 410.23 901.33 426.77 903.81"/><polyline class="cls-71" points="330.02 726.12 317.21 754.44 315.18 798.66 290.75 798.66 292.78 754.95 326.98 698.98 347.39 697.92 370.21 713.19 392.61 697.86 413.34 699.1 447.32 754.95 449.36 798.66 424.93 798.66 422.9 754.44 413.97 726.12 416.17 788.28 323.76 788.28 330.02 726.12"/><path class="cls-50" d="M330.79,698.79l39.42,14.4L410,698.9V627.33s-21.2,8.09-37.55,9-35.33.64-41.69-1.47Z"/><path class="cls-54" d="M330.79,659.65H323c-2.72.62-6.24,2.16-6.55,7.29s2.1,7.41,4.2,8.4h10.19Z"/><path class="cls-54" d="M410,659.65h7.84c2.72.62,6.24,2.16,6.55,7.29s-2.1,7.41-4.2,8.4H410Z"/><path class="cls-72" d="M330.79,634.87c1.24.35,3.2.87,5.62,1.43,25.52,5.79,67,6,78.15-14.27,4.49-8.15,4.21-19.9-.68-23.24-4.26-2.91-11.94.58-14.76,1.86-8.37,3.81-8.39,7.55-13.74,9.67-10.14,4-16.2-7.5-32.24-7.93-1.38,0-17.9-.25-26.33,10.69-5.95,7.71-5.6,18-5.22,29.27.21,6.18,1.36,17.3,1.36,17.3h7.84Z"/><polygon class="cls-50" points="428.32 798.66 432.3 812.75 447.9 808.44 447.66 798.66 428.32 798.66"/><polygon class="cls-50" points="312.56 798.66 308.57 812.75 292.97 808.44 293.22 798.66 312.56 798.66"/><path class="cls-60" d="M349.76,648.62h11.62a.78.78,0,0,0,0-1.55H349.76a.78.78,0,0,0,0,1.55"/><path class="cls-60" d="M379.44,648.62h11.62a.78.78,0,0,0,0-1.55H379.44a.78.78,0,1,0,0,1.55"/><path class="cls-61" d="M355.57,656.88c-1,0-3.23,1.37-2.9,5.49s1.85,4.6,2.9,4.6,2.9-1.7,2.9-5.05S356.57,656.88,355.57,656.88Z"/><path class="cls-61" d="M384.94,656.88c-1,0-3.22,1.37-2.9,5.49s1.85,4.6,2.9,4.6,2.91-1.7,2.91-5.05S386,656.88,384.94,656.88Z"/><polyline class="cls-73" points="329.39 870.86 356.71 870.86 356.71 875.73 329.39 875.73 329.39 870.86"/><rect class="cls-73" x="383.36" y="870.86" width="27.31" height="4.88"/><polyline class="cls-74" points="413.34 699.1 392.61 697.86 370.21 713.19 347.39 697.92 326.98 698.98 330.02 726.12 323.76 788.28 416.17 788.28 413.34 699.1"/><polygon class="cls-75" points="326.92 757.93 364.68 757.93 364.68 762.41 326.46 762.41 326.92 757.93"/><polygon class="cls-75" points="325.88 767.27 364.68 767.27 364.68 771.83 325.42 771.83 325.88 767.27"/><polygon class="cls-75" points="415.1 757.93 376.35 757.93 376.35 762.41 415.35 762.41 415.1 757.93"/><polygon class="cls-75" points="415.5 767.27 376.35 767.27 376.35 771.83 415.65 771.83 415.5 767.27"/><path class="cls-58" d="M370.21,788.52h0c2.56,0,4.67,2.71,4.94,6.19l-3.61.06V796h3.63c-.2,3.59-2.35,6.42-5,6.42s-5-3.12-5-7,2.23-7,5-7m5.31-.23H364.89a13.44,13.44,0,0,0,.08,14.49h10.48a13.47,13.47,0,0,0,.07-14.49"/><path class="cls-58" d="M375.45,802.78H365a6,6,0,0,0,10.48,0"/><path class="cls-58" d="M370.21,785.13a6.59,6.59,0,0,0-5.32,3.16h10.63a6.57,6.57,0,0,0-5.31-3.16"/><g class="cls-76"><path class="cls-46" d="M370.21,788.52h0c-2.75,0-5,3.11-5,7s2.23,7,5,7,4.76-2.83,5-6.42h-3.63v-1.25l3.61-.06c-.27-3.48-2.38-6.19-4.94-6.19"/></g><path class="cls-60" d="M376.78,687.68c-1.34-1-2.07-2.37-4.08-2.88-.42-.11-2.14-.55-3.12.26-1-.81-2.7-.37-3.13-.26-2,.51-2.74,1.87-4.08,2.88s-3.5,1.89-7.46,1.36a38.8,38.8,0,0,0,6.28,1.86c3.93.81,6,1.2,7.46,0a4.29,4.29,0,0,0,.93-1.09,4.07,4.07,0,0,0,.92,1.09c1.48,1.2,3.53.81,7.46,0a38.8,38.8,0,0,0,6.28-1.86C380.28,689.57,378.07,688.66,376.78,687.68Z"/><path class="cls-77" d="M206.66,871.84a8,8,0,0,0-3.76.62,8.67,8.67,0,0,0-1.77,1.1,13.3,13.3,0,0,0-2.95,2.92,12.14,12.14,0,0,0-1,12.25,8.61,8.61,0,0,0,2.64,3.16,9.39,9.39,0,0,0,2.76,1.28c2.71.71,31,1.61,69.56,2.3q1.5-10.15,3-20.3c-38.19-1.88-66-3.2-68.46-3.33"/><path class="cls-77" d="M355.84,885.72v7.87c1.32.53,2.8,1.11,4.41,1.73a1.82,1.82,0,0,1,.55.27,1.91,1.91,0,0,1,.49.62,4.22,4.22,0,0,1,.28,1.71v.36c0,.31,0,.62,0,.91a7.3,7.3,0,0,1-.42,3,2.29,2.29,0,0,1-.39.46,2,2,0,0,1-.7.35,40.28,40.28,0,0,1-4.2.47v7.48l4.18-.22a10.2,10.2,0,0,0,1.87-.35,9.42,9.42,0,0,0,5.46-3.66,7.65,7.65,0,0,0,1-2.32q0-5.83-.05-11.67a3.92,3.92,0,0,0-.53-1.22c-.46-.71-1.06-1.11-3.26-2.24-.52-.27-1.18-.61-2-1l-6.74-2.53m-29.92-1.62a6.47,6.47,0,0,0-1.67.21,8.24,8.24,0,0,0-4.3,3c-1.06,1.54-1.14,3.09-1.2,5.52-.07,2.75-.09,5.42-.09,7.73,0,.88,0,1.7,0,2.46l8.31-1.25a8.46,8.46,0,0,1-.79-1.77c-.32-.94-1.38-4.52.53-7.64a9.77,9.77,0,0,1,2.76-2.79l.56-.41,0-5a4.06,4.06,0,0,1-1.3.21,9.32,9.32,0,0,1-1.37-.13,11.54,11.54,0,0,0-1.5-.12"/><path class="cls-77" d="M327,901.77,318.67,903c0,1.74,0,3.13,0,4v1.33c0,1.19,0,2.73-.08,4.51h0l37.21-1.92v-7.48c-7.64.63-22.73,1.46-22.73,1.46l-.44,0a6.79,6.79,0,0,1-1.74-.23,6.61,6.61,0,0,1-3.95-2.92m5.47-25.15.54,1.86a4.66,4.66,0,0,1,.17,1.28c0,.12,0,.25,0,.38a4.72,4.72,0,0,1-.46,1.8,4.42,4.42,0,0,1-1.92,1.89,4.51,4.51,0,0,1-.68.31l0,5a10.64,10.64,0,0,1,2.61-1.35,8.91,8.91,0,0,1,3-.42c.59,0,1.27,0,2.07.12a29.68,29.68,0,0,1,6.76,1.58c2.72.9,4.44,1.66,6.82,2.65,1.19.5,2.71,1.13,4.52,1.85v-7.87c-12.43-4.67-17.82-6.76-19.65-7.53l-3.74-1.57"/><g class="cls-78"><path class="cls-79" d="M355.84,893.59v9.85A40.28,40.28,0,0,0,360,903a2,2,0,0,0,.7-.35,2.29,2.29,0,0,0,.39-.46,7.3,7.3,0,0,0,.42-3c0-.29,0-.6,0-.91v-.36a4.22,4.22,0,0,0-.28-1.71,1.91,1.91,0,0,0-.49-.62,1.82,1.82,0,0,0-.55-.27c-1.61-.62-3.09-1.2-4.41-1.73M330,889.16l-.56.41a9.77,9.77,0,0,0-2.76,2.79c-1.91,3.12-.85,6.7-.53,7.64a8.46,8.46,0,0,0,.79,1.77l2.94-.44.12-12.17"/><path class="cls-80" d="M335.67,887.39a8.91,8.91,0,0,0-3,.42,10.64,10.64,0,0,0-2.61,1.35l-.12,12.17-2.94.44a6.61,6.61,0,0,0,3.95,2.92,6.79,6.79,0,0,0,1.74.23l.44,0s15.09-.83,22.73-1.46v-9.85c-1.81-.72-3.33-1.35-4.52-1.85-2.38-1-4.1-1.75-6.82-2.65a29.68,29.68,0,0,0-6.76-1.58c-.8-.08-1.48-.12-2.07-.12"/></g><path class="cls-81" d="M271.45,910.48a37.65,37.65,0,0,1-3.87-9.2,39.49,39.49,0,0,1-1.26-8.13,157.8,157.8,0,0,1,1-24.93l3.75-4.75,17.42.07,4.88-5.31,13.61.11,22.78,9q1.63,5.57,3.25,11.11a5.09,5.09,0,0,1,.16,1.66,4.72,4.72,0,0,1-.46,1.8,4.42,4.42,0,0,1-1.92,1.89,4.76,4.76,0,0,1-3.35.39,7.65,7.65,0,0,0-3.17.09,8.24,8.24,0,0,0-4.3,3c-1.06,1.54-1.14,3.09-1.2,5.52-.15,6.17-.07,12,0,14.17,0,1.27,0,3.31-.08,5.84a96.16,96.16,0,0,1-47.18-2.36"/><path class="cls-82" d="M267.79,902a37.45,37.45,0,0,0,3.66,8.45,37.76,37.76,0,0,1-3.66-8.45m-.05-.17a1.09,1.09,0,0,1,.05.17,1.09,1.09,0,0,0-.05-.17m-.05-.18c0,.05,0,.1.05.16s0-.11-.05-.16m-.05-.18s0,.1.05.15l-.05-.15m-.06-.22a1.21,1.21,0,0,1,.05.18,1.21,1.21,0,0,0-.05-.18m-.06-.23,0,.09,0-.09m-1-5.69a36.44,36.44,0,0,0,1,5.64,36.78,36.78,0,0,1-1-5.64h0"/><path class="cls-83" d="M266.32,893.15c0,.69.09,1.43.17,2.21h0c-.07-.73-.13-1.47-.18-2.21"/><path class="cls-83" d="M318.66,900.56c0,.88,0,1.7,0,2.46h0c0-.76,0-1.58,0-2.46"/><path class="cls-83" d="M318.67,903h0c0,1.74,0,3.13,0,4v0c0-.85,0-2.24,0-4"/><path class="cls-84" d="M329.74,867.37c-1.93,4.63-8.3,18.19-22.88,24.92a49.19,49.19,0,0,1-19.69,4.13l-1.64,0a58,58,0,0,1-19.21-3.3h0c.05.74.11,1.48.18,2.21a36.78,36.78,0,0,0,1,5.64v0l0,.09,0,.14h0a1.21,1.21,0,0,1,.05.18v0l.05.15v0c0,.05,0,.1.05.16v0a1.09,1.09,0,0,1,.05.17h0a37.76,37.76,0,0,0,3.66,8.45h0a95.67,95.67,0,0,0,23.81,4.14c1.51.07,3,.11,4.41.11a96.3,96.3,0,0,0,19-1.89c.07-1.78.08-3.32.08-4.51V907c0-.85,0-2.24,0-4,0-.76,0-1.58,0-2.46,0-2.31,0-5,.09-7.73.06-2.43.14-4,1.2-5.52a8.24,8.24,0,0,1,4.3-3,6.47,6.47,0,0,1,1.67-.21,11.54,11.54,0,0,1,1.5.12,9.32,9.32,0,0,0,1.37.13,3.89,3.89,0,0,0,2-.52,4.42,4.42,0,0,0,1.92-1.89,4.72,4.72,0,0,0,.46-1.8c0-.13,0-.26,0-.38a4.66,4.66,0,0,0-.17-1.28c-.26-.91-.53-1.83-.8-2.75-.48-1.62-.95-3.25-1.43-4.87l-.54-1.85-.48-1.64h0"/><path class="cls-77" d="M273.15,914.67a3.69,3.69,0,0,0,2,2.45,3.52,3.52,0,0,0,1.78.1,3.59,3.59,0,0,0,1.88-.83,3.72,3.72,0,0,0,1.14-1.86c.35-5.84,1.28-20.57,2.65-35,.62-6.54,1.22-11.83,2.07-17.72.53-3.73,1-6.81,1.4-9a3.79,3.79,0,0,1,.83-2.11,3.65,3.65,0,0,1,1.35-1l12.38,8.52,6.29.05,12.79,5.07-28.88-20A7.84,7.84,0,0,0,287,843a8.52,8.52,0,0,0-5.17,3.15,12.25,12.25,0,0,0-2.33,4.8,31.45,31.45,0,0,0-1.34,9.31,68.76,68.76,0,0,1-4.64-5.93c-2.32-3.34-2.63-4.44-2.77-5A10.81,10.81,0,0,1,271,843a15.6,15.6,0,0,0,1.15-3.55c.22-1.3.11-2-.27-2.44a1.63,1.63,0,0,0-1.49-.67c-.58.13-.91.73-1.08,1.07a47.24,47.24,0,0,0-2.14,4.34c-1.18,3.79-1.25,2.89-2.25,6.3a63.87,63.87,0,0,0-1.5,6.41,27.85,27.85,0,0,0-.8,6.64,15,15,0,0,0,.76,4.08,8.41,8.41,0,0,0,3.82,3.82c0-.25,0-.5.08-.74l3.75-4.75,6.74,0-4.65,46.38C273.14,911.47,273.14,913.07,273.15,914.67Z"/><rect class="cls-1" width="1920" height="1080"/></g></svg>