<svg xmlns="http://www.w3.org/2000/svg" xmlns:xlink="http://www.w3.org/1999/xlink" viewBox="0 0 1920 1084.15"><defs><style>.cls-1{fill:none;}.cls-2{fill:#8d8d8d;}.cls-3{fill:#735439;}.cls-4{fill:#465a56;}.cls-5{fill:#753117;}.cls-6{fill:#263633;}.cls-7{fill:#be563c;}.cls-8{fill:#80603e;}.cls-9{fill:#e6a180;}.cls-10{fill:#f8fbf8;}.cls-11{fill:#303f44;}.cls-12{fill:#fffffd;}.cls-13{fill:#d19277;}.cls-14{fill:#8b6438;}.cls-15{fill:#656b69;}.cls-16{fill:#95999b;}.cls-17{fill:#efc150;}.cls-18{clip-path:url(#clip-path);}.cls-19{fill:#303f43;}.cls-20{fill:#533617;}.cls-21{fill:#71573a;}.cls-22{fill:#654c36;}.cls-23{fill:#7b5b37;}.cls-24{fill:#c4c4c3;}.cls-25{fill:#9e4d3b;}.cls-26{fill:#755736;}.cls-27{fill:#614d37;}.cls-28{fill:#695035;}.cls-29{fill:#40321c;}.cls-30{fill:#9b925d;}.cls-31{fill:#efd659;}.cls-32{fill:#604631;}.cls-33{fill:#d0df57;}.cls-34{fill:#a9acaf;}.cls-35{clip-path:url(#clip-path-2);}.cls-36{clip-path:url(#clip-path-3);}.cls-37{fill:#fff;}.cls-38{fill:#725439;}.cls-39{fill:#3f4040;}</style><clipPath id="clip-path"><polyline class="cls-1" points="535.6 795.24 551.42 795.24 551.42 808.24 535.6 808.24 535.6 795.24"/></clipPath><clipPath id="clip-path-2"><polyline class="cls-1" points="365.23 788.52 375.17 788.52 375.17 802.44 365.23 802.44 365.23 788.52"/></clipPath><clipPath id="clip-path-3"><polyline class="cls-1" points="325.61 887.39 361.57 887.39 361.57 904.92 325.61 904.92 325.61 887.39"/></clipPath></defs><title>szene01_toggleEinzeln</title><g id="szene04_resized"><path class="cls-2" d="M1029.22,1077.61l-.75,9.22h.93l.75-9.2-.93,0"/><path class="cls-2" d="M1014.52,1026.48q-.35,14.49-.68,29l1,0q0-5.71.09-11.48.09-8.81.27-17.49l-.68,0"/><polygon class="cls-3" points="490.69 908.21 490.69 914.44 529.65 914.44 529.65 898.47 505.11 898.47 504.72 904.7 490.69 908.21"/><polygon class="cls-3" points="595.8 908.21 595.8 914.44 556.85 914.44 556.85 898.47 581.39 898.47 581.78 904.7 595.8 908.21"/><rect class="cls-4" x="502.38" y="886.78" width="30.1" height="11.69"/><rect class="cls-4" x="554.36" y="886.78" width="30.1" height="11.69"/><polyline class="cls-5" points="499.01 795.24 499.01 809.09 587.28 809.09 587.28 795.24 499.01 795.24"/><polyline class="cls-6" points="505.18 823.71 505.18 886.78 529.65 886.78 529.65 823.71 556.85 823.71 556.85 886.78 581.12 886.78 581.12 823.71 587.28 823.71 587.28 809.09 572.25 809.09 572.28 795.24 568.02 795.24 568.08 809.09 517.72 809.09 517.71 795.24 513.71 795.24 513.77 809.09 499.01 809.09 499.01 823.71 505.18 823.71"/><polyline class="cls-7" points="501.35 695.39 543.38 723.5 584.46 695.39 584.46 706.08 631.71 763.23 612.57 805.15 587.28 790.61 602.88 759.6 585.19 735.85 543.38 735.85 504.99 735.85 491.42 778.25 467.68 787.46 448.05 729.8 478.34 723.26 481.73 739.25 499.01 710.17 502.08 709.93 501.35 695.39"/><polyline class="cls-8" points="492.63 795.24 586.07 795.24 587.28 790.61 591.88 781.48 587.28 704.6 543.38 727.62 499.01 704.6 492.63 795.24"/><path class="cls-3" d="M505.11,735.85h24.28s4.29,25.69-11.27,25.69-13-25.69-13-25.69"/><path class="cls-3" d="M556.72,735.85H581s4.29,25.69-11.27,25.69S556.72,735.85,556.72,735.85Z"/><path class="cls-9" d="M505.72,698.31l37.66,25.19,38-26V606.09s-20.25,7.72-35.87,8.6-33.76.62-39.83-1.4Z"/><polygon class="cls-10" points="526.88 712.46 559.5 712.46 543.38 723.5 526.88 712.46"/><path class="cls-11" d="M505.72,650.33c-1.36,2.48-9.33,17.61-3,33.52,9.06,22.79,38.14,23.84,39.95,23.88,13.61.27,36.87-4.63,41.86-23.7,1.31-5,3.73-21.59-3.1-33.7L571.7,663c-6.28-6-11.62-7.47-15.4-7.73-5.1-.34-13.11,1.23-13.11,1.23a28.91,28.91,0,0,0-27.84,5.27Z"/><path class="cls-12" d="M535.51,667.18a10.24,10.24,0,0,0,4.82-2.67,10,10,0,0,0,2-2.77H544a14.87,14.87,0,0,0,7.27,5.44,21.55,21.55,0,0,1-15.8,0Z"/><path class="cls-13" d="M505.72,637h-7.49c-2.6.59-6,2.07-6.26,7s2,7.08,4,8h9.74Z"/><path class="cls-13" d="M581.42,637h7.49c2.6.59,6,2.07,6.26,7s-2,7.08-4,8h-9.74Z"/><path class="cls-11" d="M505.72,613.29a25.73,25.73,0,0,0,5.37,1.36C560,619.91,591.43,603,594.5,600.1c.63-.59,2.25-1.94,2-3.13-.13-.64-.94-1.15-2.25-1.52-3.32-1-6.06-.78-14.95-1.22,0,0,7-2,8.15-4.84s-16.59-7.26-40.26-6.25-38.12,6.9-42,12.27a22,22,0,0,0-4,12.63c-.18,2.18-4.43,5.14-4.25,12.4s1.3,16.52,1.3,16.52h7.49Z"/><polyline class="cls-14" points="436.74 716.91 501.53 698.86 501.89 706.09 499.01 704.6 498.51 711.74 439.75 727.98 436.74 716.91"/><polygon class="cls-9" points="449.58 729.47 449.58 725.26 456 723.49 449.39 713.39 446.49 714.2 446.49 708.73 475.12 701.51 479.69 719.08 475.24 719.56 474.94 723.99 449.58 729.47"/><path class="cls-14" d="M585.62,677.68a32,32,0,0,1-.94,5.67,32.45,32.45,0,0,1-2.32,6.24L633.5,676l-3.07-11.24Z"/><path class="cls-15" d="M624.65,662.34l-27.39,7.44,6.85,22.07s2.54,7.79.24,13.69a52.93,52.93,0,0,1-7.09,11.81c1.2.9,14.59,10.69,30.79,5.33,13.47-4.45,19-16.12,19.85-18.08,0,0-7,.53-12.16-7.08s-4.48-7.5-5.78-10.86Z"/><path class="cls-16" d="M643.49,703.82a11.66,11.66,0,0,0,4.41.78c-.88,2-6.38,13.63-19.85,18.08-16.2,5.36-29.59-4.43-30.79-5.33,0,0,.7-.86,1.69-2.26a37,37,0,0,0,17.86,3.23,38.09,38.09,0,0,0,21.55-9A36.37,36.37,0,0,0,643.49,703.82Z"/><polygon class="cls-9" points="587.28 790.61 582.04 810.6 603.87 816.27 610.55 803.99 587.28 790.61"/><polyline class="cls-17" points="557.68 795.24 551.42 795.24 551.42 799.75 544.93 799.74 544.93 803.52 551.42 803.52 551.42 808.24 535.6 808.24 535.6 795.24 529.46 795.24 529.46 809.09 557.68 809.09 557.68 795.24"/><polyline class="cls-17" points="557.68 809.09 529.46 809.09 529.46 813.55 557.68 813.55 557.68 809.09"/><polyline class="cls-17" points="557.68 789.71 529.46 789.71 529.46 795.24 535.6 795.24 551.42 795.24 557.68 795.24 557.68 789.71"/><g class="cls-18"><polyline class="cls-5" points="551.42 795.24 535.6 795.24 535.6 808.24 551.42 808.24 551.42 803.52 544.93 803.52 544.93 799.74 551.42 799.75 551.42 795.24"/></g><path class="cls-19" d="M523.85,626.46h11.09a.78.78,0,1,0,0-1.55H523.85a.78.78,0,1,0,0,1.55"/><path class="cls-19" d="M552.2,626.46h11.09a.78.78,0,1,0,0-1.55H552.2a.78.78,0,1,0,0,1.55"/><path class="cls-20" d="M529.39,634.32c-.95,0-3.08,1.31-2.77,5.24s1.77,4.39,2.77,4.39,2.78-1.61,2.78-4.81S530.35,634.32,529.39,634.32Z"/><path class="cls-20" d="M557.46,634.32c-1,0-3.09,1.31-2.78,5.24s1.77,4.39,2.78,4.39,2.77-1.61,2.77-4.81S558.41,634.32,557.46,634.32Z"/><path class="cls-21" d="M518.12,761.54c-15.56,0-13-25.69-13-25.69h24.28s4.29,25.69-11.27,25.69M499,704.6h0l-.5,7.14-4,56.88h0l-1.87,26.62h36.83v-5.53h13.92V727.62l-41.49-21.53L499,704.6"/><path class="cls-22" d="M529.39,735.85H505.11s-2.55,25.69,13,25.69,11.27-25.69,11.27-25.69"/><polyline class="cls-23" points="499.01 704.6 498.56 710.92 498.56 710.92 498.51 711.74 498.51 711.74 499.01 704.6"/><polyline class="cls-24" points="494.5 768.62 491.42 778.25 494.5 768.62 494.5 768.62"/><polyline class="cls-25" points="498.51 711.74 497.99 711.88 481.73 739.25 491.42 778.25 494.5 768.62 498.5 711.74"/><polyline class="cls-26" points="498.56 710.92 497.99 711.88 498.51 711.74 498.56 710.92"/><polyline class="cls-27" points="498.51 711.74 498.51 711.74 494.5 768.62 494.5 768.62 498.51 711.74"/><polyline class="cls-28" points="498.56 710.92 498.56 710.92 498.5 711.74 498.51 711.74 498.56 710.92"/><polyline class="cls-5" points="323.76 788.28 323.76 802.77 416.17 802.77 416.17 788.28 323.76 788.28"/><polyline class="cls-29" points="330.22 818.08 330.22 884.11 355.84 884.11 355.84 818.08 384.31 818.08 384.31 884.11 409.71 884.11 409.71 818.08 416.17 818.08 416.17 802.77 400.43 802.77 400.46 788.28 396 788.28 396.06 802.77 343.35 802.77 343.34 788.28 339.16 788.28 339.22 802.77 323.76 802.77 323.76 818.08 330.22 818.08"/><polyline class="cls-3" points="313.38 903.81 312.55 913.05 355.84 913.05 355.84 902.98 355.84 870.86 330.22 870.86 329.92 901.33 313.38 903.81"/><polygon class="cls-3" points="426.77 903.81 427.6 913.05 384.32 913.05 384.32 902.98 384.32 870.86 409.71 870.86 410.23 901.33 426.77 903.81"/><polyline class="cls-30" points="330.02 726.12 317.21 754.44 315.18 798.66 290.75 798.66 292.78 754.95 326.98 698.98 347.39 697.92 370.21 713.19 392.61 697.86 413.34 699.1 447.32 754.95 449.36 798.66 424.93 798.66 422.9 754.44 413.97 726.12 416.17 788.28 323.76 788.28 330.02 726.12"/><path class="cls-9" d="M330.79,698.79l39.42,14.4L410,698.9V627.33s-21.2,8.09-37.55,9-35.33.64-41.69-1.47Z"/><path class="cls-13" d="M330.79,659.65H323c-2.72.62-6.24,2.16-6.55,7.29s2.1,7.41,4.2,8.4h10.19Z"/><path class="cls-13" d="M410,659.65h7.84c2.72.62,6.24,2.16,6.55,7.29s-2.1,7.41-4.2,8.4H410Z"/><path class="cls-31" d="M330.79,634.87c1.24.35,3.2.87,5.62,1.43,25.52,5.79,67,6,78.15-14.27,4.49-8.15,4.21-19.9-.68-23.24-4.26-2.91-11.94.58-14.76,1.86-8.37,3.81-8.39,7.55-13.74,9.67-10.14,4-16.2-7.5-32.24-7.93-1.38,0-17.9-.25-26.33,10.69-5.95,7.71-5.6,18-5.22,29.27.21,6.18,1.36,17.3,1.36,17.3h7.84Z"/><polygon class="cls-9" points="428.32 798.66 432.3 812.75 447.9 808.44 447.66 798.66 428.32 798.66"/><polygon class="cls-9" points="312.56 798.66 308.57 812.75 292.97 808.44 293.22 798.66 312.56 798.66"/><path class="cls-19" d="M349.76,648.62h11.62a.78.78,0,0,0,0-1.55H349.76a.78.78,0,0,0,0,1.55"/><path class="cls-19" d="M379.44,648.62h11.62a.78.78,0,0,0,0-1.55H379.44a.78.78,0,1,0,0,1.55"/><path class="cls-20" d="M355.57,656.88c-1,0-3.23,1.37-2.9,5.49s1.85,4.6,2.9,4.6,2.9-1.7,2.9-5.05S356.57,656.88,355.57,656.88Z"/><path class="cls-20" d="M384.94,656.88c-1,0-3.22,1.37-2.9,5.49s1.85,4.6,2.9,4.6,2.91-1.7,2.91-5.05S386,656.88,384.94,656.88Z"/><polyline class="cls-32" points="329.39 870.86 356.71 870.86 356.71 875.73 329.39 875.73 329.39 870.86"/><rect class="cls-32" x="383.36" y="870.86" width="27.31" height="4.88"/><polyline class="cls-33" points="413.34 699.1 392.61 697.86 370.21 713.19 347.39 697.92 326.98 698.98 330.02 726.12 323.76 788.28 416.17 788.28 413.34 699.1"/><polygon class="cls-34" points="326.92 757.93 364.68 757.93 364.68 762.41 326.46 762.41 326.92 757.93"/><polygon class="cls-34" points="325.88 767.27 364.68 767.27 364.68 771.83 325.42 771.83 325.88 767.27"/><polygon class="cls-34" points="415.1 757.93 376.35 757.93 376.35 762.41 415.35 762.41 415.1 757.93"/><polygon class="cls-34" points="415.5 767.27 376.35 767.27 376.35 771.83 415.65 771.83 415.5 767.27"/><path class="cls-17" d="M370.21,788.52h0c2.56,0,4.67,2.71,4.94,6.19l-3.61.06V796h3.63c-.2,3.59-2.35,6.42-5,6.42s-5-3.12-5-7,2.23-7,5-7m5.31-.23H364.89a13.44,13.44,0,0,0,.08,14.49h10.48a13.47,13.47,0,0,0,.07-14.49"/><path class="cls-17" d="M375.45,802.78H365a6,6,0,0,0,10.48,0"/><path class="cls-17" d="M370.21,785.13a6.59,6.59,0,0,0-5.32,3.16h10.63a6.57,6.57,0,0,0-5.31-3.16"/><g class="cls-35"><path class="cls-5" d="M370.21,788.52h0c-2.75,0-5,3.11-5,7s2.23,7,5,7,4.76-2.83,5-6.42h-3.63v-1.25l3.61-.06c-.27-3.48-2.38-6.19-4.94-6.19"/></g><path class="cls-19" d="M376.78,687.68c-1.34-1-2.07-2.37-4.08-2.88-.42-.11-2.14-.55-3.12.26-1-.81-2.7-.37-3.13-.26-2,.51-2.74,1.87-4.08,2.88s-3.5,1.89-7.46,1.36a38.8,38.8,0,0,0,6.28,1.86c3.93.81,6,1.2,7.46,0a4.29,4.29,0,0,0,.93-1.09,4.07,4.07,0,0,0,.92,1.09c1.48,1.2,3.53.81,7.46,0a38.8,38.8,0,0,0,6.28-1.86C380.28,689.57,378.07,688.66,376.78,687.68Z"/><g class="cls-36"><path class="cls-37" d="M355.84,893.59v9.85A40.28,40.28,0,0,0,360,903a2,2,0,0,0,.7-.35,2.29,2.29,0,0,0,.39-.46,7.3,7.3,0,0,0,.42-3c0-.29,0-.6,0-.91v-.36a4.22,4.22,0,0,0-.28-1.71,1.91,1.91,0,0,0-.49-.62,1.82,1.82,0,0,0-.55-.27c-1.61-.62-3.09-1.2-4.41-1.73M330,889.16l-.56.41a9.77,9.77,0,0,0-2.76,2.79c-1.91,3.12-.85,6.7-.53,7.64a8.46,8.46,0,0,0,.79,1.77l2.94-.44.12-12.17"/><path class="cls-38" d="M335.67,887.39a8.91,8.91,0,0,0-3,.42,10.64,10.64,0,0,0-2.61,1.35l-.12,12.17-2.94.44a6.61,6.61,0,0,0,3.95,2.92,6.79,6.79,0,0,0,1.74.23l.44,0s15.09-.83,22.73-1.46v-9.85c-1.81-.72-3.33-1.35-4.52-1.85-2.38-1-4.1-1.75-6.82-2.65a29.68,29.68,0,0,0-6.76-1.58c-.8-.08-1.48-.12-2.07-.12"/></g><path class="cls-39" d="M318.66,900.56c0,.88,0,1.7,0,2.46h0c0-.76,0-1.58,0-2.46"/><path class="cls-39" d="M318.67,903h0c0,1.74,0,3.13,0,4v0c0-.85,0-2.24,0-4"/></g></svg>