<svg xmlns="http://www.w3.org/2000/svg" xmlns:xlink="http://www.w3.org/1999/xlink" viewBox="0 0 1920 1080"><defs><style>.cls-1{filter:url(#luminosity-invert);}.cls-2{fill:none;}.cls-3{isolation:isolate;}.cls-4{fill:#c59c6d;}.cls-5{clip-path:url(#clip-path);}.cls-6{fill:#8d633a;}.cls-7{fill:#fff;}.cls-8{fill:#b4ded5;}.cls-9{fill:#010101;}.cls-10{fill:#603a17;}.cls-11{clip-path:url(#clip-path-2);}.cls-12{fill:#c59b6d;}.cls-13{clip-path:url(#clip-path-3);}.cls-14{fill:#a38361;}.cls-15{fill:#775737;}.cls-16{fill:#513319;}.cls-17{fill:#492e1a;}.cls-18{fill:#907659;}.cls-19{fill:#6b5036;}.cls-20{clip-path:url(#clip-path-4);}.cls-21{fill:#b5ded5;}.cls-22,.cls-31{fill:#c7c6c5;}.cls-23{clip-path:url(#clip-path-5);}.cls-24{fill:#846e63;}.cls-25,.cls-30,.cls-31,.cls-33,.cls-34,.cls-36{mix-blend-mode:multiply;}.cls-26{clip-path:url(#clip-path-8);}.cls-27{fill:#8e8e8e;}.cls-28{clip-path:url(#clip-path-9);}.cls-29{fill:#c9a784;mix-blend-mode:lighten;}.cls-30{fill:#d8d9d8;}.cls-32{fill:#d3b494;}.cls-33{fill:#e5e5e5;}.cls-34{fill:#e0e1e0;}.cls-35{fill:#c69c6c;}.cls-36{fill:#c9c9c9;}.cls-37{mask:url(#mask);}.cls-38{fill:#461316;}.cls-39{fill:#5a1512;}.cls-40{fill:#721512;}.cls-41{fill:#8d191c;}.cls-42{fill:#d96638;}.cls-43{fill:#f79441;}.cls-44{fill:#f8c43b;}.cls-45{fill:#fef3e2;}</style><clipPath id="clip-path"><polyline class="cls-2" points="793.15 719.12 431.69 719.12 431.69 498.03 793.15 498.03 793.15 719.12"/></clipPath><clipPath id="clip-path-2"><polyline class="cls-2" points="366.76 310.28 861.58 310.28 861.58 502.54 366.76 502.54 366.76 310.28"/></clipPath><clipPath id="clip-path-3"><polyline class="cls-2" points="614.17 324.31 386.06 502.54 842.45 502.35 614.17 324.31"/></clipPath><clipPath id="clip-path-4"><polyline class="cls-2" points="476.43 401.52 735.25 401.52 735.25 719.5 476.43 719.5 476.43 401.52"/></clipPath><clipPath id="clip-path-5"><rect class="cls-2" x="653.49" y="682.02" width="113.22" height="47.99"/></clipPath><clipPath id="clip-path-8"><rect class="cls-2" x="653.62" y="723.66" width="112.84" height="6.36"/></clipPath><clipPath id="clip-path-9"><rect class="cls-2" x="672.36" y="713.18" width="77.03" height="7.84"/></clipPath><filter id="luminosity-invert" filterUnits="userSpaceOnUse" color-interpolation-filters="sRGB"><feColorMatrix values="-1 0 0 0 1 0 -1 0 0 1 0 0 -1 0 1 0 0 0 1 0"/></filter><mask id="mask" x="770.79" y="596.38" width="212.52" height="212.52" maskUnits="userSpaceOnUse"><rect class="cls-1" x="823.49" y="616.12" width="108.93" height="119.69"/></mask></defs><title>pascal_szene2.3</title><g class="cls-3"><g id="Layer_1_copy_2" data-name="Layer 1 copy 2"><rect class="cls-2" width="1920" height="1080"/><polyline class="cls-4" points="793.15 719.12 431.69 719.12 431.69 498.03 793.15 498.03 793.15 719.12"/><g class="cls-5"><polyline class="cls-6" points="431.69 710.77 803.68 710.77 803.68 701.72 431.69 701.72 431.69 710.77"/><polyline class="cls-6" points="431.69 683.87 803.68 683.87 803.68 674.82 431.69 674.82 431.69 683.87"/><polyline class="cls-6" points="431.69 656.97 803.68 656.97 803.68 647.91 431.69 647.91 431.69 656.97"/><polyline class="cls-6" points="431.69 630.06 803.68 630.06 803.68 621.01 431.69 621.01 431.69 630.06"/><polyline class="cls-6" points="431.69 603.16 803.68 603.16 803.68 594.1 431.69 594.1 431.69 603.16"/><polyline class="cls-6" points="431.69 576.25 803.68 576.25 803.68 567.2 431.69 567.2 431.69 576.25"/><polyline class="cls-6" points="431.69 549.35 803.68 549.35 803.68 540.29 431.69 540.29 431.69 549.35"/><polyline class="cls-6" points="431.69 522.44 803.68 522.44 803.68 513.39 431.69 513.39 431.69 522.44"/><polyline class="cls-6" points="431.69 495.54 803.68 495.54 803.68 486.48 431.69 486.48"/></g><polyline class="cls-7" points="735.25 680.51 659.79 680.51 659.79 569.97 735.25 569.97 735.25 680.51"/><polyline class="cls-8" points="722.96 669.99 672.08 669.99 672.08 580.5 722.96 580.5 722.96 669.99"/><polyline class="cls-9" points="722.96 669.99 722.96 665.33 676.74 665.33 676.74 585.16 718.3 585.16 718.3 669.99 722.96 669.99 722.96 665.33 722.96 669.99 727.62 669.99 727.62 575.84 667.42 575.84 667.42 674.64 727.62 674.64 727.62 669.99 722.96 669.99"/><polyline class="cls-9" points="722.96 669.99 722.96 666.72 675.34 666.72 675.34 629.38 719.7 629.38 719.7 669.99 722.96 669.99 722.96 666.72 722.96 669.99 726.22 669.99 726.22 622.86 668.81 622.86 668.81 673.25 726.22 673.25 726.22 669.99 722.96 669.99"/><polyline class="cls-10" points="722.96 669.99 722.96 665.33 676.74 665.33 676.74 630.78 718.3 630.78 718.3 669.99 722.96 669.99 722.96 665.33 722.96 669.99 727.62 669.99 727.62 621.46 667.42 621.46 667.42 674.64 727.62 674.64 727.62 669.99 722.96 669.99"/><polyline class="cls-10" points="722.96 669.99 722.96 665.33 702.18 665.33 702.18 630.78 718.3 630.78 718.3 669.99 722.96 669.99 722.96 665.33 722.96 669.99 727.62 669.99 727.62 621.46 692.86 621.46 692.86 674.64 727.62 674.64 727.62 669.99 722.96 669.99"/><polyline class="cls-10" points="722.96 626.12 722.96 621.41 702.22 621.41 702.22 585.2 718.26 585.2 718.26 626.12 722.96 626.12 722.96 621.41 722.96 626.12 727.67 626.12 727.67 575.79 692.81 575.79 692.81 630.82 727.67 630.82 727.67 626.12 722.96 626.12"/><polyline class="cls-10" points="722.96 626.12 722.96 621.46 676.74 621.46 676.74 585.16 718.3 585.16 718.3 626.12 722.96 626.12 722.96 621.46 722.96 626.12 727.62 626.12 727.62 575.84 667.42 575.84 667.42 630.78 727.62 630.78 727.62 626.12 722.96 626.12"/><polyline class="cls-7" points="565.92 568.6 476.43 568.6 476.43 719.5 565.92 719.5 565.92 568.6"/><polyline class="cls-10" points="558.02 576.01 484.33 576.01 484.33 719.02 558.02 719.02 558.02 576.01"/><polyline class="cls-4" points="554.51 580.4 487.84 580.4 487.84 719.02 554.51 719.02 554.51 580.4"/><path class="cls-10" d="M545.74,649.71a5.27,5.27,0,1,1-5.26-5.27,5.27,5.27,0,0,1,5.26,5.27"/><polyline class="cls-10" points="614.17 310.28 366.76 502.54 861.58 502.54 614.17 310.28"/><g class="cls-11"><path class="cls-12" d="M431.69,502.41l-9.23,0v.1h-9v-.08l-27.57.06,0,0h45.9v-.13m361.46,0v.13h49.41l0,0-49.36-.1"/></g><g class="cls-13"><polyline class="cls-6" points="382.42 129.55 382.37 502.35 391.42 502.35 391.47 129.55 382.42 129.55"/><polyline class="cls-6" points="413.45 129.99 413.41 502.74 422.46 502.74 422.5 129.99 413.45 129.99"/><polyline class="cls-6" points="444.49 130.42 444.45 503.13 453.5 503.13 453.54 130.43 444.49 130.42"/><polyline class="cls-6" points="475.52 130.86 475.49 503.52 484.54 503.52 484.58 130.86 475.52 130.86"/><polyline class="cls-6" points="506.56 131.3 506.52 503.9 515.58 503.9 515.61 131.3 506.56 131.3"/><polyline class="cls-6" points="537.6 131.74 537.56 504.29 546.62 504.29 546.65 131.74 537.6 131.74"/><polyline class="cls-6" points="568.63 132.18 568.6 504.68 577.66 504.68 577.68 132.18 568.63 132.18"/><polyline class="cls-6" points="599.67 132.62 599.64 505.07 608.69 505.07 608.72 132.62 599.67 132.62"/><polyline class="cls-6" points="630.7 133.06 630.68 505.45 639.73 505.45 639.75 133.06 630.7 133.06"/><polyline class="cls-6" points="661.74 133.5 661.72 505.84 670.77 505.84 670.79 133.5 661.74 133.5"/><polyline class="cls-6" points="692.77 133.93 692.76 506.23 701.81 506.23 701.83 133.93 692.77 133.93"/><polyline class="cls-6" points="723.81 134.37 723.79 506.62 732.85 506.62 732.86 134.37 723.81 134.37"/><polyline class="cls-6" points="754.84 134.81 754.83 507 763.89 507 763.9 134.81 754.84 134.81"/><polyline class="cls-6" points="785.88 135.25 785.87 507.39 794.92 507.39 794.93 135.25 785.88 135.25"/><polyline class="cls-6" points="816.92 135.69 816.91 507.78 825.96 507.78 825.97 135.69 816.92 135.69"/><polyline class="cls-6" points="847.95 136.13 847.95 508.17 857 508.17 857 136.13"/></g><path class="cls-7" d="M644,431.35a29.83,29.83,0,1,1-29.83-29.83A29.83,29.83,0,0,1,644,431.35"/><path class="cls-8" d="M637,431.35a22.81,22.81,0,1,1-22.81-22.81A22.81,22.81,0,0,1,637,431.35"/><path class="cls-10" d="M637,431.35h-4.66A18.15,18.15,0,1,1,627,418.52a18,18,0,0,1,5.31,12.83h9.32a27.47,27.47,0,1,0-8,19.42,27.36,27.36,0,0,0,8-19.42H637"/><path class="cls-14" d="M476.43,710.77H431.69v8.35h44.74v-8.35m316.72,0H565.92v8.35H793.15v-8.35m-316.72-26.9H431.69v17.85h44.74V683.87m316.72,0H565.92v17.85H793.15V683.87M476.43,657H431.69v17.85h44.74V657m183.36,0H565.92v17.85h93.87V657m133.36,0H735.24v17.85h57.91V657M476.43,630.06H431.69v17.85h44.74V630.06m183.36,0H565.92v17.85h93.87V630.06m133.36,0H735.24v17.85h57.91V630.06m-316.72-26.9H431.69V621h44.74V603.16m183.36,0H565.92V621h93.87V603.16m133.36,0H735.24V621h57.91V603.16M476.43,576.25H431.69V594.1h44.74V576.25m183.36,0H565.92V594.1h93.87V576.25m133.36,0H735.24V594.1h57.91V576.25m0-26.91H471.5l-39.81,4.84v13H793.15V549.34m0-26.9H693.2L546.1,540.29h247V522.44"/><path class="cls-15" d="M476.43,701.72H431.69v9h44.74v-9m316.72,0H565.92v9H793.15v-9"/><path class="cls-15" d="M476.43,674.82H431.69v9h44.74v-9m316.72,0H735.24v5.69H659.79v-5.69H565.92v9H793.15v-9"/><path class="cls-15" d="M476.43,647.91H431.69V657h44.74v-9.06m183.36,0H565.92V657h93.87v-9.06m133.36,0H735.24V657h57.91v-9.06"/><path class="cls-15" d="M476.43,621H431.69v9h44.74v-9m183.36,0H565.92v9h93.87v-9m133.36,0H735.24v9h57.91v-9"/><path class="cls-15" d="M476.43,594.1H431.69v9.06h44.74V594.1m183.36,0H565.92v9.06h93.87V594.1m133.36,0H735.24v9.06h57.91V594.1"/><polyline class="cls-15" points="793.15 567.2 793.15 567.2 431.69 567.2 431.69 576.25 476.43 576.25 476.43 568.6 565.92 568.6 565.92 576.25 659.79 576.25 659.79 569.97 735.25 569.97 735.25 576.25 793.15 576.25 793.15 567.2"/><polyline class="cls-15" points="793.15 540.29 793.15 540.29 546.1 540.29 471.5 549.35 793.15 549.35 793.15 540.29"/><polyline class="cls-15" points="793.15 517.33 735.31 517.33 693.2 522.44 793.15 522.44 793.15 517.33"/><polyline class="cls-16" points="614.17 310.28 366.76 502.54 385.84 502.51 444.45 456.96 444.45 456.92 453.51 449.85 453.51 449.92 475.49 432.83 475.49 432.67 484.55 425.6 484.55 425.8 506.53 408.71 506.53 408.42 515.59 401.34 515.59 401.68 537.57 384.59 537.57 384.17 546.63 377.09 546.63 377.55 568.61 360.47 568.61 359.91 577.67 352.84 577.67 353.43 599.65 336.35 599.65 335.66 608.71 328.59 608.71 329.31 614.17 325.06 630.69 337.89 630.69 337.2 639.74 344.26 639.74 344.92 661.73 362 661.73 361.4 670.78 368.46 670.78 369.02 692.76 386.1 692.76 385.61 701.82 392.67 701.82 393.13 723.8 410.2 723.8 409.81 732.85 416.88 732.85 417.23 754.84 434.31 754.84 434.02 763.89 441.08 763.89 441.34 785.87 458.41 785.87 458.23 794.93 465.29 794.93 465.44 816.91 482.52 816.91 482.43 825.96 489.49 825.96 489.55 842.45 502.35 842.31 502.35 842.51 502.51 861.58 502.54 614.17 310.28"/><polyline class="cls-14" points="793.15 510.31 767.79 513.39 793.15 513.39 793.15 510.31"/><polyline class="cls-15" points="793.15 513.39 793.15 513.39 767.79 513.39 735.31 517.33 793.15 517.33 793.15 513.39"/><path class="cls-14" d="M386.31,502.35l5.11-4v4h-5.11M444.45,457l-58.61,45.55,27.57-.06V481.18l9.06-7.08v28.33l9.23,0h12.76V457m186.23-.76a29.93,29.93,0,0,1-22,4.48v41.73h22V456.2M475.49,432.83l-22,17.09v52.49h22V432.83M701.81,429v73.43h91.34v0l49.36.1-.2-.16H814.12l-19.19-12.54v12.56h-9.06V483.9l-22-14.36v32.85h-9.06V463.62l-22-14.36V502.4h-9.06V443.34l-22-14.36M506.53,408.71l-22,17.09v76.61h22v-93.7m164.25,0v93.71h22V423.06l-22-14.36m-31-20.28V416A29.65,29.65,0,0,1,644,431.35h0a29.75,29.75,0,0,1-4.26,15.38v55.68h22V402.79l-22-14.37m-102.17-3.83-22,17.09V502.41h22V384.59m71.13-16.45V402a30,30,0,0,1,22,4.48v-24l-22-14.37m-40.09-7.67-22,17.08V502.41h22V360.47m31-24.12-22,17.08v149h22v-45a29.84,29.84,0,0,1-15.3-26.06h0a29.83,29.83,0,0,1,15.31-26.06V362.23l-18.07-11.81,18.07-14.06h0m14.52-11.29-5.46,4.25h0l5.46-4.26"/><polyline class="cls-15" points="391.43 498.36 386.31 502.35 391.42 502.35 391.43 498.36"/><polyline class="cls-15" points="422.47 474.1 413.41 481.18 413.41 502.45 422.46 502.43 422.47 474.1"/><polyline class="cls-15" points="453.51 449.85 444.45 456.92 444.45 456.96 444.45 502.41 453.5 502.41 453.51 449.92 453.51 449.85"/><polyline class="cls-15" points="484.55 425.6 475.49 432.67 475.49 432.83 475.49 502.41 484.54 502.41 484.55 425.8 484.55 425.6"/><polyline class="cls-15" points="515.59 401.34 506.53 408.42 506.53 408.71 506.52 502.41 515.58 502.41 515.59 401.68 515.59 401.34"/><polyline class="cls-15" points="546.63 377.09 537.57 384.17 537.57 384.59 537.56 502.41 546.62 502.41 546.63 377.55 546.63 377.09"/><polyline class="cls-15" points="577.67 352.84 568.61 359.91 568.61 360.47 568.6 502.41 577.66 502.41 577.67 353.43 577.67 352.84"/><path class="cls-15" d="M599.64,457.41v45h9.05V460.68a29.75,29.75,0,0,1-9.06-3.27m0-95.18v43.06A29.6,29.6,0,0,1,608.7,402V368.14l-9.05-5.91m9.06-33.64-9.06,7.07v.69h0l9.06-7h0v-.72"/><path class="cls-15" d="M639.74,446.73a30.13,30.13,0,0,1-9.06,9.47v46.21h9.05V446.73m-9-64.22v24a30.09,30.09,0,0,1,9,9.47V388.42l-9-5.91m0-45.31v.69l9,7v-.66l-9-7.06"/><path class="cls-15" d="M661.72,402.79v99.62h9V408.7l-9.06-5.91m0-41.39V362l9,7v-.57l-9-7.06"/><path class="cls-15" d="M692.76,423.06v79.35h9V429l-9-5.92m0-37.45v.49l9,7v-.46l-9-7.06"/><path class="cls-15" d="M723.8,443.34V502.4h9.06V449.26l-9.05-5.92m0-33.53v.39l9.05,7v-.36l-9.05-7.06"/><path class="cls-15" d="M754.83,463.62v38.77h9.06V469.54l-9.06-5.92m0-29.6v.29l9,7v-.26l-9-7.06"/><path class="cls-15" d="M785.87,483.9v18.48h9.06V489.81l-9.06-5.91m0-25.67v.18l9.06,7v-.15l-9.06-7.06"/><path class="cls-15" d="M826,502.35h0m-9.05-19.92v.09l9.05,7v-.06l-9.05-7.06"/><path class="cls-17" d="M826,489.55v.1l16.35,12.7h.14L826,489.55m-31-24.11v.09l22,17.09v-.1l-22-17.08m-31-24.1v.07l22,17.09v-.09l-22-17.07m-31-24.11v.06l22,17.09v-.07l-22-17.08m-31-24.1v0l22,17.09v-.06l-22-17.07m-31-24.1v0l22,17.09v0l-22-17.07m-31-24.11h0l22,17.09v0l-22-17.07m-25.57-19.86h0l16.52,12.84h0l-16.52-12.83"/><path class="cls-18" d="M826,489.65v12.7h16.35L826,489.65m-31-24.12v24.28l19.19,12.54h2.79V482.62l-22-17.09m-31-24.12v28.13l22,14.36V458.5l-22-17.09m-31-24.12v32l22,14.36V434.38l-22-17.09m-31-24.12V429l22,14.36V410.26l-22-17.09m-31-24.12V408.7l22,14.36V386.14l-22-17.09m-31-24.12v43.49l22,14.37V362l-22-17.09m-40.09-8.57-18.07,14.06,18.07,11.81V336.36m14.52-11.3h0l-5.46,4.26v38.82l22,14.37V337.9l-16.52-12.84"/><polyline class="cls-19" points="608.71 329.31 599.65 336.36 599.65 362.23 608.7 368.14 608.71 329.31"/><polyline class="cls-19" points="630.69 337.89 630.69 337.9 630.69 382.51 639.74 388.42 639.74 344.93 639.74 344.92 630.69 337.89"/><polyline class="cls-19" points="661.73 362 661.73 362.02 661.72 402.79 670.78 408.7 670.78 369.05 670.78 369.02 661.73 362"/><polyline class="cls-19" points="692.76 386.1 692.76 386.14 692.76 423.06 701.81 428.98 701.82 393.17 701.82 393.13 692.76 386.1"/><polyline class="cls-19" points="723.8 410.2 723.8 410.26 723.8 443.34 732.85 449.26 732.85 417.29 732.85 417.23 723.8 410.2"/><polyline class="cls-19" points="754.84 434.31 754.84 434.38 754.83 463.62 763.89 469.54 763.89 441.41 763.89 441.34 754.84 434.31"/><polyline class="cls-19" points="785.87 458.41 785.87 458.5 785.87 483.9 794.93 489.81 794.93 465.53 794.93 465.44 785.87 458.41"/><polyline class="cls-19" points="816.91 482.52 816.91 482.62 816.91 502.35 825.96 502.35 825.96 489.65 825.96 489.55 816.91 482.52"/><path class="cls-18" d="M471.5,549.34H431.69v4.84l39.81-4.84m221.7-26.9H431.69v17.85H546.1l147.1-17.85"/><polyline class="cls-19" points="546.1 540.29 431.69 540.29 431.69 549.35 471.5 549.35 546.1 540.29"/><polyline class="cls-19" points="735.31 517.33 431.69 517.33 431.69 522.44 693.2 522.44 735.31 517.33"/><polyline class="cls-18" points="793.15 502.54 431.69 502.54 431.69 513.39 767.79 513.39 793.15 510.31 793.15 502.54"/><polyline class="cls-19" points="767.79 513.39 431.69 513.39 431.69 517.33 735.31 517.33 767.79 513.39"/><polyline class="cls-18" points="793.15 502.41 696.75 502.41 692.76 502.42 692.76 502.41 670.77 502.41 670.77 502.43 661.72 502.43 661.72 502.41 639.73 502.41 639.73 502.44 630.68 502.44 630.68 502.41 608.69 502.41 608.69 502.45 599.64 502.45 599.64 502.41 577.66 502.41 577.66 502.46 568.6 502.47 568.6 502.41 546.62 502.41 546.62 502.48 537.56 502.48 537.56 502.41 515.58 502.41 515.58 502.49 506.52 502.49 506.52 502.41 484.54 502.41 484.54 502.5 475.49 502.51 475.49 502.41 453.5 502.41 453.5 502.52 444.45 502.52 444.45 502.41 431.69 502.41 431.69 502.54 793.15 502.54 793.15 502.41"/><polyline class="cls-19" points="453.5 502.41 444.45 502.41 444.45 502.52 453.5 502.52 453.5 502.41"/><polyline class="cls-19" points="484.54 502.41 475.49 502.41 475.49 502.51 484.54 502.5 484.54 502.41"/><polyline class="cls-19" points="515.58 502.41 506.52 502.41 506.52 502.49 515.58 502.49 515.58 502.41"/><polyline class="cls-19" points="546.62 502.41 537.56 502.41 537.56 502.48 546.62 502.48 546.62 502.41"/><polyline class="cls-19" points="577.66 502.41 568.6 502.41 568.6 502.47 577.66 502.46 577.66 502.41"/><polyline class="cls-19" points="608.69 502.41 599.64 502.41 599.64 502.45 608.69 502.45 608.69 502.41"/><polyline class="cls-19" points="639.73 502.41 630.68 502.41 630.68 502.44 639.73 502.44 639.73 502.41"/><polyline class="cls-19" points="670.77 502.41 661.72 502.41 661.72 502.43 670.77 502.43 670.77 502.41"/><polyline class="cls-19" points="696.75 502.41 692.76 502.41 692.76 502.42 696.75 502.41"/><polyline class="cls-16" points="557.92 576.6 484.43 576.6 484.43 711.5 484.51 711.5 484.51 707.32 487.84 707.24 487.84 580.4 554.51 580.4 554.51 705.6 557.74 705.52 557.74 711.5 557.92 711.5 557.92 576.6"/><path class="cls-14" d="M540.48,655a5.27,5.27,0,1,1,5.26-5.26,5.27,5.27,0,0,1-5.26,5.26m14-74.57H487.84V707.24l66.67-1.64V580.4"/><path class="cls-16" d="M540.48,644.44a5.27,5.27,0,1,0,5.26,5.27,5.27,5.27,0,0,0-5.26-5.27"/><g class="cls-20"><path class="cls-7" d="M614.17,403.88h0a27.47,27.47,0,0,1,27.46,27.47h0a27.47,27.47,0,0,1-27.46,27.47h0a27.47,27.47,0,0,1,0-54.94h0m0-2.36a29.92,29.92,0,0,0-5.47.5,29.82,29.82,0,1,0,31,14,30.09,30.09,0,0,0-9-9.47,29.78,29.78,0,0,0-16.52-5"/><path class="cls-21" d="M614.17,413.2a18.15,18.15,0,1,0,18.15,18.15h0a18.15,18.15,0,0,0-18.15-18.15"/><path class="cls-10" d="M641.64,431.35h0m-27.46-27.47h0a27.47,27.47,0,0,0,0,54.94h0a27.47,27.47,0,0,0,27.46-27.47h-9.32A18.15,18.15,0,1,1,627,418.52a18,18,0,0,1,5.31,12.83h9.32a27.47,27.47,0,0,0-27.46-27.47"/><path class="cls-7" d="M692.81,575.84v-.05h34.86v55h0v43.82h-60.2v-98.8h25.39M735.24,570H659.79V680.51h75.45V570"/><path class="cls-21" d="M718.3,630.82H702.18v34.51H718.3V630.82m-25.49,0H676.74v34.55h16.12V630.82h-.05v0m25.45-45.58h-16v36.21h16V585.2m-25.45,0H676.74v36.3h16.07v-36.3"/><polyline class="cls-10" points="667.42 621.46 667.42 621.46 667.42 674.64 727.62 674.64 692.86 674.64 692.86 665.33 676.74 665.33 676.74 630.78 692.81 630.78 667.42 630.78 667.42 621.46"/><path class="cls-10" d="M723,670h0v0h0m4.66-39.17H718.3v34.51H702.18V630.82h-9.32v43.82h34.76V630.82"/><path class="cls-10" d="M702.22,621.41V585.2h16v36.21h-16m16.08-36.25H692.81v36.3H718.3v-36.3m9.37-9.37H692.81v.05h34.81v50.28h0v4.66H692.81v0h34.86v-55"/><path class="cls-10" d="M723,626.12h0v0h0m-30.15-41H718.3v36.3H676.74v-36.3h16.07m34.81-9.32h-60.2v54.94h60.2V575.84"/><polyline class="cls-7" points="565.92 568.6 476.43 568.6 476.43 719.12 484.51 719.12 484.51 719.02 484.33 719.02 484.33 576.01 558.02 576.01 558.02 719.02 557.74 719.02 557.74 719.12 565.92 719.12 565.92 710.77 565.92 701.72 565.92 683.87 565.92 674.82 565.92 656.97 565.92 647.91 565.92 630.06 565.92 621.01 565.92 603.16 565.92 594.1 565.92 568.6"/><polyline class="cls-10" points="558.02 576.01 484.33 576.01 484.33 719.02 484.51 719.02 484.51 711.5 484.43 711.5 484.43 576.6 557.92 576.6 557.92 711.5 557.74 711.5 557.74 719.02 558.02 719.02 558.02 576.01"/><polyline class="cls-22" points="557.74 719.02 484.51 719.02 484.51 719.12 557.74 719.12 557.74 719.02"/><polyline class="cls-16" points="557.74 705.52 554.51 705.6 554.51 719.02 487.84 719.02 487.84 707.24 484.51 707.32 484.51 711.5 484.51 719.02 557.74 719.02 557.74 711.5 557.74 705.52"/><polyline class="cls-14" points="554.51 705.6 487.84 707.24 487.84 719.02 554.51 719.02 554.51 705.6"/></g><g id="_03" data-name="03"><g id="woodstack_smallest"><g class="cls-23"><g class="cls-23"><g class="cls-23"><path class="cls-24" d="M653.49,719.37c29.33-.11,54.19.19,83.52.9,2.17.06.74.35,29.7,1.5l-.39,8.25s-19.62-.08-44.7-1c-14.88-.57-67.83.06-67.83.06l-.3-9.66"/><path class="cls-24" d="M672.15,710.78c13.88-1.35,24.47-2.22,35.34-2.41,2.07,0-4,.06-1.61.08,8.38.08,11.8,0,21.79.11,9.2.07,16.75.19,21.79.28-.08,5.58-.15,7.8-.23,13.37,0,0-19.14-.22-45.34-1.19a196.73,196.73,0,0,0-30.95,1.64c-.26-5.08-.53-6.8-.79-11.88"/><g class="cls-25"><g class="cls-26"><path class="cls-27" d="M653.62,723.66c27.81-.07,55.81.34,83.61,1.21,16.95.54,12.28,1.24,29.23,2.12l-.14,3s-19.62-.08-44.7-1c-14.88-.57-67.83.06-67.83.06,0-1.58-.12-3.78-.17-5.37"/></g></g><g class="cls-25"><g class="cls-28"><path class="cls-27" d="M672.36,714.2c11-.28,20.14-.48,26.54-.61,16.67-.36,29.21-.57,45.14-.26l5.35.12c0,2.52-.1,5-.14,7.57-4-.32-10.11-.75-17.68-1.07-10.88-.46-18.21-.39-34.68-.45-5.66,0-14-.06-24.15-.14l-.38-5.16"/></g></g></g></g></g></g><g id="Möbel"><g id="Stuhl"><rect class="cls-4" x="432.7" y="684.2" width="93.49" height="11.69"/><rect class="cls-29" x="432.7" y="684.2" width="93.49" height="1.02"/><rect class="cls-30" x="432.7" y="695.42" width="93.49" height="0.46"/><polygon class="cls-4" points="511.58 684.2 448.77 684.2 437.08 599.48 521.8 599.48 511.58 684.2"/><rect class="cls-4" x="444.39" y="695.88" width="5.84" height="54.05"/><rect class="cls-4" x="513.04" y="695.88" width="5.84" height="54.05"/><polygon class="cls-31" points="450.23 717.82 444.38 722.8 444.38 695.88 450.23 695.88 450.23 717.82"/><polygon class="cls-31" points="518.88 717.82 513.04 722.8 513.04 695.88 518.88 695.88 518.88 717.82"/></g><g id="Tisch"><rect class="cls-4" x="266.81" y="645.64" width="329.53" height="11.53"/><rect class="cls-32" x="266.81" y="645.64" width="329.53" height="0.75"/><rect class="cls-33" x="266.81" y="656.84" width="329.53" height="0.33"/><rect class="cls-4" x="296.47" y="657.18" width="11.53" height="103.8"/><rect class="cls-4" x="296.47" y="657.18" width="11.53" height="103.8"/><rect class="cls-4" x="555.98" y="658" width="11.53" height="103.8"/><rect class="cls-4" x="555.98" y="657.09" width="11.53" height="104.71"/><polygon class="cls-34" points="567.51 695.67 555.98 704.38 555.98 657.09 567.51 657.09 567.51 695.67"/><polygon class="cls-34" points="307.92 695.67 296.38 704.38 296.38 657.09 307.92 657.09 307.92 695.67"/></g></g><g id="stove"><g id="stove-2" data-name="stove"><rect class="cls-35" x="747.08" y="579.67" width="261.47" height="10.17"/><rect class="cls-36" x="747.08" y="586.62" width="261.47" height="3.22"/><rect class="cls-35" x="758.62" y="589.84" width="238.42" height="14.81"/><rect class="cls-36" x="758.62" y="600.65" width="238.42" height="3.99"/><polygon class="cls-35" points="758.62 604.64 997.04 604.64 980.08 616.12 776.07 616.12 758.62 604.64"/><polygon class="cls-36" points="776.07 616.12 769.27 611.64 986.69 611.64 980.08 616.12 776.07 616.12"/><rect class="cls-35" x="776.1" y="616.12" width="47.39" height="119.69"/><rect class="cls-35" x="932.43" y="616.12" width="47.45" height="119.69"/><rect class="cls-36" x="782.63" y="616.12" width="6.18" height="119.69"/><rect class="cls-36" x="801.72" y="616.12" width="6.18" height="119.69"/><rect class="cls-36" x="946.84" y="616.12" width="6.18" height="119.69"/><rect class="cls-36" x="965.93" y="616.12" width="6.18" height="119.69"/></g><g class="cls-37"><g id="light"><circle class="cls-38" cx="877.05" cy="702.64" r="106.26"/><circle class="cls-39" cx="877.05" cy="702.64" r="73.15"/><circle class="cls-40" cx="877.05" cy="702.64" r="59.2"/><circle class="cls-41" cx="877.05" cy="701.64" r="44.62"/></g></g><g id="wood"><path class="cls-39" d="M909.25,718.4h-30s7.56.13,7.56,7.69-7.56,9.07-7.56,9.07h30s-6-2.46-6-8.38S909.25,718.4,909.25,718.4Z"/><path class="cls-39" d="M844.92,718.28l33.33.12a8.32,8.32,0,0,0-8.2,7.56,8.21,8.21,0,0,0,2.67,7,13.79,13.79,0,0,0,5.53,2.17h0l-33.64,0a8.42,8.42,0,0,0,5.9-2.87,8.54,8.54,0,0,0,1.78-5.58,8.39,8.39,0,0,0-1.32-5A8.64,8.64,0,0,0,844.92,718.28Z"/><path class="cls-42" d="M879.28,718.42a8.62,8.62,0,0,1,5.34,1.92,7.61,7.61,0,0,1,1.6,2c1.9,3.49.15,7.34,0,7.6a8.65,8.65,0,0,1-14.54,2.22,8.45,8.45,0,0,1,1.59-12.23A9.12,9.12,0,0,1,879.28,718.42Z"/><path class="cls-42" d="M911.28,718.42a8.62,8.62,0,0,1,5.34,1.92,7.41,7.41,0,0,1,1.6,2c1.9,3.49.15,7.34,0,7.6-.27.56-2.3,4.66-7,5.2a9.18,9.18,0,0,1-7.58-3,8.45,8.45,0,0,1,1.59-12.23A9.13,9.13,0,0,1,911.28,718.42Z"/><path class="cls-42" d="M845.28,718.42a8.62,8.62,0,0,1,5.34,1.92,7.61,7.61,0,0,1,1.6,2c1.9,3.49.14,7.34,0,7.6a8.66,8.66,0,0,1-14.55,2.22,8.52,8.52,0,0,1-1.69-7.31,8.35,8.35,0,0,1,3.29-4.92A9.12,9.12,0,0,1,845.28,718.42Z"/></g><g id="fire"><path class="cls-43" d="M878.8,718.32l7.76-1.27c5.19-.85,6.33-1,7.92-1.9a11,11,0,0,0,5.23-5.07c1.2-2.68.65-5.19,0-8.23a27,27,0,0,0-3.8-9,9.45,9.45,0,0,1,.16,4.44,7.89,7.89,0,0,1-6.34,6.33,20.16,20.16,0,0,0,2.85-5.54,21.59,21.59,0,0,0,.95-8.4,26.57,26.57,0,0,0-1.9-8.55q-2.22-3.32-4.43-6.65l-4-7.28a40.54,40.54,0,0,1,2.21,8.71c.49,3.48.23,5-.31,6.17a8.56,8.56,0,0,1-2.69,3.33,27.68,27.68,0,0,0-1.59-3c-2.75-4.54-4.53-4.6-5.22-7.13s.81-3.18,1-7.92a23.45,23.45,0,0,0-.48-5.38l-2.22,6.18a15.7,15.7,0,0,0-2.21,4.59,16.41,16.41,0,0,0,0,9.18l-3.33-3.8a5.71,5.71,0,0,1-3.17-6.81,13.87,13.87,0,0,0-1.74,5.23,16.86,16.86,0,0,0,.63,6.33c.62,2.35,1.16,2.79,1.43,4.76a13,13,0,0,1-.16,4.43,12.56,12.56,0,0,0-1.9-1.74c-1.53-1.15-2.51-1.33-4-2.54a10.9,10.9,0,0,1-1.42-1.42l-.48-2.54a8.43,8.43,0,0,0-1.42,3,8.25,8.25,0,0,0,0,4,29.69,29.69,0,0,1,2.69,6.18,29.1,29.1,0,0,1,1.26,8.71,7.13,7.13,0,0,1-3.48-1.58,7.94,7.94,0,0,1-2.53-6.18,15.1,15.1,0,0,0,.16,7.13A15.47,15.47,0,0,0,857,710.4c3.31,4.27,8,5.58,11.88,6.65A34.55,34.55,0,0,0,878.8,718.32Z"/><path class="cls-44" d="M869.2,663.39A8.11,8.11,0,0,1,869,666c-.57,2.35-1.86,2.81-2,4.58s1,3.8,1.83,3.75c.56,0,.92-1,1.19-1.83a10.5,10.5,0,0,0,.28-5.22A17,17,0,0,0,869.2,663.39Z"/><path class="cls-44" d="M868.83,682.08c-.23.26,1.36,1.33,2.11,3.76a9.32,9.32,0,0,1,.18,4.39c-.46,3-1.58,3.53-3.2,7.42-1.1,2.64-1.92,4.59-1.84,7.24a12.85,12.85,0,0,0,1.75,6,12.27,12.27,0,0,0,7,5.77,12,12,0,0,0,7.69-.36,6.26,6.26,0,0,1-.36-2.75c.17-1.75,1.11-2.89,4.67-6.69,3.21-3.42,4.15-4.31,4.76-6.13a9.77,9.77,0,0,0,.46-3.76,5.26,5.26,0,0,1-4.21,1.83,7.47,7.47,0,0,0,3.48-2.56c1.31-1.84,1.3-3.86,1.28-6.42a22.45,22.45,0,0,0-.73-5.49,5.66,5.66,0,0,1-5.59,7.05c-.06-.41-.14-1.08-.18-1.92-.13-2.5.23-3.47,0-5.18a10.27,10.27,0,0,0-.94-3.07c.13.35,1.3,3.59-.55,6.05a5.28,5.28,0,0,1-1.74,1.47,13.71,13.71,0,0,1-1.74-4.22,17.52,17.52,0,0,1-.09-6,47.1,47.1,0,0,1,1.37-7.51,56,56,0,0,0-3.85,6.41c-1.32,2.59-2,3.92-2.29,5.77a13.52,13.52,0,0,0,1.1,7.6,3.63,3.63,0,0,1-2.84-1c-.8-1-.26-2-.64-3.48C873.17,683.29,869.17,681.69,868.83,682.08Z"/><path class="cls-44" d="M879.83,668.61c-.18,0-.41-1.16-.28-2.65.18-2,.86-2.84,1.19-4.12a8,8,0,0,0-.82-5.5,5.53,5.53,0,0,1,1.92,1.56,6.87,6.87,0,0,1,1.19,4c.11,1.28.17,2.11-.37,2.75s-.9.36-1.55.91C879.84,666.66,880.05,668.63,879.83,668.61Z"/><path class="cls-45" d="M873.32,699.12a15.86,15.86,0,0,1,.18,2.2c0,2.26-.4,3-.27,4.76a5.81,5.81,0,0,0,.92,3.3c1.52,2,4.7,1.7,5.22,1.65a15.11,15.11,0,0,0,2.1-8.52c-.3-1.25-.61-2.51-.91-3.76a18,18,0,0,1-.55,2.66c-.25.88-.51,1.74-.83,1.74-.11,0-.35-.12-.64-1.19q-.54-2.57-1.1-5.13a15.81,15.81,0,0,1-.55,3c-.4,1.42-.72,2.57-1.28,2.66C874.65,702.65,873.49,699.58,873.32,699.12Z"/></g></g></g></g></g></svg>