<svg xmlns="http://www.w3.org/2000/svg" xmlns:xlink="http://www.w3.org/1999/xlink" viewBox="0 0 1920 1080"><defs><style>.cls-1{fill:none;}.cls-2{clip-path:url(#clip-path);}.cls-3{clip-path:url(#clip-path-2);}.cls-4{clip-path:url(#clip-path-3);}.cls-5{fill:#846e63;}.cls-6{clip-path:url(#clip-path-4);}.cls-7{fill:#8e8e8e;}.cls-8{fill:#594f4a;}.cls-9{clip-path:url(#clip-path-5);}.cls-10{clip-path:url(#clip-path-6);}.cls-11{clip-path:url(#clip-path-7);}.cls-12{clip-path:url(#clip-path-8);}.cls-13{clip-path:url(#clip-path-9);}.cls-14{clip-path:url(#clip-path-10);}.cls-15{fill:#c59b6c;}.cls-16{clip-path:url(#clip-path-11);}.cls-17{fill:#8c6339;}.cls-18{fill:#fff;}.cls-19{fill:#29aae2;}.cls-20{fill:#5f3917;}.cls-21{clip-path:url(#clip-path-13);}.cls-22{fill:#8c6239;}.cls-23{clip-path:url(#clip-path-14);}.cls-24{clip-path:url(#clip-path-16);}.cls-25{fill:#553418;}.cls-26{fill:#ab8963;}.cls-27{fill:#7c5937;}.cls-28{clip-path:url(#clip-path-17);}.cls-29{fill:#d2d2d2;}</style><clipPath id="clip-path"><polyline class="cls-1" points="154.5 517.73 572.37 517.73 572.37 604.5 154.5 604.5 154.5 517.73"/></clipPath><clipPath id="clip-path-2"><polyline class="cls-1" points="154.5 604.5 572.37 604.5 572.37 517.73 154.5 517.73 154.5 604.5"/></clipPath><clipPath id="clip-path-3"><polyline class="cls-1" points="154.5 517.73 572.37 517.73 572.37 604.5 154.5 604.5 154.5 517.73"/></clipPath><clipPath id="clip-path-4"><polyline class="cls-1" points="155.51 603.4 572.04 603.4 572.04 593.02 155.51 593.02 155.51 603.4"/></clipPath><clipPath id="clip-path-5"><polyline class="cls-1" points="162.22 588.53 564.95 588.53 564.95 573.11 162.22 573.11 162.22 588.53"/></clipPath><clipPath id="clip-path-6"><polyline class="cls-1" points="166.45 562.23 555.79 562.23 555.79 552.14 166.45 552.14 166.45 562.23"/></clipPath><clipPath id="clip-path-7"><polyline class="cls-1" points="175.97 544.98 547.47 544.98 547.47 535.25 175.97 535.25 175.97 544.98"/></clipPath><clipPath id="clip-path-8"><polyline class="cls-1" points="181.77 533.24 542.03 533.24 542.03 522.62 181.77 522.62 181.77 533.24"/></clipPath><clipPath id="clip-path-9"><polyline class="cls-1" points="798.66 433.31 1056.67 433.31 1056.67 646.69 798.66 646.69 798.66 433.31"/></clipPath><clipPath id="clip-path-10"><polyline class="cls-1" points="798.66 646.69 1056.67 646.69 1056.67 433.31 798.66 433.31 798.66 646.69"/></clipPath><clipPath id="clip-path-11"><polyline class="cls-1" points="832.52 646.49 1020.99 646.49 1020.99 531.21 832.52 531.21 832.52 646.49"/></clipPath><clipPath id="clip-path-13"><polyline class="cls-1" points="798.66 541.27 1056.67 541.27 1056.67 441.02 798.66 441.02 798.66 541.27"/></clipPath><clipPath id="clip-path-14"><polyline class="cls-1" points="808.73 533.56 1046.69 533.46 927.67 440.63 808.73 533.56"/></clipPath><clipPath id="clip-path-16"><polyline class="cls-1" points="910.67 533.46 1046.69 533.46 1046.69 441.02 910.67 441.02 910.67 533.46"/></clipPath><clipPath id="clip-path-17"><polyline class="cls-1" points="832.52 560.48 1020.99 560.48 1020.99 533.5 832.52 533.5 832.52 560.48"/></clipPath></defs><title>Life02</title><g id="Isolation_Mode" data-name="Isolation Mode"><g class="cls-2"><g class="cls-3"><g class="cls-4"><path class="cls-5" d="M154.5,585.26q136.5-.32,273,1.63,72.46,1,144.92,2.7l-1.21,14.91s-127.51-.14-205.32-1.89c-46.16-1-210.4.11-210.4.11q-.47-8.73-.94-17.46"/><path class="cls-5" d="M160.42,563.66q118.65-6.74,237-3.4c2.56.08,20.88,1,45.66,1.67,20.09.57,42.89,1.19,69.23.87,12.23-.14,30.36-.56,52.62-1.83q-.35,15.12-.71,30.23s-126-.41-207.29-2.16c-48.21-1-194.09,2.16-194.09,2.16q-1.22-13.77-2.44-27.54"/><path class="cls-5" d="M165.46,546.89a1001.33,1001.33,0,0,1,165.83-5.48c34.39,1.78,54.74,6.53,95.86,5.7,32.75-.66,114.2-3.81,127.71-4.82l.41,19.73c-25.5,1.58-64,3.47-111.17,3.78-52.41.34-78.76-1.53-126.61-2.15-35.91-.46-87.54-.27-150.88,3q-.57-9.9-1.15-19.79"/><path class="cls-5" d="M175.42,530.06c13.67,1.25,93,2.71,163,4.44,27,.67,101.18.56,112.27.33,31.35-.64,83.28-1.47,96.21-2.46V546c-24.41,1.55-61.32,3.4-106.42,3.7-49.64.33-78.25-6-124.51-6.69-34.32-.48-80.25,4.18-140.59,7v-20"/><path class="cls-5" d="M181.24,520.06c20.88,0,52.9.12,92.09.3,84.59.4,109.07.86,150.4.44,28-.28,68.48-1,117.95-3.07q-.28,9.15-.56,18.31c-22.34,1.64-58.4,3.73-103.09,3.69-54.9,0-79.72-3.27-131.65-3.86-28.65-.33-71.74.08-125.14,4.2v-20"/><g class="cls-6"><path class="cls-7" d="M571.6,599l-.35,4.37h.44L572,599h-.44"/><path class="cls-8" d="M175.07,593H155.51c.15,2.86.31,5.72.46,8.59,0,0,77.88-.55,141.45-.55,28.75,0,54.58.11,68.95.44,75.14,1.69,196.64,1.88,204.88,1.89l.35-4.37q-78.66-2.38-157.33-3.83Q294.69,593,175.07,593"/></g><g class="cls-9"><path class="cls-7" d="M564.63,574.78q-.17,6.87-.32,13.74h.47c0-1.81,0-3.62,0-5.45,0-2.78.08-5.55.13-8.29h-.32"/><path class="cls-8" d="M373.18,573.11h-2.81c-69.53,0-138.44.39-208.16,1.51l.74,9.58,23.88,0q86.23,0,172.48.91,102.51,1.06,205,3.43.15-6.87.32-13.74c-26.66-.53-68.19-1.22-119.66-1.51-6.27,0-24.21-.12-47-.15h-24.8"/></g><g class="cls-10"><path class="cls-7" d="M555.64,552.91l-.56,0,.16,7.45h.55l-.15-7.47"/><path class="cls-8" d="M352.72,552.14h-3.88c-48,.12-65.8,2.5-117.51,2.63h-4.14c-25.8,0-46.88-.57-60.74-1.06.17,2.84.33,5.67.5,8.51,94.63-1.35,135.48-1.72,154.7-1.78,11.1,0,20.62-.05,39.81-.14s25.35-.15,31.85-.15H398c7.93,0,15.13.14,21.46.26,14.1.28,24.46.69,26.36.76,5,.19,12.48.32,23.91.32,17.58,0,44.41-.3,85.47-1.12l-.16-7.45c-32.12,1.26-60.8,1.69-85.33,1.69-12.83,0-24.52-.12-35-.29-44.25-.74-47.42-2.18-82.06-2.2"/></g><g class="cls-11"><path class="cls-7" d="M547.47,535.25l-.53,0v6.31l.51,0c0-2.11,0-4.21,0-6.32m0,0h0"/><path class="cls-8" d="M546.94,535.29l-5.81.43V536c-22.14,1.62-57.79,3.7-101.94,3.7H438c-3.72,0-7.3,0-10.77-.05-33.54-.07-58.93-1.31-88.26-2.29-18-.6-39.64-1.17-64.5-1.51-25.46.3-57,1.39-93.26,4.19v-4.24l-5.27.07v0c0,3,0,6,.05,9,42.93-2.52,80.14-3.27,110.21-3.27,11.1,0,21.23.1,30.31.25,46.59.79,72.92,3,122.42,3h6.78c42.69-.17,77.74-1.89,101.2-3.37v-6.31"/><path class="cls-8" d="M541.13,535.72c-22.9,1.64-55,3.42-93.41,3.87-6,.07-11.74.1-17.25.1h-3.21c3.47,0,7.05.05,10.77.05h1.15c44.15,0,79.8-2.08,101.94-3.7v-.32m-314.69-.17q-21.48,0-45.2.28v4.24c36.28-2.8,67.8-3.89,93.26-4.19-14.88-.21-30.93-.33-48.06-.33"/></g><g class="cls-12"><path class="cls-7" d="M542,522.62l-.5,0-.27,9,.49,0,.28-9m0,0h0"/><path class="cls-8" d="M541.53,522.64c-49.14,2-89.41,2.76-117.27,3-11.63.12-21.92.17-32.59.17-27.29,0-57-.32-117.81-.61-39.18-.18-71.21-.26-92.09-.3v4.39c10.3-.27,25.73-.65,44.5-1,33.54-.62,59.51-.8,65.85-.83l6,0c53.85,0,79,3.77,134.08,5.24,10.94.29,23.82.51,38.44.52h1.15c20.12,0,43.46-.43,69.47-1.63l.27-9"/></g></g></g></g><g class="cls-13"><g class="cls-14"><polyline class="cls-15" points="832.52 646.49 1020.99 646.49 1020.99 531.21 832.52 531.21 832.52 646.49"/><g class="cls-16"><polyline class="cls-17" points="832.51 639.11 1026.48 639.11 1026.48 640.44 832.51 640.44"/><polyline class="cls-17" points="832.51 625.08 1026.48 625.08 1026.48 626.41 832.51 626.41"/><polyline class="cls-17" points="832.51 611.05 1026.48 611.05 1026.48 612.39 832.51 612.39"/><polyline class="cls-17" points="832.51 597.02 1026.48 597.02 1026.48 598.36 832.51 598.36"/><polyline class="cls-17" points="832.51 583 1026.48 583 1026.48 584.33 832.51 584.33"/><polyline class="cls-17" points="832.51 568.97 1026.48 568.97 1026.48 570.3 832.51 570.3"/><polyline class="cls-17" points="832.52 554.94 1026.48 554.94 1026.48 556.27 832.52 556.27 832.52 554.94"/><polyline class="cls-17" points="832.52 540.91 1026.48 540.91 1026.48 542.24 832.52 542.24 832.52 540.91"/></g><rect class="cls-18" x="951.45" y="568.72" width="39.34" height="57.64"/><rect class="cls-19" x="957.86" y="574.21" width="26.53" height="46.66"/><polygon points="984.39 620.87 984.39 621.55 957.17 621.55 957.17 573.52 985.08 573.52 985.08 621.55 984.39 621.55 984.39 620.87 983.71 620.87 983.71 574.89 958.54 574.89 958.54 620.18 984.39 620.18 984.39 620.87 983.71 620.87 984.39 620.87"/><polygon points="984.39 620.87 984.39 621.35 957.38 621.35 957.38 597.51 984.87 597.51 984.87 621.35 984.39 621.35 984.39 620.87 983.91 620.87 983.91 598.48 958.34 598.48 958.34 620.39 984.39 620.39 984.39 620.87 983.91 620.87 984.39 620.87"/><polygon class="cls-20" points="984.39 620.87 984.39 621.55 957.17 621.55 957.17 597.31 985.08 597.31 985.08 621.55 984.39 621.55 984.39 620.87 983.71 620.87 983.71 598.68 958.54 598.68 958.54 620.18 984.39 620.18 984.39 620.87 983.71 620.87 984.39 620.87"/><polygon class="cls-20" points="984.39 620.87 984.39 621.55 970.44 621.55 970.44 597.31 985.08 597.31 985.08 621.55 984.39 621.55 984.39 620.87 983.71 620.87 983.71 598.68 971.81 598.68 971.81 620.18 984.39 620.18 984.39 620.87 983.71 620.87 984.39 620.87"/><polygon class="cls-20" points="984.39 598 984.39 598.69 970.43 598.69 970.43 573.51 985.08 573.51 985.08 598.69 984.39 598.69 984.39 598 983.7 598 983.7 574.9 971.82 574.9 971.82 597.3 984.39 597.3 984.39 598 983.7 598 984.39 598"/><polygon class="cls-20" points="984.39 598 984.39 598.68 957.17 598.68 957.17 573.52 985.08 573.52 985.08 598.68 984.39 598.68 984.39 598 983.71 598 983.71 574.89 958.54 574.89 958.54 597.31 984.39 597.31 984.39 598 983.71 598 984.39 598"/><rect class="cls-18" x="855.85" y="568.01" width="46.66" height="78.68"/><rect class="cls-20" x="859.96" y="571.87" width="38.43" height="74.57"/><rect class="cls-15" x="861.79" y="574.16" width="34.77" height="72.28"/><g class="cls-13"><path class="cls-20" d="M892,610.29a2.74,2.74,0,1,1-2.74-2.74,2.74,2.74,0,0,1,2.74,2.74"/><polyline class="cls-20" points="927.67 433.31 798.66 533.56 1056.67 533.56 927.67 433.31"/><g class="cls-21"><path class="cls-15" d="M1021,537.61l-27.18,3.3H1021v-3.3m-188.47-4.05h0v0"/><path class="cls-22" d="M832.52,540.91h0v.36h0v-.36m188.47,0H993.81l-3,.36H1021v-.36"/></g><path class="cls-15" d="M840.87,508.48l-32.29,25.08h23.94v-.07h8.34v-25m16.18-12.58L842.2,507.44v26.05h14.85V495.9m114.62-1.8v39.39H1021v.07h25.76l-.13-.1h-14.7l-11.7-7.64v7.65h-1.33V525L1004,515.24v18.24h-1.34V514.37l-14.85-9.7v28.82h-1.33V503.8l-14.85-9.7m-16.18-10.58v50h14.85V493.23l-14.85-9.71m-82.25-.2-14.86,11.54v38.63h14.85V483.32M939.3,473v60.54h14.85V482.65L939.3,473m-49.88-2.21-14.85,11.54v51.21h14.86V470.74m33.7-8.36v71.11H938V472.08l-14.85-9.7m-17.52-4.21-14.85,11.54v63.78H905.6V458.17m16.19-12.58-14.85,11.54v76.36h14.85v-72l-11.12-7.27,11.12-8.65h0m5.88-4.57h0l-4.55,3.53h0l4.55-3.54"/></g><g class="cls-23"><polyline class="cls-17" points="809.85 339.08 809.83 533.46 808.5 533.46 808.52 339.08"/><polyline class="cls-17" points="826.03 339.31 826.01 533.66 824.68 533.66 824.7 339.31"/><polyline class="cls-17" points="842.22 339.53 842.2 533.87 840.86 533.87 840.88 339.53 842.22 339.53"/><polyline class="cls-17" points="858.4 339.76 858.38 534.07 857.05 534.07 857.07 339.76 858.4 339.76"/><polyline class="cls-17" points="874.58 339.99 874.56 534.27 873.23 534.27 873.25 339.99 874.58 339.99"/><polyline class="cls-17" points="890.76 340.22 890.75 534.47 889.41 534.47 889.43 340.22 890.76 340.22"/><polyline class="cls-17" points="906.95 340.45 906.93 534.67 905.6 534.67 905.61 340.45 906.95 340.45"/><polyline class="cls-17" points="923.13 340.68 923.12 534.88 921.78 534.88 921.8 340.68 923.13 340.68"/><polyline class="cls-17" points="939.31 340.91 939.3 535.08 937.97 535.08 937.98 340.91 939.31 340.91"/><polyline class="cls-17" points="955.49 341.13 955.48 535.28 954.15 535.28 954.16 341.13 955.49 341.13"/><polyline class="cls-17" points="971.68 341.36 971.67 535.48 970.34 535.48 970.34 341.36 971.68 341.36"/><polyline class="cls-17" points="987.86 341.59 987.85 535.69 986.52 535.69 986.53 341.59 987.86 341.59"/><polyline class="cls-17" points="1004.04 341.82 1004.04 535.89 1002.7 535.89 1002.71 341.82 1004.04 341.82"/><polyline class="cls-17" points="1020.22 342.05 1020.22 536.09 1018.89 536.09 1018.89 342.05 1020.22 342.05"/><polyline class="cls-17" points="1036.41 342.28 1036.4 536.29 1035.07 536.29 1035.07 342.28 1036.41 342.28"/><polyline class="cls-17" points="1052.59 342.51 1052.59 536.49 1051.26 536.49 1051.26 342.51"/></g><g class="cls-13"><g class="cls-24"><path class="cls-25" d="M1036.4,525.47v0l10.22,7.94h.07l-10.29-8m-16.18-12.57V513l14.85,11.54v0l-14.85-11.54M1004,500.33v0l14.85,11.54v0L1004,500.33m-16.19-12.57v0l14.85,11.54v0l-14.85-11.54M971.67,475.2v0l14.85,11.54v0L971.67,475.2m-16.18-12.57h0l14.85,11.54v0l-14.85-11.53m-16.18-12.57h0l14.84,11.54v0l-14.84-11.53m-11.64-9h0l10.3,8h0l-10.3-8"/><path class="cls-26" d="M1036.4,525.52v7.94h10.22l-10.22-7.94M1020.22,513v12.87l11.7,7.64h3.15v-9L1020.22,513M1004,500.37v14.87l14.85,9.71v-13L1004,500.37m-16.19-12.58v16.88l14.85,9.7v-15l-14.85-11.54m-16.18-12.57V494.1l14.85,9.7v-17l-14.85-11.54m-16.18-12.58v20.88l14.85,9.71V474.18l-14.85-11.54m-16.18-12.57V473l14.85,9.7v-21l-14.84-11.54m-17.52-4.48-11.12,8.65,11.12,7.27V445.59m5.88-4.57h0l-4.55,3.54v17.82l14.85,9.7V449l-10.3-8"/><polyline class="cls-27" points="923.12 444.56 921.79 445.59 921.79 461.51 923.12 462.38 923.12 444.56"/><polyline class="cls-27" points="937.97 449.02 937.97 449.03 937.97 472.08 939.3 472.95 939.3 450.07 939.3 450.06 937.97 449.02"/><polyline class="cls-27" points="954.15 461.59 954.15 461.61 954.15 482.65 955.49 483.52 955.49 462.64 955.49 462.63 954.15 461.59"/><polyline class="cls-27" points="970.34 474.16 970.34 474.18 970.34 493.23 971.67 494.1 971.67 475.22 971.67 475.2 970.34 474.16"/><polyline class="cls-27" points="986.52 486.73 986.52 486.76 986.52 503.8 987.85 504.67 987.85 487.79 987.85 487.76 986.52 486.73"/><polyline class="cls-27" points="1002.7 499.3 1002.7 499.33 1002.7 514.37 1004.04 515.25 1004.04 500.37 1004.04 500.33 1002.7 499.3"/><polyline class="cls-27" points="1018.89 511.87 1018.89 511.91 1018.89 524.95 1020.22 525.82 1020.22 512.95 1020.22 512.9 1018.89 511.87"/><polyline class="cls-27" points="1035.07 524.43 1035.07 524.49 1035.07 533.46 1036.4 533.46 1036.4 525.52 1036.4 525.47 1035.07 524.43"/></g><path class="cls-18" d="M943.22,496.44a15.56,15.56,0,1,1-15.55-15.55,15.55,15.55,0,0,1,15.55,15.55"/><path class="cls-19" d="M939.56,496.44a11.9,11.9,0,1,1-11.89-11.89,11.89,11.89,0,0,1,11.89,11.89"/><path class="cls-20" d="M939.56,496.44h.69a12.58,12.58,0,1,1-12.58-12.58,12.58,12.58,0,0,1,12.58,12.58h-1.38a11.2,11.2,0,1,0-3.28,7.93,11.15,11.15,0,0,0,3.28-7.93Z"/><g class="cls-28"><path class="cls-26" d="M867.23,556.27H832.52v4.21l34.71-4.21m115.6-14H832.52v12.7h45.69l104.62-12.7"/><polyline class="cls-27" points="878.21 554.94 832.52 554.94 832.52 556.27 867.23 556.27 878.21 554.94"/><polyline class="cls-27" points="990.83 541.27 832.52 541.27 832.52 542.24 982.83 542.24 990.83 541.27"/><polyline class="cls-29" points="1020.99 533.56 1020.99 533.56 1020.99 537.61 1020.99 537.61 1020.99 533.56"/><polyline class="cls-26" points="1020.99 533.56 832.52 533.56 832.52 540.91 993.81 540.91 1020.99 537.61 1020.99 533.56"/><polyline class="cls-27" points="993.81 540.91 832.52 540.91 832.52 541.27 990.83 541.27 993.81 540.91"/><polyline class="cls-26" points="1020.99 533.5 970.59 533.5 970.34 533.5 970.34 533.5 955.48 533.5 955.48 533.5 954.15 533.5 954.15 533.5 939.3 533.5 939.3 533.51 937.97 533.51 937.97 533.5 923.12 533.5 923.12 533.51 921.78 533.51 921.78 533.5 906.93 533.5 906.93 533.52 905.6 533.52 905.6 533.5 890.75 533.5 890.75 533.53 889.41 533.53 889.41 533.5 874.56 533.5 874.56 533.53 873.23 533.53 873.23 533.5 858.38 533.5 858.38 533.54 857.05 533.54 857.05 533.5 842.2 533.5 842.2 533.55 840.86 533.55 840.86 533.5 832.52 533.5 832.52 533.56 1020.99 533.56 1020.99 533.5"/><polyline class="cls-27" points="842.2 533.5 840.86 533.5 840.86 533.55 842.2 533.55 842.2 533.5"/><polyline class="cls-27" points="858.38 533.5 857.05 533.5 857.05 533.54 858.38 533.54 858.38 533.5"/><polyline class="cls-27" points="874.56 533.5 873.23 533.5 873.23 533.53 874.56 533.53 874.56 533.5"/><polyline class="cls-27" points="890.75 533.5 889.41 533.5 889.41 533.53 890.75 533.53 890.75 533.5"/><polyline class="cls-27" points="906.93 533.5 905.6 533.5 905.6 533.52 906.93 533.52 906.93 533.5"/><polyline class="cls-27" points="923.12 533.5 921.78 533.5 921.78 533.51 923.12 533.51 923.12 533.5"/><polyline class="cls-27" points="939.3 533.5 937.97 533.5 937.97 533.51 939.3 533.51 939.3 533.5"/><polyline class="cls-27" points="955.48 533.5 954.15 533.5 954.15 533.5 955.48 533.5 955.48 533.5"/><polyline class="cls-27" points="970.59 533.5 970.34 533.5 970.34 533.5 970.59 533.5"/></g></g></g></g></g></svg>