<svg xmlns="http://www.w3.org/2000/svg" xmlns:xlink="http://www.w3.org/1999/xlink" viewBox="0 0 1920 1080"><defs><style>.cls-1{fill:none;}.cls-2{isolation:isolate;}.cls-3{clip-path:url(#clip-path);}.cls-4{clip-path:url(#clip-path-3);}.cls-5{fill:#8c7263;}.cls-25,.cls-29,.cls-36,.cls-39,.cls-6{mix-blend-mode:multiply;}.cls-7{clip-path:url(#clip-path-4);}.cls-8{fill:#989492;}.cls-9{clip-path:url(#clip-path-6);}.cls-10{clip-path:url(#clip-path-8);}.cls-11{clip-path:url(#clip-path-9);}.cls-12{clip-path:url(#clip-path-10);}.cls-13{clip-path:url(#clip-path-11);}.cls-14{clip-path:url(#clip-path-12);}.cls-15{clip-path:url(#clip-path-14);}.cls-16{clip-path:url(#clip-path-15);}.cls-17{clip-path:url(#clip-path-16);}.cls-18{clip-path:url(#clip-path-17);}.cls-19{clip-path:url(#clip-path-19);}.cls-20{clip-path:url(#clip-path-21);}.cls-21{clip-path:url(#clip-path-22);}.cls-22{clip-path:url(#clip-path-23);}.cls-23{fill:#ce2d17;}.cls-24{fill:#473e42;}.cls-25{opacity:0.41;}.cls-26{clip-path:url(#clip-path-26);}.cls-27{fill:#998f94;}.cls-28{fill:#ecb752;}.cls-29{opacity:0.47;}.cls-30{clip-path:url(#clip-path-27);}.cls-31{fill:#a09fa0;}.cls-32{clip-path:url(#clip-path-28);}.cls-33{clip-path:url(#clip-path-29);}.cls-34{fill:#211d20;}.cls-35{fill:#fff;}.cls-36{opacity:0.38;}.cls-37{clip-path:url(#clip-path-30);}.cls-38{fill:#938f91;}.cls-39{opacity:0.61;}.cls-40{clip-path:url(#clip-path-31);}.cls-41{fill:#dfe0e1;}</style><clipPath id="clip-path"><rect class="cls-1" x="161.59" y="303.81" width="407.32" height="169.82"/></clipPath><clipPath id="clip-path-3"><rect class="cls-1" x="161.59" y="358.59" width="274.45" height="56.99"/></clipPath><clipPath id="clip-path-4"><rect class="cls-1" x="161.8" y="408.03" width="273.57" height="6.82"/></clipPath><clipPath id="clip-path-6"><rect class="cls-1" x="166.46" y="394.96" width="264.51" height="10.13"/></clipPath><clipPath id="clip-path-8"><rect class="cls-1" x="172.48" y="381.19" width="255.71" height="6.62"/></clipPath><clipPath id="clip-path-9"><rect class="cls-1" x="172.48" y="381.19" width="255.71" height="6.62"/></clipPath><clipPath id="clip-path-10"><rect class="cls-1" x="177.94" y="370.09" width="243.99" height="6.39"/></clipPath><clipPath id="clip-path-11"><rect class="cls-1" x="177.94" y="370.09" width="243.99" height="6.39"/></clipPath><clipPath id="clip-path-12"><rect class="cls-1" x="181.52" y="361.8" width="236.6" height="6.97"/></clipPath><clipPath id="clip-path-14"><rect class="cls-1" x="161.59" y="330.09" width="274.45" height="56.99"/></clipPath><clipPath id="clip-path-15"><rect class="cls-1" x="161.8" y="379.54" width="273.57" height="6.82"/></clipPath><clipPath id="clip-path-16"><rect class="cls-1" x="161.8" y="379.54" width="273.57" height="6.82"/></clipPath><clipPath id="clip-path-17"><rect class="cls-1" x="166.46" y="366.46" width="264.51" height="10.13"/></clipPath><clipPath id="clip-path-19"><rect class="cls-1" x="172.48" y="352.69" width="255.71" height="6.62"/></clipPath><clipPath id="clip-path-21"><rect class="cls-1" x="177.94" y="341.6" width="243.99" height="6.39"/></clipPath><clipPath id="clip-path-22"><rect class="cls-1" x="177.94" y="341.6" width="243.99" height="6.39"/></clipPath><clipPath id="clip-path-23"><rect class="cls-1" x="181.52" y="333.3" width="236.6" height="6.97"/></clipPath><clipPath id="clip-path-26"><rect class="cls-1" x="207.55" y="414.13" width="215.09" height="7.31"/></clipPath><clipPath id="clip-path-27"><rect class="cls-1" x="471.32" y="406.11" width="72.94" height="36.47"/></clipPath><clipPath id="clip-path-28"><rect class="cls-1" x="278.62" y="414.12" width="72.94" height="27.14"/></clipPath><clipPath id="clip-path-29"><rect class="cls-1" x="209.83" y="414.12" width="72.94" height="27.14"/></clipPath><clipPath id="clip-path-30"><rect class="cls-1" x="448.28" y="419.87" width="4.31" height="22.71"/></clipPath><clipPath id="clip-path-31"><rect class="cls-1" x="453.95" y="312.9" width="2.25" height="122.72"/></clipPath></defs><title>Life01_swisstruck</title><g class="cls-2"><g id="Layer_1" data-name="Layer 1"><g id="TruckWood"><g class="cls-3"><g class="cls-3"><g class="cls-4"><path class="cls-5" d="M436,402.94q-89.64-.21-179.26,1.07-47.59.67-95.18,1.77l.8,9.8s83.74-.1,134.84-1.25c30.32-.68,138.18.07,138.18.07q.31-5.73.62-11.46"/><path class="cls-5" d="M432.15,388.75q-77.94-4.42-155.68-2.23c-1.67.05-13.71.63-30,1.1-13.2.37-28.17.78-45.47.57-8-.1-19.94-.37-34.56-1.2q.22,9.92.47,19.85s82.76-.27,136.14-1.42c31.66-.68,127.47,1.42,127.47,1.42q.81-9,1.61-18.09"/><path class="cls-5" d="M428.83,377.74a657,657,0,0,0-108.91-3.6c-22.58,1.17-35.95,4.28-63,3.74-21.5-.43-75-2.5-83.87-3.17l-.27,13c16.75,1,42.07,2.28,73,2.49,34.42.22,51.73-1,83.15-1.41,23.59-.31,57.5-.18,99.1,2l.75-13"/><path class="cls-5" d="M422.29,366.69c-9,.82-61.07,1.77-107.08,2.91-17.75.44-66.45.37-73.73.22-20.59-.42-54.7-1-63.19-1.62v9c16,1,40.27,2.23,69.9,2.43,32.59.22,51.38-4,81.77-4.39,22.54-.32,52.7,2.74,92.33,4.61Z"/><path class="cls-5" d="M418.47,360.12c-13.71,0-34.75.07-60.48.19-55.56.27-71.63.57-98.78.29-18.37-.18-45-.66-77.46-2l.36,12c14.67,1.08,38.36,2.45,67.71,2.43,36.06,0,52.36-2.15,86.46-2.54,18.82-.22,47.12.05,82.19,2.76Z"/><g class="cls-6"><g class="cls-7"><g class="cls-7"><path class="cls-8" d="M435.37,408q-85-.12-169.94,1.43-51.83.94-103.63,2.52l.24,2.86s83.74-.09,134.84-1.24c30.32-.68,138.19.07,138.19.07l.3-5.64"/></g></g></g><g class="cls-6"><g class="cls-9"><g class="cls-9"><path class="cls-8" d="M431,396c-51.84-.83-103-1.05-154.84-1-15,0-26.75.07-30.87.09-33.94.19-61.3.65-78.8,1,0,1.8.06,3.62.08,5.45q0,1.8,0,3.57,67.47-1.54,135-2.26,64.49-.68,129-.58Z"/></g></g></g><g class="cls-6"><g class="cls-10"><g class="cls-11"><path class="cls-8" d="M428.18,382.23c-9.58.33-24.42.73-42.6.69-34-.08-45.65-1.65-77.18-1.73-25.19-.06-26.33.94-56.45,1.44-20.06.33-47.09.35-79.37-.94,0,1.64-.07,3.27-.1,4.91,44.75.89,63.9.84,72.2.53,1.25-.05,8-.31,17.31-.5,4.16-.08,8.88-.15,14.1-.17,5.92,0,8.55,0,24,.09,12.61.06,18.87.07,26.16.09,12.62,0,39.44.28,101.6,1.17l.32-5.58"/></g></g></g><g class="cls-6"><g class="cls-12"><g class="cls-13"><path class="cls-8" d="M421.93,370.52c-45.12-.63-81.55.13-107.07,1-23,.76-42.29,1.78-71.41,1.44-27.63-.32-50.32-1.69-65.51-2.85,0,1.39,0,2.77,0,4.15,15.4,1,38.56,2.12,66.8,2.24,35.44.14,52.88-1.45,84.85-2,22.11-.37,53.68-.28,92.29,2l0-6"/></g></g></g><g class="cls-6"><g class="cls-14"><g class="cls-14"><path class="cls-8" d="M418.12,363.32c-13.71,0-34.74.08-60.48.2-55.52.26-71.61.56-98.78.29-18.36-.19-44.92-.66-77.34-2l.18,5.89c30,1.39,54.69,1.2,72,.74,37.48-1,53.87-3.62,92-3.43,4.16,0,21.22.14,43.25.55,12.32.23,22.46.48,29.22.66Z"/></g></g></g></g><g class="cls-15"><path class="cls-5" d="M436,374.44q-89.64-.21-179.26,1.07-47.59.67-95.18,1.78l.8,9.79s83.74-.09,134.84-1.24c30.32-.69,138.18.07,138.18.07q.31-5.73.62-11.47"/><path class="cls-5" d="M432.15,360.26q-77.94-4.42-155.68-2.23c-1.67,0-13.71.63-30,1.09-13.2.37-28.17.78-45.47.57-8-.09-19.94-.37-34.56-1.2q.22,9.93.47,19.85s82.76-.27,136.14-1.41c31.66-.69,127.47,1.41,127.47,1.41q.81-9,1.61-18.08"/><path class="cls-5" d="M428.83,349.24a658.1,658.1,0,0,0-108.91-3.6c-22.58,1.17-35.95,4.29-63,3.75-21.5-.44-75-2.5-83.87-3.17l-.27,13c16.75,1,42.07,2.28,73,2.48,34.42.23,51.73-1,83.15-1.41,23.59-.3,57.5-.18,99.1,2l.75-13"/><path class="cls-5" d="M422.29,338.19c-9,.82-61.07,1.78-107.08,2.92-17.75.44-66.45.36-73.73.21-20.59-.42-54.7-1-63.19-1.62v9c16,1,40.27,2.23,69.9,2.42,32.59.22,51.38-3.95,81.77-4.39,22.54-.32,52.7,2.75,92.33,4.61Z"/><path class="cls-5" d="M418.47,331.62c-13.71,0-34.75.08-60.48.2-55.56.26-71.63.56-98.78.29-18.37-.19-45-.66-77.46-2l.36,12c14.67,1.07,38.36,2.45,67.71,2.42,36.06,0,52.36-2.15,86.46-2.54,18.82-.21,47.12.05,82.19,2.76Z"/><g class="cls-6"><g class="cls-16"><g class="cls-17"><path class="cls-8" d="M435.37,379.55q-85-.14-169.94,1.42-51.83,1-103.63,2.52l.24,2.87s83.74-.1,134.84-1.25c30.32-.68,138.19.07,138.19.07l.3-5.63"/></g></g></g><g class="cls-6"><g class="cls-18"><g class="cls-18"><path class="cls-8" d="M431,367.46c-51.84-.84-103-1-154.84-1-15,0-26.75.07-30.87.1-33.94.19-61.3.65-78.8,1,0,1.8.06,3.61.08,5.44,0,1.2,0,2.39,0,3.58q67.47-1.56,135-2.26,64.49-.68,129-.58Z"/></g></g></g><g class="cls-6"><g class="cls-19"><g class="cls-19"><path class="cls-8" d="M428.18,353.73c-9.58.34-24.42.74-42.6.69-34-.08-45.65-1.65-77.18-1.73-25.19-.06-26.33.94-56.45,1.44-20.06.34-47.09.35-79.37-.93,0,1.63-.07,3.27-.1,4.9,44.75.9,63.9.85,72.2.54,1.25-.05,8-.32,17.31-.5,4.16-.09,8.88-.15,14.1-.17,5.92,0,8.55,0,24,.09,12.61.06,18.87.06,26.16.09,12.62,0,39.44.28,101.6,1.17l.32-5.59"/></g></g></g><g class="cls-6"><g class="cls-20"><g class="cls-21"><path class="cls-8" d="M421.93,342c-45.12-.63-81.55.12-107.07,1-23,.77-42.29,1.78-71.41,1.45-27.63-.32-50.32-1.7-65.51-2.85,0,1.38,0,2.77,0,4.15,15.4,1,38.56,2.12,66.8,2.23,35.44.14,52.88-1.44,84.85-2,22.11-.37,53.68-.29,92.29,2l0-6"/></g></g></g><g class="cls-6"><g class="cls-22"><g class="cls-22"><path class="cls-8" d="M418.12,334.83c-13.71,0-34.74.07-60.48.2-55.52.26-71.61.56-98.78.28-18.36-.18-44.92-.66-77.34-2l.18,5.89c30,1.4,54.69,1.21,72,.75,37.48-1,53.87-3.63,92-3.43,4.16,0,21.22.14,43.25.54,12.32.23,22.46.48,29.22.66Z"/></g></g></g></g><g class="cls-3"><path class="cls-23" d="M532.42,312.9v.4a6.81,6.81,0,0,1,4.19,3.43l12.92,26.14L564.92,374a4.94,4.94,0,0,1,.32.8h.26v45H450.08v-107Z"/><path class="cls-24" d="M210.29,414.13H213V319.84h2.84v94.29H280V319.84h2.84v94.29H347V319.84h2.84v94.29H414V319.84h2.83v94.29h3.34l2.45,2.45v4.86H361v19.8H207.55V416.88Z"/><path class="cls-24" d="M445.44,421.44v-70h2.84v68.43H565.5v-45H567v45h1.89v22.71H448.28v.24l-8,8H371.16l-7.39-7.4v-22Z"/><path class="cls-24" d="M545.63,363.26H481.14V325.07h46.44l18,38.19"/><rect class="cls-24" x="460.8" y="325.07" width="15.21" height="38.19"/><rect class="cls-24" x="481.14" y="369.41" width="13.8" height="2.23"/><g class="cls-25"><g class="cls-26"><path class="cls-27" d="M210.29,414.13h209.9l2.45,2.45v4.57a.3.3,0,0,1-.3.29H207.84a.29.29,0,0,1-.29-.29v-4.27Z"/></g></g><rect class="cls-28" x="560.18" y="399.12" width="3.45" height="20.76"/><g class="cls-29"><g class="cls-30"><path class="cls-31" d="M471.32,442.58h72.94a36.47,36.47,0,1,0-72.94,0"/></g></g><g class="cls-29"><g class="cls-32"><path class="cls-31" d="M278.62,441.26h72.94a36.3,36.3,0,0,0-13.34-27.09l-43-.05a40,40,0,0,0-16.56,27.14"/></g></g><g class="cls-29"><g class="cls-33"><path class="cls-31" d="M209.83,441.26h72.94a36.3,36.3,0,0,0-13.34-27.09l-43-.05a40,40,0,0,0-16.56,27.14"/></g></g><path class="cls-34" d="M476.74,442.58a31.05,31.05,0,1,0,31.05-31.05,31,31,0,0,0-31.05,31.05"/><path class="cls-35" d="M488,442.58a19.13,19.13,0,1,0,19.13-19.13A19.13,19.13,0,0,0,488,442.58"/><path class="cls-34" d="M284,442.58a31.05,31.05,0,1,0,31-31.05,31,31,0,0,0-31,31.05"/><path class="cls-35" d="M295.34,442.58a19.13,19.13,0,1,0,19.13-19.13,19.13,19.13,0,0,0-19.13,19.13"/><path class="cls-34" d="M215.87,442.58a31.05,31.05,0,1,0,31-31.05,31,31,0,0,0-31,31.05"/><path class="cls-35" d="M227.17,442.58a19.13,19.13,0,1,0,19.13-19.13,19.13,19.13,0,0,0-19.13,19.13"/><g class="cls-36"><g class="cls-37"><rect class="cls-27" x="448.28" y="419.87" width="4.31" height="22.71"/></g></g><path class="cls-38" d="M441.78,303.81h8.44c2.06,0,3.73,2.14,3.73,4.07h0V435.61h19.3v15.22H448.36V311.06a1.29,1.29,0,0,0-.38-1,1.52,1.52,0,0,0-1.08-.42h-5.12Z"/><g class="cls-39"><g class="cls-40"><rect class="cls-38" x="453.95" y="312.9" width="2.25" height="122.72"/></g></g></g></g></g></g><g id="smoke"><circle class="cls-41" cx="409.59" cy="261.81" r="14"/><circle class="cls-41" cx="395.55" cy="238.51" r="12.96"/><circle class="cls-41" cx="427.9" cy="288.62" r="17.57"/><circle class="cls-41" cx="367.64" cy="225.21" r="5.6"/><circle class="cls-41" cx="418.06" cy="242.13" r="11.95"/><circle class="cls-41" cx="428.76" cy="263" r="15.82"/></g><rect class="cls-1" x="-0.41" y="-0.19" width="1920" height="1080"/></g></g></svg>