<svg xmlns="http://www.w3.org/2000/svg" xmlns:xlink="http://www.w3.org/1999/xlink" viewBox="0 0 1920 1080"><defs><style>.cls-1{fill:none;}.cls-2{isolation:isolate;}.cls-3{fill:#dfe0e1;}.cls-4{clip-path:url(#clip-path);}.cls-5{clip-path:url(#clip-path-3);}.cls-6{fill:#846e63;}.cls-24,.cls-28,.cls-35,.cls-38,.cls-7{mix-blend-mode:multiply;}.cls-8{clip-path:url(#clip-path-4);}.cls-9{clip-path:url(#clip-path-5);}.cls-10{fill:#8e8e8e;}.cls-11{clip-path:url(#clip-path-6);}.cls-12{clip-path:url(#clip-path-8);}.cls-13{clip-path:url(#clip-path-10);}.cls-14{clip-path:url(#clip-path-12);}.cls-15{clip-path:url(#clip-path-14);}.cls-16{clip-path:url(#clip-path-15);}.cls-17{clip-path:url(#clip-path-17);}.cls-18{clip-path:url(#clip-path-18);}.cls-19{clip-path:url(#clip-path-19);}.cls-20{clip-path:url(#clip-path-21);}.cls-21{clip-path:url(#clip-path-23);}.cls-22{fill:#19cc99;}.cls-23{fill:#473e42;}.cls-24{opacity:0.41;}.cls-25{clip-path:url(#clip-path-26);}.cls-26{fill:#998f94;}.cls-27{fill:#ecb752;}.cls-28{opacity:0.47;}.cls-29{clip-path:url(#clip-path-27);}.cls-30{fill:#a09fa0;}.cls-31{clip-path:url(#clip-path-28);}.cls-32{clip-path:url(#clip-path-29);}.cls-33{fill:#211d20;}.cls-34{fill:#fff;}.cls-35{opacity:0.38;}.cls-36{clip-path:url(#clip-path-30);}.cls-37{fill:#938f91;}.cls-38{opacity:0.61;}.cls-39{clip-path:url(#clip-path-31);}</style><clipPath id="clip-path"><rect class="cls-1" x="692.59" y="656.81" width="407.32" height="169.82"/></clipPath><clipPath id="clip-path-3"><rect class="cls-1" x="692.59" y="711.59" width="274.45" height="56.99"/></clipPath><clipPath id="clip-path-4"><rect class="cls-1" x="692.8" y="761.03" width="273.57" height="6.82"/></clipPath><clipPath id="clip-path-5"><rect class="cls-1" x="692.8" y="761.03" width="273.57" height="6.82"/></clipPath><clipPath id="clip-path-6"><rect class="cls-1" x="697.46" y="747.96" width="264.51" height="10.13"/></clipPath><clipPath id="clip-path-8"><rect class="cls-1" x="703.48" y="734.19" width="255.71" height="6.62"/></clipPath><clipPath id="clip-path-10"><rect class="cls-1" x="708.94" y="723.09" width="243.99" height="6.39"/></clipPath><clipPath id="clip-path-12"><rect class="cls-1" x="712.52" y="714.8" width="236.6" height="6.97"/></clipPath><clipPath id="clip-path-14"><rect class="cls-1" x="692.59" y="683.09" width="274.45" height="56.99"/></clipPath><clipPath id="clip-path-15"><rect class="cls-1" x="692.8" y="732.54" width="273.57" height="6.82"/></clipPath><clipPath id="clip-path-17"><rect class="cls-1" x="697.46" y="719.46" width="264.51" height="10.13"/></clipPath><clipPath id="clip-path-18"><rect class="cls-1" x="697.46" y="719.46" width="264.51" height="10.13"/></clipPath><clipPath id="clip-path-19"><rect class="cls-1" x="703.48" y="705.69" width="255.71" height="6.62"/></clipPath><clipPath id="clip-path-21"><rect class="cls-1" x="708.94" y="694.6" width="243.99" height="6.39"/></clipPath><clipPath id="clip-path-23"><rect class="cls-1" x="712.52" y="686.3" width="236.6" height="6.97"/></clipPath><clipPath id="clip-path-26"><rect class="cls-1" x="738.55" y="767.13" width="215.09" height="7.31"/></clipPath><clipPath id="clip-path-27"><rect class="cls-1" x="1002.32" y="759.11" width="72.94" height="36.47"/></clipPath><clipPath id="clip-path-28"><rect class="cls-1" x="809.62" y="767.12" width="72.94" height="27.14"/></clipPath><clipPath id="clip-path-29"><rect class="cls-1" x="740.83" y="767.12" width="72.94" height="27.14"/></clipPath><clipPath id="clip-path-30"><rect class="cls-1" x="979.28" y="772.87" width="4.31" height="22.71"/></clipPath><clipPath id="clip-path-31"><rect class="cls-1" x="984.95" y="665.9" width="2.25" height="122.72"/></clipPath></defs><title>Life01_smoke01</title><g class="cls-2"><g id="Layer_1" data-name="Layer 1"><rect class="cls-1" x="-0.41" y="-0.19" width="1920" height="1080"/><g id="smoke"><circle class="cls-3" cx="817.18" cy="319.45" r="46.04"/><circle class="cls-3" cx="953.89" cy="417.28" r="52.01"/><circle class="cls-3" cx="869.47" cy="480.92" r="37.29"/><circle class="cls-3" cx="924.69" cy="475.65" r="29.91"/><circle class="cls-3" cx="927.54" cy="517.22" r="26.34"/><circle class="cls-3" cx="870.73" cy="377.27" r="30.46"/><circle class="cls-3" cx="930.32" cy="590.27" r="26.34"/><circle class="cls-3" cx="913.24" cy="273.19" r="36.18"/><circle class="cls-3" cx="892.98" cy="516.94" r="30.46"/><circle class="cls-3" cx="947.9" cy="649.62" r="17.57"/><circle class="cls-3" cx="936.9" cy="617.65" r="11.95"/><circle class="cls-3" cx="907.9" cy="566.94" r="26.34"/><circle class="cls-3" cx="894.32" cy="431.48" r="30.46"/><circle class="cls-3" cx="838.27" cy="441.73" r="30.46"/><ellipse class="cls-3" cx="866.05" cy="541.27" rx="38.46" ry="39.46"/><circle class="cls-3" cx="861.06" cy="522.13" r="11.95"/><circle class="cls-3" cx="827.49" cy="475.56" r="26.34"/><circle class="cls-3" cx="909.46" cy="366.63" r="26.34"/><circle class="cls-3" cx="783.41" cy="424.21" r="63.65"/><circle class="cls-3" cx="786.14" cy="509.94" r="36.18"/><circle class="cls-3" cx="1054.08" cy="377.37" r="37.29"/><circle class="cls-3" cx="866.51" cy="522.25" r="17.57"/><circle class="cls-3" cx="984.35" cy="357.03" r="30.46"/><circle class="cls-3" cx="1068.38" cy="307.37" r="11.95"/><circle class="cls-3" cx="1028.08" cy="341.45" r="26.34"/><circle class="cls-3" cx="725.12" cy="324.81" r="26.34"/><circle class="cls-3" cx="709.77" cy="407.74" r="15.97"/></g><g id="TruckWood_colorchange"><g class="cls-4"><g class="cls-4"><g class="cls-5"><path class="cls-6" d="M967,755.94q-89.64-.21-179.26,1.07-47.6.68-95.18,1.77l.8,9.8s83.74-.1,134.84-1.25c30.32-.68,138.18.07,138.18.07q.32-5.73.62-11.46"/><path class="cls-6" d="M963.15,741.75q-77.94-4.43-155.68-2.23c-1.67.05-13.71.63-30,1.1-13.2.37-28.17.78-45.47.57-8-.1-19.94-.37-34.56-1.2q.22,9.91.47,19.85s82.76-.27,136.14-1.42c31.66-.68,127.47,1.42,127.47,1.42q.81-9,1.61-18.09"/><path class="cls-6" d="M959.83,730.74a657,657,0,0,0-108.91-3.6c-22.58,1.17-35.95,4.28-63,3.74-21.5-.43-75-2.5-83.87-3.17l-.27,13c16.75,1,42.07,2.28,73,2.49,34.42.22,51.73-1,83.15-1.41,23.59-.31,57.5-.18,99.1,2l.75-13"/><path class="cls-6" d="M953.29,719.69c-9,.82-61.07,1.77-107.08,2.91-17.75.44-66.45.37-73.73.22-20.59-.42-54.7-1-63.19-1.62v9c16,1,40.27,2.23,69.9,2.43,32.59.22,51.38-4,81.77-4.39,22.54-.32,52.7,2.74,92.33,4.61Z"/><path class="cls-6" d="M949.47,713.12c-13.71,0-34.75.07-60.48.19-55.56.27-71.63.57-98.78.29-18.37-.18-45-.66-77.46-2l.36,12c14.67,1.08,38.36,2.45,67.71,2.43,36.06,0,52.36-2.15,86.46-2.54,18.82-.22,47.12,0,82.19,2.76Z"/><g class="cls-7"><g class="cls-8"><g class="cls-9"><path class="cls-10" d="M966.37,761q-85-.12-169.94,1.43-51.82.94-103.63,2.52l.24,2.86s83.74-.09,134.84-1.24c30.32-.68,138.19.07,138.19.07l.3-5.64"/></g></g></g><g class="cls-7"><g class="cls-11"><g class="cls-11"><path class="cls-10" d="M962,749c-51.84-.83-103-1.05-154.84-1-15,0-26.75.07-30.87.09-33.94.19-61.3.65-78.8,1,0,1.8.07,3.62.08,5.45q0,1.8,0,3.57,67.47-1.55,134.95-2.26,64.49-.68,129-.58Z"/></g></g></g><g class="cls-7"><g class="cls-12"><g class="cls-12"><path class="cls-10" d="M959.18,735.23c-9.58.33-24.42.73-42.6.69-34-.08-45.65-1.65-77.18-1.73-25.19-.06-26.33.94-56.45,1.44-20.06.33-47.09.35-79.37-.94,0,1.64-.07,3.27-.1,4.91,44.75.89,63.9.84,72.2.53,1.25,0,8.05-.31,17.31-.5,4.16-.08,8.88-.15,14.1-.17,5.92,0,8.55,0,24,.09,12.61.06,18.87.07,26.16.09,12.62,0,39.44.28,101.6,1.17l.32-5.58"/></g></g></g><g class="cls-7"><g class="cls-13"><g class="cls-13"><path class="cls-10" d="M952.93,723.52c-45.12-.63-81.55.13-107.07,1-23,.76-42.29,1.78-71.41,1.44-27.63-.32-50.32-1.69-65.51-2.85,0,1.39,0,2.77,0,4.15,15.4,1,38.56,2.12,66.8,2.24,35.44.14,52.88-1.45,84.85-2,22.11-.37,53.68-.28,92.29,2l0-6"/></g></g></g><g class="cls-7"><g class="cls-14"><g class="cls-14"><path class="cls-10" d="M949.12,716.32c-13.71,0-34.74.08-60.48.2-55.52.26-71.61.56-98.78.29-18.36-.19-44.92-.66-77.34-2l.18,5.89c30,1.39,54.69,1.2,71.95.74,37.48-1,53.87-3.62,92-3.43,4.16,0,21.22.14,43.25.55,12.32.23,22.46.48,29.22.66Z"/></g></g></g></g><g class="cls-15"><path class="cls-6" d="M967,727.44q-89.64-.21-179.26,1.07-47.6.68-95.18,1.78l.8,9.79s83.74-.09,134.84-1.24c30.32-.69,138.18.07,138.18.07q.32-5.73.62-11.47"/><path class="cls-6" d="M963.15,713.26q-77.94-4.43-155.68-2.23c-1.67,0-13.71.63-30,1.09-13.2.37-28.17.78-45.47.57-8-.09-19.94-.37-34.56-1.2q.22,9.93.47,19.85s82.76-.27,136.14-1.41c31.66-.69,127.47,1.41,127.47,1.41q.81-9,1.61-18.08"/><path class="cls-6" d="M959.83,702.24a658.1,658.1,0,0,0-108.91-3.6c-22.58,1.17-35.95,4.29-63,3.75-21.5-.44-75-2.5-83.87-3.17l-.27,13c16.75,1,42.07,2.28,73,2.48,34.42.23,51.73-1,83.15-1.41,23.59-.3,57.5-.18,99.1,2l.75-13"/><path class="cls-6" d="M953.29,691.19c-9,.82-61.07,1.78-107.08,2.92-17.75.44-66.45.36-73.73.21-20.59-.42-54.7-1-63.19-1.62v9c16,1,40.27,2.23,69.9,2.42,32.59.22,51.38-4,81.77-4.39,22.54-.32,52.7,2.75,92.33,4.61Z"/><path class="cls-6" d="M949.47,684.62c-13.71,0-34.75.08-60.48.2-55.56.26-71.63.56-98.78.29-18.37-.19-45-.66-77.46-2l.36,12c14.67,1.08,38.36,2.46,67.71,2.43,36.06,0,52.36-2.15,86.46-2.54,18.82-.21,47.12,0,82.19,2.76Z"/><g class="cls-7"><g class="cls-16"><g class="cls-16"><path class="cls-10" d="M966.37,732.55q-85-.13-169.94,1.42-51.82,1-103.63,2.52l.24,2.87s83.74-.1,134.84-1.25c30.32-.68,138.19.07,138.19.07l.3-5.63"/></g></g></g><g class="cls-7"><g class="cls-17"><g class="cls-18"><path class="cls-10" d="M962,720.46c-51.84-.84-103-1.05-154.84-1-15,0-26.75.07-30.87.1-33.94.19-61.3.65-78.8,1,0,1.81.07,3.62.08,5.45,0,1.2,0,2.39,0,3.58Q765,728,832.52,727.33q64.49-.68,129-.58Z"/></g></g></g><g class="cls-7"><g class="cls-19"><g class="cls-19"><path class="cls-10" d="M959.18,706.73c-9.58.34-24.42.74-42.6.69-34-.08-45.65-1.65-77.18-1.73-25.19-.06-26.33.94-56.45,1.44-20.06.34-47.09.35-79.37-.93,0,1.63-.07,3.27-.1,4.9,44.75.9,63.9.85,72.2.54,1.25,0,8.05-.32,17.31-.5,4.16-.09,8.88-.15,14.1-.17,5.92,0,8.55,0,24,.09,12.61.06,18.87.06,26.16.09,12.62,0,39.44.28,101.6,1.17l.32-5.59"/></g></g></g><g class="cls-7"><g class="cls-20"><g class="cls-20"><path class="cls-10" d="M952.93,695c-45.12-.63-81.55.12-107.07,1-23,.77-42.29,1.78-71.41,1.45-27.63-.32-50.32-1.7-65.51-2.85,0,1.38,0,2.77,0,4.15,15.4,1,38.56,2.12,66.8,2.23,35.44.14,52.88-1.44,84.85-2,22.11-.37,53.68-.29,92.29,2l0-6"/></g></g></g><g class="cls-7"><g class="cls-21"><g class="cls-21"><path class="cls-10" d="M949.12,687.83c-13.71,0-34.74.07-60.48.2-55.52.26-71.61.56-98.78.28-18.36-.18-44.92-.66-77.34-2l.18,5.89c30,1.4,54.69,1.21,71.95.75,37.48-1,53.87-3.63,92-3.43,4.16,0,21.22.14,43.25.54,12.32.23,22.46.48,29.22.66Z"/></g></g></g></g><g class="cls-4"><path class="cls-22" d="M1063.42,665.9v.4a6.81,6.81,0,0,1,4.19,3.43l12.92,26.14L1095.92,727a4.94,4.94,0,0,1,.32.8h.26v45H981.08v-107Z"/><path class="cls-23" d="M741.29,767.13H744V672.84h2.84v94.29H811V672.84h2.84v94.29H878V672.84h2.84v94.29H945V672.84h2.83v94.29h3.34l2.45,2.45v4.86H892v19.8H738.55V769.88Z"/><path class="cls-23" d="M976.44,774.44v-70h2.84v68.43H1096.5v-45H1098v45h1.89v22.71H979.28v.24l-8,8H902.16l-7.39-7.4v-22Z"/><path class="cls-23" d="M1076.63,716.26h-64.49V678.07h46.44l18.05,38.19"/><rect class="cls-23" x="991.8" y="678.07" width="15.21" height="38.19"/><rect class="cls-23" x="1012.14" y="722.41" width="13.8" height="2.23"/><g class="cls-24"><g class="cls-25"><path class="cls-26" d="M741.29,767.13h209.9l2.45,2.45v4.57a.3.3,0,0,1-.3.29H738.84a.29.29,0,0,1-.29-.29v-4.27Z"/></g></g><rect class="cls-27" x="1091.18" y="752.12" width="3.45" height="20.76"/><g class="cls-28"><g class="cls-29"><path class="cls-30" d="M1002.32,795.58h72.94a36.47,36.47,0,0,0-72.94,0"/></g></g><g class="cls-28"><g class="cls-31"><path class="cls-30" d="M809.62,794.26h72.94a36.3,36.3,0,0,0-13.34-27.09l-43,0a40,40,0,0,0-16.56,27.14"/></g></g><g class="cls-28"><g class="cls-32"><path class="cls-30" d="M740.83,794.26h72.94a36.3,36.3,0,0,0-13.34-27.09l-43,0a40,40,0,0,0-16.56,27.14"/></g></g><path class="cls-33" d="M1007.74,795.58a31,31,0,1,0,31-31.05,31,31,0,0,0-31,31.05"/><path class="cls-34" d="M1019,795.58a19.13,19.13,0,1,0,19.13-19.13A19.13,19.13,0,0,0,1019,795.58"/><path class="cls-33" d="M815,795.58a31,31,0,1,0,31.05-31.05A31,31,0,0,0,815,795.58"/><path class="cls-34" d="M826.34,795.58a19.13,19.13,0,1,0,19.13-19.13,19.13,19.13,0,0,0-19.13,19.13"/><path class="cls-33" d="M746.87,795.58a31.05,31.05,0,1,0,31-31.05,31,31,0,0,0-31,31.05"/><path class="cls-34" d="M758.17,795.58a19.13,19.13,0,1,0,19.13-19.13,19.13,19.13,0,0,0-19.13,19.13"/><g class="cls-35"><g class="cls-36"><rect class="cls-26" x="979.28" y="772.87" width="4.31" height="22.71"/></g></g><path class="cls-37" d="M972.78,656.81h8.44c2.06,0,3.73,2.14,3.73,4.07h0V788.61h19.3v15.22H979.36V664.06a1.29,1.29,0,0,0-.38-1,1.52,1.52,0,0,0-1.08-.42h-5.12Z"/><g class="cls-38"><g class="cls-39"><rect class="cls-37" x="984.95" y="665.9" width="2.25" height="122.72"/></g></g></g></g></g></g></g></g></svg>