<svg id="Layer_1" data-name="Layer 1" xmlns="http://www.w3.org/2000/svg" xmlns:xlink="http://www.w3.org/1999/xlink" viewBox="0 0 1920 1080"><defs><style>.cls-1{fill:none;}.cls-2{clip-path:url(#clip-path);}.cls-3{clip-path:url(#clip-path-2);}.cls-4{fill:#c59b6c;}.cls-5{clip-path:url(#clip-path-4);}.cls-6{fill:#b38e65;}.cls-7{clip-path:url(#clip-path-5);}.cls-8{fill:#ac8963;}.cls-9{fill:#754d25;}.cls-10{clip-path:url(#clip-path-6);}.cls-11{fill:#917659;}.cls-12{clip-path:url(#clip-path-7);}.cls-13{fill:#ababab;}.cls-14{clip-path:url(#clip-path-8);}.cls-15{fill:#af8b64;}.cls-16{fill:#9f815f;}.cls-17{clip-path:url(#clip-path-9);}.cls-18{fill:#c9a683;}.cls-19{clip-path:url(#clip-path-10);}.cls-20{clip-path:url(#clip-path-11);}.cls-21{fill:#c7c6c5;}.cls-22{fill:#a38360;}.cls-23{clip-path:url(#clip-path-12);}.cls-24{fill:#d3b494;}.cls-25{clip-path:url(#clip-path-13);}.cls-26{fill:#b79167;}.cls-27{clip-path:url(#clip-path-14);}.cls-28{fill:#b48f66;}.cls-29{clip-path:url(#clip-path-15);}.cls-30{fill:#e0e0e0;}.cls-31{fill:#a78762;}.cls-32{clip-path:url(#clip-path-16);}.cls-33{clip-path:url(#clip-path-17);}.cls-34{clip-path:url(#clip-path-18);}.cls-35{fill:#846e63;}.cls-36{clip-path:url(#clip-path-19);}.cls-37{fill:#8e8e8e;}.cls-38{fill:#594f4a;}.cls-39{clip-path:url(#clip-path-20);}.cls-40{clip-path:url(#clip-path-21);}</style><clipPath id="clip-path"><polyline class="cls-1" points="812.64 478.07 1043.47 478.07 1043.47 621.93 812.64 621.93 812.64 478.07"/></clipPath><clipPath id="clip-path-2"><polyline class="cls-1" points="812.64 621.93 1043.47 621.93 1043.47 478.07 812.64 478.07 812.64 621.93"/></clipPath><clipPath id="clip-path-4"><polyline class="cls-1" points="812.64 598.88 900.35 598.88 900.35 598.63 812.64 598.63 812.64 598.88"/></clipPath><clipPath id="clip-path-5"><polyline class="cls-1" points="858.91 542.45 865.97 542.45 865.97 535.58 858.91 535.58 858.91 542.45"/></clipPath><clipPath id="clip-path-6"><polyline class="cls-1" points="822.81 603.87 831.67 603.87 831.67 598.88 822.81 598.88 822.81 603.87"/></clipPath><clipPath id="clip-path-7"><polyline class="cls-1" points="881.32 604.69 890.54 604.69 890.54 598.88 881.32 598.88 881.32 604.69"/></clipPath><clipPath id="clip-path-8"><polyline class="cls-1" points="853.8 598.88 854.22 598.88 854.22 478.07 853.8 478.07 853.8 598.88"/></clipPath><clipPath id="clip-path-9"><polyline class="cls-1" points="975.9 590.3 1014.5 590.3 1014.5 589.88 975.9 589.88 975.9 590.3"/></clipPath><clipPath id="clip-path-10"><polyline class="cls-1" points="975.9 594.71 1014.5 594.71 1014.5 594.52 975.9 594.52 975.9 594.71"/></clipPath><clipPath id="clip-path-11"><polyline class="cls-1" points="980.72 605.82 983.13 605.82 983.13 594.71 980.72 594.71 980.72 605.82"/></clipPath><clipPath id="clip-path-12"><polyline class="cls-1" points="1009.07 605.82 1011.48 605.82 1011.48 594.71 1009.07 594.71 1009.07 605.82"/></clipPath><clipPath id="clip-path-13"><polyline class="cls-1" points="907.4 578.72 1043.47 578.72 1043.47 578.59 907.4 578.59 907.4 578.72"/></clipPath><clipPath id="clip-path-14"><polyline class="cls-1" points="1026.8 598.22 1031.56 598.22 1031.56 578.69 1026.8 578.69 1026.8 598.22"/></clipPath><clipPath id="clip-path-15"><polyline class="cls-1" points="919.61 598.22 924.37 598.22 924.37 578.69 919.61 578.69 919.61 598.22"/></clipPath><clipPath id="clip-path-16"><polyline class="cls-1" points="211.12 516.81 475.75 516.81 475.75 582.19 211.12 582.19 211.12 516.81"/></clipPath><clipPath id="clip-path-17"><polyline class="cls-1" points="211.12 582.19 475.75 582.19 475.75 516.81 211.12 516.81 211.12 582.19"/></clipPath><clipPath id="clip-path-18"><polyline class="cls-1" points="211.12 516.81 475.75 516.81 475.75 582.19 211.12 582.19 211.12 516.81"/></clipPath><clipPath id="clip-path-19"><polyline class="cls-1" points="211.44 582.19 475.17 582.19 475.17 573.52 211.44 573.52 211.44 582.19"/></clipPath><clipPath id="clip-path-20"><polyline class="cls-1" points="216.94 570.15 469.85 570.15 469.85 558.53 216.94 558.53 216.94 570.15"/></clipPath><clipPath id="clip-path-21"><polyline class="cls-1" points="220.13 551.1 437 551.1 437 542.74 220.13 542.74 220.13 551.1"/></clipPath></defs><title>Life03</title><g class="cls-2"><g class="cls-3"><polyline class="cls-4" points="812.64 598.88 900.35 598.88 900.35 478.07 812.64 478.07 812.64 598.88"/><g class="cls-2"><g class="cls-5"><polyline class="cls-6" points="900.35 598.63 854.22 598.63 854.22 598.88 853.8 598.88 853.8 598.63 812.64 598.63 812.64 598.88 825.05 598.88 831.67 598.88 881.32 598.88 887.93 598.88 900.35 598.88 900.35 598.63"/></g><g class="cls-7"><path class="cls-8" d="M863,535.58a2.92,2.92,0,0,0-1.91.69l-1.08.9a3,3,0,0,0,3.82,4.59l1.08-.9a3,3,0,0,0-1.91-5.28"/></g><path class="cls-9" d="M866.42,538.06a2.9,2.9,0,1,1-2.89-2.89,2.89,2.89,0,0,1,2.89,2.89"/><polyline class="cls-4" points="827.53 607.98 820.91 607.98 825.05 598.88 831.67 598.88 827.53 607.98"/><polyline class="cls-4" points="885.45 607.98 892.07 607.98 887.93 598.88 881.32 598.88 885.45 607.98"/><g class="cls-10"><polyline class="cls-11" points="831.67 598.88 825.05 598.88 822.81 603.87 829.39 603.87 831.67 598.88"/></g><g class="cls-12"><polyline class="cls-13" points="881.32 598.88 881.32 598.88 881.36 598.98 881.32 598.88"/><polyline class="cls-11" points="881.32 598.88 881.32 598.88 881.32 598.88 881.32 598.88"/><polyline class="cls-11" points="887.93 598.88 881.32 598.88 881.36 598.98 883.97 604.69 890.54 604.69 887.93 598.88"/></g><g class="cls-14"><polyline class="cls-15" points="854.22 478.07 853.8 478.07 853.8 598.63 854.22 598.63 854.22 478.07"/><polyline class="cls-16" points="854.22 598.63 853.8 598.63 853.8 598.88 854.22 598.88 854.22 598.63"/></g><polyline class="cls-9" points="855.46 478.07 855.46 598.88 854.22 598.88 854.22 478.07"/><polyline class="cls-4" points="1014.5 594.71 975.9 594.71 975.9 589.88 1014.5 589.88 1014.5 594.71"/><g class="cls-17"><polyline class="cls-18" points="1014.5 589.88 1008.47 589.88 1008.47 589.88 982.53 589.88 975.9 589.88 975.9 589.88 1014.5 589.88 1014.5 589.88"/><polyline class="cls-18" points="1014.5 589.88 975.9 589.88 975.9 590.3 1014.5 590.3 1014.5 589.88"/></g><g class="cls-19"><polyline class="cls-15" points="1014.5 594.52 975.9 594.52 975.9 594.71 980.72 594.71 983.13 594.71 1009.07 594.71 1011.48 594.71 1014.5 594.71 1014.5 594.52"/></g><polyline class="cls-4" points="1008.47 589.88 982.53 589.88 977.71 554.9 1012.69 554.9 1008.47 589.88"/><polyline class="cls-4" points="983.13 617.02 980.72 617.02 980.72 594.71 983.13 594.71 983.13 617.02"/><polyline class="cls-4" points="1011.48 617.02 1009.07 617.02 1009.07 594.71 1011.48 594.71 1011.48 617.02"/><g class="cls-20"><polyline class="cls-21" points="980.72 594.71 980.72 594.71 980.72 605.82 980.72 605.82 980.72 594.71"/><polyline class="cls-22" points="983.13 594.71 980.72 594.71 980.72 605.82 983.13 603.77 983.13 594.71"/></g><g class="cls-23"><polyline class="cls-21" points="1009.07 594.71 1009.07 594.71 1009.07 605.82 1009.07 605.82 1009.07 594.71"/><polyline class="cls-22" points="1011.48 594.71 1009.07 594.71 1009.07 605.82 1011.48 603.77 1011.48 594.71"/></g><polyline class="cls-4" points="1043.47 578.72 907.4 578.72 907.4 573.96 1043.47 573.96 1043.47 578.72"/><rect class="cls-24" x="907.4" y="573.96" width="136.07" height="0.31"/><g class="cls-25"><polyline class="cls-26" points="1043.47 578.59 907.4 578.59 907.4 578.72 919.61 578.72 919.61 578.69 924.37 578.69 924.37 578.72 924.41 578.72 1026.8 578.72 1026.8 578.69 1026.8 578.69 1031.56 578.69 1031.56 578.72 1043.47 578.72 1043.47 578.59"/></g><polyline class="cls-4" points="924.41 621.59 919.64 621.59 919.64 578.72 924.41 578.72 924.41 621.59"/><polyline class="cls-4" points="924.41 621.59 919.64 621.59 919.64 578.72 924.41 578.72 924.41 621.59"/><polyline class="cls-4" points="1031.56 621.93 1026.8 621.93 1026.8 579.07 1031.56 579.07 1031.56 621.93"/><polyline class="cls-4" points="1031.56 621.93 1026.8 621.93 1026.8 578.69 1031.56 578.69 1031.56 621.93"/><g class="cls-27"><polyline class="cls-28" points="1031.56 578.69 1026.8 578.69 1026.8 598.22 1031.56 594.62 1031.56 578.69"/></g><g class="cls-29"><polyline class="cls-30" points="919.64 578.72 919.61 578.72 919.61 598.22 919.64 598.19 919.64 578.72"/><polyline class="cls-31" points="924.37 578.69 919.61 578.69 919.61 578.72 919.64 578.72 924.37 578.72 924.37 578.69"/><polyline class="cls-28" points="924.37 578.72 919.64 578.72 919.64 598.19 924.37 594.62 924.37 578.72"/></g></g></g></g><g class="cls-32"><g class="cls-33"><g class="cls-34"><path class="cls-35" d="M211.12,567.69q102.84-.24,205.65,1.23c36.4.51,22.58,1.19,59,2l-.92,11.24s-45.85-.11-104.48-1.43c-34.77-.78-158.52.08-158.52.08q-.36-6.57-.71-13.15"/><path class="cls-35" d="M215.58,551.42c59.6-3.39,93.26-4.24,152.72-2.56,1.92,0,15.73.72,34.4,1.25,15.13.43-17.9.9,1.95.66,9.21-.11,48.73-.42,65.51-1.38l-.54,22.77s-44.73-.3-106-1.62c-36.32-.78-146.23,1.62-146.23,1.62q-.91-10.36-1.84-20.74"/><path class="cls-35" d="M219.38,538.78c36.69-1.57,65.83-1.93,85.88-2,36.22-.06,54.33-.1,69.07,1.4a300.57,300.57,0,0,0,33.33,1.86,289.06,289.06,0,0,0,29.1-1.49l.24,11.78q-14.17.51-28.34.95-94.16,2.9-188.41,2.38l-.87-14.91"/><g class="cls-36"><path class="cls-37" d="M376.74,580.9c55.53,1.19,98.09,1.29,98.09,1.29h0c-.08,0-42.61-.1-98.09-1.29m-58.33-.47c-46.52,0-103.21.39-106.43.41,3.22,0,59.91-.41,106.43-.41,21.62,0,41.06.09,51.9.33-10.84-.24-30.27-.33-51.9-.33m-107-6.9h0c.11,2.15.28,5.15.39,7.3l-.39-7.31"/><path class="cls-38" d="M226,573.52H211.44l.39,7.31H212c3.22,0,59.91-.41,106.43-.41,21.63,0,41.06.09,51.9.33h0l6.39.14c55.48,1.19,98,1.29,98.09,1.29l.34-4.12h0c-39.62-1.2-28.7-2.15-68.33-2.88-60.14-1.1-120.66-1.66-180.88-1.66"/></g><g class="cls-39"><path class="cls-37" d="M469.75,566.87l-.08,3.28h.05l0-3.28"/><path class="cls-38" d="M375.26,558.53h-.86c-52.6,0-104.73.3-157.46,1.15l.55,7.21h18q65,0,129.94.68c51.59.54,52.7,1.41,104.24,2.59l.08-3.28c0-.27,0-.55,0-.82q0-3.13.09-6.22v0c-20.07-.4-.94-.92-39.88-1.15-4.72,0-18.23-.08-35.41-.1l-19.3,0"/></g><g class="cls-40"><polyline class="cls-37" points="437 550.36 437 550.36 437 550.36 437 550.36"/><path class="cls-38" d="M437,550.36h0q-9.76.35-19.54.67c5.88-.1,12.42-.3,19.54-.67h0"/><path class="cls-38" d="M360.05,542.74h-2.51c-36.17.09-49.57,1.89-88.53,2h-3.12c-19.44,0-35.32-.43-45.76-.8.12,2.14.25,4.27.37,6.41,71.3-1,102.08-1.3,116.56-1.35,3,0,6.84-.15,11.69-.15q3.09,0,6.79.1c10.18.3,14.62,1,28.25,1.59,0,0,7,.31,14.63.47,3,.06,6.47.1,10.26.1q4.11,0,8.78-.07,9.77-.31,19.54-.67h0v0l-.18-7c-24.37,1-24.19,1.29-27.78,1.29-1.86,0-4.74-.09-12.61-.22-33.49-.55-11.44-1.65-36.38-1.65"/></g></g></g></g></svg>