<svg xmlns="http://www.w3.org/2000/svg" xmlns:xlink="http://www.w3.org/1999/xlink" viewBox="0 0 1920 1080"><defs><style>.cls-1{fill:none;}.cls-2{isolation:isolate;}.cls-3{clip-path:url(#clip-path);}.cls-4{clip-path:url(#clip-path-3);}.cls-5{fill:#8c7263;}.cls-25,.cls-29,.cls-36,.cls-39,.cls-6{mix-blend-mode:multiply;}.cls-7{clip-path:url(#clip-path-4);}.cls-8{fill:#989492;}.cls-9{clip-path:url(#clip-path-6);}.cls-10{clip-path:url(#clip-path-8);}.cls-11{clip-path:url(#clip-path-9);}.cls-12{clip-path:url(#clip-path-10);}.cls-13{clip-path:url(#clip-path-11);}.cls-14{clip-path:url(#clip-path-12);}.cls-15{clip-path:url(#clip-path-14);}.cls-16{clip-path:url(#clip-path-15);}.cls-17{clip-path:url(#clip-path-16);}.cls-18{clip-path:url(#clip-path-17);}.cls-19{clip-path:url(#clip-path-19);}.cls-20{clip-path:url(#clip-path-21);}.cls-21{clip-path:url(#clip-path-22);}.cls-22{clip-path:url(#clip-path-23);}.cls-23{fill:#ce2d17;}.cls-24{fill:#473e42;}.cls-25{opacity:0.41;}.cls-26{clip-path:url(#clip-path-26);}.cls-27{fill:#998f94;}.cls-28{fill:#ecb752;}.cls-29{opacity:0.47;}.cls-30{clip-path:url(#clip-path-27);}.cls-31{fill:#a09fa0;}.cls-32{clip-path:url(#clip-path-28);}.cls-33{clip-path:url(#clip-path-29);}.cls-34{fill:#211d20;}.cls-35{fill:#fff;}.cls-36{opacity:0.38;}.cls-37{clip-path:url(#clip-path-30);}.cls-38{fill:#938f91;}.cls-39{opacity:0.61;}.cls-40{clip-path:url(#clip-path-31);}.cls-41{clip-path:url(#clip-path-32);}.cls-42{clip-path:url(#clip-path-34);}.cls-43{clip-path:url(#clip-path-35);}.cls-44{clip-path:url(#clip-path-37);}.cls-45{clip-path:url(#clip-path-39);}.cls-46{clip-path:url(#clip-path-40);}.cls-47{clip-path:url(#clip-path-41);}.cls-48{clip-path:url(#clip-path-42);}.cls-49{clip-path:url(#clip-path-43);}.cls-50{clip-path:url(#clip-path-44);}.cls-51{clip-path:url(#clip-path-45);}.cls-52{clip-path:url(#clip-path-46);}.cls-53{clip-path:url(#clip-path-47);}.cls-54{clip-path:url(#clip-path-48);}.cls-55{clip-path:url(#clip-path-50);}.cls-56{clip-path:url(#clip-path-52);}.cls-57{clip-path:url(#clip-path-53);}.cls-58{clip-path:url(#clip-path-54);}.cls-59{clip-path:url(#clip-path-57);}.cls-60{clip-path:url(#clip-path-58);}.cls-61{clip-path:url(#clip-path-59);}.cls-62{clip-path:url(#clip-path-60);}.cls-63{clip-path:url(#clip-path-61);}.cls-64{clip-path:url(#clip-path-62);}.cls-65{fill:#dfe0e1;}</style><clipPath id="clip-path"><rect class="cls-1" x="183.59" y="303.81" width="407.32" height="169.82"/></clipPath><clipPath id="clip-path-3"><rect class="cls-1" x="183.59" y="358.59" width="274.45" height="56.99"/></clipPath><clipPath id="clip-path-4"><rect class="cls-1" x="183.8" y="408.03" width="273.57" height="6.82"/></clipPath><clipPath id="clip-path-6"><rect class="cls-1" x="188.46" y="394.96" width="264.51" height="10.13"/></clipPath><clipPath id="clip-path-8"><rect class="cls-1" x="194.48" y="381.19" width="255.71" height="6.62"/></clipPath><clipPath id="clip-path-9"><rect class="cls-1" x="194.48" y="381.19" width="255.71" height="6.62"/></clipPath><clipPath id="clip-path-10"><rect class="cls-1" x="199.94" y="370.09" width="243.99" height="6.39"/></clipPath><clipPath id="clip-path-11"><rect class="cls-1" x="199.94" y="370.09" width="243.99" height="6.39"/></clipPath><clipPath id="clip-path-12"><rect class="cls-1" x="203.52" y="361.8" width="236.6" height="6.97"/></clipPath><clipPath id="clip-path-14"><rect class="cls-1" x="183.59" y="330.09" width="274.45" height="56.99"/></clipPath><clipPath id="clip-path-15"><rect class="cls-1" x="183.8" y="379.54" width="273.57" height="6.82"/></clipPath><clipPath id="clip-path-16"><rect class="cls-1" x="183.8" y="379.54" width="273.57" height="6.82"/></clipPath><clipPath id="clip-path-17"><rect class="cls-1" x="188.46" y="366.46" width="264.51" height="10.13"/></clipPath><clipPath id="clip-path-19"><rect class="cls-1" x="194.48" y="352.69" width="255.71" height="6.62"/></clipPath><clipPath id="clip-path-21"><rect class="cls-1" x="199.94" y="341.6" width="243.99" height="6.39"/></clipPath><clipPath id="clip-path-22"><rect class="cls-1" x="199.94" y="341.6" width="243.99" height="6.39"/></clipPath><clipPath id="clip-path-23"><rect class="cls-1" x="203.52" y="333.3" width="236.6" height="6.97"/></clipPath><clipPath id="clip-path-26"><rect class="cls-1" x="229.55" y="414.13" width="215.09" height="7.31"/></clipPath><clipPath id="clip-path-27"><rect class="cls-1" x="493.32" y="406.11" width="72.94" height="36.47"/></clipPath><clipPath id="clip-path-28"><rect class="cls-1" x="300.62" y="414.12" width="72.94" height="27.14"/></clipPath><clipPath id="clip-path-29"><rect class="cls-1" x="231.83" y="414.12" width="72.94" height="27.14"/></clipPath><clipPath id="clip-path-30"><rect class="cls-1" x="470.28" y="419.87" width="4.31" height="22.71"/></clipPath><clipPath id="clip-path-31"><rect class="cls-1" x="475.95" y="312.9" width="2.25" height="122.72"/></clipPath><clipPath id="clip-path-32"><rect class="cls-1" x="802.27" y="678.76" width="407.32" height="169.82"/></clipPath><clipPath id="clip-path-34"><rect class="cls-1" x="802.27" y="733.54" width="274.45" height="56.99"/></clipPath><clipPath id="clip-path-35"><rect class="cls-1" x="802.48" y="782.98" width="273.57" height="6.82"/></clipPath><clipPath id="clip-path-37"><rect class="cls-1" x="807.14" y="769.91" width="264.51" height="10.13"/></clipPath><clipPath id="clip-path-39"><rect class="cls-1" x="813.16" y="756.14" width="255.71" height="6.62"/></clipPath><clipPath id="clip-path-40"><rect class="cls-1" x="813.16" y="756.14" width="255.71" height="6.62"/></clipPath><clipPath id="clip-path-41"><rect class="cls-1" x="818.62" y="745.04" width="243.99" height="6.39"/></clipPath><clipPath id="clip-path-42"><rect class="cls-1" x="818.62" y="745.04" width="243.99" height="6.39"/></clipPath><clipPath id="clip-path-43"><rect class="cls-1" x="822.2" y="736.75" width="236.6" height="6.97"/></clipPath><clipPath id="clip-path-44"><rect class="cls-1" x="822.2" y="736.75" width="236.6" height="6.97"/></clipPath><clipPath id="clip-path-45"><rect class="cls-1" x="802.27" y="705.04" width="274.45" height="56.99"/></clipPath><clipPath id="clip-path-46"><rect class="cls-1" x="802.48" y="754.49" width="273.57" height="6.82"/></clipPath><clipPath id="clip-path-47"><rect class="cls-1" x="802.48" y="754.49" width="273.57" height="6.82"/></clipPath><clipPath id="clip-path-48"><rect class="cls-1" x="807.14" y="741.41" width="264.51" height="10.13"/></clipPath><clipPath id="clip-path-50"><rect class="cls-1" x="813.16" y="727.64" width="255.71" height="6.62"/></clipPath><clipPath id="clip-path-52"><rect class="cls-1" x="818.62" y="716.55" width="243.99" height="6.39"/></clipPath><clipPath id="clip-path-53"><rect class="cls-1" x="818.62" y="716.55" width="243.99" height="6.39"/></clipPath><clipPath id="clip-path-54"><rect class="cls-1" x="822.2" y="708.25" width="236.6" height="6.97"/></clipPath><clipPath id="clip-path-57"><rect class="cls-1" x="848.23" y="789.08" width="215.09" height="7.31"/></clipPath><clipPath id="clip-path-58"><rect class="cls-1" x="1112.01" y="781.06" width="72.94" height="36.47"/></clipPath><clipPath id="clip-path-59"><rect class="cls-1" x="919.31" y="789.07" width="72.94" height="27.14"/></clipPath><clipPath id="clip-path-60"><rect class="cls-1" x="850.52" y="789.07" width="72.94" height="27.14"/></clipPath><clipPath id="clip-path-61"><rect class="cls-1" x="1088.96" y="794.82" width="4.31" height="22.71"/></clipPath><clipPath id="clip-path-62"><rect class="cls-1" x="1094.63" y="687.85" width="2.25" height="122.72"/></clipPath></defs><title>Life01</title><g class="cls-2"><g id="Layer_1" data-name="Layer 1"><g id="TruckWood"><g class="cls-3"><g class="cls-3"><g class="cls-4"><path class="cls-5" d="M458,402.94q-89.64-.21-179.26,1.07-47.59.67-95.18,1.77l.8,9.8s83.74-.1,134.84-1.25c30.32-.68,138.18.07,138.18.07q.31-5.73.62-11.46"/><path class="cls-5" d="M454.15,388.75q-77.94-4.42-155.68-2.23c-1.67.05-13.71.63-30,1.1-13.2.37-28.17.78-45.47.57-8-.1-19.94-.37-34.56-1.2q.22,9.92.47,19.85s82.76-.27,136.14-1.42c31.66-.68,127.47,1.42,127.47,1.42q.81-9,1.61-18.09"/><path class="cls-5" d="M450.83,377.74a657,657,0,0,0-108.91-3.6c-22.58,1.17-35.95,4.28-63,3.74-21.5-.43-75-2.5-83.87-3.17l-.27,13c16.75,1,42.07,2.28,73,2.49,34.42.22,51.73-1,83.15-1.41,23.59-.31,57.5-.18,99.1,2l.75-13"/><path class="cls-5" d="M444.29,366.69c-9,.82-61.07,1.77-107.08,2.91-17.75.44-66.45.37-73.73.22-20.59-.42-54.7-1-63.19-1.62v9c16,1,40.27,2.23,69.9,2.43,32.59.22,51.38-4,81.77-4.39,22.54-.32,52.7,2.74,92.33,4.61Z"/><path class="cls-5" d="M440.47,360.12c-13.71,0-34.75.07-60.48.19-55.56.27-71.63.57-98.78.29-18.37-.18-45-.66-77.46-2l.36,12c14.67,1.08,38.36,2.45,67.71,2.43,36.06,0,52.36-2.15,86.46-2.54,18.82-.22,47.12.05,82.19,2.76Z"/><g class="cls-6"><g class="cls-7"><g class="cls-7"><path class="cls-8" d="M457.37,408q-85-.12-169.94,1.43-51.83.94-103.63,2.52l.24,2.86s83.74-.09,134.84-1.24c30.32-.68,138.19.07,138.19.07l.3-5.64"/></g></g></g><g class="cls-6"><g class="cls-9"><g class="cls-9"><path class="cls-8" d="M453,396c-51.84-.83-103-1.05-154.84-1-15,0-26.75.07-30.87.09-33.94.19-61.3.65-78.8,1,0,1.8.06,3.62.08,5.45q0,1.8,0,3.57,67.47-1.54,135-2.26,64.49-.68,129-.58Z"/></g></g></g><g class="cls-6"><g class="cls-10"><g class="cls-11"><path class="cls-8" d="M450.18,382.23c-9.58.33-24.42.73-42.6.69-34-.08-45.65-1.65-77.18-1.73-25.19-.06-26.33.94-56.45,1.44-20.06.33-47.09.35-79.37-.94,0,1.64-.07,3.27-.1,4.91,44.75.89,63.9.84,72.2.53,1.25-.05,8.05-.31,17.31-.5,4.16-.08,8.88-.15,14.1-.17,5.92,0,8.55,0,24,.09,12.61.06,18.87.07,26.16.09,12.62,0,39.44.28,101.6,1.17l.32-5.58"/></g></g></g><g class="cls-6"><g class="cls-12"><g class="cls-13"><path class="cls-8" d="M443.93,370.52c-45.12-.63-81.55.13-107.07,1-23,.76-42.29,1.78-71.41,1.44-27.63-.32-50.32-1.69-65.51-2.85,0,1.39,0,2.77,0,4.15,15.4,1,38.56,2.12,66.8,2.24,35.44.14,52.88-1.45,84.85-2,22.11-.37,53.68-.28,92.29,2l0-6"/></g></g></g><g class="cls-6"><g class="cls-14"><g class="cls-14"><path class="cls-8" d="M440.12,363.32c-13.71,0-34.74.08-60.48.2-55.52.26-71.61.56-98.78.29-18.36-.19-44.92-.66-77.34-2l.18,5.89c30,1.39,54.69,1.2,71.95.74,37.48-1,53.87-3.62,92-3.43,4.16,0,21.22.14,43.25.55,12.32.23,22.46.48,29.22.66Z"/></g></g></g></g><g class="cls-15"><path class="cls-5" d="M458,374.44q-89.64-.21-179.26,1.07-47.59.67-95.18,1.78l.8,9.79s83.74-.09,134.84-1.24c30.32-.69,138.18.07,138.18.07q.31-5.73.62-11.47"/><path class="cls-5" d="M454.15,360.26q-77.94-4.42-155.68-2.23c-1.67,0-13.71.63-30,1.09-13.2.37-28.17.78-45.47.57-8-.09-19.94-.37-34.56-1.2q.22,9.93.47,19.85s82.76-.27,136.14-1.41c31.66-.69,127.47,1.41,127.47,1.41q.81-9,1.61-18.08"/><path class="cls-5" d="M450.83,349.24a658.1,658.1,0,0,0-108.91-3.6c-22.58,1.17-35.95,4.29-63,3.75-21.5-.44-75-2.5-83.87-3.17l-.27,13c16.75,1,42.07,2.28,73,2.48,34.42.23,51.73-1,83.15-1.41,23.59-.3,57.5-.18,99.1,2l.75-13"/><path class="cls-5" d="M444.29,338.19c-9,.82-61.07,1.78-107.08,2.92-17.75.44-66.45.36-73.73.21-20.59-.42-54.7-1-63.19-1.62v9c16,1,40.27,2.23,69.9,2.42,32.59.22,51.38-3.95,81.77-4.39,22.54-.32,52.7,2.75,92.33,4.61Z"/><path class="cls-5" d="M440.47,331.62c-13.71,0-34.75.08-60.48.2-55.56.26-71.63.56-98.78.29-18.37-.19-45-.66-77.46-2l.36,12c14.67,1.07,38.36,2.45,67.71,2.42,36.06,0,52.36-2.15,86.46-2.54,18.82-.21,47.12.05,82.19,2.76Z"/><g class="cls-6"><g class="cls-16"><g class="cls-17"><path class="cls-8" d="M457.37,379.55q-85-.14-169.94,1.42-51.83,1-103.63,2.52l.24,2.87s83.74-.1,134.84-1.25c30.32-.68,138.19.07,138.19.07l.3-5.63"/></g></g></g><g class="cls-6"><g class="cls-18"><g class="cls-18"><path class="cls-8" d="M453,367.46c-51.84-.84-103-1-154.84-1-15,0-26.75.07-30.87.1-33.94.19-61.3.65-78.8,1,0,1.8.06,3.61.08,5.44,0,1.2,0,2.39,0,3.58q67.47-1.56,135-2.26,64.49-.68,129-.58Z"/></g></g></g><g class="cls-6"><g class="cls-19"><g class="cls-19"><path class="cls-8" d="M450.18,353.73c-9.58.34-24.42.74-42.6.69-34-.08-45.65-1.65-77.18-1.73-25.19-.06-26.33.94-56.45,1.44-20.06.34-47.09.35-79.37-.93,0,1.63-.07,3.27-.1,4.9,44.75.9,63.9.85,72.2.54,1.25-.05,8.05-.32,17.31-.5,4.16-.09,8.88-.15,14.1-.17,5.92,0,8.55,0,24,.09,12.61.06,18.87.06,26.16.09,12.62,0,39.44.28,101.6,1.17l.32-5.59"/></g></g></g><g class="cls-6"><g class="cls-20"><g class="cls-21"><path class="cls-8" d="M443.93,342c-45.12-.63-81.55.12-107.07,1-23,.77-42.29,1.78-71.41,1.45-27.63-.32-50.32-1.7-65.51-2.85,0,1.38,0,2.77,0,4.15,15.4,1,38.56,2.12,66.8,2.23,35.44.14,52.88-1.44,84.85-2,22.11-.37,53.68-.29,92.29,2l0-6"/></g></g></g><g class="cls-6"><g class="cls-22"><g class="cls-22"><path class="cls-8" d="M440.12,334.83c-13.71,0-34.74.07-60.48.2-55.52.26-71.61.56-98.78.28-18.36-.18-44.92-.66-77.34-2l.18,5.89c30,1.4,54.69,1.21,71.95.75,37.48-1,53.87-3.63,92-3.43,4.16,0,21.22.14,43.25.54,12.32.23,22.46.48,29.22.66Z"/></g></g></g></g><g class="cls-3"><path class="cls-23" d="M554.42,312.9v.4a6.81,6.81,0,0,1,4.19,3.43l12.92,26.14L586.92,374a4.94,4.94,0,0,1,.32.8h.26v45H472.08v-107Z"/><path class="cls-24" d="M232.29,414.13H235V319.84h2.84v94.29H302V319.84h2.84v94.29H369V319.84h2.84v94.29H436V319.84h2.83v94.29h3.34l2.45,2.45v4.86H383v19.8H229.55V416.88Z"/><path class="cls-24" d="M467.44,421.44v-70h2.84v68.43H587.5v-45H589v45h1.89v22.71H470.28v.24l-8,8H393.16l-7.39-7.4v-22Z"/><path class="cls-24" d="M567.63,363.26H503.14V325.07h46.44l18,38.19"/><rect class="cls-24" x="482.8" y="325.07" width="15.21" height="38.19"/><rect class="cls-24" x="503.14" y="369.41" width="13.8" height="2.23"/><g class="cls-25"><g class="cls-26"><path class="cls-27" d="M232.29,414.13h209.9l2.45,2.45v4.57a.3.3,0,0,1-.3.29H229.84a.29.29,0,0,1-.29-.29v-4.27Z"/></g></g><rect class="cls-28" x="582.18" y="399.12" width="3.45" height="20.76"/><g class="cls-29"><g class="cls-30"><path class="cls-31" d="M493.32,442.58h72.94a36.47,36.47,0,0,0-72.94,0"/></g></g><g class="cls-29"><g class="cls-32"><path class="cls-31" d="M300.62,441.26h72.94a36.3,36.3,0,0,0-13.34-27.09l-43-.05a40,40,0,0,0-16.56,27.14"/></g></g><g class="cls-29"><g class="cls-33"><path class="cls-31" d="M231.83,441.26h72.94a36.3,36.3,0,0,0-13.34-27.09l-43-.05a40,40,0,0,0-16.56,27.14"/></g></g><path class="cls-34" d="M498.74,442.58a31,31,0,1,0,31-31.05,31,31,0,0,0-31,31.05"/><path class="cls-35" d="M510,442.58a19.13,19.13,0,1,0,19.13-19.13A19.13,19.13,0,0,0,510,442.58"/><path class="cls-34" d="M306,442.58a31.05,31.05,0,1,0,31-31.05,31,31,0,0,0-31,31.05"/><path class="cls-35" d="M317.34,442.58a19.13,19.13,0,1,0,19.13-19.13,19.13,19.13,0,0,0-19.13,19.13"/><path class="cls-34" d="M237.87,442.58a31.05,31.05,0,1,0,31.05-31.05,31,31,0,0,0-31.05,31.05"/><path class="cls-35" d="M249.17,442.58a19.13,19.13,0,1,0,19.13-19.13,19.13,19.13,0,0,0-19.13,19.13"/><g class="cls-36"><g class="cls-37"><rect class="cls-27" x="470.28" y="419.87" width="4.31" height="22.71"/></g></g><path class="cls-38" d="M463.78,303.81h8.44c2.06,0,3.73,2.14,3.73,4.07h0V435.61h19.3v15.22H470.36V311.06a1.29,1.29,0,0,0-.38-1,1.52,1.52,0,0,0-1.08-.42h-5.12Z"/><g class="cls-39"><g class="cls-40"><rect class="cls-38" x="475.95" y="312.9" width="2.25" height="122.72"/></g></g></g></g></g></g><g id="Ext.TruckWood"><g class="cls-41"><g class="cls-41"><g class="cls-42"><path class="cls-5" d="M1076.71,777.89q-89.64-.21-179.26,1.07-47.6.67-95.18,1.77l.8,9.8s83.74-.1,134.84-1.25c30.32-.68,138.19.07,138.19.07q.3-5.73.61-11.46"/><path class="cls-5" d="M1072.83,763.7q-77.92-4.43-155.67-2.23c-1.68,0-13.72.63-30,1.1-13.2.37-28.17.78-45.47.57-8-.1-19.93-.37-34.56-1.2q.24,9.91.47,19.85s82.77-.27,136.14-1.42c31.67-.68,127.47,1.42,127.47,1.42q.81-9,1.61-18.09"/><path class="cls-5" d="M1069.52,752.69a657.11,657.11,0,0,0-108.92-3.6c-22.58,1.17-36,4.28-63,3.74-21.51-.43-75-2.5-83.88-3.17l-.27,13c16.75,1,42.07,2.28,73,2.49,34.42.22,51.73-1,83.15-1.41,23.59-.31,57.5-.18,99.1,2q.38-6.49.76-13"/><path class="cls-5" d="M1063,741.64c-9,.82-61.07,1.77-107.08,2.91-17.75.44-66.44.37-73.73.22-20.59-.42-54.7-1-63.19-1.62v9c16,1,40.27,2.23,69.9,2.43,32.6.22,51.39-4,81.77-4.39,22.54-.32,52.7,2.74,92.33,4.61Z"/><path class="cls-5" d="M1059.15,735.07c-13.71,0-34.74.07-60.48.19-55.56.27-71.63.57-98.78.29-18.37-.18-45-.66-77.46-2l.36,12c14.67,1.08,38.36,2.45,67.71,2.43,36.06,0,52.36-2.15,86.46-2.54,18.82-.22,47.12,0,82.19,2.76Z"/><g class="cls-6"><g class="cls-43"><g class="cls-43"><path class="cls-8" d="M1076.05,783q-85-.12-169.94,1.43-51.81.95-103.63,2.52l.24,2.86s83.74-.09,134.84-1.24c30.32-.68,138.19.07,138.19.07l.3-5.64"/></g></g></g><g class="cls-6"><g class="cls-44"><g class="cls-44"><path class="cls-8" d="M1071.65,770.9c-51.84-.83-103-1-154.84-1-15,0-26.75.07-30.87.09-33.94.2-61.3.65-78.8,1,0,1.8.07,3.62.09,5.45,0,1.2,0,2.39,0,3.57q67.47-1.54,135-2.26,64.49-.67,129-.58Z"/></g></g></g><g class="cls-6"><g class="cls-45"><g class="cls-46"><path class="cls-8" d="M1068.86,757.18c-9.58.33-24.42.73-42.6.69-34-.08-45.65-1.65-77.18-1.73-25.18-.06-26.33.94-56.45,1.44-20.06.33-47.08.35-79.37-.94,0,1.64-.07,3.27-.1,4.91,44.75.89,63.9.84,72.2.53,1.25-.05,8-.31,17.31-.5,4.16-.08,8.88-.15,14.1-.17,5.93,0,8.56,0,24,.09,12.6.06,18.86.07,26.15.09,12.62,0,39.44.28,101.6,1.17l.32-5.58"/></g></g></g><g class="cls-6"><g class="cls-47"><g class="cls-48"><path class="cls-8" d="M1062.61,745.47c-45.12-.63-81.55.13-107.07,1-23,.76-42.29,1.78-71.41,1.44-27.63-.32-50.32-1.69-65.51-2.85,0,1.39,0,2.77,0,4.15,15.4,1,38.56,2.12,66.8,2.24,35.44.14,52.89-1.45,84.85-2,22.11-.37,53.68-.28,92.29,2l0-6"/></g></g></g><g class="cls-6"><g class="cls-49"><g class="cls-50"><path class="cls-8" d="M1058.8,738.27c-13.71,0-34.74.08-60.48.2-55.52.26-71.61.56-98.77.29-18.37-.19-44.93-.66-77.35-2l.18,5.89c30,1.4,54.69,1.2,72,.74,37.48-1,53.87-3.62,92-3.43,4.16,0,21.22.14,43.25.55,12.32.23,22.46.48,29.22.66Z"/></g></g></g></g><g class="cls-51"><path class="cls-5" d="M1076.71,749.39q-89.64-.21-179.26,1.07-47.6.67-95.18,1.78l.8,9.79s83.74-.09,134.84-1.24c30.32-.69,138.19.07,138.19.07q.3-5.73.61-11.47"/><path class="cls-5" d="M1072.83,735.21q-77.92-4.43-155.67-2.23c-1.68,0-13.72.63-30,1.09-13.2.37-28.17.78-45.47.57-8-.09-19.93-.37-34.56-1.2q.24,9.93.47,19.85s82.77-.27,136.14-1.41c31.67-.69,127.47,1.41,127.47,1.41q.81-9,1.61-18.08"/><path class="cls-5" d="M1069.52,724.19a658.22,658.22,0,0,0-108.92-3.6c-22.58,1.17-36,4.29-63,3.75-21.51-.43-75-2.5-83.88-3.17l-.27,13c16.75,1,42.07,2.28,73,2.48,34.42.23,51.73-1,83.15-1.41,23.59-.3,57.5-.18,99.1,2q.38-6.5.76-13"/><path class="cls-5" d="M1063,713.14c-9,.82-61.07,1.78-107.08,2.92-17.75.44-66.44.36-73.73.21-20.59-.42-54.7-1-63.19-1.62v9c16,1,40.27,2.23,69.9,2.42,32.6.22,51.39-3.95,81.77-4.39,22.54-.32,52.7,2.75,92.33,4.61Z"/><path class="cls-5" d="M1059.15,706.57c-13.71,0-34.74.08-60.48.2-55.56.26-71.63.56-98.78.29-18.37-.19-45-.66-77.46-2l.36,12c14.67,1.07,38.36,2.45,67.71,2.42,36.06,0,52.36-2.15,86.46-2.54,18.82-.21,47.12.06,82.19,2.76Z"/><g class="cls-6"><g class="cls-52"><g class="cls-53"><path class="cls-8" d="M1076.05,754.5q-85-.13-169.94,1.42-51.81,1-103.63,2.52l.24,2.87s83.74-.1,134.84-1.25c30.32-.68,138.19.08,138.19.08l.3-5.64"/></g></g></g><g class="cls-6"><g class="cls-54"><g class="cls-54"><path class="cls-8" d="M1071.65,742.41c-51.84-.84-103-1-154.84-1-15,0-26.75.07-30.87.1-33.94.19-61.3.65-78.8,1,0,1.8.07,3.62.09,5.44,0,1.2,0,2.39,0,3.58q67.47-1.54,135-2.26,64.49-.67,129-.58Z"/></g></g></g><g class="cls-6"><g class="cls-55"><g class="cls-55"><path class="cls-8" d="M1068.86,728.68c-9.58.34-24.42.74-42.6.69-34-.08-45.65-1.64-77.18-1.72-25.18-.07-26.33.94-56.45,1.44-20.06.33-47.08.34-79.37-.94,0,1.63-.07,3.27-.1,4.9,44.75.9,63.9.85,72.2.54,1.25-.05,8-.32,17.31-.5,4.16-.09,8.88-.15,14.1-.17,5.93,0,8.56,0,24,.09,12.6.06,18.86.06,26.15.09,12.62,0,39.44.28,101.6,1.17l.32-5.59"/></g></g></g><g class="cls-6"><g class="cls-56"><g class="cls-57"><path class="cls-8" d="M1062.61,717c-45.12-.63-81.55.12-107.07,1-23,.77-42.29,1.78-71.41,1.45-27.63-.32-50.32-1.7-65.51-2.85,0,1.38,0,2.77,0,4.15,15.4,1,38.56,2.12,66.8,2.23,35.44.14,52.89-1.44,84.85-2,22.11-.37,53.68-.29,92.29,2l0-5.95"/></g></g></g><g class="cls-6"><g class="cls-58"><g class="cls-58"><path class="cls-8" d="M1058.8,709.78c-13.71,0-34.74.07-60.48.2-55.52.26-71.61.56-98.77.28-18.37-.18-44.93-.66-77.35-2l.18,5.89c30,1.4,54.69,1.21,72,.75,37.48-1,53.87-3.63,92-3.43,4.16,0,21.22.14,43.25.54,12.32.23,22.46.48,29.22.66Z"/></g></g></g></g><g class="cls-41"><path class="cls-23" d="M1173.11,687.85v.4a6.82,6.82,0,0,1,4.18,3.43l12.92,26.14L1205.6,749a6.13,6.13,0,0,1,.33.8h.25v45H1090.76v-107Z"/><path class="cls-24" d="M851,789.08h2.73V694.79h2.84v94.29H920.7V694.79h2.84v94.29H987.7V694.79h2.84v94.29h64.16V694.79h2.84v94.29h3.33l2.45,2.45v4.86h-61.65v19.8H848.23V791.83Z"/><path class="cls-24" d="M1086.12,796.39v-70H1089v68.43h117.22v-45h1.52v45h1.89v22.71H1089v.24l-8,8h-69.1l-7.4-7.4v-22Z"/><path class="cls-24" d="M1186.31,738.21h-64.49V700h46.45l18,38.19"/><rect class="cls-24" x="1101.48" y="700.02" width="15.21" height="38.19"/><rect class="cls-24" x="1121.82" y="744.36" width="13.8" height="2.23"/><g class="cls-25"><g class="cls-59"><path class="cls-27" d="M851,789.08h209.9l2.45,2.45v4.57a.29.29,0,0,1-.3.29H848.52a.29.29,0,0,1-.29-.29v-4.27Z"/></g></g><rect class="cls-28" x="1200.86" y="774.07" width="3.45" height="20.76"/><g class="cls-29"><g class="cls-60"><path class="cls-31" d="M1112,817.53h72.93a36.47,36.47,0,1,0-72.93,0"/></g></g><g class="cls-29"><g class="cls-61"><path class="cls-31" d="M919.31,816.21h72.93a36.3,36.3,0,0,0-13.34-27.09l-43,0a39.91,39.91,0,0,0-16.55,27.14"/></g></g><g class="cls-29"><g class="cls-62"><path class="cls-31" d="M850.51,816.21h72.94a36.3,36.3,0,0,0-13.34-27.09l-43,0a40,40,0,0,0-16.56,27.14"/></g></g><path class="cls-34" d="M1117.42,817.53a31.06,31.06,0,1,0,31-31,31,31,0,0,0-31,31"/><path class="cls-35" d="M1128.72,817.53a19.14,19.14,0,1,0,19.13-19.13,19.14,19.14,0,0,0-19.13,19.13"/><path class="cls-34" d="M924.72,817.53a31.06,31.06,0,1,0,31-31,31,31,0,0,0-31,31"/><path class="cls-35" d="M936,817.53a19.14,19.14,0,1,0,19.13-19.13A19.14,19.14,0,0,0,936,817.53"/><path class="cls-34" d="M856.55,817.53a31.06,31.06,0,1,0,31.05-31,31,31,0,0,0-31.05,31"/><path class="cls-35" d="M867.85,817.53A19.14,19.14,0,1,0,887,798.4a19.14,19.14,0,0,0-19.13,19.13"/><g class="cls-36"><g class="cls-63"><rect class="cls-27" x="1088.96" y="794.82" width="4.31" height="22.71"/></g></g><path class="cls-38" d="M1082.46,678.76h8.44c2.06,0,3.73,2.14,3.73,4.07h0V810.56h19.3v15.22H1089V686a1.29,1.29,0,0,0-.38-1,1.52,1.52,0,0,0-1.08-.42h-5.12Z"/><g class="cls-39"><g class="cls-64"><rect class="cls-38" x="1094.63" y="687.85" width="2.25" height="122.72"/></g></g></g></g></g></g><g id="smoke"><circle class="cls-65" cx="942.18" cy="363.45" r="46.04"/><circle class="cls-65" cx="1063.89" cy="439.28" r="52.01"/><circle class="cls-65" cx="979.47" cy="502.92" r="37.29"/><circle class="cls-65" cx="1034.69" cy="497.65" r="29.91"/><circle class="cls-65" cx="1037.54" cy="561.22" r="26.34"/><circle class="cls-65" cx="980.73" cy="399.27" r="30.46"/><circle class="cls-65" cx="1040.32" cy="645.27" r="26.34"/><circle class="cls-65" cx="1007.24" cy="600.19" r="36.18"/><circle class="cls-65" cx="1013.98" cy="538.94" r="30.46"/><circle class="cls-65" cx="1057.9" cy="671.62" r="17.57"/><circle class="cls-65" cx="1057.9" cy="652.65" r="11.95"/><circle class="cls-65" cx="1057.9" cy="538.94" r="26.34"/><circle class="cls-65" cx="1070.32" cy="508.48" r="30.46"/><circle class="cls-65" cx="950.27" cy="467.73" r="30.46"/><circle class="cls-65" cx="947.33" cy="573.54" r="36.18"/><circle class="cls-65" cx="971.06" cy="544.13" r="11.95"/><circle class="cls-65" cx="937.49" cy="527.56" r="26.34"/><circle class="cls-65" cx="1074.46" cy="465.63" r="26.34"/><circle class="cls-65" cx="915.41" cy="457.21" r="63.65"/><circle class="cls-65" cx="896.14" cy="538.94" r="36.18"/><circle class="cls-65" cx="1138.08" cy="418.37" r="37.29"/><circle class="cls-65" cx="983.51" cy="554.25" r="17.57"/><circle class="cls-65" cx="1094.35" cy="379.03" r="30.46"/><circle class="cls-65" cx="1178.38" cy="329.37" r="11.95"/><circle class="cls-65" cx="1138.08" cy="363.45" r="26.34"/><circle class="cls-65" cx="846.12" cy="368.81" r="26.34"/><circle class="cls-65" cx="819.77" cy="429.74" r="15.97"/></g><rect class="cls-1" x="-0.41" y="-0.19" width="1920" height="1080"/></g></g></svg>