<svg id="Layer_1" data-name="Layer 1" xmlns="http://www.w3.org/2000/svg" xmlns:xlink="http://www.w3.org/1999/xlink" viewBox="0 0 1920 1080"><defs><style>.cls-1{fill:none;}.cls-2{clip-path:url(#clip-path);}.cls-3{clip-path:url(#clip-path-2);}.cls-4{fill:#846e63;}.cls-5{clip-path:url(#clip-path-4);}.cls-6{fill:#8e8e8e;}.cls-7{fill:#594f4a;}.cls-8{clip-path:url(#clip-path-5);}.cls-9{fill:#c69c6c;}.cls-10{fill:#a58561;}.cls-11{fill:#c9c9c9;}.cls-12{fill:#fff;}.cls-13{clip-path:url(#clip-path-6);}.cls-14{fill:#461316;}.cls-15{fill:#5a1512;}.cls-16{fill:#721512;}.cls-17{fill:#8d191c;}.cls-18{fill:#d96638;}.cls-19{fill:#f79441;}.cls-20{fill:#f8c43b;}.cls-21{fill:#fef3e2;}</style><clipPath id="clip-path"><polyline class="cls-1" points="276.46 520.01 389.69 520.01 389.69 568.01 276.46 568.01 276.46 520.01"/></clipPath><clipPath id="clip-path-2"><polyline class="cls-1" points="276.46 568.01 389.69 568.01 389.69 520.01 276.46 520.01 276.46 568.01"/></clipPath><clipPath id="clip-path-4"><polyline class="cls-1" points="276.6 568.01 389.44 568.01 389.44 561.65 276.6 561.65 276.6 568.01"/></clipPath><clipPath id="clip-path-5"><polyline class="cls-1" points="295.33 559.01 372.36 559.01 372.36 551.17 295.33 551.17 295.33 559.01"/></clipPath><clipPath id="clip-path-6"><polyline class="cls-1" points="872.58 500.84 981.51 500.84 981.51 620.52 872.58 620.52 872.58 500.84"/></clipPath></defs><title>Life04</title><g class="cls-2"><g class="cls-3"><g class="cls-2"><path class="cls-4" d="M276.46,557.36c29.34-.11,54.2.19,83.52.9,2.18.06.75.35,29.71,1.5l-.4,8.25s-19.62-.08-44.7-1c-14.88-.57-67.82.06-67.82.06q-.15-4.83-.31-9.66"/><path class="cls-4" d="M295.13,548.77c13.88-1.35,24.46-2.22,35.34-2.41,2.06,0-4,.06-1.61.08,8.37.08,11.8,0,21.79.11,9.2.07,16.74.19,21.79.28-.08,5.58-.16,7.8-.23,13.37,0,0-19.14-.22-45.34-1.19a196.73,196.73,0,0,0-30.95,1.64c-.27-5.08-.53-6.8-.79-11.88"/><g class="cls-5"><path class="cls-6" d="M389.44,565l-.15,3,.15-3h0m-112.78-1.23c0,1.14.08,2.32.11,3.27,0-1.09-.07-2.18-.11-3.27"/><path class="cls-7" d="M283.22,561.65H276.6c0,.63,0,1.36.06,2.1,0,1.09.07,2.18.11,3.27h0s25.1-.3,45.6-.3c9.26,0,17.59.06,22.22.24,25.08,1,44.7,1,44.7,1h0l.15-3h0c-17-.88-12.28-1.58-29.24-2.12-25.59-.8-51.35-1.21-77-1.21"/></g><g class="cls-8"><path class="cls-6" d="M295.51,554.59l.21,2.74c-.07-1-.14-1.86-.21-2.74m-.18-2.4h0m77-.75c0,2.46-.09,4.5-.13,7.57h0c0-2.52.09-5,.13-7.57h0"/><path class="cls-7" d="M352.09,551.17h-.89c-9.4,0-18.5.18-29.33.41-6.4.13-15.49.33-26.54.61h0l.18,2.39c.07.88.14,1.76.21,2.74v0c10.18.08,18.49.12,24.15.14,16.47.06,23.8,0,34.68.45,7.57.32,13.73.75,17.68,1.07,0-3.07.09-5.11.13-7.57l-5.35-.12c-5.25-.1-10.13-.15-14.92-.15"/></g></g></g></g><polyline class="cls-9" points="1057.64 474.56 796.17 474.56 796.17 464.39 1057.64 464.39 1057.64 474.56"/><polyline class="cls-10" points="1057.64 471.34 796.17 471.34 796.17 474.56 807.7 474.56 1046.12 474.56 1057.64 474.56 1057.64 471.34"/><polyline class="cls-9" points="1046.12 489.36 807.7 489.36 807.7 474.56 1046.12 474.56 1046.12 489.36"/><path class="cls-10" d="M896.2,485.37H807.7v4H885a107.38,107.38,0,0,1,11.22-4m149.92,0h-90a106.74,106.74,0,0,1,11.23,4h78.82v-4"/><polyline class="cls-9" points="807.7 489.36 1046.12 489.36 1029.16 500.83 825.16 500.83 807.7 489.36"/><path class="cls-11" d="M818.35,496.36h0l6.81,4.48-6.81-4.48m217.42,0h0l-6.61,4.48,6.61-4.48"/><path class="cls-10" d="M871.23,496.36H818.35l6.81,4.48h39.28c2.2-1.58,4.47-3.07,6.79-4.48m164.54,0H981c2.33,1.41,4.59,2.9,6.8,4.48h41.32l6.61-4.48"/><polyline class="cls-9" points="825.19 620.52 872.58 620.52 872.58 500.83 825.19 500.83 825.19 620.52"/><polyline class="cls-9" points="981.51 620.52 1028.96 620.52 1028.96 500.83 981.51 500.83 981.51 620.52"/><path class="cls-10" d="M837.9,500.84h-6.18v37.73a105.91,105.91,0,0,1,6.18-10.43v-27.3"/><path class="cls-10" d="M857,500.84h-6.17v11.58q3-3,6.17-5.74v-5.84"/><path class="cls-10" d="M1002.11,500.84h-6.18v6.39c2.13,1.86,4.2,3.81,6.18,5.83V500.84"/><path class="cls-10" d="M1021.19,500.84H1015v28.25a105.31,105.31,0,0,1,6.18,10.72v-39"/><path class="cls-9" d="M926.14,481.1a106.41,106.41,0,0,0-29.94,4.27h59.87a106.34,106.34,0,0,0-29.93-4.27"/><path class="cls-10" d="M956.07,485.37H896.2a107.38,107.38,0,0,0-11.22,4H967.3a106.74,106.74,0,0,0-11.23-4"/><path class="cls-9" d="M967.3,489.36H885a107,107,0,0,0-13.75,7H981a106.2,106.2,0,0,0-13.74-7"/><path class="cls-10" d="M981,496.36H871.23c-2.32,1.41-4.59,2.9-6.79,4.48h123.4c-2.21-1.58-4.47-3.07-6.8-4.48"/><path class="cls-9" d="M850.81,512.42a105.86,105.86,0,0,0-12.91,15.72v92.38h-6.18V538.57a105.26,105.26,0,0,0-6.53,15.53v66.42h35.73a74.54,74.54,0,0,1-3.94-9.27v9.27h-6.17V512.42m21.77-11.58h-8.14c-2.57,1.83-5.06,3.79-7.46,5.84v56.79a73.19,73.19,0,0,1,15.6-25.93v-36.7"/><path class="cls-9" d="M1002.11,513.06V620.52h-6.18V609.33a72.56,72.56,0,0,1-4.58,11.19h35.77c.68-2,1.29-4.14,1.84-6.25V560.44a105.44,105.44,0,0,0-7.77-20.63v80.71H1015V529.09a106.55,106.55,0,0,0-12.9-16m-14.27-12.22h-6.33v38.72a73,73,0,0,1,14.42,25.83V507.23q-3.88-3.39-8.09-6.39"/><path class="cls-10" d="M837.9,528.14a105.91,105.91,0,0,0-6.18,10.43v81.95h6.18V528.14"/><path class="cls-10" d="M857,506.68q-3.19,2.74-6.17,5.74v108.1H857v-9.27a73.52,73.52,0,0,1,0-47.78V506.68"/><path class="cls-10" d="M995.93,507.23v58.16a73.51,73.51,0,0,1,0,43.94v11.19h6.18V513.06c-2-2-4.05-4-6.18-5.83"/><path class="cls-10" d="M1015,529.09v91.43h6.18V539.81a105.31,105.31,0,0,0-6.18-10.72"/><path class="cls-9" d="M872.58,537.54A73.19,73.19,0,0,0,857,563.47v47.78a74.54,74.54,0,0,0,3.94,9.27h11.66v-7.91a59.34,59.34,0,0,1,0-50.5V537.54"/><path class="cls-9" d="M981.51,539.56v26.81a59.43,59.43,0,0,1,0,42v12.17h9.84a72.56,72.56,0,0,0,4.58-11.19V565.39a73,73,0,0,0-14.42-25.83"/><path class="cls-10" d="M857,563.47a73.52,73.52,0,0,0,0,47.78V563.47"/><path class="cls-10" d="M995.93,565.39v43.94a73.51,73.51,0,0,0,0-43.94"/><polyline class="cls-12" points="872.58 562.11 872.58 562.11 872.58 612.61 872.58 612.61 872.58 562.11"/><path class="cls-9" d="M872.58,562.11a59.34,59.34,0,0,0,0,50.5v-50.5"/><path class="cls-9" d="M981.51,566.37v42a59.43,59.43,0,0,0,0-42"/><g class="cls-13"><path class="cls-14" d="M981.51,500.84H872.58v36.7a73.15,73.15,0,0,1,108.93,2V500.84"/><path class="cls-15" d="M926.14,514.21a73,73,0,0,0-53.56,23.33v24.57a59.22,59.22,0,0,1,108.93,4.26V539.56a73,73,0,0,0-55.37-25.35"/><path class="cls-15" d="M981.51,608.35a59.27,59.27,0,0,1-6.32,12.17h6.32V608.35"/><path class="cls-15" d="M872.58,612.61v7.91h4.51a58.12,58.12,0,0,1-4.51-7.91"/><path class="cls-16" d="M926.14,528.16a59.2,59.2,0,0,0-53.56,34v50.5a58.12,58.12,0,0,0,4.51,7.91h20.35a44.62,44.62,0,1,1,57.4,0h20.35a59.27,59.27,0,0,0,6.32-12.17v-42a59.21,59.21,0,0,0-55.37-38.21"/><path class="cls-17" d="M926.14,541.74a44.62,44.62,0,0,0-28.7,78.78h57.4a44.62,44.62,0,0,0-28.7-78.78"/></g><path class="cls-15" d="M958.33,603.12h-30s7.56.13,7.56,7.68-7.56,9.08-7.56,9.08h30s-6-2.46-6-8.38S958.33,603.12,958.33,603.12Z"/><path class="cls-15" d="M894,603l33.32.12a8.31,8.31,0,0,0-8.19,7.56,8.16,8.16,0,0,0,2.67,7,13.88,13.88,0,0,0,5.52,2.17l-33.63,0a8.85,8.85,0,0,0,6.36-13.42A8.67,8.67,0,0,0,894,603Z"/><path class="cls-18" d="M928.37,603.14a8.58,8.58,0,0,1,5.33,1.92,7.39,7.39,0,0,1,1.61,2c1.89,3.49.14,7.34,0,7.6-.27.56-2.3,4.66-7,5.2a9.21,9.21,0,0,1-7.59-3,8.49,8.49,0,0,1-1.69-7.31,8.35,8.35,0,0,1,3.29-4.92A9.12,9.12,0,0,1,928.37,603.14Z"/><path class="cls-18" d="M960.37,603.14a8.58,8.58,0,0,1,5.33,1.92,7.39,7.39,0,0,1,1.61,2c1.89,3.49.14,7.34,0,7.6-.27.56-2.3,4.66-7,5.2a9.21,9.21,0,0,1-7.59-3,8.52,8.52,0,0,1-1.69-7.31,8.35,8.35,0,0,1,3.29-4.92A9.12,9.12,0,0,1,960.37,603.14Z"/><path class="cls-18" d="M894.36,603.14a8.62,8.62,0,0,1,5.34,1.92,7.41,7.41,0,0,1,1.6,2c1.9,3.49.15,7.34,0,7.6-.27.56-2.3,4.66-7,5.2a9.18,9.18,0,0,1-7.58-3,8.44,8.44,0,0,1,1.6-12.23A9.1,9.1,0,0,1,894.36,603.14Z"/><path class="cls-19" d="M927.89,603l7.76-1.27c5.18-.85,6.33-1,7.92-1.9a10.92,10.92,0,0,0,5.22-5.07c1.2-2.68.66-5.19,0-8.23a26.82,26.82,0,0,0-3.8-9,9.19,9.19,0,0,1,.16,4.44,8.13,8.13,0,0,1-1.51,3.4,8.27,8.27,0,0,1-4.83,2.93,20.58,20.58,0,0,0,2.86-5.54,21.76,21.76,0,0,0,1-8.39,27.11,27.11,0,0,0-1.9-8.56l-4.44-6.65-4-7.28a41.28,41.28,0,0,1,2.22,8.71c.48,3.48.22,4.95-.32,6.17a8.47,8.47,0,0,1-2.69,3.33,29.1,29.1,0,0,0-1.58-3c-2.75-4.54-4.53-4.6-5.23-7.13s.81-3.18.95-7.92a22.89,22.89,0,0,0-.48-5.38q-1.1,3.09-2.21,6.18a16,16,0,0,0-2.22,4.59,16.51,16.51,0,0,0,0,9.18l-3.33-3.8a5.88,5.88,0,0,1-3-3.16,5.81,5.81,0,0,1-.16-3.65,13.93,13.93,0,0,0-1.75,5.23,16.62,16.62,0,0,0,.64,6.33c.61,2.35,1.15,2.79,1.42,4.76a13.09,13.09,0,0,1-.15,4.43,12.54,12.54,0,0,0-1.91-1.74c-1.53-1.15-2.5-1.33-3.95-2.54a11.12,11.12,0,0,1-1.43-1.42c-.16-.85-.32-1.69-.47-2.54a8.29,8.29,0,0,0-1.43,7,29.17,29.17,0,0,1,2.69,6.18,29.48,29.48,0,0,1,1.27,8.71,7.15,7.15,0,0,1-3.49-1.58,7.94,7.94,0,0,1-2.53-6.18,15.23,15.23,0,0,0,.16,7.13,15.47,15.47,0,0,0,2.69,5.38c3.31,4.27,8,5.58,11.88,6.65A35.35,35.35,0,0,0,927.89,603Z"/><path class="cls-20" d="M918.28,548.11a7.83,7.83,0,0,1-.18,2.57c-.57,2.35-1.86,2.81-2,4.58s1,3.8,1.84,3.75c.55,0,.91-1,1.19-1.83a10.69,10.69,0,0,0,.27-5.22A16,16,0,0,0,918.28,548.11Z"/><path class="cls-20" d="M917.92,566.8c-.24.26,1.35,1.33,2.1,3.76a9.35,9.35,0,0,1,.19,4.39c-.46,3-1.58,3.53-3.21,7.42-1.1,2.63-1.92,4.59-1.83,7.24a12.8,12.8,0,0,0,1.74,5.95,12.3,12.3,0,0,0,7.05,5.77,12,12,0,0,0,7.7-.36,6.39,6.39,0,0,1-.37-2.75c.18-1.75,1.11-2.89,4.67-6.69,3.22-3.42,4.16-4.31,4.77-6.13a9.73,9.73,0,0,0,.45-3.76,5.26,5.26,0,0,1-4.21,1.83,7.43,7.43,0,0,0,3.48-2.56c1.31-1.84,1.3-3.86,1.28-6.42A22,22,0,0,0,941,569a5.49,5.49,0,0,1-3.75,6.78,5.91,5.91,0,0,1-1.84.27c0-.41-.14-1.08-.18-1.92-.13-2.5.24-3.47,0-5.18a9.71,9.71,0,0,0-.94-3.07c.13.35,1.3,3.59-.55,6A5.19,5.19,0,0,1,932,573.4a14,14,0,0,1-1.74-4.22,17.81,17.81,0,0,1-.09-5.95,47.31,47.31,0,0,1,1.38-7.51,53.77,53.77,0,0,0-3.85,6.41c-1.33,2.59-2,3.92-2.29,5.77a13.52,13.52,0,0,0,1.1,7.6,3.61,3.61,0,0,1-2.84-1c-.81-1-.26-2-.64-3.48C922.25,568,918.26,566.41,917.92,566.8Z"/><path class="cls-20" d="M928.91,553.33c-.17,0-.41-1.16-.28-2.65.18-2,.87-2.84,1.2-4.12a8,8,0,0,0-.83-5.5,5.53,5.53,0,0,1,1.92,1.56,7,7,0,0,1,1.2,4c.11,1.28.17,2.11-.37,2.75s-.91.36-1.56.91C928.93,551.38,929.14,553.34,928.91,553.33Z"/><path class="cls-21" d="M922.41,583.84a17.62,17.62,0,0,1,.18,2.2c0,2.26-.4,3-.28,4.76a5.89,5.89,0,0,0,.92,3.3c1.52,2,4.7,1.7,5.22,1.65a15,15,0,0,0,2.11-8.52c-.31-1.25-.61-2.51-.92-3.76a16.81,16.81,0,0,1-.55,2.66c-.25.88-.5,1.74-.82,1.74-.12,0-.36-.12-.64-1.19q-.55-2.56-1.1-5.13a16.65,16.65,0,0,1-.55,3c-.4,1.42-.72,2.57-1.28,2.66C923.74,587.37,922.58,584.3,922.41,583.84Z"/></svg>