<svg xmlns="http://www.w3.org/2000/svg" viewBox="0 0 1920 1080"><defs><style>.cls-1{isolation:isolate;}.cls-2{fill:none;}.cls-3{fill:#846e63;}.cls-4{fill:#8e8e8e;mix-blend-mode:multiply;}</style></defs><title>pascal_szene2.3_woodhugestack</title><g class="cls-1"><g id="Layer_1_copy_2" data-name="Layer 1 copy 2"><rect class="cls-2" width="1920" height="1080"/><g id="_01" data-name="01"><g id="woodstack"><g id="color"><path class="cls-3" d="M566.57,711.48q142.93-.33,285.83,1.71,75.87,1.08,151.75,2.83l-1.27,15.61s-133.52-.15-215-2c-48.34-1.09-220.33.11-220.33.11Z"/><path class="cls-3" d="M572.77,688.87Q697,681.81,821,685.31c2.68.07,21.87,1,47.82,1.74,21,.6,44.91,1.25,72.49.92,12.81-.16,31.79-.59,55.11-1.92l-.75,31.65s-132-.43-217.07-2.26c-50.49-1.09-203.24,2.26-203.24,2.26Q574,703.29,572.77,688.87Z"/><path class="cls-3" d="M578.05,671.3a1048.81,1048.81,0,0,1,173.65-5.74c36,1.87,57.32,6.84,100.38,6,34.29-.69,119.59-4,133.74-5l.43,20.67c-26.71,1.65-67.08,3.63-116.42,4-54.88.36-82.47-1.59-132.58-2.24-37.6-.49-91.67-.29-158,3.16Z"/><path class="cls-3" d="M588.48,653.68c14.31,1.31,97.37,2.83,170.73,4.65,28.31.7,105.95.59,117.56.35,32.83-.68,87.21-1.55,100.75-2.59v14.33C952,672,913.31,674,866.08,674.29c-52,.35-81.94-6.31-130.38-7-35.94-.52-84,4.37-147.22,7.35Z"/><path class="cls-3" d="M594.57,643.21c21.87,0,55.4.12,96.43.31,88.59.42,114.22.9,157.5.46,29.29-.29,71.72-1.05,123.51-3.21q-.28,9.59-.58,19.17c-23.39,1.72-61.16,3.91-107.95,3.87-57.5,0-83.49-3.43-137.86-4-30-.34-75.13.08-131,4.4Z"/></g><g id="shaddow"><path class="cls-4" d="M567.63,719.62q135.51-.2,271,2.28,82.62,1.5,165.22,4l-.37,4.57s-133.53-.15-215-2c-48.34-1.09-220.33.11-220.33.11Z"/><path class="cls-4" d="M574.65,700.34c82.65-1.33,164.22-1.67,246.88-1.56,23.86,0,42.64.11,49.21.14,54.12.31,97.74,1,125.64,1.6,0,2.87-.1,5.77-.13,8.68,0,1.91,0,3.81,0,5.71Q888.64,712.44,781,711.3q-102.81-1.08-205.63-.93Z"/><path class="cls-4" d="M579.09,678.46c15.28.54,38.94,1.17,67.93,1.1,54.15-.13,72.78-2.62,123.06-2.75,40.15-.1,42,1.5,90,2.29,32,.53,75.08.56,126.56-1.49l.16,7.82c-71.35,1.43-101.88,1.35-115.12.85-2-.07-12.84-.5-27.6-.8-6.63-.13-14.17-.23-22.48-.27-9.45,0-13.64,0-38.29.15-20.1.09-30.08.1-41.7.14-20.12.06-62.89.45-162,1.86Z"/><path class="cls-4" d="M589.05,659.8c72-1,130,.2,170.72,1.56,36.66,1.22,67.43,2.83,113.85,2.29,44.07-.5,80.24-2.7,104.46-4.53,0,2.2,0,4.41,0,6.61-24.57,1.56-61.49,3.38-106.51,3.56-56.51.23-84.33-2.3-135.29-3.16-35.25-.59-85.6-.46-147.15,3.16Z"/><path class="cls-4" d="M595.13,648.32c21.86,0,55.4.12,96.43.32,88.53.42,114.18.89,157.49.46,29.28-.3,71.63-1.06,123.33-3.21-.1,3.13-.19,6.26-.29,9.39-47.9,2.23-87.2,1.92-114.72,1.19-59.76-1.6-85.9-5.78-146.69-5.47-6.64,0-33.83.22-69,.87-19.65.36-35.81.76-46.59,1Z"/></g></g></g><g id="_01-2" data-name="01"><g id="woodstack-2" data-name="woodstack"><g id="color-2" data-name="color"><path class="cls-3" d="M578.93,673.62q134.88-.32,269.72,1.61,71.6,1,143.21,2.67l-1.21,14.74s-126-.15-202.88-1.87c-45.62-1-207.91.1-207.91.1Z"/><path class="cls-3" d="M584.77,652.28Q702,645.62,819,648.92c2.52.07,20.63,1,45.11,1.65,19.86.56,42.39,1.18,68.42.86,12.08-.15,30-.55,52-1.81q-.36,14.94-.71,29.87s-124.53-.4-204.84-2.13c-47.64-1-191.79,2.13-191.79,2.13Q586,665.89,584.77,652.28Z"/><path class="cls-3" d="M589.76,635.71a989.77,989.77,0,0,1,163.87-5.42c34,1.76,54.09,6.45,94.72,5.63,32.36-.65,112.85-3.76,126.2-4.76l.41,19.5c-25.2,1.56-63.3,3.43-109.86,3.73-51.79.34-77.82-1.51-125.11-2.12-35.48-.46-86.5-.27-149.09,3Z"/><path class="cls-3" d="M599.6,619.08c13.51,1.23,91.89,2.67,161.11,4.39,26.71.66,100,.55,110.94.32,31-.63,82.3-1.46,95.07-2.44v13.52c-24.12,1.53-60.59,3.35-105.16,3.65-49,.33-77.32-5.95-123-6.6-33.91-.49-79.3,4.12-138.93,6.93Z"/><path class="cls-3" d="M605.35,609.19c20.64,0,52.28.12,91,.3,83.59.4,107.78.85,148.62.44,27.64-.28,67.68-1,116.55-3q-.27,9-.55,18.09c-22.07,1.62-57.71,3.69-101.87,3.66-54.25,0-78.78-3.24-130.09-3.82-28.31-.33-70.89.07-123.66,4.15Z"/></g><g id="shaddow-2" data-name="shaddow"><path class="cls-4" d="M579.92,681.3q127.89-.19,255.7,2.15,78,1.42,155.91,3.79l-.35,4.31s-126-.14-202.89-1.87c-45.61-1-207.91.1-207.91.1Q580.16,685.55,579.92,681.3Z"/><path class="cls-4" d="M586.55,663.11c78-1.26,155-1.58,233-1.48,22.52,0,40.24.1,46.44.14,51.07.29,92.23,1,118.56,1.5q-.07,4.08-.12,8.2c0,1.8,0,3.6,0,5.38q-101.51-2.33-203-3.4-97-1-194-.87Z"/><path class="cls-4" d="M590.74,642.46c14.42.51,36.75,1.11,64.1,1C706,643.38,723.52,641,771,640.9c37.89-.1,39.61,1.41,84.92,2.17,30.19.5,70.85.52,119.43-1.41l.15,7.38c-67.33,1.34-96.14,1.27-108.63.8-1.88-.07-12.12-.47-26.05-.75-6.25-.13-13.37-.22-21.21-.26-8.92,0-12.88,0-36.14.14-19,.09-28.38.1-39.35.13-19,.06-59.35.43-152.86,1.76Z"/><path class="cls-4" d="M600.14,624.85c67.89-1,122.7.19,161.1,1.47,34.59,1.15,63.63,2.67,107.44,2.17,41.58-.48,75.72-2.55,98.57-4.28q0,3.12,0,6.24c-23.18,1.47-58,3.19-100.51,3.36-53.32.21-79.57-2.17-127.67-3-33.26-.56-80.77-.44-138.86,3Z"/><path class="cls-4" d="M605.88,614c20.63,0,52.27.11,91,.3,83.55.39,107.75.84,148.62.43,27.63-.28,67.6-1,116.38-3l-.27,8.87c-45.21,2.1-82.29,1.81-108.26,1.11-56.39-1.5-81.05-5.45-138.43-5.16-6.26,0-31.92.21-65.06.83-18.55.34-33.8.72-44,1Z"/></g></g></g></g></g></svg>