<svg xmlns="http://www.w3.org/2000/svg" viewBox="0 0 1920 1080"><defs><style>.cls-1{isolation:isolate;}.cls-2{fill:none;}.cls-3{fill:#846e63;}.cls-4{fill:#8e8e8e;mix-blend-mode:multiply;}</style></defs><title>pascal_szene2.3_woodstackmiddle</title><g class="cls-1"><g id="Layer_1_copy_2" data-name="Layer 1 copy 2"><rect class="cls-2" width="1920" height="1080"/><g id="_02" data-name="02"><g id="woodstack_smaller"><g id="color"><path class="cls-3" d="M595.35,713.59q125.61-.3,251.18,1.5c44.46.63,27.58,1.46,72,2.49l-1.12,13.72s-56-.13-127.61-1.75c-42.47-.95-193.62.11-193.62.11Z"/><path class="cls-3" d="M600.79,693.72c72.79-4.14,113.91-5.18,186.53-3.13,2.35.06,19.21.88,42,1.53,18.49.52-21.86,1.1,2.38.8,11.25-.13,59.52-.51,80-1.68l-.66,27.81s-54.64-.37-129.43-2c-44.37-1-178.61,2-178.61,2Z"/><path class="cls-3" d="M605.43,678.28c44.81-1.91,80.41-2.36,104.89-2.4,44.24-.09,66.36-.13,84.37,1.7a366.32,366.32,0,0,0,40.71,2.27A353.67,353.67,0,0,0,870.94,678l.3,14.38q-17.31.63-34.62,1.16-115,3.54-230.13,2.91Q606,687.39,605.43,678.28Z"/></g><g id="shaddow"><path class="cls-4" d="M595.73,720.73c79.39-.12,159.31.56,238.67,2,48.4.89,35.06,2,83.46,3.52l-.42,5s-56-.13-127.61-1.75c-42.47-.95-193.62.11-193.62.11C596.07,727,595.87,723.36,595.73,720.73Z"/><path class="cls-4" d="M602.45,703.8c72.63-1.17,144.31-1.47,216.95-1.38,21,0,37.48.1,43.25.13,47.56.27,24.19.92,48.71,1.4-.05,2.53-.09,5.07-.11,7.64,0,1.67,0,3.35,0,5-63-1.45-64.35-2.51-127.39-3.17q-90.35-.95-180.7-.82Z"/><path class="cls-4" d="M606.35,684.57c13.43.47,34.22,1,59.7,1,47.59-.12,64-2.31,108.14-2.42,35.28-.09,5.3,1.31,47.49,2,28.12.47,4.09.49,49.33-1.31.08,2.87.15,5.73.23,8.6-19.68,1-35.64,1-47.12.78-9.32-.19-17.87-.57-17.87-.57-16.65-.74-22.08-1.57-34.51-1.94-10.1-.3-17.28,0-22.58.06-17.68.06-55.27.4-142.36,1.64Z"/></g></g></g></g></g></svg>