<svg xmlns="http://www.w3.org/2000/svg" xmlns:xlink="http://www.w3.org/1999/xlink" viewBox="0 0 1920 1080"><defs><style>.cls-1{fill:none;}.cls-2{isolation:isolate;}.cls-3{clip-path:url(#clip-path);}.cls-4{fill:#846e63;}.cls-5{mix-blend-mode:multiply;}.cls-6{clip-path:url(#clip-path-4);}.cls-7{fill:#8e8e8e;}.cls-8{clip-path:url(#clip-path-5);}</style><clipPath id="clip-path"><rect class="cls-1" x="653.49" y="682.02" width="113.22" height="47.99"/></clipPath><clipPath id="clip-path-4"><rect class="cls-1" x="653.62" y="723.66" width="112.84" height="6.36"/></clipPath><clipPath id="clip-path-5"><rect class="cls-1" x="672.36" y="713.18" width="77.03" height="7.84"/></clipPath></defs><title>pascal_szene2.3_woodstacksmall</title><g class="cls-2"><g id="Layer_1_copy_2" data-name="Layer 1 copy 2"><rect class="cls-1" width="1920" height="1080"/><g id="_03" data-name="03"><g id="woodstack_smallest"><g class="cls-3"><g class="cls-3"><g class="cls-3"><path class="cls-4" d="M653.49,719.37c29.33-.11,54.19.19,83.52.9,2.17.06.74.35,29.7,1.5l-.39,8.25s-19.62-.08-44.7-1c-14.88-.57-67.83.06-67.83.06l-.3-9.66"/><path class="cls-4" d="M672.15,710.78c13.88-1.35,24.47-2.22,35.34-2.41,2.07,0-4,.06-1.61.08,8.38.08,11.8,0,21.79.11,9.2.07,16.75.19,21.79.28-.08,5.58-.15,7.8-.23,13.37,0,0-19.14-.22-45.34-1.19a196.73,196.73,0,0,0-30.95,1.64c-.26-5.08-.53-6.8-.79-11.88"/><g class="cls-5"><g class="cls-6"><path class="cls-7" d="M653.62,723.66c27.81-.07,55.81.34,83.61,1.21,16.95.54,12.28,1.24,29.23,2.12l-.14,3s-19.62-.08-44.7-1c-14.88-.57-67.83.06-67.83.06,0-1.58-.12-3.78-.17-5.37"/></g></g><g class="cls-5"><g class="cls-8"><path class="cls-7" d="M672.36,714.2c11-.28,20.14-.48,26.54-.61,16.67-.36,29.21-.57,45.14-.26l5.35.12c0,2.52-.1,5-.14,7.57-4-.32-10.11-.75-17.68-1.07-10.88-.46-18.21-.39-34.68-.45-5.66,0-14-.06-24.15-.14l-.38-5.16"/></g></g></g></g></g></g></g></g></g></svg>