<svg xmlns="http://www.w3.org/2000/svg" viewBox="0 0 1920 1080"><defs><style>.cls-1{isolation:isolate;}.cls-2{fill:none;}.cls-3{fill:#846e63;}.cls-4{fill:#8e8e8e;mix-blend-mode:multiply;}</style></defs><title>pascal_szene2.3_woodstack</title><g class="cls-1"><g id="Layer_1_copy_2" data-name="Layer 1 copy 2"><rect class="cls-2" width="1920" height="1080"/><g id="_01" data-name="01"><g id="woodstack"><g id="color"><path class="cls-3" d="M566.57,711.48q142.93-.33,285.83,1.71,75.87,1.08,151.75,2.83l-1.27,15.61s-133.52-.15-215-2c-48.34-1.09-220.33.11-220.33.11Z"/><path class="cls-3" d="M572.77,688.87Q697,681.81,821,685.31c2.68.07,21.87,1,47.82,1.74,21,.6,44.91,1.25,72.49.92,12.81-.16,31.79-.59,55.11-1.92l-.75,31.65s-132-.43-217.07-2.26c-50.49-1.09-203.24,2.26-203.24,2.26Q574,703.29,572.77,688.87Z"/><path class="cls-3" d="M578.05,671.3a1048.81,1048.81,0,0,1,173.65-5.74c36,1.87,57.32,6.84,100.38,6,34.29-.69,119.59-4,133.74-5l.43,20.67c-26.71,1.65-67.08,3.63-116.42,4-54.88.36-82.47-1.59-132.58-2.24-37.6-.49-91.67-.29-158,3.16Z"/><path class="cls-3" d="M588.48,653.68c14.31,1.31,97.37,2.83,170.73,4.65,28.31.7,105.95.59,117.56.35,32.83-.68,87.21-1.55,100.75-2.59v14.33C952,672,913.31,674,866.08,674.29c-52,.35-81.94-6.31-130.38-7-35.94-.52-84,4.37-147.22,7.35Z"/><path class="cls-3" d="M594.57,643.21c21.87,0,55.4.12,96.43.31,88.59.42,114.22.9,157.5.46,29.29-.29,71.72-1.05,123.51-3.21q-.28,9.59-.58,19.17c-23.39,1.72-61.16,3.91-107.95,3.87-57.5,0-83.49-3.43-137.86-4-30-.34-75.13.08-131,4.4Z"/></g><g id="shaddow"><path class="cls-4" d="M567.63,719.62q135.51-.2,271,2.28,82.62,1.5,165.22,4l-.37,4.57s-133.53-.15-215-2c-48.34-1.09-220.33.11-220.33.11Z"/><path class="cls-4" d="M574.65,700.34c82.65-1.33,164.22-1.67,246.88-1.56,23.86,0,42.64.11,49.21.14,54.12.31,97.74,1,125.64,1.6,0,2.87-.1,5.77-.13,8.68,0,1.91,0,3.81,0,5.71Q888.64,712.44,781,711.3q-102.81-1.08-205.63-.93Z"/><path class="cls-4" d="M579.09,678.46c15.28.54,38.94,1.17,67.93,1.1,54.15-.13,72.78-2.62,123.06-2.75,40.15-.1,42,1.5,90,2.29,32,.53,75.08.56,126.56-1.49l.16,7.82c-71.35,1.43-101.88,1.35-115.12.85-2-.07-12.84-.5-27.6-.8-6.63-.13-14.17-.23-22.48-.27-9.45,0-13.64,0-38.29.15-20.1.09-30.08.1-41.7.14-20.12.06-62.89.45-162,1.86Z"/><path class="cls-4" d="M589.05,659.8c72-1,130,.2,170.72,1.56,36.66,1.22,67.43,2.83,113.85,2.29,44.07-.5,80.24-2.7,104.46-4.53,0,2.2,0,4.41,0,6.61-24.57,1.56-61.49,3.38-106.51,3.56-56.51.23-84.33-2.3-135.29-3.16-35.25-.59-85.6-.46-147.15,3.16Z"/><path class="cls-4" d="M595.13,648.32c21.86,0,55.4.12,96.43.32,88.53.42,114.18.89,157.49.46,29.28-.3,71.63-1.06,123.33-3.21-.1,3.13-.19,6.26-.29,9.39-47.9,2.23-87.2,1.92-114.72,1.19-59.76-1.6-85.9-5.78-146.69-5.47-6.64,0-33.83.22-69,.87-19.65.36-35.81.76-46.59,1Z"/></g></g></g></g></g></svg>