<svg xmlns="http://www.w3.org/2000/svg" viewBox="0 0 1920 1080"><defs><style>.cls-1{isolation:isolate;}.cls-2{fill:none;}.cls-3{fill:#c59c6d;}.cls-4{fill:#c9a784;mix-blend-mode:lighten;}.cls-5{fill:#d8d9d8;}.cls-5,.cls-6,.cls-8,.cls-9{mix-blend-mode:multiply;}.cls-6{fill:#c7c6c5;}.cls-7{fill:#d3b494;}.cls-8{fill:#e5e5e5;}.cls-9{fill:#e0e1e0;}</style></defs><title>pascal_szene2.3_möbel</title><g class="cls-1"><g id="Layer_1_copy_2" data-name="Layer 1 copy 2"><rect class="cls-2" width="1920" height="1080"/><g id="_03" data-name="03"><g id="Möbel"><g id="Stuhl"><rect class="cls-3" x="432.7" y="684.2" width="93.49" height="11.69"/><rect class="cls-4" x="432.7" y="684.2" width="93.49" height="1.02"/><rect class="cls-5" x="432.7" y="695.42" width="93.49" height="0.46"/><polygon class="cls-3" points="511.58 684.2 448.77 684.2 437.08 599.48 521.8 599.48 511.58 684.2"/><rect class="cls-3" x="444.39" y="695.88" width="5.84" height="54.05"/><rect class="cls-3" x="513.04" y="695.88" width="5.84" height="54.05"/><polygon class="cls-6" points="450.23 717.82 444.38 722.8 444.38 695.88 450.23 695.88 450.23 717.82"/><polygon class="cls-6" points="518.88 717.82 513.04 722.8 513.04 695.88 518.88 695.88 518.88 717.82"/></g><g id="Tisch"><rect class="cls-3" x="266.81" y="645.64" width="329.53" height="11.53"/><rect class="cls-7" x="266.81" y="645.64" width="329.53" height="0.75"/><rect class="cls-8" x="266.81" y="656.84" width="329.53" height="0.33"/><rect class="cls-3" x="296.47" y="657.18" width="11.53" height="103.8"/><rect class="cls-3" x="296.47" y="657.18" width="11.53" height="103.8"/><rect class="cls-3" x="555.98" y="658" width="11.53" height="103.8"/><rect class="cls-3" x="555.98" y="657.09" width="11.53" height="104.71"/><polygon class="cls-9" points="567.51 695.67 555.98 704.38 555.98 657.09 567.51 657.09 567.51 695.67"/><polygon class="cls-9" points="307.92 695.67 296.38 704.38 296.38 657.09 307.92 657.09 307.92 695.67"/></g></g></g></g></g></svg>