<svg xmlns="http://www.w3.org/2000/svg" xmlns:xlink="http://www.w3.org/1999/xlink" viewBox="0 0 1920 1080"><defs><style>.cls-1{filter:url(#luminosity-invert);}.cls-2{isolation:isolate;}.cls-3{fill:none;}.cls-4{fill:#c69c6c;}.cls-5{fill:#c9c9c9;mix-blend-mode:multiply;}.cls-6{mask:url(#mask);}.cls-7{fill:#461316;}.cls-8{fill:#5a1512;}.cls-9{fill:#721512;}.cls-10{fill:#8d191c;}.cls-11{fill:#d96638;}.cls-12{fill:#f79441;}.cls-13{fill:#f8c43b;}.cls-14{fill:#fef3e2;}</style><filter id="luminosity-invert" filterUnits="userSpaceOnUse" color-interpolation-filters="sRGB"><feColorMatrix values="-1 0 0 0 1 0 -1 0 0 1 0 0 -1 0 1 0 0 0 1 0"/></filter><mask id="mask" x="770.79" y="596.38" width="212.52" height="212.52" maskUnits="userSpaceOnUse"><rect class="cls-1" x="823.49" y="616.12" width="108.93" height="119.69"/></mask></defs><title>pascal_szene2.3_stove</title><g class="cls-2"><g id="Layer_1_copy_2" data-name="Layer 1 copy 2"><rect class="cls-3" width="1920" height="1080"/><g id="_03" data-name="03"><g id="stove"><g id="stove-2" data-name="stove"><rect class="cls-4" x="747.08" y="579.67" width="261.47" height="10.17"/><rect class="cls-5" x="747.08" y="586.62" width="261.47" height="3.22"/><rect class="cls-4" x="758.62" y="589.84" width="238.42" height="14.81"/><rect class="cls-5" x="758.62" y="600.65" width="238.42" height="3.99"/><polygon class="cls-4" points="758.62 604.64 997.04 604.64 980.08 616.12 776.07 616.12 758.62 604.64"/><polygon class="cls-5" points="776.07 616.12 769.27 611.64 986.69 611.64 980.08 616.12 776.07 616.12"/><rect class="cls-4" x="776.1" y="616.12" width="47.39" height="119.69"/><rect class="cls-4" x="932.43" y="616.12" width="47.45" height="119.69"/><rect class="cls-5" x="782.63" y="616.12" width="6.18" height="119.69"/><rect class="cls-5" x="801.72" y="616.12" width="6.18" height="119.69"/><rect class="cls-5" x="946.84" y="616.12" width="6.18" height="119.69"/><rect class="cls-5" x="965.93" y="616.12" width="6.18" height="119.69"/></g><g class="cls-6"><g id="light"><circle class="cls-7" cx="877.05" cy="702.64" r="106.26"/><circle class="cls-8" cx="877.05" cy="702.64" r="73.15"/><circle class="cls-9" cx="877.05" cy="702.64" r="59.2"/><circle class="cls-10" cx="877.05" cy="701.64" r="44.62"/></g></g><g id="wood"><path class="cls-8" d="M909.25,718.4h-30s7.56.13,7.56,7.69-7.56,9.07-7.56,9.07h30s-6-2.46-6-8.38S909.25,718.4,909.25,718.4Z"/><path class="cls-8" d="M844.92,718.28l33.33.12a8.32,8.32,0,0,0-8.2,7.56,8.21,8.21,0,0,0,2.67,7,13.79,13.79,0,0,0,5.53,2.17h0l-33.64,0a8.42,8.42,0,0,0,5.9-2.87,8.54,8.54,0,0,0,1.78-5.58,8.39,8.39,0,0,0-1.32-5A8.64,8.64,0,0,0,844.92,718.28Z"/><path class="cls-11" d="M879.28,718.42a8.62,8.62,0,0,1,5.34,1.92,7.61,7.61,0,0,1,1.6,2c1.9,3.49.15,7.34,0,7.6a8.65,8.65,0,0,1-14.54,2.22,8.45,8.45,0,0,1,1.59-12.23A9.12,9.12,0,0,1,879.28,718.42Z"/><path class="cls-11" d="M911.28,718.42a8.62,8.62,0,0,1,5.34,1.92,7.41,7.41,0,0,1,1.6,2c1.9,3.49.15,7.34,0,7.6-.27.56-2.3,4.66-7,5.2a9.18,9.18,0,0,1-7.58-3,8.45,8.45,0,0,1,1.59-12.23A9.13,9.13,0,0,1,911.28,718.42Z"/><path class="cls-11" d="M845.28,718.42a8.62,8.62,0,0,1,5.34,1.92,7.61,7.61,0,0,1,1.6,2c1.9,3.49.14,7.34,0,7.6a8.66,8.66,0,0,1-14.55,2.22,8.52,8.52,0,0,1-1.69-7.31,8.35,8.35,0,0,1,3.29-4.92A9.12,9.12,0,0,1,845.28,718.42Z"/></g><g id="fire"><path class="cls-12" d="M878.8,718.32l7.76-1.27c5.19-.85,6.33-1,7.92-1.9a11,11,0,0,0,5.23-5.07c1.2-2.68.65-5.19,0-8.23a27,27,0,0,0-3.8-9,9.45,9.45,0,0,1,.16,4.44,7.89,7.89,0,0,1-6.34,6.33,20.16,20.16,0,0,0,2.85-5.54,21.59,21.59,0,0,0,.95-8.4,26.57,26.57,0,0,0-1.9-8.55q-2.22-3.32-4.43-6.65l-4-7.28a40.54,40.54,0,0,1,2.21,8.71c.49,3.48.23,5-.31,6.17a8.56,8.56,0,0,1-2.69,3.33,27.68,27.68,0,0,0-1.59-3c-2.75-4.54-4.53-4.6-5.22-7.13s.81-3.18,1-7.92a23.45,23.45,0,0,0-.48-5.38l-2.22,6.18a15.7,15.7,0,0,0-2.21,4.59,16.41,16.41,0,0,0,0,9.18l-3.33-3.8a5.71,5.71,0,0,1-3.17-6.81,13.87,13.87,0,0,0-1.74,5.23,16.86,16.86,0,0,0,.63,6.33c.62,2.35,1.16,2.79,1.43,4.76a13,13,0,0,1-.16,4.43,12.56,12.56,0,0,0-1.9-1.74c-1.53-1.15-2.51-1.33-4-2.54a10.9,10.9,0,0,1-1.42-1.42l-.48-2.54a8.43,8.43,0,0,0-1.42,3,8.25,8.25,0,0,0,0,4,29.69,29.69,0,0,1,2.69,6.18,29.1,29.1,0,0,1,1.26,8.71,7.13,7.13,0,0,1-3.48-1.58,7.94,7.94,0,0,1-2.53-6.18,15.1,15.1,0,0,0,.16,7.13A15.47,15.47,0,0,0,857,710.4c3.31,4.27,8,5.58,11.88,6.65A34.55,34.55,0,0,0,878.8,718.32Z"/><path class="cls-13" d="M869.2,663.39A8.11,8.11,0,0,1,869,666c-.57,2.35-1.86,2.81-2,4.58s1,3.8,1.83,3.75c.56,0,.92-1,1.19-1.83a10.5,10.5,0,0,0,.28-5.22A17,17,0,0,0,869.2,663.39Z"/><path class="cls-13" d="M868.83,682.08c-.23.26,1.36,1.33,2.11,3.76a9.32,9.32,0,0,1,.18,4.39c-.46,3-1.58,3.53-3.2,7.42-1.1,2.64-1.92,4.59-1.84,7.24a12.85,12.85,0,0,0,1.75,6,12.27,12.27,0,0,0,7,5.77,12,12,0,0,0,7.69-.36,6.26,6.26,0,0,1-.36-2.75c.17-1.75,1.11-2.89,4.67-6.69,3.21-3.42,4.15-4.31,4.76-6.13a9.77,9.77,0,0,0,.46-3.76,5.26,5.26,0,0,1-4.21,1.83,7.47,7.47,0,0,0,3.48-2.56c1.31-1.84,1.3-3.86,1.28-6.42a22.45,22.45,0,0,0-.73-5.49,5.66,5.66,0,0,1-5.59,7.05c-.06-.41-.14-1.08-.18-1.92-.13-2.5.23-3.47,0-5.18a10.27,10.27,0,0,0-.94-3.07c.13.35,1.3,3.59-.55,6.05a5.28,5.28,0,0,1-1.74,1.47,13.71,13.71,0,0,1-1.74-4.22,17.52,17.52,0,0,1-.09-6,47.1,47.1,0,0,1,1.37-7.51,56,56,0,0,0-3.85,6.41c-1.32,2.59-2,3.92-2.29,5.77a13.52,13.52,0,0,0,1.1,7.6,3.63,3.63,0,0,1-2.84-1c-.8-1-.26-2-.64-3.48C873.17,683.29,869.17,681.69,868.83,682.08Z"/><path class="cls-13" d="M879.83,668.61c-.18,0-.41-1.16-.28-2.65.18-2,.86-2.84,1.19-4.12a8,8,0,0,0-.82-5.5,5.53,5.53,0,0,1,1.92,1.56,6.87,6.87,0,0,1,1.19,4c.11,1.28.17,2.11-.37,2.75s-.9.36-1.55.91C879.84,666.66,880.05,668.63,879.83,668.61Z"/><path class="cls-14" d="M873.32,699.12a15.86,15.86,0,0,1,.18,2.2c0,2.26-.4,3-.27,4.76a5.81,5.81,0,0,0,.92,3.3c1.52,2,4.7,1.7,5.22,1.65a15.11,15.11,0,0,0,2.1-8.52c-.3-1.25-.61-2.51-.91-3.76a18,18,0,0,1-.55,2.66c-.25.88-.51,1.74-.83,1.74-.11,0-.35-.12-.64-1.19q-.54-2.57-1.1-5.13a15.81,15.81,0,0,1-.55,3c-.4,1.42-.72,2.57-1.28,2.66C874.65,702.65,873.49,699.58,873.32,699.12Z"/></g></g></g></g></g></svg>