<svg xmlns="http://www.w3.org/2000/svg" xmlns:xlink="http://www.w3.org/1999/xlink" viewBox="0 0 90.23 90.23"><defs><style>.cls-1{fill:none;}.cls-2{clip-path:url(#clip-path);}.cls-3{fill:#b4ded4;}.cls-4{fill:#c69c6c;}.cls-5{fill:#9c7b55;}.cls-6{fill:#8eafa7;}.cls-7{fill:#461316;}.cls-8{fill:#5a1512;}.cls-9{fill:#721512;}.cls-10{fill:#8d191c;}.cls-11{fill:#d96638;}.cls-12{fill:#f79442;}.cls-13{fill:#f8c43b;}.cls-14{fill:#fef3e2;}.cls-15{fill:#5e4d31;}.cls-16{fill:#46dd81;}.cls-17{fill:#3f7e5c;}.cls-18{fill:#187e38;}.cls-19{fill:#212c15;}.cls-20{fill:#34a35f;}.cls-21{fill:#226b3f;}.cls-22{fill:#77928c;}.cls-23{fill:#3e3320;}.cls-24{fill:#6a837d;}.cls-25{fill:#1f6038;}.cls-26{fill:#465652;}.cls-27{fill:#143f25;}.cls-28{fill:#372d1d;}.cls-29{fill:#241e13;}.cls-30{fill:#105325;}.cls-31{fill:#c69c6d;}.cls-32{fill:#8c6239;}.cls-33{fill:#fff;}.cls-34{fill:#29abe2;}.cls-35{fill:#603813;}.cls-36{fill:#4f2e10;}.cls-37{fill:#a28059;}.cls-38{fill:#73502f;}.cls-39{fill:#c9a683;}.cls-40{fill:#a8845c;}.cls-41{fill:#9a7955;}.cls-42{fill:#8cb5aa;}</style><clipPath id="clip-path"><polyline class="cls-1" points="0 0 90.23 0 90.23 90.23 0 90.23 0 0"/></clipPath></defs><title>Summary03</title><g id="Layer_3_flatted" data-name="Layer 3_flatted"><g class="cls-2"><path class="cls-3" d="M45.11,38.17a6.95,6.95,0,0,0-6.93,6.94,7,7,0,0,0,.87,3.38A6.63,6.63,0,0,0,40.1,49.9l2.77.39-.93,1a6.93,6.93,0,0,0,10.11-6.17h0a6.89,6.89,0,0,0-.88-3.38,7.29,7.29,0,0,0-.92-1.28L47.18,40l1.08-1.08a6.91,6.91,0,0,0-3.15-.76M36.47,72.25h14.8v1.84H50.11v8.56h-.92V74.09H39.25v8.56h-.93V74.09H36.47V72.25m.7-13.41h13.4L49,72.25H39L37.17,58.84M6,37.43H32v1H30.83v1.47l-1.32.9-.36.24h0V47a10.69,10.69,0,0,1,0,5.35V53h-.19a10.57,10.57,0,0,1-20.08-6.6v-5.3h0l-.67-.44h0l-1.06-.7V38.44H6v-1m42.84.94,1.07-1.07.29,2a7.73,7.73,0,0,1,1.53,1.84,7.64,7.64,0,0,1,1.09,3.94h0a7.69,7.69,0,0,1-11.39,6.74l-1,1.08L40,50.81a7.69,7.69,0,0,1,8.86-12.44m22.56-3.94h0l13.26,10.3h-1l1,.79H81V56.34H68.79v0H64v0H61.6V45.52H58.12l1-.79h-1l13.26-10.3M44.29,3.21h0l2.19,4.46,1.07,2.17,2.07-4.2v.05l0-.05,3.82,7.76,3.83,7.77H55.91l0,.07.13.24h0L57.29,24H56l1.32,2.69h-4l.44.9H50.24v4.09H48.8V27.54H45.12v1.51h0v4.57H43.36V27.54H35.07l1.14-2.32,2.34-4.75h0c.06-.13.12-.25.17-.38H37.14c1.31-2.65,2.62-5.31,3.92-8H39.89l2.19-4.46,2.19-4.46v0l0,0M45.2,0H45A45.12,45.12,0,0,0,0,45v.17A45.12,45.12,0,1,0,45.2,0"/><polyline class="cls-4" points="31.98 37.43 5.98 37.43 5.98 38.44 7.13 38.44 5.98 38.44 5.98 38.12 31.98 38.12 31.98 37.43"/><polyline class="cls-5" points="31.98 38.12 5.98 38.12 5.98 38.44 7.13 38.44 30.83 38.44 31.98 38.44 31.98 38.12"/><path class="cls-4" d="M30.83,38.44H7.13v1.07h8.8a10.75,10.75,0,0,1,5.95,0h9V38.44"/><path class="cls-5" d="M15.93,39.51H7.13v.4h7.68a9.88,9.88,0,0,1,1.12-.4m14.9,0H21.88a11.5,11.5,0,0,1,1.12.4h7.83v-.4"/><path class="cls-4" d="M14.81,39.91H7.13l1.06.7h5.25a10.4,10.4,0,0,1,1.37-.7m16,0H23a9.7,9.7,0,0,1,1.36.7H29.8l-.29.2,1.32-.9"/><path class="cls-6" d="M29.51,40.81l-.36.24h0l.36-.24m-21.32-.2h0l.67.44-.67-.44"/><path class="cls-5" d="M13.44,40.61H8.19l.67.44h3.91c.22-.16.44-.3.67-.44m16.36,0H24.36c.23.14.46.28.68.44h4.11l.36-.24.29-.2"/><path class="cls-4" d="M9.51,41.05H8.86v5.3a11.78,11.78,0,0,1,.65-1.55V41.05m1.9,0H10.13v2.72a10.83,10.83,0,0,1,1.28-1.57V41.05m1.36,0H12v.58a8.61,8.61,0,0,1,.74-.58"/><path class="cls-4" d="M29.13,52.33c-.06.21-.12.42-.19.62h.19v-.62M25.84,41.05H25a9.75,9.75,0,0,1,.8.64v-.64m1.9,0H26.46v1.22a11,11,0,0,1,1.28,1.59V41.05m1.39,0h-.78v3.88a10.1,10.1,0,0,1,.78,2V41.05"/><path class="cls-5" d="M10.13,41.05H9.51V44.8a9.69,9.69,0,0,1,.62-1V41.05"/><path class="cls-5" d="M12,41.05h-.62V42.2a8.37,8.37,0,0,1,.62-.57v-.58"/><path class="cls-5" d="M26.46,41.05h-.62v.64a8.36,8.36,0,0,1,.62.58V41.05"/><path class="cls-5" d="M28.35,41.05h-.61v2.81a10.2,10.2,0,0,1,.61,1.07V41.05"/><path class="cls-4" d="M18.9,39.09a10.76,10.76,0,0,0-3,.42h5.95a10.78,10.78,0,0,0-3-.42"/><path class="cls-5" d="M21.88,39.51H15.93a9.88,9.88,0,0,0-1.12.4H23a11.5,11.5,0,0,0-1.12-.4"/><polyline class="cls-3" points="13.58 41.05 13.58 41.05 13.58 44.7 13.58 44.7 13.58 41.05"/><path class="cls-4" d="M23,39.91H14.81a10.4,10.4,0,0,0-1.37.7H24.36a9.7,9.7,0,0,0-1.36-.7"/><path class="cls-5" d="M24.36,40.61H13.44c-.23.14-.45.28-.67.44H25c-.22-.16-.45-.3-.68-.44"/><path class="cls-4" d="M13.58,41.05h-.81a8.61,8.61,0,0,0-.74.58v5.65a7.07,7.07,0,0,1,1.55-2.58V41.05"/><path class="cls-4" d="M25,41.05h-.63V44.9a7.21,7.21,0,0,1,1.43,2.57V41.69a9.75,9.75,0,0,0-.8-.64"/><path class="cls-3" d="M29.13,47v5.35a10.69,10.69,0,0,0,0-5.35M8.86,46.35A10.57,10.57,0,1,0,28.94,53H25.39a7.27,7.27,0,0,1-13,0H8.86v-6.6"/><path class="cls-4" d="M11.41,42.2a10.83,10.83,0,0,0-1.28,1.57V53H9.51V44.8a11.78,11.78,0,0,0-.65,1.55V53h3.56A7.47,7.47,0,0,1,12,52V53h-.62V42.2"/><path class="cls-4" d="M26.46,42.27V53h-.62V51.84A7.16,7.16,0,0,1,25.39,53h3.55c.07-.2.13-.41.19-.62V47a10.1,10.1,0,0,0-.78-2v8h-.61V43.86a11,11,0,0,0-1.28-1.59"/><path class="cls-5" d="M10.13,43.77a9.69,9.69,0,0,0-.62,1V53h.62V43.77"/><path class="cls-5" d="M12,41.63a8.37,8.37,0,0,0-.62.57V53H12V52a7.25,7.25,0,0,1,0-4.75V41.63"/><path class="cls-5" d="M25.84,41.69v5.78a7.19,7.19,0,0,1,0,4.37V53h.62V42.27a8.36,8.36,0,0,0-.62-.58"/><path class="cls-5" d="M27.74,43.86V53h.61v-8a10.2,10.2,0,0,0-.61-1.07"/><path class="cls-3" d="M13.58,52.16V53H12.42a7.27,7.27,0,0,0,13,0H23.78A5.88,5.88,0,0,1,14,53h-.45v-.79h0m0-7.46h0v2.44h0V44.7"/><path class="cls-4" d="M13.58,44.7A7.07,7.07,0,0,0,12,47.28V52a7.47,7.47,0,0,0,.39.92h1.16v-.79a5.91,5.91,0,0,1,0-5V44.7"/><path class="cls-4" d="M24.41,44.9v2.67a5.91,5.91,0,0,1,0,4.17V53h1a7.16,7.16,0,0,0,.45-1.11V47.47a7.21,7.21,0,0,0-1.43-2.57"/><path class="cls-5" d="M12,47.28A7.25,7.25,0,0,0,12,52V47.28"/><path class="cls-5" d="M25.84,47.47v4.37a7.19,7.19,0,0,0,0-4.37"/><polyline class="cls-3" points="13.58 47.14 13.58 47.14 13.58 52.16 13.58 52.16 13.58 47.14"/><path class="cls-4" d="M13.58,47.14a5.91,5.91,0,0,0,0,5v-5"/><path class="cls-4" d="M24.41,47.57v4.17a5.91,5.91,0,0,0,0-4.17"/><path class="cls-3" d="M23.78,53h-2a4.44,4.44,0,0,1-5.71,0H14a5.88,5.88,0,0,0,9.75,0"/><path class="cls-3" d="M21.76,53H16.05a4.44,4.44,0,0,0,5.71,0"/><path class="cls-7" d="M24.41,41.05H13.58V44.7a7.27,7.27,0,0,1,10.83.2V41.05"/><polyline class="cls-7" points="24.41 41.05 24.41 41.05 24.41 44.9 24.41 44.9 24.41 41.05"/><path class="cls-8" d="M18.9,42.38a7.24,7.24,0,0,0-5.32,2.32v2.44a5.89,5.89,0,0,1,10.83.43V44.9a7.27,7.27,0,0,0-5.51-2.52"/><polyline class="cls-8" points="24.41 44.9 24.41 47.57 24.41 47.57 24.41 44.9 24.41 44.9"/><path class="cls-8" d="M24.41,51.74A5.79,5.79,0,0,1,23.78,53h.63V51.74"/><polyline class="cls-8" points="24.41 51.74 24.41 51.74 24.41 52.95 24.41 52.95 24.41 51.74"/><path class="cls-8" d="M13.58,52.16V53H14a5.56,5.56,0,0,1-.45-.79"/><path class="cls-9" d="M18.9,43.77a5.88,5.88,0,0,0-5.32,3.37v5A5.56,5.56,0,0,0,14,53h2L16,52.89h-.33a.89.89,0,0,1-.66-.3.87.87,0,0,1-.17-.73.92.92,0,0,1,.13-.29,4.44,4.44,0,0,1,3.95-6.45h.32l0-.08.1.08a4.44,4.44,0,0,1,3.61,6.35.73.73,0,0,1,.1.13,1,1,0,0,1,0,.76.93.93,0,0,1-.69.51h-.48l-.07.06h2a5.79,5.79,0,0,0,.63-1.21V47.57a5.89,5.89,0,0,0-5.51-3.8"/><polyline class="cls-9" points="24.41 47.57 24.41 51.74 24.41 51.74 24.41 47.57 24.41 47.57"/><path class="cls-10" d="M19.14,52.88H16l.07.06h5.71l.07-.06H19.14m-1.06-6c-.08,0-.19-.2-.18-.38s.15-.22.2-.45a.62.62,0,0,0,0-.26,1.34,1.34,0,0,1,.11.38.94.94,0,0,1,0,.52l-.11.18h0m.29.75a1.59,1.59,0,0,1,0-.91,1.52,1.52,0,0,1,.22-.46l.22-.61a3.17,3.17,0,0,1,.05.53c0,.47-.17.54-.1.79a.69.69,0,0,0,.24.33l.06-.12a5.48,5.48,0,0,1,.38-.63,3.85,3.85,0,0,0-.13.74,3.36,3.36,0,0,0,0,.4,2.77,2.77,0,0,1,.15.29,1,1,0,0,0,.27-.33.14.14,0,0,1,0-.06v0a1.21,1.21,0,0,0,0-.56,4.16,4.16,0,0,0-.22-.86l.39.72.44.66a2.67,2.67,0,0,1,.19.85,2.31,2.31,0,0,1-.09.84,1.34,1.34,0,0,0-.07.18l0,.08a.7.7,0,0,1-.17.28.78.78,0,0,0,.46-.28.75.75,0,0,0,.15-.34,1,1,0,0,0,0-.44,3,3,0,0,1,.38.89,1.35,1.35,0,0,1,0,.82,1.16,1.16,0,0,1-.52.51,2.76,2.76,0,0,1-.79.19l-.77.12H19a3.59,3.59,0,0,1-.94-.12,2.11,2.11,0,0,1-1.18-.66,1.58,1.58,0,0,1-.26-.54,1.43,1.43,0,0,1,0-.71h0a.82.82,0,0,0,.25.62.66.66,0,0,0,.35.15,2.76,2.76,0,0,0-.13-.86,2.4,2.4,0,0,0-.27-.62,1,1,0,0,1,0-.39.83.83,0,0,1,.15-.3L17,48l.15.14c.14.12.24.14.39.26l.19.17a1.24,1.24,0,0,0,0-.44,2.69,2.69,0,0,0-.14-.47,1.86,1.86,0,0,1-.06-.63,1.28,1.28,0,0,1,.17-.52.57.57,0,0,0,0,.36.54.54,0,0,0,.3.31l.33.38m.53-2.47A4.44,4.44,0,0,0,15,51.57a.76.76,0,0,1,.2-.2.88.88,0,0,1,.51-.15h.15l-.1,0h6.6a.91.91,0,0,1,.53.19l.06.07a4.44,4.44,0,0,0-3.61-6.35l.09.07a.82.82,0,0,1,.12.41.37.37,0,0,1,0,.27l-.15.09c-.13.11-.11.3-.13.3h0s0-.12,0-.26a1.87,1.87,0,0,1,.12-.41.68.68,0,0,0-.05-.47H18.9"/><path class="cls-8" d="M22.1,51.22H19.21a.82.82,0,0,1,.45.18,1.1,1.1,0,0,1,.15.2.93.93,0,0,1,0,.76,1,1,0,0,1-.68.51h2.95a1,1,0,0,1-.54-.29.87.87,0,0,1-.17-.73.94.94,0,0,1,.33-.49.81.81,0,0,1,.38-.14h0"/><path class="cls-8" d="M15.71,51.21l.1,0a.77.77,0,0,1,.46.18.75.75,0,0,1,.16.2.89.89,0,0,1-.69,1.27H19a.93.93,0,0,1-.59-.3.87.87,0,0,1-.17-.73.82.82,0,0,1,.33-.49.8.8,0,0,1,.47-.15H15.71"/><path class="cls-11" d="M19,51.22h0a.8.8,0,0,0-.47.15.82.82,0,0,0-.33.49.87.87,0,0,0,.17.73.93.93,0,0,0,.59.3h.18a1,1,0,0,0,.68-.51.93.93,0,0,0,0-.76,1.1,1.1,0,0,0-.15-.2.82.82,0,0,0-.45-.18H19"/><path class="cls-11" d="M22.22,51.22h-.13a.81.81,0,0,0-.38.14.94.94,0,0,0-.33.49.87.87,0,0,0,.17.73,1,1,0,0,0,.54.29h.22a.93.93,0,0,0,.69-.51,1,1,0,0,0,0-.76.73.73,0,0,0-.1-.13l-.06-.07a.91.91,0,0,0-.53-.19h-.09"/><path class="cls-11" d="M15.66,51.22a.88.88,0,0,0-.51.15.76.76,0,0,0-.2.2.92.92,0,0,0-.13.29.87.87,0,0,0,.17.73.89.89,0,0,0,.66.3h.09a.89.89,0,0,0,.69-1.27.75.75,0,0,0-.16-.2.77.77,0,0,0-.46-.18h-.15"/><path class="cls-12" d="M19.73,47.55a.14.14,0,0,0,0,.06,1,1,0,0,1-.27.33,2.77,2.77,0,0,0-.15-.29.7.7,0,0,0,0,.2,1.4,1.4,0,0,0,.17.42l.17-.15a.64.64,0,0,0,.07-.57m-.21-1.42a4.16,4.16,0,0,1,.22.86,1.21,1.21,0,0,1,0,.56,1.07,1.07,0,0,1,.08.27c0,.17,0,.27,0,.52l0,.19.18,0a.55.55,0,0,0,.3-.22.58.58,0,0,0,.07-.45,2,2,0,0,1,.07.54,1,1,0,0,1-.12.64.83.83,0,0,1-.35.26h0a.55.55,0,0,0,.22-.05.47.47,0,0,0,.18-.14,1.73,1.73,0,0,1,0,.3,1.34,1.34,0,0,1,.07-.18,2.31,2.31,0,0,0,.09-.84,2.67,2.67,0,0,0-.19-.85l-.44-.66-.39-.72m-.71-.52-.22.61a1.52,1.52,0,0,0-.22.46,1.59,1.59,0,0,0,0,.91L18,47.21a.54.54,0,0,1-.3-.31.57.57,0,0,1,0-.36,1.28,1.28,0,0,0-.17.52,1.86,1.86,0,0,0,.06.63,2.69,2.69,0,0,1,.14.47,1.24,1.24,0,0,1,0,.44l-.19-.17c-.15-.12-.25-.14-.39-.26L17,48l0-.25a.83.83,0,0,0-.15.3,1,1,0,0,0,0,.39,2.4,2.4,0,0,1,.27.62,2.76,2.76,0,0,1,.13.86.66.66,0,0,1-.35-.15.82.82,0,0,1-.25-.62,1.43,1.43,0,0,0,0,.71,1.58,1.58,0,0,0,.26.54,2.11,2.11,0,0,0,1.18.66,3.59,3.59,0,0,0,.94.12h.06l.77-.12a2.76,2.76,0,0,0,.79-.19,1.16,1.16,0,0,0,.52-.51,1.35,1.35,0,0,0,0-.82,3,3,0,0,0-.38-.89,1,1,0,0,1,0,.44.75.75,0,0,1-.15.34.78.78,0,0,1-.46.28l-.3.33c-.35.38-.45.49-.46.66a.59.59,0,0,0,0,.28,1.42,1.42,0,0,1-.44.08.93.93,0,0,1-.32-.05,1.18,1.18,0,0,1-.7-.57,1.25,1.25,0,0,1-.18-.59,1.7,1.7,0,0,1,.18-.72c.17-.39.28-.44.32-.74a.85.85,0,0,0,0-.44c-.07-.24-.23-.34-.2-.37h0a.71.71,0,0,1,.49.43c0,.14,0,.25.06.34l.28.1a1.34,1.34,0,0,1-.11-.75,1.88,1.88,0,0,1,.17-.46.69.69,0,0,1-.24-.33c-.07-.25.08-.32.1-.79a3.17,3.17,0,0,0-.05-.53"/><path class="cls-13" d="M18.12,45.75a.62.62,0,0,1,0,.26c-.05.23-.18.28-.2.45s.1.38.18.38h0l.11-.18a.94.94,0,0,0,0-.52,1.34,1.34,0,0,0-.11-.38"/><path class="cls-13" d="M18.75,49.64h0c.06,0,.09-.12.13-.26a1.53,1.53,0,0,0,.05-.3c0,.17.07.34.11.51s.05.11.06.11l.09-.17a2.24,2.24,0,0,0,.05-.26l.09.37a1.5,1.5,0,0,1-.06.52,1.7,1.7,0,0,1-.15.33H19a.52.52,0,0,1-.43-.17.59.59,0,0,1-.09-.32c0-.18,0-.25,0-.48a1.18,1.18,0,0,0,0-.22c0,.05.13.34.22.34m.69-3.13a5.48,5.48,0,0,0-.38.63l-.06.12a1.88,1.88,0,0,0-.17.46,1.34,1.34,0,0,0,.11.75l-.28-.1c-.08-.09,0-.2-.06-.34a.71.71,0,0,0-.49-.43h0s.13.13.2.37a.85.85,0,0,1,0,.44c0,.3-.15.35-.32.74a1.7,1.7,0,0,0-.18.72,1.25,1.25,0,0,0,.18.59,1.18,1.18,0,0,0,.7.57.93.93,0,0,0,.32.05,1.42,1.42,0,0,0,.44-.08.59.59,0,0,1,0-.28c0-.17.11-.28.46-.66l.3-.33a.7.7,0,0,0,.17-.28l0-.08a1.73,1.73,0,0,0,0-.3.47.47,0,0,1-.18.14.55.55,0,0,1-.22.05h0a.83.83,0,0,0,.35-.26,1,1,0,0,0,.12-.64,2,2,0,0,0-.07-.54.58.58,0,0,1-.07.45.55.55,0,0,1-.3.22l-.18,0,0-.19c0-.25,0-.35,0-.52a1.07,1.07,0,0,0-.08-.27v0a.64.64,0,0,1-.07.57l-.17.15a1.4,1.4,0,0,1-.17-.42.7.7,0,0,1,0-.2,3.36,3.36,0,0,1,0-.4,3.85,3.85,0,0,1,.13-.74"/><path class="cls-13" d="M19.19,45.05l0,.08a.68.68,0,0,1,.05.47,1.87,1.87,0,0,0-.12.41c0,.14,0,.26,0,.26h0s0-.19.13-.3l.15-.09a.37.37,0,0,0,0-.27.82.82,0,0,0-.12-.41l-.09-.07-.1-.08"/><path class="cls-14" d="M18.94,49.08a1.53,1.53,0,0,1-.05.3c0,.14-.07.25-.13.26h0c-.09,0-.2-.29-.22-.34a1.18,1.18,0,0,1,0,.22c0,.23,0,.3,0,.48a.59.59,0,0,0,.09.32.52.52,0,0,0,.43.17h.09a1.7,1.7,0,0,0,.15-.33,1.5,1.5,0,0,0,.06-.52l-.09-.37a2.24,2.24,0,0,1-.05.26l-.09.17s0,0-.06-.11-.07-.34-.11-.51"/><polyline class="cls-15" points="50.24 27.54 49.62 27.54 49.62 31.63 48.8 31.63 48.8 27.54 48.8 31.63 50.24 31.63 50.24 27.54"/><path class="cls-16" d="M56,24h0l.17.32h-4l1.17,2.36h4L56,24"/><path class="cls-16" d="M56.07,21.48H50.71L51.94,24h5.35l-1.22-2.47m-.16-.31h0l0,.07,0-.07"/><polyline class="cls-16" points="49.64 5.64 49.64 5.64 49.62 5.68 49.62 16.64 51.32 20.09 50.03 20.09 50.56 21.17 55.91 21.17 55.91 21.17 55.91 21.17 57.29 21.17 53.47 13.4 49.64 5.64"/><path class="cls-17" d="M56,21.24l.12.24h0L56,21.24"/><path class="cls-18" d="M55.91,21.17H50.56l.15.31h5.36L56,21.24l0-.07"/><path class="cls-18" d="M55.94,24h-4l.15.32h4L55.94,24"/><polyline class="cls-17" points="49.62 5.64 49.62 5.64 47.55 9.84 47.56 9.86 49.62 5.68 49.62 5.64"/><path class="cls-18" d="M49.62,5.69,47.56,9.86l1.12,2.27H47.4l.19.37h0l.19.39,1.85,3.75V5.69"/><polyline class="cls-19" points="49.62 27.54 48.8 27.54 48.8 31.63 49.62 31.63 49.62 27.54"/><polyline class="cls-15" points="43.36 27.54 43.36 27.54 43.36 33.62 45.11 33.62 45.11 29.05 44.36 29.05 44.36 33.62 43.36 33.62 43.36 29.05 43.36 27.54"/><path class="cls-20" d="M36.21,25.22l-1.14,2.32h0l1.14-2.32M50,20.09h0c.06.13.12.25.19.38H44.53v7.07H53.7l-.44-.9-1.17-2.36L51.94,24h0l-1.23-2.47-.15-.31L50,20.09"/><path class="cls-20" d="M47.58,12.5H44.29c0,2.53,0,5.06,0,7.59h7l-1.7-3.45-1.85-3.75-.19-.39"/><path class="cls-20" d="M44.29,3.21h0l0,0L44,12.12h4.68L47.56,9.86v0L46.48,7.67,44.29,3.21"/><path class="cls-21" d="M50,20.09H44.53v.38h5.68c-.07-.13-.13-.25-.19-.38"/><path class="cls-22" d="M38.74,20.09h0c0,.13-.11.25-.17.38h0l.17-.35h0l0,0"/><path class="cls-21" d="M44.53,20.09H38.74l0,0,5.81,0"/><polyline class="cls-22" points="45.12 27.54 45.11 27.54 45.11 29.05 45.12 29.05 45.12 27.54"/><polyline class="cls-23" points="45.11 27.54 44.39 27.54 44.36 27.54 44.36 29.05 45.11 29.05 45.11 27.54"/><polyline class="cls-21" points="45.12 27.54 44.36 27.54 44.36 27.54 44.39 27.54 45.11 27.54 45.12 27.54"/><path class="cls-24" d="M44.27,3.21h0L42.08,7.67l-2.19,4.46h0l2.19-4.46,2.18-4.43v0"/><path class="cls-25" d="M44.27,3.24,42.09,7.67,39.9,12.13H44l.27-8.88"/><path class="cls-24" d="M38.55,20.47h0l-2.34,4.75,2.34-4.75"/><path class="cls-25" d="M44.53,20.47h-6l-2.34,4.75-1.14,2.32h9.46V20.47"/><path class="cls-26" d="M38.72,20.12h0l-.17.35h0l.17-.35"/><path class="cls-27" d="M44.53,20.09h0l-5.81,0-.17.35h6v-.38"/><polyline class="cls-25" points="44.36 27.54 43.36 27.54 44.36 27.54 44.36 27.54"/><polyline class="cls-28" points="44.36 29.05 43.36 29.05 43.36 33.62 44.36 33.62 44.36 29.05"/><polyline class="cls-29" points="44.36 27.54 43.36 27.54 43.36 29.05 44.36 29.05 44.36 27.54"/><polyline class="cls-27" points="44.36 27.54 43.36 27.54 43.36 27.54 44.36 27.54 44.36 27.54"/><path class="cls-24" d="M41.06,12.13c-1.3,2.65-2.61,5.31-3.92,8h0l3.55-7.2.22-.45.15-.31"/><path class="cls-25" d="M40.91,12.44l-.22.45-3.55,7.2h7.13c0-2.53,0-5.06,0-7.59H40.88l0-.06"/><path class="cls-30" d="M47.4,12.13h0l.19.37h0l-.19-.37"/><path class="cls-21" d="M47.39,12.13h-3.1v.37h3.29l-.19-.37"/><path class="cls-26" d="M41.06,12.13h0l-.15.31.15-.31"/><path class="cls-27" d="M44.29,12.13H41.06l-.15.31,0,.06h3.41v-.37"/><path class="cls-31" d="M81,55.72H68.79v.62H81v-.62m0-1.45H68.79v1.31H81V54.27m-7.15-1.44h-5v1.31h5V52.83m7.15,0H77.86v1.31H81V52.83m-7.15-1.44h-5v1.3h5v-1.3m7.15,0H77.86v1.3H81v-1.3M73.82,50h-5v1.3h5V50M81,50H77.86v1.3H81V50m-7.15-1.44h-5v1.3h5v-1.3m7.15,0H77.86v1.3H81v-1.3m0-2.89H77.05L66.29,46.93H81V45.62m-19.37-.1h0V56.34H64v-.62H61.6v-.14H64V54.27H61.6v-.13H64V52.83H61.6v-.14H64v-1.3H61.6v-.14H64V50H61.6v-.14H64v-1.3H61.6v-.14H64v-.1h4.8v.1h5v0h4v0H81V47.06H65.16l-3.56.44v-2"/><path class="cls-32" d="M64,55.58H61.6v.14H64v-.14m17,0H68.79v.14H81v-.14"/><path class="cls-32" d="M64,54.14H61.6v.13H64v-.13m17,0H77.86v.13h-4v-.13h-5v.13H81v-.13"/><path class="cls-32" d="M64,52.69H61.6v.14H64v-.14m9.83,0h-5v.14h5v-.14m7.15,0H77.86v.14H81v-.14"/><path class="cls-32" d="M64,51.25H61.6v.14H64v-.14m9.83,0h-5v.14h5v-.14m7.15,0H77.86v.14H81v-.14"/><path class="cls-32" d="M64,49.81H61.6V50H64v-.14m9.83,0h-5V50h5v-.14m7.15,0H77.86V50H81v-.14"/><path class="cls-32" d="M64,48.37H61.6v.14H64v-.14m9.83,0h-5v.14h5v-.14m7.15,0H77.86v.14H81v-.14"/><polyline class="cls-32" points="80.97 46.93 80.97 46.93 66.29 46.93 65.16 47.06 80.97 47.06 80.97 46.93"/><polyline class="cls-32" points="80.97 45.52 77.87 45.52 77.05 45.62 80.97 45.62 80.97 45.52"/><path class="cls-33" d="M75.77,48.84h1.51v2.58h0v2.35H74.41V48.84h1.36m2.09-.5h-4v5.93h4V48.34"/><path class="cls-34" d="M77.14,51.42H75.91v2.21h1.23V51.42m-1.37,0H74.55v2.21h1.22V51.42h0M77.14,49H75.91v2.3h1.23V49m-1.37,0H74.55v2.3h1.22V49"/><polyline class="cls-35" points="74.41 51.28 74.41 51.28 74.41 53.77 77.21 53.77 75.77 53.77 75.77 53.63 74.55 53.63 74.55 51.42 75.77 51.42 74.41 51.42 74.41 51.28"/><polyline class="cls-35" points="77.21 51.42 77.21 51.42 77.21 51.42 77.14 51.42 77.14 53.63 75.91 53.63 75.91 51.42 75.77 51.42 75.77 53.63 75.77 53.77 77.21 53.77 77.21 53.7 77.21 53.77 77.28 53.77 77.28 51.42 77.21 51.42 77.21 51.42"/><path class="cls-35" d="M77.21,51.42h0m-1.3-.14V49h1.23v2.3H75.91M77.14,49H75.77v2.3h1.37V49m.14-.14h0v2.58h-.07v0h.07V48.84"/><path class="cls-35" d="M75.77,49h1.37v2.3H74.55V49h1.22m1.51-.14H74.41v2.58h2.8v0h.07V48.84"/><path class="cls-33" d="M64.42,56.33V48.67h4v7.66h-4m4.37-8.06H64v8.09h4.8V48.27"/><path class="cls-35" d="M64.61,56.33V48.9h3.57v7.43H64.61m3.76-7.66h-4v7.66h4V48.67"/><path class="cls-31" d="M67.43,52.9a.29.29,0,1,1,.28-.28.29.29,0,0,1-.28.28m.75-4H64.61v7.43h3.57V48.9"/><path class="cls-35" d="M67.43,52.33a.29.29,0,1,0,0,.57.29.29,0,0,0,0-.57"/><polyline class="cls-35" points="71.38 34.43 71.38 34.43 58.12 44.73 59.14 44.73 62.45 42.15 62.45 42.15 62.59 42.04 62.59 42.05 64.12 40.86 64.12 40.85 64.25 40.74 64.25 40.75 65.78 39.57 65.78 39.55 65.92 39.44 65.92 39.46 67.44 38.27 67.44 38.25 67.58 38.14 67.58 38.17 69.11 36.98 69.11 36.95 69.25 36.84 69.25 36.87 70.77 35.69 70.77 35.65 70.91 35.54 70.91 35.58 71.38 35.22 72.44 36.04 72.44 36 72.57 36.11 72.57 36.15 74.1 37.33 74.1 37.3 74.23 37.41 74.23 37.44 75.76 38.62 75.76 38.6 75.9 38.71 75.9 38.73 77.42 39.92 77.42 39.9 77.56 40 77.56 40.02 79.09 41.21 79.09 41.19 79.23 41.3 79.23 41.31 80.75 42.5 80.75 42.49 80.89 42.6 80.89 42.61 82.42 43.79 82.42 43.79 82.55 43.9 82.55 43.9 83.61 44.72 83.61 44.72 83.6 44.72 83.62 44.73 84.64 44.73 71.38 34.43"/><path class="cls-3" d="M61.6,44.73H59.14l-1,.79H61.6v-.79m22,0H81v.79h3.67l-1-.79"/><polyline class="cls-31" points="80.97 45.15 78.17 45.48 80.97 45.48 80.97 45.15"/><polyline class="cls-32" points="80.97 45.48 80.97 45.48 78.17 45.48 77.87 45.52 80.97 45.52 80.97 45.48"/><path class="cls-31" d="M59.16,44.72l.1-.08v.08h-.1m1.63-1.27.14-.11v1.39h-.14V43.45m1.66-1.3-3.31,2.58h3.31V42.15m10,0a1.57,1.57,0,0,1-1.05.4,1.45,1.45,0,0,1-.47-.07v2.28h1.52V42.11m-8.31-1.25L62.59,42v2.68h1.53V40.86m11.78-.19v4h6.19l-1.2-.79v.79h-.14v-.88l-1.52-1v1.87h-.14v-2l-1.53-1v3h-.14v-3l-1.53-1m-1.66-1.08v5.13h1.52V40.58l-1.52-1m-8.46,0-1.53,1.18v4h1.53V39.57m6.79-1.07v1.35a1.62,1.62,0,0,1,0,2.13v2.74H74.1V39.5l-1.53-1m-5.13-.23-1.52,1.19v5.26h1.52V38.27m3.47-.86v2a1.45,1.45,0,0,1,.47-.07,1.57,1.57,0,0,1,1.05.4V38.41l-1.52-1M69.11,37l-1.53,1.19v6.55h1.53V37m1.66-1.29-1.52,1.18v7.85h1.53V42.39a1.59,1.59,0,0,1-1-1.48,1.61,1.61,0,0,1,1-1.48V37.32l-1.14-.74,1.14-.89h0m.61-.47-.47.36h0l.47-.36"/><polyline class="cls-32" points="59.26 44.64 59.16 44.72 59.26 44.72 59.26 44.64"/><polyline class="cls-32" points="60.93 43.34 60.79 43.45 60.79 44.73 60.93 44.73 60.93 43.34"/><polyline class="cls-32" points="62.59 42.04 62.45 42.15 62.45 42.15 62.45 44.72 62.59 44.72 62.59 42.05 62.59 42.04"/><polyline class="cls-32" points="64.25 40.74 64.12 40.85 64.12 40.86 64.12 44.72 64.25 44.72 64.25 40.75 64.25 40.74"/><polyline class="cls-32" points="65.92 39.44 65.78 39.55 65.78 39.57 65.78 44.72 65.92 44.72 65.92 39.46 65.92 39.44"/><polyline class="cls-32" points="67.58 38.14 67.44 38.25 67.44 38.27 67.44 44.72 67.58 44.72 67.58 38.17 67.58 38.14"/><polyline class="cls-32" points="69.25 36.84 69.11 36.95 69.11 36.98 69.11 44.72 69.25 44.72 69.25 36.87 69.25 36.84"/><path class="cls-32" d="M70.77,42.39v2.33h.14V42.44l-.14,0m0-5.07v2.11l.14,0v-2l-.14-.09m.14-1.78-.14.11v0h0l.14-.11h0v0"/><path class="cls-32" d="M72.57,42l-.14.13v2.61h.14V42m-.14-3.57v1.31l.14.13V38.5l-.14-.09m0-2.41v0l.13.11v0L72.44,36"/><path class="cls-32" d="M74.1,39.5v5.22h.14V39.59l-.14-.09m0-2.2v0l.14.11v0l-.14-.11"/><path class="cls-32" d="M75.76,40.58v4.14h.14v-4l-.14-.09m0-2v0l.14.11v0l-.14-.11"/><path class="cls-32" d="M77.43,41.67v3h.14v-3l-.13-.09m0-1.77v0l.13.1v0l-.13-.1"/><path class="cls-32" d="M79.09,42.76v2h.14V42.85l-.14-.09m0-1.57v0l.14.1h0l-.14-.11"/><path class="cls-32" d="M80.75,43.84v.88h.14v-.79l-.14-.09m0-1.35h0l.14.11h0l-.14-.11"/><path class="cls-32" d="M82.55,44.72h0m-.13-.93h0l.13.11h0l-.13-.1"/><path class="cls-36" d="M82.55,43.9h0l1,.82h0l-1.06-.82m-1.66-1.29h0l1.53,1.19h0l-1.53-1.18m-1.66-1.3h0l1.52,1.18h0l-1.52-1.19M77.56,40h0l1.53,1.18h0L77.56,40M75.9,38.73h0l1.53,1.19h0L75.9,38.73m-1.66-1.29h0l1.52,1.19h0l-1.52-1.18m-1.67-1.29h0l1.53,1.18h0l-1.53-1.18m-1.19-.93h0l1.06.82h0l-1.06-.82"/><path class="cls-37" d="M82.55,43.9v.82h1l-1-.82m-1.66-1.29v1.32l1.2.79h.33V43.8l-1.53-1.19m-1.66-1.29v1.53l1.52,1V42.5l-1.52-1.18M77.56,40v1.73l1.53,1V41.21L77.56,40m-1.66-1.3v1.94l1.53,1V39.92L75.9,38.73m-1.66-1.29v2.15l1.52,1V38.63l-1.52-1.19m-1.67-1.29V38.5l1.53,1V37.33l-1.53-1.18m-1.8-.46-1.14.89,1.14.74V35.69m.61-.47h0l-.47.36v1.83l1.52,1V36l-1.06-.82"/><polyline class="cls-38" points="70.91 35.58 70.77 35.69 70.77 37.32 70.91 37.41 70.91 35.58"/><polyline class="cls-38" points="72.44 36.04 72.44 36.04 72.44 38.41 72.57 38.5 72.57 36.15 72.57 36.15 72.44 36.04"/><polyline class="cls-38" points="74.1 37.33 74.1 37.33 74.1 39.5 74.23 39.59 74.23 37.44 74.23 37.44 74.1 37.33"/><polyline class="cls-38" points="75.76 38.62 75.76 38.63 75.76 40.58 75.9 40.67 75.9 38.73 75.9 38.73 75.76 38.62"/><polyline class="cls-38" points="77.42 39.92 77.42 39.92 77.42 41.67 77.56 41.76 77.56 40.03 77.56 40.02 77.42 39.92"/><polyline class="cls-38" points="79.09 41.21 79.09 41.21 79.09 42.76 79.23 42.85 79.23 41.32 79.23 41.31 79.09 41.21"/><polyline class="cls-38" points="80.75 42.5 80.75 42.5 80.75 43.84 80.89 43.93 80.89 42.61 80.89 42.61 80.75 42.5"/><polyline class="cls-38" points="82.42 43.79 82.42 43.8 82.42 44.72 82.55 44.72 82.55 43.9 82.55 43.9 82.42 43.79"/><path class="cls-33" d="M71.38,42.21a1.3,1.3,0,1,1,1.29-1.3h0a1.3,1.3,0,0,1-1.29,1.3m0-2.89a1.45,1.45,0,0,0-.47.07l-.14,0a1.61,1.61,0,0,0-1,1.48,1.59,1.59,0,0,0,1,1.48l.14,0a1.45,1.45,0,0,0,.47.07,1.57,1.57,0,0,0,1.05-.4l.14-.13a1.62,1.62,0,0,0,0-2.13l-.14-.13a1.57,1.57,0,0,0-1.05-.4"/><path class="cls-34" d="M71.38,39.76a1.16,1.16,0,1,0,1.15,1.15,1.16,1.16,0,0,0-1.15-1.15"/><path class="cls-35" d="M71.38,42.07a1.16,1.16,0,1,1,1.15-1.16,1.16,1.16,0,0,1-1.15,1.16m0-2.45a1.3,1.3,0,1,0,1.29,1.29h0a1.29,1.29,0,0,0-1.29-1.29"/><path class="cls-37" d="M65.16,47.06H61.6v.44l3.56-.44m11.89-1.44H61.6v1.31h4.69l10.76-1.31"/><polyline class="cls-38" points="66.29 46.93 61.6 46.93 61.6 47.06 65.16 47.06 66.29 46.93"/><polyline class="cls-38" points="77.87 45.52 61.6 45.52 61.6 45.62 77.05 45.62 77.87 45.52"/><polyline class="cls-37" points="80.97 44.73 61.6 44.73 61.6 45.48 78.17 45.48 80.97 45.15 80.97 44.73"/><polyline class="cls-38" points="78.17 45.48 61.6 45.48 61.6 45.52 77.87 45.52 78.17 45.48"/><polyline class="cls-37" points="80.97 44.72 75.9 44.72 75.9 44.72 75.76 44.72 75.76 44.72 74.23 44.72 74.23 44.72 74.1 44.72 74.1 44.72 72.57 44.72 72.57 44.72 72.44 44.72 72.44 44.72 70.91 44.72 70.91 44.73 70.77 44.73 70.77 44.72 69.25 44.72 69.25 44.73 69.11 44.73 69.11 44.72 67.58 44.72 67.58 44.73 67.44 44.73 67.44 44.72 65.92 44.72 65.92 44.73 65.78 44.73 65.78 44.72 64.25 44.72 64.25 44.73 64.12 44.73 64.12 44.72 62.59 44.72 62.59 44.73 62.45 44.73 62.45 44.72 61.6 44.72 61.6 44.73 80.97 44.73 80.97 44.72"/><polyline class="cls-38" points="62.59 44.72 62.45 44.72 62.45 44.73 62.59 44.73 62.59 44.72"/><polyline class="cls-38" points="64.25 44.72 64.12 44.72 64.12 44.73 64.25 44.73 64.25 44.72"/><polyline class="cls-38" points="65.92 44.72 65.78 44.72 65.78 44.73 65.92 44.73 65.92 44.72"/><polyline class="cls-38" points="67.58 44.72 67.44 44.72 67.44 44.73 67.58 44.73 67.58 44.72"/><polyline class="cls-38" points="69.25 44.72 69.11 44.72 69.11 44.73 69.25 44.73 69.25 44.72"/><polyline class="cls-38" points="70.91 44.72 70.77 44.72 70.77 44.73 70.91 44.73 70.91 44.72"/><polyline class="cls-38" points="72.57 44.72 72.44 44.72 72.44 44.72 72.57 44.72 72.57 44.72"/><polyline class="cls-38" points="74.23 44.72 74.1 44.72 74.1 44.72 74.23 44.72 74.23 44.72"/><polyline class="cls-38" points="75.9 44.72 75.76 44.72 75.76 44.72 75.9 44.72 75.9 44.72"/><polyline class="cls-31" points="36.47 72.25 36.47 72.25 36.47 74.09 38.32 74.09 36.47 74.09 36.47 74.02 51.27 74.02 51.27 72.41 36.47 72.41 36.47 72.25"/><polyline class="cls-39" points="51.27 72.25 36.47 72.25 36.47 72.41 51.27 72.41 51.27 72.25"/><polyline class="cls-40" points="51.27 74.02 36.47 74.02 36.47 74.09 38.32 74.09 39.25 74.09 49.19 74.09 50.11 74.09 50.11 74.09 51.27 74.09 51.27 74.02"/><polyline class="cls-31" points="50.57 58.84 37.17 58.84 39.02 72.25 48.95 72.25 50.57 58.84"/><polyline class="cls-31" points="38.32 74.09 38.32 74.09 38.32 82.65 39.25 82.65 39.25 77.57 38.32 78.35 38.32 74.09"/><polyline class="cls-31" points="50.11 74.09 50.11 74.09 50.11 77.57 49.19 78.35 49.19 74.09 49.19 82.65 50.11 82.65 50.11 74.09"/><polyline class="cls-41" points="39.25 74.09 38.32 74.09 38.32 78.35 39.25 77.57 39.25 74.09"/><polyline class="cls-41" points="50.11 74.09 49.19 74.09 49.19 78.35 50.11 77.57 50.11 74.09"/><path class="cls-42" d="M52.8,45.11h-.75a6.93,6.93,0,0,1-10.11,6.17l-.53.57A7.69,7.69,0,0,0,52.8,45.11m0,0h0m-1.09-3.94-.54.56a6.89,6.89,0,0,1,.88,3.38h.75a7.64,7.64,0,0,0-1.09-3.94m-6.6-3.75a7.7,7.7,0,0,0-6.6,11.63l.54-.56a7,7,0,0,1-.87-3.38,6.93,6.93,0,0,1,10.08-6.18l.56-.56a7.72,7.72,0,0,0-3.71-.95"/><path class="cls-3" d="M39.05,48.49l-.54.56A7.69,7.69,0,0,0,40,50.81l-.2-1,.34,0a6.63,6.63,0,0,1-1.05-1.41m11.13-9.16.16,1.13h-.09a7.29,7.29,0,0,1,.92,1.28l.54-.56a7.73,7.73,0,0,0-1.53-1.84"/><polyline class="cls-42" points="49.89 37.3 48.82 38.37 48.26 38.93 47.18 40.01 50.25 40.45 50.34 40.46 50.18 39.33 49.89 37.3"/><polyline class="cls-42" points="39.77 49.86 39.96 50.81 40.39 52.93 41.41 51.85 41.94 51.28 42.87 50.28 40.1 49.9 39.77 49.86"/></g></g></svg>