<svg xmlns="http://www.w3.org/2000/svg" xmlns:xlink="http://www.w3.org/1999/xlink" viewBox="0 0 90.23 90.23"><defs><style>.cls-1{fill:none;}.cls-2{clip-path:url(#clip-path);}.cls-3{fill:#b4ded4;}.cls-4{fill:#a44a49;}.cls-5{fill:#b84e54;}.cls-6{fill:#98bcb4;}.cls-7{fill:#8b3f3e;}.cls-8{fill:#9c4247;}.cls-9{fill:#cfeaf9;}.cls-10{fill:#3d3d3d;}.cls-11{fill:#e5a951;}.cls-12{fill:#c1c1c1;}.cls-13{fill:#dbdbdb;}.cls-14{fill:#823737;}.cls-15{fill:#dfe0e1;}.cls-16{fill:#846e63;}.cls-17{fill:#4a3d37;}.cls-18{fill:#725338;}.cls-19{fill:#455955;}.cls-20{fill:#752f16;}.cls-21{fill:#253532;}.cls-22{fill:#bd553c;}.cls-23{fill:#7f5f3d;}.cls-24{fill:#e5a080;}.cls-25{fill:#f8fbf7;}.cls-26{fill:#2f3e43;}.cls-27{fill:#fffffc;}.cls-28{fill:#d19176;}.cls-29{fill:#8b6338;}.cls-30{fill:#656a68;}.cls-31{fill:#94989b;}.cls-32{fill:#efc150;}.cls-33{fill:#2f3e42;}.cls-34{fill:#533412;}.cls-35{fill:#684e32;}.cls-36{fill:#5d442e;}.cls-37{fill:#72512e;}.cls-38{fill:#c49e42;}.cls-39{fill:#7e3938;}.cls-40{fill:#9fb5bf;}.cls-41{fill:#91422e;}.cls-42{fill:#6b4c2b;}.cls-43{fill:#503c26;}.cls-44{fill:#583f23;}.cls-45{fill:#3d3c3c;}.cls-46{fill:#fc9424;}.cls-47{fill:#211710;}.cls-48{fill:#dd7812;}.cls-49{fill:#2b2b2b;}.cls-50{fill:#1f4966;}.cls-51{fill:#d1e951;}.cls-52{fill:#704c2f;}.cls-53{fill:#6d6d6d;}.cls-54{fill:#d87f1f;}.cls-55{fill:#a6a6a6;}.cls-56{fill:#715e55;}.cls-57{fill:#40342f;}.cls-58{fill:#1c140e;}.cls-59{fill:#be670f;}.cls-60{fill:#604128;}.cls-61{fill:#5e5e5e;}.cls-62{fill:#212121;}.cls-63{fill:#222d30;}</style><clipPath id="clip-path"><polyline class="cls-1" points="0 0 90.23 0 90.23 90.23 0 90.23 0 0"/></clipPath></defs><title>Summary02</title><g id="Layer_2_flatted" data-name="Layer 2_flatted"><g class="cls-2"><path class="cls-3" d="M66.09,66.35h-2v.55h2v-.55m1.62-2.1h0m2.06,0h0m.61-2.33-.09.34h0l.09-.34m.4-7.35.34,5.72,1.58-3.14-1.92-2.58m-.56-9.18a5.49,5.49,0,0,1-.13.81,4,4,0,0,0,.13-.81m-11.59-3.7H57.46l.93.57q.13-.34.24-.57m.12-5.55h0l.06,0-.06,0M36,32.75h0m-1.44,7.32c-.3-.17-.64-.59-.59-1.52a1.27,1.27,0,0,1,.92-1.32H36v2.84H34.53M15.12,20.91h7l.74,32.47H14.43l.69-32.47h0m2.42-10.23h0a.84.84,0,1,1-.84.83.84.84,0,0,1,.84-.83M45.22,0H45A45,45,0,0,0,14.92,11.59a2.5,2.5,0,0,1,.91,1.83h0a1.46,1.46,0,0,1,1.42,1.11l.29,0a2.2,2.2,0,1,1-2.19,2.2,2.32,2.32,0,0,1,0-.46,1.44,1.44,0,0,1-.78-.59,2.54,2.54,0,0,1-1.25.34,2.61,2.61,0,0,1-.93-.18,1.76,1.76,0,0,1-2.24.74A44.93,44.93,0,0,0,.11,41.88v6.46A44.92,44.92,0,0,0,5.45,66.63l7,0V53.38H29.66V45.7h0V41.56L35,44.77l.3-.5H36.4a25.09,25.09,0,0,1-.43-4.2h0V37.23h-1.1a9.18,9.18,0,0,1-.56-3.13A9,9,0,0,1,36,28.77a8.33,8.33,0,0,1,6.6-2.71,10.4,10.4,0,0,1,6.72,2.23A8.38,8.38,0,0,1,51,30.45a8.65,8.65,0,0,1,.79,4.35,10.16,10.16,0,0,1-.39,2.43h-1.1v2.84h0a22.42,22.42,0,0,1-.43,4.22h.45V41.56l1,.61.43-2.12,0,0H50.32V37.23h1.1a1.19,1.19,0,0,1,.8.71l1.84-9,1.22.25L52.49,42.85l4.72,2.85h0V41.63a1.11,1.11,0,0,1-.46-1.09,1,1,0,0,1,.9-1h0s-.16-1.33-.19-2.37.59-1.47.61-1.78a3.2,3.2,0,0,1,.58-1.81c.56-.77,2.63-1.62,6-1.77l.94,0h.08c2.87,0,4.9.56,4.76.92s-1.17.7-1.17.7a10.82,10.82,0,0,1,2.15.17c.18.06.3.13.32.22s-.2.36-.29.45a7.75,7.75,0,0,1-1.88,1v6.26h0V39.54H70.7a1,1,0,0,1,.9,1A1.07,1.07,0,0,1,71,41.69H69.74a6.88,6.88,0,0,1,.48,3.7l1.86-.54-.18-.6,3.93-1.07.12.56.71-.2.44,1.61-.8.21.29,1.32a4.67,4.67,0,0,0,.83,1.55,2.27,2.27,0,0,0,1.11.91h0a1.78,1.78,0,0,0,.59.11h0c0,.06-.09.19-.19.36a4.86,4.86,0,0,1-2.67,2.24h0a4.56,4.56,0,0,1-1.41.23,4.82,4.82,0,0,1-1.38-.21,5.28,5.28,0,0,1-1.61-.78h0l.17-.23a6.56,6.56,0,0,0,.84-1.46,3.46,3.46,0,0,0,0-2l-.33-1.06-2.79.74c-.05.08-.09.16-.14.23v.9l-3.15,2.15h0l3.58-2.45v1.53l.4-.21.05.76,6.33,7.66-2.75,6L73,63.07l.79.45-1,1.76-2.38-.62v1.69h-.88v.54l5.19,0c2.9,0,6.24-.08,10-.15a44.87,44.87,0,0,0,5.5-21.48V45a45.12,45.12,0,0,0-45-45"/><path class="cls-4" d="M64.1,66.35H62.19v.55H64.1v-.55m-18.44-.52h-.5v1h.5v-1m16.5-1.58h0M34.7,63.8h0m-2.41-.15L32,64.86l-2.29-.63v2.49h2.63V63.65m2.41-1.06h0m.11-2.39h0m21.24-.12-1.72.67v2.78h-2.9v2.3H50.26v1l8.42,0v-.54h-.89v-2.1h0v-.72H56.05V60.08M34.92,59h0m16-4.68.11,1.59h0l.36-.21L51,54.33m1.1-1.81-1.2.26h0l1.2-.26h0M51.62,52l-.72.2.72-.2m6-1.66-2.11.58.95,1.37,1.16-2m.15-1,0,.65,0-.65h0m-22-.07-2.32,5.13-.07,1.6h1.77l.62-6.73m22.34-.43,0,.72h0l0-.72m-23.76-3H29.66v7.78l2.65-4.35v-.45h.28L33,48H30.58v-1h2.51v.93l1.32-2.16m23.72,0H51.9l2.22,3.17.24-.06.16.63,3.63-1,0-.5,3.66,2.45h0l-3-2V47.11a5.09,5.09,0,0,1-.43-.84c-.07-.19-.14-.38-.19-.57"/><path class="cls-4" d="M17.71,66V65h2.52v1H17.71m5.5,0V65h2.51v1H23.21m-9-2.49V57.48h6.06v6.05H14.17m6.87,0V57.48H27.1v6.05H21m-8.17-7.09v-1h2.51v1H12.87m2.8-1v-1h2.52v1H15.67m13.59-2H12.43V66.65L28,66.71h.51l.23-4.4h-.06l.37-7.91.12-.2.05-.82"/><path class="cls-4" d="M18.7,50.72v-1h2.51v1H18.7m.69-8.65v-1H21.9v1H19.39m2.76-21.16h-3.6v1.15H21v1H18.55V39.47h.69v1h-.69V53.38h4.34l-.74-32.47"/><polyline class="cls-5" points="32.59 48.68 32.31 48.68 32.31 49.13 32.59 48.68"/><polyline class="cls-5" points="18.19 54.4 15.67 54.4 15.67 55.42 18.19 55.42 18.19 54.4"/><polyline class="cls-5" points="21.21 49.7 18.7 49.7 18.7 50.72 21.21 50.72 21.21 49.7"/><polyline class="cls-5" points="19.24 39.47 18.55 39.47 18.55 40.49 19.24 40.49 19.24 39.47"/><polyline class="cls-5" points="20.99 22.06 18.55 22.06 18.55 23.08 20.99 23.08 20.99 22.06"/><polyline class="cls-5" points="21.9 41.05 19.39 41.05 19.39 42.07 21.9 42.07 21.9 41.05"/><polyline class="cls-5" points="15.38 55.42 12.87 55.42 12.87 56.44 15.38 56.44 15.38 55.42"/><polyline class="cls-5" points="20.23 65 17.71 65 17.71 66.02 20.23 66.02 20.23 65"/><polyline class="cls-5" points="25.72 65 23.21 65 23.21 66.02 25.72 66.02 25.72 65"/><polyline class="cls-5" points="33.09 46.93 30.58 46.93 30.58 47.95 33.03 47.95 33.09 47.86 33.09 46.93"/><polyline class="cls-6" points="15.12 20.91 15.12 20.91 14.43 53.38 15.12 20.91"/><path class="cls-7" d="M15.2,45.7v-1h2.51v1H15.2m.51-10.93v-1h2.51v1H15.71m2.84-13.86H15.12l-.69,32.47h4.12V40.49H16.73v-1h1.82V23.08h-.07v-1h.07V20.91"/><polyline class="cls-8" points="17.71 44.68 15.2 44.68 15.2 45.7 17.71 45.7 17.71 44.68"/><polyline class="cls-8" points="18.55 39.47 16.73 39.47 16.73 40.49 18.55 40.49 18.55 39.47"/><polyline class="cls-8" points="18.22 33.75 15.71 33.75 15.71 34.77 18.22 34.77 18.22 33.75"/><polyline class="cls-8" points="18.55 22.06 18.48 22.06 18.48 23.08 18.55 23.08 18.55 22.06"/><polyline class="cls-9" points="52.52 58.88 51.29 59.28 51.43 61.36 51.43 62.37 51.43 63.16 53.96 63.16 53.96 60.89 53.29 61.15 52.52 58.88"/><polyline class="cls-10" points="54.33 60.75 53.96 60.89 53.96 63.16 51.43 63.16 51.43 63.4 51.43 63.53 54.33 63.53 54.33 60.75"/><polyline class="cls-9" points="57.14 58.44 56.7 59.83 56.42 59.93 56.42 63.16 57.79 63.16 57.79 62.26 59.9 62.26 60.48 62.26 61.73 62.26 56.88 62.26 57.14 58.44"/><polyline class="cls-10" points="56.42 59.93 56.05 60.08 56.05 63.53 57.79 63.53 57.79 63.16 56.42 63.16 56.42 59.93"/><polyline class="cls-9" points="26.73 57.85 21.42 57.85 21.42 63.16 26.73 63.16 26.73 57.85"/><path class="cls-10" d="M21.42,63.16V57.85h5.31v5.31H21.42m5.68-5.68H21v6.05H27.1V57.48"/><polyline class="cls-9" points="19.86 57.85 14.54 57.85 14.54 63.16 19.86 63.16 19.86 57.85"/><path class="cls-10" d="M14.54,63.16V57.85h5.31v5.31H14.54m5.69-5.68H14.17v6.05h6.06V57.48"/><path class="cls-11" d="M45.16,65.83h-.62v1h.62v-1M32.91,62.31h-.24l-.38,1.34v3.08h.62V63.81h0V62.6h0v-.28m.62-2.11h0m0-1.19h0m1.68-3.1H33.44l0,.61h1.74l.06-.61"/><path class="cls-12" d="M35.15,56.52H33.41l-.06,1.29H35l.12-1.29"/><path class="cls-13" d="M35,57.81H33.35L33.3,59h1.62v-.15l.07-.77,0-.28"/><path class="cls-12" d="M34.92,59H33.3l-.06,1.19h1.57L34.92,59"/><path class="cls-13" d="M34.81,60.21H33.24l-.05,1.19H34.7v0l.11-1.15"/><path class="cls-12" d="M34.7,61.4H33.19l0,.91h-.24v.28H34.7V61.4"/><polyline class="cls-13" points="34.7 62.6 33.53 62.6 32.91 62.6 32.91 63.8 33.53 63.8 34.7 63.8 34.7 63.42 34.7 62.6"/><polyline class="cls-12" points="34.7 63.81 33.53 63.81 32.91 63.81 32.91 65.01 32.91 65 34.7 65 34.7 63.81"/><path class="cls-13" d="M44.54,65.83h-4v.36h4v-.36M34.7,65H32.91V66.2h3v-.36H34.7V65"/><path class="cls-12" d="M35.87,66.19h-3v.54h3v-.56m8.67,0h-4v.59l4,0v-.61"/><path class="cls-7" d="M29.17,62.31h-.39l-.23,4.4h1.11V64.23l-.53-.15,0-1.77m.49-8.93h-.4l-.05.82.45-.72v-.1"/><path class="cls-14" d="M57.24,41.63V45.7h.89a5.69,5.69,0,0,1,.14-3.09l-1-.6v-.38h0"/><path class="cls-4" d="M57.24,41.63V42l1,.6c0-.13.08-.24.12-.35l-.93-.57h-.1l-.12-.06"/><path class="cls-14" d="M52.41,43.22,51.9,45.7h4.73l-4.22-2.48m-2.07-1.66h0v2.73h.58l.36-1.75L50.34,42v-.45"/><path class="cls-4" d="M52.49,42.85l-.08.37,4.22,2.48h.58l-4.72-2.85m-2.15-1.29h0V42l.94.54.08-.38-1-.61"/><polyline class="cls-14" points="29.66 41.56 29.66 41.56 29.66 45.7 34.41 45.7 34.81 45.04 29.66 42.01 29.66 41.56"/><polyline class="cls-4" points="29.66 41.56 29.66 41.56 29.66 42.01 34.81 45.04 34.98 44.77 29.66 41.56"/><path class="cls-15" d="M17.54,14.51l-.29,0a1.87,1.87,0,0,1,0,.34,1.45,1.45,0,0,1-1.45,1.45,1.31,1.31,0,0,1-.44-.07,2.32,2.32,0,0,0,0,.46,2.19,2.19,0,1,0,2.19-2.2"/><path class="cls-15" d="M14.92,11.59c-.86.78-1.7,1.59-2.5,2.43a1.78,1.78,0,0,1,.25.91,1.79,1.79,0,0,1-.24.89,2.61,2.61,0,0,0,.93.18,2.54,2.54,0,0,0,1.25-.34,1.52,1.52,0,0,1-.23-.79,1.45,1.45,0,0,1,1.45-1.45,2.5,2.5,0,0,0-.91-1.83"/><path class="cls-15" d="M12.42,14c-.77.82-1.52,1.67-2.23,2.54A1.78,1.78,0,0,0,12.42,14"/><path class="cls-15" d="M15.83,13.42h0a1.45,1.45,0,0,0-1.45,1.45,1.52,1.52,0,0,0,.23.79,1.44,1.44,0,0,0,.78.59,1.31,1.31,0,0,0,.44.07,1.45,1.45,0,0,0,1.45-1.45,1.87,1.87,0,0,0,0-.34,1.46,1.46,0,0,0-1.42-1.11"/><path class="cls-15" d="M17.54,10.68h0a.84.84,0,1,0,.84.83.84.84,0,0,0-.84-.83"/><path class="cls-16" d="M46.17,88c-4.36,0-9.5,0-14.83.1a46.26,46.26,0,0,0,5.54,1.39q7.71.08,15.43.18a44,44,0,0,0,6.39-1.52L54,88.05c-2.09,0-4.78-.06-7.85-.06"/><path class="cls-16" d="M27.38,86.61c1.29.55,2.61,1,4,1.48C36.67,88,41.81,88,46.17,88c3.07,0,5.76,0,7.85.06l4.68.09c1.17-.36,2.31-.78,3.43-1.23l-7.37-.09q-13.69-.13-27.38-.21m23-6.29,0,.58,3,.45L53.5,83h-6l-.19.09H69.44c1.12-.72,2.2-1.48,3.24-2.29-8.3-.06-14.67-.31-22.35-.5m-17.56-.21c-4.75,0-10.07,0-15.91.17a44.37,44.37,0,0,0,4.13,3q10.65-.09,21.29-.11A6.27,6.27,0,0,1,40.51,82V83H32.67l.15-1.67,3-.45,0-.79H32.77"/><path class="cls-16" d="M35.85,79.21c-4.63,0-11,.11-20,.23.33.28.67.57,1,.84,5.84-.13,11.16-.17,15.91-.17h3.06l0-.9m29.47-.13H62.19v.29H56.6v-.26H55.43l-5.13,0,0,1.17c7.68.19,14,.44,22.35.5.68-.52,1.35-1.07,2-1.63l-1.22,0-1.77,0v.25h-5.6v-.3h-.77m4.74-3.46v1.45c1.85.06,4,.12,6.72.17.47-.45.92-.92,1.36-1.4-2.89,0-5.56-.09-8.08-.22m-19.8-1.5v.27h0v1.83h.17v.37h2.2c2.24,0,4,0,5.64,0V75.41H62.6v1.36l3.14.13V75.41h.35v0c-1.32-.09-2.62-.2-3.9-.3v.33H58.68v-.63c-2.76-.23-5.52-.47-8.42-.66M35.87,73.8C29,74,21,74.58,11.47,75.17c.69.77,1.4,1.52,2.14,2.24H15c9.08,0,14.79-.27,20.73-.49v-.7h.15v-1h0V74.12h0V73.8m5.27,0,3.42.7.12-.62-3.38-.08h-.16m-.63,0v1.76l.35-1.75h-.35"/><path class="cls-16" d="M69.58,74.26v1.15h.48v.21c2.52.13,5.19.21,8.08.22.45-.48.89-1,1.32-1.48-3.64,0-6.87,0-9.88-.1m-7.39-.21v1c1.28.1,2.58.21,3.9.3V74.17q-2,0-3.9-.12m-11.93-.41v.48h0c2.9.19,5.66.43,8.42.66v-.85c-2.74-.1-5.49-.2-8.42-.29m-9.75-.24v.35h.35v-.05l.27.05h.16l3.38.08.08-.35-3.29-.07-1,0m-8.46-.06c-6.3,0-13.61.11-21.79.42.39.48.8.95,1.21,1.41C21,74.58,29,74,35.87,73.8v-.45H32.05m37.53-.73v0c2,0,4.1,0,6.3.06-2.25,0-4.33-.06-6.3-.11m-7.39-.25v.12l3.9.11v-.08l-3.9-.15m-11.93-.52v.22l8.42.31v-.16c-2.77-.13-5.51-.26-8.42-.37m-9.75-.28v.21l4.57.13.05-.24-4.62-.1m-7-.06-5.07,0,7.46.13v-.15H33.48"/><path class="cls-16" d="M69.58,70.27v2.34c2,0,4,.09,6.3.11h1l3.94,0c.52-.67,1-1.35,1.49-2l-4.9-.11c-2.83-.07-5.41-.17-7.82-.28m-7.39-.37v2.46l3.9.15v-2.4l-3.9-.21m-11.93-.65v2.59c2.91.11,5.65.24,8.42.37V69.7c-2.81-.17-5.54-.32-8.42-.45M40.51,69v2.6l4.62.1.07-.35.18,0L45.66,70v-.9C44,69,42.31,69,40.51,69m-4.77,0H33.88c-2,0-10,.07-20.46.26L7,69.32c.46.72.94,1.43,1.44,2.12h5q8,0,14.94.1l5.07,0h2.39V68.92h-.13m26.45-2v1.51h3.9V66.9h-3.9m-11.93-.06v1.52l8.42,0V66.89l-8.42,0m-9.75-.06v1.51l5.15,0V66.81H44.54l-4,0m44.22-.08c-3.72.07-7.06.12-10,.15l-5.19,0v1.52l5.36,0c2.63,0,5.61-.07,8.92-.13.3-.51.59-1,.87-1.54M5.45,66.63c.28.51.57,1,.87,1.52,5.92,0,13.36,0,21.89.08l7.66,0V66.75H28l-15.61-.06-7,0"/><path class="cls-17" d="M36.88,89.48a45.56,45.56,0,0,0,8.23.75,46.22,46.22,0,0,0,7.2-.57q-7.71-.1-15.43-.18"/><path class="cls-17" d="M58.63,83.1H47.3a6.49,6.49,0,0,1-2.5.54h0a6.32,6.32,0,0,1-1.11-.11h0a6.38,6.38,0,0,1-1.34-.41q-10.65,0-21.29.11a44.75,44.75,0,0,0,6.39,3.37q13.69.08,27.38.21l7.37.09a44.8,44.8,0,0,0,7.31-3.8H58.63"/><path class="cls-17" d="M35.72,76.92c-5.94.22-11.65.46-20.73.49H13.61c.72.7,1.46,1.37,2.23,2,9-.12,15.38-.19,20-.23V78.15h-.14V76.92m16.91-.33h-2.2v1.56h-.16l0,1,5.13,0H56.6v-.64l2-.5.06-.9h3.52v2h3.9v-2h3.53l0,.9,2,.5v.65l1.77,0,1.22,0q1.08-.94,2.1-2c-2.7,0-4.87-.11-6.72-.17H65.74V76.9l-3.14-.13v.31H58.27v-.44c-1.59,0-3.4,0-5.64,0"/><path class="cls-17" d="M69.58,72.66v1.6c3,.06,6.24.1,9.88.1.46-.53.9-1.08,1.33-1.63H75.88c-2.2,0-4.29,0-6.3-.06m-7.39-.18v1.57q1.92.08,3.9.12V72.59l-3.9-.11m-11.93-.42V73.3h0v.34c2.93.09,5.68.19,8.42.29V72.37l-8.42-.31m-9.75-.29V73.4l1,0,3.29.07.32-1.59-4.57-.13m-12.1-.24c-5.58.07-12.08.26-19.38.67.4.52.81,1,1.23,1.56,8.18-.31,15.49-.42,21.79-.42h3.82V71.66l-7.46-.13"/><path class="cls-17" d="M80.81,72.7l-3.94,0h3.92l0,0M13.47,71.43h-5c.18.26.36.51.55.76,7.3-.41,13.8-.6,19.38-.67q-6.94-.09-14.94-.1"/><path class="cls-17" d="M62.19,68.41V69.9l3.9.21V68.42h-3.9m-11.93,0v.89c2.88.13,5.61.28,8.42.45V68.4l-8.42,0m-9.75-.07V69c1.8,0,3.51.06,5.15.11v-.74l-5.15,0m43.35-.05c-3.31.06-6.29.1-8.92.13l-5.36,0v1.86c2.41.11,5,.21,7.82.28l4.9.11c.55-.79,1.06-1.6,1.56-2.42M6.32,68.15q.34.59.72,1.17l6.38-.13c10.42-.19,18.49-.25,20.46-.26h2v-.65l-7.66,0c-8.53,0-16-.07-21.89-.08"/><polyline class="cls-18" points="62.19 77.08 58.67 77.08 58.61 77.98 56.6 78.48 56.6 79.12 56.6 79.38 62.19 79.38 62.19 79.09 62.19 77.08"/><polyline class="cls-18" points="69.62 77.08 66.09 77.08 66.09 79.08 66.09 79.38 71.69 79.38 71.69 79.13 71.69 78.48 69.67 77.98 69.62 77.08"/><polyline class="cls-19" points="62.6 75.41 58.27 75.41 58.27 76.64 58.27 77.08 62.6 77.08 62.6 76.77 62.6 75.41"/><polyline class="cls-19" points="70.06 75.41 66.48 75.41 65.74 75.41 65.74 76.9 65.74 77.08 70.06 77.08 70.06 77.07 70.06 75.62 70.06 75.41"/><path class="cls-20" d="M59.9,62.26H57.79v2h2.12v-2m2.26,0H60.48v2h1.68v-2m5.54,0H66.21v2h1.5v-2m2.59,0h-2v2h1.47l.52-2"/><polyline class="cls-21" points="68.31 62.26 67.7 62.26 67.7 64.25 66.21 64.25 66.21 64.89 62.16 64.89 62.16 64.25 60.48 64.25 60.48 62.26 59.9 62.26 59.91 64.25 57.79 64.25 57.79 66.35 58.68 66.35 58.68 66.89 58.68 68.4 58.68 69.7 58.68 72.21 58.68 72.37 58.68 73.93 58.68 74.78 58.68 75.41 62.19 75.41 62.19 75.08 62.19 74.05 62.19 72.48 62.19 72.36 62.19 69.9 62.19 68.41 62.19 66.9 62.19 66.35 64.1 66.35 66.09 66.35 66.09 66.9 66.09 68.42 66.09 70.11 66.09 72.51 66.09 72.59 66.09 74.17 66.09 75.38 66.09 75.41 66.48 75.41 69.58 75.41 69.58 74.26 69.58 72.66 69.58 72.61 69.58 70.28 69.58 68.41 69.58 66.89 69.58 66.35 70.46 66.35 70.46 64.66 69.71 64.47 69.77 64.25 68.3 64.25 68.31 62.26"/><path class="cls-22" d="M56.17,57.68l-3.65,1.2.77,2.27.67-.26.37-.14,1.72-.67.37-.15.28-.1-.53-2.15m-4.1-5.16-1.2.26.1,1.55.47,1.38,1.76-1-1.13-2.18M70.51,50l.27,4.56,1.92,2.58-1.58,3.14h0l-.66,1.31L73,63.07l1.08.62,2.75-6L70.51,50m-.45-2.08-3.59,2.45h0L64.16,52l-2.37-1.58-3.66-2.45,0,.5h0l0,.32,0,.72,6,3.09,5.9-3.1V47.93"/><path class="cls-23" d="M57.79,49.25h0m10.15,8.18c-2.23,0-1.87-3.69-1.87-3.69h3.49s.62,3.69-1.62,3.69m2.52-8.18-.4.21-5.9,3.1v8.91h2v.79h4.08l.09-.34.08-.32.66-1.31-.34-5.72L70.51,50l-.05-.76"/><path class="cls-18" d="M69.56,53.74H66.07s-.36,3.69,1.87,3.69,1.62-3.69,1.62-3.69"/><path class="cls-24" d="M58.75,47.11v1.24l3,2h4.69l3.14-2.15v-.9c-1.14,1.83-3.72,2.37-5.41,2.37h-.15c-.24,0-3.7-.13-5.31-2.59m3.4-6.56c-.14,0-.35-.07-.4-.64s.27-.75.4-.75.4.23.4.69-.25.7-.4.7m4,0c-.14,0-.35-.07-.4-.64s.26-.75.4-.75.4.23.4.69-.25.7-.4.7m-4.82-2.4a.23.23,0,1,1,0-.45H63a.22.22,0,0,1,.22.22.22.22,0,0,1-.22.23H61.36m4.07,0a.23.23,0,1,1,0-.45H67a.22.22,0,0,1,.22.22.22.22,0,0,1-.22.23H65.43m4.19-2.95a21,21,0,0,1-7.43,1.28,24.86,24.86,0,0,1-2.66-.14,3,3,0,0,1-.72-.18l-.06,0v5.32l1.39,1.64a4.06,4.06,0,0,1,2-.92,3.77,3.77,0,0,1,.65,0,4.15,4.15,0,0,1,1.33.21,10.75,10.75,0,0,1,1.66-.18H66a3.53,3.53,0,0,1,2.21,1.1l1.39-1.81V35.2"/><polyline class="cls-25" points="66.47 50.38 66.47 50.38 61.79 50.38 64.16 51.96 66.47 50.38"/><path class="cls-26" d="M64.16,44.1h0A3.31,3.31,0,0,1,63,43.88a1.6,1.6,0,0,0,.69-.38,1.33,1.33,0,0,0,.28-.4h.25a2.7,2.7,0,0,0,.38.41,2.3,2.3,0,0,0,.67.37,3.17,3.17,0,0,1-1.14.22m5.46-2.64h0l-1.39,1.81A3.53,3.53,0,0,0,66,42.17h-.23a10.75,10.75,0,0,0-1.66.18,4.15,4.15,0,0,0-1.33-.21,3.77,3.77,0,0,0-.65,0,4.06,4.06,0,0,0-2,.92l-1.39-1.64v.23h-.12q-.1.23-.24.57c0,.11-.08.22-.12.35a5.69,5.69,0,0,0-.14,3.09h0c0,.19.12.38.19.57a5.09,5.09,0,0,0,.43.84c1.61,2.46,5.07,2.59,5.31,2.59h.15c1.69,0,4.27-.54,5.41-2.37,0-.07.09-.15.14-.23h0a5.07,5.07,0,0,0,.33-.9h0a5.49,5.49,0,0,0,.13-.81h0a6.88,6.88,0,0,0-.48-3.7h-.12v-.23h0"/><path class="cls-27" d="M64.25,43.1H64a1.33,1.33,0,0,1-.28.4,1.6,1.6,0,0,1-.69.38,3.31,3.31,0,0,0,1.11.22h0a3.17,3.17,0,0,0,1.14-.22,2.3,2.3,0,0,1-.67-.37,2.7,2.7,0,0,1-.38-.41"/><path class="cls-28" d="M58.75,39.54H57.68a1,1,0,0,0-.9,1,1.11,1.11,0,0,0,.46,1.09h0l.12.06h1.39V39.54"/><path class="cls-28" d="M70.7,39.54H69.62v2.15H71a1.07,1.07,0,0,0,.58-1.15,1,1,0,0,0-.9-1"/><path class="cls-26" d="M65.73,31.79h-.08l-.94,0c-3.4.15-5.47,1-6,1.77a3.2,3.2,0,0,0-.58,1.81c0,.31-.63.74-.61,1.78s.19,2.37.19,2.37h1.07v-3.4l.06,0a3,3,0,0,0,.72.18,24.86,24.86,0,0,0,2.66.14,21,21,0,0,0,7.43-1.28,7.75,7.75,0,0,0,1.88-1c.09-.09.32-.28.29-.45s-.14-.16-.32-.22a10.82,10.82,0,0,0-2.15-.17s1-.29,1.17-.7-1.89-.91-4.76-.92"/><path class="cls-29" d="M50.86,50.8l-.09.42.06,1,.07,0,.72-.2-.76-1.16m7.29-2.37h0l-3.63,1v0l1,1.42,2.11-.58.09-.14,0-.26,0-.65h0l.41.22,0-.72,0-.32"/><path class="cls-24" d="M51,50.35l-.09.45L51.62,52l-.72.2-.07,0,0,.6,1.2-.26L51,50.35m3.41-1.54-.24.06.41.59v0l-.16-.63"/><path class="cls-29" d="M72.08,44.85l-1.86.54h0a4,4,0,0,1-.13.81h0a5.07,5.07,0,0,1-.33.9h0l2.79-.74-.47-1.51m4.58-1.31-.71.2.35,1.62.8-.21-.44-1.61"/><path class="cls-30" d="M76.31,51.85h0a4.56,4.56,0,0,1-1.41.23,4.82,4.82,0,0,1-1.38-.21,4.82,4.82,0,0,0,1.38.21,4.56,4.56,0,0,0,1.41-.23h0m-4.41-.76h0m0,0h0m0,0h0m0,0h0m0,0h0m7.26-1.83h0m0,0h0m0,0h0c0,.06-.09.19-.19.36.1-.17.16-.3.19-.36m-3.34-6.07L71.9,44.25l.18.6.47,1.51.33,1.06a3.46,3.46,0,0,1,0,2,6.56,6.56,0,0,1-.84,1.46l.07-.09a5.33,5.33,0,0,0,2.19.47h.37a5.47,5.47,0,0,0,3.1-1.29,6,6,0,0,0,.73-.79,2.27,2.27,0,0,1-1.11-.91,4.67,4.67,0,0,1-.83-1.55l-.29-1.32L76,43.74l-.12-.56"/><path class="cls-31" d="M79.17,49.25h0m-.64-.11h0a6,6,0,0,1-.73.79,5.47,5.47,0,0,1-3.1,1.29h-.37a5.33,5.33,0,0,1-2.19-.47l-.07.09-.17.23h0a5.28,5.28,0,0,0,1.61.78,4.82,4.82,0,0,0,1.38.21,4.56,4.56,0,0,0,1.41-.23h0A4.86,4.86,0,0,0,79,49.61c.1-.17.16-.3.19-.36h0a1.78,1.78,0,0,1-.59-.11"/><polyline class="cls-24" points="70.46 61.6 70.38 61.92 70.29 62.26 69.77 64.25 69.77 64.25 69.71 64.47 70.46 64.66 72.84 65.28 73.8 63.52 73.01 63.07 70.46 61.6"/><polyline class="cls-32" points="66.21 64.25 64.1 64.25 64.1 64.25 66.21 64.25 66.21 64.25"/><polyline class="cls-32" points="64.1 64.25 62.16 64.25 62.16 64.25 64.1 64.25 64.1 64.25"/><polyline class="cls-32" points="66.21 62.26 65.31 62.26 65.31 62.91 64.38 62.91 64.38 63.45 65.31 63.45 65.31 64.13 63.04 64.13 63.04 62.26 62.16 62.26 62.16 64.25 64.1 64.25 66.21 64.25 66.21 62.26"/><polyline class="cls-32" points="66.21 64.25 64.1 64.25 62.16 64.25 62.16 64.89 66.21 64.89 66.21 64.25"/><polyline class="cls-32" points="66.21 61.47 64.16 61.47 64.16 61.47 62.16 61.47 62.16 62.26 63.04 62.26 65.31 62.26 66.21 62.26 66.21 61.47"/><polyline class="cls-20" points="65.31 62.26 63.04 62.26 63.04 64.13 65.31 64.13 65.31 63.45 64.38 63.45 64.38 62.91 65.31 62.91 65.31 62.26"/><path class="cls-33" d="M63,37.7H61.36a.23.23,0,1,0,0,.45H63a.22.22,0,0,0,.22-.23A.22.22,0,0,0,63,37.7"/><path class="cls-33" d="M67,37.7H65.43a.23.23,0,1,0,0,.45H67a.22.22,0,0,0,.22-.23A.22.22,0,0,0,67,37.7"/><path class="cls-34" d="M62.15,39.16c-.13,0-.44.19-.4.75s.26.64.4.64.4-.24.4-.7-.26-.69-.4-.69"/><path class="cls-34" d="M66.18,39.16c-.14,0-.44.19-.4.75s.26.64.4.64.4-.24.4-.7-.26-.69-.4-.69"/><path class="cls-35" d="M60.53,57.43c-2.23,0-1.86-3.69-1.86-3.69h3.48s.62,3.69-1.62,3.69m-2.74-8.18h0l0,.65,0,.38-.24,3.39.2.28-.24,3.31-.22.08-.08,1.1h0l-.27,3.82h5.29v-.79h2V52.56l-6-3.09h0l-.41-.22"/><path class="cls-36" d="M62.15,53.74H58.67s-.37,3.69,1.86,3.69,1.62-3.69,1.62-3.69"/><path class="cls-37" d="M57.75,49.9l0,.26h0v.12h0l0-.38m0-.65h0l.41.22h0l-.41-.22"/><polyline class="cls-38" points="64.16 61.47 62.16 61.47 62.16 62.26 62.16 61.47 64.16 61.47"/><polyline class="cls-39" points="57.64 50.3 57.64 50.3 56.48 52.25 56.48 52.25 57.64 50.3"/><polyline class="cls-40" points="57.14 58.44 56.7 59.83 57.14 58.44 57.14 58.44"/><path class="cls-41" d="M57.22,57.34l-1,.34.53,2.15.44-1.39.08-1.1m.5-7.06-.08,0-1.16,2,1,1.42.24-3.39"/><polyline class="cls-42" points="57.73 50.16 57.64 50.3 57.64 50.3 57.72 50.28 57.73 50.16"/><path class="cls-43" d="M57.22,57.34h0l-.08,1.1h0l.08-1.1m.5-7.06h0l-.24,3.39h0l.24-3.39"/><polyline class="cls-44" points="57.73 50.16 57.73 50.16 57.72 50.28 57.72 50.28 57.73 50.16"/><path class="cls-45" d="M41.77,62.36H38.25v1h3.52v-1m5.45,0h-2.8v1H47l.21-1m4.21,0H48.58v1h2.85v-1m-16.73-1h0v1.23h0v.8h2.8v-1H34.7v-1"/><path class="cls-46" d="M50.26,75.21h-2l1.59.33h0l-.14.68h.59v-1m0-1.09H46.31l-.06.27h4v-.27h0m-12-11.76h-.76v1H34.7v.4h0v2h1.17V73.3h4.64v.82H35.87v.27h4.64v.82H35.87v1h4.49l.15-.71V65.83h5.15V70L47,63.4H44.42v.19H41.77V63.4H38.25v-1m10.33,0h-.09L46.6,71.59l.22,0-.35,1.66h3.79V65.83h1.17V63.4H48.58v-1"/><path class="cls-47" d="M40,78.15h-4.1v1.06l0,.9,0,.79-3,.45L32.67,83h7.84V82a5.77,5.77,0,0,1-1.06-1.28L40,78.15"/><path class="cls-47" d="M50.27,78.15h-1l-.89,4.35a4.6,4.6,0,0,1-.89.52h6l-.15-1.67-3-.45,0-.58,0-1.17,0-1"/><polyline class="cls-48" points="40.36 76.22 35.87 76.22 35.72 76.22 35.72 76.92 35.72 78.15 35.86 78.15 39.96 78.15 40.36 76.22"/><polyline class="cls-48" points="50.43 76.22 50.26 76.22 49.67 76.22 49.57 76.72 49.27 78.15 50.27 78.15 50.43 78.15 50.43 76.59 50.43 76.22"/><polyline class="cls-12" points="40.51 74.39 35.87 74.39 35.87 75.21 40.51 75.21 40.51 74.39"/><polyline class="cls-12" points="50.26 74.39 50.26 74.39 46.25 74.39 46.17 74.79 47.99 75.16 48.22 75.21 50.26 75.21 50.26 74.39"/><polyline class="cls-12" points="40.51 73.3 35.87 73.3 35.87 73.35 35.87 73.81 35.87 74.12 40.51 74.12 40.51 73.3"/><polyline class="cls-12" points="50.26 73.3 50.26 73.3 46.48 73.3 46.31 74.12 50.26 74.12 50.26 73.64 50.26 73.3"/><path class="cls-49" d="M44.42,62.36H41.77v1.23h2.65V62.36m-.62-1H42.35l0,1h1.35l0-1"/><path class="cls-50" d="M41.69,48.84l.41,7.79h0l0,.51,0,1h0l0,1,.12,2.3H43.8L44,57.67h0l0-1h0l.4-7.77a8.74,8.74,0,0,1-1.23.09h-.06a9.76,9.76,0,0,1-1.47-.11M51.9,45.7,51,50.35l1.12,2.17h0L53.2,54.7l-1.76,1-.36.21,0,.71v.21l.09,1.25.06,1v.22l1.23-.4,3.65-1.2,1-.34h0l.22-.08L57.68,54l-.2-.28h0l-1-1.42h0l-.95-1.37-1-1.42-.41-.59L51.9,45.7m-1-1.41v0h0m-15.64,0-.3.5-.17.27-.4.66-1.32,2.16L33,48l-.44.73-.28.45-2.65,4.35-.45.72-.12.2-.37,7.91h4.43l0-.91.05-1.19h0L33.3,59h0l.05-1.2.06-1.29,0-.61.07-1.6,2.32-5.13h0c-.18-1.63-.36-3.27-.55-4.91h0"/><path class="cls-51" d="M35.83,49.18h0l-.62,6.73h.37c.1-1,.18-2,.22-3q.09-1.95,0-3.72"/><path class="cls-51" d="M35.58,55.91h-.37l-.06.61h.36c0-.2.05-.41.07-.61"/><path class="cls-51" d="M35.51,56.52h-.36L35,57.81h.31l0-.14H35l.1-1h.36v-.11"/><path class="cls-51" d="M35.34,57.81H35l0,.28h.3c0-.1,0-.19,0-.28"/><path class="cls-51" d="M42.13,57.14l0,.53H35.36l0,.14c0,.09,0,.18,0,.28h6.88l0-1M35.41,44.27h-.13c.19,1.64.37,3.28.55,4.91h0q.06,1.77,0,3.72c0,1-.12,2-.22,3,0,.2,0,.41-.07.61v.11h6.6l-.41-7.79a9.2,9.2,0,0,1-2.28-.69A4.4,4.4,0,0,1,37,46.09a7.05,7.05,0,0,1-.61-1.82h-1"/><path class="cls-51" d="M49.89,44.29h0"/><path class="cls-51" d="M50.34,44.29h0"/><path class="cls-51" d="M50.59,53.2c0,.35,0,.7,0,1,0,.64.06,1.26.11,1.87l.34-.2L51,54.33l-.38-1.13m.1-1-.12,0c0,.2,0,.4,0,.6l.29-.07h0l-.18,0v-.6"/><path class="cls-51" d="M50.87,52.78l-.29.07c0,.11,0,.23,0,.35L51,54.33l-.1-1.55"/><path class="cls-51" d="M50.77,51.22l-.2,1v.06l.12,0,.14,0-.06-1"/><polyline class="cls-51" points="50.83 52.18 50.7 52.22 50.7 52.82 50.87 52.78 50.83 52.18"/><path class="cls-51" d="M50.57,52.19l-.87,4.25.4.19h.16l0-.25.46-.26c-.05-.61-.09-1.23-.11-1.87,0-.35,0-.7,0-1,0-.12,0-.24,0-.35s0-.4,0-.6v-.06m-.68-7.9a6.86,6.86,0,0,1-.61,1.81,4.29,4.29,0,0,1-2.3,2,9,9,0,0,1-2.53.74l-.4,7.77h4l.08-.37.39-.1,2.42-11.82v-.05h-1"/><path class="cls-51" d="M51.29,59.28l-.19.06c.1.7.21,1.37.33,2h0v0l-.14-2.08"/><polyline class="cls-51" points="51.43 61.36 48.69 61.36 48.58 61.9 48.58 62.37 51.43 62.37 51.43 61.36"/><polyline class="cls-51" points="48.58 61.9 48.49 62.37 48.58 62.37 48.58 61.9"/><polyline class="cls-51" points="47.42 61.36 44.42 61.36 44.42 62.37 47.22 62.37 47.42 61.36"/><polyline class="cls-51" points="44.42 61.36 43.8 61.36 43.75 62.37 44.42 62.37 44.42 61.36"/><path class="cls-51" d="M50,59.06h0l0,.38h-.86l-.4,1.92h2.74c-.12-.65-.23-1.32-.33-2l.19-.06-1.37.45.07-.67m-2.21-1.39H44l-.19,3.69h3.62l.42-2-.41-.11,0-.17H43.92l0-1h3.72l.09-.42"/><path class="cls-51" d="M34.94,60.2h0m0-1.19h0"/><path class="cls-51" d="M34.93,58.86V59h0v-.15"/><path class="cls-51" d="M34.92,59h0l-.11,1.19h.13l.21-1.14h-.24V59"/><path class="cls-51" d="M34.94,60.21h-.13l-.11,1.15h0l.24-1.15"/><path class="cls-51" d="M37.49,61.36H34.7v1h2.79v-1m4.28,0H38.24v1h3.52v-1"/><polyline class="cls-51" points="38.24 61.36 37.49 61.36 37.49 62.37 38.24 62.37 38.24 61.36"/><polyline class="cls-51" points="42.35 61.36 41.77 61.36 41.77 62.37 42.4 62.37 42.35 61.36"/><path class="cls-51" d="M42.23,59.06H35.15l-.21,1.14h0l-.24,1.15h7.65l-.12-2.3"/><path class="cls-12" d="M35.5,56.63h-.36l-.1,1h.32c0-.34.09-.68.14-1"/><path class="cls-12" d="M42.1,56.63H35.5c0,.36-.09.7-.14,1h6.79l0-.53,0-.51"/><polyline class="cls-12" points="35.15 59.01 34.92 59.01 34.92 59.01 35.15 59.01 35.15 59.01"/><path class="cls-12" d="M35.3,58.09H35l-.07.77V59h.23c.06-.31.1-.61.15-.92"/><path class="cls-12" d="M35.15,59h-.23v.05h.24V59"/><path class="cls-12" d="M42.18,58.09H35.3c0,.31-.09.61-.15.92h0v.05h7.08l0-1"/><path class="cls-12" d="M48,56.63H44l0,1h3.79l.24-1m2.24,0H50.1l.15.08v-.08"/><path class="cls-12" d="M50,58.64l0,.42h0l0-.42m-2.35-.55H44l0,1h3.55l.22-1"/><polyline class="cls-4" points="51.08 55.92 50.74 56.12 50.74 56.12 51.08 55.92 51.08 55.92"/><path class="cls-50" d="M51.28,59.06H50l-.07.67,1.37-.45v-.22m-.15-2.22.06.83h-1l0,.42h1.12l-.09-1.25m-.05-.92-.34.2h0l-.46.26,0,.25h.86l0-.71"/><polyline class="cls-50" points="51.12 56.63 51.12 56.63 50.26 56.63 50.25 56.71 50.25 56.71 50.14 57.67 51.19 57.67 51.13 56.84 51.12 56.63"/><polyline class="cls-50" points="51.22 58.09 51.22 58.09 50.1 58.09 50.04 58.64 49.99 59.06 51.28 59.06 51.22 58.09"/><path class="cls-52" d="M54.06,29l-1.84,9a1.79,1.79,0,0,1,.12.61,1.56,1.56,0,0,1-.55,1.5l-.43,2.12-.08.38-.36,1.75v0L48.49,56.16l.41-.11-.69,3.39-.37-.1-.42,2-.2,1-.21,1L45.66,70l-.28,1.37.63.13h0l.59.12,1.89-9.23.09-.46.11-.54.4-1.92h-.88l.69-3.39.8.39.87-4.25.2-1,.09-.42.09-.45.95-4.65h0l.51-2.48.08-.37,2.79-13.63L54.06,29"/><path class="cls-53" d="M43.65,83.54a6.32,6.32,0,0,0,1.11.11h0a6.32,6.32,0,0,1-1.11-.11m0,0h0m6.18-8-.24,1.18.1-.5.14-.68m-3.64-.75h0l1.82.37-1.82-.37m-1-3.48-.07.35-.05.24-.32,1.59-.08.35-.12.62-3.42-.7-.27-.05v.05l-.35,1.75-.15.71L40,78.15l-.51,2.52A5.77,5.77,0,0,0,40.51,82a6.27,6.27,0,0,0,1.77,1.18,6.38,6.38,0,0,0,1.34.41h0L46,71.47l-.63-.13-.18,0"/><path class="cls-54" d="M46.31,74.12h0l-.06.27h0l.06-.27m.29-2.53h0l.22,0-.35,1.66h0l.35-1.66-.22,0"/><polyline class="cls-55" points="46.25 74.39 46.25 74.39 46.17 74.79 46.25 74.39"/><polyline class="cls-55" points="46.48 73.3 46.48 73.3 46.31 74.12 46.31 74.12 46.48 73.3"/><polyline class="cls-54" points="48.22 75.21 48.22 75.21 49.81 75.54 49.81 75.54 48.22 75.21"/><polyline class="cls-55" points="47.99 75.16 48.22 75.21 48.22 75.21 47.99 75.16"/><path class="cls-56" d="M47.49,83h0l-.19.09h0l.19-.09"/><path class="cls-57" d="M47.3,83.11h0a6.49,6.49,0,0,1-2.5.54,6.49,6.49,0,0,0,2.5-.54"/><path class="cls-58" d="M49.27,78.15h0l-.89,4.35a4.6,4.6,0,0,1-.89.52h0a4.6,4.6,0,0,0,.89-.52l.89-4.35"/><polyline class="cls-59" points="49.57 76.72 49.27 78.15 49.27 78.15 49.57 76.72"/><polyline class="cls-60" points="46.01 71.47 46.01 71.47 46.6 71.59 46.6 71.59 46.01 71.47"/><path class="cls-61" d="M46,71.47,43.62,83.54h0a6.32,6.32,0,0,0,1.11.11h0a6.49,6.49,0,0,0,2.5-.54l.19-.09a4.6,4.6,0,0,0,.89-.52l.89-4.35.3-1.43.24-1.18-1.59-.33-.23,0-1.82-.37h0l.08-.4.06-.27.16-.82.35-1.66-.22,0L46,71.47"/><path class="cls-24" d="M50.32,37.23h0v2.84h0V37.23M36,37.23h0v2.84h0V37.23m4.49,2.17c-.19,0-.47-.09-.53-.84s.35-1,.53-1,.52.31.52.91-.33.92-.52.92m5.31,0c-.19,0-.46-.09-.52-.84s.34-1,.52-1,.53.31.53.91-.33.92-.53.92m-6.36-3.34-.13-.12.13-.13h2.1l.12.13-.12.12h-2.1m5.37,0-.13-.12.13-.13h2.1l.13.13-.13.12h-2.1M36,32.75h0v4.07c.18.21,1.17,4.81,2.33,5.21a3.08,3.08,0,0,0,1,.16A10.13,10.13,0,0,0,41.05,42a10.83,10.83,0,0,1,2.12-.23l.7,0c1.51.12,2.54.58,3.45.58a2.09,2.09,0,0,0,.7-.11c1.11-.37,2-5.27,2.3-5.42V32.93a5.64,5.64,0,0,0-1.61.52C47.5,34.08,46.86,35,46.5,35l-.09,0c-.24-.13.05-.67-.33-1.2a1.24,1.24,0,0,0-.95-.53H45c-.5.09-.73.67-1,1.26-.8,1.52-2,2.82-2.31,2.82h0c-.36-.17.81-2.6.09-3.14a.58.58,0,0,0-.33-.09,3.82,3.82,0,0,0-1.44.53,4.07,4.07,0,0,1-1.5.52.58.58,0,0,1-.41-.13c-.45-.35-.08-1.16-.69-1.79A2,2,0,0,0,36,32.75"/><path class="cls-28" d="M36,37.23H34.86a1.27,1.27,0,0,0-.92,1.32c0,.93.29,1.35.59,1.52H36V37.23"/><path class="cls-28" d="M51.42,37.23h-1.1v2.84h1.43l0,0a1.56,1.56,0,0,0,.55-1.5,1.79,1.79,0,0,0-.12-.61,1.19,1.19,0,0,0-.8-.71"/><path class="cls-62" d="M42.64,26.06A8.33,8.33,0,0,0,36,28.77a9,9,0,0,0-1.73,5.33,9.18,9.18,0,0,0,.56,3.13H36v-.41h0V32.75h0a2,2,0,0,1,1.37.51c.61.63.24,1.44.69,1.79a.58.58,0,0,0,.41.13,4.07,4.07,0,0,0,1.5-.52,3.82,3.82,0,0,1,1.44-.53.58.58,0,0,1,.33.09c.72.54-.45,3-.09,3.14h0c.35,0,1.51-1.3,2.31-2.82.31-.59.54-1.17,1-1.26h.12a1.24,1.24,0,0,1,.95.53c.38.53.09,1.07.33,1.2l.09,0c.36,0,1-1,2.21-1.58a5.64,5.64,0,0,1,1.61-.52v3.89h0v.41h1.1a10.16,10.16,0,0,0,.39-2.43A8.65,8.65,0,0,0,51,30.45a8.38,8.38,0,0,0-1.66-2.16,10.4,10.4,0,0,0-6.72-2.23"/><polyline class="cls-33" points="41.51 35.81 39.41 35.81 39.28 35.94 39.41 36.06 41.51 36.06 41.63 35.94 41.51 35.81"/><polyline class="cls-33" points="46.88 35.81 44.78 35.81 44.65 35.94 44.78 36.06 46.88 36.06 47.01 35.94 46.88 35.81"/><path class="cls-34" d="M40.46,37.57c-.18,0-.59.25-.53,1s.34.84.53.84.52-.31.52-.92-.34-.91-.52-.91"/><path class="cls-34" d="M45.77,37.57c-.18,0-.58.25-.52,1s.33.84.52.84.53-.31.53-.92-.34-.91-.53-.91"/><path class="cls-63" d="M50.32,36.82h0c-.27.15-1.19,5-2.3,5.42a2.09,2.09,0,0,1-.7.11c-.91,0-1.94-.46-3.45-.58l-.7,0a10.83,10.83,0,0,0-2.12.23,10.13,10.13,0,0,1-1.72.22,3.08,3.08,0,0,1-1-.16c-1.16-.4-2.15-5-2.33-5.21h0v3.25h0a25.09,25.09,0,0,0,.43,4.2h0A7.05,7.05,0,0,0,37,46.09a4.4,4.4,0,0,0,2.4,2.06,9.2,9.2,0,0,0,2.28.69,9.76,9.76,0,0,0,1.47.11h.06a8.74,8.74,0,0,0,1.23-.09A9,9,0,0,0,47,48.12a4.29,4.29,0,0,0,2.3-2,6.86,6.86,0,0,0,.61-1.81h0a22.42,22.42,0,0,0,.43-4.22h0V36.82"/><polyline class="cls-24" points="48.91 56.05 48.21 59.44 49.09 59.44 49.95 59.44 49.99 59.06 50.04 58.64 50.1 58.09 50.14 57.67 50.25 56.71 50.1 56.63 49.7 56.44 48.91 56.05"/><polyline class="cls-24" points="32.67 62.31 29.17 62.31 29.13 64.08 29.66 64.23 31.95 64.86 32.29 63.65 32.67 62.31"/><polyline class="cls-24" points="48.91 56.05 48.49 56.16 48.1 56.26 48.02 56.63 47.78 57.67 47.69 58.09 47.47 59.06 47.43 59.23 47.84 59.34 48.21 59.44 48.91 56.05"/></g></g></svg>