<svg xmlns="http://www.w3.org/2000/svg" xmlns:xlink="http://www.w3.org/1999/xlink" viewBox="0 0 90.23 90.23"><defs><style>.cls-1{fill:none;}.cls-2{clip-path:url(#clip-path);}.cls-3{fill:#b4ded4;}.cls-4{fill:#a0a0a0;}.cls-5{fill:#848484;}.cls-6{fill:#5e4d31;}.cls-7{fill:#59916f;}.cls-8{fill:#212c15;}.cls-9{fill:#3f7e5c;}.cls-10{fill:#1f5230;}.cls-11{fill:#34a35f;}.cls-12{fill:#143620;}.cls-13{fill:#226b3f;}.cls-14{fill:#77928c;}.cls-15{fill:#3e3320;}.cls-16{fill:#6a837d;}.cls-17{fill:#1f6038;}.cls-18{fill:#372d1d;}.cls-19{fill:#241e13;}.cls-20{fill:#3a5e48;}.cls-21{fill:#263e2f;}.cls-22{fill:#22372a;}.cls-23{fill:#16241c;}.cls-24{fill:#46dd81;}.cls-25{fill:#0c1f12;}.cls-26{fill:#187e38;}.cls-27{fill:#084818;}.cls-28{fill:#164828;}.cls-29{fill:#0c1909;}.cls-30{fill:#345541;}.cls-31{fill:#12301c;}.cls-32{fill:#143f25;}.cls-33{fill:#131a0c;}.cls-34{fill:#0c2013;}.cls-35{fill:#3b6049;}.cls-36{fill:#22382b;}.cls-37{fill:#89ddaa;}.cls-38{fill:#123821;}.cls-39{fill:#465652;}.cls-40{fill:#518264;}.cls-41{fill:#201a11;}.cls-42{fill:#304c3b;}.cls-43{fill:#1c2d23;}.cls-44{fill:#2fa25f;}</style><clipPath id="clip-path"><polyline class="cls-1" points="0 0 90.23 0 90.23 90.23 0 90.23 0 0"/></clipPath></defs><title>Summary01</title><g id="Layer_1_flatted" data-name="Layer 1_flatted"><g class="cls-2"><path class="cls-3" d="M85.06,66.09h-.51v1c.17-.31.35-.63.51-1m-52.92-.5h0l0,.08,0-.08M66,63.2H62.14v6.56L63.71,71h1.54l.69-1.47,0,.07V63.2m11,0h-8.4v2.62h0V71h2.17l.16-.23h0V71h1l.49-1.19L72.73,71h3c0-.68.1-1.35.14-2,.27.67.53,1.34.8,2h5l.17-.64L82,71h0V66.09H75.56l1.26-2.56L77,63.2M43.37,61.06H33.82v3.16l.23,1.17,1.1-2.07c.1,1.29.19,2.58.28,3.86l1.66-1.79c.18.51.36,1,.55,1.52L39.43,65l.42,3.46,1.38-2.21c.27.6.55,1.19.83,1.79l1.31-2.49V61.06m11.28,0H45.4V62.8h0v3.82l.25-.4,1,2.9.44-.84c.49-1,1-1.93,1.49-2.89h0c0,1.15-.09,2.3-.13,3.45l1.79-1.93c.14.87.28,1.75.41,2.62l1.94-2.62h0l-.42,3.17L54.34,68c.28.92.55,1.84.83,2.76v-.11c.13-1.44.27-2.87.4-4.3l1.94,4.14,1-1.8,1.24,2.21.06-.1h-.06V63.2H53.59l1.06-2.14m-19-3.87H33.82V61c.62-1.27,1.24-2.54,1.87-3.81M48.36,43.24H48l.18.35.11-.22,0-.13M45.21,0H45A45.1,45.1,0,0,0,5.4,23.7L8.1,28,5.9,30.42l1.68,4.41c-.25,2.1-.49,4.19-.74,6.29q1.05,2,2.08,4l1.41,7.55c.43,1.13.86,2.26,1.3,3.4l.06-.09.1.54L12,57l-.07.05.35,1.73c.41-.87.83-1.74,1.24-2.62.28,1,.56,2,.83,3l2.9-4h0c-.09,1.48-.18,2.95-.28,4.42l1.52-1.93v2.48l1.66-1c.18.73.37,1.47.55,2.21.18-1.25.37-2.49.55-3.73.42,1.43.83,2.85,1.24,4.28l1-1.93c.19.78.37,1.56.55,2.34.1-.19.2-.38.31-.56.26-.51.53-1,.8-1.51.14.78.27,1.57.41,2.35l1.24-2.21c.42,1.38.83,2.76,1.25,4.14.27-.74.55-1.47.82-2.21l1.25,2.9c.36-.78.73-1.56,1.1-2.35l.24.7V57.19H19.92q1.13-2.25,2.23-4.52H19.92L22.2,48H19.92l6.43-13.06,6.42-13.06v.08l0-.08,6.43,13.06,2.1,4.27.55-1.11,2.53-5.15v0l0,0L47,38.08l1.72,3.5,0-.12L50.05,40l.89-1.73,1.65-1,1.32-1.42,1.87-.52,1.65-1h1.94L60.68,34v0l.62-.18,1.63.46,4.51-9.18v.09l0-.09,6.93,14.09.22.44.13-.09,1.36-1.45L78,37.55l1.69-1h2l1.34-.37v0l.64-.18,1.92.53h.68l2-4v0l0,0,.37.74A45.14,45.14,0,0,0,45.21,0"/><path class="cls-4" d="M11.79,56.54l.1.49L12,57l-.17-.44M5.4,23.7c-.35.64-.68,1.29-1,1.94.43.81.87,1.62,1.31,2.43h0L4,30.27c.44,1.35.89,2.69,1.33,4L4.81,39l-1.23-.61L2,36.83l1-5.58,1.23-2.84-.34-1.57A45.09,45.09,0,0,0,0,45.11c0,.83,0,1.65.07,2.46l.54-1.33L2,44.44H2l1-.52L6.6,40.85h0q-1.33,3-2.66,6.09L2,44.44H2Q1.4,47.31.78,50.19l-.49.07c.06.55.13,1.09.22,1.63.27-.52.55-1,.83-1.55l.27,3.32L3,51.86,3,52l.54-1.38,2.56-3c.14-1.78.29-3.56.44-5.33.19,1.07.37,2.14.56,3.22l.33,6.22L7.69,54l.13-.19h0l-.07.74.19,1.77,1.82-1.82c.13,1.2.27,2.4.41,3.59l1.46-2c-.44-1.14-.87-2.27-1.3-3.4L8.92,45.14q-1-2-2.08-4c.25-2.1.49-4.19.74-6.29L5.9,30.42,8.1,28,5.4,23.7"/><path class="cls-5" d="M4.41,25.64c-.19.4-.38.8-.56,1.2l.34,1.57L3,31.25,2,36.83l1.58,1.52L4.81,39l.5-4.66c-.44-1.34-.89-2.68-1.33-4l1.74-2.2h0c-.44-.81-.88-1.62-1.31-2.43"/><path class="cls-5" d="M7.75,54.53c-.07.72-.13,1.44-.2,2.16l.39-.39-.19-1.77M6.56,42.26c-.15,1.77-.3,3.55-.44,5.33l-2.56,3L3,52l.66,2.51,1.24-3.31.24,2.08.18,1.51.83,1.38L7.69,54,7.45,51.7l-.33-6.22c-.19-1.08-.37-2.15-.56-3.22"/><path class="cls-5" d="M2,44.44.61,46.24.07,47.57c0,.9.12,1.8.22,2.69l.49-.07Q1.4,47.31,2,44.44M6.6,40.85h0L3.05,43.92l-1,.52H2l1.91,2.5q1.32-3,2.66-6.09"/><path class="cls-6" d="M84.55,66.09H83.27c0,1,0,2.08,0,3.12.45-.71.88-1.43,1.29-2.17v-1"/><path class="cls-7" d="M83.83,44.81h-.74V46.3l.49-1,.2-.4,0-.08m-2.12-8.3h0m2-.53-.64.18,0,6.88,2.16-4.39,1.05-2.14h-.68L83.69,36"/><path class="cls-8" d="M83.27,66.09h-1.2V71h0c.41-.59.81-1.19,1.19-1.79,0-1,0-2.08,0-3.12"/><path class="cls-9" d="M79.78,36.51h0l-1.69,1-1.91.54-1.36,1.45-.13.09h0l.16-.1,1.36-1.45,1.92-.54,1.7-1m3.27-.37-1.34.37h.06l1.28-.35v0"/><path class="cls-10" d="M79.38,58.33H79l.21.43.21-.43m1.24-2.52h-.51l.25.51.24-.51h0m-1-2.54h-.8l.07.14.22.42h0l.13.25.4-.81m3.38-17.11-1.28.35h-2l-1.7,1-1.92.54L74.8,39.54l-.16.1,5.87,11.91q1.29-2.62,2.59-5.25V44.81h-.88L83.08,43l0-6.88"/><path class="cls-6" d="M68.57,65.82H67.44v4.74l.29-.62.6,1.06h.24V65.82m0-2.62H66v6.4h0V63.2h2.61"/><path class="cls-11" d="M79.09,58.91H70.27l0,.05-1.78.77-1,.82V63.2H77l2.11-4.29M79,58.33h0l.24.46v0L79,58.33"/><path class="cls-11" d="M79.14,53.83H73.85l-.33.48-.65,1.83-1.51,1.23-.68,1h8.7l1-2h0l-.25-.51H78.42l.68-1.39.17-.34-.13-.25m-.27-.56h0l.08.14-.07-.14"/><path class="cls-11" d="M67.49,25.1l0,.09V35.54l1.22.34L70,37.3l1.67,1L72.54,40l1.33,1.42.39,1.91.9,1.73L75,47l.39,1.9-.65,1.84-.13,1.94-.39.55h5.42l.84-1.72L74.64,39.64h0l-.22-.44L67.49,25.1"/><path class="cls-12" d="M78.94,53.41l.2.42h0l-.22-.42"/><path class="cls-13" d="M78.86,53.27H74.25l-.4.56h5.29l-.2-.42-.08-.14"/><path class="cls-13" d="M78.92,58.33H70.68l-.41.58h8.82l.07-.12-.24-.46"/><polyline class="cls-14" points="68.58 63.2 68.57 63.2 68.57 65.83 68.58 65.83 68.58 63.2"/><polyline class="cls-15" points="68.57 63.2 67.44 63.2 67.44 65.83 68.57 65.83 68.57 63.2"/><polyline class="cls-16" points="67.44 25.1 67.44 25.1 62.93 34.28 62.97 34.29 67.44 25.19 67.44 25.1"/><polyline class="cls-17" points="67.44 25.19 62.97 34.29 63.17 34.35 65.12 34.35 66.78 35.36 67.44 35.54 67.44 25.19"/><path class="cls-16" d="M54.67,61.06h0L53.59,63.2h0l1.05-2.14"/><path class="cls-17" d="M67.44,60.55l-.5.41L65,61.22,63.23,62l-1.09-.15v.49h0v.86h5.3V60.55M55,60.49l.28.57h-.65L53.62,63.2h6.1V62l-.35,0h0l-1.78-.78L55.62,61,55,60.49"/><path class="cls-18" d="M67.44,65.82H66V69.6l.46,1.4h.82l.2-.44V65.82"/><polyline class="cls-19" points="67.44 63.2 65.96 63.2 65.96 65.83 67.44 65.83 67.44 63.2"/><path class="cls-6" d="M45.39,62.8h-.87V68l0,0c.28-.46.57-.92.85-1.39V62.8m-2-1.74h0v4.46h0V61.06"/><path class="cls-20" d="M48.08,52.88H44.73v2.39l.94,1.92h-.94v3.87H55.32L55,60.49l-.92-.76L52.34,59l-1.11-1.59-1.51-1.23-.64-1.83-1-1.43m-.14-.43h0"/><path class="cls-20" d="M48.17,43.67H44.44v1.8L45.67,48H44.43v2.16l1.13,2.31h2.38l-.11-1.67-.65-1.84.39-1.9-.13-1.94.73-1.43"/><path class="cls-20" d="M44.44,32.93l0,0c-.1,3.43-.2,6.85-.31,10.28h4.25l.34-1.66L47,38.08l-2.54-5.15"/><polyline class="cls-21" points="47.94 52.45 45.56 52.45 45.67 52.67 44.73 52.67 44.73 52.88 48.08 52.88 47.96 52.72 47.94 52.45"/><polyline class="cls-14" points="45.4 61.06 45.39 61.06 45.39 62.8 45.4 62.8 45.4 61.06"/><polyline class="cls-15" points="45.39 61.06 44.55 61.06 44.52 61.06 44.52 62.8 45.39 62.8 45.39 61.06"/><path class="cls-16" d="M44.42,32.93h0l-2.53,5.15-.55,1.11h0l.55-1.12L44.42,33v0"/><path class="cls-22" d="M44.42,33,41.9,38.08l-.55,1.12,2,4h.77c.11-3.43.21-6.85.31-10.28"/><path class="cls-16" d="M35.69,57.19h0c-.63,1.27-1.25,2.54-1.87,3.81h0l1.87-3.81"/><path class="cls-22" d="M44.73,57.19h-9L33.82,61v.06H44.73V57.19m0-4.31H43.55l1.18,2.39V52.88"/><polyline class="cls-23" points="44.73 52.67 43.45 52.67 43.55 52.88 44.73 52.88 44.73 52.67"/><polyline class="cls-18" points="44.52 62.8 43.37 62.8 43.37 65.52 43.44 65.39 44.52 67.97 44.52 62.8"/><polyline class="cls-19" points="44.52 61.06 43.37 61.06 43.37 62.8 44.52 62.8 44.52 61.06"/><path class="cls-22" d="M44.43,48H43.36l.07.14.21.38h0l.81,1.64V48m0-4.31h-.89l.89,1.8v-1.8"/><polyline class="cls-14" points="48.04 43.24 48.03 43.24 48.21 43.6 48.22 43.59 48.04 43.24"/><path class="cls-21" d="M48,43.24H44.44v.43h3.73l0-.07L48,43.24"/><path class="cls-23" d="M44.44,43.24h-1.1l.21.43h.89v-.43"/><path class="cls-6" d="M33.82,58.57h-1V63.7l.59-1.76.46,2.28V61.06h0V61h0V58.57"/><path class="cls-24" d="M43.45,52.67h0c.1.18.19.36.28.54H32.77v4h12.9l-.94-1.92-1.18-2.39-.1-.21"/><path class="cls-24" d="M43.62,48.5H32.77v4.17h12.9l-.11-.22h0l-1.13-2.31-.81-1.64M43.36,48h0l.07.14L43.36,48"/><polyline class="cls-24" points="32.81 21.86 32.77 21.94 32.77 47.91 32.77 47.98 43.36 47.98 43.36 47.98 43.36 47.98 44.43 47.98 45.67 47.98 44.44 45.47 43.55 43.67 43.34 43.24 43.34 43.23 41.35 39.2 41.34 39.19 39.24 34.92 32.81 21.86"/><path class="cls-25" d="M43.43,48.12l.19.38h0l-.21-.38"/><path class="cls-26" d="M43.36,48H32.77v.52H43.62l-.19-.38L43.36,48"/><path class="cls-26" d="M43.41,52.68H32.77v.54H43.69c-.09-.18-.18-.36-.28-.54"/><polyline class="cls-9" points="32.77 21.86 32.77 21.86 26.35 34.92 19.92 47.98 19.95 47.98 26.38 34.92 32.77 21.94 32.77 21.86"/><path class="cls-26" d="M32.77,21.94l-6.39,13L20,48H22.2l0,0,10.51,0h0v-26"/><path class="cls-9" d="M22.26,48H22.2l-2.28,4.69h0L22.26,48"/><path class="cls-26" d="M22.32,48h-.06L20,52.67H32.77V48.5H22l.28-.52"/><path class="cls-27" d="M32.77,48H22.32L22,48.5H32.77V48"/><path class="cls-27" d="M32.77,47.91h0l-10.51,0,0,0H32.77v-.07"/><path class="cls-9" d="M22.18,52.67h0Q21,54.94,19.92,57.19h0l2-4h0l.2-.37.09-.18"/><path class="cls-26" d="M32.77,53.22H21.91l-2,4H32.77v-4m0-.55H22.18l-.09.18.09-.17H32.77"/><path class="cls-28" d="M22.09,52.85l-.2.37h0l.18-.37"/><path class="cls-27" d="M32.77,52.68H22.18l-.09.17-.18.37H32.77v-.54"/><path class="cls-27" d="M22.16,52.67h0"/><path class="cls-8" d="M31.39,57.19h0V63.6c.24.66.47,1.33.7,2h0l.18-.55.45-1.34V58.57H31.39V57.19"/><polyline class="cls-8" points="33.81 57.19 32.81 57.19 32.77 57.19 32.77 58.57 33.81 58.57 33.81 57.19"/><polyline class="cls-26" points="33.81 57.19 32.77 57.19 32.77 57.19 32.81 57.19 33.81 57.19 33.81 57.19"/><polyline class="cls-27" points="32.77 57.19 31.39 57.19 31.39 57.19 32.77 57.19 32.77 57.19"/><polyline class="cls-29" points="32.77 57.19 31.39 57.19 31.39 58.57 32.77 58.57 32.77 57.19"/><path class="cls-11" d="M76.82,63.53l-1.26,2.56,1.26-2.56m12-7.2h-.2v.75c.07-.25.14-.5.2-.75m.13-.52h0"/><path class="cls-11" d="M79.1,54.42l-.68,1.39c.22-.46.45-.93.68-1.39m11.13-9.09h-2q0,5.24,0,10.48H89a45.22,45.22,0,0,0,1.28-10.48"/><path class="cls-11" d="M88.28,32.5l0,0q-.18,6.14-.37,12.27h2.34a45.5,45.5,0,0,0-1.58-11.57l-.37-.74"/><path class="cls-12" d="M80.62,55.81h0l-.24.51h0l.23-.47h0l0,0"/><path class="cls-13" d="M80.36,56.32h0"/><path class="cls-13" d="M88.61,55.81h-8l0,0,8,0m.34,0h-.33v.52h.2c.05-.18.09-.35.13-.52"/><path class="cls-16" d="M88.26,32.5l-2,4h0l2-4v0"/><path class="cls-30" d="M86.31,36.51h0l-1.05,2.14L83.08,43v0l2.17-4.42,1.06-2.14"/><path class="cls-31" d="M83.08,43l-.87,1.77h0l.86-1.74v0"/><path class="cls-17" d="M88.26,32.54l-2,4-1.06,2.14-2.17,4.42-.86,1.74h5.67q.19-6.14.37-12.27"/><path class="cls-16" d="M77,63.2h0l-.16.33L77,63.2"/><path class="cls-31" d="M79.38,58.33h0l-.21.43h0l.21-.43"/><path class="cls-17" d="M79.09,58.91h0L77,63.2h0l2.11-4.29m.08-.15v0h0v0h0"/><path class="cls-17" d="M80.37,56.33h0l-1,2h0l1-2"/><path class="cls-32" d="M79.16,58.79l-.07.12h0l.07-.12h0"/><path class="cls-16" d="M82.07,66.09h0m3,0h0"/><polyline class="cls-18" points="84.55 66.09 83.27 66.09 83.27 66.09 84.55 66.09 84.55 66.09"/><polyline class="cls-33" points="83.27 66.09 82.07 66.09 82.07 66.09 83.27 66.09 83.27 66.09"/><path class="cls-17" d="M88.62,56.33H80.37l-1,2-.21.43v0l-.07.12L77,63.2l-.16.33-1.26,2.56h9.5a44.25,44.25,0,0,0,3.56-9v-.75"/><path class="cls-34" d="M80.6,55.85h0l-.23.47h0l.23-.47"/><polyline class="cls-32" points="80.37 56.32 80.37 56.33 80.37 56.33 80.37 56.32 80.37 56.32"/><path class="cls-32" d="M88.62,55.81h0l-8,0-.23.47h8.25v-.52"/><path class="cls-30" d="M83.59,45.29l-.49,1h0l.21-.43.27-.54h0v0m.24-.48h0l0,.08,0-.07h0"/><path class="cls-31" d="M79.67,53.27h0l-.4.81h0l.4-.81m3.43-7q-1.3,2.63-2.59,5.25h0L83.1,46.3h0"/><path class="cls-17" d="M79.27,54.08l-.17.34.17-.34"/><path class="cls-17" d="M80.51,51.55l-.84,1.72h0l.84-1.72h0"/><polyline class="cls-31" points="80.62 55.81 80.11 55.81 80.11 55.81 80.62 55.81 80.62 55.81"/><polyline class="cls-17" points="80.11 55.81 78.42 55.81 78.42 55.81 80.11 55.81 80.11 55.81"/><polyline class="cls-17" points="88.26 55.81 88.2 55.81 80.62 55.81 80.62 55.81 88.26 55.81 88.26 55.81"/><path class="cls-17" d="M83.58,45.33l-.27.54-.21.43-2.59,5.25-.84,1.72-.4.81-.17.34-.68,1.39h9.84q0-5.25,0-10.48h-4.7m4.63-.52h0"/><path class="cls-35" d="M83.79,44.89l-.2.4.2-.4"/><path class="cls-13" d="M90.23,44.81h-2v.52h2v-.52"/><path class="cls-13" d="M90.23,44.81h0"/><path class="cls-36" d="M83.83,44.82l0,.07-.2.4v0h0l.25-.51"/><path class="cls-32" d="M88.28,44.81H83.83l-.25.51h4.7v-.52"/><path class="cls-6" d="M61.17,62.13l-.28.06,0,6.81.1-.16,1.17.92V62.34l-1-.21"/><path class="cls-37" d="M59.72,61.94l-.36.05h0l.35,0h0M61.3,33.82l-.62.18.12,27.77.54-.08h0l.8.11v.05l1.09.15L65,61.22,66.94,61l.5-.41,1-.82L70.23,59l0-.05.41-.58h0l.68-1,1.51-1.23.65-1.83.33-.48.4-.56.39-.55.13-1.94.65-1.84L75,47l.13-1.94-.9-1.73-.39-1.91L72.54,40l-.89-1.73L70,37.3l-1.32-1.42-1.22-.34-.66-.18-1.66-1h-2L63,34.29h0l-1.63-.46"/><path class="cls-18" d="M59.72,62h0v8.86h.06L60.87,69l0-6.81-1.17.28V62"/><path class="cls-16" d="M48.36,43.24h0l0,.13-.11.22h0l.12-.23,0-.13M60.68,34l-1.31.37H57.43l-1.65,1-1.87.52L52.59,37.3l-1.65,1L50.05,40l-1.32,1.42,0,.12h0l0-.13L50.06,40l.9-1.73,1.66-1L54,35.88l1.87-.52,1.66-1h2L60.68,34v0"/><path class="cls-38" d="M55,60.44l0,.05.58.47,1.92.26,1.78.78h0l-1.77-.77L55.66,61,55,60.44"/><path class="cls-22" d="M48.08,52.88h0l1,1.43.64,1.83,1.51,1.23L52.34,59l1.78.77.92.76,0-.05-.87-.71L52.37,59l-1.12-1.59-1.51-1.23-.66-1.83-1-1.43m-.14-.43h0"/><polyline class="cls-22" points="48.18 43.67 48.17 43.67 47.44 45.1 47.57 47.04 47.18 48.94 47.83 50.78 47.94 52.45 47.94 52.45 47.83 50.78 47.18 48.94 47.57 47.04 47.44 45.1 48.18 43.67"/><polyline class="cls-22" points="48.7 41.58 48.36 43.24 48.36 43.24 48.71 41.59 48.7 41.58"/><polyline class="cls-23" points="47.94 52.45 47.94 52.45 47.96 52.72 48.08 52.88 48.08 52.88 47.96 52.72 47.94 52.45"/><polyline class="cls-39" points="48.22 43.59 48.21 43.6 48.21 43.6 48.22 43.6 48.22 43.59"/><polyline class="cls-23" points="48.21 43.6 48.17 43.67 48.18 43.67 48.21 43.6 48.21 43.6"/><path class="cls-40" d="M60.68,34l-1.25.35h-2l-1.66,1L54,35.88,52.62,37.3l-1.66,1L50.06,40l-1.33,1.42,0,.13-.35,1.65,0,.13-.12.23h0l0,.07-.74,1.43L47.57,47l-.39,1.9.65,1.84.11,1.67h0l0,.27.12.16,1,1.43.66,1.83,1.51,1.23L52.37,59l1.78.77.87.71.64.52,1.93.26,1.77.77.36-.05v0h0l1.08-.15L60.68,34"/><path class="cls-18" d="M61.3,61.74l-.4,0v.4l.28-.06,1,.21v-.49l-.84-.11"/><path class="cls-40" d="M61.34,61.69h0l-.54.08h0l.09,0h0v0l.4,0,.84.11V61.8l-.8-.11"/><path class="cls-41" d="M60.9,61.79,59.72,62v.52l1.17-.28v-.4"/><path class="cls-42" d="M60.9,61.76h0l-.09,0v0h0l-1.08.14h0l1.18-.16v0"/><path class="cls-42" d="M60.8,61.77l-1.08.15h0l1.08-.14h0"/><path class="cls-43" d="M60.8,61.78l-1.08.14v0l1.08-.14h0v0"/><path class="cls-11" d="M70.9,70.77l-.16.23h.15v-.23m10.91-.41-.17.64H82l-.21-.64m-14.08-.42-.29.62-.2.44h1.09l-.6-1.06m4.69-.13L71.93,71h.8l-.31-1.19m-6.48-.28L65.25,71h1.17L66,69.6h0l0-.07M75.87,69c0,.67-.09,1.34-.14,2h.94c-.27-.68-.53-1.35-.8-2M1.34,50.34c-.28.52-.56,1-.83,1.55A44.81,44.81,0,0,0,8.16,71H63.71l-1.57-1.24L61,68.84l-.1.16-1.09,1.81h0l-.06.1L58.48,68.7l-1,1.8-1.94-4.14c-.13,1.43-.27,2.86-.4,4.3v.11c-.28-.92-.55-1.84-.83-2.76l-2.21,2.07.42-3.17-1.94,2.62c-.13-.87-.27-1.75-.41-2.62l-1.79,1.93c0-1.15.09-2.3.13-3.45-.5,1-1,1.92-1.49,2.89l-.44.84-1-2.9-.25.4c-.28.47-.57.93-.85,1.39l0,0-1.08-2.58-.07.13h0L42.06,68c-.28-.6-.56-1.19-.83-1.79l-1.38,2.21L39.43,65l-1.79,1.94c-.19-.51-.37-1-.55-1.52l-1.66,1.79c-.09-1.28-.18-2.57-.28-3.86l-1.1,2.07-.23-1.17-.46-2.28-.59,1.76L32.32,65l-.18.55h0l0,.08,0-.08h0c-.23-.66-.46-1.33-.7-2h0l-.24-.7c-.37.79-.74,1.57-1.1,2.35l-1.25-2.9c-.27.74-.55,1.47-.82,2.21-.42-1.38-.83-2.76-1.25-4.14l-1.24,2.21c-.14-.78-.27-1.57-.41-2.35-.27.5-.54,1-.8,1.51-.11.18-.21.37-.31.56-.18-.78-.36-1.56-.55-2.34l-1,1.93c-.41-1.43-.82-2.85-1.24-4.28-.18,1.24-.37,2.48-.55,3.73-.18-.74-.37-1.48-.55-2.21l-1.66,1V57.66l-1.52,1.93c.1-1.47.19-2.94.28-4.42l-2.9,4c-.27-1-.55-2-.83-3-.41.88-.83,1.75-1.24,2.62L11.89,57l-.1-.49-.1-.54-.06.09-1.46,2c-.14-1.19-.28-2.39-.41-3.59L7.94,56.3l-.39.39c.07-.72.13-1.44.2-2.16l.07-.74L7.69,54,6.17,56.14l-.83-1.38-.18-1.51-.24-2.08L3.68,54.48,3,52l0-.11-1.38,1.8-.27-3.32"/><path class="cls-44" d="M82.07,71H8.16a45.12,45.12,0,0,0,73.91,0"/></g></g></svg>